<?xml version="1.0" standalone="no"?>
<!DOCTYPE svg PUBLIC "-//W3C//DTD SVG 1.1//EN" "http://www.w3.org/Graphics/SVG/1.1/DTD/svg11.dtd" >
<svg xmlns="http://www.w3.org/2000/svg" xmlns:xlink="http://www.w3.org/1999/xlink" version="1.1">
<metadata>
Created by FontForge 20190801 at Thu Dec 19 10:01:10 2019
 By Henrique Beier
Copyright (c) 2019 Banco Bradesco S.A. All rights reserved.
</metadata>
<defs>
<font id="BradescoSans-SemiBoldItalic" horiz-adv-x="586" >
  <font-face 
    font-family="Bradesco Sans SemiBold"
    font-weight="600"
    font-style="italic"
    font-stretch="normal"
    units-per-em="1000"
    panose-1="0 0 7 0 0 0 0 0 0 0"
    ascent="800"
    descent="-200"
    x-height="523"
    cap-height="676"
    bbox="-487 -224 1322 994"
    underline-thickness="50"
    underline-position="-100"
    slope="-12"
    unicode-range="U+0020-FB02"
  />
<missing-glyph horiz-adv-x="471" 
d="M386 -212h-298v942h298v-942zM158 667v-31h61v-35h-62v-31h157v31h-62v35h62v31h-156zM157 545v-98h157v32h-62v66h-95zM219 479h-31v34h31v-34zM157 422v-31h62v-35h-62v-31h95v66h62v31h-157zM283 365v-62h-126v-32h157v94h-31zM219 251v-53h33v21h31v-44h-95v76h-31
v-107h157v107h-95zM157 88v-107h157v107h-157zM283 12h-95v44h95v-44zM157 -41v-31h66l-66 -44v-31h157v31h-96l66 44h30v31h-157z" />
    <glyph glyph-name="fi" unicode="fi" horiz-adv-x="689" 
d="M208.5 691.5q60.5 54.5 154.5 54.5q46 0 84.5 -17t65.5 -45l-66 -72q-32 32 -79 32q-96 0 -120 -106l-4 -18h204l-22 -105h-204l-88 -415h-122l114 533q22 104 82.5 158.5zM586 620q-18 17 -18 45q0 34 22.5 55.5t56.5 21.5q30 0 48.5 -17t18.5 -45q0 -33 -23 -55
t-56 -22q-31 0 -49 17zM554 523h122l-111 -523h-122z" />
    <glyph glyph-name="fl" unicode="fl" horiz-adv-x="749" 
d="M208.5 691.5q60.5 54.5 154.5 54.5q46 0 84.5 -17t65.5 -45l-66 -72q-32 32 -79 32q-96 0 -120 -106l-4 -18h204l-22 -105h-204l-88 -415h-122l114 533q22 104 82.5 158.5zM519 30.5q-39 37.5 -39 106.5q0 28 8 66l111 521l126 20l-118 -553q-4 -26 -4 -35q0 -59 65 -59
h22l-23 -104h-36q-73 0 -112 37.5z" />
    <glyph glyph-name=".notdef" horiz-adv-x="471" 
d="M386 -212h-298v942h298v-942zM158 667v-31h61v-35h-62v-31h157v31h-62v35h62v31h-156zM157 545v-98h157v32h-62v66h-95zM219 479h-31v34h31v-34zM157 422v-31h62v-35h-62v-31h95v66h62v31h-157zM283 365v-62h-126v-32h157v94h-31zM219 251v-53h33v21h31v-44h-95v76h-31
v-107h157v107h-95zM157 88v-107h157v107h-157zM283 12h-95v44h95v-44zM157 -41v-31h66l-66 -44v-31h157v31h-96l66 44h30v31h-157z" />
    <glyph glyph-name="space" unicode=" " horiz-adv-x="250" 
 />
    <glyph glyph-name="A" unicode="A" horiz-adv-x="669" 
d="M359 676h128l109 -676h-127l-22 160h-265l-91 -160h-131zM433 271l-37 271l-154 -271h191z" />
    <glyph glyph-name="Aacute" unicode="&#xc1;" horiz-adv-x="669" 
d="M359 676h128l109 -676h-127l-22 160h-265l-91 -160h-131zM433 271l-37 271l-154 -271h191zM493 883h143l-180 -141h-129z" />
    <glyph glyph-name="Acircumflex" unicode="&#xc2;" horiz-adv-x="669" 
d="M359 676h128l109 -676h-127l-22 160h-265l-91 -160h-131zM433 271l-37 271l-154 -271h191zM392 882h117l98 -140h-109l-57 74l-91 -74h-117z" />
    <glyph glyph-name="Adieresis" unicode="&#xc4;" horiz-adv-x="669" 
d="M359 676h128l109 -676h-127l-22 160h-265l-91 -160h-131zM433 271l-37 271l-154 -271h191zM282 756q-17 16 -17 43q0 31 21.5 52t52.5 21q28 0 46 -16.5t18 -42.5q0 -32 -21.5 -52.5t-53.5 -20.5q-29 0 -46 16zM487 756.5q-18 16.5 -18 42.5q0 31 22 52t54 21
q28 0 45.5 -16.5t17.5 -43.5q0 -32 -21.5 -52t-53.5 -20q-28 0 -46 16.5z" />
    <glyph glyph-name="Agrave" unicode="&#xc0;" horiz-adv-x="669" 
d="M359 676h128l109 -676h-127l-22 160h-265l-91 -160h-131zM433 271l-37 271l-154 -271h191zM276 883h129l106 -141h-115z" />
    <glyph glyph-name="Aring" unicode="&#xc5;" horiz-adv-x="669" 
d="M596 0h-127l-22 160h-265l-91 -160h-131l381 646q-21 18 -33.5 43t-12.5 54q0 54 39 91t94 37q36 0 66.5 -17t48.5 -46.5t18 -64.5t-18 -65t-49 -47zM386 784.5q-17 -16.5 -17 -41.5t17 -42.5t42 -17.5t42 17.5t17 42.5t-17 41.5t-42 16.5t-42 -16.5zM242 271h191
l-37 271z" />
    <glyph glyph-name="Atilde" unicode="&#xc3;" horiz-adv-x="669" 
d="M359 676h128l109 -676h-127l-22 160h-265l-91 -160h-131zM433 271l-37 271l-154 -271h191zM475 750q-16 6 -29.5 13t-18.5 10q-42 22 -74 22q-24 0 -45 -9.5t-50 -29.5l19 92q42 35 89 35q19 0 35.5 -6t40.5 -19q24 -12 43.5 -19t38.5 -7q24 0 43.5 8.5t34 18t19.5 12.5
l-19 -93q-46 -34 -93 -34q-18 0 -34 6z" />
    <glyph glyph-name="AE" unicode="&#xc6;" horiz-adv-x="1008" 
d="M548 676h495l-25 -116h-325l-33 -157h283l-24 -115h-284l-36 -171h334l-25 -117h-456l34 158h-253l-137 -158h-150zM509 266l58 276l-241 -276h183z" />
    <glyph glyph-name="B" unicode="B" horiz-adv-x="616" 
d="M396 676q58 0 101.5 -20.5t67 -56t23.5 -80.5q0 -60 -32 -101t-88 -62q44 -20 69 -59t25 -87q0 -66 -34.5 -113.5t-94 -72t-133.5 -24.5h-277l144 676h229zM428.5 424.5q38.5 28.5 38.5 78.5q0 33 -24.5 53t-71.5 20h-108l-39 -180h104q62 0 100.5 28.5zM403.5 129
q41.5 29 41.5 82q0 37 -26 58.5t-70 21.5h-148l-40 -191h132q69 0 110.5 29z" />
    <glyph glyph-name="C" unicode="C" horiz-adv-x="645" 
d="M180.5 21.5q-59.5 32.5 -91 92.5t-31.5 140q0 113 52.5 213t142 160t196.5 60q71 0 127.5 -30t88.5 -80l-90 -73q-48 66 -129 66q-73 0 -132 -43.5t-92.5 -113.5t-33.5 -146q0 -72 39 -116t107 -44q47 0 88.5 18.5t82.5 55.5l70 -86q-117 -106 -255 -106
q-80 0 -139.5 32.5z" />
    <glyph glyph-name="Ccedilla" unicode="&#xc7;" horiz-adv-x="645" 
d="M314 526.5q-59 -43.5 -92.5 -113.5t-33.5 -146q0 -72 39 -116t107 -44q47 0 88.5 18.5t82.5 55.5l70 -86q-100 -91 -216 -104q18 -29 18 -60q0 -65 -52.5 -99.5t-133.5 -34.5h-38l18 87h26q36 0 61.5 19.5t25.5 51.5q0 17 -13 37q-100 15 -156.5 84.5t-56.5 177.5
q0 113 52.5 213t142 160t196.5 60q71 0 127.5 -30t88.5 -80l-90 -73q-48 66 -129 66q-73 0 -132 -43.5z" />
    <glyph glyph-name="D" unicode="D" horiz-adv-x="699" 
d="M371 676q88 0 155.5 -37.5t104.5 -102t37 -143.5q0 -116 -52 -205t-144.5 -138.5t-208.5 -49.5h-239l143 676h204zM413 151q60 35 93 97t33 139q0 75 -46 124.5t-130 49.5h-95l-94 -445h100q79 0 139 35z" />
    <glyph glyph-name="Eth" unicode="&#xd0;" horiz-adv-x="731" 
d="M34 288l23 109h83l59 279h203q88 0 155.5 -37.5t104.5 -102t37 -143.5q0 -116 -52 -205t-144 -138.5t-208 -49.5h-240l61 288h-82zM445 151q60 35 93 97t33 139q0 75 -46.5 124.5t-129.5 49.5h-95l-35 -164h167l-24 -109h-166l-37 -172h101q79 0 139 35z" />
    <glyph glyph-name="E" unicode="E" horiz-adv-x="579" 
d="M167 676h447l-25 -116h-324l-34 -157h284l-25 -115h-283l-37 -171h335l-25 -117h-456z" />
    <glyph glyph-name="Eacute" unicode="&#xc9;" horiz-adv-x="579" 
d="M167 676h447l-25 -116h-324l-34 -157h284l-25 -115h-283l-37 -171h335l-25 -117h-456zM472 883h143l-180 -141h-129z" />
    <glyph glyph-name="Ecircumflex" unicode="&#xca;" horiz-adv-x="579" 
d="M167 676h447l-25 -116h-324l-34 -157h284l-25 -115h-283l-37 -171h335l-25 -117h-456zM371 882h117l98 -140h-109l-57 74l-91 -74h-117z" />
    <glyph glyph-name="Edieresis" unicode="&#xcb;" horiz-adv-x="579" 
d="M167 676h447l-25 -116h-324l-34 -157h284l-25 -115h-283l-37 -171h335l-25 -117h-456zM261 756q-17 16 -17 43q0 31 21.5 52t52.5 21q28 0 46 -16.5t18 -42.5q0 -32 -21.5 -52.5t-53.5 -20.5q-29 0 -46 16zM466 756.5q-18 16.5 -18 42.5q0 31 22 52t54 21
q28 0 45.5 -16.5t17.5 -43.5q0 -32 -21.5 -52t-53.5 -20q-28 0 -46 16.5z" />
    <glyph glyph-name="Egrave" unicode="&#xc8;" horiz-adv-x="579" 
d="M167 676h447l-25 -116h-324l-34 -157h284l-25 -115h-283l-37 -171h335l-25 -117h-456zM255 883h129l106 -141h-115z" />
    <glyph glyph-name="F" unicode="F" horiz-adv-x="567" 
d="M167 676h445l-26 -118h-320l-36 -171h279l-25 -118h-279l-58 -269h-123z" />
    <glyph glyph-name="G" unicode="G" horiz-adv-x="679" 
d="M181 22q-59 33 -91 92.5t-32 139.5q0 114 52 214t142.5 159.5t200.5 59.5q73 0 129.5 -30.5t88.5 -79.5l-87 -72q-48 65 -135 65q-76 0 -136.5 -43t-94 -113.5t-33.5 -148.5q0 -72 40 -115.5t108 -43.5q88 0 151 42l24 114h-144l22 104h257l-61 -285q-56 -45 -125 -68.5
t-137 -23.5q-80 0 -139 33z" />
    <glyph glyph-name="H" unicode="H" horiz-adv-x="701" 
d="M167 676h126l-57 -267h292l57 267h126l-144 -676h-126l61 286h-292l-60 -286h-126z" />
    <glyph glyph-name="I" unicode="I" horiz-adv-x="284" 
d="M167 676h126l-143 -676h-126z" />
    <glyph glyph-name="Iacute" unicode="&#xcd;" horiz-adv-x="284" 
d="M167 676h126l-143 -676h-126zM308 883h134l-145 -141h-122z" />
    <glyph glyph-name="Icircumflex" unicode="&#xce;" horiz-adv-x="284" 
d="M167 676h126l-143 -676h-126zM208 882h117l98 -140h-109l-57 74l-91 -74h-117z" />
    <glyph glyph-name="Idieresis" unicode="&#xcf;" horiz-adv-x="284" 
d="M167 676h126l-143 -676h-126zM98 756q-17 16 -17 43q0 31 21.5 52t52.5 21q28 0 46 -16.5t18 -42.5q0 -32 -21.5 -52.5t-53.5 -20.5q-29 0 -46 16zM303 756.5q-18 16.5 -18 42.5q0 31 22 52t54 21q28 0 45.5 -16.5t17.5 -43.5q0 -32 -21.5 -52t-53.5 -20q-28 0 -46 16.5z
" />
    <glyph glyph-name="Igrave" unicode="&#xcc;" horiz-adv-x="284" 
d="M167 676h126l-143 -676h-126zM106 883h120l72 -141h-107z" />
    <glyph glyph-name="J" unicode="J" horiz-adv-x="427" 
d="M55 123q76 0 118 37.5t59 118.5l84 397h126l-88 -416q-29 -134 -103.5 -197t-200.5 -63h-69l27 123h47z" />
    <glyph glyph-name="K" unicode="K" horiz-adv-x="679" 
d="M292 676l-58 -270h62q38 0 64 9.5t52.5 35.5t63.5 77l110 148h141l-157 -210q-63 -86 -119 -126l156 -340h-139l-128 289q-26 -4 -41 -4h-90l-61 -285h-124l143 676h125z" />
    <glyph glyph-name="L" unicode="L" horiz-adv-x="561" 
d="M167 676h126l-117 -552h318l-26 -124h-444z" />
    <glyph glyph-name="M" unicode="M" horiz-adv-x="852" 
d="M167 676h109l137 -425l328 425h121l-144 -676h-124l97 449l-247 -321h-100l-105 319l-95 -447h-120z" />
    <glyph glyph-name="N" unicode="N" horiz-adv-x="699" 
d="M167 676h98l223 -462l97 462h124l-144 -676h-97l-224 461l-96 -461h-124z" />
    <glyph glyph-name="Ntilde" unicode="&#xd1;" horiz-adv-x="699" 
d="M167 676h98l223 -462l97 462h124l-144 -676h-97l-224 461l-96 -461h-124zM483 750q-16 6 -29.5 13t-18.5 10q-42 22 -74 22q-24 0 -45 -9.5t-50 -29.5l19 92q42 35 89 35q19 0 35.5 -6t40.5 -19q24 -12 43.5 -19t38.5 -7q24 0 43.5 8.5t34 18t19.5 12.5l-19 -93
q-46 -34 -93 -34q-18 0 -34 6z" />
    <glyph glyph-name="O" unicode="O" horiz-adv-x="741" 
d="M186.5 23.5q-60.5 34.5 -93.5 96.5t-33 144q0 110 52 207.5t141 156.5t193 59q79 0 140 -34.5t94.5 -97t33.5 -143.5q0 -110 -51.5 -207.5t-140.5 -156.5t-195 -59q-80 0 -140.5 34.5zM465 150.5q57 43.5 89 112.5t32 144q0 73 -40 118t-108 45q-71 0 -128 -43.5
t-89 -113t-32 -144.5q0 -73 39.5 -117.5t108.5 -44.5q71 0 128 43.5z" />
    <glyph glyph-name="Oacute" unicode="&#xd3;" horiz-adv-x="741" 
d="M186.5 23.5q-60.5 34.5 -93.5 96.5t-33 144q0 110 52 207.5t141 156.5t193 59q79 0 140 -34.5t94.5 -97t33.5 -143.5q0 -110 -51.5 -207.5t-140.5 -156.5t-195 -59q-80 0 -140.5 34.5zM465 150.5q57 43.5 89 112.5t32 144q0 73 -40 118t-108 45q-71 0 -128 -43.5
t-89 -113t-32 -144.5q0 -73 39.5 -117.5t108.5 -44.5q71 0 128 43.5zM525 883h143l-180 -141h-129z" />
    <glyph glyph-name="Ocircumflex" unicode="&#xd4;" horiz-adv-x="741" 
d="M186.5 23.5q-60.5 34.5 -93.5 96.5t-33 144q0 110 52 207.5t141 156.5t193 59q79 0 140 -34.5t94.5 -97t33.5 -143.5q0 -110 -51.5 -207.5t-140.5 -156.5t-195 -59q-80 0 -140.5 34.5zM465 150.5q57 43.5 89 112.5t32 144q0 73 -40 118t-108 45q-71 0 -128 -43.5
t-89 -113t-32 -144.5q0 -73 39.5 -117.5t108.5 -44.5q71 0 128 43.5zM425 882h117l98 -140h-109l-57 74l-91 -74h-117z" />
    <glyph glyph-name="Odieresis" unicode="&#xd6;" horiz-adv-x="741" 
d="M186.5 23.5q-60.5 34.5 -93.5 96.5t-33 144q0 110 52 207.5t141 156.5t193 59q79 0 140 -34.5t94.5 -97t33.5 -143.5q0 -110 -51.5 -207.5t-140.5 -156.5t-195 -59q-80 0 -140.5 34.5zM465 150.5q57 43.5 89 112.5t32 144q0 73 -40 118t-108 45q-71 0 -128 -43.5
t-89 -113t-32 -144.5q0 -73 39.5 -117.5t108.5 -44.5q71 0 128 43.5zM315 756q-17 16 -17 43q0 31 21.5 52t52.5 21q28 0 46 -16.5t18 -42.5q0 -32 -21.5 -52.5t-53.5 -20.5q-29 0 -46 16zM520 756.5q-18 16.5 -18 42.5q0 31 22 52t54 21q28 0 45.5 -16.5t17.5 -43.5
q0 -32 -21.5 -52t-53.5 -20q-28 0 -46 16.5z" />
    <glyph glyph-name="Ograve" unicode="&#xd2;" horiz-adv-x="741" 
d="M186.5 23.5q-60.5 34.5 -93.5 96.5t-33 144q0 110 52 207.5t141 156.5t193 59q79 0 140 -34.5t94.5 -97t33.5 -143.5q0 -110 -51.5 -207.5t-140.5 -156.5t-195 -59q-80 0 -140.5 34.5zM465 150.5q57 43.5 89 112.5t32 144q0 73 -40 118t-108 45q-71 0 -128 -43.5
t-89 -113t-32 -144.5q0 -73 39.5 -117.5t108.5 -44.5q71 0 128 43.5zM309 883h129l106 -141h-115z" />
    <glyph glyph-name="Oslash" unicode="&#xd8;" horiz-adv-x="741" 
d="M59 263q0 111 52 209t141 156.5t195 58.5q83 0 146 -41l72 81h128l-128 -147q49 -71 49 -167q0 -111 -51.5 -208.5t-141 -156.5t-196.5 -59q-81 0 -142 39l-70 -80h-129l126 144q-51 72 -51 171zM437 570q-72 0 -129 -43.5t-88.5 -113.5t-31.5 -146q0 -38 14 -68l308 349
q-30 22 -73 22zM465 150.5q57 43.5 89 113t32 145.5q0 35 -13 63l-306 -345q30 -20 69 -20q72 0 129 43.5z" />
    <glyph glyph-name="Otilde" unicode="&#xd5;" horiz-adv-x="741" 
d="M186.5 23.5q-60.5 34.5 -93.5 96.5t-33 144q0 110 52 207.5t141 156.5t193 59q79 0 140 -34.5t94.5 -97t33.5 -143.5q0 -110 -51.5 -207.5t-140.5 -156.5t-195 -59q-80 0 -140.5 34.5zM465 150.5q57 43.5 89 112.5t32 144q0 73 -40 118t-108 45q-71 0 -128 -43.5
t-89 -113t-32 -144.5q0 -73 39.5 -117.5t108.5 -44.5q71 0 128 43.5zM508 750q-16 6 -29.5 13t-18.5 10q-42 22 -74 22q-24 0 -45 -9.5t-50 -29.5l19 92q42 35 89 35q19 0 35.5 -6t40.5 -19q24 -12 43.5 -19t38.5 -7q24 0 43.5 8.5t34 18t19.5 12.5l-19 -93q-46 -34 -93 -34
q-18 0 -34 6z" />
    <glyph glyph-name="OE" unicode="&#x152;" horiz-adv-x="1062" 
d="M179.5 23q-57.5 34 -89 95.5t-31.5 141.5q0 111 52.5 209.5t141 158t190.5 59.5q64 0 111.5 -26t76.5 -74l19 89h447l-25 -116h-325l-33 -157h283l-24 -115h-284l-36 -171h334l-25 -117h-456l16 77q-43 -42 -96.5 -65t-113.5 -23q-75 0 -132.5 34zM462.5 150.5
q57.5 43.5 90 113.5t32.5 145q0 73 -39.5 117t-107.5 44q-71 0 -128.5 -43.5t-89.5 -113.5t-32 -146q0 -72 38.5 -116t106.5 -44q72 0 129.5 43.5z" />
    <glyph glyph-name="P" unicode="P" horiz-adv-x="619" 
d="M403 676q64 0 113 -24.5t76 -67.5t27 -97q0 -75 -36.5 -133t-101.5 -90t-149 -32h-135l-49 -232h-124l143 676h236zM446 380q46 37 46 98q0 41 -28 65.5t-79 24.5h-116l-48 -225h104q75 0 121 37z" />
    <glyph glyph-name="Thorn" unicode="&#xde;" horiz-adv-x="613" 
d="M293 676l-18 -86h109q64 0 113 -25t76 -68t27 -97q0 -74 -36.5 -132t-101.5 -90t-149 -32h-132l-31 -146h-126l143 676h126zM427 293q46 37 46 98q0 41 -28 66t-79 25h-114l-48 -226h102q75 0 121 37z" />
    <glyph glyph-name="Q" unicode="Q" horiz-adv-x="742" 
d="M325 -11q-79 0 -139 33.5t-93 95t-33 142.5q0 111 52.5 209.5t142.5 158t195 59.5q79 0 139 -34t93 -95.5t33 -141.5q0 -95 -38.5 -182.5t-105.5 -147.5l68 -112l-98 -59l-65 107q-72 -33 -151 -33zM415 121l-63 103l99 59l58 -95q37 43 57.5 101t20.5 120q0 73 -39 117
t-108 44q-72 0 -129.5 -43.5t-89.5 -113.5t-32 -146q0 -75 38 -118t108 -43q43 0 80 15z" />
    <glyph glyph-name="R" unicode="R" horiz-adv-x="626" 
d="M393 676q64 0 114 -23.5t77.5 -64.5t27.5 -93q0 -78 -45.5 -130.5t-121.5 -73.5q43 -32 66 -114l49 -177h-133l-31 127q-12 47 -24 72t-35 37.5t-63 12.5h-75l-53 -249h-122l143 676h226zM443 390.5q45 34.5 45 94.5q0 39 -28 62.5t-81 23.5h-112l-45 -215h103
q73 0 118 34.5z" />
    <glyph glyph-name="S" unicode="S" horiz-adv-x="638" 
d="M131 20.5q-70 31.5 -117 84.5l78 85q40 -41 94.5 -63.5t113.5 -22.5q57 0 92.5 22t35.5 62q0 37 -29.5 58.5t-99.5 45.5q-97 33 -140.5 76t-43.5 116q0 60 35.5 106t97 71.5t138.5 25.5q70 0 133.5 -31t104.5 -85l-85 -71q-31 36 -75.5 55.5t-92.5 19.5q-58 0 -93.5 -23
t-35.5 -63q0 -32 27 -51t91 -41q103 -33 151 -78.5t48 -118.5q0 -101 -75.5 -156t-197.5 -55q-85 0 -155 31.5z" />
    <glyph glyph-name="Scaron" unicode="&#x160;" horiz-adv-x="638" 
d="M131 20.5q-70 31.5 -117 84.5l78 85q40 -41 94.5 -63.5t113.5 -22.5q57 0 92.5 22t35.5 62q0 37 -29.5 58.5t-99.5 45.5q-97 33 -140.5 76t-43.5 116q0 60 35.5 106t97 71.5t138.5 25.5q70 0 133.5 -31t104.5 -85l-85 -71q-31 36 -75.5 55.5t-92.5 19.5q-58 0 -93.5 -23
t-35.5 -63q0 -32 27 -51t91 -41q103 -33 151 -78.5t48 -118.5q0 -101 -75.5 -156t-197.5 -55q-85 0 -155 31.5zM229 882h109l58 -75l90 75h117l-159 -140h-116z" />
    <glyph glyph-name="uni1E9E" unicode="&#x1e9e;" horiz-adv-x="684" 
d="M203 65l65 75q51 -45 115 -45q62 0 99 28.5t37 78.5q0 40 -30.5 64.5t-88.5 24.5h-69l14 80l180 180q-34 28 -93 28q-81 0 -140.5 -57t-80.5 -156l-78 -366h-119l80 380q20 94 68.5 163.5t119 106.5t154.5 37q146 0 240 -107l-201 -203l14 -2q66 -11 107.5 -57.5
t41.5 -109.5q0 -65 -32.5 -114.5t-89.5 -77t-129 -27.5q-113 0 -184 76z" />
    <glyph glyph-name="T" unicode="T" horiz-adv-x="611" 
d="M305 554h-207l26 122h540l-26 -122h-207l-118 -554h-126z" />
    <glyph glyph-name="U" unicode="U" horiz-adv-x="706" 
d="M193 16.5q-56 28.5 -87.5 83t-31.5 130.5q0 48 11 95l74 351h126l-77 -362q-9 -39 -9 -74q0 -66 34 -100t92 -34q74 0 123.5 52t73.5 165l76 353h126l-77 -361q-34 -159 -118.5 -243t-207.5 -84q-72 0 -128 28.5z" />
    <glyph glyph-name="Uacute" unicode="&#xda;" horiz-adv-x="706" 
d="M193 16.5q-56 28.5 -87.5 83t-31.5 130.5q0 48 11 95l74 351h126l-77 -362q-9 -39 -9 -74q0 -66 34 -100t92 -34q74 0 123.5 52t73.5 165l76 353h126l-77 -361q-34 -159 -118.5 -243t-207.5 -84q-72 0 -128 28.5zM512 883h143l-180 -141h-129z" />
    <glyph glyph-name="Ucircumflex" unicode="&#xdb;" horiz-adv-x="706" 
d="M193 16.5q-56 28.5 -87.5 83t-31.5 130.5q0 48 11 95l74 351h126l-77 -362q-9 -39 -9 -74q0 -66 34 -100t92 -34q74 0 123.5 52t73.5 165l76 353h126l-77 -361q-34 -159 -118.5 -243t-207.5 -84q-72 0 -128 28.5zM411 882h117l98 -140h-109l-57 74l-91 -74h-117z" />
    <glyph glyph-name="Udieresis" unicode="&#xdc;" horiz-adv-x="706" 
d="M193 16.5q-56 28.5 -87.5 83t-31.5 130.5q0 48 11 95l74 351h126l-77 -362q-9 -39 -9 -74q0 -66 34 -100t92 -34q74 0 123.5 52t73.5 165l76 353h126l-77 -361q-34 -159 -118.5 -243t-207.5 -84q-72 0 -128 28.5zM301 756q-17 16 -17 43q0 31 21.5 52t52.5 21
q28 0 46 -16.5t18 -42.5q0 -32 -21.5 -52.5t-53.5 -20.5q-29 0 -46 16zM506 756.5q-18 16.5 -18 42.5q0 31 22 52t54 21q28 0 45.5 -16.5t17.5 -43.5q0 -32 -21.5 -52t-53.5 -20q-28 0 -46 16.5z" />
    <glyph glyph-name="Ugrave" unicode="&#xd9;" horiz-adv-x="706" 
d="M193 16.5q-56 28.5 -87.5 83t-31.5 130.5q0 48 11 95l74 351h126l-77 -362q-9 -39 -9 -74q0 -66 34 -100t92 -34q74 0 123.5 52t73.5 165l76 353h126l-77 -361q-34 -159 -118.5 -243t-207.5 -84q-72 0 -128 28.5zM295 883h129l106 -141h-115z" />
    <glyph glyph-name="V" unicode="V" horiz-adv-x="680" 
d="M106 676h137l73 -520l292 520h144l-400 -676h-133z" />
    <glyph glyph-name="W" unicode="W" horiz-adv-x="970" 
d="M116 676h132l13 -509l241 466h131l34 -466l229 509h137l-333 -676h-130l-43 464l-239 -464h-129z" />
    <glyph glyph-name="Wacute" unicode="&#x1e82;" horiz-adv-x="970" 
d="M116 676h132l13 -509l241 466h131l34 -466l229 509h137l-333 -676h-130l-43 464l-239 -464h-129zM646 883h143l-180 -141h-129z" />
    <glyph glyph-name="Wcircumflex" unicode="&#x174;" horiz-adv-x="970" 
d="M116 676h132l13 -509l241 466h131l34 -466l229 509h137l-333 -676h-130l-43 464l-239 -464h-129zM546 882h117l98 -140h-109l-57 74l-91 -74h-117z" />
    <glyph glyph-name="Wdieresis" unicode="&#x1e84;" horiz-adv-x="970" 
d="M116 676h132l13 -509l241 466h131l34 -466l229 509h137l-333 -676h-130l-43 464l-239 -464h-129zM436 756q-17 16 -17 43q0 31 21.5 52t52.5 21q28 0 46 -16.5t18 -42.5q0 -32 -21.5 -52.5t-53.5 -20.5q-29 0 -46 16zM641 756.5q-18 16.5 -18 42.5q0 31 22 52t54 21
q28 0 45.5 -16.5t17.5 -43.5q0 -32 -21.5 -52t-53.5 -20q-28 0 -46 16.5z" />
    <glyph glyph-name="Wgrave" unicode="&#x1e80;" horiz-adv-x="970" 
d="M116 676h132l13 -509l241 466h131l34 -466l229 509h137l-333 -676h-130l-43 464l-239 -464h-129zM430 883h129l106 -141h-115z" />
    <glyph glyph-name="X" unicode="X" horiz-adv-x="676" 
d="M284 359l-157 317h143l108 -229l197 229h154l-296 -329l169 -347h-143l-120 260l-223 -260h-155z" />
    <glyph glyph-name="Y" unicode="Y" horiz-adv-x="624" 
d="M248 256l-144 420h135l93 -301l220 301h147l-326 -424l-54 -252h-126z" />
    <glyph glyph-name="Yacute" unicode="&#xdd;" horiz-adv-x="624" 
d="M248 256l-144 420h135l93 -301l220 301h147l-326 -424l-54 -252h-126zM460 883h143l-180 -141h-129z" />
    <glyph glyph-name="Ycircumflex" unicode="&#x176;" horiz-adv-x="624" 
d="M248 256l-144 420h135l93 -301l220 301h147l-326 -424l-54 -252h-126zM359 882h117l98 -140h-109l-57 74l-91 -74h-117z" />
    <glyph glyph-name="Ydieresis" unicode="&#x178;" horiz-adv-x="624" 
d="M248 256l-144 420h135l93 -301l220 301h147l-326 -424l-54 -252h-126zM249 756q-17 16 -17 43q0 31 21.5 52t52.5 21q28 0 46 -16.5t18 -42.5q0 -32 -21.5 -52.5t-53.5 -20.5q-29 0 -46 16zM454 756.5q-18 16.5 -18 42.5q0 31 22 52t54 21q28 0 45.5 -16.5t17.5 -43.5
q0 -32 -21.5 -52t-53.5 -20q-28 0 -46 16.5z" />
    <glyph glyph-name="Ygrave" unicode="&#x1ef2;" horiz-adv-x="624" 
d="M248 256l-144 420h135l93 -301l220 301h147l-326 -424l-54 -252h-126zM243 883h129l106 -141h-115z" />
    <glyph glyph-name="Z" unicode="Z" horiz-adv-x="617" 
d="M11 100l448 458h-337l25 118h501l-20 -100l-446 -457h358l-25 -119h-524z" />
    <glyph glyph-name="Zcaron" unicode="&#x17d;" horiz-adv-x="617" 
d="M11 100l448 458h-337l25 118h501l-20 -100l-446 -457h358l-25 -119h-524zM239 882h109l58 -75l90 75h117l-159 -140h-116z" />
    <glyph glyph-name="a" unicode="a" horiz-adv-x="542" 
d="M54 25.5q-40 36.5 -40 95.5q0 86 68 133t178 47h118l3 13q5 30 5 42q0 37 -23.5 57t-65.5 20q-80 0 -146 -55l-55 75q103 81 212 81q90 0 139.5 -45.5t49.5 -125.5q0 -26 -9 -70l-61 -293h-83l-6 62q-41 -34 -87.5 -53.5t-87.5 -19.5q-69 0 -109 36.5zM268.5 103
q42.5 19 78.5 52l13 61h-116q-56 0 -89 -20.5t-33 -55.5q0 -26 17 -41t47 -15q40 0 82.5 19z" />
    <glyph glyph-name="aacute" unicode="&#xe1;" horiz-adv-x="542" 
d="M54 25.5q-40 36.5 -40 95.5q0 86 68 133t178 47h118l3 13q5 30 5 42q0 37 -23.5 57t-65.5 20q-80 0 -146 -55l-55 75q103 81 212 81q90 0 139.5 -45.5t49.5 -125.5q0 -26 -9 -70l-61 -293h-83l-6 62q-41 -34 -87.5 -53.5t-87.5 -19.5q-69 0 -109 36.5zM268.5 103
q42.5 19 78.5 52l13 61h-116q-56 0 -89 -20.5t-33 -55.5q0 -26 17 -41t47 -15q40 0 82.5 19zM385 744h137l-175 -144h-120z" />
    <glyph glyph-name="acircumflex" unicode="&#xe2;" horiz-adv-x="542" 
d="M54 25.5q-40 36.5 -40 95.5q0 86 68 133t178 47h118l3 13q5 30 5 42q0 37 -23.5 57t-65.5 20q-80 0 -146 -55l-55 75q103 81 212 81q90 0 139.5 -45.5t49.5 -125.5q0 -26 -9 -70l-61 -293h-83l-6 62q-41 -34 -87.5 -53.5t-87.5 -19.5q-69 0 -109 36.5zM268.5 103
q42.5 19 78.5 52l13 61h-116q-56 0 -89 -20.5t-33 -55.5q0 -26 17 -41t47 -15q40 0 82.5 19zM290 744h113l93 -144h-102l-59 78l-89 -78h-111z" />
    <glyph glyph-name="adieresis" unicode="&#xe4;" horiz-adv-x="542" 
d="M54 25.5q-40 36.5 -40 95.5q0 86 68 133t178 47h118l3 13q5 30 5 42q0 37 -23.5 57t-65.5 20q-80 0 -146 -55l-55 75q103 81 212 81q90 0 139.5 -45.5t49.5 -125.5q0 -26 -9 -70l-61 -293h-83l-6 62q-41 -34 -87.5 -53.5t-87.5 -19.5q-69 0 -109 36.5zM268.5 103
q42.5 19 78.5 52l13 61h-116q-56 0 -89 -20.5t-33 -55.5q0 -26 17 -41t47 -15q40 0 82.5 19zM180.5 621q-17.5 16 -17.5 42q0 32 21 52.5t52 20.5q28 0 46 -16.5t18 -42.5q0 -32 -21.5 -52t-52.5 -20q-28 0 -45.5 16zM382.5 621q-17.5 16 -17.5 42q0 32 21 52.5t52 20.5
q28 0 45.5 -16.5t17.5 -42.5q0 -32 -21 -52t-52 -20q-28 0 -45.5 16z" />
    <glyph glyph-name="agrave" unicode="&#xe0;" horiz-adv-x="542" 
d="M54 25.5q-40 36.5 -40 95.5q0 86 68 133t178 47h118l3 13q5 30 5 42q0 37 -23.5 57t-65.5 20q-80 0 -146 -55l-55 75q103 81 212 81q90 0 139.5 -45.5t49.5 -125.5q0 -26 -9 -70l-61 -293h-83l-6 62q-41 -34 -87.5 -53.5t-87.5 -19.5q-69 0 -109 36.5zM268.5 103
q42.5 19 78.5 52l13 61h-116q-56 0 -89 -20.5t-33 -55.5q0 -26 17 -41t47 -15q40 0 82.5 19zM180 744h125l99 -144h-112z" />
    <glyph glyph-name="aring" unicode="&#xe5;" horiz-adv-x="542" 
d="M54 25.5q-40 36.5 -40 95.5q0 86 68 133t178 47h118l3 13q5 30 5 42q0 37 -23.5 57t-65.5 20q-80 0 -146 -55l-55 75q103 81 212 81q90 0 139.5 -45.5t49.5 -125.5q0 -26 -9 -70l-61 -293h-83l-6 62q-41 -34 -87.5 -53.5t-87.5 -19.5q-69 0 -109 36.5zM268.5 103
q42.5 19 78.5 52l13 61h-116q-56 0 -89 -20.5t-33 -55.5q0 -26 17 -41t47 -15q40 0 82.5 19zM272 607.5q-29 16.5 -46.5 45.5t-17.5 63q0 53 37.5 89t90.5 36q34 0 63.5 -16.5t46.5 -45t17 -63.5t-17 -63.5t-46.5 -45t-63.5 -16.5q-35 0 -64 16.5zM376 674q17 17 17 42
t-17 41.5t-40 16.5q-24 0 -40.5 -16.5t-16.5 -41.5t16.5 -42t40.5 -17q23 0 40 17z" />
    <glyph glyph-name="atilde" unicode="&#xe3;" horiz-adv-x="542" 
d="M54 25.5q-40 36.5 -40 95.5q0 86 68 133t178 47h118l3 13q5 30 5 42q0 37 -23.5 57t-65.5 20q-80 0 -146 -55l-55 75q103 81 212 81q90 0 139.5 -45.5t49.5 -125.5q0 -26 -9 -70l-61 -293h-83l-6 62q-41 -34 -87.5 -53.5t-87.5 -19.5q-69 0 -109 36.5zM268.5 103
q42.5 19 78.5 52l13 61h-116q-56 0 -89 -20.5t-33 -55.5q0 -26 17 -41t47 -15q40 0 82.5 19zM366.5 606.5q-15.5 6.5 -41.5 21.5q-22 12 -39.5 18.5t-36.5 6.5q-24 0 -43 -9.5t-52 -30.5l20 93q45 36 88 36q19 0 36 -7t40 -20t42 -19.5t38 -6.5q22 0 40 8t33.5 18t22.5 14
l-20 -93q-45 -36 -92 -36q-20 0 -35.5 6.5z" />
    <glyph glyph-name="ae" unicode="&#xe6;" horiz-adv-x="894" 
d="M54.5 25.5q-40.5 36.5 -40.5 95.5q0 87 68.5 135.5t177.5 48.5h118l3 10q5 23 5 40q0 37 -23.5 57t-65.5 20q-81 0 -146 -54l-55 75q103 81 212 81q62 0 102 -24t57 -67q41 43 92.5 67t105.5 24q91 0 141.5 -55t50.5 -146q0 -36 -8 -78l-6 -30h-367v-13q0 -54 30 -87.5
t84 -33.5q78 0 143 57l64 -74q-97 -85 -217 -85q-66 0 -113 27t-72 75q-47 -46 -108 -74t-119 -28q-73 0 -113.5 36.5zM748 339q0 46 -23.5 72t-67.5 26q-57 0 -99 -35t-64 -91h252q2 22 2 28zM284 106.5q47 24.5 88 63.5q-2 22 -2 35v15h-126q-52 0 -87 -21.5t-35 -58.5
q0 -27 18 -42.5t51 -15.5q46 0 93 24.5z" />
    <glyph glyph-name="b" unicode="b" horiz-adv-x="622" 
d="M195.5 9q-39.5 18 -67.5 46l-29 -55h-87l154 724l126 20l-58 -273q38 30 80.5 46.5t83.5 16.5q84 0 134 -58t50 -152q0 -91 -39.5 -167.5t-109.5 -121t-156 -44.5q-42 0 -81.5 18zM367 127.5q45 29.5 69 79.5t24 109q0 50 -26 79t-71 29q-41 0 -81.5 -21t-73.5 -56
l-45 -209q21 -19 47 -29.5t53 -10.5q59 0 104 29.5z" />
    <glyph glyph-name="c" unicode="c" horiz-adv-x="521" 
d="M97.5 46.5q-57.5 57.5 -57.5 154.5q0 90 41.5 166.5t112.5 121.5t156 45q56 0 101 -25t71 -65l-77 -66q-37 48 -97 48q-53 0 -95.5 -30.5t-66.5 -80t-24 -102.5q0 -51 28 -83t76 -32q37 0 68 13.5t62 39.5l61 -80q-43 -39 -95.5 -60.5t-108.5 -21.5q-98 0 -155.5 57.5z
" />
    <glyph glyph-name="ccedilla" unicode="&#xe7;" horiz-adv-x="521" 
d="M457 71q-75 -67 -166 -79q17 -31 17 -59q0 -61 -47 -95t-124 -34h-35l17 82h23q33 0 56.5 19.5t23.5 50.5q0 18 -11 36q-80 12 -125.5 67.5t-45.5 141.5q0 90 41.5 166.5t112.5 121.5t156 45q56 0 101 -25t71 -65l-77 -66q-37 48 -97 48q-53 0 -95.5 -30.5t-66.5 -80
t-24 -102.5q0 -51 28 -83t76 -32q37 0 68 13.5t62 39.5z" />
    <glyph glyph-name="d" unicode="d" horiz-adv-x="621" 
d="M89 45.5q-50 55.5 -50 148.5q0 91 39.5 169.5t109.5 124.5t156 46q37 0 72.5 -13.5t62.5 -36.5l51 240l126 20l-158 -744h-85l-7 67q-41 -37 -88.5 -57t-93.5 -20q-85 0 -135 55.5zM340 120.5q40 20.5 73 55.5l46 212q-21 19 -47 29.5t-53 10.5q-60 0 -105 -29.5
t-69 -79.5t-24 -109q0 -50 26 -80t71 -30q42 0 82 20.5z" />
    <glyph glyph-name="eth" unicode="&#xf0;" horiz-adv-x="604" 
d="M142.5 15.5q-49.5 26.5 -76.5 74t-27 108.5q0 81 37.5 149.5t102.5 109.5t143 41q38 0 73.5 -12t63.5 -33q-9 68 -43 127l-160 -41l15 76l102 26q-31 39 -75 73l120 26q36 -30 66 -71l140 36l-16 -76l-86 -22q53 -103 53 -207q0 -65 -14 -128q-18 -83 -60.5 -147
t-105 -100t-138.5 -36q-65 0 -114.5 26.5zM382.5 150.5q49.5 54.5 68.5 142.5q7 33 9 64q-22 22 -52 34.5t-62 12.5q-55 0 -98 -27.5t-67 -73.5t-24 -100q0 -47 28 -77t76 -30q72 0 121.5 54.5z" />
    <glyph glyph-name="e" unicode="e" horiz-adv-x="570" 
d="M140.5 17q-48.5 28 -74 77t-25.5 111q0 87 40 163t108.5 121t151.5 45q91 0 142 -55t51 -146q0 -36 -9 -77l-6 -29h-366v-15q0 -54 29.5 -87.5t83.5 -33.5q79 0 143 57l63 -74q-97 -85 -217 -85q-66 0 -114.5 28zM424 340q0 46 -24 71.5t-68 25.5q-55 0 -96.5 -34
t-62.5 -89h248q3 15 3 26z" />
    <glyph glyph-name="eacute" unicode="&#xe9;" horiz-adv-x="570" 
d="M140.5 17q-48.5 28 -74 77t-25.5 111q0 87 40 163t108.5 121t151.5 45q91 0 142 -55t51 -146q0 -36 -9 -77l-6 -29h-366v-15q0 -54 29.5 -87.5t83.5 -33.5q79 0 143 57l63 -74q-97 -85 -217 -85q-66 0 -114.5 28zM424 340q0 46 -24 71.5t-68 25.5q-55 0 -96.5 -34
t-62.5 -89h248q3 15 3 26zM413 744h137l-175 -144h-120z" />
    <glyph glyph-name="ecircumflex" unicode="&#xea;" horiz-adv-x="570" 
d="M140.5 17q-48.5 28 -74 77t-25.5 111q0 87 40 163t108.5 121t151.5 45q91 0 142 -55t51 -146q0 -36 -9 -77l-6 -29h-366v-15q0 -54 29.5 -87.5t83.5 -33.5q79 0 143 57l63 -74q-97 -85 -217 -85q-66 0 -114.5 28zM424 340q0 46 -24 71.5t-68 25.5q-55 0 -96.5 -34
t-62.5 -89h248q3 15 3 26zM317 744h113l93 -144h-102l-59 78l-89 -78h-111z" />
    <glyph glyph-name="edieresis" unicode="&#xeb;" horiz-adv-x="570" 
d="M140.5 17q-48.5 28 -74 77t-25.5 111q0 87 40 163t108.5 121t151.5 45q91 0 142 -55t51 -146q0 -36 -9 -77l-6 -29h-366v-15q0 -54 29.5 -87.5t83.5 -33.5q79 0 143 57l63 -74q-97 -85 -217 -85q-66 0 -114.5 28zM424 340q0 46 -24 71.5t-68 25.5q-55 0 -96.5 -34
t-62.5 -89h248q3 15 3 26zM207.5 621q-17.5 16 -17.5 42q0 32 21 52.5t52 20.5q28 0 46 -16.5t18 -42.5q0 -32 -21.5 -52t-52.5 -20q-28 0 -45.5 16zM409.5 621q-17.5 16 -17.5 42q0 32 21 52.5t52 20.5q28 0 45.5 -16.5t17.5 -42.5q0 -32 -21 -52t-52 -20q-28 0 -45.5 16z
" />
    <glyph glyph-name="egrave" unicode="&#xe8;" horiz-adv-x="570" 
d="M140.5 17q-48.5 28 -74 77t-25.5 111q0 87 40 163t108.5 121t151.5 45q91 0 142 -55t51 -146q0 -36 -9 -77l-6 -29h-366v-15q0 -54 29.5 -87.5t83.5 -33.5q79 0 143 57l63 -74q-97 -85 -217 -85q-66 0 -114.5 28zM424 340q0 46 -24 71.5t-68 25.5q-55 0 -96.5 -34
t-62.5 -89h248q3 15 3 26zM207 744h125l99 -144h-112z" />
    <glyph glyph-name="f" unicode="f" horiz-adv-x="426" 
d="M208 691.5q61 54.5 154 54.5q47 0 85 -17.5t65 -45.5l-67 -73q-35 33 -79 33q-48 0 -77.5 -27t-40.5 -79l-3 -14h204l-23 -105h-203l-89 -418h-122l113 533q22 104 83 158.5z" />
    <glyph glyph-name="g" unicode="g" horiz-adv-x="616" 
d="M64.5 -196q-59.5 28 -90.5 71l75 73q28 -31 65.5 -49t81.5 -18q69 0 118 41.5t65 116.5l8 38q-37 -29 -78.5 -44t-83.5 -15q-84 0 -134 53t-50 142q0 86 39 160t108 117.5t154 43.5q42 0 81.5 -16.5t67.5 -43.5l26 49h86l-104 -493q-25 -117 -105 -185.5t-198 -68.5
q-72 0 -131.5 28zM340 140q39 19 71 52l43 202q-21 17 -46.5 26.5t-52.5 9.5q-59 0 -103 -27.5t-67 -74t-23 -102.5q0 -48 26.5 -76.5t70.5 -28.5q42 0 81 19z" />
    <glyph glyph-name="h" unicode="h" horiz-adv-x="601" 
d="M292 744l-58 -273q75 63 159 63q76 0 120 -45.5t44 -123.5q0 -37 -8 -74l-62 -291h-122l60 282q8 37 8 63q0 79 -76 79q-37 0 -77.5 -23t-72.5 -61l-73 -340h-122l154 724z" />
    <glyph glyph-name="i" unicode="i" horiz-adv-x="259" 
d="M124 523h122l-111 -523h-122zM156 620q-18 17 -18 45q0 34 22.5 55.5t56.5 21.5q30 0 48.5 -17t18.5 -45q0 -33 -23 -55t-56 -22q-31 0 -49 17z" />
    <glyph glyph-name="dotlessi" unicode="&#x131;" horiz-adv-x="259" 
d="M124 523h122l-111 -523h-122z" />
    <glyph glyph-name="iacute" unicode="&#xed;" horiz-adv-x="259" 
d="M124 523h122l-111 -523h-122zM262 744h134l-146 -144h-121z" />
    <glyph glyph-name="icircumflex" unicode="&#xee;" horiz-adv-x="259" 
d="M124 523h122l-111 -523h-122zM168 744h113l93 -144h-102l-59 78l-89 -78h-111z" />
    <glyph glyph-name="idieresis" unicode="&#xef;" horiz-adv-x="259" 
d="M124 523h122l-111 -523h-122zM58.5 621q-17.5 16 -17.5 42q0 32 21 52.5t52 20.5q28 0 46 -16.5t18 -42.5q0 -32 -21.5 -52t-52.5 -20q-28 0 -45.5 16zM260.5 621q-17.5 16 -17.5 42q0 32 21 52.5t52 20.5q28 0 45.5 -16.5t17.5 -42.5q0 -32 -21 -52t-52 -20
q-28 0 -45.5 16z" />
    <glyph glyph-name="igrave" unicode="&#xec;" horiz-adv-x="259" 
d="M124 523h122l-111 -523h-122zM63 744h120l72 -144h-107z" />
    <glyph glyph-name="j" unicode="j" horiz-adv-x="259" 
d="M-96 -105q86 0 109 103l111 525h122l-112 -530q-21 -100 -74.5 -149.5t-145.5 -49.5h-50l22 101h18zM156 620q-18 17 -18 45q0 34 22.5 55.5t56.5 21.5q30 0 48.5 -17t18.5 -45q0 -33 -23 -55t-56 -22q-31 0 -49 17z" />
    <glyph glyph-name="uni0237" unicode="&#x237;" horiz-adv-x="259" 
d="M-96 -105q86 0 109 103l111 525h122l-112 -530q-21 -100 -74.5 -149.5t-145.5 -49.5h-50l22 101h18z" />
    <glyph glyph-name="k" unicode="k" horiz-adv-x="590" 
d="M290 744l-90 -426h37q41 0 72.5 20.5t79.5 82.5l80 102h137l-126 -160q-41 -54 -90 -93l125 -270h-134l-96 216q-24 -4 -37 -4h-71l-45 -212h-120l154 724z" />
    <glyph glyph-name="l" unicode="l" horiz-adv-x="310" 
d="M80.5 30.5q-38.5 37.5 -38.5 106.5q0 32 7 66l111 521l126 20l-117 -553q-4 -17 -4 -35q0 -59 64 -59h22l-22 -104h-37q-73 0 -111.5 37.5z" />
    <glyph glyph-name="m" unicode="m" horiz-adv-x="896" 
d="M208 523l6 -66q82 77 166 77q50 0 85.5 -21.5t51.5 -60.5q87 82 184 82q72 0 112.5 -41.5t40.5 -114.5q0 -36 -8 -71l-65 -307h-121l65 303q7 37 7 53q0 68 -69 68q-33 0 -68.5 -19t-64.5 -52q-2 -25 -7 -46l-65 -307h-121l65 303q7 37 7 54q0 67 -68 67
q-35 0 -71.5 -24.5t-65.5 -63.5l-71 -336h-121l111 523h85z" />
    <glyph glyph-name="n" unicode="n" horiz-adv-x="601" 
d="M208 523l7 -67q41 38 86.5 58t91.5 20q76 0 120 -45.5t44 -123.5q0 -37 -8 -74l-62 -291h-122l60 282q8 37 8 63q0 79 -76 79q-37 0 -78 -22.5t-73 -61.5l-72 -340h-122l111 523h85z" />
    <glyph glyph-name="ntilde" unicode="&#xf1;" horiz-adv-x="601" 
d="M208 523l7 -67q41 38 86.5 58t91.5 20q76 0 120 -45.5t44 -123.5q0 -37 -8 -74l-62 -291h-122l60 282q8 37 8 63q0 79 -76 79q-37 0 -78 -22.5t-73 -61.5l-72 -340h-122l111 523h85zM416.5 606.5q-15.5 6.5 -41.5 21.5q-22 12 -39.5 18.5t-36.5 6.5q-24 0 -43 -9.5
t-52 -30.5l20 93q45 36 88 36q19 0 36 -7t40 -20t42 -19.5t38 -6.5q22 0 40 8t33.5 18t22.5 14l-20 -93q-45 -36 -92 -36q-20 0 -35.5 6.5z" />
    <glyph glyph-name="o" unicode="o" horiz-adv-x="613" 
d="M146 16q-50 27 -77.5 77t-27.5 115q0 86 41.5 161t113 120t155.5 45q66 0 116.5 -27t78 -76.5t27.5 -114.5q0 -87 -41.5 -162.5t-112.5 -120t-157 -44.5q-66 0 -116 27zM365.5 128q41.5 30 64 78.5t22.5 101.5q0 54 -29 86t-80 32q-52 0 -93.5 -30t-64.5 -79t-23 -102
q0 -54 29 -85.5t81 -31.5t93.5 30z" />
    <glyph glyph-name="oacute" unicode="&#xf3;" horiz-adv-x="613" 
d="M146 16q-50 27 -77.5 77t-27.5 115q0 86 41.5 161t113 120t155.5 45q66 0 116.5 -27t78 -76.5t27.5 -114.5q0 -87 -41.5 -162.5t-112.5 -120t-157 -44.5q-66 0 -116 27zM365.5 128q41.5 30 64 78.5t22.5 101.5q0 54 -29 86t-80 32q-52 0 -93.5 -30t-64.5 -79t-23 -102
q0 -54 29 -85.5t81 -31.5t93.5 30zM433 744h137l-175 -144h-120z" />
    <glyph glyph-name="ocircumflex" unicode="&#xf4;" horiz-adv-x="613" 
d="M146 16q-50 27 -77.5 77t-27.5 115q0 86 41.5 161t113 120t155.5 45q66 0 116.5 -27t78 -76.5t27.5 -114.5q0 -87 -41.5 -162.5t-112.5 -120t-157 -44.5q-66 0 -116 27zM365.5 128q41.5 30 64 78.5t22.5 101.5q0 54 -29 86t-80 32q-52 0 -93.5 -30t-64.5 -79t-23 -102
q0 -54 29 -85.5t81 -31.5t93.5 30zM338 744h113l93 -144h-102l-59 78l-89 -78h-111z" />
    <glyph glyph-name="odieresis" unicode="&#xf6;" horiz-adv-x="613" 
d="M146 16q-50 27 -77.5 77t-27.5 115q0 86 41.5 161t113 120t155.5 45q66 0 116.5 -27t78 -76.5t27.5 -114.5q0 -87 -41.5 -162.5t-112.5 -120t-157 -44.5q-66 0 -116 27zM365.5 128q41.5 30 64 78.5t22.5 101.5q0 54 -29 86t-80 32q-52 0 -93.5 -30t-64.5 -79t-23 -102
q0 -54 29 -85.5t81 -31.5t93.5 30zM228.5 621q-17.5 16 -17.5 42q0 32 21 52.5t52 20.5q28 0 46 -16.5t18 -42.5q0 -32 -21.5 -52t-52.5 -20q-28 0 -45.5 16zM430.5 621q-17.5 16 -17.5 42q0 32 21 52.5t52 20.5q28 0 45.5 -16.5t17.5 -42.5q0 -32 -21 -52t-52 -20
q-28 0 -45.5 16z" />
    <glyph glyph-name="ograve" unicode="&#xf2;" horiz-adv-x="613" 
d="M146 16q-50 27 -77.5 77t-27.5 115q0 86 41.5 161t113 120t155.5 45q66 0 116.5 -27t78 -76.5t27.5 -114.5q0 -87 -41.5 -162.5t-112.5 -120t-157 -44.5q-66 0 -116 27zM365.5 128q41.5 30 64 78.5t22.5 101.5q0 54 -29 86t-80 32q-52 0 -93.5 -30t-64.5 -79t-23 -102
q0 -54 29 -85.5t81 -31.5t93.5 30zM228 744h125l99 -144h-112z" />
    <glyph glyph-name="oslash" unicode="&#xf8;" horiz-adv-x="613" 
d="M41 207q0 87 41.5 162t112.5 120t156 45q68 0 120 -30l59 65h105l-105 -116q43 -57 43 -136q0 -88 -41.5 -163t-112.5 -120t-157 -45q-68 0 -121 31l-60 -67h-106l107 119q-41 55 -41 135zM343 426q-53 0 -94.5 -31t-64.5 -80t-23 -102q0 -24 9 -43l221 244
q-21 12 -48 12zM366 128.5q41 30.5 63.5 79.5t22.5 102q0 27 -10 46l-221 -246q21 -12 51 -12q53 0 94 30.5z" />
    <glyph glyph-name="otilde" unicode="&#xf5;" horiz-adv-x="613" 
d="M146 16q-50 27 -77.5 77t-27.5 115q0 86 41.5 161t113 120t155.5 45q66 0 116.5 -27t78 -76.5t27.5 -114.5q0 -87 -41.5 -162.5t-112.5 -120t-157 -44.5q-66 0 -116 27zM365.5 128q41.5 30 64 78.5t22.5 101.5q0 54 -29 86t-80 32q-52 0 -93.5 -30t-64.5 -79t-23 -102
q0 -54 29 -85.5t81 -31.5t93.5 30zM414.5 606.5q-15.5 6.5 -41.5 21.5q-22 12 -39.5 18.5t-36.5 6.5q-24 0 -43 -9.5t-52 -30.5l20 93q45 36 88 36q19 0 36 -7t40 -20t42 -19.5t38 -6.5q22 0 40 8t33.5 18t22.5 14l-20 -93q-45 -36 -92 -36q-20 0 -35.5 6.5z" />
    <glyph glyph-name="oe" unicode="&#x153;" horiz-adv-x="979" 
d="M146 16q-50 27 -77.5 77t-27.5 115q0 86 41.5 161t113 120t155.5 45q66 0 114 -29.5t72 -80.5q39 52 94 81t119 29q91 0 141.5 -55t50.5 -146q0 -34 -8 -77l-6 -29h-366l-1 -15q0 -54 30 -87.5t84 -33.5q78 0 143 57l64 -74q-97 -85 -217 -85q-69 0 -115 29.5t-68 82.5
q-41 -52 -98 -82t-122 -30q-66 0 -116 27zM833 340q0 45 -23.5 71t-67.5 26q-55 0 -97.5 -34t-63.5 -89h250q2 20 2 26zM365.5 127q41.5 30 64 79t22.5 102q0 54 -29.5 86t-80.5 32t-92.5 -30.5t-64.5 -79t-23 -101.5q0 -54 29 -86t80 -32q53 0 94.5 30z" />
    <glyph glyph-name="p" unicode="p" horiz-adv-x="622" 
d="M208 523l7 -66q40 37 88 57t95 20q85 0 134.5 -56.5t49.5 -149.5q0 -91 -39.5 -168.5t-109.5 -123t-156 -45.5q-37 0 -72 13t-62 36l-51 -242l-127 -19l158 744h85zM367 127.5q45 29.5 69.5 79t24.5 108.5q0 50 -25.5 79.5t-70.5 29.5q-43 0 -84 -21.5t-74 -58.5
l-44 -208q20 -18 46 -28t54 -10q59 0 104 29.5z" />
    <glyph glyph-name="thorn" unicode="&#xfe;" horiz-adv-x="622" 
d="M292 744l-57 -271q37 29 79.5 45t83.5 16q85 0 134.5 -56.5t49.5 -149.5q0 -91 -39.5 -168.5t-109.5 -123t-156 -45.5q-37 0 -72 13t-62 36l-51 -242l-127 -19l201 945zM367 127.5q45 29.5 69.5 79t24.5 108.5q0 50 -25.5 79.5t-70.5 29.5q-43 0 -83.5 -21t-73.5 -57
l-45 -210q19 -18 45.5 -28t54.5 -10q59 0 104 29.5z" />
    <glyph glyph-name="q" unicode="q" horiz-adv-x="621" 
d="M307.5 6q-42.5 -16 -83.5 -16q-85 0 -135 55.5t-50 148.5q0 91 39.5 169.5t109.5 124.5t156 46q43 0 83 -17.5t67 -46.5l28 53h86l-153 -725l-126 -19l58 273q-37 -30 -79.5 -46zM340 120q40 20 73 55l44 214q-20 18 -45.5 28.5t-52.5 10.5q-60 0 -105 -29.5t-69 -79.5
t-24 -109q0 -50 26 -80t71 -30q42 0 82 20z" />
    <glyph glyph-name="r" unicode="r" horiz-adv-x="413" 
d="M208 523l7 -69q89 78 202 78h20l-22 -106h-16q-54 0 -105 -24t-88 -66l-72 -336h-122l111 523h85z" />
    <glyph glyph-name="s" unicode="s" horiz-adv-x="497" 
d="M90.5 17q-58.5 28 -97.5 72l72 71q30 -32 73 -50.5t93 -18.5q41 0 65 14.5t24 43.5q0 25 -20.5 37.5t-75.5 32.5q-73 24 -109 58.5t-36 87.5q0 50 27.5 88.5t77 59.5t113.5 21q57 0 108.5 -25t84.5 -67l-75 -62q-22 27 -55.5 40.5t-69.5 13.5q-47 0 -73.5 -13.5
t-26.5 -41.5q0 -21 19 -32.5t66 -28.5l20 -7q71 -24 106 -61t35 -90q0 -81 -60.5 -126t-156.5 -45q-70 0 -128.5 28z" />
    <glyph glyph-name="scaron" unicode="&#x161;" horiz-adv-x="497" 
d="M90.5 17q-58.5 28 -97.5 72l72 71q30 -32 73 -50.5t93 -18.5q41 0 65 14.5t24 43.5q0 25 -20.5 37.5t-75.5 32.5q-73 24 -109 58.5t-36 87.5q0 50 27.5 88.5t77 59.5t113.5 21q57 0 108.5 -25t84.5 -67l-75 -62q-22 27 -55.5 40.5t-69.5 13.5q-47 0 -73.5 -13.5
t-26.5 -41.5q0 -21 19 -32.5t66 -28.5l20 -7q71 -24 106 -61t35 -90q0 -81 -60.5 -126t-156.5 -45q-70 0 -128.5 28zM161 744h102l59 -77l89 77h111l-155 -144h-113z" />
    <glyph glyph-name="germandbls" unicode="&#xdf;" horiz-adv-x="655" 
d="M205 57l58 78q48 -42 109 -42q51 0 82 19t31 57q0 30 -17 47t-52 37l-23 13q-38 21 -57 39.5t-19 51.5q0 34 18.5 61.5t52.5 58.5q5 5 15 13q31 29 43.5 46t12.5 41q0 28 -20.5 43.5t-54.5 15.5q-59 0 -96 -40t-53 -112l-102 -484h-121l103 482q26 125 98.5 193.5
t179.5 68.5q87 0 137.5 -39.5t50.5 -101.5q0 -38 -18.5 -65.5t-54.5 -57.5q-6 -5 -28 -24t-33 -35t-11 -30q0 -20 11 -31.5t41 -29.5l28 -18q87 -54 87 -139q0 -52 -27 -94t-75 -66t-109 -24q-117 0 -187 68z" />
    <glyph glyph-name="t" unicode="t" horiz-adv-x="424" 
d="M92.5 30q-42.5 41 -42.5 114q0 29 6 62l95 445l125 19l-31 -147h195l-23 -105h-194l-47 -222q-5 -22 -5 -36q0 -61 59 -61q28 0 47.5 7.5t41.5 22.5l48 -85q-34 -27 -73.5 -41t-79.5 -14q-79 0 -121.5 41z" />
    <glyph glyph-name="u" unicode="u" horiz-adv-x="600" 
d="M90.5 35q-43.5 46 -43.5 124q0 37 8 73l62 291h122l-60 -282q-8 -37 -8 -62q0 -79 73 -79q38 0 77.5 22.5t72.5 61.5l72 339h122l-111 -523h-85l-7 67q-84 -78 -176 -78q-75 0 -118.5 46z" />
    <glyph glyph-name="uacute" unicode="&#xfa;" horiz-adv-x="600" 
d="M90.5 35q-43.5 46 -43.5 124q0 37 8 73l62 291h122l-60 -282q-8 -37 -8 -62q0 -79 73 -79q38 0 77.5 22.5t72.5 61.5l72 339h122l-111 -523h-85l-7 67q-84 -78 -176 -78q-75 0 -118.5 46zM428 744h137l-175 -144h-120z" />
    <glyph glyph-name="ucircumflex" unicode="&#xfb;" horiz-adv-x="600" 
d="M90.5 35q-43.5 46 -43.5 124q0 37 8 73l62 291h122l-60 -282q-8 -37 -8 -62q0 -79 73 -79q38 0 77.5 22.5t72.5 61.5l72 339h122l-111 -523h-85l-7 67q-84 -78 -176 -78q-75 0 -118.5 46zM332 744h113l93 -144h-102l-59 78l-89 -78h-111z" />
    <glyph glyph-name="udieresis" unicode="&#xfc;" horiz-adv-x="600" 
d="M90.5 35q-43.5 46 -43.5 124q0 37 8 73l62 291h122l-60 -282q-8 -37 -8 -62q0 -79 73 -79q38 0 77.5 22.5t72.5 61.5l72 339h122l-111 -523h-85l-7 67q-84 -78 -176 -78q-75 0 -118.5 46zM222.5 621q-17.5 16 -17.5 42q0 32 21 52.5t52 20.5q28 0 46 -16.5t18 -42.5
q0 -32 -21.5 -52t-52.5 -20q-28 0 -45.5 16zM424.5 621q-17.5 16 -17.5 42q0 32 21 52.5t52 20.5q28 0 45.5 -16.5t17.5 -42.5q0 -32 -21 -52t-52 -20q-28 0 -45.5 16z" />
    <glyph glyph-name="ugrave" unicode="&#xf9;" horiz-adv-x="600" 
d="M90.5 35q-43.5 46 -43.5 124q0 37 8 73l62 291h122l-60 -282q-8 -37 -8 -62q0 -79 73 -79q38 0 77.5 22.5t72.5 61.5l72 339h122l-111 -523h-85l-7 67q-84 -78 -176 -78q-75 0 -118.5 46zM222 744h125l99 -144h-112z" />
    <glyph glyph-name="v" unicode="v" horiz-adv-x="578" 
d="M72 523h127l62 -387l222 387h138l-323 -523h-128z" />
    <glyph glyph-name="w" unicode="w" horiz-adv-x="813" 
d="M78 523h124l11 -373l184 339h119l35 -341l172 375h128l-266 -523h-123l-37 344l-184 -344h-121z" />
    <glyph glyph-name="wacute" unicode="&#x1e83;" horiz-adv-x="813" 
d="M78 523h124l11 -373l184 339h119l35 -341l172 375h128l-266 -523h-123l-37 344l-184 -344h-121zM532 744h137l-175 -144h-120z" />
    <glyph glyph-name="wcircumflex" unicode="&#x175;" horiz-adv-x="813" 
d="M78 523h124l11 -373l184 339h119l35 -341l172 375h128l-266 -523h-123l-37 344l-184 -344h-121zM436 744h113l93 -144h-102l-59 78l-89 -78h-111z" />
    <glyph glyph-name="wdieresis" unicode="&#x1e85;" horiz-adv-x="813" 
d="M78 523h124l11 -373l184 339h119l35 -341l172 375h128l-266 -523h-123l-37 344l-184 -344h-121zM327.5 621q-17.5 16 -17.5 42q0 32 21 52.5t52 20.5q28 0 46 -16.5t18 -42.5q0 -32 -21.5 -52t-52.5 -20q-28 0 -45.5 16zM529.5 621q-17.5 16 -17.5 42q0 32 21 52.5
t52 20.5q28 0 45.5 -16.5t17.5 -42.5q0 -32 -21 -52t-52 -20q-28 0 -45.5 16z" />
    <glyph glyph-name="wgrave" unicode="&#x1e81;" horiz-adv-x="813" 
d="M78 523h124l11 -373l184 339h119l35 -341l172 375h128l-266 -523h-123l-37 344l-184 -344h-121zM327 744h125l99 -144h-112z" />
    <glyph glyph-name="x" unicode="x" horiz-adv-x="571" 
d="M217 278l-129 245h136l82 -168l150 168h140l-238 -256l140 -267h-137l-91 189l-169 -189h-142z" />
    <glyph glyph-name="y" unicode="y" horiz-adv-x="569" 
d="M17 -98q47 0 82 21.5t68 69.5l21 35l-120 495h131l73 -361l206 361h134l-335 -553q-55 -91 -117.5 -133.5t-144.5 -42.5h-47l23 108h26z" />
    <glyph glyph-name="yacute" unicode="&#xfd;" horiz-adv-x="569" 
d="M17 -98q47 0 82 21.5t68 69.5l21 35l-120 495h131l73 -361l206 361h134l-335 -553q-55 -91 -117.5 -133.5t-144.5 -42.5h-47l23 108h26zM417 744h137l-175 -144h-120z" />
    <glyph glyph-name="ycircumflex" unicode="&#x177;" horiz-adv-x="569" 
d="M17 -98q47 0 82 21.5t68 69.5l21 35l-120 495h131l73 -361l206 361h134l-335 -553q-55 -91 -117.5 -133.5t-144.5 -42.5h-47l23 108h26zM321 744h113l93 -144h-102l-59 78l-89 -78h-111z" />
    <glyph glyph-name="ydieresis" unicode="&#xff;" horiz-adv-x="569" 
d="M17 -98q47 0 82 21.5t68 69.5l21 35l-120 495h131l73 -361l206 361h134l-335 -553q-55 -91 -117.5 -133.5t-144.5 -42.5h-47l23 108h26zM212.5 621q-17.5 16 -17.5 42q0 32 21 52.5t52 20.5q28 0 46 -16.5t18 -42.5q0 -32 -21.5 -52t-52.5 -20q-28 0 -45.5 16zM414.5 621
q-17.5 16 -17.5 42q0 32 21 52.5t52 20.5q28 0 45.5 -16.5t17.5 -42.5q0 -32 -21 -52t-52 -20q-28 0 -45.5 16z" />
    <glyph glyph-name="ygrave" unicode="&#x1ef3;" horiz-adv-x="569" 
d="M17 -98q47 0 82 21.5t68 69.5l21 35l-120 495h131l73 -361l206 361h134l-335 -553q-55 -91 -117.5 -133.5t-144.5 -42.5h-47l23 108h26zM212 744h125l99 -144h-112z" />
    <glyph glyph-name="z" unicode="z" horiz-adv-x="537" 
d="M14 82l346 339h-266l22 102h421l-16 -81l-343 -339h276l-22 -103h-434z" />
    <glyph glyph-name="zcaron" unicode="&#x17e;" horiz-adv-x="537" 
d="M14 82l346 339h-266l22 102h421l-16 -81l-343 -339h276l-22 -103h-434zM189 744h102l59 -77l89 77h111l-155 -144h-113z" />
    <glyph glyph-name="ordfeminine" unicode="&#xaa;" horiz-adv-x="421" 
d="M85.5 295.5q-31.5 27.5 -31.5 75.5q0 65 50.5 101t134.5 36h93l1 8q4 22 4 30q0 52 -59 52q-29 0 -59.5 -11.5t-56.5 -32.5l-47 70q38 30 81 45.5t86 15.5q74 0 113 -35t39 -98q0 -25 -6 -55l-47 -221h-73l-6 45q-31 -24 -65 -38.5t-64 -14.5q-56 0 -87.5 27.5zM309 398
l8 41h-84q-35 0 -60 -14t-25 -40q0 -17 11.5 -26.5t31.5 -9.5q64 0 118 49z" />
    <glyph glyph-name="ordmasculine" unicode="&#xba;" horiz-adv-x="472" 
d="M123 314q-48 46 -48 121q0 67 32 124.5t87 91.5t121 34q78 0 125.5 -46t47.5 -121q0 -67 -32 -124.5t-87 -91.5t-121 -34q-77 0 -125 46zM320 386q29 20 44.5 53.5t15.5 71.5q0 34 -19 55.5t-52 21.5q-38 0 -66.5 -20.5t-44 -53.5t-15.5 -71q0 -34 19.5 -55.5t51.5 -21.5
q37 0 66 20z" />
    <glyph glyph-name="uni03BC" unicode="&#x3bc;" horiz-adv-x="606" 
d="M245 523l-61 -287q-7 -34 -7 -61q0 -39 18 -57.5t57 -18.5q37 0 75.5 22.5t71.5 59.5l72 342h122l-111 -523h-84l-7 68q-85 -79 -181 -79q-24 0 -42.5 7.5t-30.5 20.5l-45 -219l-126 -19l157 744h122z" />
    <glyph glyph-name="zero" unicode="0" horiz-adv-x="628" 
d="M114 56q-58 67 -58 178q0 110 41 210t116 161.5t171 61.5q65 0 114 -30.5t75.5 -86t26.5 -128.5q0 -109 -40.5 -209t-115.5 -162t-172 -62q-100 0 -158 67zM385 157q45 48 69 121t24 144q0 59 -26 92.5t-75 33.5q-60 0 -105.5 -47.5t-69.5 -120t-24 -143.5q0 -60 27 -94
t76 -34q59 0 104 48z" />
    <glyph glyph-name="one" unicode="1" horiz-adv-x="402" 
d="M247 535l-160 -41l22 103l193 60h93l-139 -657h-123z" />
    <glyph glyph-name="two" unicode="2" horiz-adv-x="575" 
d="M293 308l24 20q61 48 88 79.5t27 71.5q0 33 -23 51.5t-67 18.5q-45 0 -87 -20.5t-87 -59.5l-63 93q121 105 257 105q93 0 145.5 -48t52.5 -126q0 -66 -39 -119t-113 -111l-190 -150h264l-24 -113h-454l16 83z" />
    <glyph glyph-name="three" unicode="3" horiz-adv-x="562" 
d="M99.5 17.5q-60.5 28.5 -96.5 73.5l78 72q29 -29 69 -46t81 -17q67 0 108 29.5t41 81.5q0 39 -28.5 61.5t-78.5 22.5h-96l13 77l204 174h-277l23 111h433l-17 -84l-215 -186q74 -10 118 -58.5t44 -117.5q0 -71 -36 -121t-99 -75.5t-143 -25.5q-65 0 -125.5 28.5z" />
    <glyph glyph-name="four" unicode="4" horiz-adv-x="599" 
d="M337 157h-319l18 92l407 408h113l-84 -393h88l-22 -107h-88l-34 -157h-112zM360 264l51 239l-234 -239h183z" />
    <glyph glyph-name="five" unicode="5" horiz-adv-x="538" 
d="M94 17.5q-61 28.5 -96 74.5l81 71q28 -31 65 -46.5t81 -15.5q63 0 101 30t38 84q0 37 -29 60.5t-84 23.5h-170l14 76l102 282h342l-24 -111h-254l-47 -139h66q63 0 110.5 -23t73 -64t25.5 -92q0 -113 -72 -176t-191 -63q-71 0 -132 28.5z" />
    <glyph glyph-name="six" unicode="6" horiz-adv-x="585" 
d="M162.5 17q-50.5 29 -78 82.5t-27.5 123.5q0 49 10 102q18 105 65 182t114 118.5t144 41.5q58 0 107.5 -23t84.5 -68l-75 -71q-25 28 -52.5 39.5t-61.5 11.5q-66 0 -118 -46t-79 -131q73 30 141 30q57 0 100.5 -24t67.5 -66.5t24 -95.5q0 -68 -32.5 -121.5t-89.5 -83.5
t-128 -30q-66 0 -116.5 29zM383 131.5q35 33.5 35 85.5q-1 41 -29 66t-80 25q-74 0 -135 -28q-5 -27 -5 -55q1 -59 34.5 -93t88.5 -34q56 0 91 33.5z" />
    <glyph glyph-name="seven" unicode="7" horiz-adv-x="549" 
d="M421 543h-320l24 114h467l-13 -67l-374 -590h-137z" />
    <glyph glyph-name="eight" unicode="8" horiz-adv-x="604" 
d="M144.5 10.5q-53.5 22.5 -83 62t-29.5 89.5q0 57 39.5 105t113.5 86q-64 46 -64 126q0 55 34 98t90.5 67t120.5 24t113 -20.5t76 -56.5t27 -82q0 -106 -125 -177q81 -57 81 -139q0 -65 -37 -111t-98.5 -70t-134.5 -24q-70 0 -123.5 22.5zM445 421q28 28 28 65q0 35 -31 57
t-82 22q-55 0 -92 -23.5t-37 -60.5q0 -35 28 -55.5t96 -43.5l17 -7q45 18 73 46zM385 122q39 26 39 67q0 39 -32.5 63t-109.5 52l-12 5q-54 -23 -87 -55.5t-33 -72.5t37 -62.5t97 -22.5q62 0 101 26z" />
    <glyph glyph-name="nine" unicode="9" horiz-adv-x="587" 
d="M117 13q-56 24 -91 69l75 71q48 -52 125 -52q148 0 196 182q-78 -33 -146 -33q-55 0 -99.5 24.5t-69.5 66.5t-25 93q0 68 32 121t89 82.5t129 29.5q66 0 116.5 -31t78 -85.5t27.5 -125.5q0 -62 -9 -112q-17 -101 -61 -174t-108 -111.5t-141 -38.5q-62 0 -118 24zM441 383
q3 21 1 44q-1 61 -33.5 96t-89.5 35q-56 0 -90.5 -31t-34.5 -82q0 -44 29.5 -69t82.5 -25q73 0 135 32z" />
    <glyph glyph-name="zero.zero" horiz-adv-x="627" 
d="M498 636.5q49 -30.5 75.5 -86t26.5 -128.5q0 -109 -41 -209t-115.5 -162t-171.5 -62q-100 0 -158 67t-58 178q0 110 41 210t116 161.5t171 61.5q65 0 114 -30.5zM268.5 508.5q-47.5 -50.5 -72.5 -127t-25 -150.5v-1l290 288q-27 41 -82 41q-63 0 -110.5 -50.5z
M387.5 148.5q46.5 50.5 71 127t25.5 150.5l-289 -287q30 -41 84 -41q62 0 108.5 50.5z" />
    <glyph glyph-name="zero.tf" 
d="M141 19q-47 30 -72.5 85t-25.5 128q0 110 40.5 210.5t113.5 162.5t166 62q63 0 110 -30.5t73 -86t26 -127.5q0 -109 -40 -209t-113 -162.5t-167 -62.5q-64 0 -111 30zM361 157.5q43 48.5 66 122t23 143.5q0 58 -24.5 91.5t-69.5 33.5q-58 0 -101.5 -48t-66.5 -120.5
t-23 -143.5q0 -59 25.5 -93t70.5 -34q57 0 100 48.5z" />
    <glyph glyph-name="one.tf" 
d="M346 535l-182 -47l21 100l215 69h94l-140 -657h-122z" />
    <glyph glyph-name="two.tf" 
d="M294 308l24 20q61 48 88 79.5t27 71.5q0 33 -23 51.5t-67 18.5q-45 0 -87 -20.5t-87 -59.5l-63 93q121 105 257 105q93 0 145.5 -48t52.5 -126q0 -66 -39 -119t-113 -111l-190 -150h264l-24 -113h-454l16 83z" />
    <glyph glyph-name="three.tf" 
d="M108.5 18q-60.5 29 -96.5 74l78 72q28 -29 68 -46t81 -17q67 0 108 29t41 81q0 39 -28 61.5t-78 22.5h-97l14 76l207 175h-281l24 111h432l-16 -84l-216 -186q74 -11 118.5 -58.5t44.5 -117.5q0 -71 -36 -121t-99 -75.5t-143 -25.5q-65 0 -125.5 29z" />
    <glyph glyph-name="four.tf" 
d="M331 157h-316l17 90l404 410h114l-84 -394h88l-22 -106h-89l-33 -157h-113zM354 263l51 240l-235 -240h184z" />
    <glyph glyph-name="five.tf" 
d="M125 17.5q-61 28.5 -96 74.5l80 71q57 -62 146 -62q63 0 101 30t38 84q0 39 -28 62t-84 23h-172l15 75l98 282h347l-24 -111h-255l-47 -140h62q65 0 113 -23t74 -63t26 -92q0 -112 -71.5 -175.5t-190.5 -63.5q-71 0 -132 28.5z" />
    <glyph glyph-name="six.tf" 
d="M165.5 17q-50.5 29 -78 82.5t-27.5 123.5q0 40 10 102q18 105 65 182t114.5 118.5t144.5 41.5q58 0 107.5 -23t83.5 -68l-74 -71q-25 27 -52.5 39t-62.5 12q-66 0 -117.5 -46t-78.5 -131q71 30 140 30q58 0 102 -24.5t67.5 -68t23.5 -97.5q-1 -67 -33.5 -119.5t-89.5 -82
t-127 -29.5q-67 0 -117.5 29zM387.5 131.5q34.5 33.5 33.5 85.5q0 41 -28.5 66t-79.5 25q-75 0 -136 -28q-5 -36 -4 -55q1 -59 34.5 -93t88.5 -34q57 0 91.5 33.5z" />
    <glyph glyph-name="seven.tf" 
d="M435 543h-320l24 114h467l-13 -67l-374 -590h-137z" />
    <glyph glyph-name="eight.tf" 
d="M142 10.5q-54 22.5 -83.5 62.5t-29.5 90q0 57 40 105t114 85q-65 49 -65 126q0 55 34 98t90.5 67t120.5 24q65 0 114 -20t76 -56t27 -82q0 -106 -126 -178q81 -57 81 -140q0 -64 -36.5 -110t-98 -70t-134.5 -24q-70 0 -124 22.5zM442 421q28 29 28 66q0 36 -30.5 57.5
t-82.5 21.5q-55 0 -92 -23t-37 -60q0 -34 28 -56t92 -44l20 -8q46 17 74 46zM382.5 120q38.5 26 38.5 68q0 38 -31.5 62t-104.5 52l-17 7q-55 -23 -88 -55.5t-33 -72.5q0 -41 37 -64t97 -23q63 0 101.5 26z" />
    <glyph glyph-name="nine.tf" 
d="M117 13q-56 24 -91 69l75 71q48 -52 125 -52q148 0 196 182q-78 -33 -146 -33q-55 0 -99.5 24.5t-69.5 66.5t-25 93q0 68 32 121t89 82.5t129 29.5q66 0 116.5 -31t78 -85.5t27.5 -125.5q0 -62 -9 -112q-17 -101 -61 -174t-108 -111.5t-141 -38.5q-62 0 -118 24zM441 383
q3 21 1 44q-1 61 -33.5 96t-89.5 35q-56 0 -90.5 -31t-34.5 -82q0 -44 29.5 -69t82.5 -25q73 0 135 32z" />
    <glyph glyph-name="zero.tf.zero" 
d="M473 636.5q47 -30.5 73 -86t26 -127.5q0 -109 -40 -209t-113 -162.5t-167 -62.5q-64 0 -111 30t-72.5 85t-25.5 128q0 110 40.5 210.5t113.5 162.5t166 62q63 0 110 -30.5zM254 507q-45 -47 -70 -119.5t-27 -144.5l281 267q-25 44 -80 44q-59 0 -104 -47zM361.5 150
q44.5 48 69.5 121t27 145l-282 -267q27 -47 82 -47q59 0 103.5 48z" />
    <glyph glyph-name="zero.subs" horiz-adv-x="449" 
d="M60.5 -44.5q-38.5 40.5 -38.5 109.5q0 65 24.5 122.5t70 93t105.5 35.5q64 0 103 -41.5t39 -109.5q0 -65 -24 -122.5t-69.5 -92.5t-106.5 -35q-65 0 -103.5 40.5zM225 30.5q23 25.5 34.5 63t11.5 73.5q0 27 -14 43t-39 16q-32 0 -55.5 -25t-35.5 -62t-12 -73
q0 -28 15 -44.5t40 -16.5q32 0 55 25.5z" />
    <glyph glyph-name="one.subs" horiz-adv-x="334" 
d="M144 218l-98 -23l15 79l123 36h72l-82 -387h-94z" />
    <glyph glyph-name="two.subs" horiz-adv-x="426" 
d="M167 107l18 14q35 26 48.5 40t13.5 32q0 16 -11.5 25t-33.5 9q-50 0 -105 -45l-48 70q78 65 168 65q61 0 95.5 -30t34.5 -80q0 -37 -24.5 -68.5t-68.5 -62.5l-95 -68h144l-17 -85h-293l11 59z" />
    <glyph glyph-name="three.subs" horiz-adv-x="430" 
d="M64.5 -67.5q-40.5 17.5 -64.5 46.5l58 55q40 -37 93 -37q36 0 55.5 13.5t19.5 36.5q0 19 -15 29.5t-41 10.5h-67l10 55l115 85h-163l16 82h278l-11 -59l-131 -100q46 -6 74.5 -34t28.5 -69q0 -63 -46.5 -97.5t-120.5 -34.5q-48 0 -88.5 17.5z" />
    <glyph glyph-name="four.subs" horiz-adv-x="447" 
d="M201 9h-202l11 63l254 238h85l-47 -223h54l-17 -78h-54l-18 -86h-85zM217 87l25 119l-128 -119h103z" />
    <glyph glyph-name="five.subs" horiz-adv-x="395" 
d="M49 -67.5q-40 17.5 -63 46.5l59 53q39 -34 87 -34q34 0 54 13.5t20 36.5q0 19 -16 29.5t-46 10.5h-109l10 57l58 164h225l-17 -83h-158l-21 -62h30q62 0 100.5 -29.5t38.5 -77.5q0 -67 -45.5 -104.5t-120.5 -37.5q-46 0 -86 17.5z" />
    <glyph glyph-name="six.subs" horiz-adv-x="434" 
d="M66.5 -48q-40.5 37 -40.5 102q0 35 6 63q19 91 76.5 145t132.5 54q38 0 71 -14.5t55 -42.5l-55 -53q-28 28 -68 28q-83 0 -116 -83q46 17 84 17q54 0 88 -31t34 -82q-1 -62 -47 -101t-116 -39q-64 0 -104.5 37zM230 11q20 15 20 40q0 43 -62 43q-43 0 -77 -14
q-1 -8 -1 -20q1 -31 19.5 -47.5t48.5 -16.5q32 0 52 15z" />
    <glyph glyph-name="seven.subs" horiz-adv-x="416" 
d="M241 224h-187l18 86h300l-9 -45l-221 -342h-104z" />
    <glyph glyph-name="eight.subs" horiz-adv-x="443" 
d="M51 -55.5q-42 29.5 -42 75.5q0 31 23 58.5t67 48.5q-37 29 -37 75q0 50 46 82t108 32q63 0 102.5 -26.5t39.5 -70.5q0 -58 -71 -98q47 -33 47 -83q0 -59 -50 -91t-123 -32q-68 0 -110 29.5zM262.5 171.5q14.5 13.5 14.5 30.5q0 18 -17.5 29t-46.5 11t-49 -11t-20 -28
t17 -28.5t56 -22.5l7 -2q24 8 38.5 21.5zM229 4q21 12 21 32t-19.5 32.5t-63.5 25.5l-5 2q-65 -26 -65 -62q0 -20 20.5 -31t54.5 -11q36 0 57 12z" />
    <glyph glyph-name="nine.subs" horiz-adv-x="431" 
d="M68.5 -70q-40.5 16 -62.5 44l54 53q16 -15 37 -22t39 -7q83 0 109 83q-46 -17 -84 -17q-56 0 -90 34.5t-34 82.5q0 60 44.5 97.5t113.5 37.5q64 0 105.5 -42.5t41.5 -110.5q0 -34 -3 -54q-15 -91 -67.5 -143t-124.5 -52q-38 0 -78.5 16zM258 153v14q-1 31 -20 49.5
t-48 18.5q-31 0 -50 -13.5t-19 -37.5q0 -22 16 -34t48 -12q40 0 73 15z" />
    <glyph glyph-name="zero.dnom" horiz-adv-x="449" 
d="M77.5 32.5q-38.5 40.5 -38.5 109.5q0 65 24.5 122.5t70 93t105.5 35.5q64 0 103 -41.5t39 -109.5q0 -65 -24 -122.5t-69.5 -92.5t-106.5 -35q-65 0 -103.5 40.5zM242 107.5q23 25.5 34.5 63t11.5 73.5q0 27 -14 43t-39 16q-32 0 -55.5 -25t-35.5 -62t-12 -73
q0 -28 15 -44.5t40 -16.5q32 0 55 25.5z" />
    <glyph glyph-name="one.dnom" horiz-adv-x="334" 
d="M161 295l-98 -23l15 79l123 36h72l-82 -387h-94z" />
    <glyph glyph-name="two.dnom" horiz-adv-x="426" 
d="M184 184l18 14q35 26 48.5 40t13.5 32q0 16 -11.5 25t-33.5 9q-50 0 -105 -45l-48 70q78 65 168 65q61 0 95.5 -30t34.5 -80q0 -37 -24.5 -68.5t-68.5 -62.5l-95 -68h144l-17 -85h-293l11 59z" />
    <glyph glyph-name="three.dnom" horiz-adv-x="430" 
d="M81.5 9.5q-40.5 17.5 -64.5 46.5l58 55q40 -37 93 -37q36 0 55.5 13.5t19.5 36.5q0 19 -15 29.5t-41 10.5h-67l10 55l115 85h-163l16 82h278l-11 -59l-131 -100q46 -6 74.5 -34t28.5 -69q0 -63 -46.5 -97.5t-120.5 -34.5q-48 0 -88.5 17.5z" />
    <glyph glyph-name="four.dnom" horiz-adv-x="447" 
d="M218 86h-202l11 63l254 238h85l-47 -223h54l-17 -78h-54l-18 -86h-85zM234 164l25 119l-128 -119h103z" />
    <glyph glyph-name="five.dnom" horiz-adv-x="395" 
d="M66 9.5q-40 17.5 -63 46.5l59 53q39 -34 87 -34q34 0 54 13.5t20 36.5q0 19 -16 29.5t-46 10.5h-109l10 57l58 164h225l-17 -83h-158l-21 -62h30q62 0 100.5 -29.5t38.5 -77.5q0 -67 -45.5 -104.5t-120.5 -37.5q-46 0 -86 17.5z" />
    <glyph glyph-name="six.dnom" horiz-adv-x="434" 
d="M83.5 29q-40.5 37 -40.5 102q0 35 6 63q19 91 76.5 145t132.5 54q38 0 71 -14.5t55 -42.5l-55 -53q-28 28 -68 28q-83 0 -116 -83q46 17 84 17q54 0 88 -31t34 -82q-1 -62 -47 -101t-116 -39q-64 0 -104.5 37zM247 88q20 15 20 40q0 43 -62 43q-43 0 -77 -14
q-1 -8 -1 -20q1 -31 19.5 -47.5t48.5 -16.5q32 0 52 15z" />
    <glyph glyph-name="seven.dnom" horiz-adv-x="416" 
d="M258 301h-187l18 86h300l-9 -45l-221 -342h-104z" />
    <glyph glyph-name="eight.dnom" horiz-adv-x="443" 
d="M68 21.5q-42 29.5 -42 75.5q0 31 23 58.5t67 48.5q-37 29 -37 75q0 50 46 82t108 32q63 0 102.5 -26.5t39.5 -70.5q0 -58 -71 -98q47 -33 47 -83q0 -59 -50 -91t-123 -32q-68 0 -110 29.5zM279.5 248.5q14.5 13.5 14.5 30.5q0 18 -17.5 29t-46.5 11t-49 -11t-20 -28
t17 -28.5t56 -22.5l7 -2q24 8 38.5 21.5zM246 81q21 12 21 32t-19.5 32.5t-63.5 25.5l-5 2q-65 -26 -65 -62q0 -20 20.5 -31t54.5 -11q36 0 57 12z" />
    <glyph glyph-name="nine.dnom" horiz-adv-x="431" 
d="M85.5 7q-40.5 16 -62.5 44l54 53q16 -15 37 -22t39 -7q83 0 109 83q-46 -17 -84 -17q-56 0 -90 34.5t-34 82.5q0 60 44.5 97.5t113.5 37.5q64 0 105.5 -42.5t41.5 -110.5q0 -34 -3 -54q-15 -91 -67.5 -143t-124.5 -52q-38 0 -78.5 16zM275 230v14q-1 31 -20 49.5
t-48 18.5q-31 0 -50 -13.5t-19 -37.5q0 -22 16 -34t48 -12q40 0 73 15z" />
    <glyph glyph-name="zero.numr" horiz-adv-x="449" 
d="M134.5 301.5q-38.5 40.5 -38.5 109.5q0 65 24.5 122.5t70 93t105.5 35.5q64 0 103 -41.5t39 -109.5q0 -65 -24 -122.5t-69.5 -92.5t-106.5 -35q-65 0 -103.5 40.5zM299 376.5q23 25.5 34.5 63t11.5 73.5q0 27 -14 43t-39 16q-32 0 -55.5 -25t-35.5 -62t-12 -73
q0 -28 15 -44.5t40 -16.5q32 0 55 25.5z" />
    <glyph glyph-name="one.numr" horiz-adv-x="334" 
d="M218 564l-98 -23l15 79l123 36h72l-82 -387h-94z" />
    <glyph glyph-name="two.numr" horiz-adv-x="426" 
d="M241 453l18 14q35 26 48.5 40t13.5 32q0 16 -11.5 25t-33.5 9q-50 0 -105 -45l-48 70q78 65 168 65q61 0 95.5 -30t34.5 -80q0 -37 -24.5 -68.5t-68.5 -62.5l-95 -68h144l-17 -85h-293l11 59z" />
    <glyph glyph-name="three.numr" horiz-adv-x="430" 
d="M138.5 278.5q-40.5 17.5 -64.5 46.5l58 55q40 -37 93 -37q36 0 55.5 13.5t19.5 36.5q0 19 -15 29.5t-41 10.5h-67l10 55l115 85h-163l16 82h278l-11 -59l-131 -100q46 -6 74.5 -34t28.5 -69q0 -63 -46.5 -97.5t-120.5 -34.5q-48 0 -88.5 17.5z" />
    <glyph glyph-name="four.numr" horiz-adv-x="447" 
d="M275 355h-202l11 63l254 238h85l-47 -223h54l-17 -78h-54l-18 -86h-85zM291 433l25 119l-128 -119h103z" />
    <glyph glyph-name="five.numr" horiz-adv-x="395" 
d="M123 278.5q-40 17.5 -63 46.5l59 53q39 -34 87 -34q34 0 54 13.5t20 36.5q0 19 -16 29.5t-46 10.5h-109l10 57l58 164h225l-17 -83h-158l-21 -62h30q62 0 100.5 -29.5t38.5 -77.5q0 -67 -45.5 -104.5t-120.5 -37.5q-46 0 -86 17.5z" />
    <glyph glyph-name="six.numr" horiz-adv-x="434" 
d="M140.5 298q-40.5 37 -40.5 102q0 35 6 63q19 91 76.5 145t132.5 54q38 0 71 -14.5t55 -42.5l-55 -53q-28 28 -68 28q-83 0 -116 -83q46 17 84 17q54 0 88 -31t34 -82q-1 -62 -47 -101t-116 -39q-64 0 -104.5 37zM304 357q20 15 20 40q0 43 -62 43q-43 0 -77 -14
q-1 -8 -1 -20q1 -31 19.5 -47.5t48.5 -16.5q32 0 52 15z" />
    <glyph glyph-name="seven.numr" horiz-adv-x="416" 
d="M315 570h-187l18 86h300l-9 -45l-221 -342h-104z" />
    <glyph glyph-name="eight.numr" horiz-adv-x="443" 
d="M125 290.5q-42 29.5 -42 75.5q0 31 23 58.5t67 48.5q-37 29 -37 75q0 50 46 82t108 32q63 0 102.5 -26.5t39.5 -70.5q0 -58 -71 -98q47 -33 47 -83q0 -59 -50 -91t-123 -32q-68 0 -110 29.5zM336.5 517.5q14.5 13.5 14.5 30.5q0 18 -17.5 29t-46.5 11t-49 -11t-20 -28
t17 -28.5t56 -22.5l7 -2q24 8 38.5 21.5zM303 350q21 12 21 32t-19.5 32.5t-63.5 25.5l-5 2q-65 -26 -65 -62q0 -20 20.5 -31t54.5 -11q36 0 57 12z" />
    <glyph glyph-name="nine.numr" horiz-adv-x="431" 
d="M142.5 276q-40.5 16 -62.5 44l54 53q16 -15 37 -22t39 -7q83 0 109 83q-46 -17 -84 -17q-56 0 -90 34.5t-34 82.5q0 60 44.5 97.5t113.5 37.5q64 0 105.5 -42.5t41.5 -110.5q0 -34 -3 -54q-15 -91 -67.5 -143t-124.5 -52q-38 0 -78.5 16zM332 499v14q-1 31 -20 49.5
t-48 18.5q-31 0 -50 -13.5t-19 -37.5q0 -22 16 -34t48 -12q40 0 73 15z" />
    <glyph glyph-name="uni2070" unicode="&#x2070;" horiz-adv-x="449" 
d="M148.5 368.5q-38.5 40.5 -38.5 109.5q0 65 24.5 122.5t70 93t105.5 35.5q64 0 103 -41.5t39 -109.5q0 -65 -24 -122.5t-69.5 -92.5t-106.5 -35q-65 0 -103.5 40.5zM313 443.5q23 25.5 34.5 63t11.5 73.5q0 27 -14 43t-39 16q-32 0 -55.5 -25t-35.5 -62t-12 -73
q0 -28 15 -44.5t40 -16.5q32 0 55 25.5z" />
    <glyph glyph-name="uni00B9" unicode="&#xb9;" horiz-adv-x="334" 
d="M232 631l-98 -23l15 79l123 36h72l-82 -387h-94z" />
    <glyph glyph-name="uni00B2" unicode="&#xb2;" horiz-adv-x="426" 
d="M255 520l18 14q35 26 48.5 40t13.5 32q0 16 -11.5 25t-33.5 9q-50 0 -105 -45l-48 70q78 65 168 65q61 0 95.5 -30t34.5 -80q0 -37 -24.5 -68.5t-68.5 -62.5l-95 -68h144l-17 -85h-293l11 59z" />
    <glyph glyph-name="uni00B3" unicode="&#xb3;" horiz-adv-x="430" 
d="M152.5 345.5q-40.5 17.5 -64.5 46.5l58 55q40 -37 93 -37q36 0 55.5 13.5t19.5 36.5q0 19 -15 29.5t-41 10.5h-67l10 55l115 85h-163l16 82h278l-11 -59l-131 -100q46 -6 74.5 -34t28.5 -69q0 -63 -46.5 -97.5t-120.5 -34.5q-48 0 -88.5 17.5z" />
    <glyph glyph-name="uni2074" unicode="&#x2074;" horiz-adv-x="447" 
d="M289 422h-202l11 63l254 238h85l-47 -223h54l-17 -78h-54l-18 -86h-85zM305 500l25 119l-128 -119h103z" />
    <glyph glyph-name="uni2075" unicode="&#x2075;" horiz-adv-x="395" 
d="M137 345.5q-40 17.5 -63 46.5l59 53q39 -34 87 -34q34 0 54 13.5t20 36.5q0 19 -16 29.5t-46 10.5h-109l10 57l58 164h225l-17 -83h-158l-21 -62h30q62 0 100.5 -29.5t38.5 -77.5q0 -67 -45.5 -104.5t-120.5 -37.5q-46 0 -86 17.5z" />
    <glyph glyph-name="uni2076" unicode="&#x2076;" horiz-adv-x="434" 
d="M154.5 365q-40.5 37 -40.5 102q0 35 6 63q19 91 76.5 145t132.5 54q38 0 71 -14.5t55 -42.5l-55 -53q-28 28 -68 28q-83 0 -116 -83q46 17 84 17q54 0 88 -31t34 -82q-1 -62 -47 -101t-116 -39q-64 0 -104.5 37zM318 424q20 15 20 40q0 43 -62 43q-43 0 -77 -14
q-1 -8 -1 -20q1 -31 19.5 -47.5t48.5 -16.5q32 0 52 15z" />
    <glyph glyph-name="uni2077" unicode="&#x2077;" horiz-adv-x="416" 
d="M329 637h-187l18 86h300l-9 -45l-221 -342h-104z" />
    <glyph glyph-name="uni2078" unicode="&#x2078;" horiz-adv-x="443" 
d="M139 357.5q-42 29.5 -42 75.5q0 31 23 58.5t67 48.5q-37 29 -37 75q0 50 46 82t108 32q63 0 102.5 -26.5t39.5 -70.5q0 -58 -71 -98q47 -33 47 -83q0 -59 -50 -91t-123 -32q-68 0 -110 29.5zM350.5 584.5q14.5 13.5 14.5 30.5q0 18 -17.5 29t-46.5 11t-49 -11t-20 -28
t17 -28.5t56 -22.5l7 -2q24 8 38.5 21.5zM317 417q21 12 21 32t-19.5 32.5t-63.5 25.5l-5 2q-65 -26 -65 -62q0 -20 20.5 -31t54.5 -11q36 0 57 12z" />
    <glyph glyph-name="uni2079" unicode="&#x2079;" horiz-adv-x="431" 
d="M156.5 343q-40.5 16 -62.5 44l54 53q16 -15 37 -22t39 -7q83 0 109 83q-46 -17 -84 -17q-56 0 -90 34.5t-34 82.5q0 60 44.5 97.5t113.5 37.5q64 0 105.5 -42.5t41.5 -110.5q0 -34 -3 -54q-15 -91 -67.5 -143t-124.5 -52q-38 0 -78.5 16zM346 566v14q-1 31 -20 49.5
t-48 18.5q-31 0 -50 -13.5t-19 -37.5q0 -22 16 -34t48 -12q40 0 73 15z" />
    <glyph glyph-name="fraction" unicode="&#x2044;" horiz-adv-x="170" 
d="M321 657h131l-575 -657h-132z" />
    <glyph glyph-name="onehalf" unicode="&#xbd;" horiz-adv-x="975" 
d="M666 657h131l-575 -657h-131zM218 564l-98 -23l15 79l123 36h72l-82 -387h-94zM732 184l17 13q35 25 49.5 40.5t14.5 33.5q0 15 -12 24t-34 9q-51 0 -104 -44l-49 69q81 66 168 66q61 0 95.5 -30.5t34.5 -79.5q0 -37 -24 -68.5t-68 -63.5l-95 -68h144l-18 -85h-293l11 60
z" />
    <glyph glyph-name="onequarter" unicode="&#xbc;" horiz-adv-x="905" 
d="M681 657h131l-575 -657h-131zM218 564l-98 -23l15 79l123 36h72l-82 -387h-94zM675 87h-202l11 63l255 238h85l-48 -223h54l-17 -78h-53l-19 -87h-84zM692 165l25 119l-129 -119h104z" />
    <glyph glyph-name="threequarters" unicode="&#xbe;" horiz-adv-x="962" 
d="M738 657h131l-575 -657h-131zM138.5 278.5q-40.5 17.5 -64.5 46.5l58 55q40 -37 93 -37q36 0 55.5 13.5t19.5 36.5q0 19 -15 29.5t-41 10.5h-67l10 55l115 85h-163l16 82h278l-11 -59l-131 -100q46 -6 74.5 -34t28.5 -69q0 -63 -46.5 -97.5t-120.5 -34.5
q-48 0 -88.5 17.5zM733 87h-202l11 63l254 238h85l-47 -223h54l-17 -78h-54l-18 -87h-85zM749 165l25 119l-128 -119h103z" />
    <glyph glyph-name="period" unicode="." horiz-adv-x="253" 
d="M29.5 9q-18.5 19 -18.5 48q0 37 24.5 61.5t57.5 24.5q31 0 50 -18.5t19 -48.5q0 -37 -24.5 -61.5t-59.5 -24.5q-30 0 -48.5 19z" />
    <glyph glyph-name="comma" unicode="," horiz-adv-x="253" 
d="M6 5q33 67 51 123h116q-19 -63 -54 -129t-77 -119h-107q38 58 71 125z" />
    <glyph glyph-name="colon" unicode=":" horiz-adv-x="253" 
d="M112.5 396.5q-18.5 18.5 -18.5 47.5q0 37 24.5 61.5t57.5 24.5q31 0 50 -18.5t19 -47.5q0 -37 -24 -61.5t-60 -24.5q-30 0 -48.5 18.5zM30.5 9q-18.5 19 -18.5 48q0 37 24.5 61.5t57.5 24.5q31 0 50 -18.5t19 -48.5q0 -37 -24.5 -61.5t-59.5 -24.5q-30 0 -48.5 19z" />
    <glyph glyph-name="semicolon" unicode=";" horiz-adv-x="253" 
d="M111.5 396.5q-18.5 18.5 -18.5 47.5q0 37 24 61.5t58 24.5q31 0 49.5 -18.5t18.5 -47.5q0 -37 -24 -61.5t-59 -24.5q-30 0 -48.5 18.5zM4 4.5q33 66.5 51 123.5h115q-19 -63 -54 -129t-77 -119h-107q39 58 72 124.5z" />
    <glyph glyph-name="ellipsis" unicode="&#x2026;" horiz-adv-x="737" 
d="M29.5 9q-18.5 19 -18.5 48q0 37 24.5 61.5t57.5 24.5q31 0 50 -18.5t19 -48.5q0 -37 -24.5 -61.5t-59.5 -24.5q-30 0 -48.5 19zM271.5 9q-18.5 19 -18.5 48q0 37 24.5 61.5t57.5 24.5q31 0 50 -18.5t19 -48.5q0 -37 -24.5 -61.5t-59.5 -24.5q-30 0 -48.5 19zM513.5 9
q-18.5 19 -18.5 48q0 37 24.5 61.5t57.5 24.5q31 0 50 -18.5t19 -48.5q0 -37 -24.5 -61.5t-59.5 -24.5q-30 0 -48.5 19z" />
    <glyph glyph-name="exclam" unicode="!" horiz-adv-x="283" 
d="M162 676h131l-109 -458h-108zM48.5 9q-18.5 19 -18.5 48q0 37 24.5 61.5t57.5 24.5q31 0 50 -18.5t19 -48.5q0 -37 -24.5 -61.5t-59.5 -24.5q-30 0 -48.5 19z" />
    <glyph glyph-name="exclamdown" unicode="&#xa1;" horiz-adv-x="285" 
d="M129 400.5q-19 18.5 -19 47.5q0 37 24 61.5t60 24.5q30 0 48.5 -18.5t18.5 -47.5q0 -37 -24.5 -61.5t-57.5 -24.5q-31 0 -50 18.5zM108 306h106l-87 -458h-128z" />
    <glyph glyph-name="question" unicode="?" horiz-adv-x="532" 
d="M225 331q32 36 86 72q52 34 75.5 56.5t23.5 54.5q0 28 -20 43t-58 15q-89 0 -182 -73l-59 90q57 48 124 73t136 25q87 0 138.5 -43t51.5 -110q0 -55 -29.5 -93.5t-90.5 -81.5l-20 -14q-46 -32 -69.5 -55.5t-30.5 -55.5l-3 -16h-120l5 25q10 52 42 88zM161.5 9
q-18.5 19 -18.5 48q0 37 24 61.5t58 24.5q31 0 49.5 -18.5t18.5 -48.5q0 -37 -24 -61.5t-59 -24.5q-30 0 -48.5 19z" />
    <glyph glyph-name="questiondown" unicode="&#xbf;" horiz-adv-x="531" 
d="M278 400.5q-19 18.5 -19 47.5q0 37 24 61.5t60 24.5q30 0 48.5 -18.5t18.5 -47.5q0 -37 -24.5 -61.5t-57.5 -24.5q-31 0 -50 18.5zM63 -120q-51 43 -51 110q0 55 29.5 94t89.5 81q2 2 19 13q48 34 71.5 57t30.5 56l3 15h119l-4 -25q-10 -53 -42.5 -89t-86.5 -70
q-52 -34 -75.5 -56.5t-23.5 -54.5q0 -28 20 -43.5t58 -15.5q90 0 182 74l60 -91q-57 -48 -124.5 -73t-135.5 -25q-88 0 -139 43z" />
    <glyph glyph-name="periodcentered" unicode="&#xb7;" horiz-adv-x="248" 
d="M93.5 308q-18.5 19 -18.5 48q0 37 24 61.5t58 24.5q31 0 49.5 -18.5t18.5 -48.5q0 -37 -24 -61.5t-59 -24.5q-30 0 -48.5 19z" />
    <glyph glyph-name="bullet" unicode="&#x2022;" horiz-adv-x="410" 
d="M133.5 259q-36.5 36 -36.5 88q0 54 36.5 90t87.5 36q52 0 89 -36.5t37 -89.5q0 -52 -37 -88t-89 -36q-51 0 -87.5 36z" />
    <glyph glyph-name="asterisk" unicode="*" horiz-adv-x="455" 
d="M229 451l-96 -66l-42 77l114 57l-89 59l66 74l72 -65l17 107h96l-32 -106l96 65l41 -77l-115 -58l90 -58l-65 -74l-72 65l-18 -107h-95z" />
    <glyph glyph-name="numbersign" unicode="#" horiz-adv-x="618" 
d="M105 156h-89l30 94h89l51 162h-89l30 95h89l38 122h106l-38 -122h119l38 122h106l-39 -121h86l-29 -95h-86l-52 -162h87l-31 -94h-86l-40 -129h-106l40 128h-118l-40 -128h-106zM359 251l52 162h-119l-51 -162h118z" />
    <glyph glyph-name="slash" unicode="/" horiz-adv-x="479" 
d="M429 735h135l-499 -880h-135z" />
    <glyph glyph-name="backslash" unicode="\" horiz-adv-x="473" 
d="M118 735h127l126 -880h-129z" />
    <glyph glyph-name="exclamdown.case" horiz-adv-x="283" 
d="M149.5 552.5q-18.5 18.5 -18.5 47.5q0 37 24 61.5t59 24.5q30 0 48.5 -18.5t18.5 -47.5q0 -37 -24 -61.5t-58 -24.5q-31 0 -49.5 18.5zM129 458h106l-87 -458h-128z" />
    <glyph glyph-name="questiondown.case" horiz-adv-x="532" 
d="M292 552.5q-19 18.5 -19 47.5q0 37 24 61.5t60 24.5q30 0 48.5 -18.5t18.5 -47.5q0 -37 -24.5 -61.5t-57.5 -24.5q-31 0 -50 18.5zM77.5 32q-51.5 43 -51.5 111q0 55 29.5 93.5t89.5 80.5q2 2 19 13q48 34 71.5 57t30.5 56l3 15h119l-4 -25q-10 -53 -42.5 -89t-86.5 -70
q-52 -34 -75.5 -56.5t-23.5 -54.5q0 -27 20 -42.5t58 -15.5q91 0 182 73l60 -91q-57 -48 -125 -73t-135 -25q-87 0 -138.5 43z" />
    <glyph glyph-name="slash.case" horiz-adv-x="478" 
d="M437 775h135l-499 -880h-135z" />
    <glyph glyph-name="backslash.case" horiz-adv-x="479" 
d="M123 775h128l125 -880h-128z" />
    <glyph glyph-name="parenleft" unicode="(" horiz-adv-x="369" 
d="M78.5 -11q-20.5 77 -20.5 161q0 161 71 318t191 267h131q-122 -120 -197 -273t-75 -306q0 -83 20 -160t59 -142h-119q-40 58 -60.5 135z" />
    <glyph glyph-name="parenright" unicode=")" horiz-adv-x="369" 
d="M122.5 127.5q75.5 153.5 75.5 305.5q0 82 -20.5 159t-58.5 143h118q41 -58 61.5 -134.5t20.5 -161.5q0 -161 -71.5 -318t-191.5 -267h-131q122 120 197.5 273.5z" />
    <glyph glyph-name="braceleft" unicode="{" horiz-adv-x="456" 
d="M106.5 -106q-45.5 40 -45.5 115q0 28 8 66l11 51q6 24 6 44q0 29 -13 49.5t-41 35.5l17 84q46 16 70 48.5t35 86.5l11 51q21 105 84.5 157.5t166.5 52.5h108l-43 -120h-59q-54 0 -91 -31.5t-49 -86.5l-13 -60q-12 -52 -34.5 -85.5t-69.5 -62.5q47 -41 47 -100
q0 -25 -5 -46l-13 -60q-5 -23 -5 -37q0 -72 88 -72h62l6 -120h-107q-86 0 -131.5 40z" />
    <glyph glyph-name="braceright" unicode="}" horiz-adv-x="456" 
d="M48 -26q54 0 91 31.5t49 87.5l13 60q11 52 34 85t70 63q-23 20 -35 44t-12 56q0 25 5 45l13 61q5 22 5 36q0 72 -88 72h-62l-6 120h107q86 0 131.5 -40t45.5 -114q0 -29 -8 -66l-11 -51q-6 -25 -6 -45q0 -29 13.5 -49.5t40.5 -35.5l-17 -83q-46 -17 -70 -49.5t-35 -86.5
l-11 -50q-21 -105 -84.5 -158t-166.5 -53h-109l44 120h59z" />
    <glyph glyph-name="bracketleft" unicode="[" horiz-adv-x="447" 
d="M197 735h322l-43 -121h-179l-136 -639h174l6 -121h-331z" />
    <glyph glyph-name="bracketright" unicode="]" horiz-adv-x="447" 
d="M-20 -25h180l136 639h-175l-6 121h331l-187 -881h-322z" />
    <glyph glyph-name="parenleft.case" horiz-adv-x="368" 
d="M86.5 28.5q-20.5 76.5 -20.5 161.5q0 161 71 318t191 267h131q-122 -120 -197 -273.5t-75 -305.5q0 -83 20 -160.5t59 -142.5h-119q-40 59 -60.5 135.5z" />
    <glyph glyph-name="parenright.case" horiz-adv-x="369" 
d="M131 167.5q75 153.5 75 305.5q0 82 -20.5 159t-58.5 143h118q41 -58 61.5 -135t20.5 -161q0 -161 -71.5 -318t-191.5 -268h-131q123 121 198 274.5z" />
    <glyph glyph-name="braceleft.case" horiz-adv-x="456" 
d="M115.5 -66.5q-45.5 40.5 -45.5 114.5q0 35 8 66l11 51q5 21 5 45q0 29 -13 49.5t-41 35.5l18 83q46 17 69.5 49t35.5 87l10 50q22 105 85.5 158t166.5 53h108l-44 -121h-59q-54 0 -90.5 -31t-48.5 -87l-13 -60q-11 -52 -34 -85t-70 -63q23 -20 34.5 -44t11.5 -56
q0 -25 -5 -45l-13 -61q-4 -26 -4 -36q0 -72 87 -72h63l6 -121h-108q-85 0 -130.5 40.5z" />
    <glyph glyph-name="braceright.case" horiz-adv-x="456" 
d="M57 14q54 0 91 31.5t49 86.5l13 60q12 52 34.5 85.5t69.5 62.5q-47 41 -47 100q0 25 5 46l13 60q5 23 5 37q0 71 -88 71h-62l-6 121h107q86 0 131.5 -40.5t45.5 -114.5q0 -28 -8 -66l-11 -51q-6 -24 -6 -44q0 -29 13 -49.5t41 -35.5l-17 -84q-46 -16 -70 -48.5t-35 -86.5
l-11 -51q-21 -105 -84.5 -158t-166.5 -53h-109l44 121h59z" />
    <glyph glyph-name="bracketleft.case" horiz-adv-x="447" 
d="M205 775h322l-43 -122h-179l-136 -638h174l6 -122h-331z" />
    <glyph glyph-name="bracketright.case" horiz-adv-x="447" 
d="M-12 15h180l136 638h-175l-6 122h331l-187 -882h-322z" />
    <glyph glyph-name="hyphen" unicode="-" horiz-adv-x="447" 
d="M79 359h331l-25 -113h-330z" />
    <glyph glyph-name="uni00AD" unicode="&#xad;" horiz-adv-x="447" 
d="M79 359h331l-25 -113h-330z" />
    <glyph glyph-name="endash" unicode="&#x2013;" horiz-adv-x="480" 
d="M21 358h480l-24 -110h-480z" />
    <glyph glyph-name="emdash" unicode="&#x2014;" horiz-adv-x="960" 
d="M21 358h960l-24 -110h-960z" />
    <glyph glyph-name="underscore" unicode="_" horiz-adv-x="481" 
d="M-71 -74h481l-23 -104h-481z" />
    <glyph glyph-name="hyphen.case" horiz-adv-x="447" 
d="M88 400h330l-24 -113h-330z" />
    <glyph glyph-name="endash.case" horiz-adv-x="480" 
d="M29 398h480l-23 -110h-480z" />
    <glyph glyph-name="emdash.case" horiz-adv-x="960" 
d="M29 398h960l-23 -110h-960z" />
    <glyph glyph-name="quotesinglbase" unicode="&#x201a;" horiz-adv-x="265" 
d="M21 4.5q32 66.5 51 123.5h116q-19 -63 -54 -129t-77 -119h-107q39 58 71 124.5z" />
    <glyph glyph-name="quotedblbase" unicode="&#x201e;" horiz-adv-x="454" 
d="M21 4.5q32 66.5 51 123.5h116q-19 -63 -54 -129t-77 -119h-107q39 58 71 124.5zM210 4.5q32 66.5 51 123.5h116q-19 -63 -54 -129t-77 -119h-107q39 58 71 124.5z" />
    <glyph glyph-name="quotedblleft" unicode="&#x201c;" horiz-adv-x="447" 
d="M139 561.5q34 63.5 74 115.5h102q-37 -58 -67.5 -121.5t-48.5 -119.5h-114q20 62 54 125.5zM328 561.5q34 63.5 74 115.5h102q-37 -58 -67.5 -121.5t-48.5 -119.5h-114q20 62 54 125.5z" />
    <glyph glyph-name="quotedblright" unicode="&#x201d;" horiz-adv-x="447" 
d="M134.5 557.5q30.5 63.5 48.5 118.5h114q-20 -62 -54 -125.5t-74 -114.5h-102q37 58 67.5 121.5zM323.5 557.5q30.5 63.5 48.5 118.5h114q-20 -62 -54 -125.5t-74 -114.5h-102q37 58 67.5 121.5z" />
    <glyph glyph-name="quoteleft" unicode="&#x2018;" horiz-adv-x="258" 
d="M139 561.5q34 63.5 74 115.5h102q-37 -58 -67.5 -121.5t-48.5 -119.5h-114q20 62 54 125.5z" />
    <glyph glyph-name="quoteright" unicode="&#x2019;" horiz-adv-x="258" 
d="M134.5 557.5q30.5 63.5 48.5 118.5h114q-20 -62 -54 -125.5t-74 -114.5h-102q37 58 67.5 121.5z" />
    <glyph glyph-name="guillemotleft" unicode="&#xab;" horiz-adv-x="550" 
d="M51 281l170 197h128l-171 -202l83 -197h-117zM267 281l170 197h128l-171 -202l83 -197h-117z" />
    <glyph glyph-name="guillemotright" unicode="&#xbb;" horiz-adv-x="543" 
d="M168 281l-83 197h117l93 -202l-170 -197h-129zM377 281l-83 197h117l93 -202l-170 -197h-128z" />
    <glyph glyph-name="guilsinglleft" unicode="&#x2039;" horiz-adv-x="334" 
d="M51 281l170 197h128l-171 -202l83 -197h-117z" />
    <glyph glyph-name="guilsinglright" unicode="&#x203a;" horiz-adv-x="334" 
d="M168 281l-83 197h117l93 -202l-170 -197h-129z" />
    <glyph glyph-name="quotedbl" unicode="&#x22;" horiz-adv-x="457" 
d="M157 676h122l-70 -274h-105zM358 676h122l-70 -274h-105z" />
    <glyph glyph-name="quotesingle" unicode="'" horiz-adv-x="256" 
d="M157 676h122l-70 -274h-105z" />
    <glyph glyph-name="guillemotleft.case" horiz-adv-x="550" 
d="M64 345l171 197h128l-172 -202l83 -197h-117zM280 345l171 197h128l-172 -202l83 -197h-117z" />
    <glyph glyph-name="guillemotright.case" horiz-adv-x="543" 
d="M182 345l-83 197h117l93 -202l-170 -197h-128zM391 345l-83 197h117l93 -202l-170 -197h-128z" />
    <glyph glyph-name="guilsinglleft.case" horiz-adv-x="334" 
d="M59 345l171 197h128l-172 -202l83 -197h-117z" />
    <glyph glyph-name="guilsinglright.case" horiz-adv-x="334" 
d="M182 345l-83 197h117l93 -202l-170 -197h-128z" />
    <glyph glyph-name="period.dnom" horiz-adv-x="193" 
d="M4 8q-16 16 -16 41q0 31 19.5 50.5t47.5 19.5q26 0 42 -15.5t16 -41.5q0 -30 -19.5 -50t-47.5 -20q-26 0 -42 16z" />
    <glyph glyph-name="comma.dnom" horiz-adv-x="193" 
d="M20 111h102q-14 -43 -38.5 -89.5t-54.5 -85.5h-94q62 101 85 175z" />
    <glyph glyph-name="period.numr" horiz-adv-x="193" 
d="M63 276.5q-16 15.5 -16 41.5q0 30 19.5 50t47.5 20q26 0 42 -15.5t16 -41.5q0 -31 -19.5 -50.5t-47.5 -19.5q-26 0 -42 15.5z" />
    <glyph glyph-name="comma.numr" horiz-adv-x="193" 
d="M83 380h102q-14 -43 -39 -89.5t-55 -85.5h-94q59 94 86 175z" />
    <glyph glyph-name="period.subs" horiz-adv-x="193" 
d="M-11 -69.5q-16 15.5 -16 41.5q0 31 19.5 50.5t47.5 19.5q26 0 42 -15.5t16 -41.5q0 -31 -19.5 -50.5t-47.5 -19.5q-26 0 -42 15.5z" />
    <glyph glyph-name="comma.subs" horiz-adv-x="194" 
d="M8 29h102q-14 -43 -38.5 -89.5t-54.5 -85.5h-94q58 95 85 175z" />
    <glyph glyph-name="uni00A0" unicode="&#xa0;" horiz-adv-x="250" 
 />
    <glyph glyph-name="cent" unicode="&#xa2;" 
d="M125.5 149.5q-37.5 51.5 -37.5 127.5q0 77 32.5 145t89.5 113.5t128 59.5l25 118l121 20l-30 -141q73 -19 112 -79l-76 -64q-38 47 -96 47q-53 0 -95.5 -30t-66.5 -78t-24 -100q0 -50 28 -80.5t76 -30.5q38 0 68.5 13t60.5 39l60 -77q-68 -62 -157 -77l-26 -124l-120 -20
l32 150q-67 17 -104.5 68.5z" />
    <glyph glyph-name="currency" unicode="&#xa4;" 
d="M95 229q-8 29 -8 57q0 84 51 156l-58 73l92 80l58 -73q54 31 117 31q67 0 113 -35l91 77l64 -80l-94 -81q8 -27 8 -55q0 -84 -50 -155l58 -75l-92 -79l-59 73q-57 -31 -118 -31q-64 0 -111 34l-90 -76l-65 79zM354.5 231q33.5 23 52 60t18.5 78q0 39 -23.5 63.5
t-63.5 24.5q-42 0 -76 -23t-52.5 -60.5t-18.5 -78.5q0 -40 23.5 -63.5t63.5 -23.5q43 0 76.5 23z" />
    <glyph glyph-name="dollar" unicode="$" 
d="M82.5 39.5q-48.5 27.5 -83.5 66.5l74 80q38 -39 91 -60t111 -21q55 0 88.5 21.5t33.5 60.5q0 36 -28 56.5t-95 43.5q-93 32 -135 74t-42 112q1 79 61 131.5t155 63.5l24 113l122 21l-30 -140q48 -12 89.5 -39t70.5 -65l-84 -68q-29 35 -72 53.5t-89 18.5q-56 0 -90 -22.5
t-34 -61.5q0 -30 25.5 -48.5t87.5 -40.5q99 -33 145 -76.5t46 -113.5q0 -89 -60.5 -141.5t-161.5 -62.5l-26 -123l-120 -20l32 149q-57 11 -105.5 38.5z" />
    <glyph glyph-name="Euro" unicode="&#x20ac;" 
d="M159.5 50q-60.5 61 -70.5 163h-88l40 83h49q2 26 12 69h-68l39 84h59q46 98 127.5 159t178.5 61q66 0 115 -26t79 -68l-84 -70q-22 27 -48.5 39t-64.5 12q-53 0 -98 -28.5t-77 -78.5h195l-39 -84h-195q-10 -32 -15 -69h180l-40 -83h-137q10 -51 42 -80.5t80 -29.5
q40 0 74.5 14.5t70.5 44.5l64 -85q-52 -44 -106 -66t-117 -22q-97 0 -157.5 61z" />
    <glyph glyph-name="florin" unicode="&#x192;" 
d="M43 108q60 0 100 31t68 98l20 48h-125l23 106h143l22 53q45 112 113.5 162.5t174.5 50.5h66l-23 -107h-49q-60 0 -100 -30.5t-66 -96.5l-14 -32h133l-23 -106h-150l-29 -72q-44 -112 -112 -162.5t-175 -50.5h-73l22 108h54z" />
    <glyph glyph-name="sterling" unicode="&#xa3;" 
d="M116 268h-77l22 106h98l27 64q46 113 114 166t175 53h144l-24 -111h-131q-62 0 -102 -30t-68 -99l-18 -43h214l-23 -106h-233l-62 -157h341l-23 -111h-467l17 83z" />
    <glyph glyph-name="yen" unicode="&#xa5;" 
d="M201 107h-160l17 86h161l14 66h-160l19 86h116l-101 312h136l75 -283l189 283h142l-229 -312h111l-18 -86h-161l-14 -66h160l-18 -86h-160l-23 -107h-119z" />
    <glyph glyph-name="plus" unicode="+" 
d="M242 276h-164l24 110h163l36 168h108l-36 -168h165l-24 -110h-164l-36 -169h-108z" />
    <glyph glyph-name="minus" unicode="&#x2212;" 
d="M118 388h405l-25 -114h-404z" />
    <glyph glyph-name="multiply" unicode="&#xd7;" 
d="M83 207l151 128l-96 124l86 73l96 -124l149 125l64 -79l-151 -127l96 -124l-86 -73l-96 124l-149 -126z" />
    <glyph glyph-name="divide" unicode="&#xf7;" 
d="M302 458q-17 17 -17 44q0 34 22 56t53 22q28 0 45 -17t17 -44q0 -33 -22 -55.5t-54 -22.5q-27 0 -44 17zM124 388h405l-25 -114h-404zM226 95.5q-17 17.5 -17 44.5q0 34 22 56.5t53 22.5q28 0 45.5 -17t17.5 -44q0 -34 -22 -57t-55 -23q-27 0 -44 17.5z" />
    <glyph glyph-name="equal" unicode="=" 
d="M140 499h405l-24 -114h-405zM93 274h405l-25 -114h-404z" />
    <glyph glyph-name="notequal" unicode="&#x2260;" 
d="M77 84l53 76h-61l24 114h113l78 111h-168l24 114h220l83 121l90 -46l-52 -75h64l-24 -114h-116l-78 -111h171l-25 -114h-223l-84 -122z" />
    <glyph glyph-name="greater" unicode="&#x3e;" 
d="M86 193l283 147l-220 139l72 93l286 -190l-20 -101l-363 -190z" />
    <glyph glyph-name="less" unicode="&#x3c;" 
d="M109 280l20 101l363 190l38 -102l-283 -146l220 -139l-72 -94z" />
    <glyph glyph-name="greaterequal" unicode="&#x2265;" 
d="M109 277l284 125l-226 112l51 93l304 -164l-20 -100l-367 -164zM65 111h387l-23 -111h-388z" />
    <glyph glyph-name="lessequal" unicode="&#x2264;" 
d="M120 343l20 100l367 164l27 -98l-284 -125l226 -112l-52 -93zM71 112h387l-23 -112h-388z" />
    <glyph glyph-name="plusminus" unicode="&#xb1;" 
d="M254 301h-164l23 110h164l36 168h108l-36 -168h164l-23 -110h-164l-36 -168h-108zM65 113h405l-24 -115h-405z" />
    <glyph glyph-name="approxequal" unicode="&#x2248;" 
d="M383.5 363.5q-21.5 9.5 -53.5 29.5q-29 17 -47 25.5t-37 8.5q-52 0 -67 -69h-99q13 88 54.5 132t105.5 44q25 0 46.5 -9.5t53.5 -29.5q29 -17 47 -25.5t37 -8.5q52 0 67 69h99q-13 -88 -54.5 -132t-105.5 -44q-25 0 -46.5 9.5zM335 135.5q-22 9.5 -54 29.5
q-29 17 -47 25.5t-37 8.5q-53 0 -66 -69h-99q13 88 54 132t105 44q25 0 47 -9.5t54 -29.5q29 -17 47 -25.5t37 -8.5q53 0 66 69h99q-13 -88 -54 -132t-105 -44q-25 0 -47 9.5z" />
    <glyph glyph-name="asciitilde" unicode="~" 
d="M355 245.5q-22 9.5 -54 29.5q-29 17 -47 25.5t-37 8.5q-53 0 -66 -70h-99q13 89 54 132.5t105 43.5q25 0 47 -9.5t54 -29.5q29 -17 47 -25.5t37 -8.5q53 0 66 70h99q-13 -89 -54 -132.5t-105 -43.5q-25 0 -47 9.5z" />
    <glyph glyph-name="logicalnot" unicode="&#xac;" 
d="M398 326h-305l24 109h415l-60 -279h-110z" />
    <glyph glyph-name="asciicircum" unicode="^" 
d="M323 676h116l101 -337h-122l-58 219l-153 -219h-130z" />
    <glyph glyph-name="uni00B5" unicode="&#xb5;" horiz-adv-x="606" 
d="M245 523l-61 -287q-7 -34 -7 -61q0 -39 18 -57.5t57 -18.5q37 0 75.5 22.5t71.5 59.5l72 342h122l-111 -523h-84l-7 68q-85 -79 -181 -79q-24 0 -42.5 7.5t-30.5 20.5l-45 -219l-126 -19l157 744h122z" />
    <glyph glyph-name="percent" unicode="%" horiz-adv-x="1000" 
d="M134.5 301.5q-38.5 40.5 -38.5 109.5q0 65 24.5 122.5t70 93t105.5 35.5q64 0 103 -41.5t39 -109.5q0 -65 -24 -122.5t-69.5 -92.5t-106.5 -35q-65 0 -103.5 40.5zM737 657h131l-575 -657h-131zM299 376.5q23 25.5 34.5 63t11.5 73.5q0 27 -14 43t-39 16q-32 0 -55.5 -25
t-35.5 -62t-12 -73q0 -28 15 -44.5t40 -16.5q32 0 55 25.5zM628.5 32.5q-38.5 40.5 -38.5 109.5q0 65 24.5 122.5t70 93t105.5 35.5q65 0 103.5 -41t38.5 -110q0 -65 -24 -122.5t-69.5 -92.5t-106.5 -35q-65 0 -103.5 40.5zM793 108q23 25 34.5 62.5t11.5 73.5q0 28 -14 44
t-39 16q-32 0 -55.5 -25t-35.5 -62.5t-12 -72.5q0 -28 14.5 -44.5t40.5 -16.5q32 0 55 25z" />
    <glyph glyph-name="perthousand" unicode="&#x2030;" horiz-adv-x="1390" 
d="M134.5 301.5q-38.5 40.5 -38.5 109.5q0 65 24.5 122.5t70 93t105.5 35.5q64 0 103 -41.5t39 -109.5q0 -65 -24 -122.5t-69.5 -92.5t-106.5 -35q-65 0 -103.5 40.5zM737 657h131l-575 -657h-131zM299 376.5q23 25.5 34.5 63t11.5 73.5q0 27 -14 43t-39 16q-32 0 -55.5 -25
t-35.5 -62t-12 -73q0 -28 15 -44.5t40 -16.5q32 0 55 25.5zM628.5 32.5q-38.5 40.5 -38.5 109.5q0 65 24.5 122.5t70 93t105.5 35.5q65 0 103.5 -41t38.5 -110q0 -65 -24 -122.5t-69.5 -92.5t-106.5 -35q-65 0 -103.5 40.5zM1017.5 32.5q-38.5 40.5 -38.5 109.5
q0 65 24.5 122.5t70.5 93t106 35.5q64 0 103 -41t39 -110q0 -65 -24.5 -122.5t-70 -92.5t-106.5 -35q-65 0 -103.5 40.5zM793 108q23 25 34.5 62.5t11.5 73.5q0 28 -14 44t-39 16q-32 0 -55.5 -25t-35.5 -62.5t-12 -72.5q0 -28 14.5 -44.5t40.5 -16.5q32 0 55 25zM1182 108
q23 25 35 62.5t12 73.5q0 28 -14 44t-39 16q-32 0 -55.5 -25t-35.5 -62.5t-12 -72.5q0 -29 14.5 -45t39.5 -16q32 0 55 25z" />
    <glyph glyph-name="at" unicode="@" horiz-adv-x="956" 
d="M210 -120q-79 49 -121 132.5t-42 184.5q0 147 71.5 260.5t191 176t259.5 62.5q105 0 188 -40.5t129.5 -111t46.5 -154.5q0 -93 -45.5 -169t-123.5 -119.5t-171 -43.5h-48l-9 47q-62 -50 -126 -50t-102.5 44.5t-38.5 115.5q0 69 30 127t82 91.5t115 33.5q31 0 61.5 -13
t52.5 -33l18 37h82l-68 -315q59 8 104.5 42.5t70 88t24.5 117.5q0 59 -34 108t-96.5 77t-143.5 28q-117 0 -214.5 -49t-155 -140t-57.5 -213q0 -77 30 -141t88.5 -101.5t140.5 -37.5q67 0 118.5 18t99.5 51l48 -73q-118 -87 -269 -87q-107 0 -186 49zM548 203l30 142
q-27 23 -69 23q-57 0 -92.5 -40t-35.5 -100q0 -34 17.5 -53.5t47.5 -19.5q54 0 102 48z" />
    <glyph glyph-name="ampersand" unicode="&#x26;" horiz-adv-x="661" 
d="M130 10.5q-48 22.5 -74 62.5t-26 91q0 76 46 132.5t124 93.5q-25 49 -25 97q0 58 30 103.5t81 71t111 25.5t109 -27t81 -74l-84 -71q-21 29 -49 44t-60 15q-44 0 -74 -26t-30 -68q0 -28 13.5 -55t46.5 -75l15 -22l92 -135q44 58 57 132l7 34h103l-10 -48
q-25 -122 -100 -203l74 -108h-133l-27 40q-85 -52 -186 -52q-64 0 -112 22.5zM373 123l-125 186q-47 -21 -76 -53.5t-29 -73.5q0 -40 31.5 -64t87.5 -24q58 0 111 29z" />
    <glyph glyph-name="paragraph" unicode="&#xb6;" horiz-adv-x="594" 
d="M217 -58q47 0 80.5 31.5t44.5 85.5l128 600l126 18l-135 -638q-22 -104 -85 -158.5t-160 -54.5h-39l24 116h16zM136.5 248q-60.5 45 -60.5 125q0 23 6 50q18 88 80.5 144t165.5 72l71 10l-90 -446q-112 0 -172.5 45z" />
    <glyph glyph-name="section" unicode="&#xa7;" horiz-adv-x="490" 
d="M93 -63q50 0 78 20t28 57q0 19 -8 34.5t-28 35.5l-62 64q-26 26 -39.5 53.5t-13.5 61.5q0 63 40.5 108t105.5 62q-17 34 -17 67q0 86 64.5 131t176.5 45h70l-23 -105h-73q-49 0 -75.5 -19.5t-26.5 -58.5q0 -18 8 -34t28 -37l60 -63q52 -54 52 -118q0 -60 -40 -104
t-103 -61q17 -34 17 -68q0 -86 -66.5 -131.5t-176.5 -45.5h-76l24 106h76zM306.5 178q28.5 23 28.5 57q0 16 -6.5 29t-20.5 30l-59 62q-42 -2 -69.5 -25t-27.5 -57q0 -30 27 -60l56 -60q43 1 71.5 24z" />
    <glyph glyph-name="copyright" unicode="&#xa9;" horiz-adv-x="784" 
d="M229 32q-81 44 -128 123.5t-47 182.5q0 100 47.5 180t128.5 125t177 45q97 0 178 -44.5t129 -124.5t48 -181q0 -102 -48 -181.5t-129.5 -124t-177.5 -44.5q-97 0 -178 44zM556 86.5q67 36.5 105 102t38 149.5t-38 149.5t-104.5 102t-149.5 36.5t-148.5 -37t-103 -102.5
t-37.5 -148.5q0 -85 37 -150.5t102.5 -101.5t149.5 -36q82 0 149 36.5zM275.5 198.5q-52.5 51.5 -52.5 140.5q0 54 25 97.5t68.5 68t98.5 24.5q41 0 77.5 -16t59.5 -46l-54 -59q-35 35 -78 35q-45 0 -71.5 -28.5t-26.5 -75.5q0 -48 26 -76.5t72 -28.5t85 36l53 -62
q-27 -29 -64 -45t-80 -16q-86 0 -138.5 51.5z" />
    <glyph glyph-name="registered" unicode="&#xae;" horiz-adv-x="566" 
d="M203.5 269.5q-57.5 30.5 -91 86.5t-33.5 129q0 71 34 127.5t91.5 88t125.5 31.5t125.5 -31.5t91.5 -87.5t34 -128t-34 -128t-91.5 -87t-125.5 -31q-69 0 -126.5 30.5zM432.5 314q45.5 25 70.5 69.5t25 101.5t-25 101.5t-70 69.5t-103 25t-102.5 -25t-69.5 -69.5
t-25 -101.5t25 -101.5t69.5 -69.5t102.5 -25q57 0 102.5 25zM337 609q44 0 70.5 -22t26.5 -57q0 -20 -11 -36t-29 -24q14 -12 25 -32l34 -68h-71l-19 36q-10 21 -18.5 28t-27.5 7h-22v-71h-63v239h105zM367 526q0 29 -38 29h-34v-58h34q38 0 38 29z" />
    <glyph glyph-name="trademark" unicode="&#x2122;" horiz-adv-x="881" 
d="M212 590h-113l18 86h311l-18 -86h-111l-60 -282h-88zM494 676h85l70 -207l164 207h89l-79 -368h-87l47 217l-114 -147h-71l-50 146l-48 -216h-85z" />
    <glyph glyph-name="degree" unicode="&#xb0;" horiz-adv-x="397" 
d="M178.5 407.5q-34.5 20.5 -55 55t-20.5 74.5q0 41 20.5 75.5t55.5 55t75 20.5q41 0 75.5 -20.5t55 -55t20.5 -75.5q0 -40 -20.5 -74.5t-55 -55t-75.5 -20.5t-75.5 20.5zM301.5 489.5q19.5 19.5 19.5 47.5t-19.5 48t-47.5 20t-47 -20t-19 -48t19 -47.5t47 -19.5t47.5 19.5z
" />
    <glyph glyph-name="bar" unicode="|" horiz-adv-x="320" 
d="M197 735h128l-188 -881h-127z" />
    <glyph glyph-name="brokenbar" unicode="&#xa6;" horiz-adv-x="320" 
d="M197 735h128l-71 -332h-127zM81 187h127l-71 -333h-127z" />
    <glyph glyph-name="dagger" unicode="&#x2020;" horiz-adv-x="383" 
d="M195 491h-114l19 86h114l21 99l91 17l-24 -116h114l-18 -86h-115l-44 -206h-87z" />
    <glyph glyph-name="daggerdbl" unicode="&#x2021;" horiz-adv-x="398" 
d="M179 375h-112l17 79h112l13 64h-111l16 80h112l17 78l91 17l-21 -95h114l-17 -80h-113l-14 -64h113l-17 -79h-113l-19 -90h-87z" />
    <glyph glyph-name="at.case" horiz-adv-x="964" 
d="M237.5 -54q-80.5 50 -125 135t-44.5 186q0 144 70.5 256.5t189 175t257.5 62.5q106 0 189.5 -40.5t130.5 -111t47 -157.5q0 -93 -45.5 -168t-122.5 -118t-169 -43h-47l-9 47q-62 -50 -126 -50q-66 0 -103.5 43t-37.5 114q0 69 30 127.5t82 93t115 34.5q30 0 61 -13
t52 -33l19 37h82l-68 -314q59 7 104.5 41.5t70.5 87.5t25 116q0 62 -35.5 112t-99.5 79t-146 29q-116 0 -214 -50.5t-156 -142t-58 -210.5q0 -78 34 -144.5t95.5 -105.5t139.5 -39q65 0 116 18.5t100 52.5l47 -71q-115 -86 -267 -86q-103 0 -183.5 50zM570 266l30 145
q-28 24 -69 24q-57 0 -93.5 -41t-36.5 -101q0 -34 18.5 -54.5t48.5 -20.5q52 0 102 48z" />
    <glyph glyph-name="uni0308" unicode="&#x308;" horiz-adv-x="0" 
d="M-352.5 621q-17.5 16 -17.5 42q0 32 21 52.5t52 20.5q28 0 46 -16.5t18 -42.5q0 -32 -21.5 -52t-52.5 -20q-28 0 -45.5 16zM-150.5 621q-17.5 16 -17.5 42q0 32 21 52.5t52 20.5q28 0 45.5 -16.5t17.5 -42.5q0 -32 -21 -52t-52 -20q-28 0 -45.5 16z" />
    <glyph glyph-name="uni0307" unicode="&#x307;" horiz-adv-x="0" 
d="M-255 620q-18 17 -18 45q0 34 22.5 55.5t56.5 21.5q30 0 48.5 -17t18.5 -45q0 -33 -23 -55t-56 -22q-31 0 -49 17z" />
    <glyph glyph-name="gravecomb" unicode="&#x300;" horiz-adv-x="0" 
d="M-312 744h125l99 -144h-112z" />
    <glyph glyph-name="acutecomb" unicode="&#x301;" horiz-adv-x="0" 
d="M-189 744h137l-175 -144h-120z" />
    <glyph glyph-name="uni0302" unicode="&#x302;" horiz-adv-x="0" 
d="M-243 744h113l93 -144h-102l-59 78l-89 -78h-111z" />
    <glyph glyph-name="uni030C" unicode="&#x30c;" horiz-adv-x="0" 
d="M-363 744h102l59 -77l89 77h111l-155 -144h-113z" />
    <glyph glyph-name="uni030A" unicode="&#x30a;" horiz-adv-x="0" 
d="M-218 606.5q-29 16.5 -46.5 45.5t-17.5 63q0 53 37.5 89t90.5 36q34 0 63.5 -16.5t46.5 -45t17 -63.5t-17 -63.5t-46.5 -45t-63.5 -16.5q-35 0 -64 16.5zM-114 673q17 17 17 42t-17 41.5t-40 16.5q-24 0 -40.5 -16.5t-16.5 -41.5t16.5 -42t40.5 -17q23 0 40 17z" />
    <glyph glyph-name="tildecomb" unicode="&#x303;" horiz-adv-x="0" 
d="M-166.5 606.5q-15.5 6.5 -41.5 21.5q-22 12 -39.5 18.5t-36.5 6.5q-24 0 -43 -9.5t-52 -30.5l20 93q45 36 88 36q19 0 36 -7t40 -20t42 -19.5t38 -6.5q22 0 40 8t33.5 18t22.5 14l-20 -93q-45 -36 -92 -36q-20 0 -35.5 6.5z" />
    <glyph glyph-name="uni0327" unicode="&#x327;" horiz-adv-x="0" 
d="M-435 -114q33 0 56.5 19.5t23.5 50.5q0 12 -5.5 25t-18.5 31l65 15q22 -23 33.5 -45.5t11.5 -48.5q0 -61 -47 -95t-124 -34h-35l17 82h23z" />
    <glyph glyph-name="dieresis" unicode="&#xa8;" horiz-adv-x="576" 
d="M223.5 621q-17.5 16 -17.5 42q0 32 21 52.5t52 20.5q28 0 46 -16.5t18 -42.5q0 -32 -21.5 -52t-52.5 -20q-28 0 -45.5 16zM425.5 621q-17.5 16 -17.5 42q0 32 21 52.5t52 20.5q28 0 45.5 -16.5t17.5 -42.5q0 -32 -21 -52t-52 -20q-28 0 -45.5 16z" />
    <glyph glyph-name="dotaccent" unicode="&#x2d9;" horiz-adv-x="576" 
d="M321 620q-18 17 -18 45q0 34 22.5 55.5t56.5 21.5q30 0 48.5 -17t18.5 -45q0 -33 -23 -55t-56 -22q-31 0 -49 17z" />
    <glyph glyph-name="grave" unicode="`" horiz-adv-x="576" 
d="M264 744h125l99 -144h-112z" />
    <glyph glyph-name="acute" unicode="&#xb4;" horiz-adv-x="576" 
d="M387 744h137l-175 -144h-120z" />
    <glyph glyph-name="circumflex" unicode="&#x2c6;" horiz-adv-x="576" 
d="M333 744h113l93 -144h-102l-59 78l-89 -78h-111z" />
    <glyph glyph-name="caron" unicode="&#x2c7;" horiz-adv-x="576" 
d="M213 744h102l59 -77l89 77h111l-155 -144h-113z" />
    <glyph glyph-name="ring" unicode="&#x2da;" horiz-adv-x="576" 
d="M358 606.5q-29 16.5 -46.5 45.5t-17.5 63q0 53 37.5 89t90.5 36q34 0 63.5 -16.5t46.5 -45t17 -63.5t-17 -63.5t-46.5 -45t-63.5 -16.5q-35 0 -64 16.5zM462 673q17 17 17 42t-16.5 41.5t-40.5 16.5t-40.5 -16.5t-16.5 -41.5t16.5 -42t40.5 -17q23 0 40 17z" />
    <glyph glyph-name="tilde" unicode="&#x2dc;" horiz-adv-x="576" 
d="M409.5 606.5q-15.5 6.5 -41.5 21.5q-22 12 -39.5 18.5t-36.5 6.5q-24 0 -43 -9.5t-52 -30.5l20 93q45 36 88 36q19 0 36 -7t40 -20t42 -19.5t38 -6.5q22 0 40 8t33.5 18t22.5 14l-20 -93q-45 -36 -92 -36q-20 0 -35.5 6.5z" />
    <glyph glyph-name="cedilla" unicode="&#xb8;" horiz-adv-x="576" 
d="M141 -114q33 0 56.5 19.5t23.5 50.5q0 12 -5.5 25t-18.5 31l65 15q22 -23 33.5 -45.5t11.5 -48.5q0 -61 -47 -95t-124 -34h-35l17 82h23z" />
    <glyph glyph-name="uni0308.case" horiz-adv-x="0" 
d="M-326 756q-17 16 -17 43q0 31 21.5 52t52.5 21q28 0 46 -16.5t18 -42.5q0 -32 -21.5 -52.5t-53.5 -20.5q-29 0 -46 16zM-121 756.5q-18 16.5 -18 42.5q0 31 22 52t54 21q28 0 45.5 -16.5t17.5 -43.5q0 -32 -21.5 -52t-53.5 -20q-28 0 -46 16.5z" />
    <glyph glyph-name="uni0307.case" horiz-adv-x="0" 
d="M-226.5 760.5q-18.5 17.5 -18.5 45.5q0 33 24 55.5t57 22.5q31 0 49.5 -17.5t18.5 -46.5q0 -35 -23 -56t-58 -21q-31 0 -49.5 17.5z" />
    <glyph glyph-name="gravecomb.case" horiz-adv-x="0" 
d="M-288 883h129l106 -141h-115z" />
    <glyph glyph-name="acutecomb.case" horiz-adv-x="0" 
d="M-159 883h143l-180 -141h-129z" />
    <glyph glyph-name="uni0302.case" horiz-adv-x="0" 
d="M-215 882h117l98 -140h-109l-57 74l-91 -74h-117z" />
    <glyph glyph-name="uni030C.case" horiz-adv-x="0" 
d="M-341 882h109l58 -75l90 75h117l-159 -140h-116z" />
    <glyph glyph-name="uni030A.case" horiz-adv-x="0" 
d="M-235.5 754q-30.5 17 -48.5 46.5t-18 64.5q0 36 18 65.5t48.5 46.5t66.5 17t66.5 -17t48.5 -46.5t18 -65.5q0 -35 -18 -64.5t-48.5 -46.5t-66.5 -17t-66.5 17zM-127 822.5q17 17.5 17 42.5t-17 42t-42 17t-42 -17t-17 -42t17 -42.5t42 -17.5t42 17.5z" />
    <glyph glyph-name="tildecomb.case" horiz-adv-x="0" 
d="M-132 750q-16 6 -29.5 13t-18.5 10q-42 22 -74 22q-24 0 -45 -9.5t-50 -29.5l19 92q42 35 89 35q19 0 35.5 -6t40.5 -19q24 -12 43.5 -19t38.5 -7q24 0 43.5 8.5t34 18t19.5 12.5l-19 -93q-46 -34 -93 -34q-18 0 -34 6z" />
    <glyph glyph-name="uni0327.case" horiz-adv-x="0" 
d="M-443 -116q36 0 61.5 19.5t25.5 51.5q0 12 -6.5 26t-21.5 33l73 15q24 -24 36 -47.5t12 -50.5q0 -65 -52.5 -99.5t-133.5 -34.5h-38l18 87h26z" />
    <glyph glyph-name="gravecomb.narrow.case" horiz-adv-x="0" 
d="M-305 883h120l72 -141h-107z" />
    <glyph glyph-name="acutecomb.narrow.case" horiz-adv-x="0" 
d="M-207 883h134l-145 -141h-122z" />
    <glyph glyph-name="gravecomb.narrow" horiz-adv-x="0" 
d="M-302 744h120l72 -144h-107z" />
    <glyph glyph-name="acutecomb.narrow" horiz-adv-x="0" 
d="M-207 744h134l-146 -144h-121z" />
    <glyph glyph-name="periodsuperior" horiz-adv-x="193" 
d="M77 343.5q-16 15.5 -16 41.5q0 30 19.5 50t47.5 20q26 0 42 -15.5t16 -41.5q0 -31 -19.5 -50.5t-47.5 -19.5q-26 0 -42 15.5z" />
    <glyph glyph-name="commasuperior" horiz-adv-x="193" 
d="M97 447h102q-14 -43 -39 -89.5t-55 -85.5h-93q58 95 85 175z" />
    </font>
</defs>
</svg>
