<?xml version="1.0" standalone="no"?>
<!DOCTYPE svg PUBLIC "-//W3C//DTD SVG 1.1//EN" "http://www.w3.org/Graphics/SVG/1.1/DTD/svg11.dtd" >
<svg xmlns="http://www.w3.org/2000/svg" xmlns:xlink="http://www.w3.org/1999/xlink" version="1.1">
<metadata>
Created by FontForge 20190801 at Thu Dec 19 10:01:10 2019
 By Henrique Beier
Copyright (c) 2019 Banco Bradesco S.A. All rights reserved.
</metadata>
<defs>
<font id="BradescoSans-SemiBold" horiz-adv-x="586" >
  <font-face 
    font-family="Bradesco Sans SemiBold"
    font-weight="600"
    font-stretch="normal"
    units-per-em="1000"
    panose-1="0 0 7 0 0 0 0 0 0 0"
    ascent="800"
    descent="-200"
    x-height="523"
    cap-height="676"
    bbox="-485 -224 1368 994"
    underline-thickness="50"
    underline-position="-100"
    unicode-range="U+0020-FB02"
  />
<missing-glyph horiz-adv-x="471" 
d="M386 -212h-298v942h298v-942zM158 667v-31h61v-35h-62v-31h157v31h-62v35h62v31h-156zM157 545v-98h157v32h-62v66h-95zM219 479h-31v34h31v-34zM157 422v-31h62v-35h-62v-31h95v66h62v31h-157zM283 365v-62h-126v-32h157v94h-31zM219 251v-53h33v21h31v-44h-95v76h-31
v-107h157v107h-95zM157 88v-107h157v107h-157zM283 12h-95v44h95v-44zM157 -41v-31h66l-66 -44v-31h157v31h-96l66 44h30v31h-157z" />
    <glyph glyph-name="fi" unicode="fi" horiz-adv-x="697" 
d="M127 687.5q58 58.5 155 58.5q43 0 81 -14.5t68 -40.5l-54 -78q-38 31 -84 31q-47 0 -73 -27.5t-26 -77.5v-19h207v-105h-207v-415h-125v528q0 101 58 159.5zM512 622.5q-21 19.5 -21 49.5q0 31 21 50.5t54 19.5t54 -19.5t21 -50.5q0 -30 -21 -49.5t-54 -19.5t-54 19.5z
M503 523h124v-523h-124v523z" />
    <glyph glyph-name="fl" unicode="fl" horiz-adv-x="761" 
d="M127 687.5q58 58.5 155 58.5q43 0 81 -14.5t68 -40.5l-54 -78q-38 31 -84 31q-47 0 -73 -27.5t-26 -77.5v-19h207v-105h-207v-415h-125v528q0 101 58 159.5zM553.5 45.5q-47.5 52.5 -47.5 152.5v526l124 20v-548q0 -47 22.5 -73t63.5 -26h18v-104h-42q-91 0 -138.5 52.5z
" />
    <glyph glyph-name=".notdef" horiz-adv-x="471" 
d="M386 -212h-298v942h298v-942zM158 667v-31h61v-35h-62v-31h157v31h-62v35h62v31h-156zM157 545v-98h157v32h-62v66h-95zM219 479h-31v34h31v-34zM157 422v-31h62v-35h-62v-31h95v66h62v31h-157zM283 365v-62h-126v-32h157v94h-31zM219 251v-53h33v21h31v-44h-95v76h-31
v-107h157v107h-95zM157 88v-107h157v107h-157zM283 12h-95v44h95v-44zM157 -41v-31h66l-66 -44v-31h157v31h-96l66 44h30v31h-157z" />
    <glyph glyph-name="space" unicode=" " horiz-adv-x="255" 
 />
    <glyph glyph-name="A" unicode="A" horiz-adv-x="683" 
d="M278 676h130l258 -676h-134l-57 160h-271l-58 -160h-128zM437 271l-97 272l-98 -272h195z" />
    <glyph glyph-name="Aacute" unicode="&#xc1;" horiz-adv-x="683" 
d="M278 676h130l258 -676h-134l-57 160h-271l-58 -160h-128zM437 271l-97 272l-98 -272h195zM387 883h139l-153 -141h-124z" />
    <glyph glyph-name="Acircumflex" unicode="&#xc2;" horiz-adv-x="683" 
d="M278 676h130l258 -676h-134l-57 160h-271l-58 -160h-128zM437 271l-97 272l-98 -272h195zM282 882h119l132 -140h-117l-74 74l-76 -74h-116z" />
    <glyph glyph-name="Adieresis" unicode="&#xc4;" horiz-adv-x="683" 
d="M278 676h130l258 -676h-134l-57 160h-271l-58 -160h-128zM437 271l-97 272l-98 -272h195zM187 758q-20 18 -20 48q0 29 20 47.5t51 18.5q30 0 50.5 -19t20.5 -47q0 -30 -20 -48t-51 -18t-51 18zM396 758q-20 18 -20 48q0 29 20 47.5t51 18.5q30 0 50.5 -19t20.5 -47
q0 -30 -20 -48t-51 -18t-51 18z" />
    <glyph glyph-name="Agrave" unicode="&#xc0;" horiz-adv-x="683" 
d="M278 676h130l258 -676h-134l-57 160h-271l-58 -160h-128zM437 271l-97 272l-98 -272h195zM159 883h138l139 -141h-124z" />
    <glyph glyph-name="Aring" unicode="&#xc5;" horiz-adv-x="683" 
d="M666 0h-134l-57 160h-271l-58 -160h-128l245 638q-26 17 -41 45t-15 60q0 54 39 91t94 37q36 0 66 -17t48 -46.5t18 -64.5q0 -31 -13.5 -57.5t-37.5 -44.5zM298 784.5q-17 -16.5 -17 -41.5q0 -26 17 -43t42 -17q24 0 41 17.5t17 42.5t-17 41.5t-41 16.5q-25 0 -42 -16.5z
M242 271h195l-97 272z" />
    <glyph glyph-name="Atilde" unicode="&#xc3;" horiz-adv-x="683" 
d="M278 676h130l258 -676h-134l-57 160h-271l-58 -160h-128zM437 271l-97 272l-98 -272h195zM384 749.5q-19 6.5 -41 18.5q-25 14 -39.5 20t-32.5 6q-26 0 -49 -9.5t-51 -27.5v90q25 18 49 27t52 9q24 0 43 -6t41 -18q24 -14 39 -20t33 -6q29 0 52.5 9.5t49.5 27.5v-90
q-49 -37 -104 -37q-23 0 -42 6.5z" />
    <glyph glyph-name="AE" unicode="&#xc6;" horiz-adv-x="1028" 
d="M476 676h497v-116h-331v-157h289v-115h-289v-171h340v-117h-465v158h-262l-109 -158h-143zM517 266v272l-188 -272h188z" />
    <glyph glyph-name="B" unicode="B" horiz-adv-x="628" 
d="M324 676q105 0 164 -49.5t59 -131.5q0 -43 -21.5 -78t-59.5 -58q56 -22 88.5 -65.5t32.5 -101.5q0 -88 -61 -140t-167 -52h-279v676h244zM396.5 419.5q29.5 23.5 29.5 65.5t-30 66.5t-89 24.5h-108v-180h112q56 0 85.5 23.5zM432 125q32 25 32 73q0 41 -31.5 67t-87.5 26
h-146v-191h140q61 0 93 25z" />
    <glyph glyph-name="C" unicode="C" horiz-adv-x="658" 
d="M206.5 32.5q-73.5 43.5 -114 123t-40.5 182.5q0 99 42.5 178.5t117 125t167.5 45.5q71 0 131.5 -28.5t101.5 -77.5l-80 -81q-62 70 -149 70q-59 0 -104 -29.5t-70 -82t-25 -120.5q0 -67 25.5 -119.5t70.5 -82t102 -29.5q89 0 158 72l79 -82q-45 -51 -106.5 -79.5
t-136.5 -28.5q-96 0 -169.5 43.5z" />
    <glyph glyph-name="Ccedilla" unicode="&#xc7;" horiz-adv-x="658" 
d="M428 -7q30 -38 30 -78q0 -57 -44.5 -88t-122.5 -31h-34v88h30q32 0 51.5 12t19.5 34q0 17 -7 31.5t-23 30.5q-83 10 -145.5 56t-96.5 121t-34 169q0 99 42.5 178.5t117 125t167.5 45.5q71 0 131.5 -28.5t101.5 -77.5l-80 -81q-62 70 -149 70q-59 0 -104 -29.5t-70 -82
t-25 -120.5q0 -67 25.5 -119.5t70.5 -82t102 -29.5q89 0 158 72l79 -82q-79 -88 -191 -104z" />
    <glyph glyph-name="D" unicode="D" horiz-adv-x="709" 
d="M317 676q101 0 178 -42t119.5 -118.5t42.5 -176.5t-42.5 -177t-120 -119.5t-177.5 -42.5h-236v676h236zM470 176.5q56 59.5 56 162.5q0 102 -55.5 161.5t-156.5 59.5h-106v-443h106q100 0 156 59.5z" />
    <glyph glyph-name="Eth" unicode="&#xd0;" horiz-adv-x="741" 
d="M28 284v109h85v283h236q101 0 178 -42t119.5 -118.5t42.5 -176.5t-42.5 -177t-120 -119.5t-177.5 -42.5h-236v284h-85zM502 176.5q56 59.5 56 162.5q0 102 -55.5 161.5t-156.5 59.5h-106v-167h170v-109h-170v-167h106q100 0 156 59.5z" />
    <glyph glyph-name="E" unicode="E" horiz-adv-x="592" 
d="M81 676h456v-116h-331v-157h289v-115h-289v-171h340v-117h-465v676z" />
    <glyph glyph-name="Eacute" unicode="&#xc9;" horiz-adv-x="592" 
d="M81 676h456v-116h-331v-157h289v-115h-289v-171h340v-117h-465v676zM359 883h139l-153 -141h-124z" />
    <glyph glyph-name="Ecircumflex" unicode="&#xca;" horiz-adv-x="592" 
d="M81 676h456v-116h-331v-157h289v-115h-289v-171h340v-117h-465v676zM254 882h119l132 -140h-117l-74 74l-76 -74h-116z" />
    <glyph glyph-name="Edieresis" unicode="&#xcb;" horiz-adv-x="592" 
d="M81 676h456v-116h-331v-157h289v-115h-289v-171h340v-117h-465v676zM159 758q-20 18 -20 48q0 29 20 47.5t51 18.5q30 0 50.5 -19t20.5 -47q0 -30 -20 -48t-51 -18t-51 18zM368 758q-20 18 -20 48q0 29 20 47.5t51 18.5q30 0 50.5 -19t20.5 -47q0 -30 -20 -48t-51 -18
t-51 18z" />
    <glyph glyph-name="Egrave" unicode="&#xc8;" horiz-adv-x="592" 
d="M81 676h456v-116h-331v-157h289v-115h-289v-171h340v-117h-465v676zM131 883h138l139 -141h-124z" />
    <glyph glyph-name="F" unicode="F" horiz-adv-x="576" 
d="M81 676h453v-118h-327v-171h285v-118h-285v-269h-126v676z" />
    <glyph glyph-name="G" unicode="G" horiz-adv-x="693" 
d="M205.5 32q-73.5 43 -113.5 122t-40 184q0 100 43 179.5t119 124.5t171 45q71 0 133 -29.5t101 -76.5l-79 -80q-61 69 -151 69q-62 0 -109 -29t-72.5 -82t-25.5 -121q0 -69 24.5 -121.5t69.5 -81.5t103 -29q82 0 140 41v115h-147v104h260v-278q-48 -46 -117 -72.5
t-140 -26.5q-96 0 -169.5 43z" />
    <glyph glyph-name="H" unicode="H" horiz-adv-x="716" 
d="M81 676h128v-267h298v267h129v-676h-129v286h-298v-286h-128v676z" />
    <glyph glyph-name="I" unicode="I" horiz-adv-x="290" 
d="M81 676h128v-676h-128v676z" />
    <glyph glyph-name="Iacute" unicode="&#xcd;" horiz-adv-x="290" 
d="M81 676h128v-676h-128v676zM187 883h129l-120 -141h-116z" />
    <glyph glyph-name="Icircumflex" unicode="&#xce;" horiz-adv-x="290" 
d="M81 676h128v-676h-128v676zM85 882h119l132 -140h-117l-74 74l-76 -74h-116z" />
    <glyph glyph-name="Idieresis" unicode="&#xcf;" horiz-adv-x="290" 
d="M81 676h128v-676h-128v676zM-10 758q-20 18 -20 48q0 29 20 47.5t51 18.5q30 0 50.5 -19t20.5 -47q0 -30 -20 -48t-51 -18t-51 18zM199 758q-20 18 -20 48q0 29 20 47.5t51 18.5q30 0 50.5 -19t20.5 -47q0 -30 -20 -48t-51 -18t-51 18z" />
    <glyph glyph-name="Igrave" unicode="&#xcc;" horiz-adv-x="290" 
d="M81 676h128v-676h-128v676zM-25 883h129l107 -141h-116z" />
    <glyph glyph-name="J" unicode="J" horiz-adv-x="436" 
d="M90 123q68 0 105 40t37 114v399h129v-405q0 -131 -66.5 -201t-189.5 -70h-67v123h52z" />
    <glyph glyph-name="K" unicode="K" horiz-adv-x="695" 
d="M207 676v-270h66q38 0 61 9.5t42.5 34t48.5 77.5l85 149h142l-119 -203q-45 -79 -87 -118l239 -355h-152l-195 291q-21 -6 -44 -6h-87v-285h-126v676h126z" />
    <glyph glyph-name="L" unicode="L" horiz-adv-x="573" 
d="M81 676h128v-552h325v-124h-453v676z" />
    <glyph glyph-name="M" unicode="M" horiz-adv-x="870" 
d="M81 676h117l233 -425l243 425h115v-676h-126v449l-182 -321h-103l-174 317v-445h-123v676z" />
    <glyph glyph-name="N" unicode="N" horiz-adv-x="715" 
d="M81 676h105l322 -454v454h126v-676h-106l-322 454v-454h-125v676z" />
    <glyph glyph-name="Ntilde" unicode="&#xd1;" horiz-adv-x="715" 
d="M81 676h105l322 -454v454h126v-676h-106l-322 454v-454h-125v676zM400 749.5q-19 6.5 -41 18.5q-25 14 -39.5 20t-32.5 6q-26 0 -49 -9.5t-51 -27.5v90q25 18 49 27t52 9q24 0 43 -6t41 -18q24 -14 39 -20t33 -6q29 0 52.5 9.5t49.5 27.5v-90q-49 -37 -104 -37
q-23 0 -42 6.5z" />
    <glyph glyph-name="O" unicode="O" horiz-adv-x="757" 
d="M210.5 33q-74.5 44 -116.5 124t-42 182q0 99 42.5 178.5t117 124.5t166.5 45q93 0 167.5 -44.5t117 -124t42.5 -179.5q0 -101 -43 -180.5t-117.5 -124.5t-166.5 -45q-93 0 -167.5 44zM480.5 136q44.5 29 69 82t24.5 121q0 67 -24 119.5t-68.5 82t-102.5 29.5
q-59 0 -103.5 -29.5t-68.5 -82t-24 -119.5q0 -68 24 -120.5t68 -82t103 -29.5q58 0 102.5 29z" />
    <glyph glyph-name="Oacute" unicode="&#xd3;" horiz-adv-x="757" 
d="M210.5 33q-74.5 44 -116.5 124t-42 182q0 99 42.5 178.5t117 124.5t166.5 45q93 0 167.5 -44.5t117 -124t42.5 -179.5q0 -101 -43 -180.5t-117.5 -124.5t-166.5 -45q-93 0 -167.5 44zM480.5 136q44.5 29 69 82t24.5 121q0 67 -24 119.5t-68.5 82t-102.5 29.5
q-59 0 -103.5 -29.5t-68.5 -82t-24 -119.5q0 -68 24 -120.5t68 -82t103 -29.5q58 0 102.5 29zM423 883h139l-153 -141h-124z" />
    <glyph glyph-name="Ocircumflex" unicode="&#xd4;" horiz-adv-x="757" 
d="M210.5 33q-74.5 44 -116.5 124t-42 182q0 99 42.5 178.5t117 124.5t166.5 45q93 0 167.5 -44.5t117 -124t42.5 -179.5q0 -101 -43 -180.5t-117.5 -124.5t-166.5 -45q-93 0 -167.5 44zM480.5 136q44.5 29 69 82t24.5 121q0 67 -24 119.5t-68.5 82t-102.5 29.5
q-59 0 -103.5 -29.5t-68.5 -82t-24 -119.5q0 -68 24 -120.5t68 -82t103 -29.5q58 0 102.5 29zM319 882h119l132 -140h-117l-74 74l-76 -74h-116z" />
    <glyph glyph-name="Odieresis" unicode="&#xd6;" horiz-adv-x="757" 
d="M210.5 33q-74.5 44 -116.5 124t-42 182q0 99 42.5 178.5t117 124.5t166.5 45q93 0 167.5 -44.5t117 -124t42.5 -179.5q0 -101 -43 -180.5t-117.5 -124.5t-166.5 -45q-93 0 -167.5 44zM480.5 136q44.5 29 69 82t24.5 121q0 67 -24 119.5t-68.5 82t-102.5 29.5
q-59 0 -103.5 -29.5t-68.5 -82t-24 -119.5q0 -68 24 -120.5t68 -82t103 -29.5q58 0 102.5 29zM224 758q-20 18 -20 48q0 29 20 47.5t51 18.5q30 0 50.5 -19t20.5 -47q0 -30 -20 -48t-51 -18t-51 18zM433 758q-20 18 -20 48q0 29 20 47.5t51 18.5q30 0 50.5 -19t20.5 -47
q0 -30 -20 -48t-51 -18t-51 18z" />
    <glyph glyph-name="Ograve" unicode="&#xd2;" horiz-adv-x="757" 
d="M210.5 33q-74.5 44 -116.5 124t-42 182q0 99 42.5 178.5t117 124.5t166.5 45q93 0 167.5 -44.5t117 -124t42.5 -179.5q0 -101 -43 -180.5t-117.5 -124.5t-166.5 -45q-93 0 -167.5 44zM480.5 136q44.5 29 69 82t24.5 121q0 67 -24 119.5t-68.5 82t-102.5 29.5
q-59 0 -103.5 -29.5t-68.5 -82t-24 -119.5q0 -68 24 -120.5t68 -82t103 -29.5q58 0 102.5 29zM196 883h138l139 -141h-124z" />
    <glyph glyph-name="Oslash" unicode="&#xd8;" horiz-adv-x="757" 
d="M75.5 199q-23.5 64 -23.5 140q0 99 42.5 178.5t117 124.5t166.5 45q87 0 155 -41l58 81h126l-100 -143q42 -47 65 -109.5t23 -135.5q0 -101 -43 -181t-117.5 -125t-166.5 -45q-82 0 -152 39l-56 -79h-126l98 141q-43 46 -66.5 110zM379 570q-59 0 -103.5 -29.5t-68.5 -82
t-24 -119.5q0 -80 36 -138l245 344q-38 25 -85 25zM480.5 135.5q44.5 29.5 69 82.5t24.5 121q0 76 -33 133l-245 -342q37 -24 82 -24q58 0 102.5 29.5z" />
    <glyph glyph-name="Otilde" unicode="&#xd5;" horiz-adv-x="757" 
d="M210.5 33q-74.5 44 -116.5 124t-42 182q0 99 42.5 178.5t117 124.5t166.5 45q93 0 167.5 -44.5t117 -124t42.5 -179.5q0 -101 -43 -180.5t-117.5 -124.5t-166.5 -45q-93 0 -167.5 44zM480.5 136q44.5 29 69 82t24.5 121q0 67 -24 119.5t-68.5 82t-102.5 29.5
q-59 0 -103.5 -29.5t-68.5 -82t-24 -119.5q0 -68 24 -120.5t68 -82t103 -29.5q58 0 102.5 29zM421 749.5q-19 6.5 -41 18.5q-25 14 -39.5 20t-32.5 6q-26 0 -49 -9.5t-51 -27.5v90q25 18 49 27t52 9q24 0 43 -6t41 -18q24 -14 39 -20t33 -6q29 0 52.5 9.5t49.5 27.5v-90
q-49 -37 -104 -37q-23 0 -42 6.5z" />
    <glyph glyph-name="OE" unicode="&#x152;" horiz-adv-x="1086" 
d="M209 32.5q-73 44.5 -115 124t-42 182.5q0 99 42.5 178.5t116 124.5t162.5 45q60 0 111.5 -25t89.5 -71v85h456v-116h-331v-157h289v-115h-289v-171h341v-117h-466v87q-38 -47 -90 -73t-111 -26q-91 0 -164 44.5zM480.5 135.5q44.5 29.5 69 82.5t24.5 121t-24 120t-68 81
t-103 29q-58 0 -102.5 -29.5t-69 -82t-24.5 -118.5q0 -67 24 -120t68 -83t103 -30q58 0 102.5 29.5z" />
    <glyph glyph-name="P" unicode="P" horiz-adv-x="627" 
d="M341 676q75 0 130 -28t84.5 -78t29.5 -116q0 -65 -30 -115.5t-85 -78.5t-129 -28h-132v-232h-128v676h260zM421 371.5q34 28.5 34 82.5t-34 84t-99 30h-113v-225h113q65 0 99 28.5z" />
    <glyph glyph-name="Thorn" unicode="&#xde;" horiz-adv-x="626" 
d="M209 676v-86h132q75 0 130 -28t84.5 -78t29.5 -116t-30 -116t-85 -78t-129 -28h-132v-146h-128v676h128zM421 285q34 29 34 83t-34 84t-99 30h-113v-226h113q65 0 99 29z" />
    <glyph glyph-name="Q" unicode="Q" horiz-adv-x="757" 
d="M378 -12q-93 0 -167.5 44.5t-116.5 124.5t-42 182q0 99 42.5 178.5t117 124.5t166.5 45q93 0 167.5 -44.5t117 -124t42.5 -179.5q0 -75 -24 -139t-68 -112l80 -109l-97 -68l-79 107q-66 -30 -139 -30zM445 116l-79 107l98 68l73 -99q37 59 37 144q0 68 -24 121t-68 83
t-102 30q-60 0 -104.5 -30t-68.5 -83t-24 -121q0 -66 24.5 -118.5t69 -82.5t102.5 -30q35 0 66 11z" />
    <glyph glyph-name="R" unicode="R" horiz-adv-x="640" 
d="M333 676q75 0 130 -26t84.5 -73t29.5 -108q0 -59 -32 -104t-88 -69q48 -35 86 -114l87 -182h-140l-58 122q-21 46 -40 72.5t-45.5 40.5t-67.5 14h-73v-249h-125v676h252zM414.5 384.5q34.5 28.5 34.5 78.5q0 53 -34 80.5t-100 27.5h-109v-215h109q65 0 99.5 28.5z" />
    <glyph glyph-name="S" unicode="S" horiz-adv-x="612" 
d="M25 98l69 87q43 -39 98.5 -60t118.5 -21q60 0 92.5 20.5t32.5 60.5q0 43 -35 64t-116 39q-84 19 -133.5 43t-74 63t-24.5 102q0 54 31 97.5t88 68.5t130 25q149 0 249 -105l-75 -78q-36 34 -82 52t-92 18q-58 0 -89.5 -20.5t-31.5 -57.5q0 -28 15.5 -45t46.5 -28t93 -24
q119 -27 174 -77t55 -132q0 -92 -67.5 -147t-188.5 -55q-171 0 -284 110z" />
    <glyph glyph-name="Scaron" unicode="&#x160;" horiz-adv-x="612" 
d="M25 98l69 87q43 -39 98.5 -60t118.5 -21q60 0 92.5 20.5t32.5 60.5q0 43 -35 64t-116 39q-84 19 -133.5 43t-74 63t-24.5 102q0 54 31 97.5t88 68.5t130 25q149 0 249 -105l-75 -78q-36 34 -82 52t-92 18q-58 0 -89.5 -20.5t-31.5 -57.5q0 -28 15.5 -45t46.5 -28t93 -24
q119 -27 174 -77t55 -132q0 -92 -67.5 -147t-188.5 -55q-171 0 -284 110zM114 882h117l75 -75l75 75h116l-132 -140h-119z" />
    <glyph glyph-name="uni1E9E" unicode="&#x1e9e;" horiz-adv-x="697" 
d="M246 59l57 82q30 -25 59 -35.5t69 -10.5q52 0 81.5 25.5t29.5 69.5q0 47 -38 74t-108 27h-65v78l143 179q-42 31 -107 31q-79 0 -126.5 -55t-47.5 -153v-371h-122v375q0 93 37 164t103.5 109.5t154.5 38.5q145 0 256 -104l-161 -203l19 -2q81 -8 131 -60.5t50 -126.5
q0 -60 -27 -105.5t-76.5 -71t-115.5 -25.5q-117 0 -196 70z" />
    <glyph glyph-name="T" unicode="T" horiz-adv-x="624" 
d="M248 554h-212v122h551v-122h-212v-554h-127v554z" />
    <glyph glyph-name="U" unicode="U" horiz-adv-x="721" 
d="M149.5 74q-76.5 86 -76.5 246v356h128v-357q0 -105 41.5 -159t117.5 -54t118 54t42 159v357h128v-356q0 -103 -35.5 -177.5t-100.5 -114.5t-152 -40q-134 0 -210.5 86z" />
    <glyph glyph-name="Uacute" unicode="&#xda;" horiz-adv-x="721" 
d="M149.5 74q-76.5 86 -76.5 246v356h128v-357q0 -105 41.5 -159t117.5 -54t118 54t42 159v357h128v-356q0 -103 -35.5 -177.5t-100.5 -114.5t-152 -40q-134 0 -210.5 86zM405 883h139l-153 -141h-124z" />
    <glyph glyph-name="Ucircumflex" unicode="&#xdb;" horiz-adv-x="721" 
d="M149.5 74q-76.5 86 -76.5 246v356h128v-357q0 -105 41.5 -159t117.5 -54t118 54t42 159v357h128v-356q0 -103 -35.5 -177.5t-100.5 -114.5t-152 -40q-134 0 -210.5 86zM301 882h119l132 -140h-117l-74 74l-76 -74h-116z" />
    <glyph glyph-name="Udieresis" unicode="&#xdc;" horiz-adv-x="721" 
d="M149.5 74q-76.5 86 -76.5 246v356h128v-357q0 -105 41.5 -159t117.5 -54t118 54t42 159v357h128v-356q0 -103 -35.5 -177.5t-100.5 -114.5t-152 -40q-134 0 -210.5 86zM206 758q-20 18 -20 48q0 29 20 47.5t51 18.5q30 0 50.5 -19t20.5 -47q0 -30 -20 -48t-51 -18t-51 18
zM415 758q-20 18 -20 48q0 29 20 47.5t51 18.5q30 0 50.5 -19t20.5 -47q0 -30 -20 -48t-51 -18t-51 18z" />
    <glyph glyph-name="Ugrave" unicode="&#xd9;" horiz-adv-x="721" 
d="M149.5 74q-76.5 86 -76.5 246v356h128v-357q0 -105 41.5 -159t117.5 -54t118 54t42 159v357h128v-356q0 -103 -35.5 -177.5t-100.5 -114.5t-152 -40q-134 0 -210.5 86zM178 883h138l139 -141h-124z" />
    <glyph glyph-name="V" unicode="V" horiz-adv-x="695" 
d="M18 676h145l187 -519l186 519h141l-262 -676h-136z" />
    <glyph glyph-name="W" unicode="W" horiz-adv-x="990" 
d="M27 676h140l122 -509l144 466h133l138 -466l124 509h136l-193 -676h-134l-144 464l-143 -464h-132z" />
    <glyph glyph-name="Wacute" unicode="&#x1e82;" horiz-adv-x="990" 
d="M27 676h140l122 -509l144 466h133l138 -466l124 509h136l-193 -676h-134l-144 464l-143 -464h-132zM540 883h139l-153 -141h-124z" />
    <glyph glyph-name="Wcircumflex" unicode="&#x174;" horiz-adv-x="990" 
d="M27 676h140l122 -509l144 466h133l138 -466l124 509h136l-193 -676h-134l-144 464l-143 -464h-132zM435 882h119l132 -140h-117l-74 74l-76 -74h-116z" />
    <glyph glyph-name="Wdieresis" unicode="&#x1e84;" horiz-adv-x="990" 
d="M27 676h140l122 -509l144 466h133l138 -466l124 509h136l-193 -676h-134l-144 464l-143 -464h-132zM340 758q-20 18 -20 48q0 29 20 47.5t51 18.5q30 0 50.5 -19t20.5 -47q0 -30 -20 -48t-51 -18t-51 18zM549 758q-20 18 -20 48q0 29 20 47.5t51 18.5q30 0 50.5 -19
t20.5 -47q0 -30 -20 -48t-51 -18t-51 18z" />
    <glyph glyph-name="Wgrave" unicode="&#x1e80;" horiz-adv-x="990" 
d="M27 676h140l122 -509l144 466h133l138 -466l124 509h136l-193 -676h-134l-144 464l-143 -464h-132zM312 883h138l139 -141h-124z" />
    <glyph glyph-name="X" unicode="X" horiz-adv-x="690" 
d="M267 353l-231 323h155l158 -229l154 229h148l-228 -323l249 -353h-154l-178 260l-173 -260h-149z" />
    <glyph glyph-name="Y" unicode="Y" horiz-adv-x="639" 
d="M256 253l-240 423h146l160 -300l160 300h142l-239 -422v-254h-129v253z" />
    <glyph glyph-name="Yacute" unicode="&#xdd;" horiz-adv-x="639" 
d="M256 253l-240 423h146l160 -300l160 300h142l-239 -422v-254h-129v253zM364 883h139l-153 -141h-124z" />
    <glyph glyph-name="Ycircumflex" unicode="&#x176;" horiz-adv-x="639" 
d="M256 253l-240 423h146l160 -300l160 300h142l-239 -422v-254h-129v253zM260 882h119l132 -140h-117l-74 74l-76 -74h-116z" />
    <glyph glyph-name="Ydieresis" unicode="&#x178;" horiz-adv-x="639" 
d="M256 253l-240 423h146l160 -300l160 300h142l-239 -422v-254h-129v253zM165 758q-20 18 -20 48q0 29 20 47.5t51 18.5q30 0 50.5 -19t20.5 -47q0 -30 -20 -48t-51 -18t-51 18zM374 758q-20 18 -20 48q0 29 20 47.5t51 18.5q30 0 50.5 -19t20.5 -47q0 -30 -20 -48t-51 -18
t-51 18z" />
    <glyph glyph-name="Ygrave" unicode="&#x1ef2;" horiz-adv-x="639" 
d="M256 253l-240 423h146l160 -300l160 300h142l-239 -422v-254h-129v253zM136 883h138l139 -141h-124z" />
    <glyph glyph-name="Z" unicode="Z" horiz-adv-x="621" 
d="M43 100l363 458h-351v118h511v-100l-362 -456h373v-120h-534v100z" />
    <glyph glyph-name="Zcaron" unicode="&#x17d;" horiz-adv-x="621" 
d="M43 100l363 458h-351v118h511v-100l-362 -456h373v-120h-534v100zM120 882h117l75 -75l75 75h116l-132 -140h-119z" />
    <glyph glyph-name="a" unicode="a" horiz-adv-x="555" 
d="M91.5 29.5q-46.5 40.5 -46.5 112.5q0 74 57.5 116.5t161.5 42.5h115v8q0 63 -27.5 93t-84.5 30q-39 0 -75.5 -14.5t-65.5 -40.5l-64 73q42 40 96.5 62t112.5 22q110 0 166.5 -60t56.5 -175v-299h-84l-20 65q-36 -35 -80.5 -55.5t-90.5 -20.5q-81 0 -127.5 40.5z
M313 102.5q37 18.5 66 51.5v62h-119q-49 0 -77 -18.5t-28 -50.5q0 -28 23 -45.5t58 -17.5q40 0 77 18.5z" />
    <glyph glyph-name="aacute" unicode="&#xe1;" horiz-adv-x="555" 
d="M91.5 29.5q-46.5 40.5 -46.5 112.5q0 74 57.5 116.5t161.5 42.5h115v8q0 63 -27.5 93t-84.5 30q-39 0 -75.5 -14.5t-65.5 -40.5l-64 73q42 40 96.5 62t112.5 22q110 0 166.5 -60t56.5 -175v-299h-84l-20 65q-36 -35 -80.5 -55.5t-90.5 -20.5q-81 0 -127.5 40.5z
M313 102.5q37 18.5 66 51.5v62h-119q-49 0 -77 -18.5t-28 -50.5q0 -28 23 -45.5t58 -17.5q40 0 77 18.5zM320 744h133l-146 -144h-120z" />
    <glyph glyph-name="acircumflex" unicode="&#xe2;" horiz-adv-x="555" 
d="M91.5 29.5q-46.5 40.5 -46.5 112.5q0 74 57.5 116.5t161.5 42.5h115v8q0 63 -27.5 93t-84.5 30q-39 0 -75.5 -14.5t-65.5 -40.5l-64 73q42 40 96.5 62t112.5 22q110 0 166.5 -60t56.5 -175v-299h-84l-20 65q-36 -35 -80.5 -55.5t-90.5 -20.5q-81 0 -127.5 40.5z
M313 102.5q37 18.5 66 51.5v62h-119q-49 0 -77 -18.5t-28 -50.5q0 -28 23 -45.5t58 -17.5q40 0 77 18.5zM220 744h115l127 -144h-111l-74 78l-75 -78h-109z" />
    <glyph glyph-name="adieresis" unicode="&#xe4;" horiz-adv-x="555" 
d="M91.5 29.5q-46.5 40.5 -46.5 112.5q0 74 57.5 116.5t161.5 42.5h115v8q0 63 -27.5 93t-84.5 30q-39 0 -75.5 -14.5t-65.5 -40.5l-64 73q42 40 96.5 62t112.5 22q110 0 166.5 -60t56.5 -175v-299h-84l-20 65q-36 -35 -80.5 -55.5t-90.5 -20.5q-81 0 -127.5 40.5z
M313 102.5q37 18.5 66 51.5v62h-119q-49 0 -77 -18.5t-28 -50.5q0 -28 23 -45.5t58 -17.5q40 0 77 18.5zM125.5 623.5q-19.5 18.5 -19.5 46.5q0 29 19.5 47.5t49.5 18.5t50 -18.5t20 -47.5q0 -28 -20 -46.5t-50 -18.5t-49.5 18.5zM331 623.5q-20 18.5 -20 46.5q0 29 20 47.5
t50 18.5t50 -18.5t20 -47.5q0 -28 -20 -46.5t-50 -18.5t-50 18.5z" />
    <glyph glyph-name="agrave" unicode="&#xe0;" horiz-adv-x="555" 
d="M91.5 29.5q-46.5 40.5 -46.5 112.5q0 74 57.5 116.5t161.5 42.5h115v8q0 63 -27.5 93t-84.5 30q-39 0 -75.5 -14.5t-65.5 -40.5l-64 73q42 40 96.5 62t112.5 22q110 0 166.5 -60t56.5 -175v-299h-84l-20 65q-36 -35 -80.5 -55.5t-90.5 -20.5q-81 0 -127.5 40.5z
M313 102.5q37 18.5 66 51.5v62h-119q-49 0 -77 -18.5t-28 -50.5q0 -28 23 -45.5t58 -17.5q40 0 77 18.5zM103 744h134l132 -144h-120z" />
    <glyph glyph-name="aring" unicode="&#xe5;" horiz-adv-x="555" 
d="M91.5 29.5q-46.5 40.5 -46.5 112.5q0 74 57.5 116.5t161.5 42.5h115v8q0 63 -27.5 93t-84.5 30q-39 0 -75.5 -14.5t-65.5 -40.5l-64 73q42 40 96.5 62t112.5 22q110 0 166.5 -60t56.5 -175v-299h-84l-20 65q-36 -35 -80.5 -55.5t-90.5 -20.5q-81 0 -127.5 40.5z
M313 102.5q37 18.5 66 51.5v62h-119q-49 0 -77 -18.5t-28 -50.5q0 -28 23 -45.5t58 -17.5q40 0 77 18.5zM212 607.5q-29 16.5 -46.5 45.5t-17.5 63q0 53 37.5 89t90.5 36q34 0 63.5 -16.5t46.5 -45t17 -63.5t-17 -63.5t-46.5 -45t-63.5 -16.5q-35 0 -64 16.5zM315.5 674
q16.5 17 16.5 42t-16.5 41.5t-39.5 16.5q-24 0 -40.5 -16.5t-16.5 -41.5t16.5 -42t40.5 -17q23 0 39.5 17z" />
    <glyph glyph-name="atilde" unicode="&#xe3;" horiz-adv-x="555" 
d="M91.5 29.5q-46.5 40.5 -46.5 112.5q0 74 57.5 116.5t161.5 42.5h115v8q0 63 -27.5 93t-84.5 30q-39 0 -75.5 -14.5t-65.5 -40.5l-64 73q42 40 96.5 62t112.5 22q110 0 166.5 -60t56.5 -175v-299h-84l-20 65q-36 -35 -80.5 -55.5t-90.5 -20.5q-81 0 -127.5 40.5z
M313 102.5q37 18.5 66 51.5v62h-119q-49 0 -77 -18.5t-28 -50.5q0 -28 23 -45.5t58 -17.5q40 0 77 18.5zM319.5 607.5q-17.5 6.5 -39.5 19.5q-26 15 -39.5 20.5t-31.5 5.5q-24 0 -45.5 -9t-48.5 -28v87q25 19 47 28.5t48 9.5q23 0 41 -6.5t41 -19.5t38 -19.5t32 -6.5
q27 0 48 9.5t47 27.5v-87q-22 -18 -45 -28t-52 -10q-23 0 -40.5 6.5z" />
    <glyph glyph-name="ae" unicode="&#xe6;" horiz-adv-x="912" 
d="M92.5 29.5q-47.5 40.5 -47.5 113.5q0 75 58 118.5t162 43.5h115v7q-1 62 -28.5 91t-84.5 29q-80 0 -140 -55l-65 73q42 40 95.5 62t112.5 22q62 0 105.5 -24.5t67.5 -69.5q34 44 82.5 69t105.5 25q73 0 126.5 -34t82 -96t28.5 -144v-35h-372q8 -60 49 -97t104 -37
q77 0 128 53l72 -67q-40 -42 -92.5 -65t-114.5 -23q-69 0 -122 26t-87 73q-41 -46 -95 -72.5t-114 -26.5q-84 0 -131.5 40.5zM714.5 403q-31.5 34 -86.5 34q-53 0 -87.5 -33.5t-43.5 -92.5h253q-4 58 -35.5 92zM321.5 105q40.5 23 73.5 62q-5 17 -11 53h-124q-49 0 -77 -19
t-28 -53q0 -30 23 -48t59 -18q44 0 84.5 23z" />
    <glyph glyph-name="b" unicode="b" horiz-adv-x="634" 
d="M248 7q-41 16 -74 45l-17 -52h-88v724l125 20v-279q33 33 75.5 51t87.5 18q67 0 119 -33t81.5 -94t29.5 -143q0 -80 -34 -142t-92 -96.5t-126 -34.5q-46 0 -87 16zM422.5 141.5q41.5 42.5 41.5 124.5q0 75 -36 116.5t-99 41.5q-41 0 -75.5 -20t-59.5 -54v-207
q52 -44 117 -44q70 0 111.5 42.5z" />
    <glyph glyph-name="c" unicode="c" horiz-adv-x="531" 
d="M171 22.5q-59 33.5 -91.5 95.5t-32.5 145q0 76 34 138t94 97.5t134 35.5q58 0 106.5 -22.5t81.5 -62.5l-72 -75q-23 26 -50 39t-62 13q-64 0 -103.5 -45t-39.5 -118q0 -74 40 -119.5t103 -45.5q67 0 118 54l71 -77q-36 -40 -85.5 -63t-108.5 -23q-78 0 -137 33.5z" />
    <glyph glyph-name="ccedilla" unicode="&#xe7;" horiz-adv-x="531" 
d="M350 -8q27 -35 27 -73q0 -55 -42 -85t-112 -30h-31v82h28q29 0 46.5 12t17.5 35q0 16 -6.5 29.5t-21.5 30.5q-96 16 -152.5 87.5t-56.5 182.5q0 76 34 138t94 97.5t134 35.5q58 0 106.5 -22.5t81.5 -62.5l-72 -75q-23 26 -50 39t-62 13q-64 0 -103.5 -45t-39.5 -118
q0 -74 40 -119.5t103 -45.5q67 0 118 54l71 -77q-62 -69 -152 -83z" />
    <glyph glyph-name="d" unicode="d" horiz-adv-x="633" 
d="M158 22q-52 33 -81.5 94.5t-29.5 143.5q0 81 34.5 143t93.5 96t130 34q35 0 70.5 -11.5t64.5 -31.5v234l125 20v-744h-88l-22 71q-35 -39 -81.5 -60.5t-96.5 -21.5q-67 0 -119 33zM380.5 120q34.5 20 59.5 54v211q-24 20 -54.5 31t-62.5 11q-70 0 -111 -43.5t-41 -125.5
q0 -75 35.5 -116.5t98.5 -41.5q41 0 75.5 20z" />
    <glyph glyph-name="eth" unicode="&#xf0;" horiz-adv-x="612" 
d="M171.5 22q-59.5 33 -93 92t-33.5 136q0 70 30.5 126.5t85 89t123.5 32.5q36 0 70.5 -10t63.5 -28q-22 61 -69 119l-151 -40v76l93 25q-43 40 -91 71l128 32q40 -27 85 -72l126 34v-77l-74 -19q103 -145 103 -327q0 -87 -31.5 -153.5t-90.5 -103t-139 -36.5
q-76 0 -135.5 33zM413.5 148q37.5 52 37.5 135q0 42 -5 68q-27 25 -61.5 39t-69.5 14q-69 0 -109 -41.5t-40 -112.5q0 -68 38.5 -111t101.5 -43q70 0 107.5 52z" />
    <glyph glyph-name="e" unicode="e" horiz-adv-x="580" 
d="M170.5 24.5q-59.5 35.5 -91.5 98t-32 142.5q0 76 32.5 137.5t90.5 96.5t130 35t126 -34t82.5 -96t28.5 -143v-34h-374q8 -60 49.5 -98t104.5 -38q78 0 129 53l72 -67q-85 -88 -207 -88q-81 0 -140.5 35.5zM384 404.5q-31 32.5 -87 32.5q-52 0 -86.5 -33t-45.5 -90h254
q-4 58 -35 90.5z" />
    <glyph glyph-name="eacute" unicode="&#xe9;" horiz-adv-x="580" 
d="M170.5 24.5q-59.5 35.5 -91.5 98t-32 142.5q0 76 32.5 137.5t90.5 96.5t130 35t126 -34t82.5 -96t28.5 -143v-34h-374q8 -60 49.5 -98t104.5 -38q78 0 129 53l72 -67q-85 -88 -207 -88q-81 0 -140.5 35.5zM384 404.5q-31 32.5 -87 32.5q-52 0 -86.5 -33t-45.5 -90h254
q-4 58 -35 90.5zM340 744h133l-146 -144h-120z" />
    <glyph glyph-name="ecircumflex" unicode="&#xea;" horiz-adv-x="580" 
d="M170.5 24.5q-59.5 35.5 -91.5 98t-32 142.5q0 76 32.5 137.5t90.5 96.5t130 35t126 -34t82.5 -96t28.5 -143v-34h-374q8 -60 49.5 -98t104.5 -38q78 0 129 53l72 -67q-85 -88 -207 -88q-81 0 -140.5 35.5zM384 404.5q-31 32.5 -87 32.5q-52 0 -86.5 -33t-45.5 -90h254
q-4 58 -35 90.5zM240 744h115l127 -144h-111l-74 78l-75 -78h-109z" />
    <glyph glyph-name="edieresis" unicode="&#xeb;" horiz-adv-x="580" 
d="M170.5 24.5q-59.5 35.5 -91.5 98t-32 142.5q0 76 32.5 137.5t90.5 96.5t130 35t126 -34t82.5 -96t28.5 -143v-34h-374q8 -60 49.5 -98t104.5 -38q78 0 129 53l72 -67q-85 -88 -207 -88q-81 0 -140.5 35.5zM384 404.5q-31 32.5 -87 32.5q-52 0 -86.5 -33t-45.5 -90h254
q-4 58 -35 90.5zM145.5 623.5q-19.5 18.5 -19.5 46.5q0 29 19.5 47.5t49.5 18.5t50 -18.5t20 -47.5q0 -28 -20 -46.5t-50 -18.5t-49.5 18.5zM351 623.5q-20 18.5 -20 46.5q0 29 20 47.5t50 18.5t50 -18.5t20 -47.5q0 -28 -20 -46.5t-50 -18.5t-50 18.5z" />
    <glyph glyph-name="egrave" unicode="&#xe8;" horiz-adv-x="580" 
d="M170.5 24.5q-59.5 35.5 -91.5 98t-32 142.5q0 76 32.5 137.5t90.5 96.5t130 35t126 -34t82.5 -96t28.5 -143v-34h-374q8 -60 49.5 -98t104.5 -38q78 0 129 53l72 -67q-85 -88 -207 -88q-81 0 -140.5 35.5zM384 404.5q-31 32.5 -87 32.5q-52 0 -86.5 -33t-45.5 -90h254
q-4 58 -35 90.5zM123 744h134l132 -144h-120z" />
    <glyph glyph-name="f" unicode="f" horiz-adv-x="433" 
d="M127 687.5q58 58.5 154 58.5q43 0 81.5 -15t68.5 -41l-54 -77q-37 30 -84 30t-73 -27.5t-26 -76.5v-16h207v-105h-207v-418h-125v528q0 101 58 159.5z" />
    <glyph glyph-name="g" unicode="g" horiz-adv-x="628" 
d="M153 -200.5q-59 23.5 -97 64.5l65 79q64 -62 162 -62q67 0 109.5 41.5t42.5 113.5v48q-33 -31 -74.5 -48.5t-85.5 -17.5q-67 0 -118.5 30.5t-81 87t-29.5 133.5q0 80 34 140t92.5 92.5t128.5 32.5q42 0 83 -15t72 -42l15 46h88v-488q0 -76 -34 -134.5t-95.5 -91.5
t-141.5 -33q-76 0 -135 23.5zM375.5 140.5q34.5 19.5 59.5 51.5v196q-24 20 -54 31t-62 11q-68 0 -109.5 -40.5t-41.5 -119.5q0 -70 35.5 -109.5t97.5 -39.5q40 0 74.5 19.5z" />
    <glyph glyph-name="h" unicode="h" horiz-adv-x="614" 
d="M194 744v-279q33 33 74 51t87 18q95 0 146 -61.5t51 -174.5v-298h-124v282q0 73 -24.5 107.5t-81.5 34.5q-36 0 -70 -20t-58 -56v-348h-125v724z" />
    <glyph glyph-name="i" unicode="i" horiz-adv-x="265" 
d="M70 523h125v-523h-125v523zM80 622q-21 19 -21 50t20.5 50.5t53.5 19.5t54 -19.5t21 -50.5q0 -30 -21 -49.5t-54 -19.5q-32 0 -53 19z" />
    <glyph glyph-name="dotlessi" unicode="&#x131;" horiz-adv-x="265" 
d="M70 523h125v-523h-125v523z" />
    <glyph glyph-name="iacute" unicode="&#xed;" horiz-adv-x="265" 
d="M70 523h125v-523h-125v523zM173 744h129l-118 -144h-115z" />
    <glyph glyph-name="icircumflex" unicode="&#xee;" horiz-adv-x="265" 
d="M70 523h125v-523h-125v523zM75 744h115l127 -144h-111l-74 78l-75 -78h-109z" />
    <glyph glyph-name="idieresis" unicode="&#xef;" horiz-adv-x="265" 
d="M70 523h125v-523h-125v523zM-19.5 623.5q-19.5 18.5 -19.5 46.5q0 29 19.5 47.5t49.5 18.5t50 -18.5t20 -47.5q0 -28 -20 -46.5t-50 -18.5t-49.5 18.5zM186 623.5q-20 18.5 -20 46.5q0 29 20 47.5t50 18.5t50 -18.5t20 -47.5q0 -28 -20 -46.5t-50 -18.5t-50 18.5z" />
    <glyph glyph-name="igrave" unicode="&#xec;" horiz-adv-x="265" 
d="M70 523h125v-523h-125v523zM-36 744h129l104 -144h-115z" />
    <glyph glyph-name="j" unicode="j" horiz-adv-x="265" 
d="M-18 -105q42 0 65 25.5t23 72.5v530h125v-525q0 -99 -49 -151.5t-141 -52.5h-42v101h19zM80 622q-21 19 -21 50t20.5 50.5t53.5 19.5t54 -19.5t21 -50.5q0 -30 -21 -49.5t-54 -19.5q-32 0 -53 19z" />
    <glyph glyph-name="uni0237" unicode="&#x237;" horiz-adv-x="265" 
d="M-18 -105q42 0 65 25.5t23 72.5v530h125v-525q0 -99 -49 -151.5t-141 -52.5h-42v101h19z" />
    <glyph glyph-name="k" unicode="k" horiz-adv-x="602" 
d="M191 744v-426h46q27 0 44.5 6.5t36 27.5t43.5 64l63 107h136l-94 -155q-37 -60 -71 -93l191 -275h-144l-148 216q-20 -4 -33 -4h-70v-212h-122v724z" />
    <glyph glyph-name="l" unicode="l" horiz-adv-x="318" 
d="M111 45.5q-48 52.5 -48 152.5v526l125 20v-548q0 -48 22 -73.5t64 -25.5h18v-104h-42q-91 0 -139 52.5z" />
    <glyph glyph-name="m" unicode="m" horiz-adv-x="915" 
d="M158 523l21 -70q72 81 163 81q108 0 152 -85q35 40 80 62.5t97 22.5q87 0 135 -58t48 -164v-312h-124v298q0 62 -22.5 94t-72.5 32q-32 0 -62 -18t-52 -50q3 -21 3 -44v-312h-123v298q0 126 -95 126q-33 0 -62 -20.5t-51 -56.5v-347h-124v523h89z" />
    <glyph glyph-name="n" unicode="n" horiz-adv-x="614" 
d="M158 523l22 -71q35 39 79.5 60.5t95.5 21.5q95 0 146 -61.5t51 -174.5v-298h-124v282q0 73 -24.5 107.5t-81.5 34.5q-36 0 -70 -20t-58 -56v-348h-125v523h89z" />
    <glyph glyph-name="ntilde" unicode="&#xf1;" horiz-adv-x="614" 
d="M158 523l22 -71q35 39 79.5 60.5t95.5 21.5q95 0 146 -61.5t51 -174.5v-298h-124v282q0 73 -24.5 107.5t-81.5 34.5q-36 0 -70 -20t-58 -56v-348h-125v523h89zM353.5 607.5q-17.5 6.5 -39.5 19.5q-26 15 -39.5 20.5t-31.5 5.5q-24 0 -45.5 -9t-48.5 -28v87q25 19 47 28.5
t48 9.5q23 0 41 -6.5t41 -19.5t38 -19.5t32 -6.5q27 0 48 9.5t47 27.5v-87q-22 -18 -45 -28t-52 -10q-23 0 -40.5 6.5z" />
    <glyph glyph-name="o" unicode="o" horiz-adv-x="626" 
d="M175.5 23.5q-60.5 34.5 -94.5 96.5t-34 143q0 78 34.5 139.5t95 96.5t135.5 35q76 0 137 -34.5t95.5 -96.5t34.5 -141q0 -80 -35 -142t-96 -96.5t-136 -34.5q-76 0 -136.5 34.5zM416 142q39 44 39 120q0 74 -38.5 119t-103.5 45t-103.5 -44.5t-38.5 -118.5
q0 -76 38 -120.5t103 -44.5t104 44z" />
    <glyph glyph-name="oacute" unicode="&#xf3;" horiz-adv-x="626" 
d="M175.5 23.5q-60.5 34.5 -94.5 96.5t-34 143q0 78 34.5 139.5t95 96.5t135.5 35q76 0 137 -34.5t95.5 -96.5t34.5 -141q0 -80 -35 -142t-96 -96.5t-136 -34.5q-76 0 -136.5 34.5zM416 142q39 44 39 120q0 74 -38.5 119t-103.5 45t-103.5 -44.5t-38.5 -118.5
q0 -76 38 -120.5t103 -44.5t104 44zM355 744h133l-146 -144h-120z" />
    <glyph glyph-name="ocircumflex" unicode="&#xf4;" horiz-adv-x="626" 
d="M175.5 23.5q-60.5 34.5 -94.5 96.5t-34 143q0 78 34.5 139.5t95 96.5t135.5 35q76 0 137 -34.5t95.5 -96.5t34.5 -141q0 -80 -35 -142t-96 -96.5t-136 -34.5q-76 0 -136.5 34.5zM416 142q39 44 39 120q0 74 -38.5 119t-103.5 45t-103.5 -44.5t-38.5 -118.5
q0 -76 38 -120.5t103 -44.5t104 44zM255 744h115l127 -144h-111l-74 78l-75 -78h-109z" />
    <glyph glyph-name="odieresis" unicode="&#xf6;" horiz-adv-x="626" 
d="M175.5 23.5q-60.5 34.5 -94.5 96.5t-34 143q0 78 34.5 139.5t95 96.5t135.5 35q76 0 137 -34.5t95.5 -96.5t34.5 -141q0 -80 -35 -142t-96 -96.5t-136 -34.5q-76 0 -136.5 34.5zM416 142q39 44 39 120q0 74 -38.5 119t-103.5 45t-103.5 -44.5t-38.5 -118.5
q0 -76 38 -120.5t103 -44.5t104 44zM160.5 623.5q-19.5 18.5 -19.5 46.5q0 29 19.5 47.5t49.5 18.5t50 -18.5t20 -47.5q0 -28 -20 -46.5t-50 -18.5t-49.5 18.5zM366 623.5q-20 18.5 -20 46.5q0 29 20 47.5t50 18.5t50 -18.5t20 -47.5q0 -28 -20 -46.5t-50 -18.5t-50 18.5z
" />
    <glyph glyph-name="ograve" unicode="&#xf2;" horiz-adv-x="626" 
d="M175.5 23.5q-60.5 34.5 -94.5 96.5t-34 143q0 78 34.5 139.5t95 96.5t135.5 35q76 0 137 -34.5t95.5 -96.5t34.5 -141q0 -80 -35 -142t-96 -96.5t-136 -34.5q-76 0 -136.5 34.5zM416 142q39 44 39 120q0 74 -38.5 119t-103.5 45t-103.5 -44.5t-38.5 -118.5
q0 -76 38 -120.5t103 -44.5t104 44zM137 744h134l132 -144h-120z" />
    <glyph glyph-name="oslash" unicode="&#xf8;" horiz-adv-x="626" 
d="M66 153.5q-19 49.5 -19 109.5q0 78 34.5 139.5t95 96.5t135.5 35q68 0 124 -28l46 63h103l-81 -112q36 -36 55.5 -86t19.5 -109q0 -80 -35 -142t-96 -96.5t-136 -34.5q-69 0 -124 29l-46 -65h-103l81 114q-35 37 -54 86.5zM313 426q-65 0 -103.5 -44.5t-38.5 -118.5
q0 -54 22 -93l176 242q-25 14 -56 14zM416 142q39 44 39 120q0 55 -23 93l-178 -244q28 -13 58 -13q65 0 104 44z" />
    <glyph glyph-name="otilde" unicode="&#xf5;" horiz-adv-x="626" 
d="M175.5 23.5q-60.5 34.5 -94.5 96.5t-34 143q0 78 34.5 139.5t95 96.5t135.5 35q76 0 137 -34.5t95.5 -96.5t34.5 -141q0 -80 -35 -142t-96 -96.5t-136 -34.5q-76 0 -136.5 34.5zM416 142q39 44 39 120q0 74 -38.5 119t-103.5 45t-103.5 -44.5t-38.5 -118.5
q0 -76 38 -120.5t103 -44.5t104 44zM354.5 607.5q-17.5 6.5 -39.5 19.5q-26 15 -39.5 20.5t-31.5 5.5q-24 0 -45.5 -9t-48.5 -28v87q25 19 47 28.5t48 9.5q23 0 41 -6.5t41 -19.5t38 -19.5t32 -6.5q27 0 48 9.5t47 27.5v-87q-22 -18 -45 -28t-52 -10q-23 0 -40.5 6.5z" />
    <glyph glyph-name="oe" unicode="&#x153;" horiz-adv-x="999" 
d="M175.5 23.5q-60.5 34.5 -94.5 96.5t-34 143q0 78 34.5 139.5t95 96.5t135.5 35q64 0 118.5 -29.5t88.5 -80.5q32 51 83.5 80.5t115.5 29.5q72 0 126 -34t82.5 -96t28.5 -143v-34h-374q8 -60 50 -97.5t105 -37.5q77 0 129 52l71 -67q-40 -42 -92.5 -65t-114.5 -23
q-70 0 -123.5 29t-87.5 81q-34 -52 -88 -81t-118 -29q-76 0 -136.5 34.5zM802.5 404.5q-30.5 32.5 -85.5 32.5q-54 0 -89 -32.5t-45 -90.5h254q-4 58 -34.5 90.5zM416 142.5q39 44.5 39 119.5q0 74 -38.5 119t-103.5 45t-104 -44.5t-39 -118.5q0 -75 38.5 -120t102.5 -45
q66 0 105 44.5z" />
    <glyph glyph-name="p" unicode="p" horiz-adv-x="634" 
d="M157 523l23 -70q34 38 80.5 59.5t96.5 21.5q67 0 119 -33t81.5 -94t29.5 -143q0 -81 -34.5 -143t-93.5 -96t-130 -34q-35 0 -70 11.5t-65 31.5v-235l-125 -20v744h88zM422 141q42 43 42 125q0 75 -36 116.5t-99 41.5q-41 0 -75.5 -20t-59.5 -54v-210q24 -20 54 -31
t62 -11q70 0 112 43z" />
    <glyph glyph-name="thorn" unicode="&#xfe;" horiz-adv-x="634" 
d="M194 744v-278q32 32 74.5 50t88.5 18q67 0 119 -33t81.5 -94t29.5 -143q0 -81 -34.5 -143t-93.5 -95.5t-130 -33.5q-35 0 -70 12.5t-65 34.5v-241l-125 -19v945zM422.5 141.5q41.5 42.5 41.5 124.5q0 75 -36 116.5t-99 41.5q-41 0 -75.5 -20t-59.5 -54v-207
q52 -44 117 -44q70 0 111.5 42.5z" />
    <glyph glyph-name="q" unicode="q" horiz-adv-x="634" 
d="M364.5 7.5q-42.5 -18.5 -87.5 -18.5q-67 0 -119 33t-81.5 95t-29.5 144q0 81 34.5 143t93.5 96t130 34q42 0 83.5 -15.5t73.5 -42.5l15 47h88v-724l-125 -20v279q-33 -32 -75.5 -50.5zM380.5 120q34.5 20 59.5 55v210q-25 20 -55.5 31.5t-62.5 11.5q-69 0 -110 -44
t-41 -126q0 -75 35.5 -116.5t98.5 -41.5q41 0 75.5 20z" />
    <glyph glyph-name="r" unicode="r" horiz-adv-x="423" 
d="M158 523l23 -74q77 83 193 83h14v-106h-21q-51 0 -97 -20.5t-76 -60.5v-345h-125v523h89z" />
    <glyph glyph-name="s" unicode="s" horiz-adv-x="507" 
d="M130 12.5q-59 22.5 -100 61.5l60 77q32 -29 77.5 -44.5t95.5 -15.5q90 0 90 54q0 28 -25.5 43.5t-84.5 26.5q-69 13 -110 32.5t-60 51.5t-19 83q0 43 24.5 78t70.5 54.5t106 19.5q63 0 115.5 -21.5t90.5 -60.5l-66 -71q-29 26 -65 39.5t-75 13.5q-42 0 -64 -13t-22 -38
q0 -19 10.5 -30.5t34 -19.5t69.5 -17q96 -19 141 -58.5t45 -108.5q0 -73 -54 -116t-154 -43q-72 0 -131 22.5z" />
    <glyph glyph-name="scaron" unicode="&#x161;" horiz-adv-x="507" 
d="M130 12.5q-59 22.5 -100 61.5l60 77q32 -29 77.5 -44.5t95.5 -15.5q90 0 90 54q0 28 -25.5 43.5t-84.5 26.5q-69 13 -110 32.5t-60 51.5t-19 83q0 43 24.5 78t70.5 54.5t106 19.5q63 0 115.5 -21.5t90.5 -60.5l-66 -71q-29 26 -65 39.5t-75 13.5q-42 0 -64 -13t-22 -38
q0 -19 10.5 -30.5t34 -19.5t69.5 -17q96 -19 141 -58.5t45 -108.5q0 -73 -54 -116t-154 -43q-72 0 -131 22.5zM72 744h111l74 -77l74 77h110l-127 -144h-115z" />
    <glyph glyph-name="germandbls" unicode="&#xdf;" horiz-adv-x="668" 
d="M335 3q-47 14 -84 43l47 83q53 -36 120 -36q44 0 69 18t25 50q0 26 -13 43t-28.5 25t-53.5 24q-7 3 -43 18t-54 39.5t-18 59.5q0 28 13.5 50.5t38.5 49.5q24 27 36 46t12 42q0 39 -23.5 58.5t-66.5 19.5q-57 0 -88.5 -40t-31.5 -107v-489h-123v477q0 82 30.5 142.5
t87 92.5t131.5 32q65 0 111.5 -21t70 -56.5t23.5 -78.5q0 -35 -16 -62t-45 -58q-22 -22 -33 -38t-11 -32q0 -24 17.5 -37.5t54.5 -29.5q5 -2 13.5 -5.5t19.5 -9.5q50 -25 80 -60.5t30 -98.5q0 -75 -51.5 -121.5t-135.5 -46.5q-64 0 -111 14z" />
    <glyph glyph-name="t" unicode="t" horiz-adv-x="433" 
d="M121.5 45.5q-52.5 56.5 -52.5 155.5v450l125 19v-147h198v-105h-198v-217q0 -48 22.5 -75t62.5 -27q27 0 45 7t36 21l59 -78q-65 -60 -150 -60q-95 0 -147.5 56.5z" />
    <glyph glyph-name="u" unicode="u" horiz-adv-x="611" 
d="M113 50.5q-50 61.5 -50 174.5v298h124v-282q0 -74 24 -107.5t83 -33.5q35 0 67.5 20t56.5 56v347h124v-523h-87l-23 72q-73 -83 -174 -83q-95 0 -145 61.5z" />
    <glyph glyph-name="uacute" unicode="&#xfa;" horiz-adv-x="611" 
d="M113 50.5q-50 61.5 -50 174.5v298h124v-282q0 -74 24 -107.5t83 -33.5q35 0 67.5 20t56.5 56v347h124v-523h-87l-23 72q-73 -83 -174 -83q-95 0 -145 61.5zM348 744h133l-146 -144h-120z" />
    <glyph glyph-name="ucircumflex" unicode="&#xfb;" horiz-adv-x="611" 
d="M113 50.5q-50 61.5 -50 174.5v298h124v-282q0 -74 24 -107.5t83 -33.5q35 0 67.5 20t56.5 56v347h124v-523h-87l-23 72q-73 -83 -174 -83q-95 0 -145 61.5zM248 744h115l127 -144h-111l-74 78l-75 -78h-109z" />
    <glyph glyph-name="udieresis" unicode="&#xfc;" horiz-adv-x="611" 
d="M113 50.5q-50 61.5 -50 174.5v298h124v-282q0 -74 24 -107.5t83 -33.5q35 0 67.5 20t56.5 56v347h124v-523h-87l-23 72q-73 -83 -174 -83q-95 0 -145 61.5zM153.5 623.5q-19.5 18.5 -19.5 46.5q0 29 19.5 47.5t49.5 18.5t50 -18.5t20 -47.5q0 -28 -20 -46.5t-50 -18.5
t-49.5 18.5zM359 623.5q-20 18.5 -20 46.5q0 29 20 47.5t50 18.5t50 -18.5t20 -47.5q0 -28 -20 -46.5t-50 -18.5t-50 18.5z" />
    <glyph glyph-name="ugrave" unicode="&#xf9;" horiz-adv-x="611" 
d="M113 50.5q-50 61.5 -50 174.5v298h124v-282q0 -74 24 -107.5t83 -33.5q35 0 67.5 20t56.5 56v347h124v-523h-87l-23 72q-73 -83 -174 -83q-95 0 -145 61.5zM130 744h134l132 -144h-120z" />
    <glyph glyph-name="v" unicode="v" horiz-adv-x="590" 
d="M15 523h137l144 -388l145 388h135l-217 -523h-130z" />
    <glyph glyph-name="w" unicode="w" horiz-adv-x="830" 
d="M22 523h131l91 -375l113 341h122l111 -341l94 375h126l-157 -523h-126l-114 344l-112 -344h-123z" />
    <glyph glyph-name="wacute" unicode="&#x1e83;" horiz-adv-x="830" 
d="M22 523h131l91 -375l113 341h122l111 -341l94 375h126l-157 -523h-126l-114 344l-112 -344h-123zM457 744h133l-146 -144h-120z" />
    <glyph glyph-name="wcircumflex" unicode="&#x175;" horiz-adv-x="830" 
d="M22 523h131l91 -375l113 341h122l111 -341l94 375h126l-157 -523h-126l-114 344l-112 -344h-123zM358 744h115l127 -144h-111l-74 78l-75 -78h-109z" />
    <glyph glyph-name="wdieresis" unicode="&#x1e85;" horiz-adv-x="830" 
d="M22 523h131l91 -375l113 341h122l111 -341l94 375h126l-157 -523h-126l-114 344l-112 -344h-123zM262.5 623.5q-19.5 18.5 -19.5 46.5q0 29 19.5 47.5t49.5 18.5t50 -18.5t20 -47.5q0 -28 -20 -46.5t-50 -18.5t-49.5 18.5zM468 623.5q-20 18.5 -20 46.5q0 29 20 47.5
t50 18.5t50 -18.5t20 -47.5q0 -28 -20 -46.5t-50 -18.5t-50 18.5z" />
    <glyph glyph-name="wgrave" unicode="&#x1e81;" horiz-adv-x="830" 
d="M22 523h131l91 -375l113 341h122l111 -341l94 375h126l-157 -523h-126l-114 344l-112 -344h-123zM240 744h134l132 -144h-120z" />
    <glyph glyph-name="x" unicode="x" horiz-adv-x="584" 
d="M219 272l-187 251h143l121 -167l116 167h139l-186 -251l202 -272h-144l-134 188l-132 -188h-139z" />
    <glyph glyph-name="y" unicode="y" horiz-adv-x="580" 
d="M101 -98q86 0 129 90l12 30l-231 501h138l150 -356l135 356h132l-223 -548q-37 -90 -92.5 -135.5t-138.5 -45.5h-42v108h31z" />
    <glyph glyph-name="yacute" unicode="&#xfd;" horiz-adv-x="580" 
d="M101 -98q86 0 129 90l12 30l-231 501h138l150 -356l135 356h132l-223 -548q-37 -90 -92.5 -135.5t-138.5 -45.5h-42v108h31zM333 744h133l-146 -144h-120z" />
    <glyph glyph-name="ycircumflex" unicode="&#x177;" horiz-adv-x="580" 
d="M101 -98q86 0 129 90l12 30l-231 501h138l150 -356l135 356h132l-223 -548q-37 -90 -92.5 -135.5t-138.5 -45.5h-42v108h31zM233 744h115l127 -144h-111l-74 78l-75 -78h-109z" />
    <glyph glyph-name="ydieresis" unicode="&#xff;" horiz-adv-x="580" 
d="M101 -98q86 0 129 90l12 30l-231 501h138l150 -356l135 356h132l-223 -548q-37 -90 -92.5 -135.5t-138.5 -45.5h-42v108h31zM137.5 623.5q-19.5 18.5 -19.5 46.5q0 29 19.5 47.5t49.5 18.5t50 -18.5t20 -47.5q0 -28 -20 -46.5t-50 -18.5t-49.5 18.5zM343 623.5
q-20 18.5 -20 46.5q0 29 20 47.5t50 18.5t50 -18.5t20 -47.5q0 -28 -20 -46.5t-50 -18.5t-50 18.5z" />
    <glyph glyph-name="ygrave" unicode="&#x1ef3;" horiz-adv-x="580" 
d="M101 -98q86 0 129 90l12 30l-231 501h138l150 -356l135 356h132l-223 -548q-37 -90 -92.5 -135.5t-138.5 -45.5h-42v108h31zM115 744h134l132 -144h-120z" />
    <glyph glyph-name="z" unicode="z" horiz-adv-x="550" 
d="M55 82l284 339h-278v102h430v-81l-281 -339h288v-103h-443v82z" />
    <glyph glyph-name="zcaron" unicode="&#x17e;" horiz-adv-x="550" 
d="M55 82l284 339h-278v102h430v-81l-281 -339h288v-103h-443v82zM85 744h111l74 -77l74 77h110l-127 -144h-115z" />
    <glyph glyph-name="ordfeminine" unicode="&#xaa;" horiz-adv-x="438" 
d="M69.5 299q-36.5 31 -36.5 87q0 57 45 89.5t121 32.5h89v6q-2 84 -81 84q-28 0 -56 -10.5t-50 -30.5l-55 63q32 31 75 48t89 17q88 0 134 -47t46 -136v-226h-76l-16 47q-28 -25 -61.5 -40t-66.5 -15q-64 0 -100.5 31zM240 361q26 12 48 34v44h-88q-33 0 -51.5 -12.5
t-18.5 -34.5q0 -19 16 -31t41 -12q27 0 53 12z" />
    <glyph glyph-name="ordmasculine" unicode="&#xba;" horiz-adv-x="485" 
d="M135.5 294.5q-47.5 26.5 -74.5 74t-27 108.5q0 60 27 107.5t74.5 74t106.5 26.5q60 0 107 -26t74 -73.5t27 -108.5q0 -60 -27 -108t-74.5 -74.5t-106.5 -26.5t-106.5 26.5zM313.5 396q26.5 30 26.5 81t-26 81t-71 30t-71.5 -30t-26.5 -81q0 -50 26.5 -80.5t69.5 -30.5
q46 0 72.5 30z" />
    <glyph glyph-name="uni03BC" unicode="&#x3bc;" horiz-adv-x="616" 
d="M193 523v-282q0 -74 24 -107.5t82 -33.5q36 0 68 19.5t56 55.5v348h125v-523h-88l-23 72q-35 -39 -79 -61t-94 -22q-46 0 -71 24v-215l-124 -19v744h124z" />
    <glyph glyph-name="zero" unicode="0" horiz-adv-x="637" 
d="M177.5 31q-60.5 42 -93.5 119.5t-33 179.5q0 98 33.5 174.5t94.5 119.5t140 43q80 0 140.5 -42t93.5 -118.5t33 -176.5q0 -102 -33 -179t-93.5 -119.5t-140.5 -42.5q-81 0 -141.5 42zM422.5 168.5q35.5 59.5 35.5 161.5q0 100 -34.5 159t-102.5 59t-105 -60t-37 -158
q0 -101 35.5 -161t104.5 -60q68 0 103.5 59.5z" />
    <glyph glyph-name="one" unicode="1" horiz-adv-x="407" 
d="M191 535l-154 -41v103l184 60h95v-657h-125v535z" />
    <glyph glyph-name="two" unicode="2" horiz-adv-x="584" 
d="M295 310q51 49 73.5 81t22.5 63q0 46 -28.5 70.5t-84.5 24.5q-41 0 -82 -20t-77 -57l-76 86q107 109 248 109q68 0 120 -24t80.5 -68t28.5 -101q0 -54 -26.5 -102.5t-80.5 -99.5l-165 -159h274v-113h-463v83z" />
    <glyph glyph-name="three" unicode="3" horiz-adv-x="567" 
d="M135.5 14q-61.5 25 -101.5 67l69 80q31 -28 72 -44t89 -16q58 0 93.5 27.5t35.5 71.5q0 45 -34 70t-96 25h-93v76l172 175h-288v111h442v-85l-181 -182q94 -8 150.5 -59.5t56.5 -133.5q0 -63 -31.5 -110t-88.5 -72.5t-133 -25.5q-72 0 -133.5 25z" />
    <glyph glyph-name="four" unicode="4" horiz-adv-x="605" 
d="M363 157h-323v93l323 407h114v-393h90v-107h-90v-157h-114v157zM363 264v235l-185 -235h185z" />
    <glyph glyph-name="five" unicode="5" horiz-adv-x="547" 
d="M129.5 14q-59.5 25 -99.5 68l72 78q62 -59 152 -59q56 0 89.5 27t33.5 73q0 48 -30 73t-88 25h-186v76l57 282h333v-111h-253l-24 -139h78q116 0 179 -52t63 -151q0 -65 -30 -113.5t-86 -75t-131 -26.5q-70 0 -129.5 25z" />
    <glyph glyph-name="six" unicode="6" horiz-adv-x="594" 
d="M124 71.5q-69 82.5 -69 230.5q0 109 34.5 191.5t98 128t149.5 45.5q126 0 205 -91l-71 -77q-31 30 -61.5 43.5t-67.5 13.5q-67 0 -111 -47.5t-54 -133.5q34 17 74.5 26.5t81.5 9.5q65 0 113.5 -25.5t74.5 -71.5t26 -104q0 -63 -29 -113.5t-82 -79t-123 -28.5
q-120 0 -189 82.5zM401 127q32 29 32 79q0 47 -31.5 75.5t-88.5 28.5q-38 0 -74.5 -8t-65.5 -22q3 -89 39 -135.5t100 -46.5q57 0 89 29z" />
    <glyph glyph-name="seven" unicode="7" horiz-adv-x="559" 
d="M373 543h-330v114h477v-67l-255 -590h-134z" />
    <glyph glyph-name="eight" unicode="8" horiz-adv-x="607" 
d="M170.5 12q-57.5 23 -89 64.5t-31.5 96.5q0 50 29 94t80 76q-87 53 -87 148q0 51 30.5 91t83 62.5t118.5 22.5q70 0 123.5 -22t82.5 -62t29 -93q0 -42 -23.5 -80t-66.5 -68q108 -60 108 -165q0 -55 -32.5 -97.5t-90 -66.5t-130.5 -24q-76 0 -133.5 23zM406 425
q18 26 18 54q0 39 -32.5 62.5t-85.5 23.5q-52 0 -85 -21.5t-33 -55.5q0 -37 33 -59.5t104 -41.5q18 -4 27 -7q36 19 54 45zM398.5 120q36.5 24 36.5 65q0 44 -38 67.5t-116 43.5q-16 3 -25 7q-85 -42 -85 -112q0 -42 38 -68.5t97 -26.5q56 0 92.5 24z" />
    <glyph glyph-name="nine" unicode="9" horiz-adv-x="596" 
d="M53 80l68 78q33 -30 65 -43.5t72 -13.5q73 0 114.5 48t49.5 138q-34 -18 -75.5 -27.5t-82.5 -9.5q-65 0 -114 25.5t-75 71.5t-26 104q0 62 30 111t83.5 77t121.5 28q121 0 189.5 -82t68.5 -230q0 -114 -33 -196t-96 -126t-150 -44q-128 0 -210 91zM424 381
q-3 85 -39.5 131t-98.5 46q-56 0 -89 -28.5t-33 -76.5q0 -49 30.5 -75.5t88.5 -26.5q79 0 141 30z" />
    <glyph glyph-name="zero.zero" horiz-adv-x="637" 
d="M177.5 31q-60.5 42 -93.5 119.5t-33 179.5q0 98 33.5 174.5t94.5 119.5t140 43q80 0 140.5 -42t93.5 -118.5t33 -176.5q0 -101 -33.5 -178.5t-94 -120t-139.5 -42.5q-81 0 -141.5 42zM321 559q-73 0 -112 -63t-39 -166q0 -58 11 -99l237 284q-36 44 -97 44zM429 161
q39 63 39 169q0 51 -11 95l-238 -282q39 -45 100 -45q71 0 110 63z" />
    <glyph glyph-name="zero.tf" 
d="M157 31.5q-58 42.5 -89.5 119.5t-31.5 179q0 98 32 174.5t90 119.5t135 43t135.5 -42t90 -118.5t31.5 -176.5q0 -101 -32 -178.5t-90 -120t-135 -42.5q-78 0 -136 42.5zM388.5 168.5q32.5 59.5 32.5 161.5q0 100 -31 159.5t-95 59.5t-97 -60t-33 -159q0 -102 32 -161.5
t96 -59.5q63 0 95.5 59.5z" />
    <glyph glyph-name="one.tf" 
d="M287 535l-175 -47v100l204 69h96v-657h-125v535z" />
    <glyph glyph-name="two.tf" 
d="M294 310q51 49 73.5 81t22.5 63q0 46 -28.5 70.5t-84.5 24.5q-41 0 -82 -20t-77 -57l-76 86q107 109 248 109q68 0 120 -24t80.5 -68t28.5 -101q0 -54 -26.5 -102.5t-80.5 -99.5l-165 -159h274v-113h-463v83z" />
    <glyph glyph-name="three.tf" 
d="M144.5 14q-61.5 25 -102.5 67l69 80q66 -60 162 -60q57 0 92.5 27.5t35.5 71.5q0 45 -34 70t-96 25h-92v76l173 175h-289v111h441v-84l-179 -184q93 -8 149 -59t56 -133q0 -63 -31.5 -110t-88.5 -72.5t-133 -25.5q-71 0 -132.5 25z" />
    <glyph glyph-name="four.tf" 
d="M354 157h-322v88l322 412h115v-394h91v-106h-91v-157h-115v157zM354 263v245l-192 -245h192z" />
    <glyph glyph-name="five.tf" 
d="M150.5 14q-59.5 25 -99.5 68l72 78q62 -59 152 -59q56 0 89.5 27.5t33.5 73.5q0 48 -30 73t-88 25h-186v75l56 282h334v-111h-253l-24 -140h77q116 0 179.5 -52t63.5 -150q0 -65 -30 -113.5t-86 -75t-131 -26.5q-70 0 -129.5 25z" />
    <glyph glyph-name="six.tf" 
d="M173.5 26q-58.5 37 -90 107.5t-31.5 168.5q0 108 34.5 191t98.5 128.5t149 45.5q125 0 206 -91l-72 -77q-30 30 -61 43.5t-67 13.5q-68 0 -112 -47.5t-54 -133.5q35 17 75.5 26.5t80.5 9.5q65 0 114 -25.5t75 -71.5t26 -104q0 -63 -29 -113t-82.5 -79t-122.5 -29
q-79 0 -137.5 37zM398 127q32 29 32 79q0 47 -31.5 75.5t-88.5 28.5q-38 0 -74.5 -8t-64.5 -22q2 -88 38.5 -135t99.5 -47q57 0 89 29z" />
    <glyph glyph-name="seven.tf" 
d="M381 543h-330v114h477v-67l-255 -590h-134z" />
    <glyph glyph-name="eight.tf" 
d="M160.5 12q-57.5 23 -89 65t-31.5 97q0 50 29 93.5t81 76.5q-88 53 -88 147q0 51 30.5 91t83 62.5t118.5 22.5q70 0 123 -22t82 -62t29 -93q0 -42 -23.5 -80t-66.5 -67q108 -60 108 -165q0 -55 -32 -98t-89.5 -67t-130.5 -24q-76 0 -133.5 23zM397 425.5q18 26.5 18 54.5
q0 40 -33 63t-87 23q-52 0 -85 -21.5t-33 -55.5q0 -39 34.5 -61.5t109.5 -41.5l23 -6q35 19 53 45.5zM389 118.5q37 24.5 37 66.5q0 43 -37.5 67.5t-112.5 42.5l-33 9q-84 -43 -84 -113q0 -43 38.5 -70t97.5 -27q57 0 94 24.5z" />
    <glyph glyph-name="nine.tf" 
d="M47 80l68 78q33 -30 65 -43.5t72 -13.5q73 0 114.5 48t49.5 138q-34 -18 -75.5 -27.5t-82.5 -9.5q-65 0 -114 25.5t-75 71.5t-26 104q0 62 30 111t83.5 77t121.5 28q121 0 189.5 -82t68.5 -230q0 -114 -33 -196t-96 -126t-150 -44q-128 0 -210 91zM418 381
q-3 85 -39.5 131t-98.5 46q-56 0 -89 -28.5t-33 -76.5q0 -49 30.5 -75.5t88.5 -26.5q79 0 141 30z" />
    <glyph glyph-name="zero.tf.zero" 
d="M157 31q-58 42 -89.5 119.5t-31.5 179.5q0 98 32 174.5t90 119.5t135 43q76 0 134.5 -42.5t90 -119t31.5 -175.5q0 -101 -31.5 -178.5t-89.5 -120t-135 -42.5q-78 0 -136 42zM295 553q-70 0 -106.5 -61t-36.5 -162q0 -49 9 -90l227 268q-34 45 -93 45zM397.5 165
q35.5 61 35.5 165q0 48 -9 87l-227 -266q36 -47 96 -47q69 0 104.5 61z" />
    <glyph glyph-name="zero.subs" horiz-adv-x="470" 
d="M105.5 -30.5q-48.5 54.5 -48.5 146.5q0 59 22.5 104.5t62.5 70.5t93 25q80 0 129.5 -55t49.5 -145q0 -91 -49 -146t-130 -55t-129.5 54.5zM294.5 34.5q19.5 29.5 19.5 81.5q0 51 -18.5 80.5t-58.5 29.5q-41 0 -61 -29.5t-20 -80.5t19.5 -81t59.5 -30t59.5 29.5z" />
    <glyph glyph-name="one.subs" horiz-adv-x="366" 
d="M165 221l-95 -23v75l117 37h73v-387h-95v298z" />
    <glyph glyph-name="two.subs" horiz-adv-x="444" 
d="M213 109q35 30 47.5 43.5t12.5 29.5q0 44 -63 44q-24 0 -50 -11t-50 -32l-53 67q33 31 75 49t89 18q69 0 110.5 -33t41.5 -87q0 -33 -16.5 -60t-51.5 -55l-91 -74h158v-85h-304v63z" />
    <glyph glyph-name="three.subs" horiz-adv-x="445" 
d="M127 -68.5q-39 16.5 -65 42.5l54 58q42 -35 93 -35q33 0 53.5 12.5t20.5 33.5q0 20 -18 31.5t-49 11.5h-69v58l98 83h-170v82h284v-60l-107 -95q59 -5 94 -35t35 -78q0 -59 -45 -92.5t-122 -33.5q-48 0 -87 16.5z" />
    <glyph glyph-name="four.subs" horiz-adv-x="456" 
d="M260 9h-207v61l207 240h86v-223h55v-78h-55v-86h-86v86zM260 87v119l-104 -119h104z" />
    <glyph glyph-name="five.subs" horiz-adv-x="430" 
d="M116 -69q-38 16 -63 43l56 57q19 -17 40 -25t49 -8q31 0 50 12.5t19 34.5q0 21 -16.5 32t-47.5 11h-122v58l33 163h224v-83h-163l-11 -62h46q74 0 115 -31t41 -87q0 -61 -44 -96t-121 -35q-47 0 -85 16z" />
    <glyph glyph-name="six.subs" horiz-adv-x="446" 
d="M107 -36q-44 49 -44 138q0 96 51 155t137 59q44 0 79 -15t59 -42l-51 -57q-33 32 -82 32q-39 0 -65 -21.5t-35 -61.5q46 18 94 18q64 0 102 -32.5t38 -86.5q0 -59 -43.5 -97t-114.5 -38q-81 0 -125 49zM285.5 9q18.5 13 18.5 38q0 21 -18.5 34t-50.5 13q-49 0 -82 -13
q3 -42 23.5 -63.5t55.5 -21.5t53.5 13z" />
    <glyph glyph-name="seven.subs" horiz-adv-x="428" 
d="M261 224h-196v86h306v-45l-152 -342h-99z" />
    <glyph glyph-name="eight.subs" horiz-adv-x="471" 
d="M117 -55q-45 30 -45 80q0 28 17 53t47 44q-51 32 -51 86q0 48 43 78t108 30q68 0 109.5 -29t41.5 -77q0 -46 -51 -83q64 -37 64 -98q0 -51 -46 -82.5t-117 -31.5q-75 0 -120 30zM294.5 174.5q9.5 12.5 9.5 26.5q0 19 -18.5 30t-48.5 11q-29 0 -48 -10t-19 -26
q0 -19 20.5 -30.5t63.5 -20.5l12 -2q19 9 28.5 21.5zM290 3.5q22 11.5 22 32.5q0 22 -20.5 32t-70.5 22l-17 4q-45 -22 -45 -55q0 -21 21.5 -34t54.5 -13t55 11.5z" />
    <glyph glyph-name="nine.subs" horiz-adv-x="436" 
d="M113 -70q-36 15 -60 42l49 58q19 -18 39 -25t47 -7q41 0 66 22t32 63q-44 -19 -94 -19q-64 0 -102 33.5t-38 86.5q0 57 44 94.5t113 37.5q80 0 124.5 -50t44.5 -137q0 -100 -49.5 -157t-136.5 -57q-43 0 -79 15zM289 151q-3 40 -24 62t-56 22q-32 0 -51 -13t-19 -36
q0 -47 68 -47q47 0 82 12z" />
    <glyph glyph-name="zero.dnom" horiz-adv-x="470" 
d="M105.5 46.5q-48.5 54.5 -48.5 146.5q0 59 22.5 104.5t62.5 70.5t93 25q80 0 129.5 -55t49.5 -145q0 -91 -49 -146t-130 -55t-129.5 54.5zM294.5 111.5q19.5 29.5 19.5 81.5q0 51 -18.5 80.5t-58.5 29.5q-41 0 -61 -29.5t-20 -80.5t19.5 -81t59.5 -30t59.5 29.5z" />
    <glyph glyph-name="one.dnom" horiz-adv-x="366" 
d="M165 298l-95 -23v75l117 37h73v-387h-95v298z" />
    <glyph glyph-name="two.dnom" horiz-adv-x="444" 
d="M213 186q35 30 47.5 43.5t12.5 29.5q0 44 -63 44q-24 0 -50 -11t-50 -32l-53 67q33 31 75 49t89 18q69 0 110.5 -33t41.5 -87q0 -33 -16.5 -60t-51.5 -55l-91 -74h158v-85h-304v63z" />
    <glyph glyph-name="three.dnom" horiz-adv-x="445" 
d="M127 8.5q-39 16.5 -65 42.5l54 58q42 -35 93 -35q33 0 53.5 12.5t20.5 33.5q0 20 -18 31.5t-49 11.5h-69v58l98 83h-170v82h284v-60l-107 -95q59 -5 94 -35t35 -78q0 -59 -45 -92.5t-122 -33.5q-48 0 -87 16.5z" />
    <glyph glyph-name="four.dnom" horiz-adv-x="456" 
d="M260 86h-207v61l207 240h86v-223h55v-78h-55v-86h-86v86zM260 164v119l-104 -119h104z" />
    <glyph glyph-name="five.dnom" horiz-adv-x="430" 
d="M116 8q-38 16 -63 43l56 57q19 -17 40 -25t49 -8q31 0 50 12.5t19 34.5q0 21 -16.5 32t-47.5 11h-122v58l33 163h224v-83h-163l-11 -62h46q74 0 115 -31t41 -87q0 -61 -44 -96t-121 -35q-47 0 -85 16z" />
    <glyph glyph-name="six.dnom" horiz-adv-x="446" 
d="M107 41q-44 49 -44 138q0 96 51 155t137 59q44 0 79 -15t59 -42l-51 -57q-33 32 -82 32q-39 0 -65 -21.5t-35 -61.5q46 18 94 18q64 0 102 -32.5t38 -86.5q0 -59 -43.5 -97t-114.5 -38q-81 0 -125 49zM285.5 86q18.5 13 18.5 38q0 21 -18.5 34t-50.5 13q-49 0 -82 -13
q3 -42 23.5 -63.5t55.5 -21.5t53.5 13z" />
    <glyph glyph-name="seven.dnom" horiz-adv-x="428" 
d="M261 301h-196v86h306v-45l-152 -342h-99z" />
    <glyph glyph-name="eight.dnom" horiz-adv-x="471" 
d="M117 22q-45 30 -45 80q0 28 17 53t47 44q-51 32 -51 86q0 48 43 78t108 30q68 0 109.5 -29t41.5 -77q0 -46 -51 -83q64 -37 64 -98q0 -51 -46 -82.5t-117 -31.5q-75 0 -120 30zM294.5 251.5q9.5 12.5 9.5 26.5q0 19 -18.5 30t-48.5 11q-29 0 -48 -10t-19 -26
q0 -19 20.5 -30.5t63.5 -20.5l12 -2q19 9 28.5 21.5zM290 80.5q22 11.5 22 32.5q0 22 -20.5 32t-70.5 22l-17 4q-45 -22 -45 -55q0 -21 21.5 -34t54.5 -13t55 11.5z" />
    <glyph glyph-name="nine.dnom" horiz-adv-x="436" 
d="M113 7q-36 15 -60 42l49 58q19 -18 39 -25t47 -7q41 0 66 22t32 63q-44 -19 -94 -19q-64 0 -102 33.5t-38 86.5q0 57 44 94.5t113 37.5q80 0 124.5 -50t44.5 -137q0 -100 -49.5 -157t-136.5 -57q-43 0 -79 15zM289 228q-3 40 -24 62t-56 22q-32 0 -51 -13t-19 -36
q0 -47 68 -47q47 0 82 12z" />
    <glyph glyph-name="zero.numr" horiz-adv-x="470" 
d="M105.5 315.5q-48.5 54.5 -48.5 146.5q0 59 22.5 104.5t62.5 70.5t93 25q80 0 129.5 -55t49.5 -145q0 -91 -49 -146t-130 -55t-129.5 54.5zM294.5 380.5q19.5 29.5 19.5 81.5q0 51 -18.5 80.5t-58.5 29.5q-41 0 -61 -29.5t-20 -80.5t19.5 -81t59.5 -30t59.5 29.5z" />
    <glyph glyph-name="one.numr" horiz-adv-x="366" 
d="M165 567l-95 -23v75l117 37h73v-387h-95v298z" />
    <glyph glyph-name="two.numr" horiz-adv-x="444" 
d="M213 455q35 30 47.5 43.5t12.5 29.5q0 44 -63 44q-24 0 -50 -11t-50 -32l-53 67q33 31 75 49t89 18q69 0 110.5 -33t41.5 -87q0 -33 -16.5 -60t-51.5 -55l-91 -74h158v-85h-304v63z" />
    <glyph glyph-name="three.numr" horiz-adv-x="445" 
d="M127 277.5q-39 16.5 -65 42.5l54 58q42 -35 93 -35q33 0 53.5 12.5t20.5 33.5q0 20 -18 31.5t-49 11.5h-69v58l98 83h-170v82h284v-60l-107 -95q59 -5 94 -35t35 -78q0 -59 -45 -92.5t-122 -33.5q-48 0 -87 16.5z" />
    <glyph glyph-name="four.numr" horiz-adv-x="456" 
d="M260 355h-207v61l207 240h86v-223h55v-78h-55v-86h-86v86zM260 433v119l-104 -119h104z" />
    <glyph glyph-name="five.numr" horiz-adv-x="430" 
d="M116 277q-38 16 -63 43l56 57q19 -17 40 -25t49 -8q31 0 50 12.5t19 34.5q0 21 -16.5 32t-47.5 11h-122v58l33 163h224v-83h-163l-11 -62h46q74 0 115 -31t41 -87q0 -61 -44 -96t-121 -35q-47 0 -85 16z" />
    <glyph glyph-name="six.numr" horiz-adv-x="446" 
d="M107 310q-44 49 -44 138q0 96 51 155t137 59q44 0 79 -15t59 -42l-51 -57q-33 32 -82 32q-39 0 -65 -21.5t-35 -61.5q46 18 94 18q64 0 102 -32.5t38 -86.5q0 -59 -43.5 -97t-114.5 -38q-81 0 -125 49zM285.5 355q18.5 13 18.5 38q0 21 -18.5 34t-50.5 13q-49 0 -82 -13
q3 -42 23.5 -63.5t55.5 -21.5t53.5 13z" />
    <glyph glyph-name="seven.numr" horiz-adv-x="428" 
d="M261 570h-196v86h306v-45l-152 -342h-99z" />
    <glyph glyph-name="eight.numr" horiz-adv-x="471" 
d="M117 291q-45 30 -45 80q0 28 17 53t47 44q-51 32 -51 86q0 48 43 78t108 30q68 0 109.5 -29t41.5 -77q0 -46 -51 -83q64 -37 64 -98q0 -51 -46 -82.5t-117 -31.5q-75 0 -120 30zM294.5 520.5q9.5 12.5 9.5 26.5q0 19 -18.5 30t-48.5 11q-29 0 -48 -10t-19 -26
q0 -19 20.5 -30.5t63.5 -20.5l12 -2q19 9 28.5 21.5zM290 349.5q22 11.5 22 32.5q0 22 -20.5 32t-70.5 22l-17 4q-45 -22 -45 -55q0 -21 21.5 -34t54.5 -13t55 11.5z" />
    <glyph glyph-name="nine.numr" horiz-adv-x="436" 
d="M113 276q-36 15 -60 42l49 58q19 -18 39 -25t47 -7q41 0 66 22t32 63q-44 -19 -94 -19q-64 0 -102 33.5t-38 86.5q0 57 44 94.5t113 37.5q80 0 124.5 -50t44.5 -137q0 -100 -49.5 -157t-136.5 -57q-43 0 -79 15zM289 497q-3 40 -24 62t-56 22q-32 0 -51 -13t-19 -36
q0 -47 68 -47q47 0 82 12z" />
    <glyph glyph-name="uni2070" unicode="&#x2070;" horiz-adv-x="470" 
d="M105.5 382.5q-48.5 54.5 -48.5 146.5q0 59 22.5 104.5t62.5 70.5t93 25q80 0 129.5 -55t49.5 -145q0 -91 -49 -146t-130 -55t-129.5 54.5zM294.5 447.5q19.5 29.5 19.5 81.5q0 51 -18.5 80.5t-58.5 29.5q-41 0 -61 -29.5t-20 -80.5t19.5 -81t59.5 -30t59.5 29.5z" />
    <glyph glyph-name="uni00B9" unicode="&#xb9;" horiz-adv-x="366" 
d="M165 634l-95 -23v75l117 37h73v-387h-95v298z" />
    <glyph glyph-name="uni00B2" unicode="&#xb2;" horiz-adv-x="444" 
d="M213 522q35 30 47.5 43.5t12.5 29.5q0 44 -63 44q-24 0 -50 -11t-50 -32l-53 67q33 31 75 49t89 18q69 0 110.5 -33t41.5 -87q0 -33 -16.5 -60t-51.5 -55l-91 -74h158v-85h-304v63z" />
    <glyph glyph-name="uni00B3" unicode="&#xb3;" horiz-adv-x="445" 
d="M127 344.5q-39 16.5 -65 42.5l54 58q42 -35 93 -35q33 0 53.5 12.5t20.5 33.5q0 20 -18 31.5t-49 11.5h-69v58l98 83h-170v82h284v-60l-107 -95q59 -5 94 -35t35 -78q0 -59 -45 -92.5t-122 -33.5q-48 0 -87 16.5z" />
    <glyph glyph-name="uni2074" unicode="&#x2074;" horiz-adv-x="456" 
d="M260 422h-207v61l207 240h86v-223h55v-78h-55v-86h-86v86zM260 500v119l-104 -119h104z" />
    <glyph glyph-name="uni2075" unicode="&#x2075;" horiz-adv-x="430" 
d="M116 344q-38 16 -63 43l56 57q19 -17 40 -25t49 -8q31 0 50 12.5t19 34.5q0 21 -16.5 32t-47.5 11h-122v58l33 163h224v-83h-163l-11 -62h46q74 0 115 -31t41 -87q0 -61 -44 -96t-121 -35q-47 0 -85 16z" />
    <glyph glyph-name="uni2076" unicode="&#x2076;" horiz-adv-x="446" 
d="M107 377q-44 49 -44 138q0 96 51 155t137 59q44 0 79 -15t59 -42l-51 -57q-33 32 -82 32q-39 0 -65 -21.5t-35 -61.5q46 18 94 18q64 0 102 -32.5t38 -86.5q0 -59 -43.5 -97t-114.5 -38q-81 0 -125 49zM285.5 422q18.5 13 18.5 38q0 21 -18.5 34t-50.5 13q-49 0 -82 -13
q3 -42 23.5 -63.5t55.5 -21.5t53.5 13z" />
    <glyph glyph-name="uni2077" unicode="&#x2077;" horiz-adv-x="428" 
d="M261 637h-196v86h306v-45l-152 -342h-99z" />
    <glyph glyph-name="uni2078" unicode="&#x2078;" horiz-adv-x="471" 
d="M117 358q-45 30 -45 80q0 28 17 53t47 44q-51 32 -51 86q0 48 43 78t108 30q68 0 109.5 -29t41.5 -77q0 -46 -51 -83q64 -37 64 -98q0 -51 -46 -82.5t-117 -31.5q-75 0 -120 30zM294.5 587.5q9.5 12.5 9.5 26.5q0 19 -18.5 30t-48.5 11q-29 0 -48 -10t-19 -26
q0 -19 20.5 -30.5t63.5 -20.5l12 -2q19 9 28.5 21.5zM290 416.5q22 11.5 22 32.5q0 22 -20.5 32t-70.5 22l-17 4q-45 -22 -45 -55q0 -21 21.5 -34t54.5 -13t55 11.5z" />
    <glyph glyph-name="uni2079" unicode="&#x2079;" horiz-adv-x="436" 
d="M113 343q-36 15 -60 42l49 58q19 -18 39 -25t47 -7q41 0 66 22t32 63q-44 -19 -94 -19q-64 0 -102 33.5t-38 86.5q0 57 44 94.5t113 37.5q80 0 124.5 -50t44.5 -137q0 -100 -49.5 -157t-136.5 -57q-43 0 -79 15zM289 564q-3 40 -24 62t-56 22q-32 0 -51 -13t-19 -36
q0 -47 68 -47q47 0 82 12z" />
    <glyph glyph-name="fraction" unicode="&#x2044;" horiz-adv-x="173" 
d="M268 657h129l-492 -657h-129z" />
    <glyph glyph-name="onehalf" unicode="&#xbd;" horiz-adv-x="968" 
d="M621 657h128l-491 -657h-129zM165 567l-95 -23v75l117 37h73v-387h-95v298zM738 186q35 30 47 43.5t12 29.5q0 22 -16 33.5t-47 11.5q-23 0 -49.5 -11.5t-49.5 -31.5l-54 67q33 30 75.5 48t88.5 18q69 0 110.5 -33t41.5 -87q0 -33 -16.5 -60t-50.5 -54l-91 -75h158v-85
h-304v63z" />
    <glyph glyph-name="onequarter" unicode="&#xbc;" horiz-adv-x="900" 
d="M627 657h129l-492 -657h-128zM165 567l-95 -23v75l117 37h73v-387h-95v298zM704 87h-206v60l206 241h87v-223h54v-78h-54v-87h-87v87zM704 165v118l-104 -118h104z" />
    <glyph glyph-name="threequarters" unicode="&#xbe;" horiz-adv-x="968" 
d="M694 657h128l-491 -657h-129zM127 277.5q-39 16.5 -65 42.5l54 58q42 -35 93 -35q33 0 53.5 12.5t20.5 33.5q0 20 -18 31.5t-49 11.5h-69v58l98 83h-170v82h284v-60l-107 -95q59 -5 94 -35t35 -78q0 -59 -45 -92.5t-122 -33.5q-48 0 -87 16.5zM772 87h-207v60l207 241h86
v-223h55v-78h-55v-87h-86v87zM772 165v118l-104 -118h104z" />
    <glyph glyph-name="period" unicode="." horiz-adv-x="253" 
d="M71.5 11.5q-21.5 21.5 -21.5 54.5q0 34 21.5 55.5t54.5 21.5q34 0 55.5 -21.5t21.5 -55.5q0 -33 -21.5 -54.5t-55.5 -21.5q-33 0 -54.5 21.5z" />
    <glyph glyph-name="comma" unicode="," horiz-adv-x="253" 
d="M57.5 4.5q18.5 66.5 24.5 123.5h118q-7 -63 -29 -129t-54 -119h-104q26 58 44.5 124.5z" />
    <glyph glyph-name="colon" unicode=":" horiz-adv-x="253" 
d="M71.5 399.5q-21.5 21.5 -21.5 54.5q0 34 21.5 55t54.5 21q34 0 55.5 -21t21.5 -55q0 -33 -21.5 -54.5t-55.5 -21.5q-33 0 -54.5 21.5zM71.5 11.5q-21.5 21.5 -21.5 54.5q0 34 21.5 55.5t54.5 21.5q34 0 55.5 -21.5t21.5 -55.5q0 -33 -21.5 -54.5t-55.5 -21.5
q-33 0 -54.5 21.5z" />
    <glyph glyph-name="semicolon" unicode=";" horiz-adv-x="253" 
d="M77 399.5q-22 21.5 -22 54.5t21.5 54.5t54.5 21.5q35 0 56.5 -21t21.5 -55q0 -33 -22 -54.5t-56 -21.5q-32 0 -54 21.5zM54.5 5.5q18.5 66.5 23.5 122.5h118q-6 -62 -28.5 -128t-53.5 -120h-105q27 59 45.5 125.5z" />
    <glyph glyph-name="ellipsis" unicode="&#x2026;" horiz-adv-x="734" 
d="M71.5 11.5q-21.5 21.5 -21.5 54.5q0 34 21.5 55.5t54.5 21.5q34 0 55.5 -21.5t21.5 -55.5q0 -33 -21.5 -54.5t-55.5 -21.5q-33 0 -54.5 21.5zM311.5 11.5q-21.5 21.5 -21.5 54.5q0 34 21.5 55.5t54.5 21.5q34 0 55.5 -21.5t21.5 -55.5q0 -33 -21.5 -54.5t-55.5 -21.5
q-33 0 -54.5 21.5zM552 11.5q-22 21.5 -22 54.5q0 34 21.5 55.5t54.5 21.5q35 0 56.5 -21.5t21.5 -55.5q0 -33 -22 -54.5t-56 -21.5q-32 0 -54 21.5z" />
    <glyph glyph-name="exclam" unicode="!" horiz-adv-x="289" 
d="M78 676h133l-11 -458h-112zM89.5 11.5q-21.5 21.5 -21.5 54.5q0 34 21.5 55.5t54.5 21.5q34 0 55.5 -21.5t21.5 -55.5q0 -33 -21.5 -54.5t-55.5 -21.5q-33 0 -54.5 21.5z" />
    <glyph glyph-name="exclamdown" unicode="&#xa1;" horiz-adv-x="291" 
d="M91.5 403q-21.5 21 -21.5 55q0 33 22 54.5t56 21.5q32 0 54 -21.5t22 -54.5t-21.5 -54.5t-54.5 -21.5q-35 0 -56.5 21zM91 306h112l11 -458h-134z" />
    <glyph glyph-name="question" unicode="?" horiz-adv-x="543" 
d="M218 323.5q27 36.5 75 74.5q35 28 53 50t18 47q0 37 -26 56t-75 19q-91 0 -166 -67l-73 84q47 47 113.5 73.5t138.5 26.5q102 0 160.5 -48.5t58.5 -130.5q0 -45 -23 -80.5t-65 -69.5q-47 -38 -70.5 -65.5t-23.5 -61.5v-13h-122v20q0 49 27 85.5zM198.5 11.5
q-21.5 21.5 -21.5 54.5q0 34 21.5 55.5t54.5 21.5q34 0 55.5 -21.5t21.5 -55.5q0 -33 -21.5 -54.5t-55.5 -21.5q-33 0 -54.5 21.5z" />
    <glyph glyph-name="questiondown" unicode="&#xbf;" horiz-adv-x="531" 
d="M231.5 403q-21.5 21 -21.5 55q0 33 21.5 54.5t55.5 21.5q33 0 54.5 -21.5t21.5 -54.5q0 -34 -21.5 -55t-54.5 -21q-34 0 -55.5 21zM103.5 -114.5q-58.5 48.5 -58.5 130.5q0 45 23 81t65 69q47 38 70.5 65.5t23.5 61.5v13h122v-20q0 -48 -27 -85t-75 -75
q-34 -26 -52.5 -49t-18.5 -48q0 -37 26 -56t75 -19q92 0 166 68l73 -85q-47 -47 -113.5 -73.5t-138.5 -26.5q-102 0 -160.5 48.5z" />
    <glyph glyph-name="periodcentered" unicode="&#xb7;" horiz-adv-x="253" 
d="M71.5 310.5q-21.5 21.5 -21.5 54.5q0 34 21.5 55.5t54.5 21.5q34 0 55.5 -21.5t21.5 -55.5q0 -33 -21.5 -54.5t-55.5 -21.5q-33 0 -54.5 21.5z" />
    <glyph glyph-name="bullet" unicode="&#x2022;" horiz-adv-x="410" 
d="M117 259q-37 36 -37 88q0 53 36.5 89.5t88.5 36.5t88.5 -36t36.5 -90q0 -52 -36.5 -88t-88.5 -36q-51 0 -88 36z" />
    <glyph glyph-name="asterisk" unicode="*" horiz-adv-x="430" 
d="M176 451l-85 -67l-55 77l101 58l-101 58l55 77l85 -66l-9 106h96l-8 -106l84 66l55 -77l-102 -58l102 -58l-55 -77l-84 66l8 -106h-96z" />
    <glyph glyph-name="numbersign" unicode="#" horiz-adv-x="652" 
d="M135 156h-91l14 95h90l23 162h-91l14 94h90l17 122h107l-17 -122h122l17 122h107l-17 -122h88l-13 -94h-89l-22 -162h88l-14 -95h-88l-18 -128h-107l18 128h-121l-18 -128h-107zM376 251l23 162h-121l-23 -162h121z" />
    <glyph glyph-name="slash" unicode="/" horiz-adv-x="489" 
d="M337 735h134l-318 -880h-134z" />
    <glyph glyph-name="backslash" unicode="\" horiz-adv-x="489" 
d="M19 735h134l318 -880h-134z" />
    <glyph glyph-name="exclamdown.case" horiz-adv-x="289" 
d="M89.5 555q-21.5 21 -21.5 55q0 33 21.5 54.5t55.5 21.5q33 0 54.5 -21.5t21.5 -54.5q0 -34 -21.5 -55t-54.5 -21q-34 0 -55.5 21zM89 458h112l10 -458h-133z" />
    <glyph glyph-name="questiondown.case" horiz-adv-x="543" 
d="M234.5 555q-21.5 21 -21.5 55q0 33 21.5 54.5t55.5 21.5q33 0 54.5 -21.5t21.5 -54.5q0 -34 -21.5 -55t-54.5 -21q-34 0 -55.5 21zM107 37.5q-59 48.5 -59 130.5q0 45 23 81t65 69q47 38 70.5 65.5t23.5 61.5v13h122v-20q0 -48 -27 -85t-75 -75q-34 -26 -52.5 -49
t-18.5 -48q0 -37 26 -56t75 -19q92 0 166 68l73 -85q-47 -47 -113.5 -73.5t-138.5 -26.5q-101 0 -160 48.5z" />
    <glyph glyph-name="slash.case" horiz-adv-x="489" 
d="M337 775h134l-318 -880h-134z" />
    <glyph glyph-name="backslash.case" horiz-adv-x="489" 
d="M19 775h134l318 -880h-134z" />
    <glyph glyph-name="parenleft" unicode="(" horiz-adv-x="376" 
d="M107.5 55.5q-40.5 116.5 -40.5 239.5q0 121 41 238t118 202h129q-75 -92 -119.5 -209.5t-44.5 -230.5q0 -114 44.5 -231.5t119.5 -209.5h-129q-78 85 -118.5 201.5z" />
    <glyph glyph-name="parenright" unicode=")" horiz-adv-x="376" 
d="M141.5 63.5q44.5 117.5 44.5 231.5t-44.5 231t-120.5 209h129q79 -84 119.5 -200.5t40.5 -239.5q0 -121 -41 -238t-119 -203h-129q76 92 120.5 209.5z" />
    <glyph glyph-name="braceleft" unicode="{" horiz-adv-x="468" 
d="M174 -90.5q-55 55.5 -55 160.5v51q0 49 -18.5 80.5t-60.5 51.5v83q41 20 60 52t19 81v51q0 104 55 159.5t160 55.5h105l-18 -120h-65q-55 0 -83.5 -29t-28.5 -84v-60q0 -50 -17.5 -84.5t-56.5 -62.5q39 -28 56.5 -62.5t17.5 -84.5v-60q0 -56 28.5 -85t83.5 -29h65
l18 -120h-105q-105 0 -160 55.5z" />
    <glyph glyph-name="braceright" unicode="}" horiz-adv-x="468" 
d="M112 -26q55 0 84 29.5t29 84.5v60q0 50 17.5 84t56.5 63q-39 28 -56.5 62t-17.5 84v61q0 55 -29 84t-84 29h-64l-18 120h105q105 0 160 -55.5t55 -159.5v-51q0 -49 18.5 -81t59.5 -51v-84q-41 -20 -59.5 -52t-18.5 -81v-50q0 -105 -55 -160.5t-160 -55.5h-105l18 120h64z
" />
    <glyph glyph-name="bracketleft" unicode="[" horiz-adv-x="456" 
d="M99 735h327l-17 -121h-183v-639h183l17 -121h-327v881z" />
    <glyph glyph-name="bracketright" unicode="]" horiz-adv-x="456" 
d="M48 -25h182v639h-182l-18 121h328v-881h-328z" />
    <glyph glyph-name="parenleft.case" horiz-adv-x="376" 
d="M107.5 94.5q-40.5 116.5 -40.5 239.5q0 121 41 238t118 203h129q-75 -93 -119.5 -210t-44.5 -231t44.5 -231t119.5 -210h-129q-78 85 -118.5 201.5z" />
    <glyph glyph-name="parenright.case" horiz-adv-x="376" 
d="M141.5 103.5q44.5 117.5 44.5 230.5q0 115 -44.5 231.5t-120.5 209.5h129q79 -85 119.5 -201.5t40.5 -239.5q0 -120 -41 -237.5t-119 -203.5h-129q76 93 120.5 210.5z" />
    <glyph glyph-name="braceleft.case" horiz-adv-x="468" 
d="M174 -51.5q-55 55.5 -55 160.5v51q0 49 -18.5 81t-60.5 51v84q42 20 60.5 52t18.5 81v50q0 105 55 160.5t160 55.5h105l-18 -121h-65q-55 0 -83.5 -29t-28.5 -84v-60q0 -50 -17.5 -84t-56.5 -63q39 -28 56.5 -62t17.5 -84v-61q0 -55 28.5 -84t83.5 -29h65l18 -121h-105
q-105 0 -160 55.5z" />
    <glyph glyph-name="braceright.case" horiz-adv-x="468" 
d="M112 14q55 0 84 29t29 84v60q0 50 17.5 84.5t56.5 62.5q-39 28 -56.5 62.5t-17.5 84.5v60q0 55 -29 84t-84 29h-64l-18 121h105q105 0 160 -55.5t55 -160.5v-51q0 -49 18 -80.5t60 -51.5v-83q-41 -20 -59.5 -52t-18.5 -81v-51q0 -105 -55 -160.5t-160 -55.5h-105l18 121
h64z" />
    <glyph glyph-name="bracketleft.case" horiz-adv-x="456" 
d="M99 775h327l-17 -122h-183v-638h183l17 -122h-327v882z" />
    <glyph glyph-name="bracketright.case" horiz-adv-x="456" 
d="M48 15h182v638h-182l-18 122h328v-882h-328z" />
    <glyph glyph-name="hyphen" unicode="-" horiz-adv-x="453" 
d="M58 359h337v-113h-337v113z" />
    <glyph glyph-name="uni00AD" unicode="&#xad;" horiz-adv-x="453" 
d="M58 359h337v-113h-337v113z" />
    <glyph glyph-name="endash" unicode="&#x2013;" horiz-adv-x="490" 
d="M0 358h490v-110h-490v110z" />
    <glyph glyph-name="emdash" unicode="&#x2014;" horiz-adv-x="980" 
d="M0 358h980v-110h-980v110z" />
    <glyph glyph-name="underscore" unicode="_" horiz-adv-x="490" 
d="M0 -74h490v-104h-490v104z" />
    <glyph glyph-name="hyphen.case" horiz-adv-x="453" 
d="M58 400h337v-113h-337v113z" />
    <glyph glyph-name="endash.case" horiz-adv-x="490" 
d="M0 398h490v-110h-490v110z" />
    <glyph glyph-name="emdash.case" horiz-adv-x="980" 
d="M0 398h980v-110h-980v110z" />
    <glyph glyph-name="quotesinglbase" unicode="&#x201a;" horiz-adv-x="258" 
d="M60.5 5.5q18.5 66.5 23.5 122.5h118q-6 -62 -28.5 -128t-53.5 -120h-105q27 59 45.5 125.5z" />
    <glyph glyph-name="quotedblbase" unicode="&#x201e;" horiz-adv-x="451" 
d="M60.5 5.5q18.5 66.5 23.5 122.5h118q-6 -62 -28.5 -128t-53.5 -120h-105q27 59 45.5 125.5zM253.5 5.5q18.5 66.5 23.5 122.5h118q-6 -62 -28.5 -128t-53.5 -120h-105q27 59 45.5 125.5z" />
    <glyph glyph-name="quotedblleft" unicode="&#x201c;" horiz-adv-x="453" 
d="M80 560.5q21 63.5 51 116.5h103q-25 -57 -42 -120.5t-23 -120.5h-117q7 61 28 124.5zM273 560.5q21 63.5 51 116.5h103q-25 -57 -42 -120.5t-23 -120.5h-117q7 61 28 124.5z" />
    <glyph glyph-name="quotedblright" unicode="&#x201d;" horiz-adv-x="453" 
d="M71 556q17 63 23 120h117q-7 -61 -28 -124.5t-51 -115.5h-103q25 57 42 120zM264 556q17 63 23 120h117q-7 -61 -28 -124.5t-51 -115.5h-103q25 57 42 120z" />
    <glyph glyph-name="quoteleft" unicode="&#x2018;" horiz-adv-x="260" 
d="M80 560.5q21 63.5 51 116.5h103q-25 -57 -42 -120.5t-23 -120.5h-117q7 61 28 124.5z" />
    <glyph glyph-name="quoteright" unicode="&#x2019;" horiz-adv-x="260" 
d="M71 556q17 63 23 120h117q-7 -61 -28 -124.5t-51 -115.5h-103q25 57 42 120z" />
    <glyph glyph-name="guillemotleft" unicode="&#xab;" horiz-adv-x="554" 
d="M48 279l135 199h125l-131 -199l131 -200h-125zM261 279l135 199h125l-131 -199l131 -200h-125z" />
    <glyph glyph-name="guillemotright" unicode="&#xbb;" horiz-adv-x="554" 
d="M169 278l-131 200h125l135 -200l-135 -199h-125zM382 278l-131 200h125l135 -200l-135 -199h-125z" />
    <glyph glyph-name="guilsinglleft" unicode="&#x2039;" horiz-adv-x="341" 
d="M48 279l135 199h125l-131 -199l131 -200h-125z" />
    <glyph glyph-name="guilsinglright" unicode="&#x203a;" horiz-adv-x="341" 
d="M169 278l-131 200h125l135 -200l-135 -199h-125z" />
    <glyph glyph-name="quotedbl" unicode="&#x22;" horiz-adv-x="460" 
d="M69 676h124l-9 -274h-107zM268 676h124l-9 -274h-107z" />
    <glyph glyph-name="quotesingle" unicode="'" horiz-adv-x="261" 
d="M69 676h124l-9 -274h-107z" />
    <glyph glyph-name="guillemotleft.case" horiz-adv-x="554" 
d="M48 343l135 199h125l-131 -199l131 -200h-125zM261 343l135 199h125l-131 -199l131 -200h-125z" />
    <glyph glyph-name="guillemotright.case" horiz-adv-x="554" 
d="M169 342l-131 200h125l135 -200l-135 -199h-125zM382 342l-131 200h125l135 -200l-135 -199h-125z" />
    <glyph glyph-name="guilsinglleft.case" horiz-adv-x="341" 
d="M48 343l135 199h125l-131 -199l131 -200h-125z" />
    <glyph glyph-name="guilsinglright.case" horiz-adv-x="341" 
d="M169 342l-131 200h125l135 -200l-135 -199h-125z" />
    <glyph glyph-name="period.dnom" horiz-adv-x="185" 
d="M41.5 10q-18.5 18 -18.5 46q0 27 18.5 45t45.5 18q28 0 46.5 -17.5t18.5 -45.5t-18.5 -46t-46.5 -18q-27 0 -45.5 18z" />
    <glyph glyph-name="comma.dnom" horiz-adv-x="185" 
d="M42 111h102q-4 -42 -20 -89t-39 -86h-91q38 91 48 175z" />
    <glyph glyph-name="period.numr" horiz-adv-x="185" 
d="M46.5 279q-18.5 18 -18.5 45q0 28 18.5 46t45.5 18q28 0 46.5 -18t18.5 -46t-18.5 -45.5t-46.5 -17.5q-27 0 -45.5 18z" />
    <glyph glyph-name="comma.numr" horiz-adv-x="185" 
d="M52 380h102q-4 -42 -20 -88.5t-39 -86.5h-90q37 92 47 175z" />
    <glyph glyph-name="period.subs" horiz-adv-x="185" 
d="M46.5 -67q-18.5 18 -18.5 45q0 28 18.5 46t45.5 18q28 0 46.5 -18t18.5 -46t-18.5 -45.5t-46.5 -17.5q-27 0 -45.5 18z" />
    <glyph glyph-name="comma.subs" horiz-adv-x="185" 
d="M52 29h102q-4 -42 -20 -88.5t-39 -86.5h-90q37 92 47 175z" />
    <glyph glyph-name="uni00A0" unicode="&#xa0;" horiz-adv-x="255" 
 />
    <glyph glyph-name="cent" unicode="&#xa2;" 
d="M124.5 164q-52.5 68 -52.5 172q0 96 53.5 166t140.5 91v120l120 20v-138q80 -14 136 -78l-70 -72q-48 50 -114 50t-105.5 -43.5t-39.5 -115.5q0 -70 40.5 -114t104.5 -44q68 0 120 52l69 -75q-59 -64 -141 -78v-126l-118 -20v147q-91 18 -143.5 86z" />
    <glyph glyph-name="currency" unicode="&#xa4;" 
d="M96 226q-26 50 -26 107t27 106l-77 76l80 80l76 -75q53 33 117 33q66 0 118 -33l76 75l79 -80l-76 -76q26 -47 26 -107q0 -59 -26 -106l76 -77l-79 -79l-77 75q-52 -33 -117 -33q-64 0 -117 32l-76 -74l-80 79zM376 245q32 36 32 87t-31.5 87t-83.5 36q-50 0 -82 -35.5
t-32 -86.5q0 -52 31.5 -88t82.5 -36t83 36z" />
    <glyph glyph-name="dollar" unicode="$" 
d="M29 100l66 85q39 -38 91.5 -58.5t112.5 -20.5q54 0 83.5 20t29.5 58q0 42 -31.5 63t-107.5 38q-77 16 -123.5 39t-70.5 61.5t-24 99.5q0 68 49 118t130 63v114l119 21v-136q100 -18 173 -97l-71 -76q-34 35 -78 52t-87 17q-52 0 -81 -19.5t-29 -55.5q0 -28 14 -44t42 -26
t84 -23q114 -27 166.5 -75t52.5 -129q0 -77 -48.5 -127.5t-137.5 -63.5v-126l-118 -20v146q-118 16 -206 102z" />
    <glyph glyph-name="Euro" unicode="&#x20ac;" 
d="M192.5 49q-72.5 60 -99.5 164h-86l23 84h50q-1 10 -1 31q0 14 2 36h-74l23 85h66q30 99 103.5 159.5t168.5 60.5q127 0 209 -91l-75 -77q-28 28 -59 41.5t-71 13.5q-51 0 -90 -28t-61 -79h197l-22 -85h-195q-2 -22 -2 -36q0 -11 2 -31h179l-24 -84h-135q21 -52 60 -81
t90 -29q39 0 71.5 13t65.5 43l75 -78q-44 -46 -96.5 -69t-120.5 -23q-101 0 -173.5 60z" />
    <glyph glyph-name="florin" unicode="&#x192;" 
d="M75 108q61 0 91.5 28t45.5 96l13 53h-128v106h151l11 48q26 113 85 165.5t167 52.5h58v-107h-53q-61 0 -92 -29t-46 -95l-8 -35h135v-106h-157l-15 -67q-24 -112 -83.5 -165t-167.5 -53h-65v108h58z" />
    <glyph glyph-name="sterling" unicode="&#xa3;" 
d="M115 268h-83v106h106l13 59q51 224 259 224h129v-111h-125q-60 0 -98 -30t-52 -96l-10 -46h215v-106h-236l-34 -157h351v-111h-476v83z" />
    <glyph glyph-name="yen" unicode="&#xa5;" 
d="M233 107h-164v86h164v66h-164v86h116l-169 312h145l134 -279l135 279h139l-168 -312h116v-86h-163v-66h163v-86h-163v-107h-121v107z" />
    <glyph glyph-name="plus" unicode="+" 
d="M238 276h-167v110h167v168h110v-168h168v-110h-168v-169h-110v169z" />
    <glyph glyph-name="minus" unicode="&#x2212;" 
d="M87 388h413v-114h-413v114z" />
    <glyph glyph-name="multiply" unicode="&#xd7;" 
d="M92 207l124 124l-124 124l77 78l124 -124l124 124l78 -78l-124 -124l124 -124l-78 -78l-124 124l-124 -124z" />
    <glyph glyph-name="divide" unicode="&#xf7;" 
d="M242 462q-20 20 -20 50q0 31 20 51t50 20q32 0 52 -20t20 -51q0 -30 -20.5 -50t-51.5 -20q-30 0 -50 20zM87 388h413v-114h-413v114zM242 98.5q-20 19.5 -20 50.5t20 50.5t50 19.5q32 0 52 -19.5t20 -50.5t-20 -50.5t-52 -19.5q-30 0 -50 19.5z" />
    <glyph glyph-name="equal" unicode="=" 
d="M87 499h413v-114h-413v114zM87 274h413v-114h-413v114z" />
    <glyph glyph-name="notequal" unicode="&#x2260;" 
d="M114 82l39 78h-66v114h119l56 111h-175v114h229l57 119l100 -42l-38 -77h65v-114h-118l-56 -111h174v-114h-227l-59 -120z" />
    <glyph glyph-name="greater" unicode="&#x3e;" 
d="M98 188l256 143l-256 143l56 98l331 -190v-101l-331 -190z" />
    <glyph glyph-name="less" unicode="&#x3c;" 
d="M102 280v101l331 190l56 -97l-257 -143l257 -142l-56 -99z" />
    <glyph glyph-name="greaterequal" unicode="&#x2265;" 
d="M107 275l260 117l-260 118l38 99l343 -166v-100l-343 -165zM93 111h395v-111h-395v111z" />
    <glyph glyph-name="lessequal" unicode="&#x2264;" 
d="M98 343v100l344 166l37 -98l-259 -117l259 -117l-37 -99zM98 112h396v-112h-396v112z" />
    <glyph glyph-name="plusminus" unicode="&#xb1;" 
d="M238 301h-167v110h167v168h110v-168h168v-110h-168v-168h-110v168zM87 113h413v-115h-413v115z" />
    <glyph glyph-name="approxequal" unicode="&#x2248;" 
d="M342.5 364q-23.5 11 -51.5 30q-24 16 -40.5 23.5t-34.5 7.5q-61 0 -64 -67h-102q2 79 39.5 127.5t104.5 48.5q28 0 52.5 -11t54.5 -31q27 -17 42 -24t30 -7q28 0 44.5 17.5t17.5 51.5h101q-2 -79 -39 -128t-104 -49q-27 0 -50.5 11zM342.5 136q-23.5 11 -51.5 30
q-24 16 -40.5 23.5t-34.5 7.5q-61 0 -64 -67h-102q2 79 39.5 127.5t104.5 48.5q28 0 52.5 -11t54.5 -31q27 -17 42 -24t30 -7q28 0 44.5 17.5t17.5 51.5h101q-2 -79 -39 -128t-104 -49q-27 0 -50.5 11z" />
    <glyph glyph-name="asciitilde" unicode="~" 
d="M343 245.5q-23 10.5 -52 29.5q-23 16 -40 24t-35 8q-61 0 -64 -68h-102q2 79 39.5 127.5t104.5 48.5q28 0 52 -10.5t55 -30.5q24 -16 40 -23.5t32 -7.5q28 0 44.5 17.5t17.5 51.5h101q-2 -79 -39 -128t-104 -49q-27 0 -50 10.5z" />
    <glyph glyph-name="logicalnot" unicode="&#xac;" 
d="M388 326h-313v109h424v-279h-111v170z" />
    <glyph glyph-name="asciicircum" unicode="^" 
d="M235 676h119l176 -337h-129l-107 219l-108 -219h-129z" />
    <glyph glyph-name="uni00B5" unicode="&#xb5;" horiz-adv-x="616" 
d="M193 523v-282q0 -74 24 -107.5t82 -33.5q36 0 68 19.5t56 55.5v348h125v-523h-88l-23 72q-35 -39 -79 -61t-94 -22q-46 0 -71 24v-215l-124 -19v744h124z" />
    <glyph glyph-name="percent" unicode="%" horiz-adv-x="1017" 
d="M105.5 315.5q-48.5 54.5 -48.5 146.5q0 59 22.5 104.5t62.5 70.5t93 25q80 0 129.5 -55t49.5 -145q0 -91 -49 -146t-130 -55t-129.5 54.5zM690 657h128l-491 -657h-129zM294.5 380.5q19.5 29.5 19.5 81.5q0 51 -18.5 80.5t-58.5 29.5q-41 0 -61 -29.5t-20 -80.5t19.5 -81
t59.5 -30t59.5 29.5zM652 47q-49 55 -49 147q0 90 49.5 144.5t129.5 54.5t129 -54t49 -145t-49 -146.5t-129 -55.5q-81 0 -130 55zM841 112.5q20 29.5 20 80.5t-19 81t-59 30t-60 -30t-20 -81q0 -50 19 -80t60 -30q39 0 59 29.5z" />
    <glyph glyph-name="perthousand" unicode="&#x2030;" horiz-adv-x="1424" 
d="M105.5 315.5q-48.5 54.5 -48.5 146.5q0 59 22.5 104.5t62.5 70.5t93 25q80 0 129.5 -55t49.5 -145q0 -91 -49 -146t-130 -55t-129.5 54.5zM690 657h128l-491 -657h-129zM294.5 380.5q19.5 29.5 19.5 81.5q0 51 -18.5 80.5t-58.5 29.5q-41 0 -61 -29.5t-20 -80.5t19.5 -81
t59.5 -30t59.5 29.5zM652 47q-49 55 -49 147q0 90 49.5 144.5t129.5 54.5t129 -54t49 -145t-49 -146.5t-129 -55.5q-81 0 -130 55zM1059.5 47q-48.5 55 -48.5 147q0 90 49 144.5t129 54.5q81 0 130 -54.5t49 -144.5q0 -91 -49.5 -146.5t-129.5 -55.5q-81 0 -129.5 55z
M841 112.5q20 29.5 20 80.5t-19 81t-59 30t-60 -30t-20 -81q0 -50 19 -80t60 -30q39 0 59 29.5zM1248.5 112q19.5 29 19.5 81t-19 81.5t-58 29.5q-40 0 -60.5 -30t-20.5 -81q0 -50 19.5 -80t59.5 -30t59.5 29z" />
    <glyph glyph-name="at" unicode="@" horiz-adv-x="974" 
d="M257.5 -115.5q-93.5 54.5 -146.5 151t-53 217.5q0 124 63 225.5t168 159.5t226 58q119 0 212.5 -43.5t146 -122t52.5 -179.5q0 -87 -38.5 -153.5t-103 -103t-140.5 -36.5h-48l-20 47q-54 -51 -121 -51q-80 0 -127 56t-47 150q0 58 26 105.5t70.5 74t97.5 26.5
q28 0 59 -11t54 -31l11 34h86v-311q66 12 105 63.5t39 138.5q0 75 -38.5 132t-109.5 88.5t-166 31.5q-98 0 -180 -44.5t-130 -123.5t-48 -179q0 -98 39 -172.5t110 -116t164 -41.5q69 0 118 17t93 51l58 -69q-54 -46 -120 -69.5t-151 -23.5q-117 0 -210.5 54.5zM569 199v145
q-34 24 -74 24q-46 0 -72.5 -29.5t-26.5 -82.5q0 -47 23 -74t65 -27q48 0 85 44z" />
    <glyph glyph-name="ampersand" unicode="&#x26;" horiz-adv-x="668" 
d="M160 13.5q-56 25.5 -87 71.5t-31 107q0 60 34.5 107.5t96.5 83.5q-24 32 -36 62t-12 63q0 52 27.5 92.5t77 63.5t111.5 23q60 0 108.5 -25t90.5 -72l-76 -79q-29 33 -57.5 48t-66.5 15q-44 0 -70 -22t-26 -57q0 -26 17.5 -51.5t60.5 -72.5l35 -39l119 -134q32 55 32 126
v35h105v-38q0 -56 -17 -108.5t-49 -96.5l101 -116h-137l-40 44q-80 -56 -183 -56q-72 0 -128 25.5zM401 122l-167 185q-77 -43 -77 -106q0 -48 41 -77.5t105 -29.5q54 0 98 28z" />
    <glyph glyph-name="paragraph" unicode="&#xb6;" horiz-adv-x="606" 
d="M295 -58q47 0 72.5 29.5t25.5 82.5v605l126 18v-633q0 -103 -55 -160.5t-153 -57.5h-36v116h20zM120.5 259q-72.5 56 -72.5 154q0 90 55 149t154 76l66 11v-446q-130 0 -202.5 56z" />
    <glyph glyph-name="section" unicode="&#xa7;" horiz-adv-x="500" 
d="M166 -63q44 0 67.5 16t23.5 44q0 22 -13.5 40.5t-43.5 43.5l-76 64q-39 32 -59 66.5t-20 78.5q0 47 30 84.5t81 54.5q-28 39 -28 80q0 77 57 122t160 45h63v-106h-71q-45 0 -68.5 -16.5t-23.5 -44.5q0 -23 13.5 -41t43.5 -43l75 -63q78 -63 78 -144q0 -46 -30 -83.5
t-80 -54.5q29 -40 29 -82q0 -78 -56.5 -122.5t-158.5 -44.5h-72v106h79zM327 171q21 17 21 44q0 20 -10.5 37.5t-34.5 37.5l-76 66h-2q-33 -2 -53 -18.5t-20 -43.5q0 -21 11.5 -39t34.5 -38l73 -63h2q33 0 54 17z" />
    <glyph glyph-name="copyright" unicode="&#xa9;" horiz-adv-x="800" 
d="M221 32q-81 44 -128 123.5t-47 182.5q0 100 47.5 180t128.5 125t177 45q97 0 178 -44.5t129 -124.5t48 -181q0 -102 -48 -181.5t-129.5 -124t-177.5 -44.5q-97 0 -178 44zM547.5 86.5q66.5 36.5 104.5 102t38 149.5t-37.5 149.5t-104 102t-149.5 36.5q-82 0 -148 -37
t-103.5 -102.5t-37.5 -148.5q0 -85 37 -150.5t103 -101.5t149 -36q82 0 148.5 36.5zM267.5 198.5q-52.5 51.5 -52.5 140.5q0 54 25 97.5t68.5 68t98.5 24.5q41 0 77.5 -16t59.5 -46l-54 -59q-35 35 -78 35q-45 0 -71.5 -28.5t-26.5 -75.5q0 -48 26 -76.5t72 -28.5t85 36
l53 -62q-27 -29 -64 -45t-80 -16q-86 0 -138.5 51.5z" />
    <glyph glyph-name="registered" unicode="&#xae;" horiz-adv-x="572" 
d="M159 269.5q-57 30.5 -90.5 86.5t-33.5 129q0 71 34 127.5t91 88t125 31.5t126 -31.5t92 -87.5t34 -128t-34 -128t-92 -87t-126 -31q-69 0 -126 30.5zM388 314q45 25 70 69.5t25 101.5t-25 101.5t-70 69.5t-103 25q-57 0 -102 -25t-70 -69.5t-25 -101.5t25 -101.5
t70 -69.5t102 -25q58 0 103 25zM293 609q43 0 70 -22t27 -57q0 -20 -11 -36t-30 -24q15 -12 25 -32l35 -68h-71l-19 36q-11 21 -20 28t-27 7h-22v-71h-62v239h105zM322 526q0 29 -38 29h-34v-58h34q38 0 38 29z" />
    <glyph glyph-name="trademark" unicode="&#x2122;" horiz-adv-x="899" 
d="M144 590h-115v86h318v-86h-114v-282h-89v282zM414 676h89l117 -207l122 207h88v-368h-89v217l-85 -147h-73l-83 146v-216h-86v368z" />
    <glyph glyph-name="degree" unicode="&#xb0;" horiz-adv-x="397" 
d="M122.5 407.5q-34.5 20.5 -55 55t-20.5 74.5q0 41 20.5 75.5t55.5 55t75 20.5q41 0 75.5 -20.5t55 -55t20.5 -75.5q0 -40 -20.5 -74.5t-55 -55t-75.5 -20.5t-75.5 20.5zM245.5 489.5q19.5 19.5 19.5 47.5t-19.5 48t-47.5 20t-47 -20t-19 -48t19 -47.5t47 -19.5t47.5 19.5z
" />
    <glyph glyph-name="bar" unicode="|" horiz-adv-x="327" 
d="M99 735h129v-881h-129v881z" />
    <glyph glyph-name="brokenbar" unicode="&#xa6;" horiz-adv-x="327" 
d="M99 735h129v-332h-129v332zM99 187h129v-333h-129v333z" />
    <glyph glyph-name="dagger" unicode="&#x2020;" horiz-adv-x="390" 
d="M150 491h-117v86h117v99l89 17v-116h117v-86h-117v-206h-89v206z" />
    <glyph glyph-name="daggerdbl" unicode="&#x2021;" horiz-adv-x="406" 
d="M158 375h-114v79h114v64h-114v80h114v78l89 17v-95h116v-80h-116v-64h116v-79h-116v-90h-89v90z" />
    <glyph glyph-name="at.case" horiz-adv-x="974" 
d="M257.5 -49.5q-93.5 54.5 -146.5 150.5t-53 217q0 124 63 225.5t168 159.5t225 58q119 0 213 -43.5t146.5 -122t52.5 -179.5q0 -87 -38.5 -153.5t-103 -103t-140.5 -36.5h-48l-19 47q-54 -51 -122 -51q-80 0 -127 56t-47 150q0 58 26 105.5t70.5 74.5t97.5 27
q28 0 58.5 -11.5t55.5 -30.5l10 33h86v-312q68 10 109 63.5t41 141.5q0 76 -40 134.5t-113 91t-168 32.5q-97 0 -180.5 -45.5t-133 -127t-49.5 -182.5q0 -98 40.5 -174.5t113 -119.5t165.5 -43q69 0 119.5 18.5t94.5 53.5l55 -65q-104 -93 -270 -93q-118 0 -211.5 54.5z
M570 261v149q-37 25 -76 25q-46 0 -73.5 -30t-27.5 -84q0 -47 24 -75t67 -28q48 0 86 43z" />
    <glyph glyph-name="uni0308" unicode="&#x308;" horiz-adv-x="0" 
d="M-446.5 623.5q-19.5 18.5 -19.5 46.5q0 29 19.5 47.5t49.5 18.5t50 -18.5t20 -47.5q0 -28 -20 -46.5t-50 -18.5t-49.5 18.5zM-241 623.5q-20 18.5 -20 46.5q0 29 20 47.5t50 18.5t50 -18.5t20 -47.5q0 -28 -20 -46.5t-50 -18.5t-50 18.5z" />
    <glyph glyph-name="uni0307" unicode="&#x307;" horiz-adv-x="0" 
d="M-347 622q-21 19 -21 50t20.5 50.5t53.5 19.5t54 -19.5t21 -50.5q0 -30 -21 -49.5t-54 -19.5q-32 0 -53 19z" />
    <glyph glyph-name="gravecomb" unicode="&#x300;" horiz-adv-x="0" 
d="M-427 744h134l132 -144h-120z" />
    <glyph glyph-name="acutecomb" unicode="&#x301;" horiz-adv-x="0" 
d="M-294 744h133l-146 -144h-120z" />
    <glyph glyph-name="uni0302" unicode="&#x302;" horiz-adv-x="0" 
d="M-351 744h115l127 -144h-111l-74 78l-75 -78h-109z" />
    <glyph glyph-name="uni030C" unicode="&#x30c;" horiz-adv-x="0" 
d="M-478 744h111l74 -77l74 77h110l-127 -144h-115z" />
    <glyph glyph-name="uni030A" unicode="&#x30a;" horiz-adv-x="0" 
d="M-357 606.5q-29 16.5 -46.5 45.5t-17.5 63q0 53 37.5 89t90.5 36q34 0 63.5 -16.5t46.5 -45t17 -63.5t-17 -63.5t-46.5 -45t-63.5 -16.5q-35 0 -64 16.5zM-253.5 673q16.5 17 16.5 42t-16.5 41.5t-39.5 16.5q-24 0 -40.5 -16.5t-16.5 -41.5t16.5 -42t40.5 -17
q23 0 39.5 17z" />
    <glyph glyph-name="tildecomb" unicode="&#x303;" horiz-adv-x="0" 
d="M-252.5 607.5q-17.5 6.5 -39.5 19.5q-26 15 -39.5 20.5t-31.5 5.5q-24 0 -45.5 -9t-48.5 -28v87q25 19 47 28.5t48 9.5q23 0 41 -6.5t41 -19.5t38 -19.5t32 -6.5q27 0 48 9.5t47 27.5v-87q-22 -18 -45 -28t-52 -10q-23 0 -40.5 6.5z" />
    <glyph glyph-name="uni0327" unicode="&#x327;" horiz-adv-x="0" 
d="M-358 -114q29 0 46.5 12t17.5 35q0 19 -9.5 35t-32.5 41l70 21q32 -27 48.5 -53.5t16.5 -57.5q0 -55 -42 -85t-112 -30h-31v82h28z" />
    <glyph glyph-name="dieresis" unicode="&#xa8;" horiz-adv-x="588" 
d="M141.5 623.5q-19.5 18.5 -19.5 46.5q0 29 19.5 47.5t49.5 18.5t50 -18.5t20 -47.5q0 -28 -20 -46.5t-50 -18.5t-49.5 18.5zM347 623.5q-20 18.5 -20 46.5q0 29 20 47.5t50 18.5t50 -18.5t20 -47.5q0 -28 -20 -46.5t-50 -18.5t-50 18.5z" />
    <glyph glyph-name="dotaccent" unicode="&#x2d9;" horiz-adv-x="588" 
d="M241 622q-21 19 -21 50t21 50.5t53 19.5q33 0 54 -19.5t21 -50.5q0 -30 -21 -49.5t-54 -19.5q-32 0 -53 19z" />
    <glyph glyph-name="grave" unicode="`" horiz-adv-x="588" 
d="M161 744h134l132 -144h-120z" />
    <glyph glyph-name="acute" unicode="&#xb4;" horiz-adv-x="588" 
d="M294 744h133l-146 -144h-120z" />
    <glyph glyph-name="circumflex" unicode="&#x2c6;" horiz-adv-x="588" 
d="M237 744h115l127 -144h-111l-74 78l-75 -78h-109z" />
    <glyph glyph-name="caron" unicode="&#x2c7;" horiz-adv-x="588" 
d="M110 744h111l74 -77l74 77h110l-127 -144h-115z" />
    <glyph glyph-name="ring" unicode="&#x2da;" horiz-adv-x="588" 
d="M231 606.5q-29 16.5 -46.5 45.5t-17.5 63q0 53 37.5 89t90.5 36q34 0 63.5 -16.5t46.5 -45t17 -63.5t-17 -63.5t-46.5 -45t-63.5 -16.5q-35 0 -64 16.5zM334.5 673q16.5 17 16.5 42t-16.5 41.5t-39.5 16.5q-24 0 -40.5 -16.5t-16.5 -41.5t16.5 -42t40.5 -17q23 0 39.5 17
z" />
    <glyph glyph-name="tilde" unicode="&#x2dc;" horiz-adv-x="588" 
d="M335.5 607.5q-17.5 6.5 -39.5 19.5q-26 15 -39.5 20.5t-31.5 5.5q-24 0 -45.5 -9t-48.5 -28v87q25 19 47 28.5t48 9.5q23 0 41 -6.5t41 -19.5t38 -19.5t32 -6.5q27 0 48 9.5t47 27.5v-87q-22 -18 -45 -28t-52 -10q-23 0 -40.5 6.5z" />
    <glyph glyph-name="cedilla" unicode="&#xb8;" horiz-adv-x="588" 
d="M230 -114q29 0 46.5 12t17.5 35q0 19 -9.5 35t-32.5 41l70 21q32 -27 48.5 -53.5t16.5 -57.5q0 -55 -42 -85t-112 -30h-31v82h28z" />
    <glyph glyph-name="uni0308.case" horiz-adv-x="0" 
d="M-449 758q-20 18 -20 48q0 29 20 47.5t51 18.5q30 0 50.5 -19t20.5 -47q0 -30 -20 -48t-51 -18t-51 18zM-240 758q-20 18 -20 48q0 29 20 47.5t51 18.5q30 0 50.5 -19t20.5 -47q0 -30 -20 -48t-51 -18t-51 18z" />
    <glyph glyph-name="uni0307.case" horiz-adv-x="0" 
d="M-348.5 762.5q-21.5 19.5 -21.5 50.5t22 51t54 20q33 0 55 -20t22 -51t-22 -50.5t-55 -19.5t-54.5 19.5z" />
    <glyph glyph-name="gravecomb.case" horiz-adv-x="0" 
d="M-432 883h138l139 -141h-124z" />
    <glyph glyph-name="acutecomb.case" horiz-adv-x="0" 
d="M-294 883h139l-153 -141h-124z" />
    <glyph glyph-name="uni0302.case" horiz-adv-x="0" 
d="M-353 882h119l132 -140h-117l-74 74l-76 -74h-116z" />
    <glyph glyph-name="uni030C.case" horiz-adv-x="0" 
d="M-485 882h117l75 -75l75 75h116l-132 -140h-119z" />
    <glyph glyph-name="uni030A.case" horiz-adv-x="0" 
d="M-359.5 754q-30.5 17 -48.5 46.5t-18 64.5q0 36 18 65.5t48.5 46.5t66.5 17t66 -17t48 -46.5t18 -65.5q0 -35 -18 -64.5t-48 -46.5t-66 -17t-66.5 17zM-252 822.5q17 17.5 17 42.5t-17 42t-41 17q-25 0 -42 -17t-17 -42t17 -42.5t42 -17.5q24 0 41 17.5z" />
    <glyph glyph-name="tildecomb.case" horiz-adv-x="0" 
d="M-251 749.5q-19 6.5 -41 18.5q-25 14 -39.5 20t-32.5 6q-26 0 -49 -9.5t-51 -27.5v90q25 18 49 27t52 9q24 0 43 -6t41 -18q24 -14 39 -20t33 -6q29 0 52.5 9.5t49.5 27.5v-90q-49 -37 -104 -37q-23 0 -42 6.5z" />
    <glyph glyph-name="uni0327.case" horiz-adv-x="0" 
d="M-366 -116q32 0 51.5 12t19.5 34q0 20 -10.5 37t-35.5 42l76 23q35 -30 52.5 -57t17.5 -60q0 -57 -44.5 -88t-122.5 -31h-34v88h30z" />
    <glyph glyph-name="gravecomb.narrow.case" horiz-adv-x="0" 
d="M-417 883h129l107 -141h-116z" />
    <glyph glyph-name="acutecomb.narrow.case" horiz-adv-x="0" 
d="M-310 883h129l-120 -141h-116z" />
    <glyph glyph-name="gravecomb.narrow" horiz-adv-x="0" 
d="M-416 744h129l104 -144h-115z" />
    <glyph glyph-name="acutecomb.narrow" horiz-adv-x="0" 
d="M-312 744h129l-118 -144h-115z" />
    <glyph glyph-name="periodsuperior" horiz-adv-x="185" 
d="M46.5 346q-18.5 18 -18.5 45q0 28 18.5 46t45.5 18q28 0 46.5 -18t18.5 -46t-18.5 -45.5t-46.5 -17.5q-27 0 -45.5 18z" />
    <glyph glyph-name="commasuperior" horiz-adv-x="185" 
d="M52 447h102q-4 -42 -20 -88.5t-39 -86.5h-90q37 92 47 175z" />
    </font>
</defs>
</svg>
