<?xml version="1.0" standalone="no"?>
<!DOCTYPE svg PUBLIC "-//W3C//DTD SVG 1.1//EN" "http://www.w3.org/Graphics/SVG/1.1/DTD/svg11.dtd" >
<svg xmlns="http://www.w3.org/2000/svg" xmlns:xlink="http://www.w3.org/1999/xlink" version="1.1">
<metadata>
Created by FontForge 20190801 at Thu Dec 19 10:01:10 2019
 By Henrique Beier
Copyright (c) 2019 Banco Bradesco S.A. All rights reserved.
</metadata>
<defs>
<font id="BradescoSans-ThinItalic" horiz-adv-x="586" >
  <font-face 
    font-family="Bradesco Sans Thin"
    font-weight="250"
    font-style="italic"
    font-stretch="normal"
    units-per-em="1000"
    panose-1="0 0 3 0 0 0 0 0 0 0"
    ascent="800"
    descent="-200"
    x-height="514"
    cap-height="676"
    bbox="-444 -222 1133 957"
    underline-thickness="50"
    underline-position="-100"
    slope="-12"
    unicode-range="U+0020-FB02"
  />
<missing-glyph horiz-adv-x="474" 
d="M388 -217h-300v947h300v-947zM159 667v-32h62v-35h-63v-31h157v31h-62v35h62v32h-156zM158 544v-98h157v32h-62v66h-95zM221 478h-32v34h32v-34zM158 420v-31h63v-35h-63v-31h95v66h62v31h-157zM284 364v-63h-126v-32h157v95h-31zM221 248v-53h32v22h31v-45h-95v76h-31
v-107h157v107h-94zM158 84v-107h157v107h-157zM284 8h-95v45h95v-45zM158 -45v-31h66l-66 -44v-32h157v32h-96l66 44h30v31h-157z" />
    <glyph glyph-name="fi" unicode="fi" horiz-adv-x="571" 
d="M335 736q29 0 56.5 -12t47.5 -34l-22 -19q-23 21 -41.5 28t-45.5 7q-63 0 -101.5 -42t-56.5 -124l-5 -26h227l-7 -30h-227l-102 -484h-32l115 541q41 195 194 195zM533 644q-7 7 -7 18q0 15 10 26t24 11q12 0 19 -7t7 -18q0 -15 -10 -26t-24 -11q-12 0 -19 7zM511 514h32
l-109 -514h-32z" />
    <glyph glyph-name="fl" unicode="fl" horiz-adv-x="623" 
d="M335 736q29 0 56.5 -12t47.5 -34l-22 -19q-23 21 -41.5 28t-45.5 7q-63 0 -101.5 -42t-56.5 -124l-5 -26h227l-7 -30h-227l-102 -484h-32l115 541q41 195 194 195zM452 24q-28 29 -28 83q0 29 5 54l120 565l34 10l-124 -583q-4 -21 -4 -43q0 -42 21 -64t61 -22h21l-6 -29
h-18q-54 0 -82 29z" />
    <glyph glyph-name=".notdef" horiz-adv-x="474" 
d="M388 -217h-300v947h300v-947zM159 667v-32h62v-35h-63v-31h157v31h-62v35h62v32h-156zM158 544v-98h157v32h-62v66h-95zM221 478h-32v34h32v-34zM158 420v-31h63v-35h-63v-31h95v66h62v31h-157zM284 364v-63h-126v-32h157v95h-31zM221 248v-53h32v22h31v-45h-95v76h-31
v-107h157v107h-94zM158 84v-107h157v107h-157zM284 8h-95v45h95v-45zM158 -45v-31h66l-66 -44v-32h157v32h-96l66 44h30v31h-157z" />
    <glyph glyph-name="space" unicode=" " horiz-adv-x="250" 
 />
    <glyph glyph-name="A" unicode="A" horiz-adv-x="605" 
d="M376 676h32l114 -676h-32l-36 216h-320l-128 -216h-34zM449 247l-64 391l-232 -391h296z" />
    <glyph glyph-name="Aacute" unicode="&#xc1;" horiz-adv-x="605" 
d="M376 676h32l114 -676h-32l-36 216h-320l-128 -216h-34zM449 247l-64 391l-232 -391h296zM499 863h50l-141 -117h-42z" />
    <glyph glyph-name="Acircumflex" unicode="&#xc2;" horiz-adv-x="605" 
d="M376 676h32l114 -676h-32l-36 216h-320l-128 -216h-34zM449 247l-64 391l-232 -391h296zM411 863h32l90 -117h-37l-73 89l-110 -89h-42z" />
    <glyph glyph-name="Adieresis" unicode="&#xc4;" horiz-adv-x="605" 
d="M376 676h32l114 -676h-32l-36 216h-320l-128 -216h-34zM449 247l-64 391l-232 -391h296zM308 777.5q-7 7.5 -7 18.5q0 13 10.5 23t24.5 10q12 0 19 -7t7 -18q0 -12 -10 -23t-24 -11q-13 0 -20 7.5zM473 777q-7 7 -7 18q0 14 10 24t24 10q12 0 19.5 -7t7.5 -18
q0 -13 -10 -23.5t-25 -10.5q-12 0 -19 7z" />
    <glyph glyph-name="Agrave" unicode="&#xc0;" horiz-adv-x="605" 
d="M376 676h32l114 -676h-32l-36 216h-320l-128 -216h-34zM449 247l-64 391l-232 -391h296zM311 863h43l84 -117h-36z" />
    <glyph glyph-name="Aring" unicode="&#xc5;" horiz-adv-x="605" 
d="M522 0h-32l-36 216h-320l-128 -216h-34l395 661q-34 11 -56.5 40t-22.5 66q0 46 33.5 77.5t77.5 31.5q29 0 55 -14.5t41.5 -39.5t15.5 -55q0 -43 -29.5 -74t-70.5 -36zM341.5 707.5q23.5 -23.5 57.5 -23.5t58 23.5t24 59.5q0 35 -24 58t-58 23t-57.5 -23t-23.5 -58
q0 -36 23.5 -59.5zM153 247h296l-64 391z" />
    <glyph glyph-name="Atilde" unicode="&#xc3;" horiz-adv-x="605" 
d="M376 676h32l114 -676h-32l-36 216h-320l-128 -216h-34zM449 247l-64 391l-232 -391h296zM445.5 775.5q-16.5 6.5 -29.5 14t-16 9.5q-28 16 -52 16q-23 0 -45 -10.5t-47 -31.5l8 36q24 20 43.5 28.5t43.5 8.5q18 0 33.5 -6t36.5 -17q22 -12 35 -17.5t27 -5.5q28 0 48.5 11
t44.5 32l-8 -38q-23 -18 -41.5 -27t-45.5 -9q-19 0 -35.5 6.5z" />
    <glyph glyph-name="AE" unicode="&#xc6;" horiz-adv-x="929" 
d="M570 676h401l-6 -31h-360l-59 -279h315l-7 -32h-315l-64 -303h371l-7 -31h-403l45 209h-298l-191 -209h-39zM487 240l84 393l-360 -393h276z" />
    <glyph glyph-name="B" unicode="B" horiz-adv-x="562" 
d="M369 676q75 0 120 -41.5t45 -104.5q0 -65 -38 -113t-103 -69q51 -14 80 -54t29 -92q0 -59 -30 -105t-83 -71.5t-120 -25.5h-232l144 676h188zM448 406q56 46 56 122q0 54 -37.5 86.5t-103.5 32.5h-158l-61 -287h156q92 0 148 46zM415 77q56 48 56 126q0 55 -37 91
t-102 36h-195l-64 -301h193q93 0 149 48z" />
    <glyph glyph-name="C" unicode="C" horiz-adv-x="627" 
d="M176.5 22.5q-52.5 32.5 -81 91t-28.5 133.5q0 116 49 217t136 161.5t196 60.5q58 0 105 -25.5t80 -71.5l-23 -18q-35 43 -75 63.5t-90 20.5q-100 0 -179 -56.5t-123 -149.5t-44 -197q0 -103 54.5 -167t149.5 -64q114 0 219 82l18 -24q-111 -89 -240 -89
q-71 0 -123.5 32.5z" />
    <glyph glyph-name="Ccedilla" unicode="&#xc7;" horiz-adv-x="627" 
d="M553 660.5q47 -25.5 80 -71.5l-23 -18q-35 43 -75 63.5t-90 20.5q-100 0 -179 -56.5t-123 -149.5t-44 -197q0 -103 54.5 -167t149.5 -64q114 0 219 82l18 -24q-104 -83 -225 -89q19 -26 19 -57q0 -48 -38 -76.5t-94 -28.5h-19l7 31h16q42 0 68.5 21t26.5 56q0 28 -21 55
q-98 7 -155.5 77t-57.5 179q0 116 49 217t136 161.5t196 60.5q58 0 105 -25.5z" />
    <glyph glyph-name="D" unicode="D" horiz-adv-x="657" 
d="M337 676q82 0 146.5 -33.5t100.5 -95.5t36 -143q0 -112 -50.5 -204t-141.5 -146t-208 -54h-183l144 676h156zM413.5 80.5q83.5 50.5 129 135.5t45.5 184q0 77 -33.5 132.5t-90 84.5t-125.5 29h-132l-132 -616h145q110 0 193.5 50.5z" />
    <glyph glyph-name="Eth" unicode="&#xd0;" horiz-adv-x="677" 
d="M34 331l6 30h94l67 315h156q82 0 146.5 -33.5t100.5 -95.5t36 -143q0 -112 -50.5 -204t-141.5 -146t-208 -54h-183l71 331h-94zM433.5 80.5q83.5 50.5 129 135.5t45.5 184q0 77 -33.5 132.5t-90 84.5t-125.5 29h-132l-61 -285h223l-6 -30h-223l-65 -301h145
q110 0 193.5 50.5z" />
    <glyph glyph-name="E" unicode="E" horiz-adv-x="530" 
d="M181 676h391l-6 -31h-360l-59 -279h315l-7 -32h-315l-64 -303h371l-7 -31h-403z" />
    <glyph glyph-name="Eacute" unicode="&#xc9;" horiz-adv-x="530" 
d="M181 676h391l-6 -31h-360l-59 -279h315l-7 -32h-315l-64 -303h371l-7 -31h-403zM477 863h50l-141 -117h-42z" />
    <glyph glyph-name="Ecircumflex" unicode="&#xca;" horiz-adv-x="530" 
d="M181 676h391l-6 -31h-360l-59 -279h315l-7 -32h-315l-64 -303h371l-7 -31h-403zM389 863h32l90 -117h-37l-73 89l-110 -89h-42z" />
    <glyph glyph-name="Edieresis" unicode="&#xcb;" horiz-adv-x="530" 
d="M181 676h391l-6 -31h-360l-59 -279h315l-7 -32h-315l-64 -303h371l-7 -31h-403zM286 777.5q-7 7.5 -7 18.5q0 13 10.5 23t24.5 10q12 0 19 -7t7 -18q0 -12 -10 -23t-24 -11q-13 0 -20 7.5zM451 777q-7 7 -7 18q0 14 10 24t24 10q12 0 19.5 -7t7.5 -18q0 -13 -10 -23.5
t-25 -10.5q-12 0 -19 7z" />
    <glyph glyph-name="Egrave" unicode="&#xc8;" horiz-adv-x="530" 
d="M181 676h391l-6 -31h-360l-59 -279h315l-7 -32h-315l-64 -303h371l-7 -31h-403zM289 863h43l84 -117h-36z" />
    <glyph glyph-name="F" unicode="F" horiz-adv-x="539" 
d="M181 676h398l-7 -31h-366l-59 -279h318l-7 -32h-318l-71 -334h-32z" />
    <glyph glyph-name="G" unicode="G" horiz-adv-x="648" 
d="M181.5 21.5q-54.5 31.5 -84.5 89t-30 133.5q0 120 49.5 221t138 161t199.5 60q60 0 107.5 -25.5t80.5 -71.5l-23 -18q-35 43 -76 63.5t-93 20.5q-102 0 -182 -55.5t-124.5 -149t-44.5 -201.5q0 -103 57 -165.5t155 -62.5q61 0 109 17t97 51l44 205h-207l6 31h239
l-54 -253q-56 -42 -114 -62t-123 -20q-72 0 -126.5 31.5z" />
    <glyph glyph-name="H" unicode="H" horiz-adv-x="632" 
d="M181 676h32l-66 -310h384l66 310h32l-144 -676h-32l71 335h-384l-71 -335h-32z" />
    <glyph glyph-name="I" unicode="I" horiz-adv-x="216" 
d="M181 676h32l-144 -676h-32z" />
    <glyph glyph-name="Iacute" unicode="&#xcd;" horiz-adv-x="216" 
d="M181 676h32l-144 -676h-32zM307 863h47l-127 -117h-40z" />
    <glyph glyph-name="Icircumflex" unicode="&#xce;" horiz-adv-x="216" 
d="M181 676h32l-144 -676h-32zM218 863h32l90 -117h-37l-73 89l-110 -89h-42z" />
    <glyph glyph-name="Idieresis" unicode="&#xcf;" horiz-adv-x="216" 
d="M181 676h32l-144 -676h-32zM115 777.5q-7 7.5 -7 18.5q0 13 10.5 23t24.5 10q12 0 19 -7t7 -18q0 -12 -10 -23t-24 -11q-13 0 -20 7.5zM280 777q-7 7 -7 18q0 14 10 24t24 10q12 0 19.5 -7t7.5 -18q0 -13 -10 -23.5t-25 -10.5q-12 0 -19 7z" />
    <glyph glyph-name="Igrave" unicode="&#xcc;" horiz-adv-x="216" 
d="M181 676h32l-144 -676h-32zM122 863h40l66 -117h-35z" />
    <glyph glyph-name="J" unicode="J" horiz-adv-x="342" 
d="M7 30q83 0 136.5 44t72.5 135l99 467h32l-100 -468q-23 -110 -85 -159t-165 -49h-30l7 30h33z" />
    <glyph glyph-name="K" unicode="K" horiz-adv-x="612" 
d="M213 676l-66 -310h116q55 0 95 28.5t89 89.5l155 192h37l-170 -210q-37 -45 -64.5 -71t-58.5 -41l188 -354h-36l-182 343q-34 -8 -73 -8h-103l-71 -335h-32l144 676h32z" />
    <glyph glyph-name="L" unicode="L" horiz-adv-x="514" 
d="M181 676h32l-137 -645h356l-6 -31h-389z" />
    <glyph glyph-name="M" unicode="M" horiz-adv-x="814" 
d="M181 676h29l167 -493l400 493h33l-143 -676h-32l133 620l-384 -473h-26l-160 468l-130 -615h-31z" />
    <glyph glyph-name="N" unicode="N" horiz-adv-x="641" 
d="M181 676h25l271 -615l130 615h31l-144 -676h-24l-271 616l-131 -616h-31z" />
    <glyph glyph-name="Ntilde" unicode="&#xd1;" horiz-adv-x="641" 
d="M181 676h25l271 -615l130 615h31l-144 -676h-24l-271 616l-131 -616h-31zM451.5 775.5q-16.5 6.5 -29.5 14t-16 9.5q-28 16 -52 16q-23 0 -45 -10.5t-47 -31.5l8 36q24 20 43.5 28.5t43.5 8.5q18 0 33.5 -6t36.5 -17q22 -12 35 -17.5t27 -5.5q28 0 48.5 11t44.5 32
l-8 -38q-23 -18 -41.5 -27t-45.5 -9q-19 0 -35.5 6.5z" />
    <glyph glyph-name="O" unicode="O" horiz-adv-x="711" 
d="M178 22q-54 32 -83 90.5t-29 134.5q0 111 50.5 212.5t137 164t188.5 62.5q72 0 125.5 -32t83 -90t29.5 -134q0 -111 -51 -213t-137.5 -164.5t-187.5 -62.5q-72 0 -126 32zM476.5 80q78.5 59 125 153t46.5 193q0 68 -25.5 120t-72.5 80.5t-110 28.5q-94 0 -173 -58.5
t-124 -151.5t-45 -192q0 -68 25 -120.5t72 -82t111 -29.5q92 0 170.5 59z" />
    <glyph glyph-name="Oacute" unicode="&#xd3;" horiz-adv-x="711" 
d="M178 22q-54 32 -83 90.5t-29 134.5q0 111 50.5 212.5t137 164t188.5 62.5q72 0 125.5 -32t83 -90t29.5 -134q0 -111 -51 -213t-137.5 -164.5t-187.5 -62.5q-72 0 -126 32zM476.5 80q78.5 59 125 153t46.5 193q0 68 -25.5 120t-72.5 80.5t-110 28.5q-94 0 -173 -58.5
t-124 -151.5t-45 -192q0 -68 25 -120.5t72 -82t111 -29.5q92 0 170.5 59zM540 863h50l-141 -117h-42z" />
    <glyph glyph-name="Ocircumflex" unicode="&#xd4;" horiz-adv-x="711" 
d="M178 22q-54 32 -83 90.5t-29 134.5q0 111 50.5 212.5t137 164t188.5 62.5q72 0 125.5 -32t83 -90t29.5 -134q0 -111 -51 -213t-137.5 -164.5t-187.5 -62.5q-72 0 -126 32zM476.5 80q78.5 59 125 153t46.5 193q0 68 -25.5 120t-72.5 80.5t-110 28.5q-94 0 -173 -58.5
t-124 -151.5t-45 -192q0 -68 25 -120.5t72 -82t111 -29.5q92 0 170.5 59zM452 863h32l90 -117h-37l-73 89l-110 -89h-42z" />
    <glyph glyph-name="Odieresis" unicode="&#xd6;" horiz-adv-x="711" 
d="M178 22q-54 32 -83 90.5t-29 134.5q0 111 50.5 212.5t137 164t188.5 62.5q72 0 125.5 -32t83 -90t29.5 -134q0 -111 -51 -213t-137.5 -164.5t-187.5 -62.5q-72 0 -126 32zM476.5 80q78.5 59 125 153t46.5 193q0 68 -25.5 120t-72.5 80.5t-110 28.5q-94 0 -173 -58.5
t-124 -151.5t-45 -192q0 -68 25 -120.5t72 -82t111 -29.5q92 0 170.5 59zM349 777.5q-7 7.5 -7 18.5q0 13 10.5 23t24.5 10q12 0 19 -7t7 -18q0 -12 -10 -23t-24 -11q-13 0 -20 7.5zM514 777q-7 7 -7 18q0 14 10 24t24 10q12 0 19.5 -7t7.5 -18q0 -13 -10 -23.5t-25 -10.5
q-12 0 -19 7z" />
    <glyph glyph-name="Ograve" unicode="&#xd2;" horiz-adv-x="711" 
d="M178 22q-54 32 -83 90.5t-29 134.5q0 111 50.5 212.5t137 164t188.5 62.5q72 0 125.5 -32t83 -90t29.5 -134q0 -111 -51 -213t-137.5 -164.5t-187.5 -62.5q-72 0 -126 32zM476.5 80q78.5 59 125 153t46.5 193q0 68 -25.5 120t-72.5 80.5t-110 28.5q-94 0 -173 -58.5
t-124 -151.5t-45 -192q0 -68 25 -120.5t72 -82t111 -29.5q92 0 170.5 59zM352 863h43l84 -117h-36z" />
    <glyph glyph-name="Oslash" unicode="&#xd8;" horiz-adv-x="711" 
d="M66 247q0 111 50.5 212.5t137 164t188.5 62.5q54 0 98.5 -18.5t76.5 -53.5l86 90h40l-108 -113q45 -67 45 -161q0 -111 -51 -213t-137.5 -164.5t-187.5 -62.5q-109 0 -175 72l-87 -91h-41l110 115q-45 65 -45 161zM527.5 638q-39.5 17 -87.5 17q-94 0 -173 -58.5
t-124 -151.5t-45 -192q0 -83 37 -142l459 479q-27 31 -66.5 48zM476.5 80q78.5 59 125 153t46.5 193q0 83 -37 140l-458 -479q57 -66 153 -66q92 0 170.5 59z" />
    <glyph glyph-name="Otilde" unicode="&#xd5;" horiz-adv-x="711" 
d="M178 22q-54 32 -83 90.5t-29 134.5q0 111 50.5 212.5t137 164t188.5 62.5q72 0 125.5 -32t83 -90t29.5 -134q0 -111 -51 -213t-137.5 -164.5t-187.5 -62.5q-72 0 -126 32zM476.5 80q78.5 59 125 153t46.5 193q0 68 -25.5 120t-72.5 80.5t-110 28.5q-94 0 -173 -58.5
t-124 -151.5t-45 -192q0 -68 25 -120.5t72 -82t111 -29.5q92 0 170.5 59zM486.5 775.5q-16.5 6.5 -29.5 14t-16 9.5q-28 16 -52 16q-23 0 -45 -10.5t-47 -31.5l8 36q24 20 43.5 28.5t43.5 8.5q18 0 33.5 -6t36.5 -17q22 -12 35 -17.5t27 -5.5q28 0 48.5 11t44.5 32l-8 -38
q-23 -18 -41.5 -27t-45.5 -9q-19 0 -35.5 6.5z" />
    <glyph glyph-name="OE" unicode="&#x152;" horiz-adv-x="1060" 
d="M178 22q-54 32 -83 90.5t-29 134.5q0 111 50.5 212.5t137 164t188.5 62.5q92 0 152.5 -53t77.5 -142l39 185h391l-6 -31h-360l-59 -279h315l-7 -32h-315l-64 -303h371l-7 -31h-403l39 181q-53 -87 -132 -139t-170 -52q-72 0 -126 32zM476.5 80q78.5 59 125 153t46.5 193
q0 68 -25.5 120t-72.5 80.5t-110 28.5q-94 0 -173 -58.5t-124 -151.5t-45 -192q0 -68 25 -120.5t72 -82t111 -29.5q92 0 170.5 59z" />
    <glyph glyph-name="P" unicode="P" horiz-adv-x="566" 
d="M363 676q60 0 105 -21t69.5 -58t24.5 -84q0 -72 -34 -125.5t-94 -81.5t-136 -28h-171l-59 -278h-31l144 676h182zM468 363q62 54 62 150q0 62 -45.5 97t-125.5 35h-154l-71 -336h161q111 0 173 54z" />
    <glyph glyph-name="Thorn" unicode="&#xde;" horiz-adv-x="569" 
d="M212 676l-22 -103h151q60 0 105 -21t69.5 -58t24.5 -84q0 -72 -34 -125.5t-94 -81.5t-136 -28h-171l-37 -175h-31l144 676h31zM446 260q62 54 62 150q0 62 -45.5 97t-125.5 35h-154l-71 -336h161q111 0 173 54z" />
    <glyph glyph-name="Q" unicode="Q" horiz-adv-x="711" 
d="M304 -10q-72 0 -126 32t-83 90.5t-29 134.5q0 111 50.5 212.5t137 164t188.5 62.5q72 0 125.5 -32t83 -90t29.5 -134q0 -105 -46.5 -203t-123.5 -161l85 -136l-28 -16l-83 134q-83 -58 -180 -58zM468 74l-77 124l26 16l76 -121q71 58 113 148t42 185q0 68 -25.5 120
t-72.5 80.5t-110 28.5q-94 0 -173 -58.5t-124 -151.5t-45 -192q0 -68 25 -120.5t72 -82t111 -29.5q85 0 162 53z" />
    <glyph glyph-name="R" unicode="R" horiz-adv-x="574" 
d="M364 676q86 0 137.5 -40.5t51.5 -110.5q0 -84 -55 -141t-144 -72q32 -14 54.5 -49t42.5 -101l50 -162h-34l-42 138q-20 66 -35 97.5t-47 50t-91 18.5h-119l-64 -304h-32l144 676h183zM457 385q64 51 64 141q0 58 -42 88.5t-120 30.5h-154l-66 -311h148q106 0 170 51z" />
    <glyph glyph-name="S" unicode="S" horiz-adv-x="562" 
d="M120 15q-58 25 -100 75l24 20q41 -45 93.5 -67t112.5 -22q59 0 102.5 20t66.5 54.5t23 78.5q0 51 -34.5 87t-116.5 70q-94 39 -134 78t-40 99q0 55 32 95.5t83 61.5t106 21q66 0 117 -23.5t91 -72.5l-24 -19q-44 49 -85.5 66.5t-102.5 17.5q-52 0 -94.5 -18.5t-67 -51
t-24.5 -73.5q0 -54 38 -86.5t123 -67.5q85 -34 125 -77t40 -104q0 -54 -27 -96.5t-79 -66.5t-123 -24q-67 0 -125 25z" />
    <glyph glyph-name="Scaron" unicode="&#x160;" horiz-adv-x="562" 
d="M120 15q-58 25 -100 75l24 20q41 -45 93.5 -67t112.5 -22q59 0 102.5 20t66.5 54.5t23 78.5q0 51 -34.5 87t-116.5 70q-94 39 -134 78t-40 99q0 55 32 95.5t83 61.5t106 21q66 0 117 -23.5t91 -72.5l-24 -19q-44 49 -85.5 66.5t-102.5 17.5q-52 0 -94.5 -18.5t-67 -51
t-24.5 -73.5q0 -54 38 -86.5t123 -67.5q85 -34 125 -77t40 -104q0 -54 -27 -96.5t-79 -66.5t-123 -24q-67 0 -125 25zM248 863h37l73 -89l110 89h42l-140 -117h-32z" />
    <glyph glyph-name="uni1E9E" unicode="&#x1e9e;" horiz-adv-x="642" 
d="M163 71l22 20q37 -37 72.5 -53.5t84.5 -16.5q59 0 106 22t73.5 62t26.5 90q0 64 -42.5 104t-121.5 40h-54l5 24l233 231q-26 28 -65.5 45.5t-89.5 17.5q-108 0 -172 -64t-93 -202l-83 -391h-32l83 390q32 151 106.5 223.5t190.5 72.5q66 0 114.5 -26.5t78.5 -64.5
l-231 -228h9q56 0 101 -21t70 -60t25 -91q0 -59 -32 -105.5t-86 -73t-119 -26.5q-108 0 -180 81z" />
    <glyph glyph-name="T" unicode="T" horiz-adv-x="591" 
d="M362 645h-241l6 31h514l-7 -31h-240l-137 -645h-32z" />
    <glyph glyph-name="U" unicode="U" horiz-adv-x="649" 
d="M136.5 46.5q-52.5 56.5 -52.5 158.5q0 52 11 103l78 368h32l-79 -370q-11 -48 -11 -98q0 -89 43.5 -138t128.5 -49q97 0 162 74.5t95 212.5l78 368h32l-79 -371q-33 -152 -106.5 -233.5t-183.5 -81.5q-96 0 -148.5 56.5z" />
    <glyph glyph-name="Uacute" unicode="&#xda;" horiz-adv-x="649" 
d="M136.5 46.5q-52.5 56.5 -52.5 158.5q0 52 11 103l78 368h32l-79 -370q-11 -48 -11 -98q0 -89 43.5 -138t128.5 -49q97 0 162 74.5t95 212.5l78 368h32l-79 -371q-33 -152 -106.5 -233.5t-183.5 -81.5q-96 0 -148.5 56.5zM509 863h50l-141 -117h-42z" />
    <glyph glyph-name="Ucircumflex" unicode="&#xdb;" horiz-adv-x="649" 
d="M136.5 46.5q-52.5 56.5 -52.5 158.5q0 52 11 103l78 368h32l-79 -370q-11 -48 -11 -98q0 -89 43.5 -138t128.5 -49q97 0 162 74.5t95 212.5l78 368h32l-79 -371q-33 -152 -106.5 -233.5t-183.5 -81.5q-96 0 -148.5 56.5zM421 863h32l90 -117h-37l-73 89l-110 -89h-42z
" />
    <glyph glyph-name="Udieresis" unicode="&#xdc;" horiz-adv-x="649" 
d="M136.5 46.5q-52.5 56.5 -52.5 158.5q0 52 11 103l78 368h32l-79 -370q-11 -48 -11 -98q0 -89 43.5 -138t128.5 -49q97 0 162 74.5t95 212.5l78 368h32l-79 -371q-33 -152 -106.5 -233.5t-183.5 -81.5q-96 0 -148.5 56.5zM318 777.5q-7 7.5 -7 18.5q0 13 10.5 23t24.5 10
q12 0 19 -7t7 -18q0 -12 -10 -23t-24 -11q-13 0 -20 7.5zM483 777q-7 7 -7 18q0 14 10 24t24 10q12 0 19.5 -7t7.5 -18q0 -13 -10 -23.5t-25 -10.5q-12 0 -19 7z" />
    <glyph glyph-name="Ugrave" unicode="&#xd9;" horiz-adv-x="649" 
d="M136.5 46.5q-52.5 56.5 -52.5 158.5q0 52 11 103l78 368h32l-79 -370q-11 -48 -11 -98q0 -89 43.5 -138t128.5 -49q97 0 162 74.5t95 212.5l78 368h32l-79 -371q-33 -152 -106.5 -233.5t-183.5 -81.5q-96 0 -148.5 56.5zM321 863h43l84 -117h-36z" />
    <glyph glyph-name="V" unicode="V" horiz-adv-x="599" 
d="M115 676h32l103 -633l378 633h33l-402 -676h-32z" />
    <glyph glyph-name="W" unicode="W" horiz-adv-x="908" 
d="M125 676h31l45 -633l321 593h32l58 -593l318 633h33l-341 -676h-33l-61 592l-319 -592h-33z" />
    <glyph glyph-name="Wacute" unicode="&#x1e82;" horiz-adv-x="908" 
d="M125 676h31l45 -633l321 593h32l58 -593l318 633h33l-341 -676h-33l-61 592l-319 -592h-33zM645 863h50l-141 -117h-42z" />
    <glyph glyph-name="Wcircumflex" unicode="&#x174;" horiz-adv-x="908" 
d="M125 676h31l45 -633l321 593h32l58 -593l318 633h33l-341 -676h-33l-61 592l-319 -592h-33zM557 863h32l90 -117h-37l-73 89l-110 -89h-42z" />
    <glyph glyph-name="Wdieresis" unicode="&#x1e84;" horiz-adv-x="908" 
d="M125 676h31l45 -633l321 593h32l58 -593l318 633h33l-341 -676h-33l-61 592l-319 -592h-33zM454 777.5q-7 7.5 -7 18.5q0 13 10.5 23t24.5 10q12 0 19 -7t7 -18q0 -12 -10 -23t-24 -11q-13 0 -20 7.5zM619 777q-7 7 -7 18q0 14 10 24t24 10q12 0 19.5 -7t7.5 -18
q0 -13 -10 -23.5t-25 -10.5q-12 0 -19 7z" />
    <glyph glyph-name="Wgrave" unicode="&#x1e80;" horiz-adv-x="908" 
d="M125 676h31l45 -633l321 593h32l58 -593l318 633h33l-341 -676h-33l-61 592l-319 -592h-33zM457 863h43l84 -117h-36z" />
    <glyph glyph-name="X" unicode="X" horiz-adv-x="610" 
d="M305 362l-153 314h36l141 -295l268 295h39l-293 -321l174 -355h-37l-161 333l-298 -333h-39z" />
    <glyph glyph-name="Y" unicode="Y" horiz-adv-x="510" 
d="M239 267l-132 409h31l122 -379l284 379h35l-310 -413l-55 -263h-32z" />
    <glyph glyph-name="Yacute" unicode="&#xdd;" horiz-adv-x="510" 
d="M239 267l-132 409h31l122 -379l284 379h35l-310 -413l-55 -263h-32zM432 863h50l-141 -117h-42z" />
    <glyph glyph-name="Ycircumflex" unicode="&#x176;" horiz-adv-x="510" 
d="M239 267l-132 409h31l122 -379l284 379h35l-310 -413l-55 -263h-32zM344 863h32l90 -117h-37l-73 89l-110 -89h-42z" />
    <glyph glyph-name="Ydieresis" unicode="&#x178;" horiz-adv-x="510" 
d="M239 267l-132 409h31l122 -379l284 379h35l-310 -413l-55 -263h-32zM241 777.5q-7 7.5 -7 18.5q0 13 10.5 23t24.5 10q12 0 19 -7t7 -18q0 -12 -10 -23t-24 -11q-13 0 -20 7.5zM406 777q-7 7 -7 18q0 14 10 24t24 10q12 0 19.5 -7t7.5 -18q0 -13 -10 -23.5t-25 -10.5
q-12 0 -19 7z" />
    <glyph glyph-name="Ygrave" unicode="&#x1ef2;" horiz-adv-x="510" 
d="M239 267l-132 409h31l122 -379l284 379h35l-310 -413l-55 -263h-32zM244 863h43l84 -117h-36z" />
    <glyph glyph-name="Z" unicode="Z" horiz-adv-x="580" 
d="M-7 26l579 619h-432l7 31h475l-4 -25l-578 -620h457l-7 -31h-502z" />
    <glyph glyph-name="Zcaron" unicode="&#x17d;" horiz-adv-x="580" 
d="M-7 26l579 619h-432l7 31h475l-4 -25l-578 -620h457l-7 -31h-502zM281 863h37l73 -89l110 89h42l-140 -117h-32z" />
    <glyph glyph-name="a" unicode="a" horiz-adv-x="511" 
d="M55 23.5q-33 33.5 -33 83.5q0 79 62 124.5t162 45.5h162l8 36q6 30 6 65q0 56 -31.5 85.5t-92.5 29.5q-42 0 -85 -18t-81 -52l-18 21q40 37 89.5 58t97.5 21q73 0 112.5 -38.5t39.5 -107.5q0 -31 -8 -70l-65 -307h-22l10 84q-48 -43 -106.5 -68.5t-117.5 -25.5
q-56 0 -89 33.5zM268.5 47q58.5 27 107.5 75l26 126h-160q-86 0 -137.5 -37t-51.5 -103q0 -38 26 -63t70 -25q61 0 119.5 27z" />
    <glyph glyph-name="aacute" unicode="&#xe1;" horiz-adv-x="511" 
d="M55 23.5q-33 33.5 -33 83.5q0 79 62 124.5t162 45.5h162l8 36q6 30 6 65q0 56 -31.5 85.5t-92.5 29.5q-42 0 -85 -18t-81 -52l-18 21q40 37 89.5 58t97.5 21q73 0 112.5 -38.5t39.5 -107.5q0 -31 -8 -70l-65 -307h-22l10 84q-48 -43 -106.5 -68.5t-117.5 -25.5
q-56 0 -89 33.5zM268.5 47q58.5 27 107.5 75l26 126h-160q-86 0 -137.5 -37t-51.5 -103q0 -38 26 -63t70 -25q61 0 119.5 27zM407 725h50l-142 -126h-41z" />
    <glyph glyph-name="acircumflex" unicode="&#xe2;" horiz-adv-x="511" 
d="M55 23.5q-33 33.5 -33 83.5q0 79 62 124.5t162 45.5h162l8 36q6 30 6 65q0 56 -31.5 85.5t-92.5 29.5q-42 0 -85 -18t-81 -52l-18 21q40 37 89.5 58t97.5 21q73 0 112.5 -38.5t39.5 -107.5q0 -31 -8 -70l-65 -307h-22l10 84q-48 -43 -106.5 -68.5t-117.5 -25.5
q-56 0 -89 33.5zM268.5 47q58.5 27 107.5 75l26 126h-160q-86 0 -137.5 -37t-51.5 -103q0 -38 26 -63t70 -25q61 0 119.5 27zM322 725h29l88 -126h-35l-72 98l-112 -98h-39z" />
    <glyph glyph-name="adieresis" unicode="&#xe4;" horiz-adv-x="511" 
d="M55 23.5q-33 33.5 -33 83.5q0 79 62 124.5t162 45.5h162l8 36q6 30 6 65q0 56 -31.5 85.5t-92.5 29.5q-42 0 -85 -18t-81 -52l-18 21q40 37 89.5 58t97.5 21q73 0 112.5 -38.5t39.5 -107.5q0 -31 -8 -70l-65 -307h-22l10 84q-48 -43 -106.5 -68.5t-117.5 -25.5
q-56 0 -89 33.5zM268.5 47q58.5 27 107.5 75l26 126h-160q-86 0 -137.5 -37t-51.5 -103q0 -38 26 -63t70 -25q61 0 119.5 27zM220 644q-7 7 -7 18q0 15 10 26t24 11q12 0 19 -7t7 -18q0 -15 -10 -26t-24 -11q-12 0 -19 7zM384 644q-7 7 -7 18q0 15 10 26t24 11q12 0 19 -7
t7 -18q0 -15 -10 -26t-24 -11q-12 0 -19 7z" />
    <glyph glyph-name="agrave" unicode="&#xe0;" horiz-adv-x="511" 
d="M55 23.5q-33 33.5 -33 83.5q0 79 62 124.5t162 45.5h162l8 36q6 30 6 65q0 56 -31.5 85.5t-92.5 29.5q-42 0 -85 -18t-81 -52l-18 21q40 37 89.5 58t97.5 21q73 0 112.5 -38.5t39.5 -107.5q0 -31 -8 -70l-65 -307h-22l10 84q-48 -43 -106.5 -68.5t-117.5 -25.5
q-56 0 -89 33.5zM268.5 47q58.5 27 107.5 75l26 126h-160q-86 0 -137.5 -37t-51.5 -103q0 -38 26 -63t70 -25q61 0 119.5 27zM221 725h42l80 -126h-34z" />
    <glyph glyph-name="aring" unicode="&#xe5;" horiz-adv-x="511" 
d="M55 23.5q-33 33.5 -33 83.5q0 79 62 124.5t162 45.5h162l8 36q6 30 6 65q0 56 -31.5 85.5t-92.5 29.5q-42 0 -85 -18t-81 -52l-18 21q40 37 89.5 58t97.5 21q73 0 112.5 -38.5t39.5 -107.5q0 -31 -8 -70l-65 -307h-22l10 84q-48 -43 -106.5 -68.5t-117.5 -25.5
q-56 0 -89 33.5zM268.5 47q58.5 27 107.5 75l26 126h-160q-86 0 -137.5 -37t-51.5 -103q0 -38 26 -63t70 -25q61 0 119.5 27zM250.5 624.5q-33.5 32.5 -33.5 78.5t33.5 77.5t77.5 31.5q29 0 55 -14.5t41.5 -39.5t15.5 -55q0 -47 -33.5 -79t-78.5 -32q-44 0 -77.5 32.5z
M386 643.5q24 23.5 24 59.5q0 35 -24 58t-58 23t-57.5 -23t-23.5 -58q0 -36 23.5 -59.5t57.5 -23.5t58 23.5z" />
    <glyph glyph-name="atilde" unicode="&#xe3;" horiz-adv-x="511" 
d="M55 23.5q-33 33.5 -33 83.5q0 79 62 124.5t162 45.5h162l8 36q6 30 6 65q0 56 -31.5 85.5t-92.5 29.5q-42 0 -85 -18t-81 -52l-18 21q40 37 89.5 58t97.5 21q73 0 112.5 -38.5t39.5 -107.5q0 -31 -8 -70l-65 -307h-22l10 84q-48 -43 -106.5 -68.5t-117.5 -25.5
q-56 0 -89 33.5zM268.5 47q58.5 27 107.5 75l26 126h-160q-86 0 -137.5 -37t-51.5 -103q0 -38 26 -63t70 -25q61 0 119.5 27zM354.5 629.5q-14.5 6.5 -39.5 21.5q-34 21 -59 21q-23 0 -44 -11t-48 -33l8 36q24 20 43.5 29t43.5 9q18 0 33.5 -6.5t41.5 -21.5q18 -10 31 -15.5
t26 -5.5q27 0 47.5 11.5t45.5 33.5l-8 -38q-23 -19 -42 -28t-45 -9q-20 0 -34.5 6.5z" />
    <glyph glyph-name="ae" unicode="&#xe6;" horiz-adv-x="893" 
d="M57.5 23.5q-35.5 33.5 -35.5 83.5q0 81 62 127.5t162 46.5h164l6 32q6 30 6 65q0 56 -31.5 85.5t-92.5 29.5q-42 0 -85 -18t-81 -52l-18 21q40 37 89.5 58t97.5 21q72 0 111.5 -37.5t40.5 -105.5q40 65 100 104t131 39q78 0 123.5 -46.5t45.5 -128.5q0 -41 -12 -88l-2 -8
h-403q-7 -31 -7 -66q0 -78 42.5 -122t117.5 -44q80 0 162 62l18 -22q-91 -70 -181 -70q-70 0 -117 31.5t-64 89.5q-51 -54 -119.5 -87.5t-133.5 -33.5q-61 0 -96.5 33.5zM820 343q0 71 -36.5 111t-104.5 40q-83 0 -147 -61t-90 -152h371q7 39 7 62zM285.5 52.5
q63.5 32.5 114.5 88.5q-3 21 -3 42q0 37 7 69h-162q-86 0 -137.5 -38.5t-51.5 -105.5q0 -38 28 -63t78 -25q63 0 126.5 32.5z" />
    <glyph glyph-name="b" unicode="b" horiz-adv-x="560" 
d="M134.5 13.5q-41.5 21.5 -65.5 50.5l-21 -64h-22l154 726l34 10l-63 -296q46 39 96.5 61t96.5 22q79 0 126 -53.5t47 -137.5q0 -91 -37.5 -169t-105 -124.5t-153.5 -46.5q-45 0 -86.5 21.5zM359 64.5q61 42.5 93.5 113t32.5 153.5q0 73 -38.5 117.5t-104.5 44.5
q-49 0 -100.5 -25t-98.5 -69l-66 -309q66 -68 140 -68q81 0 142 42.5z" />
    <glyph glyph-name="c" unicode="c" horiz-adv-x="509" 
d="M92.5 42.5q-49.5 52.5 -49.5 141.5q0 88 39 166t108 125.5t154 47.5q40 0 78 -18.5t64 -55.5l-23 -18q-47 62 -121 62q-76 0 -137 -43.5t-95.5 -114.5t-34.5 -149q0 -76 41 -121t114 -45q87 0 169 62l17 -22q-87 -70 -189 -70q-85 0 -134.5 52.5z" />
    <glyph glyph-name="ccedilla" unicode="&#xe7;" horiz-adv-x="509" 
d="M422 504.5q38 -18.5 64 -55.5l-23 -18q-47 62 -121 62q-76 0 -137 -43.5t-95.5 -114.5t-34.5 -149q0 -76 41 -121t114 -45q87 0 169 62l17 -22q-84 -67 -182 -70q19 -26 19 -57q0 -48 -37.5 -76.5t-93.5 -28.5h-19l7 30h16q42 0 68.5 21t26.5 57q0 27 -21 56
q-73 8 -115 59.5t-42 132.5q0 88 39 166t108 125.5t154 47.5q40 0 78 -18.5z" />
    <glyph glyph-name="d" unicode="d" horiz-adv-x="560" 
d="M90 44.5q-47 54.5 -47 138.5q0 91 37.5 169t105 124.5t153.5 46.5q43 0 83.5 -20t66.5 -48l57 271l34 10l-156 -736h-22l8 75q-46 -40 -97 -62.5t-97 -22.5q-79 0 -126 54.5zM318 45q51 25 98 69l66 311q-28 31 -63.5 49.5t-75.5 18.5q-81 0 -142 -42t-93.5 -113
t-32.5 -154q0 -73 39 -118.5t104 -45.5q49 0 100 25z" />
    <glyph glyph-name="eth" unicode="&#xf0;" horiz-adv-x="564" 
d="M90.5 43q-51.5 53 -51.5 139q0 83 39 156.5t106.5 118t148.5 44.5q51 0 98 -21t70 -49q-4 94 -53 173l-146 -41l7 30l123 35q-40 56 -107 101l35 8q57 -39 101 -101l124 35l-6 -30l-103 -29q57 -94 57 -206q0 -61 -14 -124q-18 -85 -59.5 -151t-101 -103.5t-128.5 -37.5
q-88 0 -139.5 53zM342.5 53.5q53.5 33.5 91.5 94t54 138.5q13 61 14 109q-29 33 -73 54.5t-94 21.5q-74 0 -134.5 -40t-95 -106t-34.5 -139q0 -74 42 -120t117 -46q59 0 112.5 33.5z" />
    <glyph glyph-name="e" unicode="e" horiz-adv-x="538" 
d="M93.5 41q-50.5 51 -50.5 142q0 87 38 165.5t104 126.5t145 48q78 0 123.5 -46.5t45.5 -128.5q0 -39 -12 -86l-2 -8h-403q-7 -32 -7 -68q0 -78 42.5 -122t117.5 -44q80 0 162 62l18 -22q-91 -70 -181 -70t-140.5 51zM466 343q0 71 -36.5 111t-104.5 40q-83 0 -146.5 -60.5
t-89.5 -150.5h370q7 39 7 60z" />
    <glyph glyph-name="eacute" unicode="&#xe9;" horiz-adv-x="538" 
d="M93.5 41q-50.5 51 -50.5 142q0 87 38 165.5t104 126.5t145 48q78 0 123.5 -46.5t45.5 -128.5q0 -39 -12 -86l-2 -8h-403q-7 -32 -7 -68q0 -78 42.5 -122t117.5 -44q80 0 162 62l18 -22q-91 -70 -181 -70t-140.5 51zM466 343q0 71 -36.5 111t-104.5 40q-83 0 -146.5 -60.5
t-89.5 -150.5h370q7 39 7 60zM431 725h50l-142 -126h-41z" />
    <glyph glyph-name="ecircumflex" unicode="&#xea;" horiz-adv-x="538" 
d="M93.5 41q-50.5 51 -50.5 142q0 87 38 165.5t104 126.5t145 48q78 0 123.5 -46.5t45.5 -128.5q0 -39 -12 -86l-2 -8h-403q-7 -32 -7 -68q0 -78 42.5 -122t117.5 -44q80 0 162 62l18 -22q-91 -70 -181 -70t-140.5 51zM466 343q0 71 -36.5 111t-104.5 40q-83 0 -146.5 -60.5
t-89.5 -150.5h370q7 39 7 60zM346 725h29l88 -126h-35l-72 98l-112 -98h-39z" />
    <glyph glyph-name="edieresis" unicode="&#xeb;" horiz-adv-x="538" 
d="M93.5 41q-50.5 51 -50.5 142q0 87 38 165.5t104 126.5t145 48q78 0 123.5 -46.5t45.5 -128.5q0 -39 -12 -86l-2 -8h-403q-7 -32 -7 -68q0 -78 42.5 -122t117.5 -44q80 0 162 62l18 -22q-91 -70 -181 -70t-140.5 51zM466 343q0 71 -36.5 111t-104.5 40q-83 0 -146.5 -60.5
t-89.5 -150.5h370q7 39 7 60zM244 644q-7 7 -7 18q0 15 10 26t24 11q12 0 19 -7t7 -18q0 -15 -10 -26t-24 -11q-12 0 -19 7zM408 644q-7 7 -7 18q0 15 10 26t24 11q12 0 19 -7t7 -18q0 -15 -10 -26t-24 -11q-12 0 -19 7z" />
    <glyph glyph-name="egrave" unicode="&#xe8;" horiz-adv-x="538" 
d="M93.5 41q-50.5 51 -50.5 142q0 87 38 165.5t104 126.5t145 48q78 0 123.5 -46.5t45.5 -128.5q0 -39 -12 -86l-2 -8h-403q-7 -32 -7 -68q0 -78 42.5 -122t117.5 -44q80 0 162 62l18 -22q-91 -70 -181 -70t-140.5 51zM466 343q0 71 -36.5 111t-104.5 40q-83 0 -146.5 -60.5
t-89.5 -150.5h370q7 39 7 60zM245 725h42l80 -126h-34z" />
    <glyph glyph-name="f" unicode="f" horiz-adv-x="374" 
d="M335 736q29 0 56.5 -12t47.5 -34l-22 -19q-23 21 -41.5 28t-45.5 7q-63 0 -101.5 -42t-56.5 -124l-5 -26h227l-7 -30h-227l-102 -484h-32l115 541q41 195 194 195z" />
    <glyph glyph-name="g" unicode="g" horiz-adv-x="552" 
d="M60 -199q-49 23 -80 60l22 21q31 -35 73.5 -54.5t92.5 -19.5q86 0 142.5 52.5t75.5 143.5l18 84q-45 -39 -96 -61t-96 -22q-52 0 -91.5 25.5t-60.5 68.5t-21 94q0 89 37.5 164.5t105 120.5t153.5 45q43 0 83 -20t66 -48l20 59h22l-109 -513q-23 -105 -88 -164t-162 -59
q-58 0 -107 23zM314.5 60q51.5 25 97.5 69l63 299q-29 29 -63.5 47t-72.5 18q-81 0 -142 -40.5t-93.5 -109t-32.5 -149.5q0 -68 39.5 -113.5t103.5 -45.5q49 0 100.5 25z" />
    <glyph glyph-name="h" unicode="h" horiz-adv-x="551" 
d="M214 736l-66 -310q52 51 105 74t101 23q65 0 102 -39t37 -106q0 -36 -12 -91l-61 -287h-32l61 285q12 53 12 91q0 53 -28 85t-86 32q-100 0 -208 -109l-81 -384h-32l154 726z" />
    <glyph glyph-name="i" unicode="i" horiz-adv-x="197" 
d="M137 514h32l-109 -514h-32zM159 644q-7 7 -7 18q0 15 10 26t24 11q12 0 19 -7t7 -18q0 -15 -10 -26t-24 -11q-12 0 -19 7z" />
    <glyph glyph-name="dotlessi" unicode="&#x131;" horiz-adv-x="197" 
d="M137 514h32l-109 -514h-32z" />
    <glyph glyph-name="iacute" unicode="&#xed;" horiz-adv-x="197" 
d="M137 514h32l-109 -514h-32zM266 725h47l-128 -126h-39z" />
    <glyph glyph-name="icircumflex" unicode="&#xee;" horiz-adv-x="197" 
d="M137 514h32l-109 -514h-32zM179 725h29l88 -126h-35l-72 98l-112 -98h-39z" />
    <glyph glyph-name="idieresis" unicode="&#xef;" horiz-adv-x="197" 
d="M137 514h32l-109 -514h-32zM77 644q-7 7 -7 18q0 15 10 26t24 11q12 0 19 -7t7 -18q0 -15 -10 -26t-24 -11q-12 0 -19 7zM241 644q-7 7 -7 18q0 15 10 26t24 11q12 0 19 -7t7 -18q0 -15 -10 -26t-24 -11q-12 0 -19 7z" />
    <glyph glyph-name="igrave" unicode="&#xec;" horiz-adv-x="197" 
d="M137 514h32l-109 -514h-32zM81 725h40l66 -126h-34z" />
    <glyph glyph-name="j" unicode="j" horiz-adv-x="197" 
d="M-118 -182q57 0 89 32.5t46 97.5l120 566h32l-120 -566q-18 -82 -59 -121.5t-113 -39.5h-20l7 31h18zM159 644q-7 7 -7 18q0 15 10 26t24 11q12 0 19 -7t7 -18q0 -15 -10 -26t-24 -11q-12 0 -19 7z" />
    <glyph glyph-name="uni0237" unicode="&#x237;" horiz-adv-x="197" 
d="M-118 -182q57 0 89 32.5t46 97.5l120 566h32l-120 -566q-18 -82 -59 -121.5t-113 -39.5h-20l7 31h18z" />
    <glyph glyph-name="k" unicode="k" horiz-adv-x="513" 
d="M214 736l-97 -456h93q40 0 74.5 21.5t74.5 68.5l123 144h38l-136 -159q-52 -62 -97 -85l157 -270h-38l-149 258q-22 -7 -50 -7h-96l-53 -251h-32l154 726z" />
    <glyph glyph-name="l" unicode="l" horiz-adv-x="249" 
d="M78 24q-28 29 -28 83q0 29 5 54l120 565l34 10l-124 -583q-4 -21 -4 -43q0 -42 21 -64t61 -22h21l-6 -29h-18q-54 0 -82 29z" />
    <glyph glyph-name="m" unicode="m" horiz-adv-x="855" 
d="M157 514l-10 -89q50 49 101 73.5t90 24.5q47 0 80 -25t44 -70q50 49 103.5 72t99.5 23q61 0 97 -36t36 -106q0 -36 -8 -71l-66 -310h-32l65 305q9 47 9 72q0 116 -107 116q-45 0 -94.5 -24t-98.5 -71q1 -4 1 -16q0 -36 -8 -70l-66 -312h-32l65 306q9 44 9 76
q0 50 -25 80.5t-77 30.5q-42 0 -92.5 -28t-101.5 -81l-81 -384h-32l109 514h22z" />
    <glyph glyph-name="n" unicode="n" horiz-adv-x="551" 
d="M157 514l-9 -89q51 51 104 74.5t102 23.5q65 0 102 -39t37 -106q0 -36 -12 -91l-61 -287h-32l61 285q12 53 12 91q0 53 -28 85t-86 32q-100 0 -208 -109l-81 -384h-32l109 514h22z" />
    <glyph glyph-name="ntilde" unicode="&#xf1;" horiz-adv-x="551" 
d="M157 514l-9 -89q51 51 104 74.5t102 23.5q65 0 102 -39t37 -106q0 -36 -12 -91l-61 -287h-32l61 285q12 53 12 91q0 53 -28 85t-86 32q-100 0 -208 -109l-81 -384h-32l109 514h22zM380.5 629.5q-14.5 6.5 -39.5 21.5q-34 21 -59 21q-23 0 -44 -11t-48 -33l8 36
q24 20 43.5 29t43.5 9q18 0 33.5 -6.5t41.5 -21.5q18 -10 31 -15.5t26 -5.5q27 0 47.5 11.5t45.5 33.5l-8 -38q-23 -19 -42 -28t-45 -9q-20 0 -34.5 6.5z" />
    <glyph glyph-name="o" unicode="o" horiz-adv-x="567" 
d="M92.5 44q-49.5 54 -49.5 142q0 86 40 164t107.5 125.5t146.5 47.5q87 0 137 -53.5t50 -140.5t-40 -165t-108 -126t-147 -48q-87 0 -136.5 54zM361 65q60 45 95.5 115.5t35.5 144.5q0 76 -41.5 122t-114.5 46q-72 0 -132 -44t-94.5 -114t-34.5 -144q0 -77 41.5 -124
t113.5 -47q71 0 131 45z" />
    <glyph glyph-name="oacute" unicode="&#xf3;" horiz-adv-x="567" 
d="M92.5 44q-49.5 54 -49.5 142q0 86 40 164t107.5 125.5t146.5 47.5q87 0 137 -53.5t50 -140.5t-40 -165t-108 -126t-147 -48q-87 0 -136.5 54zM361 65q60 45 95.5 115.5t35.5 144.5q0 76 -41.5 122t-114.5 46q-72 0 -132 -44t-94.5 -114t-34.5 -144q0 -77 41.5 -124
t113.5 -47q71 0 131 45zM442 725h50l-142 -126h-41z" />
    <glyph glyph-name="ocircumflex" unicode="&#xf4;" horiz-adv-x="567" 
d="M92.5 44q-49.5 54 -49.5 142q0 86 40 164t107.5 125.5t146.5 47.5q87 0 137 -53.5t50 -140.5t-40 -165t-108 -126t-147 -48q-87 0 -136.5 54zM361 65q60 45 95.5 115.5t35.5 144.5q0 76 -41.5 122t-114.5 46q-72 0 -132 -44t-94.5 -114t-34.5 -144q0 -77 41.5 -124
t113.5 -47q71 0 131 45zM357 725h29l88 -126h-35l-72 98l-112 -98h-39z" />
    <glyph glyph-name="odieresis" unicode="&#xf6;" horiz-adv-x="567" 
d="M92.5 44q-49.5 54 -49.5 142q0 86 40 164t107.5 125.5t146.5 47.5q87 0 137 -53.5t50 -140.5t-40 -165t-108 -126t-147 -48q-87 0 -136.5 54zM361 65q60 45 95.5 115.5t35.5 144.5q0 76 -41.5 122t-114.5 46q-72 0 -132 -44t-94.5 -114t-34.5 -144q0 -77 41.5 -124
t113.5 -47q71 0 131 45zM255 644q-7 7 -7 18q0 15 10 26t24 11q12 0 19 -7t7 -18q0 -15 -10 -26t-24 -11q-12 0 -19 7zM419 644q-7 7 -7 18q0 15 10 26t24 11q12 0 19 -7t7 -18q0 -15 -10 -26t-24 -11q-12 0 -19 7z" />
    <glyph glyph-name="ograve" unicode="&#xf2;" horiz-adv-x="567" 
d="M92.5 44q-49.5 54 -49.5 142q0 86 40 164t107.5 125.5t146.5 47.5q87 0 137 -53.5t50 -140.5t-40 -165t-108 -126t-147 -48q-87 0 -136.5 54zM361 65q60 45 95.5 115.5t35.5 144.5q0 76 -41.5 122t-114.5 46q-72 0 -132 -44t-94.5 -114t-34.5 -144q0 -77 41.5 -124
t113.5 -47q71 0 131 45zM256 725h42l80 -126h-34z" />
    <glyph glyph-name="oslash" unicode="&#xf8;" horiz-adv-x="567" 
d="M43 186q0 86 40 164t107.5 125.5t146.5 47.5q80 0 128 -45l64 69h40l-84 -91q39 -51 39 -127q0 -87 -40 -165t-108 -126t-147 -48q-82 0 -130 48l-66 -71h-39l86 93q-37 51 -37 126zM336 493q-72 0 -132 -44t-94.5 -114t-34.5 -144q0 -62 28 -106l340 369q-41 39 -107 39
zM361 65q60 45 95.5 115.5t35.5 144.5q0 65 -30 107l-341 -370q40 -42 109 -42q71 0 131 45z" />
    <glyph glyph-name="otilde" unicode="&#xf5;" horiz-adv-x="567" 
d="M92.5 44q-49.5 54 -49.5 142q0 86 40 164t107.5 125.5t146.5 47.5q87 0 137 -53.5t50 -140.5t-40 -165t-108 -126t-147 -48q-87 0 -136.5 54zM361 65q60 45 95.5 115.5t35.5 144.5q0 76 -41.5 122t-114.5 46q-72 0 -132 -44t-94.5 -114t-34.5 -144q0 -77 41.5 -124
t113.5 -47q71 0 131 45zM389.5 629.5q-14.5 6.5 -39.5 21.5q-34 21 -59 21q-23 0 -44 -11t-48 -33l8 36q24 20 43.5 29t43.5 9q18 0 33.5 -6.5t41.5 -21.5q18 -10 31 -15.5t26 -5.5q27 0 47.5 11.5t45.5 33.5l-8 -38q-23 -19 -42 -28t-45 -9q-20 0 -34.5 6.5z" />
    <glyph glyph-name="oe" unicode="&#x153;" horiz-adv-x="972" 
d="M92.5 44q-49.5 54 -49.5 142q0 86 40 164t107.5 125.5t146.5 47.5q78 0 126.5 -44t57.5 -118q39 73 103 117.5t140 44.5q78 0 123.5 -46.5t45.5 -128.5q0 -39 -12 -86l-2 -8h-403q-7 -32 -7 -68q0 -78 42.5 -122t117.5 -44q80 0 162 62l18 -22q-91 -70 -181 -70
q-82 0 -132 43.5t-58 121.5q-40 -74 -106 -119.5t-143 -45.5q-87 0 -136.5 54zM900 343q0 71 -36.5 111t-104.5 40q-83 0 -146.5 -60.5t-89.5 -150.5h370q7 39 7 60zM361 65q60 45 95.5 115.5t35.5 144.5q0 76 -41.5 122t-114.5 46q-72 0 -132 -44t-94.5 -114t-34.5 -144
q0 -77 41.5 -124t113.5 -47q71 0 131 45z" />
    <glyph glyph-name="p" unicode="p" horiz-adv-x="560" 
d="M157 514l-8 -77q46 40 97.5 63t97.5 23q79 0 126 -53.5t47 -137.5q0 -91 -37.5 -169t-105 -124.5t-153.5 -46.5q-44 0 -85.5 19.5t-64.5 46.5l-57 -267l-35 -10l156 733h22zM359 64.5q61 42.5 93.5 113t32.5 153.5q0 73 -38.5 117.5t-104.5 44.5q-49 0 -100.5 -25
t-98.5 -69l-66 -312q28 -30 64 -47.5t76 -17.5q81 0 142 42.5z" />
    <glyph glyph-name="thorn" unicode="&#xfe;" horiz-adv-x="560" 
d="M214 736l-63 -297q45 39 96 61.5t97 22.5q79 0 126 -53.5t47 -137.5q0 -91 -37.5 -169t-105 -124.5t-153.5 -46.5q-44 0 -85.5 19.5t-64.5 46.5l-57 -267l-35 -10l201 945zM359 64.5q61 42.5 93.5 113t32.5 153.5q0 74 -38.5 118t-104.5 44q-49 0 -100.5 -25t-98.5 -69
l-66 -312q28 -30 64 -47.5t76 -17.5q81 0 142 42.5z" />
    <glyph glyph-name="q" unicode="q" horiz-adv-x="560" 
d="M313 12.5q-51 -22.5 -97 -22.5q-79 0 -126 54.5t-47 138.5q0 91 37.5 169t105 124.5t153.5 46.5q44 0 86 -21t66 -50l21 62h22l-154 -723l-33 -10l62 293q-45 -39 -96 -61.5zM318.5 45q51.5 25 99.5 70l65 310q-66 68 -140 68q-81 0 -142 -42t-93.5 -113t-32.5 -154
q0 -73 39 -118.5t104 -45.5q49 0 100.5 25z" />
    <glyph glyph-name="r" unicode="r" horiz-adv-x="351" 
d="M157 514l-9 -89q53 51 108.5 73.5t106.5 22.5h15l-7 -31h-15q-110 0 -216 -106l-82 -384h-32l109 514h22z" />
    <glyph glyph-name="s" unicode="s" horiz-adv-x="480" 
d="M92 12q-52 22 -82 62l23 18q29 -36 75 -53.5t101 -17.5q67 0 107 31t40 79q0 39 -27 66t-93 52q-74 28 -106.5 58.5t-32.5 77.5q0 42 25 73.5t65.5 48t85.5 16.5q52 0 92 -18t72 -55l-23 -18q-36 36 -67 49t-77 13q-57 0 -99 -28.5t-43 -76.5q0 -30 14.5 -49.5
t40.5 -33.5t72 -31q68 -26 100.5 -59.5t32.5 -80.5q0 -64 -49.5 -104.5t-133.5 -40.5q-61 0 -113 22z" />
    <glyph glyph-name="scaron" unicode="&#x161;" horiz-adv-x="480" 
d="M92 12q-52 22 -82 62l23 18q29 -36 75 -53.5t101 -17.5q67 0 107 31t40 79q0 39 -27 66t-93 52q-74 28 -106.5 58.5t-32.5 77.5q0 42 25 73.5t65.5 48t85.5 16.5q52 0 92 -18t72 -55l-23 -18q-36 36 -67 49t-77 13q-57 0 -99 -28.5t-43 -76.5q0 -30 14.5 -49.5
t40.5 -33.5t72 -31q68 -26 100.5 -59.5t32.5 -80.5q0 -64 -49.5 -104.5t-133.5 -40.5q-61 0 -113 22zM196 725h35l72 -98l112 98h39l-141 -126h-29z" />
    <glyph glyph-name="germandbls" unicode="&#xdf;" horiz-adv-x="602" 
d="M162 65l21 18q31 -32 65.5 -47t85.5 -15q72 0 117.5 31.5t45.5 88.5q0 40 -24 67t-67 48q-9 4 -42.5 20t-51 37.5t-17.5 49.5q0 35 20.5 58.5t62.5 53.5l17 12q8 6 39.5 28t47 46.5t15.5 53.5q0 38 -36 64.5t-93 26.5q-76 0 -129.5 -52.5t-73.5 -147.5l-107 -506h-32
l108 509q22 105 86.5 166t150.5 61q45 0 80.5 -16t55.5 -43t20 -59q0 -36 -15.5 -62t-33.5 -41t-67 -51l-17 -12q-35 -24 -52.5 -42.5t-17.5 -45.5q0 -25 19 -39.5t43.5 -25.5t32.5 -15q110 -51 110 -141q0 -74 -55 -113.5t-142 -39.5q-107 0 -170 75z" />
    <glyph glyph-name="t" unicode="t" horiz-adv-x="378" 
d="M92 25q-33 33 -33 94q0 26 6 56l99 466l34 10l-29 -137h213l-6 -30h-213l-67 -313q-6 -27 -6 -50q0 -48 25 -73t73 -25q26 0 46.5 6.5t43.5 20.5l15 -24q-50 -34 -105 -34q-63 0 -96 33z" />
    <glyph glyph-name="u" unicode="u" horiz-adv-x="546" 
d="M92 30q-36 39 -36 106q0 36 12 91l61 287h32l-61 -285q-12 -53 -12 -91q0 -53 27 -85t84 -32q100 0 206 109l82 384h32l-109 -514h-22l9 89q-51 -51 -104 -74.5t-101 -23.5q-64 0 -100 39z" />
    <glyph glyph-name="uacute" unicode="&#xfa;" horiz-adv-x="546" 
d="M92 30q-36 39 -36 106q0 36 12 91l61 287h32l-61 -285q-12 -53 -12 -91q0 -53 27 -85t84 -32q100 0 206 109l82 384h32l-109 -514h-22l9 89q-51 -51 -104 -74.5t-101 -23.5q-64 0 -100 39zM422 725h50l-142 -126h-41z" />
    <glyph glyph-name="ucircumflex" unicode="&#xfb;" horiz-adv-x="546" 
d="M92 30q-36 39 -36 106q0 36 12 91l61 287h32l-61 -285q-12 -53 -12 -91q0 -53 27 -85t84 -32q100 0 206 109l82 384h32l-109 -514h-22l9 89q-51 -51 -104 -74.5t-101 -23.5q-64 0 -100 39zM337 725h29l88 -126h-35l-72 98l-112 -98h-39z" />
    <glyph glyph-name="udieresis" unicode="&#xfc;" horiz-adv-x="546" 
d="M92 30q-36 39 -36 106q0 36 12 91l61 287h32l-61 -285q-12 -53 -12 -91q0 -53 27 -85t84 -32q100 0 206 109l82 384h32l-109 -514h-22l9 89q-51 -51 -104 -74.5t-101 -23.5q-64 0 -100 39zM235 644q-7 7 -7 18q0 15 10 26t24 11q12 0 19 -7t7 -18q0 -15 -10 -26t-24 -11
q-12 0 -19 7zM399 644q-7 7 -7 18q0 15 10 26t24 11q12 0 19 -7t7 -18q0 -15 -10 -26t-24 -11q-12 0 -19 7z" />
    <glyph glyph-name="ugrave" unicode="&#xf9;" horiz-adv-x="546" 
d="M92 30q-36 39 -36 106q0 36 12 91l61 287h32l-61 -285q-12 -53 -12 -91q0 -53 27 -85t84 -32q100 0 206 109l82 384h32l-109 -514h-22l9 89q-51 -51 -104 -74.5t-101 -23.5q-64 0 -100 39zM236 725h42l80 -126h-34z" />
    <glyph glyph-name="v" unicode="v" horiz-adv-x="501" 
d="M77 514h33l92 -475l297 475h35l-322 -514h-34z" />
    <glyph glyph-name="w" unicode="w" horiz-adv-x="746" 
d="M88 514h33l40 -471l245 429h33l53 -429l241 471h34l-267 -514h-32l-55 431l-244 -431h-32z" />
    <glyph glyph-name="wacute" unicode="&#x1e83;" horiz-adv-x="746" 
d="M88 514h33l40 -471l245 429h33l53 -429l241 471h34l-267 -514h-32l-55 431l-244 -431h-32zM531 725h50l-142 -126h-41z" />
    <glyph glyph-name="wcircumflex" unicode="&#x175;" horiz-adv-x="746" 
d="M88 514h33l40 -471l245 429h33l53 -429l241 471h34l-267 -514h-32l-55 431l-244 -431h-32zM446 725h29l88 -126h-35l-72 98l-112 -98h-39z" />
    <glyph glyph-name="wdieresis" unicode="&#x1e85;" horiz-adv-x="746" 
d="M88 514h33l40 -471l245 429h33l53 -429l241 471h34l-267 -514h-32l-55 431l-244 -431h-32zM344 644q-7 7 -7 18q0 15 10 26t24 11q12 0 19 -7t7 -18q0 -15 -10 -26t-24 -11q-12 0 -19 7zM508 644q-7 7 -7 18q0 15 10 26t24 11q12 0 19 -7t7 -18q0 -15 -10 -26t-24 -11
q-12 0 -19 7z" />
    <glyph glyph-name="wgrave" unicode="&#x1e81;" horiz-adv-x="746" 
d="M88 514h33l40 -471l245 429h33l53 -429l241 471h34l-267 -514h-32l-55 431l-244 -431h-32zM345 725h42l80 -126h-34z" />
    <glyph glyph-name="x" unicode="x" horiz-adv-x="505" 
d="M235 274l-125 240h36l113 -219l206 219h39l-231 -245l140 -269h-37l-128 248l-229 -248h-39z" />
    <glyph glyph-name="y" unicode="y" horiz-adv-x="499" 
d="M-12 -182q48 0 86.5 29.5t74.5 88.5l45 75l-119 503h34l107 -466l281 466h35l-358 -592q-43 -72 -86.5 -103.5t-106.5 -31.5h-16l6 31h17z" />
    <glyph glyph-name="yacute" unicode="&#xfd;" horiz-adv-x="499" 
d="M-12 -182q48 0 86.5 29.5t74.5 88.5l45 75l-119 503h34l107 -466l281 466h35l-358 -592q-43 -72 -86.5 -103.5t-106.5 -31.5h-16l6 31h17zM406 725h50l-142 -126h-41z" />
    <glyph glyph-name="ycircumflex" unicode="&#x177;" horiz-adv-x="499" 
d="M-12 -182q48 0 86.5 29.5t74.5 88.5l45 75l-119 503h34l107 -466l281 466h35l-358 -592q-43 -72 -86.5 -103.5t-106.5 -31.5h-16l6 31h17zM321 725h29l88 -126h-35l-72 98l-112 -98h-39z" />
    <glyph glyph-name="ydieresis" unicode="&#xff;" horiz-adv-x="499" 
d="M-12 -182q48 0 86.5 29.5t74.5 88.5l45 75l-119 503h34l107 -466l281 466h35l-358 -592q-43 -72 -86.5 -103.5t-106.5 -31.5h-16l6 31h17zM219 644q-7 7 -7 18q0 15 10 26t24 11q12 0 19 -7t7 -18q0 -15 -10 -26t-24 -11q-12 0 -19 7zM383 644q-7 7 -7 18q0 15 10 26
t24 11q12 0 19 -7t7 -18q0 -15 -10 -26t-24 -11q-12 0 -19 7z" />
    <glyph glyph-name="ygrave" unicode="&#x1ef3;" horiz-adv-x="499" 
d="M-12 -182q48 0 86.5 29.5t74.5 88.5l45 75l-119 503h34l107 -466l281 466h35l-358 -592q-43 -72 -86.5 -103.5t-106.5 -31.5h-16l6 31h17zM220 725h42l80 -126h-34z" />
    <glyph glyph-name="z" unicode="z" horiz-adv-x="489" 
d="M1 25l444 459h-339l6 30h383l-5 -25l-442 -459h351l-6 -30h-397z" />
    <glyph glyph-name="zcaron" unicode="&#x17e;" horiz-adv-x="489" 
d="M1 25l444 459h-339l6 30h383l-5 -25l-442 -459h351l-6 -30h-397zM204 725h35l72 -98l112 98h39l-141 -126h-29z" />
    <glyph glyph-name="ordfeminine" unicode="&#xaa;" horiz-adv-x="370" 
d="M87.5 319q-24.5 24 -24.5 63q0 59 47.5 91t120.5 32h118l5 24q5 21 5 45q0 81 -88 81q-64 0 -123 -50l-18 19q31 28 69 43t74 15q113 0 113 -105q0 -24 -6 -54l-47 -221h-18l4 59q-35 -30 -77 -48t-85 -18q-45 0 -69.5 24zM247.5 342.5q44.5 20.5 78.5 54.5l17 82h-116
q-61 0 -98 -25t-37 -71q0 -26 18.5 -43.5t50.5 -17.5q42 0 86.5 20.5z" />
    <glyph glyph-name="ordmasculine" unicode="&#xba;" horiz-adv-x="425" 
d="M123 335.5q-38 40.5 -38 107.5q0 62 29 117t78 88.5t107 33.5q64 0 102 -40.5t38 -106.5q0 -60 -28.5 -115.5t-77.5 -90t-108 -34.5q-64 0 -102 40.5zM318.5 354q42.5 31 66.5 80.5t24 100.5q0 54 -30 87t-82 33t-93.5 -30.5t-65 -79.5t-23.5 -102q0 -54 29.5 -87
t80.5 -33t93.5 31z" />
    <glyph glyph-name="uni03BC" unicode="&#x3bc;" horiz-adv-x="552" 
d="M167 514l-63 -294q-10 -47 -10 -79q0 -120 114 -120q95 0 203 108l82 385h32l-109 -514h-22l9 88q-52 -51 -104 -74t-99 -23q-49 0 -81 21.5t-45 59.5l-60 -281l-35 -10l156 733h32z" />
    <glyph glyph-name="zero" unicode="0" horiz-adv-x="600" 
d="M114 54q-51 64 -51 168q0 109 39.5 212t111 167.5t160.5 64.5q59 0 102.5 -29.5t67 -83t23.5 -121.5q0 -105 -40 -208t-112 -168.5t-162 -65.5q-88 0 -139 64zM400.5 82.5q64.5 61.5 99.5 157.5t35 193q0 90 -43.5 146t-118.5 56q-83 0 -146.5 -61t-97.5 -156t-34 -193
q0 -90 41.5 -147t116.5 -57q83 0 147.5 61.5z" />
    <glyph glyph-name="one" unicode="1" horiz-adv-x="340" 
d="M273 622l-171 -56l6 30l178 61h26l-139 -657h-32z" />
    <glyph glyph-name="two" unicode="2" horiz-adv-x="538" 
d="M341 296q51 43 80.5 71.5t49 64t19.5 76.5q0 57 -38 92t-109 35q-56 0 -102 -20t-94 -64l-20 21q99 94 219 94q84 0 130 -44t46 -112q0 -64 -40.5 -117t-117.5 -116l-301 -246h367l-6 -31h-414l5 26z" />
    <glyph glyph-name="three" unicode="3" horiz-adv-x="539" 
d="M96.5 13.5q-58.5 23.5 -93.5 61.5l23 20q32 -34 82.5 -54t107.5 -20q95 0 154.5 46t59.5 129q0 68 -47 106.5t-131 38.5h-44l4 24l276 261h-349l7 31h391l-6 -27l-276 -260q96 -2 151.5 -47.5t55.5 -125.5q0 -65 -32 -111.5t-87.5 -71t-125.5 -24.5q-62 0 -120.5 23.5z
" />
    <glyph glyph-name="four" unicode="4" horiz-adv-x="579" 
d="M384 187h-351l5 23l446 447h30l-93 -440h103l-7 -30h-102l-40 -187h-31zM390 217l84 392l-390 -392h306z" />
    <glyph glyph-name="five" unicode="5" horiz-adv-x="533" 
d="M102 14q-53 24 -84 61l22 20q32 -34 77 -54t103 -20q93 0 150 51.5t57 136.5q0 64 -43 102t-120 38h-152l4 21l107 287h295l-6 -31h-270l-92 -247h115q90 0 142 -46t52 -122q0 -66 -31 -116t-85.5 -77.5t-124.5 -27.5q-63 0 -116 24z" />
    <glyph glyph-name="six" unicode="6" horiz-adv-x="553" 
d="M117 47q-51 57 -51 153q0 43 12 110q20 110 64.5 190.5t108 123t137.5 42.5q46 0 86.5 -19.5t68.5 -59.5l-23 -18q-26 34 -58.5 50t-77.5 16q-96 0 -166.5 -77t-103.5 -216q99 49 197 49q81 0 129.5 -49t48.5 -128q0 -63 -30.5 -114.5t-83.5 -80.5t-117 -29
q-90 0 -141 57zM362 45.5q45 25.5 70.5 69.5t25.5 99q0 67 -40.5 107t-109.5 40q-109 0 -201 -53q-11 -53 -11 -107q0 -84 43.5 -132.5t120.5 -48.5q57 0 102 25.5z" />
    <glyph glyph-name="seven" unicode="7" horiz-adv-x="536" 
d="M526 626h-396l7 31h431l-5 -27l-418 -630h-38z" />
    <glyph glyph-name="eight" unicode="8" horiz-adv-x="590" 
d="M106 35q-60 45 -60 121q0 66 51.5 119t137.5 88q-46 26 -70 58.5t-24 78.5q0 50 31.5 87.5t84 58t115.5 20.5q57 0 100.5 -19.5t67.5 -53.5t24 -75q0 -124 -169 -196q55 -29 82 -64.5t27 -86.5q0 -54 -32 -95.5t-86.5 -63.5t-119.5 -22q-100 0 -160 45zM485.5 409
q48.5 47 48.5 109q0 51 -45.5 84.5t-119.5 33.5q-85 0 -141.5 -36t-56.5 -99q0 -51 34.5 -82.5t110.5 -61.5q35 -14 47 -20q74 25 122.5 72zM370.5 39q47.5 19 75 53t27.5 78q0 58 -41 92.5t-130 69.5q-22 8 -37 16q-79 -28 -133.5 -79.5t-54.5 -111.5q0 -65 54.5 -101
t135.5 -36q56 0 103.5 19z" />
    <glyph glyph-name="nine" unicode="9" horiz-adv-x="553" 
d="M111.5 9q-42.5 19 -71.5 56l23 18q54 -62 138 -62q197 0 263 304q-99 -51 -195 -51q-85 0 -134 49t-49 127q0 63 30.5 112.5t83.5 76.5t117 27q57 0 100.5 -27t67.5 -74.5t24 -106.5q0 -65 -11 -120q-33 -170 -109 -259t-193 -89q-42 0 -84.5 19zM471 359q8 49 8 99
q0 78 -45 128t-119 50q-57 0 -102 -23t-70.5 -64.5t-25.5 -96.5q0 -66 41 -107t114 -41q104 0 199 55z" />
    <glyph glyph-name="zero.zero" horiz-adv-x="600" 
d="M476.5 636.5q43.5 -29.5 67 -83t23.5 -121.5q0 -105 -40 -208t-112 -168.5t-162 -65.5q-88 0 -139 64t-51 168q0 109 39.5 212t111 167.5t160.5 64.5q59 0 102.5 -29.5zM226.5 574q-63.5 -61 -97.5 -156t-34 -193q0 -54 15 -96l396 428q-21 37 -55 57.5t-78 20.5
q-83 0 -146.5 -61zM400.5 82.5q64.5 61.5 99.5 157.5t35 193q0 55 -16 96l-396 -429q20 -38 53 -58.5t77 -20.5q83 0 147.5 61.5z" />
    <glyph glyph-name="zero.tf" 
d="M147 19.5q-42 29.5 -64.5 82t-22.5 120.5q0 109 39.5 212t109.5 167.5t158 64.5q57 0 100 -29.5t66 -83t23 -121.5q0 -105 -39.5 -208t-110.5 -168.5t-160 -65.5q-57 0 -99 29.5zM390.5 82.5q63.5 61.5 98.5 157.5t35 193q0 90 -43 146t-115 56q-81 0 -143.5 -61
t-96.5 -156t-34 -193q0 -90 41 -147t113 -57q81 0 144.5 61.5z" />
    <glyph glyph-name="one.tf" 
d="M409 622l-197 -63l6 28l203 70h27l-139 -657h-32z" />
    <glyph glyph-name="two.tf" 
d="M356 296q51 43 80.5 71.5t49 64t19.5 76.5q0 57 -38 92t-109 35q-56 0 -102 -20t-94 -64l-20 21q99 94 219 94q84 0 130 -44t46 -112q0 -64 -40.5 -117t-117.5 -116l-301 -246h367l-6 -31h-414l5 26z" />
    <glyph glyph-name="three.tf" 
d="M116.5 13.5q-58.5 23.5 -93.5 61.5l23 20q32 -34 82.5 -54t107.5 -20q95 0 154.5 46t59.5 129q0 68 -47 106.5t-131 38.5h-44l4 24l276 261h-349l7 31h391l-6 -27l-276 -260q96 -2 151.5 -47.5t55.5 -125.5q0 -65 -32 -111.5t-87.5 -71t-125.5 -24.5q-62 0 -120.5 23.5z
" />
    <glyph glyph-name="four.tf" 
d="M387 187h-354l4 21l450 449h30l-93 -440h103l-7 -30h-102l-40 -187h-31zM393 217l84 394l-394 -394h310z" />
    <glyph glyph-name="five.tf" 
d="M134 14q-53 24 -84 61l22 20q32 -34 77 -54t103 -20q93 0 150 51.5t57 136.5q0 64 -43 102t-120 38h-152l4 21l107 287h295l-6 -31h-270l-92 -247h115q90 0 142 -46t52 -122q0 -66 -31 -116t-85.5 -77.5t-124.5 -27.5q-63 0 -116 24z" />
    <glyph glyph-name="six.tf" 
d="M142 47q-51 57 -51 153q0 43 12 110q20 110 64.5 190.5t108 123t137.5 42.5q46 0 86.5 -19.5t68.5 -59.5l-23 -18q-26 34 -58.5 50t-77.5 16q-96 0 -166.5 -77t-103.5 -216q99 49 197 49q81 0 129.5 -49t48.5 -128q0 -63 -30.5 -114.5t-83.5 -80.5t-117 -29
q-90 0 -141 57zM387 45.5q45 25.5 70.5 69.5t25.5 99q0 67 -40.5 107t-109.5 40q-109 0 -201 -53q-11 -53 -11 -107q0 -84 43.5 -132.5t120.5 -48.5q57 0 102 25.5z" />
    <glyph glyph-name="seven.tf" 
d="M547 626h-396l7 31h431l-5 -27l-418 -630h-38z" />
    <glyph glyph-name="eight.tf" 
d="M106 35q-60 45 -60 121q0 66 51.5 119t137.5 88q-46 26 -70 58.5t-24 78.5q0 50 31.5 87.5t84 58t115.5 20.5q57 0 100.5 -19.5t67.5 -53.5t24 -75q0 -124 -169 -196q55 -29 82 -64.5t27 -86.5q0 -54 -32 -95.5t-86.5 -63.5t-119.5 -22q-100 0 -160 45zM485.5 409
q48.5 47 48.5 109q0 51 -45.5 84.5t-119.5 33.5q-85 0 -141.5 -36t-56.5 -99q0 -51 34.5 -82.5t110.5 -61.5q35 -14 47 -20q74 25 122.5 72zM370.5 39q47.5 19 75 53t27.5 78q0 58 -41 92.5t-130 69.5q-22 8 -37 16q-79 -28 -133.5 -79.5t-54.5 -111.5q0 -65 54.5 -101
t135.5 -36q56 0 103.5 19z" />
    <glyph glyph-name="nine.tf" 
d="M132.5 9q-42.5 19 -71.5 56l23 18q54 -62 138 -62q197 0 263 304q-99 -51 -195 -51q-85 0 -134 49t-49 127q0 63 30.5 112.5t83.5 76.5t117 27q57 0 100.5 -27t67.5 -74.5t24 -106.5q0 -65 -11 -120q-33 -170 -109 -259t-193 -89q-42 0 -84.5 19zM492 359q8 49 8 99
q0 78 -45 128t-119 50q-57 0 -102 -23t-70.5 -64.5t-25.5 -96.5q0 -66 41 -107t114 -41q104 0 199 55z" />
    <glyph glyph-name="zero.tf.zero" 
d="M467 636.5q43 -29.5 66 -83t23 -121.5q0 -105 -39.5 -208t-110.5 -168.5t-160 -65.5q-57 0 -99 29.5t-64.5 82t-22.5 120.5q0 109 39.5 212t109.5 167.5t158 64.5q57 0 100 -29.5zM222.5 574q-62.5 -61 -96.5 -156t-34 -193q0 -51 13 -89l390 421q-20 37 -53 57.5
t-76 20.5q-81 0 -143.5 -61zM390.5 82.5q63.5 61.5 98.5 157.5t35 193q0 52 -16 97l-392 -424q19 -40 52.5 -62.5t77.5 -22.5q81 0 144.5 61.5z" />
    <glyph glyph-name="zero.subs" horiz-adv-x="398" 
d="M45 -45.5q-32 37.5 -32 99.5q0 60 24 116t67 91t97 35t87 -37.5t33 -99.5q0 -59 -24 -115t-67 -91.5t-98 -35.5t-87 37.5zM216 -22q36 32 55.5 81.5t19.5 100.5q0 50 -24.5 79t-66.5 29q-47 0 -83 -31.5t-55.5 -81.5t-19.5 -101q0 -50 24.5 -79t66.5 -29q47 0 83 32z" />
    <glyph glyph-name="one.subs" horiz-adv-x="277" 
d="M150 260l-99 -28l5 26l108 33h22l-78 -367h-29z" />
    <glyph glyph-name="two.subs" horiz-adv-x="370" 
d="M177 88q49 38 69 62t20 56q0 27 -21.5 45t-60.5 18q-32 0 -59 -12t-56 -36l-17 21q64 55 134 55q52 0 81 -27t29 -67q0 -37 -24.5 -65t-70.5 -64l-161 -124h206l-5 -26h-253l4 20z" />
    <glyph glyph-name="three.subs" horiz-adv-x="391" 
d="M58 -68q-37 15 -58 41l19 19q21 -22 51 -34.5t64 -12.5q50 0 81.5 24t31.5 65q0 35 -26 54.5t-72 19.5h-36l3 20l151 135h-196l6 28h239l-4 -21l-154 -137q54 -2 86.5 -28.5t32.5 -70.5q0 -52 -41 -84.5t-102 -32.5q-39 0 -76 15z" />
    <glyph glyph-name="four.subs" horiz-adv-x="407" 
d="M213 25h-208l3 19l262 247h28l-51 -240h61l-5 -26h-62l-21 -101h-28zM219 51l42 199l-211 -199h169z" />
    <glyph glyph-name="five.subs" horiz-adv-x="384" 
d="M55.5 -68q-32.5 15 -51.5 38l21 17q18 -19 44.5 -30.5t56.5 -11.5q52 0 83.5 25.5t31.5 69.5q0 34 -24.5 53.5t-67.5 19.5h-94l3 17l54 161h188l-5 -28h-166l-41 -124h60q56 0 89.5 -27t33.5 -71q0 -57 -40.5 -90.5t-105.5 -33.5q-37 0 -69.5 15z" />
    <glyph glyph-name="six.subs" horiz-adv-x="399" 
d="M64.5 -49q-33.5 34 -33.5 91q0 28 7 61q19 93 68.5 143t117.5 50q62 0 98 -45l-20 -17q-16 18 -35 26t-45 8q-55 0 -94 -38t-57 -107q56 25 111 25q49 0 79.5 -29t30.5 -73q0 -36 -18.5 -65.5t-51 -46.5t-70.5 -17q-54 0 -87.5 34zM232 -26.5q30 28.5 30 71.5
q0 33 -23 54.5t-62 21.5q-63 0 -112 -27q-6 -27 -6 -50q0 -46 25.5 -72.5t69.5 -26.5q48 0 78 28.5z" />
    <glyph glyph-name="seven.subs" horiz-adv-x="382" 
d="M289 264h-227l6 27h264l-4 -18l-243 -349h-34z" />
    <glyph glyph-name="eight.subs" horiz-adv-x="417" 
d="M54 -57q-37 26 -37 69q0 35 27.5 64.5t74.5 48.5q-50 29 -50 74q0 42 41.5 69.5t98.5 27.5q53 0 86.5 -24t33.5 -61q0 -67 -89 -107q29 -16 43.5 -35.5t14.5 -47.5q0 -47 -42.5 -75.5t-103.5 -28.5t-98 26zM275.5 153.5q25.5 23.5 25.5 54.5q0 27 -26 44.5t-67 17.5
q-47 0 -79 -19.5t-32 -51.5q0 -26 21 -42t66 -31l26 -9q40 13 65.5 36.5zM236.5 -34q33.5 22 33.5 55q0 31 -25 49t-77 35l-20 7q-44 -15 -73 -40.5t-29 -56.5q0 -33 31 -52t77 -19q49 0 82.5 22z" />
    <glyph glyph-name="nine.subs" horiz-adv-x="395" 
d="M61 -72.5q-27 10.5 -46 33.5l19 18q30 -34 80 -34q57 0 94.5 39t52.5 117q-56 -28 -114 -28q-51 0 -81 29.5t-30 73.5q0 53 39.5 86.5t99.5 33.5q52 0 85 -35t35 -90q0 -34 -4 -62q-15 -92 -60.5 -142t-113.5 -50q-29 0 -56 10.5zM266 130q1 14 1 40q-2 44 -27.5 71
t-67.5 27q-48 0 -77.5 -25t-29.5 -66q0 -34 22.5 -55.5t62.5 -21.5q58 0 116 30z" />
    <glyph glyph-name="zero.dnom" horiz-adv-x="398" 
d="M61 30.5q-32 37.5 -32 99.5q0 60 24 116t67 91t97 35t87 -37.5t33 -99.5q0 -59 -24 -115t-67 -91.5t-98 -35.5t-87 37.5zM232 54q36 32 55.5 81.5t19.5 100.5q0 50 -24.5 79t-66.5 29q-47 0 -83 -31.5t-55.5 -81.5t-19.5 -101q0 -50 24.5 -79t66.5 -29q47 0 83 32z" />
    <glyph glyph-name="one.dnom" horiz-adv-x="277" 
d="M166 336l-99 -28l5 26l108 33h22l-78 -367h-29z" />
    <glyph glyph-name="two.dnom" horiz-adv-x="370" 
d="M193 164q49 38 69 62t20 56q0 27 -21.5 45t-60.5 18q-32 0 -59 -12t-56 -36l-17 21q64 55 134 55q52 0 81 -27t29 -67q0 -37 -24.5 -65t-70.5 -64l-161 -124h206l-5 -26h-253l4 20z" />
    <glyph glyph-name="three.dnom" horiz-adv-x="391" 
d="M74 8q-37 15 -58 41l19 19q21 -22 51 -34.5t64 -12.5q50 0 81.5 24t31.5 65q0 35 -26 54.5t-72 19.5h-36l3 20l151 135h-196l6 28h239l-4 -21l-154 -137q54 -2 86.5 -28.5t32.5 -70.5q0 -52 -41 -84.5t-102 -32.5q-39 0 -76 15z" />
    <glyph glyph-name="four.dnom" horiz-adv-x="407" 
d="M229 101h-208l3 19l262 247h28l-51 -240h61l-5 -26h-62l-21 -101h-28zM235 127l42 199l-211 -199h169z" />
    <glyph glyph-name="five.dnom" horiz-adv-x="384" 
d="M71.5 8q-32.5 15 -51.5 38l21 17q18 -19 44.5 -30.5t56.5 -11.5q52 0 83.5 25.5t31.5 69.5q0 34 -24.5 53.5t-67.5 19.5h-94l3 17l54 161h188l-5 -28h-166l-41 -124h60q56 0 89.5 -27t33.5 -71q0 -57 -40.5 -90.5t-105.5 -33.5q-37 0 -69.5 15z" />
    <glyph glyph-name="six.dnom" horiz-adv-x="399" 
d="M80.5 27q-33.5 34 -33.5 91q0 28 7 61q19 93 68.5 143t117.5 50q62 0 98 -45l-20 -17q-16 18 -35 26t-45 8q-55 0 -94 -38t-57 -107q56 25 111 25q49 0 79.5 -29t30.5 -73q0 -36 -18.5 -65.5t-51 -46.5t-70.5 -17q-54 0 -87.5 34zM248 49.5q30 28.5 30 71.5
q0 33 -23 54.5t-62 21.5q-63 0 -112 -27q-6 -27 -6 -50q0 -46 25.5 -72.5t69.5 -26.5q48 0 78 28.5z" />
    <glyph glyph-name="seven.dnom" horiz-adv-x="382" 
d="M305 340h-227l6 27h264l-4 -18l-243 -349h-34z" />
    <glyph glyph-name="eight.dnom" horiz-adv-x="417" 
d="M70 19q-37 26 -37 69q0 35 27.5 64.5t74.5 48.5q-50 29 -50 74q0 42 41.5 69.5t98.5 27.5q53 0 86.5 -24t33.5 -61q0 -67 -89 -107q29 -16 43.5 -35.5t14.5 -47.5q0 -47 -42.5 -75.5t-103.5 -28.5t-98 26zM291.5 229.5q25.5 23.5 25.5 54.5q0 27 -26 44.5t-67 17.5
q-47 0 -79 -19.5t-32 -51.5q0 -26 21 -42t66 -31l26 -9q40 13 65.5 36.5zM252.5 42q33.5 22 33.5 55q0 31 -25 49t-77 35l-20 7q-44 -15 -73 -40.5t-29 -56.5q0 -33 31 -52t77 -19q49 0 82.5 22z" />
    <glyph glyph-name="nine.dnom" horiz-adv-x="395" 
d="M77 3.5q-27 10.5 -46 33.5l19 18q30 -34 80 -34q57 0 94.5 39t52.5 117q-56 -28 -114 -28q-51 0 -81 29.5t-30 73.5q0 53 39.5 86.5t99.5 33.5q52 0 85 -35t35 -90q0 -34 -4 -62q-15 -92 -60.5 -142t-113.5 -50q-29 0 -56 10.5zM282 206q1 14 1 40q-2 44 -27.5 71
t-67.5 27q-48 0 -77.5 -25t-29.5 -66q0 -34 22.5 -55.5t62.5 -21.5q58 0 116 30z" />
    <glyph glyph-name="zero.numr" horiz-adv-x="398" 
d="M123 319.5q-32 37.5 -32 99.5q0 60 24 116t67 91t97 35t87 -37.5t33 -99.5q0 -59 -24 -115t-67 -91.5t-98 -35.5t-87 37.5zM294 343q36 32 55.5 81.5t19.5 100.5q0 50 -24.5 79t-66.5 29q-47 0 -83 -31.5t-55.5 -81.5t-19.5 -101q0 -50 24.5 -79t66.5 -29q47 0 83 32z
" />
    <glyph glyph-name="one.numr" horiz-adv-x="277" 
d="M228 625l-99 -28l5 26l108 33h22l-78 -367h-29z" />
    <glyph glyph-name="two.numr" horiz-adv-x="370" 
d="M255 453q49 38 69 62t20 56q0 27 -21.5 45t-60.5 18q-32 0 -59 -12t-56 -36l-17 21q64 55 134 55q52 0 81 -27t29 -67q0 -37 -24.5 -65t-70.5 -64l-161 -124h206l-5 -26h-253l4 20z" />
    <glyph glyph-name="three.numr" horiz-adv-x="391" 
d="M136 297q-37 15 -58 41l19 19q21 -22 51 -34.5t64 -12.5q50 0 81.5 24t31.5 65q0 35 -26 54.5t-72 19.5h-36l3 20l151 135h-196l6 28h239l-4 -21l-154 -137q54 -2 86.5 -28.5t32.5 -70.5q0 -52 -41 -84.5t-102 -32.5q-39 0 -76 15z" />
    <glyph glyph-name="four.numr" horiz-adv-x="407" 
d="M291 390h-208l3 19l262 247h28l-51 -240h61l-5 -26h-62l-21 -101h-28zM297 416l42 199l-211 -199h169z" />
    <glyph glyph-name="five.numr" horiz-adv-x="384" 
d="M133.5 297q-32.5 15 -51.5 38l21 17q18 -19 44.5 -30.5t56.5 -11.5q52 0 83.5 25.5t31.5 69.5q0 34 -24.5 53.5t-67.5 19.5h-94l3 17l54 161h188l-5 -28h-166l-41 -124h60q56 0 89.5 -27t33.5 -71q0 -57 -40.5 -90.5t-105.5 -33.5q-37 0 -69.5 15z" />
    <glyph glyph-name="six.numr" horiz-adv-x="399" 
d="M142.5 316q-33.5 34 -33.5 91q0 28 7 61q19 93 68.5 143t117.5 50q62 0 98 -45l-20 -17q-16 18 -35 26t-45 8q-55 0 -94 -38t-57 -107q56 25 111 25q49 0 79.5 -29t30.5 -73q0 -36 -18.5 -65.5t-51 -46.5t-70.5 -17q-54 0 -87.5 34zM310 338.5q30 28.5 30 71.5
q0 33 -23 54.5t-62 21.5q-63 0 -112 -27q-6 -27 -6 -50q0 -46 25.5 -72.5t69.5 -26.5q48 0 78 28.5z" />
    <glyph glyph-name="seven.numr" horiz-adv-x="382" 
d="M367 629h-227l6 27h264l-4 -18l-243 -349h-34z" />
    <glyph glyph-name="eight.numr" horiz-adv-x="417" 
d="M132 308q-37 26 -37 69q0 35 27.5 64.5t74.5 48.5q-50 29 -50 74q0 42 41.5 69.5t98.5 27.5q53 0 86.5 -24t33.5 -61q0 -67 -89 -107q29 -16 43.5 -35.5t14.5 -47.5q0 -47 -42.5 -75.5t-103.5 -28.5t-98 26zM353.5 518.5q25.5 23.5 25.5 54.5q0 27 -26 44.5t-67 17.5
q-47 0 -79 -19.5t-32 -51.5q0 -26 21 -42t66 -31l26 -9q40 13 65.5 36.5zM314.5 331q33.5 22 33.5 55q0 31 -25 49t-77 35l-20 7q-44 -15 -73 -40.5t-29 -56.5q0 -33 31 -52t77 -19q49 0 82.5 22z" />
    <glyph glyph-name="nine.numr" horiz-adv-x="395" 
d="M139 292.5q-27 10.5 -46 33.5l19 18q30 -34 80 -34q57 0 94.5 39t52.5 117q-56 -28 -114 -28q-51 0 -81 29.5t-30 73.5q0 53 39.5 86.5t99.5 33.5q52 0 85 -35t35 -90q0 -34 -4 -62q-15 -92 -60.5 -142t-113.5 -50q-29 0 -56 10.5zM344 495q1 14 1 40q-2 44 -27.5 71
t-67.5 27q-48 0 -77.5 -25t-29.5 -66q0 -34 22.5 -55.5t62.5 -21.5q58 0 116 30z" />
    <glyph glyph-name="uni2070" unicode="&#x2070;" horiz-adv-x="398" 
d="M137 387.5q-32 37.5 -32 99.5q0 60 24 116t67 91t97 35t87 -37.5t33 -99.5q0 -59 -24 -115t-67 -91.5t-98 -35.5t-87 37.5zM308 411q36 32 55.5 81.5t19.5 100.5q0 50 -24.5 79t-66.5 29q-47 0 -83 -31.5t-55.5 -81.5t-19.5 -101q0 -50 24.5 -79t66.5 -29q47 0 83 32z
" />
    <glyph glyph-name="uni00B9" unicode="&#xb9;" horiz-adv-x="277" 
d="M242 693l-99 -28l5 26l108 33h22l-78 -367h-29z" />
    <glyph glyph-name="uni00B2" unicode="&#xb2;" horiz-adv-x="370" 
d="M269 521q49 38 69 62t20 56q0 27 -21.5 45t-60.5 18q-32 0 -59 -12t-56 -36l-17 21q64 55 134 55q52 0 81 -27t29 -67q0 -37 -24.5 -65t-70.5 -64l-161 -124h206l-5 -26h-253l4 20z" />
    <glyph glyph-name="uni00B3" unicode="&#xb3;" horiz-adv-x="391" 
d="M150 365q-37 15 -58 41l19 19q21 -22 51 -34.5t64 -12.5q50 0 81.5 24t31.5 65q0 35 -26 54.5t-72 19.5h-36l3 20l151 135h-196l6 28h239l-4 -21l-154 -137q54 -2 86.5 -28.5t32.5 -70.5q0 -52 -41 -84.5t-102 -32.5q-39 0 -76 15z" />
    <glyph glyph-name="uni2074" unicode="&#x2074;" horiz-adv-x="407" 
d="M305 458h-208l3 19l262 247h28l-51 -240h61l-5 -26h-62l-21 -101h-28zM311 484l42 199l-211 -199h169z" />
    <glyph glyph-name="uni2075" unicode="&#x2075;" horiz-adv-x="384" 
d="M147.5 365q-32.5 15 -51.5 38l21 17q18 -19 44.5 -30.5t56.5 -11.5q52 0 83.5 25.5t31.5 69.5q0 34 -24.5 53.5t-67.5 19.5h-94l3 17l54 161h188l-5 -28h-166l-41 -124h60q56 0 89.5 -27t33.5 -71q0 -57 -40.5 -90.5t-105.5 -33.5q-37 0 -69.5 15z" />
    <glyph glyph-name="uni2076" unicode="&#x2076;" horiz-adv-x="399" 
d="M156.5 384q-33.5 34 -33.5 91q0 28 7 61q19 93 68.5 143t117.5 50q62 0 98 -45l-20 -17q-16 18 -35 26t-45 8q-55 0 -94 -38t-57 -107q56 25 111 25q49 0 79.5 -29t30.5 -73q0 -36 -18.5 -65.5t-51 -46.5t-70.5 -17q-54 0 -87.5 34zM324 406.5q30 28.5 30 71.5
q0 33 -23 54.5t-62 21.5q-63 0 -112 -27q-6 -27 -6 -50q0 -46 25.5 -72.5t69.5 -26.5q48 0 78 28.5z" />
    <glyph glyph-name="uni2077" unicode="&#x2077;" horiz-adv-x="382" 
d="M381 697h-227l6 27h264l-4 -18l-243 -349h-34z" />
    <glyph glyph-name="uni2078" unicode="&#x2078;" horiz-adv-x="417" 
d="M146 376q-37 26 -37 69q0 35 27.5 64.5t74.5 48.5q-50 29 -50 74q0 42 41.5 69.5t98.5 27.5q53 0 86.5 -24t33.5 -61q0 -67 -89 -107q29 -16 43.5 -35.5t14.5 -47.5q0 -47 -42.5 -75.5t-103.5 -28.5t-98 26zM367.5 586.5q25.5 23.5 25.5 54.5q0 27 -26 44.5t-67 17.5
q-47 0 -79 -19.5t-32 -51.5q0 -26 21 -42t66 -31l26 -9q40 13 65.5 36.5zM328.5 399q33.5 22 33.5 55q0 31 -25 49t-77 35l-20 7q-44 -15 -73 -40.5t-29 -56.5q0 -33 31 -52t77 -19q49 0 82.5 22z" />
    <glyph glyph-name="uni2079" unicode="&#x2079;" horiz-adv-x="395" 
d="M153 360.5q-27 10.5 -46 33.5l19 18q30 -34 80 -34q57 0 94.5 39t52.5 117q-56 -28 -114 -28q-51 0 -81 29.5t-30 73.5q0 53 39.5 86.5t99.5 33.5q52 0 85 -35t35 -90q0 -34 -4 -62q-15 -92 -60.5 -142t-113.5 -50q-29 0 -56 10.5zM358 563q1 14 1 40q-2 44 -27.5 71
t-67.5 27q-48 0 -77.5 -25t-29.5 -66q0 -34 22.5 -55.5t62.5 -21.5q58 0 116 30z" />
    <glyph glyph-name="fraction" unicode="&#x2044;" horiz-adv-x="87" 
d="M341 657h39l-602 -657h-40z" />
    <glyph glyph-name="onehalf" unicode="&#xbd;" horiz-adv-x="808" 
d="M643 657h39l-602 -657h-40zM228 625l-99 -28l5 26l108 33h22l-78 -367h-29zM631 164q49 38 69 62t20 56q0 27 -21.5 45t-60.5 18q-32 0 -59 -12t-56 -36l-17 21q64 55 134 55q52 0 81 -27t29 -67q0 -37 -24.5 -65t-70.5 -64l-161 -124h206l-5 -26h-253l4 20z" />
    <glyph glyph-name="onequarter" unicode="&#xbc;" horiz-adv-x="770" 
d="M666 657h39l-602 -657h-40zM228 625l-99 -28l5 26l108 33h22l-78 -367h-29zM592 101h-208l3 19l262 247h28l-51 -240h61l-5 -26h-62l-21 -101h-28zM598 127l42 199l-211 -199h169z" />
    <glyph glyph-name="threequarters" unicode="&#xbe;" horiz-adv-x="843" 
d="M741 657h39l-602 -657h-40zM136 297q-37 15 -58 41l19 19q21 -22 51 -34.5t64 -12.5q50 0 81.5 24t31.5 65q0 35 -26 54.5t-72 19.5h-36l3 20l151 135h-196l6 28h239l-4 -21l-154 -137q54 -2 86.5 -28.5t32.5 -70.5q0 -52 -41 -84.5t-102 -32.5q-39 0 -76 15zM665 101
h-208l3 19l262 247h28l-51 -240h61l-5 -26h-62l-21 -101h-28zM671 127l42 199l-211 -199h169z" />
    <glyph glyph-name="period" unicode="." horiz-adv-x="253" 
d="M51.5 -2.5q-7.5 7.5 -7.5 19.5q0 16 10 27.5t25 11.5q13 0 20.5 -7.5t7.5 -19.5q0 -16 -10 -27.5t-25 -11.5q-13 0 -20.5 7.5z" />
    <glyph glyph-name="comma" unicode="," horiz-adv-x="253" 
d="M36 -32.5q33 54.5 46 92.5h35q-14 -43 -47.5 -98t-69.5 -89h-33q36 40 69 94.5z" />
    <glyph glyph-name="colon" unicode=":" horiz-adv-x="254" 
d="M152.5 461.5q-7.5 7.5 -7.5 19.5q0 16 10 27.5t25 11.5q13 0 20.5 -7.5t7.5 -19.5q0 -16 -10 -27.5t-25 -11.5q-13 0 -20.5 7.5zM54.5 -2.5q-7.5 7.5 -7.5 19.5q0 16 10 27.5t25 11.5q13 0 20.5 -7.5t7.5 -19.5q0 -16 -10 -27.5t-25 -11.5q-13 0 -20.5 7.5z" />
    <glyph glyph-name="semicolon" unicode=";" horiz-adv-x="253" 
d="M151.5 461.5q-7.5 7.5 -7.5 19.5q0 16 10 27.5t25 11.5q13 0 20.5 -7.5t7.5 -19.5q0 -16 -10 -27.5t-25 -11.5q-13 0 -20.5 7.5zM37 -32.5q33 54.5 46 92.5h35q-14 -43 -47.5 -98t-69.5 -89h-33q36 40 69 94.5z" />
    <glyph glyph-name="ellipsis" unicode="&#x2026;" horiz-adv-x="657" 
d="M51.5 -2.5q-7.5 7.5 -7.5 19.5q0 16 10 27.5t25 11.5q13 0 20.5 -7.5t7.5 -19.5q0 -16 -10 -27.5t-25 -11.5q-13 0 -20.5 7.5zM253.5 -2.5q-7.5 7.5 -7.5 19.5q0 16 10 27.5t25 11.5q13 0 20.5 -7.5t7.5 -19.5q0 -16 -10 -27.5t-25 -11.5q-13 0 -20.5 7.5zM455.5 -2.5
q-7.5 7.5 -7.5 19.5q0 16 10 27.5t25 11.5q13 0 20.5 -7.5t7.5 -19.5q0 -16 -10 -27.5t-25 -11.5q-13 0 -20.5 7.5z" />
    <glyph glyph-name="exclam" unicode="!" horiz-adv-x="227" 
d="M186 676h34l-112 -515h-28zM43.5 -2.5q-7.5 7.5 -7.5 19.5q0 16 10 27.5t25 11.5q13 0 20.5 -7.5t7.5 -19.5q0 -16 -10 -27.5t-25 -11.5q-13 0 -20.5 7.5z" />
    <glyph glyph-name="exclamdown" unicode="&#xa1;" horiz-adv-x="227" 
d="M135.5 465.5q-7.5 7.5 -7.5 19.5q0 16 10 27.5t25 11.5q13 0 20.5 -7.5t7.5 -19.5q0 -16 -10 -27.5t-25 -11.5q-13 0 -20.5 7.5zM119 353h28l-106 -515h-34z" />
    <glyph glyph-name="question" unicode="?" horiz-adv-x="505" 
d="M246 267.5q20 29.5 44 51t67 52.5q42 31 66 53.5t38.5 50t14.5 63.5q0 52 -37 85t-104 33q-62 0 -113 -22.5t-97 -63.5l-19 23q49 44 107.5 68.5t122.5 24.5q81 0 126.5 -41t45.5 -105q0 -41 -15.5 -72t-41 -56t-69.5 -58l-20 -15q-49 -37 -75 -65.5t-36 -72.5l-9 -40
h-32l8 37q8 40 28 69.5zM181.5 -2.5q-7.5 7.5 -7.5 19.5q0 16 10 27.5t25 11.5q13 0 20.5 -7.5t7.5 -19.5q0 -16 -10 -27.5t-25 -11.5q-13 0 -20.5 7.5z" />
    <glyph glyph-name="questiondown" unicode="&#xbf;" horiz-adv-x="473" 
d="M285.5 465.5q-7.5 7.5 -7.5 19.5q0 16 10 27.5t25 11.5q13 0 20.5 -7.5t7.5 -19.5q0 -16 -10 -27.5t-25 -11.5q-13 0 -20.5 7.5zM52.5 -131q-45.5 41 -45.5 105q0 41 15.5 72t41 56t69.5 58l20 15q49 37 75 65.5t36 72.5l9 40h32l-8 -37q-8 -40 -28 -69.5t-44 -51
t-67 -52.5q-42 -31 -66 -53.5t-38.5 -50t-14.5 -63.5q0 -52 37 -85t104 -33q62 0 113 22.5t97 63.5l19 -23q-49 -44 -107.5 -68.5t-122.5 -24.5q-81 0 -126.5 41z" />
    <glyph glyph-name="periodcentered" unicode="&#xb7;" horiz-adv-x="248" 
d="M121.5 324.5q-7.5 7.5 -7.5 19.5q0 16 10 27.5t25 11.5q13 0 20.5 -7.5t7.5 -19.5q0 -16 -10 -27.5t-25 -11.5q-13 0 -20.5 7.5z" />
    <glyph glyph-name="bullet" unicode="&#x2022;" horiz-adv-x="360" 
d="M145 295.5q-23 22.5 -23 55.5t22.5 55.5t55.5 22.5t55.5 -22.5t22.5 -55.5t-23 -55.5t-55 -22.5t-55 22.5z" />
    <glyph glyph-name="asterisk" unicode="*" horiz-adv-x="350" 
d="M224 535l-107 -65l-11 21l112 67l-85 65l18 20l81 -65l25 116h28l-26 -116l107 66l12 -22l-112 -66l83 -65l-19 -20l-80 65l-24 -117h-28z" />
    <glyph glyph-name="numbersign" unicode="#" horiz-adv-x="614" 
d="M156 183h-99l10 31h99l75 235h-99l10 30h98l47 148h30l-47 -148h185l47 148h30l-47 -148h94l-9 -30h-94l-75 -235h94l-10 -31h-94l-49 -154h-30l49 154h-185l-49 -154h-30zM381 214l75 235h-186l-74 -235h185z" />
    <glyph glyph-name="slash" unicode="/" horiz-adv-x="411" 
d="M458 735h37l-521 -861h-37z" />
    <glyph glyph-name="backslash" unicode="\" horiz-adv-x="410" 
d="M121 735h33l155 -861h-33z" />
    <glyph glyph-name="exclamdown.case" horiz-adv-x="227" 
d="M173.5 627.5q-7.5 7.5 -7.5 19.5q0 16 10 27.5t25 11.5q13 0 20.5 -7.5t7.5 -19.5q0 -16 -10 -27.5t-25 -11.5q-13 0 -20.5 7.5zM157 515h28l-106 -515h-34z" />
    <glyph glyph-name="questiondown.case" horiz-adv-x="505" 
d="M310.5 627.5q-7.5 7.5 -7.5 19.5q0 16 10 27.5t25 11.5q13 0 20.5 -7.5t7.5 -19.5q0 -16 -10 -27.5t-25 -11.5q-13 0 -20.5 7.5zM77.5 31q-45.5 41 -45.5 105q0 41 15.5 72t41 56t69.5 58l20 15q49 37 75 65.5t36 72.5l9 40h32l-8 -37q-8 -40 -28 -69.5t-44 -51
t-67 -52.5q-42 -31 -66 -53.5t-38.5 -50t-14.5 -63.5q0 -52 37 -85t104 -33q62 0 113 22.5t97 63.5l19 -23q-49 -44 -107.5 -68.5t-122.5 -24.5q-81 0 -126.5 41z" />
    <glyph glyph-name="slash.case" horiz-adv-x="410" 
d="M463 767h37l-521 -861h-37z" />
    <glyph glyph-name="backslash.case" horiz-adv-x="410" 
d="M121 767h33l155 -861h-33z" />
    <glyph glyph-name="parenleft" unicode="(" horiz-adv-x="312" 
d="M98.5 7q-22.5 75 -22.5 160q0 158 73.5 310t195.5 258h39q-125 -107 -199.5 -259t-74.5 -309q0 -83 22.5 -158t67.5 -135h-35q-44 58 -66.5 133z" />
    <glyph glyph-name="parenright" unicode=")" horiz-adv-x="312" 
d="M133.5 133q74.5 152 74.5 309q0 83 -22.5 158t-67.5 135h35q44 -58 66.5 -133t22.5 -160q0 -158 -73.5 -310t-195.5 -258h-39q125 107 199.5 259z" />
    <glyph glyph-name="braceleft" unicode="{" horiz-adv-x="359" 
d="M96.5 -92.5q-39.5 33.5 -39.5 97.5q0 28 7 57l20 91q5 27 5 43q0 62 -52 98l5 23q44 20 69.5 54t37.5 88l19 90q20 92 75 139t145 47h41l-14 -30h-39q-69 0 -114 -38t-60 -109l-20 -93q-13 -61 -37 -98t-72 -64q47 -42 47 -105q0 -23 -6 -53l-21 -96q-5 -27 -5 -45
q0 -48 29 -74t86 -26h41l2 -30h-36q-74 0 -113.5 33.5z" />
    <glyph glyph-name="braceright" unicode="}" horiz-adv-x="360" 
d="M4 -96q69 0 114 38t60 109l20 93q13 61 37 98t72 64q-47 42 -47 105q0 23 6 53l21 96q5 27 5 45q0 48 -29 74t-86 26h-41l-2 30h36q74 0 113.5 -33.5t39.5 -97.5q0 -28 -7 -57l-20 -91q-5 -27 -5 -43q0 -62 52 -98l-5 -23q-44 -20 -69.5 -54t-37.5 -88l-19 -90
q-20 -92 -75 -139t-145 -47h-41l14 30h39z" />
    <glyph glyph-name="bracketleft" unicode="[" horiz-adv-x="359" 
d="M207 735h222l-14 -30h-182l-171 -801h181l2 -30h-221z" />
    <glyph glyph-name="bracketright" unicode="]" horiz-adv-x="359" 
d="M-49 -96h182l171 801h-181l-2 30h221l-183 -861h-222z" />
    <glyph glyph-name="parenleft.case" horiz-adv-x="312" 
d="M106.5 45q-22.5 75 -22.5 160q0 158 73.5 310t195.5 258h39q-125 -107 -199.5 -259t-74.5 -309q0 -83 22.5 -158t67.5 -135h-35q-44 58 -66.5 133z" />
    <glyph glyph-name="parenright.case" horiz-adv-x="312" 
d="M141.5 171q74.5 152 74.5 309q0 83 -22.5 158t-67.5 135h35q44 -58 66.5 -133t22.5 -160q0 -158 -73.5 -310t-195.5 -258h-39q125 107 199.5 259z" />
    <glyph glyph-name="braceleft.case" horiz-adv-x="359" 
d="M104.5 -54.5q-39.5 33.5 -39.5 97.5q0 28 7 57l20 91q5 27 5 43q0 62 -52 98l5 23q44 20 69.5 54t37.5 88l19 90q20 92 75 139t145 47h41l-14 -30h-39q-69 0 -114 -38t-60 -109l-20 -93q-13 -61 -37 -98t-72 -64q47 -42 47 -105q0 -23 -6 -53l-21 -96q-5 -27 -5 -45
q0 -48 29 -74t86 -26h41l2 -30h-36q-74 0 -113.5 33.5z" />
    <glyph glyph-name="braceright.case" horiz-adv-x="360" 
d="M12 -58q69 0 114 38t60 109l20 93q13 61 37 98t72 64q-47 42 -47 105q0 23 6 53l21 96q5 27 5 45q0 48 -29 74t-86 26h-41l-2 30h36q74 0 113.5 -33.5t39.5 -97.5q0 -28 -7 -57l-20 -91q-5 -27 -5 -43q0 -62 52 -98l-5 -23q-44 -20 -69.5 -54t-37.5 -88l-19 -90
q-20 -92 -75 -139t-145 -47h-41l14 30h39z" />
    <glyph glyph-name="bracketleft.case" horiz-adv-x="359" 
d="M215 773h222l-14 -30h-182l-171 -801h181l2 -30h-221z" />
    <glyph glyph-name="bracketright.case" horiz-adv-x="359" 
d="M-41 -58h182l171 801h-181l-2 30h221l-183 -861h-222z" />
    <glyph glyph-name="hyphen" unicode="-" horiz-adv-x="413" 
d="M71 307h291l-6 -30h-291z" />
    <glyph glyph-name="uni00AD" unicode="&#xad;" horiz-adv-x="413" 
d="M71 307h291l-6 -30h-291z" />
    <glyph glyph-name="endash" unicode="&#x2013;" horiz-adv-x="480" 
d="M11 307h480l-7 -30h-480z" />
    <glyph glyph-name="emdash" unicode="&#x2014;" horiz-adv-x="960" 
d="M11 307h960l-7 -30h-960z" />
    <glyph glyph-name="underscore" unicode="_" horiz-adv-x="480" 
d="M-75 -96h480l-6 -29h-480z" />
    <glyph glyph-name="hyphen.case" horiz-adv-x="413" 
d="M82 359h291l-6 -30h-291z" />
    <glyph glyph-name="endash.case" horiz-adv-x="480" 
d="M22 359h480l-7 -30h-480z" />
    <glyph glyph-name="emdash.case" horiz-adv-x="960" 
d="M22 359h960l-7 -30h-960z" />
    <glyph glyph-name="quotesinglbase" unicode="&#x201a;" horiz-adv-x="233" 
d="M49 -32.5q33 54.5 46 92.5h35q-14 -43 -47.5 -98t-69.5 -89h-33q36 40 69 94.5z" />
    <glyph glyph-name="quotedblbase" unicode="&#x201e;" horiz-adv-x="349" 
d="M49 -32.5q33 54.5 46 92.5h35q-14 -43 -47.5 -98t-69.5 -89h-33q36 40 69 94.5zM165 -32.5q33 54.5 46 92.5h35q-14 -43 -47.5 -98t-69.5 -89h-33q36 40 69 94.5z" />
    <glyph glyph-name="quotedblleft" unicode="&#x201c;" horiz-adv-x="342" 
d="M147 591q31 50 66 85h30q-35 -40 -65 -90t-43 -87h-33q14 42 45 92zM263 591q31 50 66 85h30q-35 -40 -65 -90t-43 -87h-33q14 42 45 92z" />
    <glyph glyph-name="quotedblright" unicode="&#x201d;" horiz-adv-x="342" 
d="M172 589q30 50 43 87h33q-14 -42 -45 -92t-66 -85h-30q35 40 65 90zM288 589q30 50 43 87h33q-14 -42 -45 -92t-66 -85h-30q35 40 65 90z" />
    <glyph glyph-name="quoteleft" unicode="&#x2018;" horiz-adv-x="226" 
d="M147 591q31 50 66 85h30q-35 -40 -65 -90t-43 -87h-33q14 42 45 92z" />
    <glyph glyph-name="quoteright" unicode="&#x2019;" horiz-adv-x="226" 
d="M172 589q30 50 43 87h33q-14 -42 -45 -92t-66 -85h-30q35 40 65 90z" />
    <glyph glyph-name="guillemotleft" unicode="&#xab;" horiz-adv-x="412" 
d="M57 282l161 184h38l-161 -187l82 -181h-32zM195 282l161 184h38l-161 -187l82 -181h-32z" />
    <glyph glyph-name="guillemotright" unicode="&#xbb;" horiz-adv-x="409" 
d="M185 285l-82 181h32l88 -184l-161 -184h-38zM319 285l-82 181h32l88 -184l-161 -184h-38z" />
    <glyph glyph-name="guilsinglleft" unicode="&#x2039;" horiz-adv-x="274" 
d="M57 282l161 184h38l-161 -187l82 -181h-32z" />
    <glyph glyph-name="guilsinglright" unicode="&#x203a;" horiz-adv-x="275" 
d="M185 285l-82 181h32l88 -184l-161 -184h-38z" />
    <glyph glyph-name="quotedbl" unicode="&#x22;" horiz-adv-x="359" 
d="M174 676h37l-57 -243h-30zM328 676h37l-57 -243h-30z" />
    <glyph glyph-name="quotesingle" unicode="'" horiz-adv-x="205" 
d="M174 676h37l-57 -243h-30z" />
    <glyph glyph-name="guillemotleft.case" horiz-adv-x="412" 
d="M71 346l161 184h38l-161 -187l82 -181h-32zM209 346l161 184h38l-161 -187l82 -181h-32z" />
    <glyph glyph-name="guillemotright.case" horiz-adv-x="409" 
d="M199 349l-82 181h32l88 -184l-161 -184h-38zM333 349l-82 181h32l88 -184l-161 -184h-38z" />
    <glyph glyph-name="guilsinglleft.case" horiz-adv-x="274" 
d="M76 346l161 184h38l-161 -187l82 -181h-32z" />
    <glyph glyph-name="guilsinglright.case" horiz-adv-x="275" 
d="M199 349l-82 181h32l88 -184l-161 -184h-38z" />
    <glyph glyph-name="period.dnom" horiz-adv-x="139" 
d="M-11.5 -2q-6.5 6 -6.5 16q0 13 8.5 22.5t21.5 9.5q10 0 16.5 -6t6.5 -16q0 -13 -8.5 -22.5t-21.5 -9.5q-10 0 -16.5 6z" />
    <glyph glyph-name="comma.dnom" horiz-adv-x="139" 
d="M-19 -18.5q23 36.5 33 65.5h34q-11 -32 -34 -68t-49 -62h-32q25 28 48 64.5z" />
    <glyph glyph-name="period.numr" horiz-adv-x="139" 
d="M60.5 287q-6.5 6 -6.5 16q0 13 8.5 22.5t21.5 9.5q10 0 16.5 -6t6.5 -16q0 -13 -8.5 -22.5t-21.5 -9.5q-10 0 -16.5 6z" />
    <glyph glyph-name="comma.numr" horiz-adv-x="138" 
d="M42 270.5q23 36.5 33 65.5h34q-11 -32 -34 -68t-49 -62h-32q25 28 48 64.5z" />
    <glyph glyph-name="period.subs" horiz-adv-x="139" 
d="M-17.5 -78q-6.5 6 -6.5 16q0 13 8.5 22.5t21.5 9.5q10 0 16.5 -6t6.5 -16q0 -13 -8.5 -22.5t-21.5 -9.5q-10 0 -16.5 6z" />
    <glyph glyph-name="comma.subs" horiz-adv-x="139" 
d="M-35 -94.5q23 36.5 33 65.5h34q-11 -32 -34 -68t-49 -62h-32q25 28 48 64.5z" />
    <glyph glyph-name="uni00A0" unicode="&#xa0;" horiz-adv-x="250" 
 />
    <glyph glyph-name="cent" unicode="&#xa2;" 
d="M141 123.5q-44 49.5 -44 130.5q0 80 35 152.5t97.5 119.5t139.5 54l23 108l34 10l-24 -117q38 -2 73.5 -21t59.5 -53l-23 -18q-47 62 -121 62q-76 0 -135.5 -42t-93 -110.5t-33.5 -142.5q0 -73 41 -115.5t114 -42.5q87 0 169 62l17 -22q-81 -66 -178 -70l-27 -127
l-33 -10l29 138q-76 5 -120 54.5z" />
    <glyph glyph-name="currency" unicode="&#xa4;" 
d="M121 206q-15 32 -15 73q0 51 19.5 99.5t53.5 86.5l-64 81l27 21l61 -78q32 28 71 44t80 16q42 0 75.5 -16t54.5 -44l92 78l19 -21l-97 -81q15 -31 15 -71q0 -51 -19.5 -99.5t-53.5 -87.5l65 -83l-26 -21l-63 79q-32 -28 -71 -44t-80 -16q-42 0 -74.5 15t-53.5 43l-93 -77
l-18 21zM373.5 186q49.5 35 79 90.5t29.5 112.5q0 58 -35.5 94.5t-94.5 36.5q-58 0 -107.5 -34.5t-78.5 -89t-29 -111.5q0 -60 35 -97t94 -37q58 0 107.5 35z" />
    <glyph glyph-name="dollar" unicode="$" 
d="M125.5 26q-47.5 24 -82.5 66l23 19q40 -44 91 -65t108 -21q88 0 138.5 41.5t50.5 106.5q0 50 -34 84.5t-116 68.5q-95 39 -134 75.5t-39 96.5q0 53 31.5 92t81 59.5t103.5 20.5h8l25 118l34 10l-28 -130q99 -12 163 -91l-23 -18q-43 48 -83 64.5t-100 16.5q-50 0 -92 -18
t-66 -49.5t-24 -70.5q0 -53 37.5 -84t123.5 -66q85 -34 124 -75.5t39 -100.5q0 -52 -26.5 -93t-77 -64.5t-119.5 -23.5h-2l-29 -136l-34 -10l31 148q-55 5 -102.5 29z" />
    <glyph glyph-name="Euro" unicode="&#x20ac;" 
d="M162.5 54q-55.5 64 -58.5 170h-84l16 30h68q3 75 27 144h-74l16 29h69q42 106 123 172.5t184 66.5q53 0 96 -21t71 -60l-23 -17q-50 68 -147 68q-90 0 -160.5 -58t-111.5 -151h259l-16 -29h-254q-25 -72 -28 -144h232l-15 -30h-217q4 -92 51.5 -147.5t127.5 -55.5
q54 0 99 18t90 54l18 -22q-48 -41 -99 -61t-111 -20q-93 0 -148.5 64z" />
    <glyph glyph-name="florin" unicode="&#x192;" 
d="M29 30q58 0 96.5 18.5t65.5 56t54 101.5l50 118h-160l6 31h167l40 94q32 76 65 120.5t78.5 66t112.5 21.5h49l-7 -31h-48q-58 0 -96 -18.5t-64 -55.5t-54 -101l-41 -96h161l-6 -31h-168l-50 -116q-33 -77 -64.5 -121t-75.5 -65.5t-111 -21.5h-67l7 30h60z" />
    <glyph glyph-name="sterling" unicode="&#xa3;" 
d="M154 300h-97l6 31h104l49 118q33 80 66 124.5t76 64t106 19.5h137l-6 -31h-136q-55 0 -91.5 -17t-63.5 -54.5t-54 -103.5l-49 -120h264l-7 -31h-270l-110 -269h408l-6 -31h-444l5 26z" />
    <glyph glyph-name="yen" unicode="&#xa5;" 
d="M252 139h-182l6 30h182l23 105h-182l6 30h169l-138 353h32l134 -346l284 346h36l-290 -353h167l-6 -30h-181l-23 -105h181l-6 -30h-181l-30 -139h-31z" />
    <glyph glyph-name="plus" unicode="+" 
d="M291 316h-181l6 29h181l39 185h30l-39 -185h181l-6 -29h-181l-40 -186h-30z" />
    <glyph glyph-name="minus" unicode="&#x2212;" 
d="M137 345h349l-6 -29h-349z" />
    <glyph glyph-name="multiply" unicode="&#xd7;" 
d="M121 192l167 140l-105 138l23 17l104 -137l166 139l18 -21l-167 -139l106 -139l-22 -18l-106 138l-166 -138z" />
    <glyph glyph-name="divide" unicode="&#xf7;" 
d="M324 441q-7 7 -7 18q0 15 9.5 26t23.5 11q13 0 20 -7t7 -19q0 -15 -9.5 -25.5t-23.5 -10.5q-13 0 -20 7zM143 345h349l-6 -29h-349zM267.5 170.5q-7.5 7.5 -7.5 18.5q0 15 9.5 26.5t24.5 11.5q13 0 20 -7t7 -19q0 -15 -9.5 -26.5t-24.5 -11.5q-12 0 -19.5 7.5z" />
    <glyph glyph-name="equal" unicode="=" 
d="M158 442h349l-6 -29h-349zM117 250h349l-6 -29h-349z" />
    <glyph glyph-name="notequal" unicode="&#x2260;" 
d="M117 128l77 93h-83l6 29h101l135 163h-201l6 29h219l90 109l22 -17l-76 -92h94l-6 -29h-112l-135 -163h212l-6 -29h-230l-90 -109z" />
    <glyph glyph-name="greater" unicode="&#x3e;" 
d="M118 174l312 160l-241 159l17 22l261 -173l-4 -22l-333 -172z" />
    <glyph glyph-name="less" unicode="&#x3c;" 
d="M150 320l4 22l333 172l12 -26l-312 -160l241 -159l-17 -22z" />
    <glyph glyph-name="greaterequal" unicode="&#x2265;" 
d="M136 174l312 160l-241 159l17 22l261 -173l-4 -22l-333 -172zM89 29h330l-6 -29h-330z" />
    <glyph glyph-name="lessequal" unicode="&#x2264;" 
d="M133 321l4 22l333 172l12 -26l-312 -160l241 -159l-17 -22zM70 29h330l-6 -29h-330z" />
    <glyph glyph-name="plusminus" unicode="&#xb1;" 
d="M297 316h-181l6 29h181l39 185h30l-39 -185h181l-6 -29h-181l-40 -186h-30zM76 29h349l-6 -29h-349z" />
    <glyph glyph-name="approxequal" unicode="&#x2248;" 
d="M382.5 376q-23.5 13 -57.5 38q-30 23 -49.5 34t-42.5 11q-66 0 -90 -86h-30q32 113 121 113q29 0 52.5 -13t57.5 -38q30 -23 49.5 -34t42.5 -11q66 0 90 88h30q-16 -55 -46 -85t-75 -30q-29 0 -52.5 13zM343.5 190q-23.5 13 -57.5 38q-30 23 -49.5 34t-42.5 11
q-66 0 -90 -86h-30q32 113 121 113q29 0 52.5 -13t57.5 -38q30 -23 49.5 -34t42.5 -11q66 0 90 88h30q-16 -55 -46 -85t-75 -30q-29 0 -52.5 13z" />
    <glyph glyph-name="asciitilde" unicode="~" 
d="M354.5 272q-23.5 13 -57.5 38q-30 23 -49.5 34t-42.5 11q-66 0 -90 -86h-30q32 113 121 113q29 0 52.5 -13t57.5 -38q30 -23 49.5 -34t42.5 -11q66 0 90 88h30q-16 -55 -46 -85t-75 -30q-29 0 -52.5 13z" />
    <glyph glyph-name="logicalnot" unicode="&#xac;" 
d="M464 374h-352l7 30h381l-46 -215h-29z" />
    <glyph glyph-name="asciicircum" unicode="^" 
d="M367 676h32l104 -331h-30l-94 302l-226 -302h-33z" />
    <glyph glyph-name="uni00B5" unicode="&#xb5;" horiz-adv-x="552" 
d="M167 514l-63 -294q-10 -47 -10 -79q0 -120 114 -120q95 0 203 108l82 385h32l-109 -514h-22l9 88q-52 -51 -104 -74t-99 -23q-49 0 -81 21.5t-45 59.5l-60 -281l-35 -10l156 733h32z" />
    <glyph glyph-name="percent" unicode="%" horiz-adv-x="834" 
d="M123 319.5q-32 37.5 -32 99.5q0 60 24 116t67 91t97 35t87 -37.5t33 -99.5q0 -59 -24 -115t-67 -91.5t-98 -35.5t-87 37.5zM712 657h39l-602 -657h-40zM294 343q36 32 55.5 81.5t19.5 100.5q0 50 -24.5 79t-66.5 29q-47 0 -83 -31.5t-55.5 -81.5t-19.5 -101
q0 -50 24.5 -79t66.5 -29q47 0 83 32zM497 30.5q-32 37.5 -32 99.5q0 60 24 116t67 91t97 35t87 -37.5t33 -99.5q0 -59 -24 -115t-67 -91.5t-98 -35.5t-87 37.5zM668 54q36 32 55.5 81.5t19.5 100.5q0 50 -24.5 79t-66.5 29q-47 0 -83 -31.5t-55.5 -81.5t-19.5 -101
q0 -50 24.5 -79t66.5 -29q47 0 83 32z" />
    <glyph glyph-name="perthousand" unicode="&#x2030;" horiz-adv-x="1194" 
d="M123 319.5q-32 37.5 -32 99.5q0 60 24 116t67 91t97 35t87 -37.5t33 -99.5q0 -59 -24 -115t-67 -91.5t-98 -35.5t-87 37.5zM712 657h39l-602 -657h-40zM294 343q36 32 55.5 81.5t19.5 100.5q0 50 -24.5 79t-66.5 29q-47 0 -83 -31.5t-55.5 -81.5t-19.5 -101
q0 -50 24.5 -79t66.5 -29q47 0 83 32zM497 30.5q-32 37.5 -32 99.5q0 60 24 116t67 91t97 35t87 -37.5t33 -99.5q0 -59 -24 -115t-67 -91.5t-98 -35.5t-87 37.5zM857 30.5q-32 37.5 -32 99.5q0 60 24 116t67 91t97 35t87 -37.5t33 -99.5q0 -59 -24 -115t-67 -91.5t-98 -35.5
t-87 37.5zM668 54q36 32 55.5 81.5t19.5 100.5q0 50 -24.5 79t-66.5 29q-47 0 -83 -31.5t-55.5 -81.5t-19.5 -101q0 -50 24.5 -79t66.5 -29q47 0 83 32zM1028 54q36 32 55.5 81.5t19.5 100.5q0 50 -24.5 79t-66.5 29q-47 0 -83 -31.5t-55.5 -81.5t-19.5 -101q0 -50 24.5 -79
t66.5 -29q47 0 83 32z" />
    <glyph glyph-name="at" unicode="@" horiz-adv-x="904" 
d="M202 -117.5q-73 44.5 -111.5 122t-38.5 175.5q0 143 65.5 255t177 174t244.5 62q99 0 174.5 -39t116.5 -105.5t41 -145.5q0 -86 -40.5 -161t-110 -120.5t-152.5 -45.5h-22l5 53q-36 -29 -75.5 -46t-77.5 -17q-65 0 -101.5 42.5t-36.5 110.5q0 70 30.5 129t84.5 94t121 35
q32 0 65 -14t54 -35l15 42h23l-77 -367q72 0 132.5 43t96 112t35.5 144q0 71 -37.5 131t-106.5 95t-159 35q-125 0 -229 -58t-164.5 -163t-60.5 -238q0 -88 35.5 -159.5t101.5 -112.5t153 -41q68 0 129.5 20t108.5 59l20 -24q-106 -86 -258 -86q-98 0 -171 44.5zM558 146
l48 232q-46 47 -111 47q-61 0 -107 -31t-71 -83t-25 -114q0 -56 29 -89.5t82 -33.5q76 0 155 72z" />
    <glyph glyph-name="ampersand" unicode="&#x26;" horiz-adv-x="625" 
d="M92 32q-58 43 -58 117q0 77 53.5 133.5t141.5 85.5q-50 75 -50 137q0 54 26 95t71.5 63.5t100.5 22.5q47 0 91 -24.5t73 -64.5l-24 -18q-29 37 -65 56.5t-76 19.5q-74 0 -120.5 -40.5t-46.5 -106.5q0 -36 15.5 -69.5t42.5 -71.5l180 -252q36 39 61 90t37 109l6 30h32
l-6 -29q-14 -66 -43 -123t-71 -100l66 -92h-38l-50 70q-44 -38 -95.5 -59t-106.5 -21q-89 -1 -147 42zM424 93l-179 251q-77 -21 -128.5 -73t-51.5 -118q0 -61 47.5 -96.5t123.5 -35.5q106 0 188 72z" />
    <glyph glyph-name="paragraph" unicode="&#xb6;" horiz-adv-x="518" 
d="M208 -92q50 0 85.5 34t48.5 95l134 627l33 8l-135 -631q-17 -80 -61 -122t-110 -42h-20l6 31h19zM146.5 264q-57.5 41 -57.5 114q0 22 4 42q18 83 79 136.5t161 76.5l65 15l-89 -425q-105 0 -162.5 41z" />
    <glyph glyph-name="section" unicode="&#xa7;" horiz-adv-x="415" 
d="M78 -95q72 0 111 31.5t39 86.5q0 44 -43 93l-76 88q-39 44 -39 92q0 56 38 93.5t99 42.5q-38 49 -38 100q0 69 47.5 106.5t131.5 37.5h68l-6 -30h-63q-73 0 -110 -28.5t-37 -83.5q0 -46 42 -96l74 -86q18 -20 28 -44t10 -47q0 -57 -39.5 -94.5t-98.5 -42.5
q43 -52 43 -101q0 -68 -49 -108t-132 -40h-75l6 30h69zM287 179.5q36 29.5 36 78.5q0 19 -8 39.5t-23 37.5l-63 71h-5q-55 0 -89 -30t-34 -76q0 -43 31 -80l61 -70h7q51 0 87 29.5z" />
    <glyph glyph-name="copyright" unicode="&#xa9;" horiz-adv-x="780" 
d="M232.5 33.5q-79.5 43.5 -126.5 122.5t-47 182q0 100 47.5 179.5t127 124t173.5 44.5q95 0 175 -44t127.5 -123.5t47.5 -180.5q0 -102 -47.5 -181t-128 -123t-174.5 -44q-95 0 -174.5 43.5zM568 61.5q72 39.5 113.5 111.5t41.5 165q0 92 -41.5 164.5t-113.5 112.5t-161 40
q-88 0 -160 -40.5t-113.5 -113t-41.5 -163.5q0 -94 41 -166t112.5 -111t161.5 -39q89 0 161 39.5zM318.5 169.5q-41.5 24.5 -64.5 68.5t-23 100t24 100t66.5 68.5t96.5 24.5q35 0 67.5 -14.5t54.5 -41.5l-20 -20q-45 44 -103 44q-68 0 -110.5 -44t-42.5 -117t42 -117.5
t108 -44.5q64 0 115 44l20 -21q-55 -54 -136 -54q-53 0 -94.5 24.5z" />
    <glyph glyph-name="registered" unicode="&#xae;" horiz-adv-x="524" 
d="M205 308.5q-49 26.5 -77.5 75t-28.5 111.5q0 60 29 108.5t78 76t107 27.5q57 0 106 -27t78 -75.5t29 -109.5q0 -62 -29.5 -110.5t-78 -75.5t-105.5 -27q-59 0 -108 26.5zM405.5 334.5q41.5 22.5 65.5 64.5t24 96t-24 95.5t-65.5 64t-92.5 22.5q-52 0 -94 -23t-65.5 -64.5
t-23.5 -94.5q0 -84 51 -133.5t132 -49.5q51 0 92.5 22.5zM315 611q37 0 59 -18.5t22 -49.5q0 -22 -12.5 -37.5t-34.5 -22.5q21 -14 36 -43l30 -57h-33l-22 41q-14 27 -25.5 37t-39.5 10h-31v-88h-30v228h81zM350.5 511q14.5 11 14.5 31t-15 30.5t-40 10.5h-46v-83h46
q26 0 40.5 11z" />
    <glyph glyph-name="trademark" unicode="&#x2122;" horiz-adv-x="795" 
d="M228 646h-126l7 30h282l-6 -30h-127l-68 -322h-31zM460 676h29l87 -246l203 246h30l-75 -352h-31l64 294l-184 -220h-25l-80 217l-62 -291h-31z" />
    <glyph glyph-name="degree" unicode="&#xb0;" horiz-adv-x="368" 
d="M171.5 428q-30.5 18 -48.5 48.5t-18 66.5t18 66.5t49 48.5t66 18q36 0 67 -18t49 -48.5t18 -66.5t-18 -66.5t-49 -48.5t-67 -18t-66.5 18zM311.5 468.5q30.5 30.5 30.5 74.5t-30.5 74.5t-73.5 30.5t-73.5 -31t-30.5 -74t30.5 -74t73.5 -31t73.5 30.5z" />
    <glyph glyph-name="bar" unicode="|" horiz-adv-x="243" 
d="M207 735h32l-183 -861h-32z" />
    <glyph glyph-name="brokenbar" unicode="&#xa6;" horiz-adv-x="243" 
d="M207 735h32l-69 -326h-32zM94 200h31l-69 -326h-32z" />
    <glyph glyph-name="dagger" unicode="&#x2020;" horiz-adv-x="340" 
d="M212 527h-126l6 31h127l25 118l32 8l-27 -126h127l-7 -31h-127l-48 -227h-30z" />
    <glyph glyph-name="daggerdbl" unicode="&#x2021;" horiz-adv-x="344" 
d="M191 419h-116l6 31h117l22 104h-117l7 30h116l20 92l32 8l-21 -100h116l-6 -30h-117l-22 -104h117l-7 -31h-117l-23 -109h-30z" />
    <glyph glyph-name="at.case" horiz-adv-x="903" 
d="M221 -45.5q-73 44.5 -111.5 122t-38.5 175.5q0 143 65.5 255t177 174t244.5 62q99 0 174.5 -39t116.5 -105.5t41 -145.5q0 -86 -40.5 -161t-110 -120.5t-152.5 -45.5h-22l5 53q-36 -29 -75.5 -46t-77.5 -17q-65 0 -101.5 42.5t-36.5 110.5q0 70 30.5 129t84.5 94t121 35
q32 0 65 -14t54 -35l15 42h23l-77 -367q72 0 132.5 43t96 112t35.5 144q0 71 -37.5 131t-106.5 95t-159 35q-125 0 -229 -58t-164.5 -163t-60.5 -238q0 -88 35.5 -159.5t101.5 -112.5t153 -41q68 0 129.5 20t108.5 59l20 -24q-106 -86 -258 -86q-98 0 -171 44.5zM577 218
l48 232q-46 47 -111 47q-61 0 -107 -31t-71 -83t-25 -114q0 -56 29 -89.5t82 -33.5q76 0 155 72z" />
    <glyph glyph-name="uni0308" unicode="&#x308;" horiz-adv-x="0" 
d="M-306 644q-7 7 -7 18q0 15 10 26t24 11q12 0 19 -7t7 -18q0 -15 -10 -26t-24 -11q-12 0 -19 7zM-142 644q-7 7 -7 18q0 15 10 26t24 11q12 0 19 -7t7 -18q0 -15 -10 -26t-24 -11q-12 0 -19 7z" />
    <glyph glyph-name="uni0307" unicode="&#x307;" horiz-adv-x="0" 
d="M-223 644q-7 7 -7 18q0 15 10 26t24 11q12 0 19 -7t7 -18q0 -15 -10 -26t-24 -11q-12 0 -19 7z" />
    <glyph glyph-name="gravecomb" unicode="&#x300;" horiz-adv-x="0" 
d="M-263 725h42l80 -126h-34z" />
    <glyph glyph-name="acutecomb" unicode="&#x301;" horiz-adv-x="0" 
d="M-160 725h50l-142 -126h-41z" />
    <glyph glyph-name="uni0302" unicode="&#x302;" horiz-adv-x="0" 
d="M-203 725h29l88 -126h-35l-72 98l-112 -98h-39z" />
    <glyph glyph-name="uni030C" unicode="&#x30c;" horiz-adv-x="0" 
d="M-316 725h35l72 -98l112 98h39l-141 -126h-29z" />
    <glyph glyph-name="uni030A" unicode="&#x30a;" horiz-adv-x="0" 
d="M-233.5 624.5q-33.5 32.5 -33.5 78.5t33.5 77.5t77.5 31.5q29 0 55 -14.5t41.5 -39.5t15.5 -55q0 -47 -33.5 -79t-78.5 -32q-44 0 -77.5 32.5zM-98 643.5q24 23.5 24 59.5q0 35 -24 58t-58 23t-57.5 -23t-23.5 -58q0 -36 23.5 -59.5t57.5 -23.5t58 23.5z" />
    <glyph glyph-name="tildecomb" unicode="&#x303;" horiz-adv-x="0" 
d="M-171.5 629.5q-14.5 6.5 -39.5 21.5q-34 21 -59 21q-23 0 -44 -11t-48 -33l8 36q24 20 43.5 29t43.5 9q18 0 33.5 -6.5t41.5 -21.5q18 -10 31 -15.5t26 -5.5q27 0 47.5 11.5t45.5 33.5l-8 -38q-23 -19 -42 -28t-45 -9q-20 0 -34.5 6.5z" />
    <glyph glyph-name="uni0327" unicode="&#x327;" horiz-adv-x="0" 
d="M-421 -142q42 0 68.5 21t26.5 57q0 30 -24 59l33 1q23 -28 23 -63q0 -48 -37.5 -76.5t-93.5 -28.5h-19l7 30h16z" />
    <glyph glyph-name="dieresis" unicode="&#xa8;" horiz-adv-x="576" 
d="M270 644q-7 7 -7 18q0 15 10 26t24 11q12 0 19 -7t7 -18q0 -15 -10 -26t-24 -11q-12 0 -19 7zM434 644q-7 7 -7 18q0 15 10 26t24 11q12 0 19 -7t7 -18q0 -15 -10 -26t-24 -11q-12 0 -19 7z" />
    <glyph glyph-name="dotaccent" unicode="&#x2d9;" horiz-adv-x="576" 
d="M353 644q-7 7 -7 18q0 15 10 26t24 11q12 0 19 -7t7 -18q0 -15 -10 -26t-24 -11q-12 0 -19 7z" />
    <glyph glyph-name="grave" unicode="`" horiz-adv-x="576" 
d="M313 725h42l80 -126h-34z" />
    <glyph glyph-name="acute" unicode="&#xb4;" horiz-adv-x="576" 
d="M416 725h50l-142 -126h-41z" />
    <glyph glyph-name="circumflex" unicode="&#x2c6;" horiz-adv-x="576" 
d="M373 725h29l88 -126h-35l-72 98l-112 -98h-39z" />
    <glyph glyph-name="caron" unicode="&#x2c7;" horiz-adv-x="576" 
d="M260 725h35l72 -98l112 98h39l-141 -126h-29z" />
    <glyph glyph-name="ring" unicode="&#x2da;" horiz-adv-x="576" 
d="M342.5 624.5q-33.5 32.5 -33.5 78.5t33.5 77.5t77.5 31.5q29 0 55 -14.5t41.5 -39.5t15.5 -55q0 -47 -33.5 -79t-78.5 -32q-44 0 -77.5 32.5zM478 643.5q24 23.5 24 59.5q0 35 -24 58t-58 23t-57.5 -23t-23.5 -58q0 -36 23.5 -59.5t57.5 -23.5t58 23.5z" />
    <glyph glyph-name="tilde" unicode="&#x2dc;" horiz-adv-x="576" 
d="M404.5 629.5q-14.5 6.5 -39.5 21.5q-34 21 -59 21q-23 0 -44 -11t-48 -33l8 36q24 20 43.5 29t43.5 9q18 0 33.5 -6.5t41.5 -21.5q18 -10 31 -15.5t26 -5.5q27 0 47.5 11.5t45.5 33.5l-8 -38q-23 -19 -42 -28t-45 -9q-20 0 -34.5 6.5z" />
    <glyph glyph-name="cedilla" unicode="&#xb8;" horiz-adv-x="576" 
d="M155 -142q42 0 68.5 21t26.5 57q0 30 -24 59l33 1q23 -28 23 -63q0 -48 -37.5 -76.5t-93.5 -28.5h-19l7 30h16z" />
    <glyph glyph-name="uni0308.case" horiz-adv-x="0" 
d="M-279 777.5q-7 7.5 -7 18.5q0 13 10.5 23t24.5 10q12 0 19 -7t7 -18q0 -12 -10 -23t-24 -11q-13 0 -20 7.5zM-114 777q-7 7 -7 18q0 14 10 24t24 10q12 0 19.5 -7t7.5 -18q0 -13 -10 -23.5t-25 -10.5q-12 0 -19 7z" />
    <glyph glyph-name="uni0307.case" horiz-adv-x="0" 
d="M-193 786.5q-7 6.5 -7 17.5q0 14 9.5 24.5t23.5 10.5q12 0 19 -7t7 -18q0 -12 -9 -23t-24 -11q-12 0 -19 6.5z" />
    <glyph glyph-name="gravecomb.case" horiz-adv-x="0" 
d="M-234 863h43l84 -117h-36z" />
    <glyph glyph-name="acutecomb.case" horiz-adv-x="0" 
d="M-129 863h50l-141 -117h-42z" />
    <glyph glyph-name="uni0302.case" horiz-adv-x="0" 
d="M-175 863h32l90 -117h-37l-73 89l-110 -89h-42z" />
    <glyph glyph-name="uni030C.case" horiz-adv-x="0" 
d="M-289 863h37l73 -89l110 89h42l-140 -117h-32z" />
    <glyph glyph-name="uni030A.case" horiz-adv-x="0" 
d="M-270.5 769.5q-33.5 32.5 -33.5 78.5t33.5 77.5t77.5 31.5q29 0 55 -14.5t41.5 -39.5t15.5 -55q0 -47 -33.5 -79t-78.5 -32q-44 0 -77.5 32.5zM-135 788.5q24 23.5 24 59.5q0 35 -24 58t-58 23t-57.5 -23t-23.5 -58q0 -36 23.5 -59.5t57.5 -23.5t58 23.5z" />
    <glyph glyph-name="tildecomb.case" horiz-adv-x="0" 
d="M-141.5 775.5q-16.5 6.5 -29.5 14t-16 9.5q-28 16 -52 16q-23 0 -45 -10.5t-47 -31.5l8 36q24 20 43.5 28.5t43.5 8.5q18 0 33.5 -6t36.5 -17q22 -12 35 -17.5t27 -5.5q28 0 48.5 11t44.5 32l-8 -38q-23 -18 -41.5 -27t-45.5 -9q-19 0 -35.5 6.5z" />
    <glyph glyph-name="uni0327.case" horiz-adv-x="0" 
d="M-421 -141q42 0 68.5 21t26.5 56q0 30 -24 59l34 1q23 -28 23 -63q0 -48 -38 -76.5t-94 -28.5h-19l7 31h16z" />
    <glyph glyph-name="gravecomb.narrow.case" horiz-adv-x="0" 
d="M-262 863h40l66 -117h-35z" />
    <glyph glyph-name="acutecomb.narrow.case" horiz-adv-x="0" 
d="M-172 863h47l-127 -117h-40z" />
    <glyph glyph-name="gravecomb.narrow" horiz-adv-x="0" 
d="M-258 725h40l66 -126h-34z" />
    <glyph glyph-name="acutecomb.narrow" horiz-adv-x="0" 
d="M-168 725h47l-128 -126h-39z" />
    <glyph glyph-name="periodsuperior" horiz-adv-x="139" 
d="M74.5 355q-6.5 6 -6.5 16q0 13 8.5 22.5t21.5 9.5q10 0 16.5 -6t6.5 -16q0 -13 -8.5 -22.5t-21.5 -9.5q-10 0 -16.5 6z" />
    <glyph glyph-name="commasuperior" horiz-adv-x="139" 
d="M57 338.5q23 36.5 33 65.5h34q-11 -32 -34 -68t-49 -62h-32q25 28 48 64.5z" />
    </font>
</defs>
</svg>
