<?xml version="1.0" standalone="no"?>
<!DOCTYPE svg PUBLIC "-//W3C//DTD SVG 1.1//EN" "http://www.w3.org/Graphics/SVG/1.1/DTD/svg11.dtd" >
<svg xmlns="http://www.w3.org/2000/svg" xmlns:xlink="http://www.w3.org/1999/xlink" version="1.1">
<metadata>
Created by FontForge 20190801 at Thu Dec 19 10:01:09 2019
 By Henrique Beier
Copyright (c) 2019 Banco Bradesco S.A. All rights reserved.
</metadata>
<defs>
<font id="BradescoSans-CondensedBold" horiz-adv-x="521" >
  <font-face 
    font-family="Bradesco Sans Condensed"
    font-weight="700"
    font-stretch="condensed"
    units-per-em="1000"
    panose-1="0 0 8 6 0 0 0 0 0 0"
    ascent="800"
    descent="-200"
    x-height="525"
    cap-height="676"
    bbox="-448 -224 1272 1001"
    underline-thickness="50"
    underline-position="-100"
    unicode-range="U+0020-FB02"
  />
<missing-glyph horiz-adv-x="471" 
d="M386 -212h-298v942h298v-942zM158 667v-31h61v-35h-62v-31h157v31h-62v35h62v31h-156zM157 545v-98h157v32h-62v66h-95zM219 479h-31v34h31v-34zM157 422v-31h62v-35h-62v-31h95v66h62v31h-157zM283 365v-62h-126v-32h157v94h-31zM219 251v-53h33v21h31v-44h-95v76h-31
v-107h157v107h-95zM157 88v-107h157v107h-157zM283 12h-95v44h95v-44zM157 -41v-31h66l-66 -44v-31h157v31h-96l66 44h30v31h-157z" />
    <glyph glyph-name="fi" unicode="fi" horiz-adv-x="688" 
d="M494.5 617q-23.5 22 -23.5 57t23.5 57t59.5 22q37 0 61 -22t24 -57t-24 -57t-61 -22q-36 0 -59.5 22zM117 686.5q55 61.5 148 61.5q90 0 152 -60l-59 -84q-34 27 -73 27q-37 0 -57 -25t-20 -71v-10h171v-121h-171v-404h-146v520q0 105 55 166.5zM480 525h146v-525h-146
v525z" />
    <glyph glyph-name="fl" unicode="fl" horiz-adv-x="728" 
d="M117 686.5q55 61.5 148 61.5q90 0 152 -60l-59 -84q-34 27 -73 27q-37 0 -57 -25t-20 -71v-10h171v-121h-171v-404h-146v520q0 105 55 166.5zM520 44.5q-45 51.5 -45 156.5v522l146 21v-546q0 -86 68 -86h14v-119h-47q-91 0 -136 51.5z" />
    <glyph glyph-name=".notdef" horiz-adv-x="471" 
d="M386 -212h-298v942h298v-942zM158 667v-31h61v-35h-62v-31h157v31h-62v35h62v31h-156zM157 545v-98h157v32h-62v66h-95zM219 479h-31v34h31v-34zM157 422v-31h62v-35h-62v-31h95v66h62v31h-157zM283 365v-62h-126v-32h157v94h-31zM219 251v-53h33v21h31v-44h-95v76h-31
v-107h157v107h-95zM157 88v-107h157v107h-157zM283 12h-95v44h95v-44zM157 -41v-31h66l-66 -44v-31h157v31h-96l66 44h30v31h-157z" />
    <glyph glyph-name="space" unicode=" " horiz-adv-x="255" 
 />
    <glyph glyph-name="A" unicode="A" horiz-adv-x="630" 
d="M235 676h161l216 -676h-158l-40 147h-204l-41 -147h-151zM379 273l-67 243l-67 -243h134z" />
    <glyph glyph-name="Aacute" unicode="&#xc1;" horiz-adv-x="630" 
d="M235 676h161l216 -676h-158l-40 147h-204l-41 -147h-151zM379 273l-67 243l-67 -243h134zM339 888h152l-137 -146h-137z" />
    <glyph glyph-name="Acircumflex" unicode="&#xc2;" horiz-adv-x="630" 
d="M235 676h161l216 -676h-158l-40 147h-204l-41 -147h-151zM379 273l-67 243l-67 -243h134zM250 888h128l122 -146h-127l-58 71l-61 -71h-126z" />
    <glyph glyph-name="Adieresis" unicode="&#xc4;" horiz-adv-x="630" 
d="M235 676h161l216 -676h-158l-40 147h-204l-41 -147h-151zM379 273l-67 243l-67 -243h134zM154.5 755q-22.5 21 -22.5 54t23 54.5t56 21.5q34 0 56.5 -21.5t22.5 -54.5t-22.5 -54t-56.5 -21t-56.5 21zM363.5 755q-22.5 21 -22.5 54t23 54.5t56 21.5q34 0 56.5 -21.5
t22.5 -54.5t-22.5 -54t-56.5 -21t-56.5 21z" />
    <glyph glyph-name="Agrave" unicode="&#xc0;" horiz-adv-x="630" 
d="M235 676h161l216 -676h-158l-40 147h-204l-41 -147h-151zM379 273l-67 243l-67 -243h134zM140 888h151l123 -146h-138z" />
    <glyph glyph-name="Aring" unicode="&#xc5;" horiz-adv-x="630" 
d="M612 0h-158l-40 147h-204l-41 -147h-151l206 642q-42 40 -42 97t39 95t96 38q36 0 67 -17.5t49 -48t18 -67.5q0 -29 -11.5 -54.5t-32.5 -43.5zM279.5 780q-14.5 -16 -14.5 -41t14.5 -41.5t37.5 -16.5q22 0 36.5 16.5t14.5 41.5t-14.5 41t-36.5 16q-23 0 -37.5 -16z
M245 273h134l-67 243z" />
    <glyph glyph-name="Atilde" unicode="&#xc3;" horiz-adv-x="630" 
d="M235 676h161l216 -676h-158l-40 147h-204l-41 -147h-151zM379 273l-67 243l-67 -243h134zM353 744.5q-17 6.5 -38 19.5q-22 14 -37 20t-32 6q-23 0 -43.5 -9t-47.5 -27v102q23 18 45 27t48 9q23 0 41 -6t39 -19q23 -14 37 -20t30 -6q28 0 48.5 9.5t45.5 27.5v-102
q-24 -18 -46 -28t-51 -10q-22 0 -39 6.5z" />
    <glyph glyph-name="AE" unicode="&#xc6;" horiz-adv-x="941" 
d="M416 676h472v-135h-272v-131h237v-133h-237v-141h279v-136h-424v145h-214l-84 -145h-166zM471 272v242l-140 -242h140z" />
    <glyph glyph-name="B" unicode="B" horiz-adv-x="591" 
d="M308 676q97 0 153 -49t56 -131q0 -43 -20 -77.5t-56 -58.5q52 -22 82 -66t30 -100q0 -89 -56.5 -141.5t-154.5 -52.5h-270v676h236zM355 423q22 21 22 58q0 38 -22.5 59.5t-65.5 21.5h-79v-160h80q43 0 65 21zM387.5 137q24.5 22 24.5 64q0 37 -24 59.5t-67 22.5h-111
v-168h108q45 0 69.5 22z" />
    <glyph glyph-name="C" unicode="C" horiz-adv-x="588" 
d="M187.5 31q-65.5 43 -102 122t-36.5 184q0 100 38 180t105 125t149 45q66 0 124 -28t91 -75l-94 -90q-23 28 -49 41.5t-63 13.5q-43 0 -76 -26.5t-52 -75t-19 -110.5q0 -61 18 -109t50 -74.5t74 -26.5q39 0 67.5 12.5t56.5 42.5l93 -92q-37 -49 -94.5 -75.5t-128.5 -26.5
q-86 0 -151.5 43z" />
    <glyph glyph-name="Ccedilla" unicode="&#xc7;" horiz-adv-x="588" 
d="M398 -7q27 -37 27 -76q0 -58 -44 -90.5t-122 -32.5h-36v99h32q27 0 43 11t16 32q0 15 -6 28t-19 28q-72 12 -126.5 57.5t-84 119.5t-29.5 168q0 100 38 180t105 125t149 45q66 0 124 -28t91 -75l-94 -90q-23 28 -49 41.5t-63 13.5q-43 0 -76 -26.5t-52 -75t-19 -110.5
q0 -61 18 -109t50 -74.5t74 -26.5q39 0 67.5 12.5t56.5 42.5l93 -92q-59 -78 -164 -97z" />
    <glyph glyph-name="D" unicode="D" horiz-adv-x="654" 
d="M298 676q91 0 161 -41t108 -117.5t38 -178.5q0 -103 -38.5 -179.5t-108 -118t-160.5 -41.5h-226v676h226zM411 188q41 52 41 151q0 97 -40.5 149t-119.5 52h-72v-404h72q78 0 119 52z" />
    <glyph glyph-name="Eth" unicode="&#xd0;" horiz-adv-x="686" 
d="M30 274v129h74v273h226q91 0 161 -41t108 -117.5t38 -178.5q0 -103 -38.5 -179.5t-108 -118t-160.5 -41.5h-226v274h-74zM443 188q41 52 41 151q0 97 -40.5 149t-119.5 52h-72v-137h119v-129h-119v-138h72q78 0 119 52z" />
    <glyph glyph-name="E" unicode="E" horiz-adv-x="542" 
d="M72 676h417v-135h-272v-131h237v-133h-237v-141h279v-136h-424v676z" />
    <glyph glyph-name="Eacute" unicode="&#xc9;" horiz-adv-x="542" 
d="M72 676h417v-135h-272v-131h237v-133h-237v-141h279v-136h-424v676zM309 888h152l-137 -146h-137z" />
    <glyph glyph-name="Ecircumflex" unicode="&#xca;" horiz-adv-x="542" 
d="M72 676h417v-135h-272v-131h237v-133h-237v-141h279v-136h-424v676zM220 888h128l122 -146h-127l-58 71l-61 -71h-126z" />
    <glyph glyph-name="Edieresis" unicode="&#xcb;" horiz-adv-x="542" 
d="M72 676h417v-135h-272v-131h237v-133h-237v-141h279v-136h-424v676zM124.5 755q-22.5 21 -22.5 54t23 54.5t56 21.5q34 0 56.5 -21.5t22.5 -54.5t-22.5 -54t-56.5 -21t-56.5 21zM333.5 755q-22.5 21 -22.5 54t23 54.5t56 21.5q34 0 56.5 -21.5t22.5 -54.5t-22.5 -54
t-56.5 -21t-56.5 21z" />
    <glyph glyph-name="Egrave" unicode="&#xc8;" horiz-adv-x="542" 
d="M72 676h417v-135h-272v-131h237v-133h-237v-141h279v-136h-424v676zM110 888h151l123 -146h-138z" />
    <glyph glyph-name="F" unicode="F" horiz-adv-x="526" 
d="M72 676h412v-140h-266v-149h232v-139h-232v-248h-146v676z" />
    <glyph glyph-name="G" unicode="G" horiz-adv-x="630" 
d="M187.5 30q-65.5 41 -102 119.5t-36.5 187.5q0 103 39 182.5t107 123.5t152 44q64 0 121.5 -26t93.5 -73l-92 -93q-24 28 -52 41t-65 13q-69 0 -109.5 -56.5t-40.5 -155.5q0 -100 38.5 -155t103.5 -55q64 0 98 23v103h-103v118h232v-298q-44 -40 -106 -62t-126 -22
q-87 0 -152.5 41z" />
    <glyph glyph-name="H" unicode="H" horiz-adv-x="658" 
d="M72 676h150v-258h214v258h150v-676h-150v274h-214v-274h-150v676z" />
    <glyph glyph-name="I" unicode="I" horiz-adv-x="294" 
d="M72 676h150v-676h-150v676z" />
    <glyph glyph-name="Iacute" unicode="&#xcd;" horiz-adv-x="294" 
d="M72 676h150v-676h-150v676zM167 888h152l-115 -146h-137z" />
    <glyph glyph-name="Icircumflex" unicode="&#xce;" horiz-adv-x="294" 
d="M72 676h150v-676h-150v676zM82 888h128l122 -146h-127l-58 71l-61 -71h-126z" />
    <glyph glyph-name="Idieresis" unicode="&#xcf;" horiz-adv-x="294" 
d="M72 676h150v-676h-150v676zM-13.5 755q-22.5 21 -22.5 54t23 54.5t56 21.5q34 0 56.5 -21.5t22.5 -54.5t-22.5 -54t-56.5 -21t-56.5 21zM195.5 755q-22.5 21 -22.5 54t23 54.5t56 21.5q34 0 56.5 -21.5t22.5 -54.5t-22.5 -54t-56.5 -21t-56.5 21z" />
    <glyph glyph-name="Igrave" unicode="&#xcc;" horiz-adv-x="294" 
d="M72 676h150v-676h-150v676zM-25 888h152l100 -146h-137z" />
    <glyph glyph-name="J" unicode="J" horiz-adv-x="431" 
d="M88 145q60 0 93 37t33 109v385h151v-394q0 -140 -67 -211t-191 -71h-67v145h48z" />
    <glyph glyph-name="K" unicode="K" horiz-adv-x="646" 
d="M219 676v-260h38q30 0 48 7t36.5 32.5t42.5 81.5l62 139h164l-96 -202q-34 -72 -79 -122l201 -352h-175l-150 276q-13 -3 -27 -3h-65v-273h-147v676h147z" />
    <glyph glyph-name="L" unicode="L" horiz-adv-x="524" 
d="M72 676h150v-530h262v-146h-412v676z" />
    <glyph glyph-name="M" unicode="M" horiz-adv-x="787" 
d="M72 676h139l182 -400l187 400h135v-676h-147v391l-118 -268h-119l-116 259v-382h-143v676z" />
    <glyph glyph-name="N" unicode="N" horiz-adv-x="662" 
d="M72 676h124l247 -396v396h147v-676h-124l-247 396v-396h-147v676z" />
    <glyph glyph-name="Ntilde" unicode="&#xd1;" horiz-adv-x="662" 
d="M72 676h124l247 -396v396h147v-676h-124l-247 396v-396h-147v676zM369 744.5q-17 6.5 -38 19.5q-22 14 -37 20t-32 6q-23 0 -43.5 -9t-47.5 -27v102q23 18 45 27t48 9q23 0 41 -6t39 -19q23 -14 37 -20t30 -6q28 0 48.5 9.5t45.5 27.5v-102q-24 -18 -46 -28t-51 -10
q-22 0 -39 6.5z" />
    <glyph glyph-name="O" unicode="O" horiz-adv-x="686" 
d="M192 31.5q-67 43.5 -105 123.5t-38 183q0 101 38.5 180.5t105.5 124.5t149 45q83 0 150.5 -44.5t106 -124t38.5 -181.5t-38.5 -181.5t-106 -124t-150.5 -44.5t-150 43.5zM446.5 182.5q37.5 55.5 37.5 155.5q0 99 -37.5 155t-103.5 56q-67 0 -104 -56.5t-37 -154.5
q0 -99 37 -155t103 -56q67 0 104.5 55.5z" />
    <glyph glyph-name="Oacute" unicode="&#xd3;" horiz-adv-x="686" 
d="M192 31.5q-67 43.5 -105 123.5t-38 183q0 101 38.5 180.5t105.5 124.5t149 45q83 0 150.5 -44.5t106 -124t38.5 -181.5t-38.5 -181.5t-106 -124t-150.5 -44.5t-150 43.5zM446.5 182.5q37.5 55.5 37.5 155.5q0 99 -37.5 155t-103.5 56q-67 0 -104 -56.5t-37 -154.5
q0 -99 37 -155t103 -56q67 0 104.5 55.5zM367 888h152l-137 -146h-137z" />
    <glyph glyph-name="Ocircumflex" unicode="&#xd4;" horiz-adv-x="686" 
d="M192 31.5q-67 43.5 -105 123.5t-38 183q0 101 38.5 180.5t105.5 124.5t149 45q83 0 150.5 -44.5t106 -124t38.5 -181.5t-38.5 -181.5t-106 -124t-150.5 -44.5t-150 43.5zM446.5 182.5q37.5 55.5 37.5 155.5q0 99 -37.5 155t-103.5 56q-67 0 -104 -56.5t-37 -154.5
q0 -99 37 -155t103 -56q67 0 104.5 55.5zM278 888h128l122 -146h-127l-58 71l-61 -71h-126z" />
    <glyph glyph-name="Odieresis" unicode="&#xd6;" horiz-adv-x="686" 
d="M192 31.5q-67 43.5 -105 123.5t-38 183q0 101 38.5 180.5t105.5 124.5t149 45q83 0 150.5 -44.5t106 -124t38.5 -181.5t-38.5 -181.5t-106 -124t-150.5 -44.5t-150 43.5zM446.5 182.5q37.5 55.5 37.5 155.5q0 99 -37.5 155t-103.5 56q-67 0 -104 -56.5t-37 -154.5
q0 -99 37 -155t103 -56q67 0 104.5 55.5zM182.5 755q-22.5 21 -22.5 54t23 54.5t56 21.5q34 0 56.5 -21.5t22.5 -54.5t-22.5 -54t-56.5 -21t-56.5 21zM391.5 755q-22.5 21 -22.5 54t23 54.5t56 21.5q34 0 56.5 -21.5t22.5 -54.5t-22.5 -54t-56.5 -21t-56.5 21z" />
    <glyph glyph-name="Ograve" unicode="&#xd2;" horiz-adv-x="686" 
d="M192 31.5q-67 43.5 -105 123.5t-38 183q0 101 38.5 180.5t105.5 124.5t149 45q83 0 150.5 -44.5t106 -124t38.5 -181.5t-38.5 -181.5t-106 -124t-150.5 -44.5t-150 43.5zM446.5 182.5q37.5 55.5 37.5 155.5q0 99 -37.5 155t-103.5 56q-67 0 -104 -56.5t-37 -154.5
q0 -99 37 -155t103 -56q67 0 104.5 55.5zM168 888h151l123 -146h-138z" />
    <glyph glyph-name="Oslash" unicode="&#xd8;" horiz-adv-x="686" 
d="M70 198q-21 64 -21 140q0 101 38.5 180.5t105.5 124.5t149 45q64 0 122 -28l41 70h133l-83 -142q39 -48 60.5 -111.5t21.5 -138.5q0 -102 -38.5 -181.5t-106 -124t-150.5 -44.5q-64 0 -120 27l-40 -70h-134l82 142q-39 47 -60 111zM343 549q-67 0 -104 -56.5t-37 -154.5
q0 -58 14 -105l178 306q-21 10 -51 10zM446.5 182.5q37.5 55.5 37.5 155.5q0 58 -14 103l-177 -305q22 -9 49 -9q67 0 104.5 55.5z" />
    <glyph glyph-name="Otilde" unicode="&#xd5;" horiz-adv-x="686" 
d="M192 31.5q-67 43.5 -105 123.5t-38 183q0 101 38.5 180.5t105.5 124.5t149 45q83 0 150.5 -44.5t106 -124t38.5 -181.5t-38.5 -181.5t-106 -124t-150.5 -44.5t-150 43.5zM446.5 182.5q37.5 55.5 37.5 155.5q0 99 -37.5 155t-103.5 56q-67 0 -104 -56.5t-37 -154.5
q0 -99 37 -155t103 -56q67 0 104.5 55.5zM381 744.5q-17 6.5 -38 19.5q-22 14 -37 20t-32 6q-23 0 -43.5 -9t-47.5 -27v102q23 18 45 27t48 9q23 0 41 -6t39 -19q23 -14 37 -20t30 -6q28 0 48.5 9.5t45.5 27.5v-102q-24 -18 -46 -28t-51 -10q-22 0 -39 6.5z" />
    <glyph glyph-name="OE" unicode="&#x152;" horiz-adv-x="960" 
d="M189.5 30.5q-65.5 42.5 -103 122t-37.5 185.5q0 103 38 183t103.5 123.5t144.5 43.5q42 0 82 -18t73 -51v57h417v-135h-272v-131h237v-133h-237v-141h279v-136h-424v58q-33 -34 -72.5 -52t-82.5 -18q-80 0 -145.5 42.5zM445.5 185q38.5 58 38.5 154q0 95 -38 152.5
t-103 57.5q-66 0 -103.5 -57.5t-37.5 -152.5q0 -97 37 -154.5t103 -57.5q65 0 103.5 58z" />
    <glyph glyph-name="P" unicode="P" horiz-adv-x="583" 
d="M317 676q67 0 118 -28t79.5 -80t28.5 -120t-28.5 -119.5t-79.5 -80t-118 -28.5h-94v-220h-151v676h245zM366.5 374q24.5 26 24.5 74q0 49 -24.5 76t-72.5 27h-71v-203h71q48 0 72.5 26z" />
    <glyph glyph-name="Thorn" unicode="&#xde;" horiz-adv-x="581" 
d="M223 676v-83h94q67 0 118 -28t79.5 -80t28.5 -120t-28.5 -119.5t-79.5 -80t-118 -28.5h-94v-137h-151v676h151zM366.5 291q24.5 26 24.5 74q0 49 -24.5 76t-72.5 27h-71v-203h71q48 0 72.5 26z" />
    <glyph glyph-name="Q" unicode="Q" horiz-adv-x="686" 
d="M342 -12q-83 0 -150 43.5t-105 123.5t-38 183q0 101 38.5 180.5t105.5 124.5t149 45q83 0 150.5 -44.5t106 -124t38.5 -181.5q0 -75 -21.5 -139t-60.5 -111l68 -104l-106 -70l-64 97q-52 -23 -111 -23zM377 127l-67 102l106 71l53 -81q15 47 15 119q0 99 -37.5 155
t-103.5 56q-67 0 -104 -56.5t-37 -154.5q0 -101 37 -158t103 -57q20 0 35 4z" />
    <glyph glyph-name="R" unicode="R" horiz-adv-x="596" 
d="M312 676q67 0 118 -26.5t79 -75t28 -110.5q0 -58 -27.5 -103t-75.5 -69q43 -37 72 -105l78 -187h-162l-45 116q-17 46 -31 70t-34.5 36.5t-53.5 12.5h-41v-235h-145v676h240zM362.5 384.5q24.5 25.5 24.5 72.5q0 98 -97 98h-73v-196h73q48 0 72.5 25.5z" />
    <glyph glyph-name="S" unicode="S" horiz-adv-x="570" 
d="M148 10.5q-63 22.5 -125 73.5l76 106q87 -67 190 -67q40 0 62 17.5t22 49.5q0 36 -25 53t-87 34q-111 30 -160.5 77t-49.5 136q0 56 30 101t82.5 71t117.5 26q69 0 126.5 -23.5t109.5 -77.5l-85 -92q-30 28 -70 44t-82 16q-35 0 -57 -17.5t-22 -46.5q0 -32 24.5 -49
t91.5 -35q108 -29 158 -79t50 -133q0 -94 -63.5 -150.5t-174.5 -56.5q-76 0 -139 22.5z" />
    <glyph glyph-name="Scaron" unicode="&#x160;" horiz-adv-x="570" 
d="M148 10.5q-63 22.5 -125 73.5l76 106q87 -67 190 -67q40 0 62 17.5t22 49.5q0 36 -25 53t-87 34q-111 30 -160.5 77t-49.5 136q0 56 30 101t82.5 71t117.5 26q69 0 126.5 -23.5t109.5 -77.5l-85 -92q-30 28 -70 44t-82 16q-35 0 -57 -17.5t-22 -46.5q0 -32 24.5 -49
t91.5 -35q108 -29 158 -79t50 -133q0 -94 -63.5 -150.5t-174.5 -56.5q-76 0 -139 22.5zM99 888h127l59 -73l60 73h126l-122 -146h-129z" />
    <glyph glyph-name="uni1E9E" unicode="&#x1e9e;" horiz-adv-x="639" 
d="M311.5 4q-44.5 16 -72.5 45l62 94q39 -33 89 -33q35 0 56.5 23.5t21.5 61.5q0 42 -29 65.5t-81 23.5h-56v81l114 173q-13 11 -33.5 17.5t-44.5 6.5q-62 0 -98.5 -48t-36.5 -144v-370h-141v375q0 99 34 169.5t96 106.5t144 36q69 0 134.5 -29.5t106.5 -76.5l-133 -204
l14 -2q65 -9 106 -59.5t41 -121.5q0 -61 -24.5 -107.5t-69.5 -72.5t-104 -26q-51 0 -95.5 16z" />
    <glyph glyph-name="T" unicode="T" horiz-adv-x="564" 
d="M206 532h-168v144h488v-144h-170v-532h-150v532z" />
    <glyph glyph-name="U" unicode="U" horiz-adv-x="658" 
d="M135.5 68q-69.5 80 -69.5 239v369h150v-374q0 -175 112 -175q59 0 86.5 42.5t27.5 132.5v374h150v-369q0 -102 -32.5 -174t-92 -108.5t-139.5 -36.5q-123 0 -192.5 80z" />
    <glyph glyph-name="Uacute" unicode="&#xda;" horiz-adv-x="658" 
d="M135.5 68q-69.5 80 -69.5 239v369h150v-374q0 -175 112 -175q59 0 86.5 42.5t27.5 132.5v374h150v-369q0 -102 -32.5 -174t-92 -108.5t-139.5 -36.5q-123 0 -192.5 80zM353 888h152l-137 -146h-137z" />
    <glyph glyph-name="Ucircumflex" unicode="&#xdb;" horiz-adv-x="658" 
d="M135.5 68q-69.5 80 -69.5 239v369h150v-374q0 -175 112 -175q59 0 86.5 42.5t27.5 132.5v374h150v-369q0 -102 -32.5 -174t-92 -108.5t-139.5 -36.5q-123 0 -192.5 80zM264 888h128l122 -146h-127l-58 71l-61 -71h-126z" />
    <glyph glyph-name="Udieresis" unicode="&#xdc;" horiz-adv-x="658" 
d="M135.5 68q-69.5 80 -69.5 239v369h150v-374q0 -175 112 -175q59 0 86.5 42.5t27.5 132.5v374h150v-369q0 -102 -32.5 -174t-92 -108.5t-139.5 -36.5q-123 0 -192.5 80zM168.5 755q-22.5 21 -22.5 54t23 54.5t56 21.5q34 0 56.5 -21.5t22.5 -54.5t-22.5 -54t-56.5 -21
t-56.5 21zM377.5 755q-22.5 21 -22.5 54t23 54.5t56 21.5q34 0 56.5 -21.5t22.5 -54.5t-22.5 -54t-56.5 -21t-56.5 21z" />
    <glyph glyph-name="Ugrave" unicode="&#xd9;" horiz-adv-x="658" 
d="M135.5 68q-69.5 80 -69.5 239v369h150v-374q0 -175 112 -175q59 0 86.5 42.5t27.5 132.5v374h150v-369q0 -102 -32.5 -174t-92 -108.5t-139.5 -36.5q-123 0 -192.5 80zM154 888h151l123 -146h-138z" />
    <glyph glyph-name="V" unicode="V" horiz-adv-x="651" 
d="M18 676h173l137 -492l136 492h169l-224 -676h-168z" />
    <glyph glyph-name="W" unicode="W" horiz-adv-x="893" 
d="M26 676h165l78 -486l100 440h161l94 -440l83 486h160l-162 -676h-163l-99 435l-101 -435h-160z" />
    <glyph glyph-name="Wacute" unicode="&#x1e82;" horiz-adv-x="893" 
d="M26 676h165l78 -486l100 440h161l94 -440l83 486h160l-162 -676h-163l-99 435l-101 -435h-160zM470 888h152l-137 -146h-137z" />
    <glyph glyph-name="Wcircumflex" unicode="&#x174;" horiz-adv-x="893" 
d="M26 676h165l78 -486l100 440h161l94 -440l83 486h160l-162 -676h-163l-99 435l-101 -435h-160zM381 888h128l122 -146h-127l-58 71l-61 -71h-126z" />
    <glyph glyph-name="Wdieresis" unicode="&#x1e84;" horiz-adv-x="893" 
d="M26 676h165l78 -486l100 440h161l94 -440l83 486h160l-162 -676h-163l-99 435l-101 -435h-160zM285.5 755q-22.5 21 -22.5 54t23 54.5t56 21.5q34 0 56.5 -21.5t22.5 -54.5t-22.5 -54t-56.5 -21t-56.5 21zM494.5 755q-22.5 21 -22.5 54t23 54.5t56 21.5q34 0 56.5 -21.5
t22.5 -54.5t-22.5 -54t-56.5 -21t-56.5 21z" />
    <glyph glyph-name="Wgrave" unicode="&#x1e80;" horiz-adv-x="893" 
d="M26 676h165l78 -486l100 440h161l94 -440l83 486h160l-162 -676h-163l-99 435l-101 -435h-160zM271 888h151l123 -146h-138z" />
    <glyph glyph-name="X" unicode="X" horiz-adv-x="650" 
d="M237 351l-205 325h182l116 -208l110 208h176l-201 -324l216 -352h-180l-130 238l-126 -238h-176z" />
    <glyph glyph-name="Y" unicode="Y" horiz-adv-x="615" 
d="M233 250l-215 426h173l119 -280l120 280h167l-213 -424v-252h-151v250z" />
    <glyph glyph-name="Yacute" unicode="&#xdd;" horiz-adv-x="615" 
d="M233 250l-215 426h173l119 -280l120 280h167l-213 -424v-252h-151v250zM332 888h152l-137 -146h-137z" />
    <glyph glyph-name="Ycircumflex" unicode="&#x176;" horiz-adv-x="615" 
d="M233 250l-215 426h173l119 -280l120 280h167l-213 -424v-252h-151v250zM243 888h128l122 -146h-127l-58 71l-61 -71h-126z" />
    <glyph glyph-name="Ydieresis" unicode="&#x178;" horiz-adv-x="615" 
d="M233 250l-215 426h173l119 -280l120 280h167l-213 -424v-252h-151v250zM147.5 755q-22.5 21 -22.5 54t23 54.5t56 21.5q34 0 56.5 -21.5t22.5 -54.5t-22.5 -54t-56.5 -21t-56.5 21zM356.5 755q-22.5 21 -22.5 54t23 54.5t56 21.5q34 0 56.5 -21.5t22.5 -54.5t-22.5 -54
t-56.5 -21t-56.5 21z" />
    <glyph glyph-name="Ygrave" unicode="&#x1ef2;" horiz-adv-x="615" 
d="M233 250l-215 426h173l119 -280l120 280h167l-213 -424v-252h-151v250zM133 888h151l123 -146h-138z" />
    <glyph glyph-name="Z" unicode="Z" horiz-adv-x="567" 
d="M46 119l286 418h-276v139h455v-119l-286 -417h294v-140h-473v119z" />
    <glyph glyph-name="Zcaron" unicode="&#x17d;" horiz-adv-x="567" 
d="M46 119l286 418h-276v139h455v-119l-286 -417h294v-140h-473v119zM98 888h127l59 -73l60 73h126l-122 -146h-129z" />
    <glyph glyph-name="a" unicode="a" horiz-adv-x="507" 
d="M76.5 30q-40.5 42 -40.5 116q0 75 54 118t149 43h79v10q0 53 -20.5 79t-62.5 26q-61 0 -115 -51l-70 81q40 40 89.5 62.5t100.5 22.5q104 0 157 -60t53 -176v-301h-102l-16 53q-31 -30 -68 -47.5t-76 -17.5q-71 0 -111.5 42zM318 148v67h-78q-38 0 -58.5 -16.5
t-20.5 -46.5q0 -26 15.5 -42t41.5 -16q56 0 100 54z" />
    <glyph glyph-name="aacute" unicode="&#xe1;" horiz-adv-x="507" 
d="M76.5 30q-40.5 42 -40.5 116q0 75 54 118t149 43h79v10q0 53 -20.5 79t-62.5 26q-61 0 -115 -51l-70 81q40 40 89.5 62.5t100.5 22.5q104 0 157 -60t53 -176v-301h-102l-16 53q-31 -30 -68 -47.5t-76 -17.5q-71 0 -111.5 42zM318 148v67h-78q-38 0 -58.5 -16.5
t-20.5 -46.5q0 -26 15.5 -42t41.5 -16q56 0 100 54zM269 748h144l-126 -148h-132z" />
    <glyph glyph-name="acircumflex" unicode="&#xe2;" horiz-adv-x="507" 
d="M76.5 30q-40.5 42 -40.5 116q0 75 54 118t149 43h79v10q0 53 -20.5 79t-62.5 26q-61 0 -115 -51l-70 81q40 40 89.5 62.5t100.5 22.5q104 0 157 -60t53 -176v-301h-102l-16 53q-31 -30 -68 -47.5t-76 -17.5q-71 0 -111.5 42zM318 148v67h-78q-38 0 -58.5 -16.5
t-20.5 -46.5q0 -26 15.5 -42t41.5 -16q56 0 100 54zM189 748h123l115 -148h-119l-58 74l-59 -74h-118z" />
    <glyph glyph-name="adieresis" unicode="&#xe4;" horiz-adv-x="507" 
d="M76.5 30q-40.5 42 -40.5 116q0 75 54 118t149 43h79v10q0 53 -20.5 79t-62.5 26q-61 0 -115 -51l-70 81q40 40 89.5 62.5t100.5 22.5q104 0 157 -60t53 -176v-301h-102l-16 53q-31 -30 -68 -47.5t-76 -17.5q-71 0 -111.5 42zM318 148v67h-78q-38 0 -58.5 -16.5
t-20.5 -46.5q0 -26 15.5 -42t41.5 -16q56 0 100 54zM94.5 618q-21.5 20 -21.5 52t21.5 52.5t54.5 20.5t54.5 -20.5t21.5 -52.5t-21.5 -52t-54.5 -20t-54.5 20zM296.5 618q-21.5 20 -21.5 52t21.5 52.5t54.5 20.5t54.5 -20.5t21.5 -52.5t-21.5 -52t-54.5 -20t-54.5 20z" />
    <glyph glyph-name="agrave" unicode="&#xe0;" horiz-adv-x="507" 
d="M76.5 30q-40.5 42 -40.5 116q0 75 54 118t149 43h79v10q0 53 -20.5 79t-62.5 26q-61 0 -115 -51l-70 81q40 40 89.5 62.5t100.5 22.5q104 0 157 -60t53 -176v-301h-102l-16 53q-31 -30 -68 -47.5t-76 -17.5q-71 0 -111.5 42zM318 148v67h-78q-38 0 -58.5 -16.5
t-20.5 -46.5q0 -26 15.5 -42t41.5 -16q56 0 100 54zM86 748h145l113 -148h-131z" />
    <glyph glyph-name="aring" unicode="&#xe5;" horiz-adv-x="507" 
d="M76.5 30q-40.5 42 -40.5 116q0 75 54 118t149 43h79v10q0 53 -20.5 79t-62.5 26q-61 0 -115 -51l-70 81q40 40 89.5 62.5t100.5 22.5q104 0 157 -60t53 -176v-301h-102l-16 53q-31 -30 -68 -47.5t-76 -17.5q-71 0 -111.5 42zM318 148v67h-78q-38 0 -58.5 -16.5
t-20.5 -46.5q0 -26 15.5 -42t41.5 -16q56 0 100 54zM184.5 609q-29.5 17 -47 46.5t-17.5 64.5q0 36 17.5 65t47 46t64.5 17q34 0 63.5 -17t47 -46t17.5 -65t-17.5 -65t-47 -46t-63.5 -17q-35 0 -64.5 17zM285 679q14 16 14 41t-14 40t-36 15t-36.5 -15.5t-14.5 -39.5
q0 -25 14.5 -41t36.5 -16t36 16z" />
    <glyph glyph-name="atilde" unicode="&#xe3;" horiz-adv-x="507" 
d="M76.5 30q-40.5 42 -40.5 116q0 75 54 118t149 43h79v10q0 53 -20.5 79t-62.5 26q-61 0 -115 -51l-70 81q40 40 89.5 62.5t100.5 22.5q104 0 157 -60t53 -176v-301h-102l-16 53q-31 -30 -68 -47.5t-76 -17.5q-71 0 -111.5 42zM318 148v67h-78q-38 0 -58.5 -16.5
t-20.5 -46.5q0 -26 15.5 -42t41.5 -16q56 0 100 54zM286.5 604q-16.5 6 -35.5 20t-33.5 20.5t-30.5 6.5q-23 0 -42 -9t-44 -27v97q23 19 43.5 29t43.5 10q21 0 38 -6.5t36 -19.5q20 -14 34 -20.5t30 -6.5q26 0 44.5 9t42.5 27v-98q-22 -18 -42.5 -28t-46.5 -10
q-21 0 -37.5 6z" />
    <glyph glyph-name="ae" unicode="&#xe6;" horiz-adv-x="802" 
d="M77.5 30.5q-41.5 42.5 -41.5 116.5t54 117.5t149 43.5h79v9q0 105 -83 105q-61 0 -115 -51l-70 81q40 40 89.5 62.5t100.5 22.5q100 0 150 -74q31 35 71.5 54t86.5 19q65 0 113 -34.5t74.5 -98t26.5 -148.5v-36h-312q8 -51 38.5 -81.5t77.5 -30.5q33 0 57.5 10t46.5 34
l78 -77q-37 -46 -83.5 -66t-108.5 -20q-56 0 -100.5 22.5t-76.5 63.5q-79 -86 -188 -86q-72 0 -113.5 42.5zM605.5 397q-21.5 28 -60.5 28q-38 0 -63 -28.5t-32 -83.5h178q-1 56 -22.5 84zM338 154q-10 34 -14 62h-84q-37 0 -58 -17t-21 -46q0 -26 16 -42.5t41 -16.5
q65 0 120 60z" />
    <glyph glyph-name="b" unicode="b" horiz-adv-x="578" 
d="M185 49l-15 -49h-108v723l146 21v-265q60 57 128 57q58 0 103.5 -33.5t71 -95t25.5 -143.5q0 -78 -29 -140.5t-78 -97.5t-107 -35q-79 0 -137 58zM364.5 153.5q28.5 39.5 28.5 113.5q0 67 -24.5 104t-70.5 37q-54 0 -90 -54v-206q37 -34 78 -34q50 0 78.5 39.5z" />
    <glyph glyph-name="c" unicode="c" horiz-adv-x="483" 
d="M154 22q-53 33 -82.5 95t-29.5 147q0 76 30.5 138.5t85 98t121.5 35.5q53 0 99 -24t73 -65l-80 -80q-18 22 -37 32.5t-45 10.5q-47 0 -75 -39t-28 -107q0 -70 28.5 -109.5t74.5 -39.5q25 0 45.5 10.5t41.5 33.5l80 -82q-35 -41 -81 -64.5t-98 -23.5q-70 0 -123 33z" />
    <glyph glyph-name="ccedilla" unicode="&#xe7;" horiz-adv-x="483" 
d="M319 -7q26 -34 26 -74q0 -57 -40.5 -89t-107.5 -32h-33v93h29q23 0 36 11.5t13 32.5q0 16 -5 29.5t-18 30.5q-82 19 -129.5 89.5t-47.5 179.5q0 76 30.5 138.5t85 98t121.5 35.5q53 0 99 -24t73 -65l-80 -80q-18 22 -37 32.5t-45 10.5q-47 0 -75 -39t-28 -107
q0 -70 28.5 -109.5t74.5 -39.5q25 0 45.5 10.5t41.5 33.5l80 -82q-57 -68 -137 -84z" />
    <glyph glyph-name="d" unicode="d" horiz-adv-x="578" 
d="M137.5 22q-45.5 33 -70.5 95t-25 145q0 80 29.5 142t80.5 96.5t113 34.5q56 0 105 -36v224l146 21v-744h-108l-19 62q-31 -35 -69 -54t-78 -19q-59 0 -104.5 33zM330 131.5q23 14.5 40 39.5v208q-36 33 -79 33q-49 0 -77.5 -40t-28.5 -114q0 -67 24.5 -104t70.5 -37
q27 0 50 14.5z" />
    <glyph glyph-name="eth" unicode="&#xf0;" horiz-adv-x="554" 
d="M155.5 22q-53.5 33 -84 92.5t-30.5 136.5q0 68 26 123.5t73 87.5t107 32q53 0 99 -29q-17 50 -52 105l-131 -37v84l77 22q-33 36 -74 68l147 37q36 -32 65 -66l107 30v-85l-58 -16q41 -72 63.5 -155t22.5 -171q0 -89 -28 -155t-81.5 -101.5t-126.5 -35.5q-68 0 -121.5 33
zM352 160q25 46 25 122q0 33 -3 64q-40 39 -89 39q-46 0 -74 -37t-28 -97t25.5 -98.5t67.5 -38.5q51 0 76 46z" />
    <glyph glyph-name="e" unicode="e" horiz-adv-x="528" 
d="M155.5 23.5q-54.5 35.5 -84 98.5t-29.5 144q0 79 29.5 140t82 95.5t120.5 34.5q64 0 112.5 -34t75 -95.5t26.5 -143.5v-36h-313q6 -55 37.5 -87.5t79.5 -32.5q33 0 57.5 10t46.5 34l78 -77q-37 -46 -83.5 -66t-108.5 -20q-72 0 -126.5 35.5zM331 398.5q-22 26.5 -60 26.5
t-62 -27t-32 -77h177q-1 51 -23 77.5z" />
    <glyph glyph-name="eacute" unicode="&#xe9;" horiz-adv-x="528" 
d="M155.5 23.5q-54.5 35.5 -84 98.5t-29.5 144q0 79 29.5 140t82 95.5t120.5 34.5q64 0 112.5 -34t75 -95.5t26.5 -143.5v-36h-313q6 -55 37.5 -87.5t79.5 -32.5q33 0 57.5 10t46.5 34l78 -77q-37 -46 -83.5 -66t-108.5 -20q-72 0 -126.5 35.5zM331 398.5q-22 26.5 -60 26.5
t-62 -27t-32 -77h177q-1 51 -23 77.5zM290 748h144l-126 -148h-132z" />
    <glyph glyph-name="ecircumflex" unicode="&#xea;" horiz-adv-x="528" 
d="M155.5 23.5q-54.5 35.5 -84 98.5t-29.5 144q0 79 29.5 140t82 95.5t120.5 34.5q64 0 112.5 -34t75 -95.5t26.5 -143.5v-36h-313q6 -55 37.5 -87.5t79.5 -32.5q33 0 57.5 10t46.5 34l78 -77q-37 -46 -83.5 -66t-108.5 -20q-72 0 -126.5 35.5zM331 398.5q-22 26.5 -60 26.5
t-62 -27t-32 -77h177q-1 51 -23 77.5zM210 748h123l115 -148h-119l-58 74l-59 -74h-118z" />
    <glyph glyph-name="edieresis" unicode="&#xeb;" horiz-adv-x="528" 
d="M155.5 23.5q-54.5 35.5 -84 98.5t-29.5 144q0 79 29.5 140t82 95.5t120.5 34.5q64 0 112.5 -34t75 -95.5t26.5 -143.5v-36h-313q6 -55 37.5 -87.5t79.5 -32.5q33 0 57.5 10t46.5 34l78 -77q-37 -46 -83.5 -66t-108.5 -20q-72 0 -126.5 35.5zM331 398.5q-22 26.5 -60 26.5
t-62 -27t-32 -77h177q-1 51 -23 77.5zM115.5 618q-21.5 20 -21.5 52t21.5 52.5t54.5 20.5t54.5 -20.5t21.5 -52.5t-21.5 -52t-54.5 -20t-54.5 20zM317.5 618q-21.5 20 -21.5 52t21.5 52.5t54.5 20.5t54.5 -20.5t21.5 -52.5t-21.5 -52t-54.5 -20t-54.5 20z" />
    <glyph glyph-name="egrave" unicode="&#xe8;" horiz-adv-x="528" 
d="M155.5 23.5q-54.5 35.5 -84 98.5t-29.5 144q0 79 29.5 140t82 95.5t120.5 34.5q64 0 112.5 -34t75 -95.5t26.5 -143.5v-36h-313q6 -55 37.5 -87.5t79.5 -32.5q33 0 57.5 10t46.5 34l78 -77q-37 -46 -83.5 -66t-108.5 -20q-72 0 -126.5 35.5zM331 398.5q-22 26.5 -60 26.5
t-62 -27t-32 -77h177q-1 51 -23 77.5zM107 748h145l113 -148h-131z" />
    <glyph glyph-name="f" unicode="f" horiz-adv-x="418" 
d="M117 686.5q55 61.5 148 61.5q90 0 152 -60l-59 -84q-34 27 -73 27q-37 0 -57 -25t-20 -71v-10h171v-121h-171v-404h-146v520q0 105 55 166.5z" />
    <glyph glyph-name="g" unicode="g" horiz-adv-x="574" 
d="M134 -201.5q-55 22.5 -90 63.5l69 91q29 -28 62.5 -42t75.5 -14q51 0 83.5 36.5t32.5 102.5v39q-27 -26 -59 -40t-66 -14q-90 0 -145.5 65t-55.5 184q0 83 29.5 143t80 91.5t112.5 31.5q34 0 67.5 -14.5t59.5 -40.5l13 44h109v-483q0 -77 -32 -137.5t-89.5 -94.5
t-131.5 -34q-70 0 -125 22.5zM367 194v187q-37 34 -77 34q-50 0 -78.5 -36.5t-28.5 -107.5q0 -62 25 -97t70 -35q50 0 89 55z" />
    <glyph glyph-name="h" unicode="h" horiz-adv-x="572" 
d="M208 744v-262q57 54 133 54q83 0 128.5 -60t45.5 -173v-303h-146v288q0 61 -15.5 90.5t-58.5 29.5q-24 0 -47 -15.5t-40 -43.5v-349h-146v723z" />
    <glyph glyph-name="i" unicode="i" horiz-adv-x="270" 
d="M62 525h146v-525h-146v525zM76.5 617q-23.5 22 -23.5 57t23.5 57t59.5 22q37 0 61 -22t24 -57t-24 -57t-61 -22q-36 0 -59.5 22z" />
    <glyph glyph-name="dotlessi" unicode="&#x131;" horiz-adv-x="270" 
d="M62 525h146v-525h-146v525z" />
    <glyph glyph-name="iacute" unicode="&#xed;" horiz-adv-x="270" 
d="M62 525h146v-525h-146v525zM157 748h144l-109 -148h-129z" />
    <glyph glyph-name="icircumflex" unicode="&#xee;" horiz-adv-x="270" 
d="M62 525h146v-525h-146v525zM75 748h123l115 -148h-119l-58 74l-59 -74h-118z" />
    <glyph glyph-name="idieresis" unicode="&#xef;" horiz-adv-x="270" 
d="M62 525h146v-525h-146v525zM-19.5 618q-21.5 20 -21.5 52t21.5 52.5t54.5 20.5t54.5 -20.5t21.5 -52.5t-21.5 -52t-54.5 -20t-54.5 20zM182.5 618q-21.5 20 -21.5 52t21.5 52.5t54.5 20.5t54.5 -20.5t21.5 -52.5t-21.5 -52t-54.5 -20t-54.5 20z" />
    <glyph glyph-name="igrave" unicode="&#xec;" horiz-adv-x="270" 
d="M62 525h146v-525h-146v525zM-29 748h143l95 -148h-130z" />
    <glyph glyph-name="j" unicode="j" horiz-adv-x="270" 
d="M-9 -87q33 0 52 24t19 66v522h146v-517q0 -103 -48 -157.5t-138 -54.5h-47v117h16zM75.5 617q-23.5 22 -23.5 57t23.5 57t59.5 22q37 0 61 -22t24 -57t-24 -57t-61 -22q-36 0 -59.5 22z" />
    <glyph glyph-name="uni0237" unicode="&#x237;" horiz-adv-x="270" 
d="M-9 -87q33 0 52 24t19 66v522h146v-517q0 -103 -48 -157.5t-138 -54.5h-47v117h16z" />
    <glyph glyph-name="k" unicode="k" horiz-adv-x="578" 
d="M205 744v-418h21q24 0 37.5 6t29 27t39.5 68l49 98h156l-78 -155q-25 -52 -66 -96l163 -274h-166l-115 205q-14 -2 -21 -2h-49v-203h-143v723z" />
    <glyph glyph-name="l" unicode="l" horiz-adv-x="310" 
d="M102 44.5q-45 51.5 -45 156.5v522l146 21v-546q0 -86 68 -86h14v-119h-47q-91 0 -136 51.5z" />
    <glyph glyph-name="m" unicode="m" horiz-adv-x="836" 
d="M169 525l18 -61q61 72 143 72q44 0 78 -20t55 -58q64 78 154 78q76 0 119 -60.5t43 -169.5v-306h-146v291q0 59 -13 88t-51 29q-21 0 -41 -15t-35 -43q2 -28 2 -44v-306h-146v291q0 58 -13 87.5t-49 29.5q-22 0 -43 -16.5t-36 -45.5v-346h-146v525h107z" />
    <glyph glyph-name="n" unicode="n" horiz-adv-x="572" 
d="M169 525l20 -62q65 73 152 73q83 0 128.5 -60t45.5 -173v-303h-146v288q0 61 -15.5 90.5t-58.5 29.5q-24 0 -47 -15.5t-40 -43.5v-349h-146v525h107z" />
    <glyph glyph-name="ntilde" unicode="&#xf1;" horiz-adv-x="572" 
d="M169 525l20 -62q65 73 152 73q83 0 128.5 -60t45.5 -173v-303h-146v288q0 61 -15.5 90.5t-58.5 29.5q-24 0 -47 -15.5t-40 -43.5v-349h-146v525h107zM334.5 604q-16.5 6 -35.5 20t-33.5 20.5t-30.5 6.5q-23 0 -42 -9t-44 -27v97q23 19 43.5 29t43.5 10q21 0 38 -6.5
t36 -19.5q20 -14 34 -20.5t30 -6.5q26 0 44.5 9t42.5 27v-98q-22 -18 -42.5 -28t-46.5 -10q-21 0 -37.5 6z" />
    <glyph glyph-name="o" unicode="o" horiz-adv-x="566" 
d="M158.5 23q-54.5 34 -85.5 96.5t-31 144.5q0 79 31.5 141t86.5 96.5t122 34.5q69 0 124 -34.5t86.5 -96.5t31.5 -142q0 -81 -32 -143t-87 -96.5t-123 -34.5q-69 0 -123.5 34zM354.5 154q26.5 40 26.5 109q0 68 -26 108t-72 40q-45 0 -71.5 -40t-26.5 -107q0 -70 26 -110
t71 -40q46 0 72.5 40z" />
    <glyph glyph-name="oacute" unicode="&#xf3;" horiz-adv-x="566" 
d="M158.5 23q-54.5 34 -85.5 96.5t-31 144.5q0 79 31.5 141t86.5 96.5t122 34.5q69 0 124 -34.5t86.5 -96.5t31.5 -142q0 -81 -32 -143t-87 -96.5t-123 -34.5q-69 0 -123.5 34zM354.5 154q26.5 40 26.5 109q0 68 -26 108t-72 40q-45 0 -71.5 -40t-26.5 -107q0 -70 26 -110
t71 -40q46 0 72.5 40zM302 748h144l-126 -148h-132z" />
    <glyph glyph-name="ocircumflex" unicode="&#xf4;" horiz-adv-x="566" 
d="M158.5 23q-54.5 34 -85.5 96.5t-31 144.5q0 79 31.5 141t86.5 96.5t122 34.5q69 0 124 -34.5t86.5 -96.5t31.5 -142q0 -81 -32 -143t-87 -96.5t-123 -34.5q-69 0 -123.5 34zM354.5 154q26.5 40 26.5 109q0 68 -26 108t-72 40q-45 0 -71.5 -40t-26.5 -107q0 -70 26 -110
t71 -40q46 0 72.5 40zM222 748h123l115 -148h-119l-58 74l-59 -74h-118z" />
    <glyph glyph-name="odieresis" unicode="&#xf6;" horiz-adv-x="566" 
d="M158.5 23q-54.5 34 -85.5 96.5t-31 144.5q0 79 31.5 141t86.5 96.5t122 34.5q69 0 124 -34.5t86.5 -96.5t31.5 -142q0 -81 -32 -143t-87 -96.5t-123 -34.5q-69 0 -123.5 34zM354.5 154q26.5 40 26.5 109q0 68 -26 108t-72 40q-45 0 -71.5 -40t-26.5 -107q0 -70 26 -110
t71 -40q46 0 72.5 40zM127.5 618q-21.5 20 -21.5 52t21.5 52.5t54.5 20.5t54.5 -20.5t21.5 -52.5t-21.5 -52t-54.5 -20t-54.5 20zM329.5 618q-21.5 20 -21.5 52t21.5 52.5t54.5 20.5t54.5 -20.5t21.5 -52.5t-21.5 -52t-54.5 -20t-54.5 20z" />
    <glyph glyph-name="ograve" unicode="&#xf2;" horiz-adv-x="566" 
d="M158.5 23q-54.5 34 -85.5 96.5t-31 144.5q0 79 31.5 141t86.5 96.5t122 34.5q69 0 124 -34.5t86.5 -96.5t31.5 -142q0 -81 -32 -143t-87 -96.5t-123 -34.5q-69 0 -123.5 34zM354.5 154q26.5 40 26.5 109q0 68 -26 108t-72 40q-45 0 -71.5 -40t-26.5 -107q0 -70 26 -110
t71 -40q46 0 72.5 40zM119 748h145l113 -148h-131z" />
    <glyph glyph-name="oslash" unicode="&#xf8;" horiz-adv-x="566" 
d="M59.5 153.5q-17.5 50.5 -17.5 110.5q0 79 31.5 141t86.5 96.5t122 34.5q55 0 103 -23l37 61h107l-72 -116q32 -37 49.5 -86.5t17.5 -108.5q0 -81 -32 -143t-87 -96.5t-123 -34.5q-54 0 -101 22l-37 -60h-107l71 115q-31 37 -48.5 87.5zM283 411q-45 0 -71.5 -40
t-26.5 -107q0 -36 7 -63l125 203q-14 7 -34 7zM354.5 154q26.5 40 26.5 109q0 36 -7 61l-125 -203q14 -7 33 -7q46 0 72.5 40z" />
    <glyph glyph-name="otilde" unicode="&#xf5;" horiz-adv-x="566" 
d="M158.5 23q-54.5 34 -85.5 96.5t-31 144.5q0 79 31.5 141t86.5 96.5t122 34.5q69 0 124 -34.5t86.5 -96.5t31.5 -142q0 -81 -32 -143t-87 -96.5t-123 -34.5q-69 0 -123.5 34zM354.5 154q26.5 40 26.5 109q0 68 -26 108t-72 40q-45 0 -71.5 -40t-26.5 -107q0 -70 26 -110
t71 -40q46 0 72.5 40zM319.5 604q-16.5 6 -35.5 20t-33.5 20.5t-30.5 6.5q-23 0 -42 -9t-44 -27v97q23 19 43.5 29t43.5 10q21 0 38 -6.5t36 -19.5q20 -14 34 -20.5t30 -6.5q26 0 44.5 9t42.5 27v-98q-22 -18 -42.5 -28t-46.5 -10q-21 0 -37.5 6z" />
    <glyph glyph-name="oe" unicode="&#x153;" horiz-adv-x="875" 
d="M158.5 23q-54.5 34 -85.5 96.5t-31 144.5q0 79 31.5 141t86.5 96.5t122 34.5q54 0 96 -23.5t70 -65.5q30 43 74 66t99 23q64 0 112.5 -33.5t75 -95t26.5 -144.5v-36h-313q6 -55 37.5 -87.5t79.5 -32.5q33 0 57.5 10t46.5 34l78 -77q-37 -46 -83.5 -66t-108.5 -20
q-59 0 -104.5 23.5t-76.5 67.5q-28 -43 -70 -66.5t-96 -23.5q-69 0 -123.5 34zM678.5 399q-21.5 26 -60.5 26q-38 0 -62 -27t-32 -77h177q-1 52 -22.5 78zM354.5 154q26.5 40 26.5 109q0 68 -26 108t-72 40q-45 0 -71.5 -40t-26.5 -107q0 -70 26 -110t71 -40q46 0 72.5 40z
" />
    <glyph glyph-name="p" unicode="p" horiz-adv-x="578" 
d="M169 525l20 -64q32 35 69.5 55t77.5 20q58 0 103.5 -33.5t71 -95t25.5 -143.5q0 -80 -29.5 -142.5t-80.5 -96.5t-113 -34q-55 0 -105 37v-228l-146 -21v746h107zM364.5 152.5q28.5 39.5 28.5 114.5q0 67 -24.5 104t-70.5 37q-54 0 -90 -54v-207q36 -34 78 -34
q50 0 78.5 39.5z" />
    <glyph glyph-name="thorn" unicode="&#xfe;" horiz-adv-x="578" 
d="M208 744v-265q60 57 128 57q58 0 103.5 -33.5t71 -95t25.5 -143.5q0 -78 -29 -140.5t-78 -97.5t-107 -35q-63 0 -114 38v-229l-146 -21v944zM364.5 153.5q28.5 39.5 28.5 113.5q0 67 -24.5 104t-70.5 37q-54 0 -90 -54v-206q37 -34 78 -34q50 0 78.5 39.5z" />
    <glyph glyph-name="q" unicode="q" horiz-adv-x="579" 
d="M242 -11q-59 0 -104.5 33.5t-70.5 95.5t-25 145q0 80 29.5 142t81 96.5t113.5 34.5q34 0 68 -15.5t60 -40.5l14 45h109v-725l-146 -21v267q-60 -57 -129 -57zM371 172v205q-38 35 -81 35q-49 0 -77 -39.5t-28 -113.5q0 -66 25 -104t70 -38q53 0 91 55z" />
    <glyph glyph-name="r" unicode="r" horiz-adv-x="408" 
d="M169 525l21 -68q69 77 170 77h11v-123h-15q-44 0 -84 -18.5t-64 -54.5v-338h-146v525h107z" />
    <glyph glyph-name="s" unicode="s" horiz-adv-x="467" 
d="M120 9.5q-55 20.5 -95 57.5l65 86q58 -51 148 -51q32 0 47.5 10.5t15.5 32.5q0 19 -15 32.5t-37.5 22t-68.5 22.5q-66 20 -99 58t-33 99q0 45 23 80.5t65.5 56t97.5 20.5q120 0 193 -79l-72 -77q-51 45 -115 45q-61 0 -61 -44q0 -21 18.5 -32t64.5 -27q13 -4 35 -12
q135 -48 135 -159q0 -73 -51.5 -117.5t-140.5 -44.5q-65 0 -120 20.5z" />
    <glyph glyph-name="scaron" unicode="&#x161;" horiz-adv-x="467" 
d="M120 9.5q-55 20.5 -95 57.5l65 86q58 -51 148 -51q32 0 47.5 10.5t15.5 32.5q0 19 -15 32.5t-37.5 22t-68.5 22.5q-66 20 -99 58t-33 99q0 45 23 80.5t65.5 56t97.5 20.5q120 0 193 -79l-72 -77q-51 45 -115 45q-61 0 -61 -44q0 -21 18.5 -32t64.5 -27q13 -4 35 -12
q135 -48 135 -159q0 -73 -51.5 -117.5t-140.5 -44.5q-65 0 -120 20.5zM58 748h119l58 -74l59 74h118l-115 -148h-123z" />
    <glyph glyph-name="germandbls" unicode="&#xdf;" horiz-adv-x="619" 
d="M322 3q-41 14 -75 39l48 94q46 -29 89 -29q29 0 45.5 16t16.5 44q0 25 -10 40.5t-21.5 22.5t-42.5 22q-35 17 -51.5 28t-29.5 32.5t-13 56.5q0 26 9.5 48.5t26.5 45.5q16 22 24 40.5t8 39.5q0 76 -63 76q-41 0 -59.5 -34t-18.5 -91v-494h-143v478q0 128 60.5 197.5
t167.5 69.5q64 0 108.5 -22.5t67 -59t22.5 -78.5q0 -31 -8.5 -52t-20 -40t-15.5 -25q-4 -7 -13 -19.5t-13.5 -23.5t-4.5 -22q0 -21 13.5 -33.5t42.5 -27.5q16 -7 33 -18q36 -23 60.5 -62t24.5 -99q0 -78 -46.5 -126t-120.5 -48q-57 0 -98 14z" />
    <glyph glyph-name="t" unicode="t" horiz-adv-x="419" 
d="M112.5 45q-50.5 56 -50.5 159v448l146 21v-148h167v-121h-167v-201q0 -42 17 -64.5t48 -22.5q20 0 35 6.5t30 19.5l67 -91q-30 -31 -69 -46.5t-81 -15.5q-92 0 -142.5 56z" />
    <glyph glyph-name="u" unicode="u" horiz-adv-x="568" 
d="M100.5 49q-44.5 60 -44.5 172v304h146v-288q0 -63 14.5 -91.5t56.5 -28.5q25 0 47.5 15.5t39.5 43.5v349h146v-525h-107l-20 62q-65 -73 -152 -73q-82 0 -126.5 60z" />
    <glyph glyph-name="uacute" unicode="&#xfa;" horiz-adv-x="568" 
d="M100.5 49q-44.5 60 -44.5 172v304h146v-288q0 -63 14.5 -91.5t56.5 -28.5q25 0 47.5 15.5t39.5 43.5v349h146v-525h-107l-20 62q-65 -73 -152 -73q-82 0 -126.5 60zM300 748h144l-126 -148h-132z" />
    <glyph glyph-name="ucircumflex" unicode="&#xfb;" horiz-adv-x="568" 
d="M100.5 49q-44.5 60 -44.5 172v304h146v-288q0 -63 14.5 -91.5t56.5 -28.5q25 0 47.5 15.5t39.5 43.5v349h146v-525h-107l-20 62q-65 -73 -152 -73q-82 0 -126.5 60zM220 748h123l115 -148h-119l-58 74l-59 -74h-118z" />
    <glyph glyph-name="udieresis" unicode="&#xfc;" horiz-adv-x="568" 
d="M100.5 49q-44.5 60 -44.5 172v304h146v-288q0 -63 14.5 -91.5t56.5 -28.5q25 0 47.5 15.5t39.5 43.5v349h146v-525h-107l-20 62q-65 -73 -152 -73q-82 0 -126.5 60zM125.5 618q-21.5 20 -21.5 52t21.5 52.5t54.5 20.5t54.5 -20.5t21.5 -52.5t-21.5 -52t-54.5 -20
t-54.5 20zM327.5 618q-21.5 20 -21.5 52t21.5 52.5t54.5 20.5t54.5 -20.5t21.5 -52.5t-21.5 -52t-54.5 -20t-54.5 20z" />
    <glyph glyph-name="ugrave" unicode="&#xf9;" horiz-adv-x="568" 
d="M100.5 49q-44.5 60 -44.5 172v304h146v-288q0 -63 14.5 -91.5t56.5 -28.5q25 0 47.5 15.5t39.5 43.5v349h146v-525h-107l-20 62q-65 -73 -152 -73q-82 0 -126.5 60zM117 748h145l113 -148h-131z" />
    <glyph glyph-name="v" unicode="v" horiz-adv-x="565" 
d="M15 525h161l107 -382l109 382h158l-187 -525h-162z" />
    <glyph glyph-name="w" unicode="w" horiz-adv-x="769" 
d="M20 525h152l61 -357l79 322h148l75 -322l65 357h149l-137 -525h-152l-78 325l-80 -325h-148z" />
    <glyph glyph-name="wacute" unicode="&#x1e83;" horiz-adv-x="769" 
d="M20 525h152l61 -357l79 322h148l75 -322l65 357h149l-137 -525h-152l-78 325l-80 -325h-148zM403 748h144l-126 -148h-132z" />
    <glyph glyph-name="wcircumflex" unicode="&#x175;" horiz-adv-x="769" 
d="M20 525h152l61 -357l79 322h148l75 -322l65 357h149l-137 -525h-152l-78 325l-80 -325h-148zM323 748h123l115 -148h-119l-58 74l-59 -74h-118z" />
    <glyph glyph-name="wdieresis" unicode="&#x1e85;" horiz-adv-x="769" 
d="M20 525h152l61 -357l79 322h148l75 -322l65 357h149l-137 -525h-152l-78 325l-80 -325h-148zM228.5 618q-21.5 20 -21.5 52t21.5 52.5t54.5 20.5t54.5 -20.5t21.5 -52.5t-21.5 -52t-54.5 -20t-54.5 20zM430.5 618q-21.5 20 -21.5 52t21.5 52.5t54.5 20.5t54.5 -20.5
t21.5 -52.5t-21.5 -52t-54.5 -20t-54.5 20z" />
    <glyph glyph-name="wgrave" unicode="&#x1e81;" horiz-adv-x="769" 
d="M20 525h152l61 -357l79 322h148l75 -322l65 357h149l-137 -525h-152l-78 325l-80 -325h-148zM220 748h145l113 -148h-131z" />
    <glyph glyph-name="x" unicode="x" horiz-adv-x="554" 
d="M197 271l-170 254h163l91 -150l86 150h160l-168 -255l176 -270h-164l-97 166l-93 -166h-161z" />
    <glyph glyph-name="y" unicode="y" horiz-adv-x="555" 
d="M102 -79q41 0 72 24.5t50 68.5l2 5l-215 506h163l110 -322l100 322h156l-191 -533q-35 -98 -90.5 -147t-144.5 -49h-46v125h34z" />
    <glyph glyph-name="yacute" unicode="&#xfd;" horiz-adv-x="555" 
d="M102 -79q41 0 72 24.5t50 68.5l2 5l-215 506h163l110 -322l100 322h156l-191 -533q-35 -98 -90.5 -147t-144.5 -49h-46v125h34zM297 748h144l-126 -148h-132z" />
    <glyph glyph-name="ycircumflex" unicode="&#x177;" horiz-adv-x="555" 
d="M102 -79q41 0 72 24.5t50 68.5l2 5l-215 506h163l110 -322l100 322h156l-191 -533q-35 -98 -90.5 -147t-144.5 -49h-46v125h34zM217 748h123l115 -148h-119l-58 74l-59 -74h-118z" />
    <glyph glyph-name="ydieresis" unicode="&#xff;" horiz-adv-x="555" 
d="M102 -79q41 0 72 24.5t50 68.5l2 5l-215 506h163l110 -322l100 322h156l-191 -533q-35 -98 -90.5 -147t-144.5 -49h-46v125h34zM122.5 618q-21.5 20 -21.5 52t21.5 52.5t54.5 20.5t54.5 -20.5t21.5 -52.5t-21.5 -52t-54.5 -20t-54.5 20zM324.5 618q-21.5 20 -21.5 52
t21.5 52.5t54.5 20.5t54.5 -20.5t21.5 -52.5t-21.5 -52t-54.5 -20t-54.5 20z" />
    <glyph glyph-name="ygrave" unicode="&#x1ef3;" horiz-adv-x="555" 
d="M102 -79q41 0 72 24.5t50 68.5l2 5l-215 506h163l110 -322l100 322h156l-191 -533q-35 -98 -90.5 -147t-144.5 -49h-46v125h34zM114 748h145l113 -148h-131z" />
    <glyph glyph-name="z" unicode="z" horiz-adv-x="503" 
d="M50 93l224 312h-217v120h390v-93l-220 -312h226v-120h-403v93z" />
    <glyph glyph-name="zcaron" unicode="&#x17e;" horiz-adv-x="503" 
d="M50 93l224 312h-217v120h390v-93l-220 -312h226v-120h-403v93zM73 748h119l58 -74l59 74h118l-115 -148h-123z" />
    <glyph glyph-name="ordfeminine" unicode="&#xaa;" horiz-adv-x="403" 
d="M59 298.5q-32 32.5 -32 88.5q0 58 42 91t114 33h60v3q0 73 -58 73q-23 0 -46 -9.5t-43 -28.5l-59 73q32 31 71 48t81 17q82 0 125.5 -49t43.5 -139v-225h-89l-13 38q-23 -22 -51 -34t-57 -12q-57 0 -89 32.5zM243 392v43h-57q-23 0 -37.5 -11t-14.5 -30q0 -17 10 -27.5
t27 -10.5q41 0 72 36z" />
    <glyph glyph-name="ordmasculine" unicode="&#xba;" horiz-adv-x="443" 
d="M123.5 292.5q-43.5 26.5 -68 74.5t-24.5 110q0 61 25 109t68 74.5t97 26.5t97.5 -26.5t68 -74.5t24.5 -110q0 -61 -25 -109t-68.5 -74.5t-96.5 -26.5q-54 0 -97.5 26.5zM269 404.5q17 26.5 17 71.5q0 46 -16.5 72.5t-47.5 26.5q-32 0 -49 -26t-17 -72t17 -72.5t47 -26.5
q32 0 49 26.5z" />
    <glyph glyph-name="uni03BC" unicode="&#x3bc;" horiz-adv-x="574" 
d="M208 525v-298q0 -59 17.5 -84.5t54.5 -25.5q50 0 86 59v349h146v-525h-109l-19 68q-23 -36 -56.5 -57.5t-64.5 -21.5q-36 0 -56 14v-203l-145 -21v746h146z" />
    <glyph glyph-name="zero" unicode="0" horiz-adv-x="574" 
d="M161 29.5q-54 41.5 -83 118.5t-29 181q0 100 29.5 177t83.5 119.5t125 42.5t125 -42t83.5 -118.5t29.5 -178.5q0 -103 -29.5 -180.5t-83.5 -119t-125 -41.5q-72 0 -126 41.5zM375 329q0 93 -19.5 145.5t-66.5 52.5t-68.5 -53t-21.5 -145q0 -200 88 -200t88 200z" />
    <glyph glyph-name="one" unicode="1" horiz-adv-x="391" 
d="M169 516l-134 -41v120l166 62h114v-657h-146v516z" />
    <glyph glyph-name="two" unicode="2" horiz-adv-x="532" 
d="M249 313q42 46 59 74.5t17 58.5q0 39 -20 60.5t-55 21.5q-63 0 -128 -68l-87 102q44 50 105 78t126 28q96 0 152.5 -54t56.5 -144q0 -54 -21 -100.5t-69 -100.5l-123 -137h212v-132h-420v97z" />
    <glyph glyph-name="three" unicode="3" horiz-adv-x="514" 
d="M121 12.5q-57 24.5 -93 67.5l80 91q55 -52 127 -52q41 0 66.5 24t25.5 61q0 38 -27 59.5t-75 21.5h-79v89l142 153h-238v130h404v-94l-159 -170q83 -8 132 -59.5t49 -133.5q0 -63 -29.5 -111t-82.5 -74.5t-122 -26.5q-64 0 -121 24.5z" />
    <glyph glyph-name="four" unicode="4" horiz-adv-x="561" 
d="M320 150h-280v106l280 401h131v-383h73v-124h-73v-150h-131v150zM320 274v194l-131 -194h131z" />
    <glyph glyph-name="five" unicode="5" horiz-adv-x="485" 
d="M110.5 12.5q-56.5 24.5 -89.5 64.5l81 93q27 -26 55 -38.5t61 -12.5q39 0 63.5 23.5t24.5 61.5q0 40 -24.5 61t-69.5 21h-153v91l49 280h309v-130h-215l-17 -117h51q102 0 160.5 -53t58.5 -150q0 -65 -28 -114.5t-79.5 -77t-121.5 -27.5q-59 0 -115.5 24.5z" />
    <glyph glyph-name="six" unicode="6" horiz-adv-x="538" 
d="M111 72q-62 84 -62 235q0 106 32.5 188t91 127.5t132.5 45.5q57 0 106.5 -23t81.5 -61l-78 -89q-39 43 -102 43q-50 0 -82.5 -39t-42.5 -114q59 28 119 28q85 0 136.5 -55.5t51.5 -143.5q0 -65 -26 -116t-74.5 -80.5t-113.5 -29.5q-108 0 -170 84zM345.5 140.5
q20.5 25.5 20.5 68.5q0 40 -22.5 64.5t-60.5 24.5q-55 0 -99 -19q1 -84 28 -124t75 -40q38 0 58.5 25.5z" />
    <glyph glyph-name="seven" unicode="7" horiz-adv-x="506" 
d="M300 522h-261v135h430v-78l-206 -579h-156z" />
    <glyph glyph-name="eight" unicode="8" horiz-adv-x="569" 
d="M159.5 11q-53.5 23 -83 64.5t-29.5 97.5q0 46 26.5 88.5t70.5 76.5q-79 53 -79 149q0 53 28.5 94t78.5 64t112 23q66 0 115.5 -22t77 -62.5t27.5 -93.5q0 -72 -81 -142q47 -28 73 -70.5t26 -97.5q0 -56 -30 -99.5t-84 -68t-123 -24.5q-72 0 -125.5 23zM361 430.5
q14 22.5 14 44.5q0 35 -24.5 55t-64.5 20q-39 0 -63.5 -18.5t-24.5 -48.5q0 -36 28.5 -54t88.5 -37l6 -2q26 18 40 40.5zM356.5 132q27.5 21 27.5 59q0 29 -15.5 47t-40.5 28.5t-70 23.5l-11 3q-63 -40 -63 -96q0 -38 28.5 -62t73.5 -24q43 0 70.5 21z" />
    <glyph glyph-name="nine" unicode="9" horiz-adv-x="540" 
d="M130 9.5q-52 21.5 -88 60.5l73 95q53 -46 114 -46q57 0 88 40.5t38 115.5q-58 -29 -120 -29q-56 0 -99 26t-66.5 72t-23.5 104q0 64 27 113.5t76 77.5t112 28q108 0 170 -83t62 -233q0 -113 -32 -195t-89.5 -125t-133.5 -43q-56 0 -108 21.5zM358 378q-1 80 -26.5 121.5
t-70.5 41.5q-39 0 -62 -24.5t-23 -66.5q0 -90 92 -90q48 0 90 18z" />
    <glyph glyph-name="zero.zero" horiz-adv-x="574" 
d="M161 29.5q-54 41.5 -83 118.5t-29 181q0 100 29.5 177t83.5 119.5t125 42.5t125 -42t83.5 -118.5t29.5 -178.5q0 -103 -29.5 -180.5t-83.5 -119t-125 -41.5q-72 0 -126 41.5zM289 539q-103 0 -103 -210q0 -34 3 -66l174 228q-26 48 -74 48zM364.5 172q23.5 55 23.5 157
q0 19 -2 55l-171 -224q25 -43 72 -43q54 0 77.5 55z" />
    <glyph glyph-name="zero.tf" 
d="M140 28.5q-51 40.5 -78.5 117.5t-27.5 183q0 103 28 180t79 118t120 41q68 0 119.5 -40.5t79.5 -117t28 -181.5q0 -106 -28 -182.5t-79.5 -117.5t-119.5 -41q-70 0 -121 40.5zM320 179q18 50 18 150q0 99 -16 148.5t-59 49.5q-42 0 -60.5 -50.5t-18.5 -147.5
q0 -100 17 -150t60 -50q41 0 59 50z" />
    <glyph glyph-name="one.tf" 
d="M239 513l-152 -44v117l183 71h115v-657h-146v513z" />
    <glyph glyph-name="two.tf" 
d="M243 313q42 46 59 74.5t17 58.5q0 39 -20 60.5t-55 21.5q-63 0 -128 -68l-87 102q44 50 105 78t126 28q96 0 152.5 -54t56.5 -144q0 -54 -21 -100.5t-69 -100.5l-123 -137h212v-132h-420v97z" />
    <glyph glyph-name="three.tf" 
d="M127 12.5q-57 24.5 -93 67.5l80 91q55 -52 127 -52q41 0 66.5 24t25.5 61q0 38 -27 59.5t-75 21.5h-79v89l142 153h-238v130h404v-94l-159 -170q83 -8 132 -59.5t49 -133.5q0 -63 -29.5 -111t-82.5 -74.5t-122 -26.5q-64 0 -121 24.5z" />
    <glyph glyph-name="four.tf" 
d="M292 150h-265v106l265 401h131v-383h71v-124h-71v-150h-131v150zM292 274v194l-119 -194h119z" />
    <glyph glyph-name="five.tf" 
d="M129.5 12.5q-56.5 24.5 -89.5 64.5l81 93q27 -26 55 -38.5t61 -12.5q39 0 63.5 23.5t24.5 61.5q0 40 -24.5 61t-69.5 21h-153v91l49 280h309v-130h-215l-17 -117h51q102 0 160.5 -53t58.5 -150q0 -65 -28 -114.5t-79.5 -77t-121.5 -27.5q-59 0 -115.5 24.5z" />
    <glyph glyph-name="six.tf" 
d="M105 72q-62 84 -62 235q0 106 32.5 188t91 127.5t132.5 45.5q57 0 106.5 -23t81.5 -61l-78 -89q-39 43 -102 43q-50 0 -82.5 -39t-42.5 -114q59 28 119 28q85 0 136.5 -55.5t51.5 -143.5q0 -65 -26 -116t-74.5 -80.5t-113.5 -29.5q-108 0 -170 84zM339.5 140.5
q20.5 25.5 20.5 68.5q0 40 -22.5 64.5t-60.5 24.5q-55 0 -99 -19q1 -84 28 -124t75 -40q38 0 58.5 25.5z" />
    <glyph glyph-name="seven.tf" 
d="M306 522h-261v135h430v-78l-206 -579h-156z" />
    <glyph glyph-name="eight.tf" 
d="M145.5 11q-53.5 23 -83 64.5t-29.5 97.5q0 46 26.5 88.5t70.5 76.5q-79 53 -79 149q0 53 28.5 94t78.5 64t112 23q66 0 115.5 -22t77 -62.5t27.5 -93.5q0 -72 -81 -142q47 -28 73 -70.5t26 -97.5q0 -56 -30 -99.5t-84 -68t-123 -24.5q-72 0 -125.5 23zM347 430.5
q14 22.5 14 44.5q0 35 -24.5 55t-64.5 20q-39 0 -63.5 -18.5t-24.5 -48.5q0 -36 28.5 -54t88.5 -37l6 -2q26 18 40 40.5zM342.5 132q27.5 21 27.5 59q0 29 -15.5 47t-40.5 28.5t-70 23.5l-11 3q-63 -40 -63 -96q0 -38 28.5 -62t73.5 -24q43 0 70.5 21z" />
    <glyph glyph-name="nine.tf" 
d="M119 9.5q-52 21.5 -88 60.5l73 95q53 -46 114 -46q57 0 88 40.5t38 115.5q-58 -29 -120 -29q-56 0 -99 26t-66.5 72t-23.5 104q0 64 27 113.5t76 77.5t112 28q108 0 170 -83t62 -233q0 -113 -32 -195t-89.5 -125t-133.5 -43q-56 0 -108 21.5zM347 378q-1 80 -26.5 121.5
t-70.5 41.5q-39 0 -62 -24.5t-23 -66.5q0 -90 92 -90q48 0 90 18z" />
    <glyph glyph-name="zero.tf.zero" 
d="M140 28.5q-51 40.5 -78.5 117.5t-27.5 183q0 103 28 180t79 118t120 41q68 0 119.5 -40.5t79.5 -117t28 -181.5q0 -106 -28 -182.5t-79.5 -117.5t-119.5 -41q-70 0 -121 40.5zM263 535q-50 0 -73 -52.5t-23 -153.5q0 -31 1 -45l160 212q-22 39 -65 39zM332.5 173
q22.5 52 22.5 156q0 36 -1 53l-162 -215q21 -46 69 -46q49 0 71.5 52z" />
    <glyph glyph-name="zero.subs" horiz-adv-x="439" 
d="M102 -30.5q-44 54.5 -44 148.5q0 91 44.5 146t116.5 55q73 0 117 -54.5t44 -146.5q0 -93 -44 -148t-117 -55t-117 54.5zM260 43q12 26 12 74q0 101 -51 101q-55 0 -55 -101q0 -100 53 -100q29 0 41 26z" />
    <glyph glyph-name="one.subs" horiz-adv-x="354" 
d="M152 213l-87 -23v86l110 38h81v-391h-104v290z" />
    <glyph glyph-name="two.subs" horiz-adv-x="415" 
d="M188 112q4 4 19.5 18.5t23 26.5t7.5 23q0 38 -43 38q-39 0 -81 -41l-60 74q30 31 72 50t82 19q63 0 101 -33.5t38 -89.5q0 -33 -14.5 -59.5t-45.5 -55.5l-64 -62h122v-97h-279v71z" />
    <glyph glyph-name="three.subs" horiz-adv-x="419" 
d="M121 -68.5q-36 16.5 -59 42.5l60 64q34 -32 73 -32q23 0 38 11.5t15 29.5q0 17 -12 26.5t-35 9.5h-66v61l83 76h-143v93h257v-70l-88 -85q50 -6 80 -36.5t30 -77.5q0 -61 -41.5 -95t-112.5 -34q-43 0 -79 16.5z" />
    <glyph glyph-name="four.subs" horiz-adv-x="423" 
d="M230 7h-174v68l174 239h92v-222h45v-85h-45v-84h-92v84zM230 92v101l-70 -101h70z" />
    <glyph glyph-name="five.subs" horiz-adv-x="399" 
d="M110 -68.5q-36 16.5 -60 43.5l59 63q16 -15 32.5 -22t39.5 -7q22 0 36 10.5t14 28.5q0 17 -12 26.5t-34 9.5h-110v65l31 164h208v-94h-143l-7 -51h33q67 0 104 -31t37 -88q0 -62 -41 -98t-112 -36q-39 0 -75 16.5z" />
    <glyph glyph-name="six.subs" horiz-adv-x="412" 
d="M100 -35.5q-40 49.5 -40 139.5q0 63 21.5 112t60.5 76t89 27q76 0 128 -55l-51 -65q-28 28 -71 28q-30 0 -50.5 -17.5t-27.5 -52.5q37 14 74 14q57 0 90.5 -32.5t33.5 -85.5q0 -61 -38.5 -99.5t-103.5 -38.5q-75 0 -115 49.5zM255 16q12 11 12 32q0 20 -13.5 31t-37.5 11
q-34 0 -60 -9q3 -37 20.5 -56.5t42.5 -19.5q24 0 36 11z" />
    <glyph glyph-name="seven.subs" horiz-adv-x="394" 
d="M219 216h-156v98h276v-51l-125 -340h-108z" />
    <glyph glyph-name="eight.subs" horiz-adv-x="435" 
d="M109.5 -54.5q-40.5 30.5 -40.5 80.5q0 26 16 50t43 44q-48 32 -48 89q0 48 39.5 79t97.5 31q62 0 99.5 -29.5t37.5 -78.5q0 -39 -48 -78q28 -17 44 -42.5t16 -58.5q0 -53 -42 -85t-109 -32q-65 0 -105.5 30.5zM266 201q0 16 -13.5 26t-33.5 10t-33.5 -8.5t-13.5 -21.5
q0 -16 14 -26t43 -19l10 -3q27 17 27 42zM257.5 10q14.5 10 14.5 29t-17.5 29.5t-52.5 20.5l-7 2q-32 -19 -32 -48q0 -20 15.5 -31.5t41.5 -11.5q23 0 37.5 10z" />
    <glyph glyph-name="nine.subs" horiz-adv-x="396" 
d="M102.5 -70q-34.5 15 -58.5 40l52 64q34 -27 71 -27q66 0 79 74q-35 -16 -74 -16q-57 0 -91.5 33.5t-34.5 85.5q0 60 39.5 97.5t102.5 37.5q75 0 115 -49.5t40 -139.5q0 -100 -46 -157.5t-124 -57.5q-36 0 -70.5 15zM249 154q-3 35 -19 55t-41 20q-24 0 -37.5 -11
t-13.5 -31q0 -41 52 -41q32 0 59 8z" />
    <glyph glyph-name="zero.dnom" horiz-adv-x="439" 
d="M102 46.5q-44 54.5 -44 148.5q0 91 44.5 146t116.5 55q73 0 117 -54.5t44 -146.5q0 -93 -44 -148t-117 -55t-117 54.5zM260 120q12 26 12 74q0 101 -51 101q-55 0 -55 -101q0 -100 53 -100q29 0 41 26z" />
    <glyph glyph-name="one.dnom" horiz-adv-x="354" 
d="M152 290l-87 -23v86l110 38h81v-391h-104v290z" />
    <glyph glyph-name="two.dnom" horiz-adv-x="415" 
d="M188 189q4 4 19.5 18.5t23 26.5t7.5 23q0 38 -43 38q-39 0 -81 -41l-60 74q30 31 72 50t82 19q63 0 101 -33.5t38 -89.5q0 -33 -14.5 -59.5t-45.5 -55.5l-64 -62h122v-97h-279v71z" />
    <glyph glyph-name="three.dnom" horiz-adv-x="419" 
d="M121 8.5q-36 16.5 -59 42.5l60 64q34 -32 73 -32q23 0 38 11.5t15 29.5q0 17 -12 26.5t-35 9.5h-66v61l83 76h-143v93h257v-70l-88 -85q50 -6 80 -36.5t30 -77.5q0 -61 -41.5 -95t-112.5 -34q-43 0 -79 16.5z" />
    <glyph glyph-name="four.dnom" horiz-adv-x="423" 
d="M230 84h-174v68l174 239h92v-222h45v-85h-45v-84h-92v84zM230 169v101l-70 -101h70z" />
    <glyph glyph-name="five.dnom" horiz-adv-x="399" 
d="M110 8.5q-36 16.5 -60 43.5l59 63q16 -15 32.5 -22t39.5 -7q22 0 36 10.5t14 28.5q0 17 -12 26.5t-34 9.5h-110v65l31 164h208v-94h-143l-7 -51h33q67 0 104 -31t37 -88q0 -62 -41 -98t-112 -36q-39 0 -75 16.5z" />
    <glyph glyph-name="six.dnom" horiz-adv-x="412" 
d="M100 41.5q-40 49.5 -40 139.5q0 63 21.5 112t60.5 76t89 27q76 0 128 -55l-51 -65q-28 28 -71 28q-30 0 -50.5 -17.5t-27.5 -52.5q37 14 74 14q57 0 90.5 -32.5t33.5 -85.5q0 -61 -38.5 -99.5t-103.5 -38.5q-75 0 -115 49.5zM255 93q12 11 12 32q0 20 -13.5 31t-37.5 11
q-34 0 -60 -9q3 -37 20.5 -56.5t42.5 -19.5q24 0 36 11z" />
    <glyph glyph-name="seven.dnom" horiz-adv-x="394" 
d="M219 293h-156v98h276v-51l-125 -340h-108z" />
    <glyph glyph-name="eight.dnom" horiz-adv-x="435" 
d="M109.5 22.5q-40.5 30.5 -40.5 80.5q0 26 16 50t43 44q-48 32 -48 89q0 48 39.5 79t97.5 31q62 0 99.5 -29.5t37.5 -78.5q0 -39 -48 -78q28 -17 44 -42.5t16 -58.5q0 -53 -42 -85t-109 -32q-65 0 -105.5 30.5zM266 278q0 16 -13.5 26t-33.5 10t-33.5 -8.5t-13.5 -21.5
q0 -16 14 -26t43 -19l10 -3q27 17 27 42zM257.5 87q14.5 10 14.5 29t-17.5 29.5t-52.5 20.5l-7 2q-32 -19 -32 -48q0 -20 15.5 -31.5t41.5 -11.5q23 0 37.5 10z" />
    <glyph glyph-name="nine.dnom" horiz-adv-x="396" 
d="M102.5 7q-34.5 15 -58.5 40l52 64q34 -27 71 -27q66 0 79 74q-35 -16 -74 -16q-57 0 -91.5 33.5t-34.5 85.5q0 60 39.5 97.5t102.5 37.5q75 0 115 -49.5t40 -139.5q0 -100 -46 -157.5t-124 -57.5q-36 0 -70.5 15zM249 231q-3 35 -19 55t-41 20q-24 0 -37.5 -11t-13.5 -31
q0 -41 52 -41q32 0 59 8z" />
    <glyph glyph-name="zero.numr" horiz-adv-x="439" 
d="M102 311.5q-44 54.5 -44 148.5q0 91 44.5 146t116.5 55q73 0 117 -54.5t44 -146.5q0 -93 -44 -148t-117 -55t-117 54.5zM260 385q12 26 12 74q0 101 -51 101q-55 0 -55 -101q0 -100 53 -100q29 0 41 26z" />
    <glyph glyph-name="one.numr" horiz-adv-x="354" 
d="M152 555l-87 -23v86l110 38h81v-391h-104v290z" />
    <glyph glyph-name="two.numr" horiz-adv-x="415" 
d="M188 454q4 4 19.5 18.5t23 26.5t7.5 23q0 38 -43 38q-39 0 -81 -41l-60 74q30 31 72 50t82 19q63 0 101 -33.5t38 -89.5q0 -33 -14.5 -59.5t-45.5 -55.5l-64 -62h122v-97h-279v71z" />
    <glyph glyph-name="three.numr" horiz-adv-x="419" 
d="M121 273.5q-36 16.5 -59 42.5l60 64q34 -32 73 -32q23 0 38 11.5t15 29.5q0 17 -12 26.5t-35 9.5h-66v61l83 76h-143v93h257v-70l-88 -85q50 -6 80 -36.5t30 -77.5q0 -61 -41.5 -95t-112.5 -34q-43 0 -79 16.5z" />
    <glyph glyph-name="four.numr" horiz-adv-x="423" 
d="M230 349h-174v68l174 239h92v-222h45v-85h-45v-84h-92v84zM230 434v101l-70 -101h70z" />
    <glyph glyph-name="five.numr" horiz-adv-x="399" 
d="M110 273.5q-36 16.5 -60 43.5l59 63q16 -15 32.5 -22t39.5 -7q22 0 36 10.5t14 28.5q0 17 -12 26.5t-34 9.5h-110v65l31 164h208v-94h-143l-7 -51h33q67 0 104 -31t37 -88q0 -62 -41 -98t-112 -36q-39 0 -75 16.5z" />
    <glyph glyph-name="six.numr" horiz-adv-x="412" 
d="M100 306.5q-40 49.5 -40 139.5q0 63 21.5 112t60.5 76t89 27q76 0 128 -55l-51 -65q-28 28 -71 28q-30 0 -50.5 -17.5t-27.5 -52.5q37 14 74 14q57 0 90.5 -32.5t33.5 -85.5q0 -61 -38.5 -99.5t-103.5 -38.5q-75 0 -115 49.5zM255 358q12 11 12 32q0 20 -13.5 31
t-37.5 11q-34 0 -60 -9q3 -37 20.5 -56.5t42.5 -19.5q24 0 36 11z" />
    <glyph glyph-name="seven.numr" horiz-adv-x="394" 
d="M219 558h-156v98h276v-51l-125 -340h-108z" />
    <glyph glyph-name="eight.numr" horiz-adv-x="435" 
d="M109.5 287.5q-40.5 30.5 -40.5 80.5q0 26 16 50t43 44q-48 32 -48 89q0 48 39.5 79t97.5 31q62 0 99.5 -29.5t37.5 -78.5q0 -39 -48 -78q28 -17 44 -42.5t16 -58.5q0 -53 -42 -85t-109 -32q-65 0 -105.5 30.5zM266 543q0 16 -13.5 26t-33.5 10t-33.5 -8.5t-13.5 -21.5
q0 -16 14 -26t43 -19l10 -3q27 17 27 42zM257.5 352q14.5 10 14.5 29t-17.5 29.5t-52.5 20.5l-7 2q-32 -19 -32 -48q0 -20 15.5 -31.5t41.5 -11.5q23 0 37.5 10z" />
    <glyph glyph-name="nine.numr" horiz-adv-x="396" 
d="M102.5 272q-34.5 15 -58.5 40l52 64q34 -27 71 -27q66 0 79 74q-35 -16 -74 -16q-57 0 -91.5 33.5t-34.5 85.5q0 60 39.5 97.5t102.5 37.5q75 0 115 -49.5t40 -139.5q0 -100 -46 -157.5t-124 -57.5q-36 0 -70.5 15zM249 496q-3 35 -19 55t-41 20q-24 0 -37.5 -11
t-13.5 -31q0 -41 52 -41q32 0 59 8z" />
    <glyph glyph-name="uni2070" unicode="&#x2070;" horiz-adv-x="439" 
d="M102 378.5q-44 54.5 -44 148.5q0 91 44.5 146t116.5 55q73 0 117 -54.5t44 -146.5q0 -93 -44 -148t-117 -55t-117 54.5zM260 452q12 26 12 74q0 101 -51 101q-55 0 -55 -101q0 -100 53 -100q29 0 41 26z" />
    <glyph glyph-name="uni00B9" unicode="&#xb9;" horiz-adv-x="354" 
d="M152 622l-87 -23v86l110 38h81v-391h-104v290z" />
    <glyph glyph-name="uni00B2" unicode="&#xb2;" horiz-adv-x="415" 
d="M188 521q4 4 19.5 18.5t23 26.5t7.5 23q0 38 -43 38q-39 0 -81 -41l-60 74q30 31 72 50t82 19q63 0 101 -33.5t38 -89.5q0 -33 -14.5 -59.5t-45.5 -55.5l-64 -62h122v-97h-279v71z" />
    <glyph glyph-name="uni00B3" unicode="&#xb3;" horiz-adv-x="419" 
d="M121 340.5q-36 16.5 -59 42.5l60 64q34 -32 73 -32q23 0 38 11.5t15 29.5q0 17 -12 26.5t-35 9.5h-66v61l83 76h-143v93h257v-70l-88 -85q50 -6 80 -36.5t30 -77.5q0 -61 -41.5 -95t-112.5 -34q-43 0 -79 16.5z" />
    <glyph glyph-name="uni2074" unicode="&#x2074;" horiz-adv-x="423" 
d="M230 416h-174v68l174 239h92v-222h45v-85h-45v-84h-92v84zM230 501v101l-70 -101h70z" />
    <glyph glyph-name="uni2075" unicode="&#x2075;" horiz-adv-x="399" 
d="M110 340.5q-36 16.5 -60 43.5l59 63q16 -15 32.5 -22t39.5 -7q22 0 36 10.5t14 28.5q0 17 -12 26.5t-34 9.5h-110v65l31 164h208v-94h-143l-7 -51h33q67 0 104 -31t37 -88q0 -62 -41 -98t-112 -36q-39 0 -75 16.5z" />
    <glyph glyph-name="uni2076" unicode="&#x2076;" horiz-adv-x="412" 
d="M100 373.5q-40 49.5 -40 139.5q0 63 21.5 112t60.5 76t89 27q76 0 128 -55l-51 -65q-28 28 -71 28q-30 0 -50.5 -17.5t-27.5 -52.5q37 14 74 14q57 0 90.5 -32.5t33.5 -85.5q0 -61 -38.5 -99.5t-103.5 -38.5q-75 0 -115 49.5zM255 425q12 11 12 32q0 20 -13.5 31
t-37.5 11q-34 0 -60 -9q3 -37 20.5 -56.5t42.5 -19.5q24 0 36 11z" />
    <glyph glyph-name="uni2077" unicode="&#x2077;" horiz-adv-x="394" 
d="M219 625h-156v98h276v-51l-125 -340h-108z" />
    <glyph glyph-name="uni2078" unicode="&#x2078;" horiz-adv-x="435" 
d="M109.5 354.5q-40.5 30.5 -40.5 80.5q0 26 16 50t43 44q-48 32 -48 89q0 48 39.5 79t97.5 31q62 0 99.5 -29.5t37.5 -78.5q0 -39 -48 -78q28 -17 44 -42.5t16 -58.5q0 -53 -42 -85t-109 -32q-65 0 -105.5 30.5zM266 610q0 16 -13.5 26t-33.5 10t-33.5 -8.5t-13.5 -21.5
q0 -16 14 -26t43 -19l10 -3q27 17 27 42zM257.5 419q14.5 10 14.5 29t-17.5 29.5t-52.5 20.5l-7 2q-32 -19 -32 -48q0 -20 15.5 -31.5t41.5 -11.5q23 0 37.5 10z" />
    <glyph glyph-name="uni2079" unicode="&#x2079;" horiz-adv-x="396" 
d="M102.5 339q-34.5 15 -58.5 40l52 64q34 -27 71 -27q66 0 79 74q-35 -16 -74 -16q-57 0 -91.5 33.5t-34.5 85.5q0 60 39.5 97.5t102.5 37.5q75 0 115 -49.5t40 -139.5q0 -100 -46 -157.5t-124 -57.5q-36 0 -70.5 15zM249 563q-3 35 -19 55t-41 20q-24 0 -37.5 -11
t-13.5 -31q0 -41 52 -41q32 0 59 8z" />
    <glyph glyph-name="fraction" unicode="&#x2044;" horiz-adv-x="188" 
d="M230 657h147l-419 -657h-147z" />
    <glyph glyph-name="onehalf" unicode="&#xbd;" horiz-adv-x="955" 
d="M579 657h147l-419 -657h-147zM152 555l-87 -23v86l110 38h81v-391h-104v290zM728 189q4 4 19.5 18.5t23 26.5t7.5 23q0 38 -43 38q-39 0 -81 -41l-60 74q30 31 72 50t82 19q63 0 101 -33.5t38 -89.5q0 -33 -14.5 -59.5t-45.5 -55.5l-64 -62h122v-97h-279v71z" />
    <glyph glyph-name="onequarter" unicode="&#xbc;" horiz-adv-x="897" 
d="M592 657h147l-419 -657h-147zM152 555l-87 -23v86l110 38h81v-391h-104v290zM704 84h-174v68l174 239h92v-222h45v-85h-45v-84h-92v84zM704 169v101l-70 -101h70z" />
    <glyph glyph-name="threequarters" unicode="&#xbe;" horiz-adv-x="936" 
d="M640 657h147l-419 -657h-147zM121 273.5q-36 16.5 -59 42.5l60 64q34 -32 73 -32q23 0 38 11.5t15 29.5q0 17 -12 26.5t-35 9.5h-66v61l83 76h-143v93h257v-70l-88 -85q50 -6 80 -36.5t30 -77.5q0 -61 -41.5 -95t-112.5 -34q-43 0 -79 16.5zM743 84h-174v68l174 239h92
v-222h45v-85h-45v-84h-92v84zM743 169v101l-70 -101h70z" />
    <glyph glyph-name="period" unicode="." horiz-adv-x="231" 
d="M55.5 14q-23.5 24 -23.5 61t23.5 61t58.5 24q36 0 60 -23.5t24 -61.5q0 -37 -24 -61t-60 -24q-35 0 -58.5 24z" />
    <glyph glyph-name="comma" unicode="," horiz-adv-x="231" 
d="M44.5 15q14.5 69 18.5 126h132q-4 -66 -24 -134.5t-48 -126.5h-116q23 66 37.5 135z" />
    <glyph glyph-name="colon" unicode=":" horiz-adv-x="253" 
d="M55.5 385q-23.5 24 -23.5 61t23.5 61t58.5 24q36 0 60 -23.5t24 -61.5q0 -37 -24 -61t-60 -24q-35 0 -58.5 24zM55.5 14q-23.5 24 -23.5 61t23.5 61t58.5 24q36 0 60 -23.5t24 -61.5q0 -37 -24 -61t-60 -24q-35 0 -58.5 24z" />
    <glyph glyph-name="semicolon" unicode=";" horiz-adv-x="253" 
d="M63.5 385q-23.5 24 -23.5 61t23.5 61t58.5 24q36 0 60 -23.5t24 -61.5q0 -37 -24 -61t-60 -24q-35 0 -58.5 24zM39.5 15q14.5 69 18.5 126h132q-4 -66 -24 -134.5t-48 -126.5h-116q23 66 37.5 135z" />
    <glyph glyph-name="ellipsis" unicode="&#x2026;" horiz-adv-x="725" 
d="M55.5 14q-23.5 24 -23.5 61t23.5 61t58.5 24q36 0 60 -23.5t24 -61.5q0 -37 -24 -61t-60 -24q-35 0 -58.5 24zM302.5 14q-23.5 24 -23.5 61t23.5 61t58.5 24q36 0 60 -23.5t24 -61.5q0 -37 -24 -61t-60 -24q-35 0 -58.5 24zM549.5 14q-23.5 24 -23.5 61t23.5 61t58.5 24
q36 0 60 -23.5t24 -61.5q0 -37 -24 -61t-60 -24q-35 0 -58.5 24z" />
    <glyph glyph-name="exclam" unicode="!" horiz-adv-x="286" 
d="M61 676h155l-12 -446h-131zM83.5 14q-23.5 24 -23.5 61t23.5 61t58.5 24q36 0 60 -23.5t24 -61.5q0 -37 -24 -61t-60 -24q-35 0 -58.5 24z" />
    <glyph glyph-name="exclamdown" unicode="&#xa1;" horiz-adv-x="304" 
d="M102 389.5q-24 23.5 -24 61.5q0 37 24 61t60 24q35 0 58.5 -24t23.5 -61t-23.5 -61t-58.5 -24q-36 0 -60 23.5zM100 296h131l12 -446h-155z" />
    <glyph glyph-name="question" unicode="?" horiz-adv-x="485" 
d="M176.5 329.5q20.5 35.5 57.5 70.5q35 34 48.5 51t13.5 39q0 27 -16.5 42.5t-45.5 15.5q-70 0 -129 -58l-85 102q44 45 105 70.5t127 25.5q58 0 103 -22.5t69.5 -62t24.5 -89.5t-19.5 -86t-59.5 -73q-35 -33 -53.5 -59.5t-18.5 -56.5v-9h-142v19q0 45 20.5 80.5zM164.5 14
q-23.5 24 -23.5 61t23.5 61t58.5 24q36 0 60 -23.5t24 -61.5q0 -37 -24 -61t-60 -24q-35 0 -58.5 24z" />
    <glyph glyph-name="questiondown" unicode="&#xbf;" horiz-adv-x="485" 
d="M220 389.5q-24 23.5 -24 61.5q0 37 24 61t60 24q35 0 58.5 -24t23.5 -61t-23.5 -61t-58.5 -24q-36 0 -60 23.5zM148 -139.5q-45 22.5 -69.5 62t-24.5 89.5t19.5 86t59.5 73q35 33 53.5 59.5t18.5 56.5v9h142v-19q0 -45 -20.5 -80.5t-57.5 -70.5q-35 -34 -48.5 -51
t-13.5 -39q0 -27 16.5 -42.5t45.5 -15.5q70 0 129 58l85 -102q-44 -45 -105 -70.5t-127 -25.5q-58 0 -103 22.5z" />
    <glyph glyph-name="periodcentered" unicode="&#xb7;" horiz-adv-x="230" 
d="M55.5 306q-23.5 24 -23.5 61t23.5 61t58.5 24q36 0 60 -23.5t24 -61.5q0 -37 -24 -61t-60 -24q-35 0 -58.5 24z" />
    <glyph glyph-name="bullet" unicode="&#x2022;" horiz-adv-x="412" 
d="M138.5 225.5q-30.5 18.5 -48.5 50t-18 69.5q0 39 18 70.5t48.5 50t66.5 18.5q37 0 68 -18.5t49 -50t18 -70.5q0 -38 -18 -69.5t-49 -50t-68 -18.5q-36 0 -66.5 18.5z" />
    <glyph glyph-name="asterisk" unicode="*" horiz-adv-x="445" 
d="M177 426l-74 -65l-65 90l99 57l-99 56l65 92l74 -66l-11 103h114l-11 -101l73 64l65 -92l-100 -56l100 -57l-65 -90l-73 64l11 -102h-114z" />
    <glyph glyph-name="numbersign" unicode="#" horiz-adv-x="575" 
d="M102 148h-75l15 111h74l17 144h-76l16 110h74l14 116h123l-14 -116l80 1l14 115h123l-14 -115h75l-15 -110h-74l-17 -144h76l-16 -110h-74l-15 -123h-123l15 122h-79l-15 -122h-124zM319 260l17 144l-79 -1l-18 -144z" />
    <glyph glyph-name="slash" unicode="/" horiz-adv-x="464" 
d="M288 735h156l-268 -885h-156z" />
    <glyph glyph-name="backslash" unicode="\" horiz-adv-x="464" 
d="M20 735h156l268 -885h-156z" />
    <glyph glyph-name="exclamdown.case" horiz-adv-x="286" 
d="M84 539.5q-24 23.5 -24 61.5q0 37 24 61t60 24q35 0 58.5 -24t23.5 -61t-23.5 -61t-58.5 -24q-36 0 -60 23.5zM82 446h131l12 -446h-155z" />
    <glyph glyph-name="questiondown.case" horiz-adv-x="485" 
d="M202 539.5q-24 23.5 -24 61.5q0 37 24 61t60 24q35 0 58.5 -24t23.5 -61t-23.5 -61t-58.5 -24q-36 0 -60 23.5zM130 10.5q-45 22.5 -69.5 62t-24.5 89.5t19.5 86t59.5 73q35 33 53.5 59.5t18.5 56.5v9h142v-19q0 -45 -20.5 -80.5t-57.5 -70.5q-35 -34 -48.5 -51
t-13.5 -39q0 -27 16.5 -42.5t45.5 -15.5q70 0 129 58l85 -102q-44 -45 -105 -70.5t-127 -25.5q-58 0 -103 22.5z" />
    <glyph glyph-name="slash.case" horiz-adv-x="464" 
d="M288 777h156l-268 -885h-156z" />
    <glyph glyph-name="backslash.case" horiz-adv-x="464" 
d="M20 777h156l268 -885h-156z" />
    <glyph glyph-name="parenleft" unicode="(" horiz-adv-x="363" 
d="M95 56.5q-36 117.5 -36 235.5q0 117 36.5 234.5t98.5 208.5h147q-65 -98 -103 -211.5t-38 -231.5q0 -119 38 -232t103 -211h-147q-63 90 -99 207.5z" />
    <glyph glyph-name="parenright" unicode=")" horiz-adv-x="363" 
d="M125 60.5q38 113.5 38 231.5q0 119 -38 232t-103 211h147q63 -90 99 -207.5t36 -235.5q0 -116 -36.5 -234t-98.5 -209h-147q65 98 103 211.5z" />
    <glyph glyph-name="braceleft" unicode="{" horiz-adv-x="453" 
d="M159 -93.5q-51 57.5 -51 165.5v51q0 53 -14 77t-54 43v98q41 19 54.5 44t13.5 76v52q0 108 51 165t148 57h117l-20 -142h-65q-41 0 -63 -27.5t-22 -77.5v-53q0 -50 -15 -83t-50 -60q35 -27 50 -59.5t15 -83.5v-52q0 -51 22 -78t63 -27h65l20 -143h-117q-97 0 -148 57.5z
" />
    <glyph glyph-name="braceright" unicode="}" horiz-adv-x="453" 
d="M114 -9q41 0 63 27.5t22 77.5v53q0 50 15 83t50 60q-35 27 -50 59.5t-15 83.5v52q0 51 -22 78t-63 27h-65l-20 143h117q97 0 148 -57.5t51 -165.5v-51q0 -53 14 -77t54 -43v-98q-41 -19 -54.5 -44t-13.5 -76v-52q0 -108 -51 -165t-148 -57h-117l20 142h65z" />
    <glyph glyph-name="bracketleft" unicode="[" horiz-adv-x="445" 
d="M88 735h327l-19 -144h-158v-598h158l19 -144h-327v886z" />
    <glyph glyph-name="bracketright" unicode="]" horiz-adv-x="445" 
d="M49 -7h158v598h-158l-19 144h327v-886h-327z" />
    <glyph glyph-name="parenleft.case" horiz-adv-x="363" 
d="M95 98.5q-36 117.5 -36 235.5q0 117 36.5 234.5t98.5 208.5h147q-65 -98 -103 -211.5t-38 -231.5q0 -119 38 -232t103 -211h-147q-63 90 -99 207.5z" />
    <glyph glyph-name="parenright.case" horiz-adv-x="363" 
d="M125 102.5q38 113.5 38 231.5q0 119 -38 232t-103 211h147q63 -90 99 -207.5t36 -235.5q0 -116 -36.5 -234t-98.5 -209h-147q65 98 103 211.5z" />
    <glyph glyph-name="braceleft.case" horiz-adv-x="453" 
d="M159 -51.5q-51 57.5 -51 165.5v51q0 53 -14 77t-54 43v98q41 19 54.5 44t13.5 76v52q0 108 51 165t148 57h117l-20 -142h-65q-41 0 -63 -27.5t-22 -77.5v-53q0 -50 -15 -83t-50 -60q35 -27 50 -59.5t15 -83.5v-52q0 -51 22 -78t63 -27h65l20 -143h-117q-97 0 -148 57.5z
" />
    <glyph glyph-name="braceright.case" horiz-adv-x="453" 
d="M114 33q41 0 63 27.5t22 77.5v53q0 50 15 83t50 60q-35 27 -50 59.5t-15 83.5v52q0 51 -22 78t-63 27h-65l-20 143h117q97 0 148 -57.5t51 -165.5v-51q0 -53 14 -77t54 -43v-98q-41 -19 -54.5 -44t-13.5 -76v-52q0 -108 -51 -165t-148 -57h-117l20 142h65z" />
    <glyph glyph-name="bracketleft.case" horiz-adv-x="445" 
d="M88 777h327l-19 -144h-158v-598h158l19 -144h-327v886z" />
    <glyph glyph-name="bracketright.case" horiz-adv-x="445" 
d="M49 35h158v598h-158l-19 144h327v-886h-327z" />
    <glyph glyph-name="hyphen" unicode="-" horiz-adv-x="413" 
d="M52 373h309v-133h-309v133z" />
    <glyph glyph-name="uni00AD" unicode="&#xad;" horiz-adv-x="413" 
d="M52 373h309v-133h-309v133z" />
    <glyph glyph-name="endash" unicode="&#x2013;" horiz-adv-x="427" 
d="M0 371h427v-129h-427v129z" />
    <glyph glyph-name="emdash" unicode="&#x2014;" horiz-adv-x="854" 
d="M0 371h854v-129h-854v129z" />
    <glyph glyph-name="underscore" unicode="_" horiz-adv-x="439" 
d="M6 -71h427v-122h-427v122z" />
    <glyph glyph-name="hyphen.case" horiz-adv-x="413" 
d="M52 410h309v-133h-309v133z" />
    <glyph glyph-name="endash.case" horiz-adv-x="427" 
d="M0 408h427v-129h-427v129z" />
    <glyph glyph-name="emdash.case" horiz-adv-x="854" 
d="M0 408h854v-129h-854v129z" />
    <glyph glyph-name="quotesinglbase" unicode="&#x201a;" horiz-adv-x="263" 
d="M50.5 15q14.5 69 18.5 126h132q-4 -66 -24 -134.5t-48 -126.5h-116q23 66 37.5 135z" />
    <glyph glyph-name="quotedblbase" unicode="&#x201e;" horiz-adv-x="463" 
d="M50.5 15q14.5 69 18.5 126h132q-4 -66 -24 -134.5t-48 -126.5h-116q23 66 37.5 135zM250.5 15q14.5 69 18.5 126h132q-4 -66 -24 -134.5t-48 -126.5h-116q23 66 37.5 135z" />
    <glyph glyph-name="quotedblleft" unicode="&#x201c;" horiz-adv-x="457" 
d="M68 552q19 68 47 123h116q-22 -61 -36 -129t-19 -127h-132q5 65 24 133zM268 552q19 68 47 123h116q-22 -61 -36 -129t-19 -127h-132q5 65 24 133z" />
    <glyph glyph-name="quotedblright" unicode="&#x201d;" horiz-adv-x="457" 
d="M62 549q14 68 19 127h132q-5 -65 -24 -133t-47 -123h-116q22 61 36 129zM262 549q14 68 19 127h132q-5 -65 -24 -133t-47 -123h-116q22 61 36 129z" />
    <glyph glyph-name="quoteleft" unicode="&#x2018;" horiz-adv-x="257" 
d="M68 552q19 68 47 123h116q-22 -61 -36 -129t-19 -127h-132q5 65 24 133z" />
    <glyph glyph-name="quoteright" unicode="&#x2019;" horiz-adv-x="257" 
d="M62 549q14 68 19 127h132q-5 -65 -24 -133t-47 -123h-116q22 61 36 129z" />
    <glyph glyph-name="guillemotleft" unicode="&#xab;" horiz-adv-x="567" 
d="M41 277l118 203h142l-115 -203l115 -204h-142zM272 277l118 203h142l-115 -203l115 -204h-142z" />
    <glyph glyph-name="guillemotright" unicode="&#xbb;" horiz-adv-x="567" 
d="M150 276l-115 204h142l118 -204l-118 -203h-142zM381 276l-115 204h142l118 -204l-118 -203h-142z" />
    <glyph glyph-name="guilsinglleft" unicode="&#x2039;" horiz-adv-x="336" 
d="M41 277l118 203h142l-115 -203l115 -204h-142z" />
    <glyph glyph-name="guilsinglright" unicode="&#x203a;" horiz-adv-x="336" 
d="M150 276l-115 204h142l118 -204l-118 -203h-142z" />
    <glyph glyph-name="quotedbl" unicode="&#x22;" horiz-adv-x="466" 
d="M59 676h142l-10 -282h-122zM265 676h142l-10 -282h-122z" />
    <glyph glyph-name="quotesingle" unicode="'" horiz-adv-x="260" 
d="M59 676h142l-10 -282h-122z" />
    <glyph glyph-name="guillemotleft.case" horiz-adv-x="567" 
d="M41 341l118 203h142l-115 -203l115 -204h-142zM272 341l118 203h142l-115 -203l115 -204h-142z" />
    <glyph glyph-name="guillemotright.case" horiz-adv-x="567" 
d="M150 340l-115 204h142l118 -204l-118 -203h-142zM381 340l-115 204h142l118 -204l-118 -203h-142z" />
    <glyph glyph-name="guilsinglleft.case" horiz-adv-x="336" 
d="M41 341l118 203h142l-115 -203l115 -204h-142z" />
    <glyph glyph-name="guilsinglright.case" horiz-adv-x="336" 
d="M150 340l-115 204h142l118 -204l-118 -203h-142z" />
    <glyph glyph-name="period.dnom" horiz-adv-x="188" 
d="M45 12.5q-20 20.5 -20 50.5q0 31 20 51t49 20q30 0 49.5 -20t19.5 -51t-20 -51t-49 -20t-49 20.5z" />
    <glyph glyph-name="comma.dnom" horiz-adv-x="193" 
d="M43 124h112q-4 -44 -17.5 -92.5t-34.5 -91.5h-98q32 102 38 184z" />
    <glyph glyph-name="period.numr" horiz-adv-x="188" 
d="M45 277.5q-20 20.5 -20 50.5q0 31 20 51t49 20q30 0 49.5 -20t19.5 -51t-20 -51t-49 -20t-49 20.5z" />
    <glyph glyph-name="comma.numr" horiz-adv-x="193" 
d="M43 389h112q-4 -44 -17.5 -92.5t-34.5 -91.5h-98q32 102 38 184z" />
    <glyph glyph-name="period.subs" horiz-adv-x="188" 
d="M45 -64.5q-20 20.5 -20 50.5q0 31 20 51t49 20q30 0 49.5 -20t19.5 -51t-20 -51t-49 -20t-49 20.5z" />
    <glyph glyph-name="comma.subs" horiz-adv-x="193" 
d="M43 39h112q-4 -44 -17.5 -92.5t-34.5 -91.5h-98q32 102 38 184z" />
    <glyph glyph-name="uni00A0" unicode="&#xa0;" horiz-adv-x="255" 
 />
    <glyph glyph-name="cent" unicode="&#xa2;" 
d="M101.5 170.5q-42.5 65.5 -42.5 165.5q0 90 43.5 158t115.5 94v125l135 22v-142q72 -18 110 -72l-77 -84q-34 40 -86 40q-46 0 -73.5 -39t-27.5 -102q0 -62 28 -101t72 -39q53 0 93 39l76 -87q-43 -53 -114 -69v-128l-135 -22v154q-75 22 -117.5 87.5z" />
    <glyph glyph-name="currency" unicode="&#xa4;" 
d="M79 228q-21 48 -21 103t22 102l-69 75l91 87l64 -67q45 24 94 24q50 0 95 -24l64 67l91 -87l-69 -75q22 -47 22 -103q0 -55 -22 -102l69 -74l-91 -88l-65 68q-42 -24 -94 -24q-51 0 -94 23l-64 -67l-91 88zM319.5 251q22.5 30 22.5 79t-22 79.5t-60 30.5
q-36 0 -58.5 -30.5t-22.5 -78.5q0 -49 22.5 -79.5t57.5 -30.5q38 0 60.5 30z" />
    <glyph glyph-name="dollar" unicode="$" 
d="M12 86l73 105q43 -35 86 -51t89 -16q37 0 57.5 17t20.5 48q0 33 -23.5 50t-78.5 34q-71 22 -113 47t-63 63t-21 96q0 65 40 114t106 68v120l136 22v-139q86 -18 157 -91l-82 -88q-58 58 -132 58q-39 0 -60 -16.5t-21 -45.5t23 -46.5t85 -36.5q102 -31 148 -78.5
t46 -125.5t-43 -130t-121 -66v-127l-134 -22v152q-95 20 -175 85z" />
    <glyph glyph-name="Euro" unicode="&#x20ac;" 
d="M167 48q-64 60 -88 163h-69l23 88h34q-1 9 -1 28q0 21 1 32h-57l23 88h48q27 100 92 160.5t151 60.5q65 0 113 -23.5t80 -64.5l-85 -89q-40 44 -99 44q-37 0 -66 -23t-46 -65h157l-23 -88h-153q-1 -10 -1 -32q0 -19 1 -28h142l-23 -88h-101q17 -43 45.5 -66t65.5 -23
q29 0 53.5 10.5t51.5 35.5l85 -89q-80 -91 -197 -91q-93 0 -157 60z" />
    <glyph glyph-name="florin" unicode="&#x192;" 
d="M58 125q44 0 72.5 23.5t42.5 89.5l8 37h-98v124h123l7 35q23 112 81 167.5t161 55.5h46v-125h-38q-45 0 -74.5 -26t-40.5 -87l-4 -20h107v-124h-130l-10 -53q-21 -110 -79.5 -166t-162.5 -56h-50v125h39z" />
    <glyph glyph-name="sterling" unicode="&#xa3;" 
d="M99 262h-66v123h90l8 44q21 109 84.5 168.5t159.5 59.5h105v-130h-97q-52 0 -83 -25.5t-42 -89.5l-5 -27h169v-123h-190l-23 -132h281v-130h-423v97z" />
    <glyph glyph-name="yen" unicode="&#xa5;" 
d="M190 102h-125v94h125v60h-125v94h83l-135 307h162l89 -252l89 252h156l-135 -307h83v-94h-122v-60h122v-94h-122v-102h-145v102z" />
    <glyph glyph-name="plus" unicode="+" 
d="M197 267h-140v128h140v165h129v-165h139v-128h-139v-167h-129v167z" />
    <glyph glyph-name="minus" unicode="&#x2212;" 
d="M67 397h387v-133h-387v133z" />
    <glyph glyph-name="multiply" unicode="&#xd7;" 
d="M47 211l120 120l-120 119l93 94l120 -120l120 120l93 -94l-119 -119l119 -120l-93 -94l-120 120l-120 -120z" />
    <glyph glyph-name="divide" unicode="&#xf7;" 
d="M216.5 465q-21.5 22 -21.5 55q0 34 21 56t53 22q33 0 54.5 -22t21.5 -56q0 -33 -21.5 -55t-54.5 -22q-31 0 -52.5 22zM67 397h387v-133h-387v133zM216.5 82.5q-21.5 21.5 -21.5 54.5q0 35 21.5 57t53.5 22q33 0 54 -22t21 -57q0 -33 -21 -54.5t-54 -21.5
q-32 0 -53.5 21.5z" />
    <glyph glyph-name="equal" unicode="=" 
d="M67 514h387v-133h-387v133zM67 277h387v-133h-387v133z" />
    <glyph glyph-name="notequal" unicode="&#x2260;" 
d="M81 68l31 76h-45v133h99l43 104h-142v133h196l50 123l117 -48l-30 -75h54v-133h-109l-42 -104h151v-133h-205l-51 -126z" />
    <glyph glyph-name="greater" unicode="&#x3e;" 
d="M79 192l220 139l-220 139l72 113l291 -192v-119l-291 -192z" />
    <glyph glyph-name="less" unicode="&#x3c;" 
d="M79 271v119l291 192l72 -112l-220 -139l220 -139l-72 -113z" />
    <glyph glyph-name="greaterequal" unicode="&#x2265;" 
d="M78 300l224 107l-224 107l52 116l306 -162v-120l-306 -162zM68 131h368v-131h-368v131z" />
    <glyph glyph-name="lessequal" unicode="&#x2264;" 
d="M85 348v120l306 162l52 -114l-224 -107l224 -107l-52 -116zM85 131h369v-131h-369v131z" />
    <glyph glyph-name="plusminus" unicode="&#xb1;" 
d="M464 299h-139v-166h128v-133h-387v133h130v166h-140v128h140v165h129v-165h139v-128z" />
    <glyph glyph-name="approxequal" unicode="&#x2248;" 
d="M307.5 359.5q-19.5 8.5 -45.5 24.5q-6 4 -19 12.5t-23 12.5t-19 4q-44 0 -47 -59h-118q1 86 35 138.5t99 52.5q24 0 44.5 -8.5t46.5 -25.5q6 -4 18.5 -12.5t22.5 -12.5t19 -4q21 0 33 15.5t13 45.5h117q0 -86 -34 -139t-99 -53q-24 0 -43.5 8.5zM307.5 121.5
q-19.5 8.5 -45.5 24.5q-6 4 -19 12.5t-23 12.5t-19 4q-44 0 -47 -59h-118q1 86 35 138.5t99 52.5q24 0 44.5 -8.5t46.5 -25.5q6 -4 18.5 -12.5t22.5 -12.5t19 -4q21 0 33 15.5t13 45.5h117q0 -86 -34 -139t-99 -53q-24 0 -43.5 8.5z" />
    <glyph glyph-name="asciitilde" unicode="~" 
d="M307.5 237.5q-19.5 8.5 -45.5 24.5q-6 4 -19 12.5t-23 12.5t-19 4q-44 0 -47 -59h-118q1 86 35 138.5t99 52.5q24 0 44.5 -8.5t46.5 -25.5q6 -4 18.5 -12.5t22.5 -12.5t19 -4q21 0 33 15.5t13 45.5h117q0 -86 -34 -139t-99 -53q-24 0 -43.5 8.5z" />
    <glyph glyph-name="logicalnot" unicode="&#xac;" 
d="M322 315h-256v128h385v-296h-129v168z" />
    <glyph glyph-name="asciicircum" unicode="^" 
d="M193 676h137l151 -337h-148l-72 197l-72 -197h-149z" />
    <glyph glyph-name="uni00B5" unicode="&#xb5;" horiz-adv-x="574" 
d="M208 525v-298q0 -59 17.5 -84.5t54.5 -25.5q50 0 86 59v349h146v-525h-109l-19 68q-23 -36 -56.5 -57.5t-64.5 -21.5q-36 0 -56 14v-203l-145 -21v746h146z" />
    <glyph glyph-name="percent" unicode="%" horiz-adv-x="963" 
d="M102 311.5q-44 54.5 -44 148.5q0 91 44.5 146t116.5 55q73 0 117 -54.5t44 -146.5q0 -93 -44 -148t-117 -55t-117 54.5zM616 657h147l-419 -657h-147zM260 385q12 26 12 74q0 101 -51 101q-55 0 -55 -101q0 -100 53 -100q29 0 41 26zM626 46.5q-44 54.5 -44 148.5
q0 91 44.5 146t116.5 55q73 0 117 -54.5t44 -146.5q0 -93 -44 -148t-117 -55t-117 54.5zM784 120q12 26 12 74q0 101 -51 101q-55 0 -55 -101q0 -100 53 -100q29 0 41 26z" />
    <glyph glyph-name="perthousand" unicode="&#x2030;" horiz-adv-x="1331" 
d="M102 311.5q-44 54.5 -44 148.5q0 91 44.5 146t116.5 55q73 0 117 -54.5t44 -146.5q0 -93 -44 -148t-117 -55t-117 54.5zM616 657h147l-419 -657h-147zM260 385q12 26 12 74q0 101 -51 101q-55 0 -55 -101q0 -100 53 -100q29 0 41 26zM626 46.5q-44 54.5 -44 148.5
q0 91 44.5 146t116.5 55q73 0 117 -54.5t44 -146.5q0 -93 -44 -148t-117 -55t-117 54.5zM994 46.5q-44 54.5 -44 148.5q0 91 44.5 146t116.5 55q73 0 117 -54.5t44 -146.5q0 -93 -44 -148t-117 -55t-117 54.5zM784 120q12 26 12 74q0 101 -51 101q-55 0 -55 -101
q0 -100 53 -100q29 0 41 26zM1152 120q12 26 12 74q0 101 -51 101q-55 0 -55 -101q0 -100 53 -100q29 0 41 26z" />
    <glyph glyph-name="at" unicode="@" horiz-adv-x="893" 
d="M235 -118q-85 55 -133 152t-48 219q0 125 57.5 227.5t154 161.5t207.5 59q107 0 192.5 -43.5t134.5 -122.5t49 -181q0 -88 -36.5 -156t-97 -105t-130.5 -37h-50l-21 46q-44 -49 -101 -49q-70 0 -111.5 56t-41.5 151q0 58 23 105.5t62 74.5t86 27q24 0 49.5 -10.5
t47.5 -30.5l10 32h96v-302q54 16 85 66t31 131q0 75 -34.5 132t-97.5 88t-145 31q-86 0 -159 -45t-116.5 -125t-43.5 -180q0 -96 34 -171.5t96 -117.5t144 -42q57 0 100 14t87 46l56 -71q-51 -44 -110.5 -64.5t-133.5 -20.5q-107 0 -192 55zM506 201v138q-24 18 -52 18
q-32 0 -50.5 -27t-18.5 -75q0 -41 16.5 -65t45.5 -24q34 0 59 35z" />
    <glyph glyph-name="ampersand" unicode="&#x26;" horiz-adv-x="612" 
d="M147 13.5q-50 25.5 -78 72.5t-28 109q0 119 109 193q-15 31 -22.5 58t-7.5 57q0 53 25 95t69.5 65.5t102.5 23.5q57 0 101 -22.5t82 -66.5l-88 -90q-38 46 -87 46q-33 0 -51 -18t-18 -50q0 -25 15 -51.5t53 -76.5l18 -24l83 -112q16 43 16 105v36h118v-39q0 -55 -15 -108
t-44 -96l89 -120h-146l-29 40q-68 -52 -153 -52q-64 0 -114 25.5zM340 133l-124 167q-45 -36 -45 -95q0 -43 30 -69t79 -26q29 0 60 23z" />
    <glyph glyph-name="paragraph" unicode="&#xb6;" horiz-adv-x="576" 
d="M273 -50q39 0 60 28t21 79v600l146 20v-633q0 -109 -55 -170t-153 -61h-37v137h18zM112.5 250.5q-64.5 57.5 -64.5 158.5q0 91 50 152t138 77l59 11v-456q-118 0 -182.5 57.5z" />
    <glyph glyph-name="section" unicode="&#xa7;" horiz-adv-x="480" 
d="M160 -56q31 0 48 14t17 38q0 20 -11 36.5t-36 39.5l-61 58q-36 33 -55.5 68.5t-19.5 83.5q0 47 27 86t74 60q-20 34 -20 71q0 82 54 129.5t152 47.5h63v-124h-70q-32 0 -48.5 -14t-16.5 -38q0 -21 11 -36.5t36 -40.5l60 -57q74 -71 74 -151q0 -47 -27 -86t-74 -59
q22 -35 22 -73q0 -83 -55 -129.5t-152 -46.5h-69v123h77zM304 170q14 16 14 40q0 20 -9 37t-29 35l-67 64q-23 -2 -37 -17.5t-14 -40.5q0 -20 10 -37t29 -36l64 -63q25 2 39 18z" />
    <glyph glyph-name="copyright" unicode="&#xa9;" horiz-adv-x="709" 
d="M198 32q-71 44 -113 123.5t-42 182.5q0 100 42.5 180t113.5 125t155 45t155.5 -44.5t114 -124.5t42.5 -181q0 -102 -42.5 -181.5t-114 -124t-155.5 -44.5q-85 0 -156 44zM483 84.5q57 36.5 89 102t32 151.5q0 85 -32 151t-89 102.5t-129 36.5t-129 -37t-88.5 -103
t-31.5 -150q0 -87 31.5 -152.5t88 -101.5t129.5 -36q72 0 129 36.5zM240.5 196.5q-46.5 51.5 -46.5 141.5q0 54 22 98t61 69t88 25q41 0 74 -15.5t54 -44.5l-62 -64q-12 14 -25 20.5t-33 6.5q-33 0 -52 -26t-19 -69t18 -69t51 -26q39 0 67 28l59 -67q-23 -28 -58 -43.5
t-74 -15.5q-78 0 -124.5 51.5z" />
    <glyph glyph-name="registered" unicode="&#xae;" horiz-adv-x="541" 
d="M154 266q-53 31 -84 87.5t-31 129.5q0 71 31.5 128.5t84.5 89.5t115 32q63 0 116 -32t84.5 -89t31.5 -129t-31.5 -128.5t-84.5 -88t-116 -31.5t-116 31zM363.5 309.5q40.5 25.5 62.5 70.5t22 103t-22 104t-62.5 71.5t-93.5 25.5t-93 -26t-62 -71.5t-22 -103.5t22 -103
t62 -70.5t93 -25.5t93.5 25.5zM279 608q40 0 65.5 -22.5t25.5 -58.5q0 -20 -10 -36t-27 -24q12 -10 21 -30l31 -69h-71l-17 36q-9 19 -15.5 26t-19.5 7h-18v-69h-65v240h100zM300 522q0 27 -29 27h-27v-52h27q29 0 29 25z" />
    <glyph glyph-name="trademark" unicode="&#x2122;" horiz-adv-x="835" 
d="M128 577h-98v99h294v-99h-97v-277h-99v277zM382 676h101l95 -199l95 199h100v-376h-99v207l-56 -136h-82l-58 136v-207h-96v376z" />
    <glyph glyph-name="degree" unicode="&#xb0;" horiz-adv-x="388" 
d="M117 402q-34 21 -52.5 56.5t-18.5 77.5q0 43 19 78.5t52.5 56.5t76.5 21t77 -21t52.5 -56.5t18.5 -77.5q0 -43 -19 -78.5t-52.5 -56.5t-76.5 -21t-77 21zM234 491q15 18 15 46t-15 45.5t-40 17.5t-40 -18t-15 -46t15 -45.5t40 -17.5t40 18z" />
    <glyph glyph-name="bar" unicode="|" horiz-adv-x="328" 
d="M88 735h152v-887h-152v887z" />
    <glyph glyph-name="brokenbar" unicode="&#xa6;" horiz-adv-x="328" 
d="M88 735h152v-335h-152v335zM88 184h152v-336h-152v336z" />
    <glyph glyph-name="dagger" unicode="&#x2020;" horiz-adv-x="370" 
d="M136 483h-98v98h98v95l99 19v-114h97v-98h-97v-205h-99v205z" />
    <glyph glyph-name="daggerdbl" unicode="&#x2021;" horiz-adv-x="384" 
d="M143 365h-98v89h98v58h-98v89h98v75l98 19v-94h98v-89h-98v-58h98v-89h-98v-87h-98v87z" />
    <glyph glyph-name="at.case" horiz-adv-x="893" 
d="M235 -51q-85 55 -133 152t-48 219q0 125 57.5 227.5t154 161.5t207.5 59q107 0 192.5 -43.5t134.5 -122.5t49 -181q0 -88 -36.5 -156t-97 -105t-130.5 -37h-50l-21 46q-44 -49 -101 -49q-70 0 -111.5 56t-41.5 151q0 58 23 105.5t62 74.5t86 27q24 0 49.5 -10.5
t47.5 -30.5l10 32h96v-302q54 16 85 66t31 131q0 75 -34.5 132t-97.5 88t-145 31q-86 0 -159 -45t-116.5 -125t-43.5 -180q0 -96 34 -171.5t96 -117.5t144 -42q57 0 100 14t87 46l56 -71q-51 -44 -110.5 -64.5t-133.5 -20.5q-107 0 -192 55zM506 268v138q-24 18 -52 18
q-32 0 -50.5 -27t-18.5 -75q0 -41 16.5 -65t45.5 -24q34 0 59 35z" />
    <glyph glyph-name="uni0308" unicode="&#x308;" horiz-adv-x="0" 
d="M-417.5 618q-21.5 20 -21.5 52t21.5 52.5t54.5 20.5t54.5 -20.5t21.5 -52.5t-21.5 -52t-54.5 -20t-54.5 20zM-215.5 618q-21.5 20 -21.5 52t21.5 52.5t54.5 20.5t54.5 -20.5t21.5 -52.5t-21.5 -52t-54.5 -20t-54.5 20z" />
    <glyph glyph-name="uni0307" unicode="&#x307;" horiz-adv-x="0" 
d="M-322.5 617q-23.5 22 -23.5 57t23.5 57t59.5 22q37 0 61 -22t24 -57t-24 -57t-61 -22q-36 0 -59.5 22z" />
    <glyph glyph-name="gravecomb" unicode="&#x300;" horiz-adv-x="0" 
d="M-391 748h145l113 -148h-131z" />
    <glyph glyph-name="acutecomb" unicode="&#x301;" horiz-adv-x="0" 
d="M-277 748h144l-126 -148h-132z" />
    <glyph glyph-name="uni0302" unicode="&#x302;" horiz-adv-x="0" 
d="M-323 748h123l115 -148h-119l-58 74l-59 -74h-118z" />
    <glyph glyph-name="uni030C" unicode="&#x30c;" horiz-adv-x="0" 
d="M-439 748h119l58 -74l59 74h118l-115 -148h-123z" />
    <glyph glyph-name="uni030A" unicode="&#x30a;" horiz-adv-x="0" 
d="M-325.5 608q-29.5 17 -47 46.5t-17.5 64.5q0 36 17.5 65t47 46t64.5 17q34 0 63.5 -17t47 -46t17.5 -65t-17.5 -65t-47 -46t-63.5 -17q-35 0 -64.5 17zM-225 678q14 16 14 41t-14 40t-36 15t-36.5 -15.5t-14.5 -39.5q0 -25 14.5 -41t36.5 -16t36 16z" />
    <glyph glyph-name="tildecomb" unicode="&#x303;" horiz-adv-x="0" 
d="M-226.5 604q-16.5 6 -35.5 20t-33.5 20.5t-30.5 6.5q-23 0 -42 -9t-44 -27v97q23 19 43.5 29t43.5 10q21 0 38 -6.5t36 -19.5q20 -14 34 -20.5t30 -6.5q26 0 44.5 9t42.5 27v-98q-22 -18 -42.5 -28t-46.5 -10q-21 0 -37.5 6z" />
    <glyph glyph-name="uni0327" unicode="&#x327;" horiz-adv-x="0" 
d="M-324 -109q23 0 36 11.5t13 32.5q0 20 -7.5 36t-28.5 41l72 25q34 -31 50.5 -57.5t16.5 -60.5q0 -57 -40.5 -89t-107.5 -32h-33v93h29z" />
    <glyph glyph-name="dieresis" unicode="&#xa8;" horiz-adv-x="588" 
d="M106.5 618q-21.5 20 -21.5 52t21.5 52.5t54.5 20.5t54.5 -20.5t21.5 -52.5t-21.5 -52t-54.5 -20t-54.5 20zM308.5 618q-21.5 20 -21.5 52t21.5 52.5t54.5 20.5t54.5 -20.5t21.5 -52.5t-21.5 -52t-54.5 -20t-54.5 20z" />
    <glyph glyph-name="dotaccent" unicode="&#x2d9;" horiz-adv-x="588" 
d="M202.5 617q-23.5 22 -23.5 57t23.5 57t59.5 22q37 0 61 -22t24 -57t-24 -57t-61 -22q-36 0 -59.5 22z" />
    <glyph glyph-name="grave" unicode="`" horiz-adv-x="588" 
d="M133 748h145l113 -148h-131z" />
    <glyph glyph-name="acute" unicode="&#xb4;" horiz-adv-x="588" 
d="M247 748h144l-126 -148h-132z" />
    <glyph glyph-name="circumflex" unicode="&#x2c6;" horiz-adv-x="588" 
d="M201 748h123l115 -148h-119l-58 74l-59 -74h-118z" />
    <glyph glyph-name="caron" unicode="&#x2c7;" horiz-adv-x="588" 
d="M85 748h119l58 -74l59 74h118l-115 -148h-123z" />
    <glyph glyph-name="ring" unicode="&#x2da;" horiz-adv-x="588" 
d="M198.5 608q-29.5 17 -47 46.5t-17.5 64.5q0 36 17.5 65t47 46t64.5 17q34 0 63.5 -17t47 -46t17.5 -65t-17.5 -65t-47 -46t-63.5 -17q-35 0 -64.5 17zM299 678q14 16 14 41t-14 40t-36 15t-36.5 -15.5t-14.5 -39.5q0 -25 14.5 -41t36.5 -16t36 16z" />
    <glyph glyph-name="tilde" unicode="&#x2dc;" horiz-adv-x="588" 
d="M298.5 604q-16.5 6 -35.5 20t-33.5 20.5t-30.5 6.5q-23 0 -42 -9t-44 -27v97q23 19 43.5 29t43.5 10q21 0 38 -6.5t36 -19.5q20 -14 34 -20.5t30 -6.5q26 0 44.5 9t42.5 27v-98q-22 -18 -42.5 -28t-46.5 -10q-21 0 -37.5 6z" />
    <glyph glyph-name="cedilla" unicode="&#xb8;" horiz-adv-x="588" 
d="M201 -109q23 0 36 11.5t13 32.5q0 20 -7.5 36t-28.5 41l72 25q34 -31 50.5 -57.5t16.5 -60.5q0 -57 -40.5 -89t-107.5 -32h-33v93h29z" />
    <glyph glyph-name="uni0308.case" horiz-adv-x="0" 
d="M-422.5 755q-22.5 21 -22.5 54t23 54.5t56 21.5q34 0 56.5 -21.5t22.5 -54.5t-22.5 -54t-56.5 -21t-56.5 21zM-213.5 755q-22.5 21 -22.5 54t23 54.5t56 21.5q34 0 56.5 -21.5t22.5 -54.5t-22.5 -54t-56.5 -21t-56.5 21z" />
    <glyph glyph-name="uni0307.case" horiz-adv-x="0" 
d="M-324.5 757.5q-24.5 22.5 -24.5 57.5t25 58t61 23q38 0 62.5 -23t24.5 -58q0 -36 -24.5 -58t-62.5 -22q-37 0 -61.5 22.5z" />
    <glyph glyph-name="gravecomb.case" horiz-adv-x="0" 
d="M-399 888h151l123 -146h-138z" />
    <glyph glyph-name="acutecomb.case" horiz-adv-x="0" 
d="M-277 888h152l-137 -146h-137z" />
    <glyph glyph-name="uni0302.case" horiz-adv-x="0" 
d="M-326 888h128l122 -146h-127l-58 71l-61 -71h-126z" />
    <glyph glyph-name="uni030C.case" horiz-adv-x="0" 
d="M-448 888h127l59 -73l60 73h126l-122 -146h-129z" />
    <glyph glyph-name="uni030A.case" horiz-adv-x="0" 
d="M-330 753q-31 18 -49 48.5t-18 66.5q0 57 39 95t96 38q36 0 67 -17.5t49 -48t18 -67.5q0 -36 -18 -66.5t-49 -48.5t-67 -18q-37 0 -68 18zM-225.5 826.5q14.5 16.5 14.5 41.5t-14.5 41t-36.5 16q-23 0 -37.5 -16t-14.5 -41t14.5 -41.5t37.5 -16.5q22 0 36.5 16.5z" />
    <glyph glyph-name="tildecomb.case" horiz-adv-x="0" 
d="M-224 744.5q-17 6.5 -38 19.5q-22 14 -37 20t-32 6q-23 0 -43.5 -9t-47.5 -27v102q23 18 45 27t48 9q23 0 41 -6t39 -19q23 -14 37 -20t30 -6q28 0 48.5 9.5t45.5 27.5v-102q-24 -18 -46 -28t-51 -10q-22 0 -39 6.5z" />
    <glyph glyph-name="uni0327.case" horiz-adv-x="0" 
d="M-335 -107q27 0 43 11t16 32q0 20 -9.5 35.5t-33.5 40.5l81 27q38 -33 55.5 -60t17.5 -62q0 -58 -44 -90.5t-122 -32.5h-36v99h32z" />
    <glyph glyph-name="gravecomb.narrow.case" horiz-adv-x="0" 
d="M-385 888h152l100 -146h-137z" />
    <glyph glyph-name="acutecomb.narrow.case" horiz-adv-x="0" 
d="M-242 888h152l-115 -146h-137z" />
    <glyph glyph-name="gravecomb.narrow" horiz-adv-x="0" 
d="M-387 748h143l95 -148h-130z" />
    <glyph glyph-name="acutecomb.narrow" horiz-adv-x="0" 
d="M-293 748h144l-109 -148h-129z" />
    <glyph glyph-name="periodsuperior" horiz-adv-x="192" 
d="M47 344.5q-20 20.5 -20 50.5q0 31 20 51t49 20q30 0 49.5 -20t19.5 -51t-20 -51t-49 -20t-49 20.5z" />
    <glyph glyph-name="commasuperior" horiz-adv-x="192" 
d="M52 456h112q-4 -44 -17.5 -92.5t-34.5 -91.5h-98q32 102 38 184z" />
    </font>
</defs>
</svg>
