<?xml version="1.0" standalone="no"?>
<!DOCTYPE svg PUBLIC "-//W3C//DTD SVG 1.1//EN" "http://www.w3.org/Graphics/SVG/1.1/DTD/svg11.dtd" >
<svg xmlns="http://www.w3.org/2000/svg" xmlns:xlink="http://www.w3.org/1999/xlink" version="1.1">
<metadata>
Created by FontForge 20190801 at Thu Dec 19 10:01:10 2019
 By Henrique Beier
Copyright (c) 2019 Banco Bradesco S.A. All rights reserved.
</metadata>
<defs>
<font id="BradescoSans-Medium" horiz-adv-x="586" >
  <font-face 
    font-family="Bradesco Sans Medium"
    font-weight="500"
    font-stretch="normal"
    units-per-em="1000"
    panose-1="0 0 6 0 0 0 0 0 0 0"
    ascent="800"
    descent="-200"
    x-height="521"
    cap-height="676"
    bbox="-473 -224 1333 987"
    underline-thickness="50"
    underline-position="-100"
    unicode-range="U+0020-FB02"
  />
<missing-glyph horiz-adv-x="471" 
d="M386 -211h-298v941h298v-941zM158 667v-31h61v-35h-62v-31h156v31h-62v35h62v31h-155zM157 546v-98h156v32h-62v66h-94zM219 480h-31v34h31v-34zM157 422v-31h62v-35h-62v-31h94v66h62v31h-156zM282 366v-62h-125v-32h156v94h-31zM219 251v-53h32v22h31v-44h-94v75h-31
v-106h156v106h-94zM157 88v-106h156v106h-156zM282 13h-94v44h94v-44zM157 -40v-31h66l-66 -44v-31h156v31h-96l66 44h30v31h-156z" />
    <glyph glyph-name="fi" unicode="fi" horiz-adv-x="662" 
d="M126.5 689.5q54.5 55.5 145.5 55.5q77 0 138 -53l-47 -66q-38 31 -85 31q-49 0 -76.5 -29t-27.5 -82v-27h212v-87h-212v-432h-102v537q0 97 54.5 152.5zM494 627q-18 17 -18 43q0 27 18 44t45 17t45.5 -17t18.5 -44q0 -26 -18.5 -43t-45.5 -17t-45 17zM487 521h102v-521
h-102v521z" />
    <glyph glyph-name="fl" unicode="fl" horiz-adv-x="730" 
d="M126.5 689.5q54.5 55.5 145.5 55.5q77 0 138 -53l-47 -66q-38 31 -85 31q-49 0 -76.5 -29t-27.5 -82v-27h212v-87h-212v-432h-102v537q0 97 54.5 152.5zM535 43.5q-45 50.5 -45 144.5v537l102 19v-559q0 -51 23 -78t67 -27h20v-87h-37q-85 0 -130 50.5z" />
    <glyph glyph-name=".notdef" horiz-adv-x="471" 
d="M386 -211h-298v941h298v-941zM158 667v-31h61v-35h-62v-31h156v31h-62v35h62v31h-155zM157 546v-98h156v32h-62v66h-94zM219 480h-31v34h31v-34zM157 422v-31h62v-35h-62v-31h94v66h62v31h-156zM282 366v-62h-125v-32h156v94h-31zM219 251v-53h32v22h31v-44h-94v75h-31
v-106h156v106h-94zM157 88v-106h156v106h-156zM282 13h-94v44h94v-44zM157 -40v-31h66l-66 -44v-31h156v31h-96l66 44h30v31h-156z" />
    <glyph glyph-name="space" unicode=" " horiz-adv-x="255" 
 />
    <glyph glyph-name="A" unicode="A" horiz-adv-x="666" 
d="M283 676h102l262 -676h-110l-64 173h-284l-65 -173h-105zM440 266l-108 294l-110 -294h218z" />
    <glyph glyph-name="Aacute" unicode="&#xc1;" horiz-adv-x="666" 
d="M283 676h102l262 -676h-110l-64 173h-284l-65 -173h-105zM440 266l-108 294l-110 -294h218zM388 877h120l-151 -135h-107z" />
    <glyph glyph-name="Acircumflex" unicode="&#xc2;" horiz-adv-x="666" 
d="M283 676h102l262 -676h-110l-64 173h-284l-65 -173h-105zM440 266l-108 294l-110 -294h218zM281 876h104l127 -135h-101l-79 78l-79 -78h-100z" />
    <glyph glyph-name="Adieresis" unicode="&#xc4;" horiz-adv-x="666" 
d="M283 676h102l262 -676h-110l-64 173h-284l-65 -173h-105zM440 266l-108 294l-110 -294h218zM191.5 761q-17.5 16 -17.5 42q0 25 17.5 41.5t44.5 16.5q26 0 43.5 -16.5t17.5 -41.5q0 -26 -17.5 -42t-43.5 -16q-27 0 -44.5 16zM386.5 761q-17.5 16 -17.5 42q0 25 18 41.5
t44 16.5t43.5 -16.5t17.5 -41.5q0 -26 -17 -42t-44 -16t-44.5 16z" />
    <glyph glyph-name="Agrave" unicode="&#xc0;" horiz-adv-x="666" 
d="M283 676h102l262 -676h-110l-64 173h-284l-65 -173h-105zM440 266l-108 294l-110 -294h218zM159 877h120l138 -135h-107z" />
    <glyph glyph-name="Aring" unicode="&#xc5;" horiz-adv-x="666" 
d="M647 0h-110l-64 173h-284l-65 -173h-105l249 637q-30 17 -47.5 46t-17.5 64q0 52 37.5 88t90.5 36q35 0 64 -16.5t46.5 -45t17.5 -62.5t-16 -62t-44 -45zM287.5 790.5q-17.5 -17.5 -17.5 -43.5q0 -27 17.5 -45.5t43.5 -18.5t44 18.5t18 45.5q0 26 -18 43.5t-44 17.5
t-43.5 -17.5zM222 266h218l-108 294z" />
    <glyph glyph-name="Atilde" unicode="&#xc3;" horiz-adv-x="666" 
d="M283 676h102l262 -676h-110l-64 173h-284l-65 -173h-105zM440 266l-108 294l-110 -294h218zM372.5 753.5q-18.5 6.5 -38.5 18.5q-21 13 -35.5 19t-32.5 6q-26 0 -48 -9.5t-49 -27.5v78q47 36 97 36q23 0 41.5 -6t38.5 -18q24 -13 38.5 -19t31.5 -6q28 0 51 10t48 27v-79
q-48 -36 -101 -36q-23 0 -41.5 6.5z" />
    <glyph glyph-name="AE" unicode="&#xc6;" horiz-adv-x="1010" 
d="M480 676h476v-97h-341v-184h297v-96h-297v-201h351v-98h-454v170h-272l-119 -170h-117zM512 260v300l-210 -300h210z" />
    <glyph glyph-name="B" unicode="B" horiz-adv-x="618" 
d="M316 676q103 0 160.5 -50.5t57.5 -130.5q0 -44 -22 -80t-61 -59q57 -20 90 -63.5t33 -101.5q0 -88 -60 -139.5t-165 -51.5h-266v676h233zM401 414.5q32 26.5 32 74.5q0 47 -33 74.5t-98 27.5h-120v-203h126q61 0 93 26.5zM471 194q0 47 -35 76t-95 29h-159v-214h151
q138 0 138 109z" />
    <glyph glyph-name="C" unicode="C" horiz-adv-x="656" 
d="M205.5 33q-72.5 44 -112.5 123t-40 182q0 99 42 178.5t115.5 125t165.5 45.5q68 0 126.5 -28t100.5 -76l-67 -67q-65 73 -158 73q-65 0 -114 -32t-76 -89t-27 -130t27 -130t76 -89t112 -32q96 0 169 75l66 -68q-95 -105 -238 -105q-95 0 -167.5 44z" />
    <glyph glyph-name="Ccedilla" unicode="&#xc7;" horiz-adv-x="656" 
d="M416 -8q30 -38 30 -76q0 -55 -42 -84t-114 -29h-29v76h27q33 0 52.5 12.5t19.5 36.5q0 31 -30 63q-83 10 -146 56t-97 121t-34 170q0 99 42 178.5t115.5 125t165.5 45.5q68 0 126.5 -28t100.5 -76l-67 -67q-65 73 -158 73q-65 0 -114 -32t-76 -89t-27 -130t27 -130
t76 -89t112 -32q96 0 169 75l66 -68q-81 -89 -195 -102z" />
    <glyph glyph-name="D" unicode="D" horiz-adv-x="694" 
d="M301 676q102 0 179 -42t118.5 -118.5t41.5 -176.5t-42 -177t-118.5 -119.5t-177.5 -42.5h-219v676h218zM472 161.5q61 64.5 61 177.5q0 112 -60.5 176.5t-172.5 64.5h-112v-483h112q111 0 172 64.5z" />
    <glyph glyph-name="Eth" unicode="&#xd0;" horiz-adv-x="722" 
d="M23 293v90h89v293h217q102 0 179 -42t119 -118.5t42 -176.5t-42 -177t-119 -119.5t-178 -42.5h-218v293h-89zM500.5 161.5q61.5 64.5 61.5 177.5q0 112 -61 176.5t-172 64.5h-113v-197h185v-90h-185v-196h113q110 0 171.5 64.5z" />
    <glyph glyph-name="E" unicode="E" horiz-adv-x="582" 
d="M83 676h444v-97h-341v-184h298v-96h-298v-201h351v-98h-454v676z" />
    <glyph glyph-name="Eacute" unicode="&#xc9;" horiz-adv-x="582" 
d="M83 676h444v-97h-341v-184h298v-96h-298v-201h351v-98h-454v676zM365 877h120l-151 -135h-107z" />
    <glyph glyph-name="Ecircumflex" unicode="&#xca;" horiz-adv-x="582" 
d="M83 676h444v-97h-341v-184h298v-96h-298v-201h351v-98h-454v676zM259 876h104l127 -135h-101l-79 78l-79 -78h-100z" />
    <glyph glyph-name="Edieresis" unicode="&#xcb;" horiz-adv-x="582" 
d="M83 676h444v-97h-341v-184h298v-96h-298v-201h351v-98h-454v676zM169.5 761q-17.5 16 -17.5 42q0 25 17.5 41.5t44.5 16.5q26 0 43.5 -16.5t17.5 -41.5q0 -26 -17.5 -42t-43.5 -16q-27 0 -44.5 16zM364.5 761q-17.5 16 -17.5 42q0 25 18 41.5t44 16.5t43.5 -16.5
t17.5 -41.5q0 -26 -17 -42t-44 -16t-44.5 16z" />
    <glyph glyph-name="Egrave" unicode="&#xc8;" horiz-adv-x="582" 
d="M83 676h444v-97h-341v-184h298v-96h-298v-201h351v-98h-454v676zM137 877h120l138 -135h-107z" />
    <glyph glyph-name="F" unicode="F" horiz-adv-x="568" 
d="M83 676h443v-98h-339v-192h296v-98h-296v-288h-104v676z" />
    <glyph glyph-name="G" unicode="G" horiz-adv-x="686" 
d="M204 32q-72 43 -111.5 122.5t-39.5 183.5q0 101 42 180.5t117 124t170 44.5q68 0 128 -28.5t99 -75.5l-65 -66q-64 72 -159 72q-67 0 -118 -31.5t-79 -88.5t-28 -131q0 -75 26.5 -132t75 -88.5t112.5 -31.5q90 0 153 49v136h-161v89h257v-272q-48 -46 -115.5 -72.5
t-137.5 -26.5q-94 0 -166 43z" />
    <glyph glyph-name="H" unicode="H" horiz-adv-x="701" 
d="M83 676h105v-278h325v278h105v-676h-105v298h-325v-298h-105v676z" />
    <glyph glyph-name="I" unicode="I" horiz-adv-x="272" 
d="M83 676h105v-676h-105v676z" />
    <glyph glyph-name="Iacute" unicode="&#xcd;" horiz-adv-x="272" 
d="M83 676h105v-676h-105v676zM185 877h110l-116 -135h-97z" />
    <glyph glyph-name="Icircumflex" unicode="&#xce;" horiz-adv-x="272" 
d="M83 676h105v-676h-105v676zM84 876h104l127 -135h-101l-79 78l-79 -78h-100z" />
    <glyph glyph-name="Idieresis" unicode="&#xcf;" horiz-adv-x="272" 
d="M83 676h105v-676h-105v676zM-5.5 761q-17.5 16 -17.5 42q0 25 17.5 41.5t44.5 16.5q26 0 43.5 -16.5t17.5 -41.5q0 -26 -17.5 -42t-43.5 -16q-27 0 -44.5 16zM189.5 761q-17.5 16 -17.5 42q0 25 18 41.5t44 16.5t43.5 -16.5t17.5 -41.5q0 -26 -17 -42t-44 -16t-44.5 16z
" />
    <glyph glyph-name="Igrave" unicode="&#xcc;" horiz-adv-x="272" 
d="M83 676h105v-676h-105v676zM-23 877h110l103 -135h-97z" />
    <glyph glyph-name="J" unicode="J" horiz-adv-x="413" 
d="M88 100q68 0 104.5 40.5t36.5 114.5v421h105v-424q0 -121 -61 -186.5t-174 -65.5h-61v100h50z" />
    <glyph glyph-name="K" unicode="K" horiz-adv-x="677" 
d="M187 676v-280h77q41 0 64.5 10t42 33.5t48.5 76.5l94 160h116l-122 -205q-25 -41 -45 -68.5t-43 -47.5l245 -355h-125l-210 303q-22 -6 -49 -6h-93v-297h-104v676h104z" />
    <glyph glyph-name="L" unicode="L" horiz-adv-x="565" 
d="M83 676h105v-575h338v-101h-443v676z" />
    <glyph glyph-name="M" unicode="M" horiz-adv-x="859" 
d="M83 676h98l243 -441l257 441h95v-676h-104v487l-207 -355h-85l-195 351v-483h-102v676z" />
    <glyph glyph-name="N" unicode="N" horiz-adv-x="698" 
d="M83 676h86l343 -492v492h103v-676h-87l-343 491v-491h-102v676z" />
    <glyph glyph-name="Ntilde" unicode="&#xd1;" horiz-adv-x="698" 
d="M83 676h86l343 -492v492h103v-676h-87l-343 491v-491h-102v676zM388.5 753.5q-18.5 6.5 -38.5 18.5q-21 13 -35.5 19t-32.5 6q-26 0 -48 -9.5t-49 -27.5v78q47 36 97 36q23 0 41.5 -6t38.5 -18q24 -13 38.5 -19t31.5 -6q28 0 51 10t48 27v-79q-48 -36 -101 -36
q-23 0 -41.5 6.5z" />
    <glyph glyph-name="O" unicode="O" horiz-adv-x="747" 
d="M209 33.5q-73 44.5 -114.5 124t-41.5 181.5q0 99 42 178.5t115 124.5t164 45t164 -44.5t114.5 -124t41.5 -179.5t-41.5 -180t-114.5 -125t-164 -45q-92 0 -165 44.5zM484.5 119q48.5 32 75.5 89t27 131q0 73 -27 129.5t-75 88.5t-111 32t-112 -32.5t-75.5 -89
t-26.5 -128.5q0 -73 26.5 -130.5t75 -89.5t112.5 -32q62 0 110.5 32z" />
    <glyph glyph-name="Oacute" unicode="&#xd3;" horiz-adv-x="747" 
d="M209 33.5q-73 44.5 -114.5 124t-41.5 181.5q0 99 42 178.5t115 124.5t164 45t164 -44.5t114.5 -124t41.5 -179.5t-41.5 -180t-114.5 -125t-164 -45q-92 0 -165 44.5zM484.5 119q48.5 32 75.5 89t27 131q0 73 -27 129.5t-75 88.5t-111 32t-112 -32.5t-75.5 -89
t-26.5 -128.5q0 -73 26.5 -130.5t75 -89.5t112.5 -32q62 0 110.5 32zM428 877h120l-151 -135h-107z" />
    <glyph glyph-name="Ocircumflex" unicode="&#xd4;" horiz-adv-x="747" 
d="M209 33.5q-73 44.5 -114.5 124t-41.5 181.5q0 99 42 178.5t115 124.5t164 45t164 -44.5t114.5 -124t41.5 -179.5t-41.5 -180t-114.5 -125t-164 -45q-92 0 -165 44.5zM484.5 119q48.5 32 75.5 89t27 131q0 73 -27 129.5t-75 88.5t-111 32t-112 -32.5t-75.5 -89
t-26.5 -128.5q0 -73 26.5 -130.5t75 -89.5t112.5 -32q62 0 110.5 32zM322 876h104l127 -135h-101l-79 78l-79 -78h-100z" />
    <glyph glyph-name="Odieresis" unicode="&#xd6;" horiz-adv-x="747" 
d="M209 33.5q-73 44.5 -114.5 124t-41.5 181.5q0 99 42 178.5t115 124.5t164 45t164 -44.5t114.5 -124t41.5 -179.5t-41.5 -180t-114.5 -125t-164 -45q-92 0 -165 44.5zM484.5 119q48.5 32 75.5 89t27 131q0 73 -27 129.5t-75 88.5t-111 32t-112 -32.5t-75.5 -89
t-26.5 -128.5q0 -73 26.5 -130.5t75 -89.5t112.5 -32q62 0 110.5 32zM232.5 761q-17.5 16 -17.5 42q0 25 17.5 41.5t44.5 16.5q26 0 43.5 -16.5t17.5 -41.5q0 -26 -17.5 -42t-43.5 -16q-27 0 -44.5 16zM427.5 761q-17.5 16 -17.5 42q0 25 18 41.5t44 16.5t43.5 -16.5
t17.5 -41.5q0 -26 -17 -42t-44 -16t-44.5 16z" />
    <glyph glyph-name="Ograve" unicode="&#xd2;" horiz-adv-x="747" 
d="M209 33.5q-73 44.5 -114.5 124t-41.5 181.5q0 99 42 178.5t115 124.5t164 45t164 -44.5t114.5 -124t41.5 -179.5t-41.5 -180t-114.5 -125t-164 -45q-92 0 -165 44.5zM484.5 119q48.5 32 75.5 89t27 131q0 73 -27 129.5t-75 88.5t-111 32t-112 -32.5t-75.5 -89
t-26.5 -128.5q0 -73 26.5 -130.5t75 -89.5t112.5 -32q62 0 110.5 32zM200 877h120l138 -135h-107z" />
    <glyph glyph-name="Oslash" unicode="&#xd8;" horiz-adv-x="747" 
d="M76 199q-23 64 -23 140q0 99 42 178.5t115 124.5t164 45q92 0 166 -49l63 86h106l-101 -141q41 -46 63.5 -109t22.5 -135q0 -100 -41.5 -180t-114.5 -125t-164 -45q-92 0 -164 46l-61 -84h-106l99 137q-43 47 -66 111zM374 589q-63 0 -112 -32.5t-75.5 -89t-26.5 -128.5
q0 -93 45 -161l277 378q-47 33 -108 33zM484.5 118q48.5 32 75.5 89.5t27 131.5q0 91 -42 155l-276 -376q46 -32 105 -32q62 0 110.5 32z" />
    <glyph glyph-name="Otilde" unicode="&#xd5;" horiz-adv-x="747" 
d="M209 33.5q-73 44.5 -114.5 124t-41.5 181.5q0 99 42 178.5t115 124.5t164 45t164 -44.5t114.5 -124t41.5 -179.5t-41.5 -180t-114.5 -125t-164 -45q-92 0 -165 44.5zM484.5 119q48.5 32 75.5 89t27 131q0 73 -27 129.5t-75 88.5t-111 32t-112 -32.5t-75.5 -89
t-26.5 -128.5q0 -73 26.5 -130.5t75 -89.5t112.5 -32q62 0 110.5 32zM413.5 753.5q-18.5 6.5 -38.5 18.5q-21 13 -35.5 19t-32.5 6q-26 0 -48 -9.5t-49 -27.5v78q47 36 97 36q23 0 41.5 -6t38.5 -18q24 -13 38.5 -19t31.5 -6q28 0 51 10t48 27v-79q-48 -36 -101 -36
q-23 0 -41.5 6.5z" />
    <glyph glyph-name="OE" unicode="&#x152;" horiz-adv-x="1087" 
d="M207.5 33q-72.5 44 -113.5 124t-41 182q0 98 42 177.5t114.5 125t160.5 45.5q66 0 122.5 -29.5t95.5 -83.5v102h444v-97h-341v-184h297v-96h-297v-201h351v-98h-454v104q-40 -54 -96 -84.5t-122 -30.5q-90 0 -162.5 44zM485.5 118.5q48.5 32.5 75.5 90t27 130.5
t-26.5 130t-75 88.5t-112.5 31.5q-63 0 -111.5 -32.5t-75.5 -89t-27 -128.5q0 -73 26.5 -130.5t75 -90t112.5 -32.5q63 0 111.5 32.5z" />
    <glyph glyph-name="P" unicode="P" horiz-adv-x="612" 
d="M332 676q73 0 126.5 -27.5t81.5 -76.5t28 -112t-28.5 -112t-82 -76.5t-125.5 -27.5h-144v-244h-105v676h249zM425 369q37 32 37 91t-37 92t-108 33h-129v-248h129q71 0 108 32z" />
    <glyph glyph-name="Thorn" unicode="&#xde;" horiz-adv-x="611" 
d="M188 676v-90h144q73 0 126.5 -27.5t81.5 -77t28 -112.5t-28.5 -112t-82 -76.5t-125.5 -27.5h-144v-153h-105v676h105zM424 279q37 32 37 90q0 59 -37 92.5t-107 33.5h-129v-248h129q70 0 107 32z" />
    <glyph glyph-name="Q" unicode="Q" horiz-adv-x="748" 
d="M374 -12q-92 0 -165 44.5t-114.5 124.5t-41.5 182q0 99 42 178.5t115 124.5t164 45t164 -44.5t114.5 -124t41.5 -179.5q0 -78 -25.5 -144t-71.5 -114l84 -116l-79 -56l-84 114q-68 -35 -144 -35zM459 104l-82 112l81 55l77 -106q52 69 52 172q0 73 -26.5 130.5t-74.5 90
t-111 32.5q-64 0 -113 -32.5t-75.5 -90t-26.5 -130.5q0 -72 27 -129.5t75.5 -90t111.5 -32.5q45 0 85 19z" />
    <glyph glyph-name="R" unicode="R" horiz-adv-x="624" 
d="M323 676q73 0 126.5 -25.5t81.5 -71.5t28 -106q0 -59 -33 -105t-92 -69q52 -36 93 -122l85 -177h-115l-62 128q-22 47 -42 75t-48.5 43.5t-70.5 15.5h-88v-262h-103v676h240zM416.5 384.5q37.5 31.5 37.5 84.5q0 57 -37 87.5t-108 30.5h-123v-234h123q70 0 107.5 31.5z
" />
    <glyph glyph-name="S" unicode="S" horiz-adv-x="597" 
d="M27 99l59 69q89 -84 218 -84q66 0 102.5 24.5t36.5 70.5q0 50 -38.5 75t-124.5 45q-81 18 -129.5 42t-72.5 62t-24 98q0 52 30 94.5t85 67t126 24.5q140 0 236 -102l-62 -65q-37 36 -82 54t-93 18q-65 0 -100.5 -24t-35.5 -67q0 -33 17.5 -52.5t50.5 -31.5t98 -27
q117 -27 170.5 -76t53.5 -130q0 -89 -64.5 -142t-181.5 -53q-167 0 -275 110z" />
    <glyph glyph-name="Scaron" unicode="&#x160;" horiz-adv-x="597" 
d="M27 99l59 69q89 -84 218 -84q66 0 102.5 24.5t36.5 70.5q0 50 -38.5 75t-124.5 45q-81 18 -129.5 42t-72.5 62t-24 98q0 52 30 94.5t85 67t126 24.5q140 0 236 -102l-62 -65q-37 36 -82 54t-93 18q-65 0 -100.5 -24t-35.5 -67q0 -33 17.5 -52.5t50.5 -31.5t98 -27
q117 -27 170.5 -76t53.5 -130q0 -89 -64.5 -142t-181.5 -53q-167 0 -275 110zM117 876h101l79 -77l79 77h100l-128 -135h-104z" />
    <glyph glyph-name="uni1E9E" unicode="&#x1e9e;" horiz-adv-x="687" 
d="M324 7q-48 18 -89 54l51 68q33 -27 64 -38.5t73 -11.5q58 0 92 28.5t34 77.5q0 53 -41 84t-115 31h-66v66l155 192q-50 38 -121 38q-86 0 -136 -57t-50 -162v-377h-101v380q0 92 35.5 161.5t100.5 107.5t150 38q136 0 244 -102l-167 -209l20 -1q56 -4 100 -29.5t68 -66.5
t24 -91q0 -59 -27 -104t-76 -70t-113 -25q-61 0 -109 18z" />
    <glyph glyph-name="T" unicode="T" horiz-adv-x="618" 
d="M257 576h-221v100h546v-100h-221v-576h-104v576z" />
    <glyph glyph-name="U" unicode="U" horiz-adv-x="707" 
d="M149 74.5q-74 85.5 -74 244.5v357h105v-357q0 -115 45.5 -174t127.5 -59q83 0 128.5 58.5t45.5 173.5v358h106v-356q0 -103 -34.5 -177.5t-98 -114t-147.5 -39.5q-130 0 -204 85.5z" />
    <glyph glyph-name="Uacute" unicode="&#xda;" horiz-adv-x="707" 
d="M149 74.5q-74 85.5 -74 244.5v357h105v-357q0 -115 45.5 -174t127.5 -59q83 0 128.5 58.5t45.5 173.5v358h106v-356q0 -103 -34.5 -177.5t-98 -114t-147.5 -39.5q-130 0 -204 85.5zM408 877h120l-151 -135h-107z" />
    <glyph glyph-name="Ucircumflex" unicode="&#xdb;" horiz-adv-x="707" 
d="M149 74.5q-74 85.5 -74 244.5v357h105v-357q0 -115 45.5 -174t127.5 -59q83 0 128.5 58.5t45.5 173.5v358h106v-356q0 -103 -34.5 -177.5t-98 -114t-147.5 -39.5q-130 0 -204 85.5zM302 876h104l127 -135h-101l-79 78l-79 -78h-100z" />
    <glyph glyph-name="Udieresis" unicode="&#xdc;" horiz-adv-x="707" 
d="M149 74.5q-74 85.5 -74 244.5v357h105v-357q0 -115 45.5 -174t127.5 -59q83 0 128.5 58.5t45.5 173.5v358h106v-356q0 -103 -34.5 -177.5t-98 -114t-147.5 -39.5q-130 0 -204 85.5zM212.5 761q-17.5 16 -17.5 42q0 25 17.5 41.5t44.5 16.5q26 0 43.5 -16.5t17.5 -41.5
q0 -26 -17.5 -42t-43.5 -16q-27 0 -44.5 16zM407.5 761q-17.5 16 -17.5 42q0 25 18 41.5t44 16.5t43.5 -16.5t17.5 -41.5q0 -26 -17 -42t-44 -16t-44.5 16z" />
    <glyph glyph-name="Ugrave" unicode="&#xd9;" horiz-adv-x="707" 
d="M149 74.5q-74 85.5 -74 244.5v357h105v-357q0 -115 45.5 -174t127.5 -59q83 0 128.5 58.5t45.5 173.5v358h106v-356q0 -103 -34.5 -177.5t-98 -114t-147.5 -39.5q-130 0 -204 85.5zM180 877h120l138 -135h-107z" />
    <glyph glyph-name="V" unicode="V" horiz-adv-x="675" 
d="M20 676h117l202 -544l202 544h114l-265 -676h-106z" />
    <glyph glyph-name="W" unicode="W" horiz-adv-x="969" 
d="M28 676h113l137 -535l157 493h107l151 -493l138 535h110l-195 -676h-106l-158 493l-155 -493h-105z" />
    <glyph glyph-name="Wacute" unicode="&#x1e82;" horiz-adv-x="969" 
d="M28 676h113l137 -535l157 493h107l151 -493l138 535h110l-195 -676h-106l-158 493l-155 -493h-105zM538 877h120l-151 -135h-107z" />
    <glyph glyph-name="Wcircumflex" unicode="&#x174;" horiz-adv-x="969" 
d="M28 676h113l137 -535l157 493h107l151 -493l138 535h110l-195 -676h-106l-158 493l-155 -493h-105zM432 876h104l127 -135h-101l-79 78l-79 -78h-100z" />
    <glyph glyph-name="Wdieresis" unicode="&#x1e84;" horiz-adv-x="969" 
d="M28 676h113l137 -535l157 493h107l151 -493l138 535h110l-195 -676h-106l-158 493l-155 -493h-105zM342.5 761q-17.5 16 -17.5 42q0 25 17.5 41.5t44.5 16.5q26 0 43.5 -16.5t17.5 -41.5q0 -26 -17.5 -42t-43.5 -16q-27 0 -44.5 16zM537.5 761q-17.5 16 -17.5 42
q0 25 18 41.5t44 16.5t43.5 -16.5t17.5 -41.5q0 -26 -17 -42t-44 -16t-44.5 16z" />
    <glyph glyph-name="Wgrave" unicode="&#x1e80;" horiz-adv-x="969" 
d="M28 676h113l137 -535l157 493h107l151 -493l138 535h110l-195 -676h-106l-158 493l-155 -493h-105zM310 877h120l138 -135h-107z" />
    <glyph glyph-name="X" unicode="X" horiz-adv-x="667" 
d="M270 353l-231 323h127l171 -245l168 245h120l-229 -322l251 -354h-125l-193 276l-189 -276h-120z" />
    <glyph glyph-name="Y" unicode="Y" horiz-adv-x="610" 
d="M253 256l-236 420h118l172 -320l172 320h116l-236 -419v-257h-106v256z" />
    <glyph glyph-name="Yacute" unicode="&#xdd;" horiz-adv-x="610" 
d="M253 256l-236 420h118l172 -320l172 320h116l-236 -419v-257h-106v256zM359 877h120l-151 -135h-107z" />
    <glyph glyph-name="Ycircumflex" unicode="&#x176;" horiz-adv-x="610" 
d="M253 256l-236 420h118l172 -320l172 320h116l-236 -419v-257h-106v256zM253 876h104l127 -135h-101l-79 78l-79 -78h-100z" />
    <glyph glyph-name="Ydieresis" unicode="&#x178;" horiz-adv-x="610" 
d="M253 256l-236 420h118l172 -320l172 320h116l-236 -419v-257h-106v256zM163.5 761q-17.5 16 -17.5 42q0 25 17.5 41.5t44.5 16.5q26 0 43.5 -16.5t17.5 -41.5q0 -26 -17.5 -42t-43.5 -16q-27 0 -44.5 16zM358.5 761q-17.5 16 -17.5 42q0 25 18 41.5t44 16.5t43.5 -16.5
t17.5 -41.5q0 -26 -17 -42t-44 -16t-44.5 16z" />
    <glyph glyph-name="Ygrave" unicode="&#x1ef2;" horiz-adv-x="610" 
d="M253 256l-236 420h118l172 -320l172 320h116l-236 -419v-257h-106v256zM131 877h120l138 -135h-107z" />
    <glyph glyph-name="Z" unicode="Z" horiz-adv-x="612" 
d="M41 82l386 496h-373v98h505v-82l-385 -495h396v-99h-529v82z" />
    <glyph glyph-name="Zcaron" unicode="&#x17d;" horiz-adv-x="612" 
d="M41 82l386 496h-373v98h505v-82l-385 -495h396v-99h-529v82zM127 876h101l79 -77l79 77h100l-128 -135h-104z" />
    <glyph glyph-name="a" unicode="a" horiz-adv-x="546" 
d="M95 29q-46 40 -46 111q0 73 56.5 115t159.5 42h122v14q0 69 -29.5 101.5t-91.5 32.5q-40 0 -77 -15t-66 -43l-56 61q39 40 92 62t110 22q105 0 159.5 -58.5t54.5 -171.5v-302h-66l-22 69q-37 -37 -82.5 -58.5t-90.5 -21.5q-81 0 -127 40zM314.5 92.5q40.5 21.5 72.5 57.5
v71h-126q-56 0 -87.5 -20.5t-31.5 -57.5q0 -32 25.5 -52t65.5 -20q41 0 81.5 21.5z" />
    <glyph glyph-name="aacute" unicode="&#xe1;" horiz-adv-x="546" 
d="M95 29q-46 40 -46 111q0 73 56.5 115t159.5 42h122v14q0 69 -29.5 101.5t-91.5 32.5q-40 0 -77 -15t-66 -43l-56 61q39 40 92 62t110 22q105 0 159.5 -58.5t54.5 -171.5v-302h-66l-22 69q-37 -37 -82.5 -58.5t-90.5 -21.5q-81 0 -127 40zM314.5 92.5q40.5 21.5 72.5 57.5
v71h-126q-56 0 -87.5 -20.5t-31.5 -57.5q0 -32 25.5 -52t65.5 -20q41 0 81.5 21.5zM326 740h116l-146 -140h-104z" />
    <glyph glyph-name="acircumflex" unicode="&#xe2;" horiz-adv-x="546" 
d="M95 29q-46 40 -46 111q0 73 56.5 115t159.5 42h122v14q0 69 -29.5 101.5t-91.5 32.5q-40 0 -77 -15t-66 -43l-56 61q39 40 92 62t110 22q105 0 159.5 -58.5t54.5 -171.5v-302h-66l-22 69q-37 -37 -82.5 -58.5t-90.5 -21.5q-81 0 -127 40zM314.5 92.5q40.5 21.5 72.5 57.5
v71h-126q-56 0 -87.5 -20.5t-31.5 -57.5q0 -32 25.5 -52t65.5 -20q41 0 81.5 21.5zM223 740h101l123 -140h-96l-78 81l-79 -81h-95z" />
    <glyph glyph-name="adieresis" unicode="&#xe4;" horiz-adv-x="546" 
d="M95 29q-46 40 -46 111q0 73 56.5 115t159.5 42h122v14q0 69 -29.5 101.5t-91.5 32.5q-40 0 -77 -15t-66 -43l-56 61q39 40 92 62t110 22q105 0 159.5 -58.5t54.5 -171.5v-302h-66l-22 69q-37 -37 -82.5 -58.5t-90.5 -21.5q-81 0 -127 40zM314.5 92.5q40.5 21.5 72.5 57.5
v71h-126q-56 0 -87.5 -20.5t-31.5 -57.5q0 -32 25.5 -52t65.5 -20q41 0 81.5 21.5zM134 627q-17 16 -17 41q0 26 17 42.5t43 16.5t43.5 -16.5t17.5 -42.5q0 -25 -17.5 -41t-43.5 -16t-43 16zM327 627q-17 16 -17 41q0 26 17 42.5t43 16.5t43.5 -16.5t17.5 -42.5
q0 -25 -17.5 -41t-43.5 -16t-43 16z" />
    <glyph glyph-name="agrave" unicode="&#xe0;" horiz-adv-x="546" 
d="M95 29q-46 40 -46 111q0 73 56.5 115t159.5 42h122v14q0 69 -29.5 101.5t-91.5 32.5q-40 0 -77 -15t-66 -43l-56 61q39 40 92 62t110 22q105 0 159.5 -58.5t54.5 -171.5v-302h-66l-22 69q-37 -37 -82.5 -58.5t-90.5 -21.5q-81 0 -127 40zM314.5 92.5q40.5 21.5 72.5 57.5
v71h-126q-56 0 -87.5 -20.5t-31.5 -57.5q0 -32 25.5 -52t65.5 -20q41 0 81.5 21.5zM106 740h116l134 -140h-104z" />
    <glyph glyph-name="aring" unicode="&#xe5;" horiz-adv-x="546" 
d="M95 29q-46 40 -46 111q0 73 56.5 115t159.5 42h122v14q0 69 -29.5 101.5t-91.5 32.5q-40 0 -77 -15t-66 -43l-56 61q39 40 92 62t110 22q105 0 159.5 -58.5t54.5 -171.5v-302h-66l-22 69q-37 -37 -82.5 -58.5t-90.5 -21.5q-81 0 -127 40zM314.5 92.5q40.5 21.5 72.5 57.5
v71h-126q-56 0 -87.5 -20.5t-31.5 -57.5q0 -32 25.5 -52t65.5 -20q41 0 81.5 21.5zM183.5 625q-36.5 36 -36.5 88t36 87t88 35q51 0 88 -35.5t37 -86.5q0 -52 -37 -88t-88 -36t-87.5 36zM314.5 668q17.5 18 17.5 45q0 26 -17.5 43.5t-43.5 17.5q-25 0 -42.5 -17.5
t-17.5 -43.5q0 -27 17.5 -45t42.5 -18q26 0 43.5 18z" />
    <glyph glyph-name="atilde" unicode="&#xe3;" horiz-adv-x="546" 
d="M95 29q-46 40 -46 111q0 73 56.5 115t159.5 42h122v14q0 69 -29.5 101.5t-91.5 32.5q-40 0 -77 -15t-66 -43l-56 61q39 40 92 62t110 22q105 0 159.5 -58.5t54.5 -171.5v-302h-66l-22 69q-37 -37 -82.5 -58.5t-90.5 -21.5q-81 0 -127 40zM314.5 92.5q40.5 21.5 72.5 57.5
v71h-126q-56 0 -87.5 -20.5t-31.5 -57.5q0 -32 25.5 -52t65.5 -20q41 0 81.5 21.5zM315.5 610q-16.5 6 -40.5 20q-25 15 -38 20.5t-31 5.5q-24 0 -44.5 -9.5t-46.5 -28.5v77q24 19 45.5 28.5t46.5 9.5q22 0 39.5 -6.5t40.5 -19.5q4 -2 18.5 -10t26.5 -12t24 -4q26 0 46.5 10
t45.5 29v-78q-23 -18 -44.5 -28t-49.5 -10q-22 0 -38.5 6z" />
    <glyph glyph-name="ae" unicode="&#xe6;" horiz-adv-x="910" 
d="M96 29.5q-47 40.5 -47 111.5q0 74 57 117t159 43h123v12q-1 69 -30.5 100.5t-91.5 31.5q-40 0 -76.5 -15t-65.5 -43l-57 61q39 40 91.5 62t109.5 22q130 0 176 -99q32 46 81 72.5t108 26.5q71 0 123.5 -34t80 -95.5t27.5 -141.5v-33h-380q9 -67 53 -109.5t112 -42.5
q79 0 133 57l62 -58q-38 -41 -89 -63.5t-111 -22.5q-69 0 -122 28t-86 77q-43 -49 -97.5 -77t-113.5 -28q-82 0 -129 40.5zM725 410q-35 39 -95 39t-98 -39.5t-46 -105.5h279q-5 67 -40 106zM325.5 95.5q44.5 25.5 78.5 66.5q-9 25 -14 63h-129q-56 0 -87.5 -21t-31.5 -59
q0 -34 25.5 -54.5t66.5 -20.5q47 0 91.5 25.5z" />
    <glyph glyph-name="b" unicode="b" horiz-adv-x="624" 
d="M233 8q-42 17 -76 46l-17 -54h-68v725l102 19v-288q33 36 77.5 56t93.5 20q67 0 119 -33t81.5 -93.5t29.5 -141.5t-34.5 -143.5t-93 -96t-127.5 -33.5q-45 0 -87 17zM427.5 128q46.5 47 46.5 136q0 84 -40 130t-108 46q-47 0 -86 -22.5t-66 -61.5v-222q27 -25 61 -39
t70 -14q76 0 122.5 47z" />
    <glyph glyph-name="c" unicode="c" horiz-adv-x="524" 
d="M171 23q-58 34 -90 95.5t-32 142.5q0 77 33 138.5t92 97t132 35.5q57 0 103 -22t80 -61l-61 -62q-25 27 -53.5 41t-66.5 14q-71 0 -114.5 -50t-43.5 -131q0 -82 44 -131.5t114 -49.5q71 0 125 57l61 -63q-78 -85 -189 -85q-76 0 -134 34z" />
    <glyph glyph-name="ccedilla" unicode="&#xe7;" horiz-adv-x="524" 
d="M340 -9q28 -34 28 -72q0 -53 -39.5 -81t-105.5 -28h-29v71h26q31 0 49.5 12t18.5 37q0 17 -7 31.5t-23 31.5q-96 15 -152.5 86.5t-56.5 181.5q0 77 33 138.5t92 97t132 35.5q57 0 103 -22t80 -61l-61 -62q-25 27 -53.5 41t-66.5 14q-71 0 -114.5 -50t-43.5 -131
q0 -82 44 -131.5t114 -49.5q71 0 125 57l61 -63q-64 -70 -154 -83z" />
    <glyph glyph-name="d" unicode="d" horiz-adv-x="624" 
d="M160 21.5q-52 32.5 -81.5 93.5t-29.5 143t35 144t94 95.5t129 33.5q38 0 75.5 -12.5t68.5 -34.5v241l102 19v-744h-69l-23 74q-34 -40 -82 -62.5t-100 -22.5q-67 0 -119 32.5zM384 103.5q39 22.5 67 62.5v228q-28 23 -62 36t-70 13q-76 0 -122 -48t-46 -138
q0 -84 39.5 -130t107.5 -46q47 0 86 22.5z" />
    <glyph glyph-name="eth" unicode="&#xf0;" horiz-adv-x="607" 
d="M171.5 22q-58.5 33 -91 91.5t-32.5 134.5q0 71 30.5 128.5t85 90.5t124.5 33q38 0 75.5 -10.5t68.5 -30.5q-23 64 -75 127l-150 -42v68l99 28q-51 45 -97 75l105 26q42 -26 92 -74l127 35v-69l-80 -22q108 -144 108 -328q0 -85 -31.5 -152t-89.5 -104.5t-136 -37.5
q-74 0 -132.5 33zM421 134.5q42 56.5 42 148.5q0 41 -6 77q-29 27 -67.5 43t-77.5 16q-77 0 -120.5 -45.5t-43.5 -124.5q0 -74 43 -122.5t112 -48.5q76 0 118 56.5z" />
    <glyph glyph-name="e" unicode="e" horiz-adv-x="572" 
d="M169.5 25q-58.5 36 -89.5 98.5t-31 140.5q0 75 31.5 136.5t87.5 96.5t127 35t123.5 -34t80 -95t27.5 -141v-31h-380q7 -68 51.5 -111.5t113.5 -43.5q80 0 134 56l61 -57q-38 -41 -88.5 -63.5t-110.5 -22.5q-79 0 -137.5 36zM387.5 412q-34.5 37 -95.5 37q-58 0 -96 -38
t-48 -102h279q-5 66 -39.5 103z" />
    <glyph glyph-name="eacute" unicode="&#xe9;" horiz-adv-x="572" 
d="M169.5 25q-58.5 36 -89.5 98.5t-31 140.5q0 75 31.5 136.5t87.5 96.5t127 35t123.5 -34t80 -95t27.5 -141v-31h-380q7 -68 51.5 -111.5t113.5 -43.5q80 0 134 56l61 -57q-38 -41 -88.5 -63.5t-110.5 -22.5q-79 0 -137.5 36zM387.5 412q-34.5 37 -95.5 37q-58 0 -96 -38
t-48 -102h279q-5 66 -39.5 103zM345 740h116l-146 -140h-104z" />
    <glyph glyph-name="ecircumflex" unicode="&#xea;" horiz-adv-x="572" 
d="M169.5 25q-58.5 36 -89.5 98.5t-31 140.5q0 75 31.5 136.5t87.5 96.5t127 35t123.5 -34t80 -95t27.5 -141v-31h-380q7 -68 51.5 -111.5t113.5 -43.5q80 0 134 56l61 -57q-38 -41 -88.5 -63.5t-110.5 -22.5q-79 0 -137.5 36zM387.5 412q-34.5 37 -95.5 37q-58 0 -96 -38
t-48 -102h279q-5 66 -39.5 103zM242 740h101l123 -140h-96l-78 81l-79 -81h-95z" />
    <glyph glyph-name="edieresis" unicode="&#xeb;" horiz-adv-x="572" 
d="M169.5 25q-58.5 36 -89.5 98.5t-31 140.5q0 75 31.5 136.5t87.5 96.5t127 35t123.5 -34t80 -95t27.5 -141v-31h-380q7 -68 51.5 -111.5t113.5 -43.5q80 0 134 56l61 -57q-38 -41 -88.5 -63.5t-110.5 -22.5q-79 0 -137.5 36zM387.5 412q-34.5 37 -95.5 37q-58 0 -96 -38
t-48 -102h279q-5 66 -39.5 103zM153 627q-17 16 -17 41q0 26 17 42.5t43 16.5t43.5 -16.5t17.5 -42.5q0 -25 -17.5 -41t-43.5 -16t-43 16zM346 627q-17 16 -17 41q0 26 17 42.5t43 16.5t43.5 -16.5t17.5 -42.5q0 -25 -17.5 -41t-43.5 -16t-43 16z" />
    <glyph glyph-name="egrave" unicode="&#xe8;" horiz-adv-x="572" 
d="M169.5 25q-58.5 36 -89.5 98.5t-31 140.5q0 75 31.5 136.5t87.5 96.5t127 35t123.5 -34t80 -95t27.5 -141v-31h-380q7 -68 51.5 -111.5t113.5 -43.5q80 0 134 56l61 -57q-38 -41 -88.5 -63.5t-110.5 -22.5q-79 0 -137.5 36zM387.5 412q-34.5 37 -95.5 37q-58 0 -96 -38
t-48 -102h279q-5 66 -39.5 103zM125 740h116l134 -140h-104z" />
    <glyph glyph-name="f" unicode="f" horiz-adv-x="414" 
d="M126.5 689.5q54.5 55.5 145.5 55.5q77 0 138 -53l-47 -66q-38 31 -85 31q-49 0 -76.5 -29t-27.5 -82v-25h212v-87h-212v-434h-102v537q0 97 54.5 152.5z" />
    <glyph glyph-name="g" unicode="g" horiz-adv-x="618" 
d="M155.5 -200.5q-56.5 23.5 -93.5 64.5l57 66q65 -65 164 -65q72 0 117 43.5t45 119.5v60q-33 -34 -77.5 -53.5t-91.5 -19.5q-66 0 -118 30.5t-81 88t-29 134.5q0 80 35 140t93.5 92t127.5 32q43 0 85 -16t74 -43l16 48h68v-494q0 -73 -32.5 -130t-92 -89t-136.5 -32
q-74 0 -130.5 23.5zM378 124q39 22 67 58v214q-27 23 -60.5 36t-68.5 13q-75 0 -121 -45t-46 -132q0 -79 39 -122.5t107 -43.5q44 0 83 22z" />
    <glyph glyph-name="h" unicode="h" horiz-adv-x="599" 
d="M174 744v-287q33 35 76 55t89 20q95 0 145.5 -61.5t50.5 -172.5v-298h-102v284q0 81 -27 118.5t-89 37.5q-42 0 -79.5 -22.5t-63.5 -62.5v-355h-102v725z" />
    <glyph glyph-name="i" unicode="i" horiz-adv-x="248" 
d="M73 521h102v-521h-102v521zM79.5 627q-17.5 17 -17.5 43q0 27 17.5 44t45.5 17q27 0 45 -17t18 -44q0 -26 -18 -43t-45 -17q-28 0 -45.5 17z" />
    <glyph glyph-name="dotlessi" unicode="&#x131;" horiz-adv-x="248" 
d="M73 521h102v-521h-102v521z" />
    <glyph glyph-name="iacute" unicode="&#xed;" horiz-adv-x="248" 
d="M73 521h102v-521h-102v521zM173 740h110l-115 -140h-97z" />
    <glyph glyph-name="icircumflex" unicode="&#xee;" horiz-adv-x="248" 
d="M73 521h102v-521h-102v521zM74 740h101l123 -140h-96l-78 81l-79 -81h-95z" />
    <glyph glyph-name="idieresis" unicode="&#xef;" horiz-adv-x="248" 
d="M73 521h102v-521h-102v521zM-15 627q-17 16 -17 41q0 26 17 42.5t43 16.5t43.5 -16.5t17.5 -42.5q0 -25 -17.5 -41t-43.5 -16t-43 16zM178 627q-17 16 -17 41q0 26 17 42.5t43 16.5t43.5 -16.5t17.5 -42.5q0 -25 -17.5 -41t-43.5 -16t-43 16z" />
    <glyph glyph-name="igrave" unicode="&#xec;" horiz-adv-x="248" 
d="M73 521h102v-521h-102v521zM-34 740h111l101 -140h-97z" />
    <glyph glyph-name="j" unicode="j" horiz-adv-x="248" 
d="M-18 -122q44 0 67.5 27.5t23.5 77.5v538h102v-533q0 -94 -46 -144.5t-132 -50.5h-36v85h21zM79.5 627q-17.5 17 -17.5 43q0 27 17.5 44t45.5 17q27 0 45 -17t18 -44q0 -26 -18 -43t-45 -17q-28 0 -45.5 17z" />
    <glyph glyph-name="uni0237" unicode="&#x237;" horiz-adv-x="248" 
d="M-18 -122q44 0 67.5 27.5t23.5 77.5v538h102v-533q0 -94 -46 -144.5t-132 -50.5h-36v85h21z" />
    <glyph glyph-name="k" unicode="k" horiz-adv-x="576" 
d="M172 744v-434h57q27 0 45.5 7t37 27.5t42.5 60.5l68 116h112l-95 -155q-38 -61 -71 -91l194 -275h-119l-158 226q-20 -5 -36 -5h-77v-221h-100v725z" />
    <glyph glyph-name="l" unicode="l" horiz-adv-x="306" 
d="M111 43.5q-45 50.5 -45 144.5v537l102 19v-559q0 -51 23 -78t67 -27h20v-87h-37q-85 0 -130 50.5z" />
    <glyph glyph-name="m" unicode="m" horiz-adv-x="899" 
d="M141 521l22 -73q73 84 162 84q109 0 153 -86q33 40 79 63t98 23q86 0 133 -55.5t47 -159.5v-317h-101v306q0 134 -105 134q-36 0 -69.5 -19.5t-57.5 -54.5q3 -22 3 -49v-317h-101v306q0 134 -105 134q-37 0 -69 -23t-57 -63v-354h-101v521h69z" />
    <glyph glyph-name="n" unicode="n" horiz-adv-x="599" 
d="M141 521l22 -74q35 40 80.5 62.5t95.5 22.5q95 0 145.5 -61.5t50.5 -172.5v-298h-102v284q0 81 -27 118.5t-89 37.5q-42 0 -79.5 -22.5t-63.5 -62.5v-355h-102v521h69z" />
    <glyph glyph-name="ntilde" unicode="&#xf1;" horiz-adv-x="599" 
d="M141 521l22 -74q35 40 80.5 62.5t95.5 22.5q95 0 145.5 -61.5t50.5 -172.5v-298h-102v284q0 81 -27 118.5t-89 37.5q-42 0 -79.5 -22.5t-63.5 -62.5v-355h-102v521h69zM345.5 610q-16.5 6 -40.5 20q-25 15 -38 20.5t-31 5.5q-24 0 -44.5 -9.5t-46.5 -28.5v77
q24 19 45.5 28.5t46.5 9.5q22 0 39.5 -6.5t40.5 -19.5q4 -2 18.5 -10t26.5 -12t24 -4q26 0 46.5 10t45.5 29v-78q-23 -18 -44.5 -28t-49.5 -10q-22 0 -38.5 6z" />
    <glyph glyph-name="o" unicode="o" horiz-adv-x="618" 
d="M175 23.5q-59 34.5 -92.5 96.5t-33.5 141q0 77 33.5 139t93 97t133.5 35t133.5 -34.5t93 -96.5t33.5 -140q0 -79 -34 -141t-93 -96.5t-133 -34.5q-75 0 -134 34.5zM424 128.5q43 48.5 43 132.5q0 82 -43 131.5t-115 49.5t-115 -49.5t-43 -131.5q0 -83 42.5 -132
t114.5 -49q73 0 116 48.5z" />
    <glyph glyph-name="oacute" unicode="&#xf3;" horiz-adv-x="618" 
d="M175 23.5q-59 34.5 -92.5 96.5t-33.5 141q0 77 33.5 139t93 97t133.5 35t133.5 -34.5t93 -96.5t33.5 -140q0 -79 -34 -141t-93 -96.5t-133 -34.5q-75 0 -134 34.5zM424 128.5q43 48.5 43 132.5q0 82 -43 131.5t-115 49.5t-115 -49.5t-43 -131.5q0 -83 42.5 -132
t114.5 -49q73 0 116 48.5zM362 740h116l-146 -140h-104z" />
    <glyph glyph-name="ocircumflex" unicode="&#xf4;" horiz-adv-x="618" 
d="M175 23.5q-59 34.5 -92.5 96.5t-33.5 141q0 77 33.5 139t93 97t133.5 35t133.5 -34.5t93 -96.5t33.5 -140q0 -79 -34 -141t-93 -96.5t-133 -34.5q-75 0 -134 34.5zM424 128.5q43 48.5 43 132.5q0 82 -43 131.5t-115 49.5t-115 -49.5t-43 -131.5q0 -83 42.5 -132
t114.5 -49q73 0 116 48.5zM259 740h101l123 -140h-96l-78 81l-79 -81h-95z" />
    <glyph glyph-name="odieresis" unicode="&#xf6;" horiz-adv-x="618" 
d="M175 23.5q-59 34.5 -92.5 96.5t-33.5 141q0 77 33.5 139t93 97t133.5 35t133.5 -34.5t93 -96.5t33.5 -140q0 -79 -34 -141t-93 -96.5t-133 -34.5q-75 0 -134 34.5zM424 128.5q43 48.5 43 132.5q0 82 -43 131.5t-115 49.5t-115 -49.5t-43 -131.5q0 -83 42.5 -132
t114.5 -49q73 0 116 48.5zM169 627q-17 16 -17 41q0 26 17 42.5t43 16.5t43.5 -16.5t17.5 -42.5q0 -25 -17.5 -41t-43.5 -16t-43 16zM362 627q-17 16 -17 41q0 26 17 42.5t43 16.5t43.5 -16.5t17.5 -42.5q0 -25 -17.5 -41t-43.5 -16t-43 16z" />
    <glyph glyph-name="ograve" unicode="&#xf2;" horiz-adv-x="618" 
d="M175 23.5q-59 34.5 -92.5 96.5t-33.5 141q0 77 33.5 139t93 97t133.5 35t133.5 -34.5t93 -96.5t33.5 -140q0 -79 -34 -141t-93 -96.5t-133 -34.5q-75 0 -134 34.5zM424 128.5q43 48.5 43 132.5q0 82 -43 131.5t-115 49.5t-115 -49.5t-43 -131.5q0 -83 42.5 -132
t114.5 -49q73 0 116 48.5zM141 740h116l134 -140h-104z" />
    <glyph glyph-name="oslash" unicode="&#xf8;" horiz-adv-x="618" 
d="M68 153q-19 50 -19 108q0 77 33.5 139t93 97t133.5 35q72 0 128 -32l47 65h92l-80 -110q35 -36 54 -85.5t19 -108.5q0 -79 -34 -141t-93 -96.5t-133 -34.5q-71 0 -129 33l-48 -66h-92l81 110q-34 37 -53 87zM309 442q-72 0 -115 -49.5t-43 -131.5q0 -66 30 -112l200 274
q-32 19 -72 19zM424 128.5q43 48.5 43 132.5q0 69 -30 112l-202 -275q32 -18 73 -18q73 0 116 48.5z" />
    <glyph glyph-name="otilde" unicode="&#xf5;" horiz-adv-x="618" 
d="M175 23.5q-59 34.5 -92.5 96.5t-33.5 141q0 77 33.5 139t93 97t133.5 35t133.5 -34.5t93 -96.5t33.5 -140q0 -79 -34 -141t-93 -96.5t-133 -34.5q-75 0 -134 34.5zM424 128.5q43 48.5 43 132.5q0 82 -43 131.5t-115 49.5t-115 -49.5t-43 -131.5q0 -83 42.5 -132
t114.5 -49q73 0 116 48.5zM350.5 610q-16.5 6 -40.5 20q-25 15 -38 20.5t-31 5.5q-24 0 -44.5 -9.5t-46.5 -28.5v77q24 19 45.5 28.5t46.5 9.5q22 0 39.5 -6.5t40.5 -19.5q4 -2 18.5 -10t26.5 -12t24 -4q26 0 46.5 10t45.5 29v-78q-23 -18 -44.5 -28t-49.5 -10
q-22 0 -38.5 6z" />
    <glyph glyph-name="oe" unicode="&#x153;" horiz-adv-x="999" 
d="M175 23.5q-59 34.5 -92.5 96.5t-33.5 142q0 77 33.5 138.5t93 96.5t133.5 35q67 0 122 -31.5t89 -85.5q32 54 84 85.5t118 31.5q71 0 123 -34t80 -95.5t28 -140.5v-31h-380q7 -68 51.5 -111t113.5 -43q80 0 133 56l62 -58q-38 -41 -89 -63.5t-111 -22.5q-72 0 -126 31.5
t-87 86.5q-33 -55 -88.5 -86.5t-122.5 -31.5q-75 0 -134 34.5zM814.5 412.5q-34.5 37.5 -94.5 37.5t-98 -38t-48 -104h280q-5 67 -39.5 104.5zM424.5 129.5q43.5 48.5 43.5 131.5q0 82 -43 131.5t-116 49.5q-72 0 -115.5 -49.5t-43.5 -130.5q0 -83 43 -132t115 -49
q73 0 116.5 48.5z" />
    <glyph glyph-name="p" unicode="p" horiz-adv-x="624" 
d="M140 521l23 -73q34 39 81.5 61.5t100.5 22.5q67 0 119 -33t81.5 -93.5t29.5 -142.5t-34.5 -143.5t-93.5 -94.5t-130 -33q-38 0 -75.5 12t-67.5 33v-239l-102 -18v741h68zM427.5 128q46.5 47 46.5 136q0 84 -40 130t-108 46q-47 0 -86 -22.5t-66 -61.5v-226q27 -23 61 -36
t69 -13q77 0 123.5 47z" />
    <glyph glyph-name="thorn" unicode="&#xfe;" horiz-adv-x="624" 
d="M174 744v-286q33 35 77.5 54.5t93.5 19.5q67 0 119 -33t81.5 -93.5t29.5 -141.5q0 -82 -35 -144t-93.5 -95t-129.5 -33q-38 0 -75 13.5t-68 37.5v-246l-102 -17v945zM427.5 128q46.5 47 46.5 136q0 84 -40 130t-108 46q-47 0 -86 -22.5t-66 -61.5v-222q27 -25 61 -39
t70 -14q76 0 122.5 47z" />
    <glyph glyph-name="q" unicode="q" horiz-adv-x="624" 
d="M372.5 10q-44.5 -20 -93.5 -20q-67 0 -119 32.5t-81.5 93.5t-29.5 143t35 144t94 95.5t129 33.5q44 0 86 -15.5t76 -43.5l15 48h69v-723l-102 -18v285q-34 -35 -78.5 -55zM384 104.5q39 22.5 67 62.5v227q-27 23 -62 36t-70 13q-76 0 -122 -48t-46 -138
q0 -84 39.5 -129.5t107.5 -45.5q47 0 86 22.5z" />
    <glyph glyph-name="r" unicode="r" horiz-adv-x="405" 
d="M141 521l23 -76q37 41 86.5 63t106.5 22h14v-90h-23q-51 0 -97 -22.5t-77 -64.5v-353h-102v521h69z" />
    <glyph glyph-name="s" unicode="s" horiz-adv-x="498" 
d="M130 13q-56 23 -97 64l54 64q33 -31 77.5 -48t94.5 -17q102 0 102 65q0 34 -29 52t-91 30q-69 13 -108.5 32.5t-57.5 50t-18 79.5q0 41 24 74.5t68 53t102 19.5q60 0 109.5 -22t86.5 -60l-57 -60q-29 28 -64.5 42t-74.5 14q-48 0 -73.5 -16t-25.5 -46q0 -22 12 -35.5
t37.5 -22t73.5 -18.5q96 -20 139.5 -58t43.5 -105q0 -71 -52.5 -113t-148.5 -42q-71 0 -127 23z" />
    <glyph glyph-name="scaron" unicode="&#x161;" horiz-adv-x="498" 
d="M130 13q-56 23 -97 64l54 64q33 -31 77.5 -48t94.5 -17q102 0 102 65q0 34 -29 52t-91 30q-69 13 -108.5 32.5t-57.5 50t-18 79.5q0 41 24 74.5t68 53t102 19.5q60 0 109.5 -22t86.5 -60l-57 -60q-29 28 -64.5 42t-74.5 14q-48 0 -73.5 -16t-25.5 -46q0 -22 12 -35.5
t37.5 -22t73.5 -18.5q96 -20 139.5 -58t43.5 -105q0 -71 -52.5 -113t-148.5 -42q-71 0 -127 23zM79 740h98l77 -81l78 81h95l-123 -140h-101z" />
    <glyph glyph-name="germandbls" unicode="&#xdf;" horiz-adv-x="653" 
d="M322 4q-47 15 -84 45l43 70q58 -42 128 -42q50 0 78 20t28 56q0 28 -13.5 46t-32.5 28.5t-54 25.5q-9 4 -45.5 19t-55 39t-18.5 60q0 30 15 54t43 53q28 30 41 49.5t13 44.5q0 40 -26.5 61t-73.5 21q-63 0 -99.5 -44t-36.5 -118v-492h-100v484q0 79 30 138t84.5 90.5
t126.5 31.5q61 0 105 -20.5t66.5 -55.5t22.5 -77q0 -36 -18 -64.5t-50 -60.5q-25 -25 -36.5 -41t-11.5 -33q0 -26 18.5 -40t58.5 -31l31 -14q52 -26 84 -60.5t32 -96.5q0 -71 -51 -116t-133 -45q-62 0 -109 15z" />
    <glyph glyph-name="t" unicode="t" horiz-adv-x="414" 
d="M121.5 43q-49.5 54 -49.5 150v456l102 18v-146h201v-87h-201v-243q0 -51 23.5 -80.5t66.5 -29.5q29 0 47.5 7t36.5 22l50 -65q-61 -56 -138 -56q-89 0 -138.5 54z" />
    <glyph glyph-name="u" unicode="u" horiz-adv-x="597" 
d="M115.5 50q-49.5 61 -49.5 173v298h101v-283q0 -81 27 -119t91 -38q39 0 75.5 22.5t62.5 62.5v355h102v-521h-68l-24 74q-34 -40 -78.5 -62.5t-94.5 -22.5q-95 0 -144.5 61z" />
    <glyph glyph-name="uacute" unicode="&#xfa;" horiz-adv-x="597" 
d="M115.5 50q-49.5 61 -49.5 173v298h101v-283q0 -81 27 -119t91 -38q39 0 75.5 22.5t62.5 62.5v355h102v-521h-68l-24 74q-34 -40 -78.5 -62.5t-94.5 -22.5q-95 0 -144.5 61zM351 740h116l-146 -140h-104z" />
    <glyph glyph-name="ucircumflex" unicode="&#xfb;" horiz-adv-x="597" 
d="M115.5 50q-49.5 61 -49.5 173v298h101v-283q0 -81 27 -119t91 -38q39 0 75.5 22.5t62.5 62.5v355h102v-521h-68l-24 74q-34 -40 -78.5 -62.5t-94.5 -22.5q-95 0 -144.5 61zM248 740h101l123 -140h-96l-78 81l-79 -81h-95z" />
    <glyph glyph-name="udieresis" unicode="&#xfc;" horiz-adv-x="597" 
d="M115.5 50q-49.5 61 -49.5 173v298h101v-283q0 -81 27 -119t91 -38q39 0 75.5 22.5t62.5 62.5v355h102v-521h-68l-24 74q-34 -40 -78.5 -62.5t-94.5 -22.5q-95 0 -144.5 61zM158 627q-17 16 -17 41q0 26 17 42.5t43 16.5t43.5 -16.5t17.5 -42.5q0 -25 -17.5 -41t-43.5 -16
t-43 16zM351 627q-17 16 -17 41q0 26 17 42.5t43 16.5t43.5 -16.5t17.5 -42.5q0 -25 -17.5 -41t-43.5 -16t-43 16z" />
    <glyph glyph-name="ugrave" unicode="&#xf9;" horiz-adv-x="597" 
d="M115.5 50q-49.5 61 -49.5 173v298h101v-283q0 -81 27 -119t91 -38q39 0 75.5 22.5t62.5 62.5v355h102v-521h-68l-24 74q-34 -40 -78.5 -62.5t-94.5 -22.5q-95 0 -144.5 61zM130 740h116l134 -140h-104z" />
    <glyph glyph-name="v" unicode="v" horiz-adv-x="565" 
d="M16 521h113l155 -402l155 402h111l-218 -521h-100z" />
    <glyph glyph-name="w" unicode="w" horiz-adv-x="810" 
d="M25 521h108l101 -393l125 359h98l123 -359l105 393h103l-158 -521h-101l-125 362l-123 -362h-98z" />
    <glyph glyph-name="wacute" unicode="&#x1e83;" horiz-adv-x="810" 
d="M25 521h108l101 -393l125 359h98l123 -359l105 393h103l-158 -521h-101l-125 362l-123 -362h-98zM457 740h116l-146 -140h-104z" />
    <glyph glyph-name="wcircumflex" unicode="&#x175;" horiz-adv-x="810" 
d="M25 521h108l101 -393l125 359h98l123 -359l105 393h103l-158 -521h-101l-125 362l-123 -362h-98zM354 740h101l123 -140h-96l-78 81l-79 -81h-95z" />
    <glyph glyph-name="wdieresis" unicode="&#x1e85;" horiz-adv-x="810" 
d="M25 521h108l101 -393l125 359h98l123 -359l105 393h103l-158 -521h-101l-125 362l-123 -362h-98zM265 627q-17 16 -17 41q0 26 17 42.5t43 16.5t43.5 -16.5t17.5 -42.5q0 -25 -17.5 -41t-43.5 -16t-43 16zM458 627q-17 16 -17 41q0 26 17 42.5t43 16.5t43.5 -16.5
t17.5 -42.5q0 -25 -17.5 -41t-43.5 -16t-43 16z" />
    <glyph glyph-name="wgrave" unicode="&#x1e81;" horiz-adv-x="810" 
d="M25 521h108l101 -393l125 359h98l123 -359l105 393h103l-158 -521h-101l-125 362l-123 -362h-98zM237 740h116l134 -140h-104z" />
    <glyph glyph-name="x" unicode="x" horiz-adv-x="560" 
d="M220 271l-185 250h119l129 -180l126 180h115l-185 -250l202 -271h-120l-144 200l-143 -200h-114z" />
    <glyph glyph-name="y" unicode="y" horiz-adv-x="557" 
d="M96 -117q45 0 76 23.5t52 70.5l17 43l-227 501h112l163 -379l144 379h109l-227 -562q-66 -166 -209 -166h-38v90h28z" />
    <glyph glyph-name="yacute" unicode="&#xfd;" horiz-adv-x="557" 
d="M96 -117q45 0 76 23.5t52 70.5l17 43l-227 501h112l163 -379l144 379h109l-227 -562q-66 -166 -209 -166h-38v90h28zM331 740h116l-146 -140h-104z" />
    <glyph glyph-name="ycircumflex" unicode="&#x177;" horiz-adv-x="557" 
d="M96 -117q45 0 76 23.5t52 70.5l17 43l-227 501h112l163 -379l144 379h109l-227 -562q-66 -166 -209 -166h-38v90h28zM228 740h101l123 -140h-96l-78 81l-79 -81h-95z" />
    <glyph glyph-name="ydieresis" unicode="&#xff;" horiz-adv-x="557" 
d="M96 -117q45 0 76 23.5t52 70.5l17 43l-227 501h112l163 -379l144 379h109l-227 -562q-66 -166 -209 -166h-38v90h28zM139 627q-17 16 -17 41q0 26 17 42.5t43 16.5t43.5 -16.5t17.5 -42.5q0 -25 -17.5 -41t-43.5 -16t-43 16zM332 627q-17 16 -17 41q0 26 17 42.5t43 16.5
t43.5 -16.5t17.5 -42.5q0 -25 -17.5 -41t-43.5 -16t-43 16z" />
    <glyph glyph-name="ygrave" unicode="&#x1ef3;" horiz-adv-x="557" 
d="M96 -117q45 0 76 23.5t52 70.5l17 43l-227 501h112l163 -379l144 379h109l-227 -562q-66 -166 -209 -166h-38v90h28zM111 740h116l134 -140h-104z" />
    <glyph glyph-name="z" unicode="z" horiz-adv-x="541" 
d="M56 70l300 365h-295v86h420v-69l-298 -365h305v-87h-432v70z" />
    <glyph glyph-name="zcaron" unicode="&#x17e;" horiz-adv-x="541" 
d="M56 70l300 365h-295v86h420v-69l-298 -365h305v-87h-432v70zM89 740h98l77 -81l78 81h95l-123 -140h-101z" />
    <glyph glyph-name="ordfeminine" unicode="&#xaa;" horiz-adv-x="430" 
d="M71 301q-36 31 -36 85q0 56 44.5 88t121.5 32h92v9q0 44 -20 68.5t-68 24.5q-28 0 -57 -10.5t-51 -31.5l-48 53q30 30 72 47.5t87 17.5q84 0 128 -46t44 -133v-227h-62l-17 51q-28 -27 -62.5 -43t-67.5 -16q-64 0 -100 31zM241 355q29 14 52 39v50h-93q-39 0 -60.5 -14
t-21.5 -40q0 -22 18 -35.5t47 -13.5t58 14z" />
    <glyph glyph-name="ordmasculine" unicode="&#xba;" horiz-adv-x="479" 
d="M135.5 296.5q-46.5 26.5 -72.5 73.5t-26 107q0 59 26.5 106.5t72.5 74t103 26.5q58 0 104.5 -26.5t72.5 -73.5t26 -107t-26.5 -107t-73 -73.5t-103.5 -26.5t-103.5 26.5zM319.5 387q30.5 34 30.5 90t-30 90t-80 34t-80 -33.5t-30 -90.5q0 -56 29.5 -90t78.5 -34
q51 0 81.5 34z" />
    <glyph glyph-name="uni03BC" unicode="&#x3bc;" horiz-adv-x="601" 
d="M172 521v-283q0 -81 27 -119t91 -38q39 0 75 22.5t63 62.5v355h102v-521h-68l-24 74q-35 -40 -79 -62.5t-94 -22.5q-58 0 -93 34v-226l-101 -17v741h101z" />
    <glyph glyph-name="zero" unicode="0" horiz-adv-x="633" 
d="M177 31.5q-60 42.5 -92.5 120t-32.5 178.5q0 96 33 173t93.5 120.5t138.5 43.5q79 0 139 -42.5t92.5 -119t32.5 -175.5q0 -100 -33 -177.5t-93 -120.5t-138 -43q-80 0 -140 42.5zM434 153.5q42 65.5 42 176.5q0 108 -41 173.5t-117 65.5t-118.5 -66t-42.5 -173
q0 -110 41.5 -176t118.5 -66q75 0 117 65.5z" />
    <glyph glyph-name="one" unicode="1" horiz-adv-x="391" 
d="M193 554l-154 -42v86l180 59h76v-657h-102v554z" />
    <glyph glyph-name="two" unicode="2" horiz-adv-x="576" 
d="M305 307q51 50 75 85t24 69q0 52 -32.5 80.5t-94.5 28.5q-44 0 -86.5 -21t-79.5 -59l-63 71q104 106 238 106q67 0 117.5 -23.5t78.5 -67t28 -99.5q0 -53 -27.5 -102.5t-81.5 -101.5l-185 -179h298v-94h-454v69z" />
    <glyph glyph-name="three" unicode="3" horiz-adv-x="564" 
d="M136.5 14q-60.5 25 -100.5 67l60 66q32 -30 75.5 -47t93.5 -17q64 0 103 31.5t39 81.5q0 51 -38.5 80t-105.5 29h-87v63l183 196h-303v93h431v-70l-187 -200q96 -5 154.5 -57t58.5 -136q0 -61 -30.5 -107.5t-86 -72t-128.5 -25.5q-71 0 -131.5 25z" />
    <glyph glyph-name="four" unicode="4" horiz-adv-x="602" 
d="M372 164h-331v77l331 416h95v-403h95v-90h-95v-164h-95v164zM372 254v271l-215 -271h215z" />
    <glyph glyph-name="five" unicode="5" horiz-adv-x="549" 
d="M134 14q-58 25 -97 68l61 64q66 -63 161 -63q63 0 100 31.5t37 84.5q0 55 -34 83.5t-101 28.5h-181v62l57 284h321v-93h-253l-29 -162h85q116 0 178.5 -52t62.5 -150q0 -63 -29.5 -110.5t-84 -74t-126.5 -26.5q-70 0 -128 25z" />
    <glyph glyph-name="six" unicode="6" horiz-adv-x="588" 
d="M125 70.5q-68 81.5 -68 226.5q0 110 33 193.5t95.5 130t148.5 46.5q119 0 199 -92l-62 -63q-32 33 -64.5 47.5t-70.5 14.5q-73 0 -120.5 -55t-56.5 -150q36 19 79.5 29.5t87.5 10.5q66 0 114 -26t74 -72.5t26 -105.5q0 -61 -29 -110t-80.5 -77.5t-118.5 -28.5
q-119 0 -187 81.5zM407.5 114q35.5 33 35.5 89q0 54 -34.5 86.5t-98.5 32.5q-41 0 -82 -10t-72 -27q1 -99 41.5 -151.5t111.5 -52.5q63 0 98.5 33z" />
    <glyph glyph-name="seven" unicode="7" horiz-adv-x="555" 
d="M393 563h-347v94h468v-57l-265 -600h-110z" />
    <glyph glyph-name="eight" unicode="8" horiz-adv-x="600" 
d="M171 12.5q-56 23.5 -87 65.5t-31 96q0 51 30 95.5t84 77.5q-92 53 -92 148q0 50 29.5 89t81 61t115.5 22q68 0 120 -22t80.5 -62t28.5 -92q0 -43 -24.5 -83t-70.5 -70q112 -60 112 -163q0 -54 -31.5 -96.5t-88 -66t-127.5 -23.5q-73 0 -129 23.5zM412.5 422
q20.5 30 20.5 62q0 44 -36 70.5t-95 26.5q-56 0 -93 -24.5t-37 -61.5q0 -42 36 -68.5t113 -46.5q5 -1 12.5 -3t17.5 -6q41 21 61.5 51zM404 106q41 27 41 73q0 45 -40 73.5t-118 48.5q-24 6 -36 11q-97 -48 -97 -127q0 -46 42 -76t106 -30q61 0 102 27z" />
    <glyph glyph-name="nine" unicode="9" horiz-adv-x="590" 
d="M57 79l61 64q34 -32 67 -46.5t73 -14.5q78 0 123 55.5t52 156.5q-36 -19 -81 -29.5t-88 -10.5q-65 0 -113.5 25t-74.5 70.5t-26 104.5t29.5 108t82 77t117.5 28q118 0 186 -81.5t68 -226.5q0 -173 -70.5 -271.5t-201.5 -98.5q-121 0 -204 90zM362 351q41 10 73 27
q-3 96 -43 146.5t-110 50.5q-63 0 -99 -33t-36 -88q0 -54 34.5 -83.5t98.5 -29.5q41 0 82 10z" />
    <glyph glyph-name="zero.zero" horiz-adv-x="633" 
d="M177 31.5q-60 42.5 -92.5 120t-32.5 178.5q0 96 33 173t93.5 120.5t138.5 43.5q79 0 139 -42.5t92.5 -119t32.5 -175.5q0 -100 -33 -177.5t-93 -120.5t-138 -43q-80 0 -140 42.5zM318 575q-79 0 -123 -68t-44 -177q0 -66 15 -119l261 314q-41 50 -109 50zM438.5 149.5
q43.5 67.5 43.5 180.5q0 66 -15 117l-262 -314q43 -51 112 -51q78 0 121.5 67.5z" />
    <glyph glyph-name="zero.tf" 
d="M158.5 31.5q-57.5 42.5 -88.5 120t-31 178.5q0 97 31.5 173.5t89 120t133.5 43.5t133.5 -43t89 -119.5t31.5 -174.5q0 -100 -31.5 -177.5t-89 -120.5t-133.5 -43q-77 0 -134.5 42.5zM403 154q38 66 38 176q0 108 -37.5 173.5t-109.5 65.5t-111 -66t-39 -173
q0 -111 38 -176.5t111 -65.5q72 0 110 66z" />
    <glyph glyph-name="one.tf" 
d="M296 554l-175 -47v82l200 68h77v-657h-102v554z" />
    <glyph glyph-name="two.tf" 
d="M308 307q51 50 75 85t24 69q0 52 -32.5 80.5t-94.5 28.5q-44 0 -86.5 -21t-79.5 -59l-63 71q104 106 239 106q66 0 116.5 -23.5t78.5 -67t28 -99.5q0 -53 -27 -102.5t-81 -101.5l-186 -179h298v-94h-453v69z" />
    <glyph glyph-name="three.tf" 
d="M147.5 14q-60.5 25 -100.5 67l60 66q32 -30 75.5 -47t93.5 -17q64 0 102.5 31.5t38.5 81.5q0 51 -38 80t-105 29h-88v62l185 197h-304v93h430v-69l-186 -201q96 -6 154.5 -58t58.5 -135q0 -61 -30.5 -107.5t-86 -72t-128.5 -25.5q-71 0 -131.5 25z" />
    <glyph glyph-name="four.tf" 
d="M367 164h-332v73l332 420h96v-404h96v-89h-96v-164h-96v164zM367 253v279l-222 -279h222z" />
    <glyph glyph-name="five.tf" 
d="M155.5 14q-58.5 25 -97.5 68l61 64q66 -63 161 -63q63 0 100 32t37 84q0 56 -34 84.5t-101 28.5h-180v61l56 284h322v-93h-253l-30 -163h85q116 0 178.5 -51.5t62.5 -149.5q0 -63 -29.5 -111t-83.5 -74t-126 -26q-70 0 -128.5 25z" />
    <glyph glyph-name="six.tf" 
d="M177 25.5q-57 36.5 -88 106t-31 165.5q0 110 33 193.5t95.5 130t147.5 46.5q119 0 199 -92l-62 -63q-32 33 -64 47.5t-70 14.5q-73 0 -120.5 -55t-57.5 -150q36 19 79.5 29.5t87.5 10.5q66 0 114 -26t74 -72.5t26 -105.5q0 -61 -29 -110t-80.5 -77.5t-118.5 -28.5
q-78 0 -135 36.5zM407.5 114q35.5 33 35.5 89q0 54 -34.5 86.5t-98.5 32.5q-41 0 -81.5 -10t-72.5 -27q1 -99 41.5 -151.5t111.5 -52.5q63 0 98.5 33z" />
    <glyph glyph-name="seven.tf" 
d="M403 563h-347v94h468v-57l-265 -600h-110z" />
    <glyph glyph-name="eight.tf" 
d="M164.5 12.5q-56.5 23.5 -87.5 65.5t-31 96q0 51 30.5 95.5t84.5 77.5q-93 54 -93 148q0 49 29.5 88.5t81.5 61.5t115 22q68 0 120 -22t80.5 -62.5t28.5 -92.5q0 -43 -24.5 -82.5t-70.5 -68.5q112 -62 112 -164q0 -55 -32 -97t-88 -65.5t-127 -23.5q-72 0 -128.5 23.5z
M406.5 421q20.5 30 20.5 63q0 45 -36 71t-96 26q-57 0 -93.5 -24t-36.5 -62q0 -43 36.5 -69.5t116.5 -46.5q9 -2 27 -8q41 20 61.5 50zM398 104.5q41 27.5 41 73.5q0 45 -39.5 74t-115.5 48l-41 12q-97 -47 -97 -128q0 -46 42 -76.5t107 -30.5q62 0 103 27.5z" />
    <glyph glyph-name="nine.tf" 
d="M54 79l60 64q35 -32 68 -46.5t73 -14.5q78 0 122.5 55t52.5 157q-37 -19 -81.5 -29.5t-87.5 -10.5q-65 0 -114 25t-75 70.5t-26 104.5t30 108t82.5 77t117.5 28q118 0 186 -81.5t68 -226.5q0 -173 -71 -271.5t-202 -98.5q-120 0 -203 90zM358.5 351q40.5 10 72.5 27
q-3 96 -43 146.5t-110 50.5q-62 0 -98 -33t-36 -88q0 -54 34 -83.5t98 -29.5q42 0 82.5 10z" />
    <glyph glyph-name="zero.tf.zero" 
d="M158.5 31.5q-57.5 42.5 -88.5 120t-31 178.5q0 97 31.5 173.5t89 120t133.5 43.5t133.5 -43t89 -119.5t31.5 -174.5q0 -100 -31.5 -177.5t-89 -120.5t-133.5 -43q-77 0 -134.5 42.5zM295 572q-76 0 -117 -67t-41 -175q0 -62 12 -110l251 298q-40 54 -105 54zM408 151.5
q40 66.5 40 178.5q0 59 -12 107l-251 -297q41 -55 108 -55q75 0 115 66.5z" />
    <glyph glyph-name="zero.subs" horiz-adv-x="459" 
d="M103 -29.5q-48 54.5 -48 145.5q0 89 48 143.5t127 54.5t127 -54.5t48 -143.5q0 -90 -48 -145t-127 -55t-127 54.5zM296 27q23 33 23 88t-22 88t-66 33t-67 -33t-23 -88t22 -88t67 -33q43 0 66 33z" />
    <glyph glyph-name="one.subs" horiz-adv-x="352" 
d="M164 230l-96 -24v66l115 36h63v-384h-82v306z" />
    <glyph glyph-name="two.subs" horiz-adv-x="433" 
d="M216 107q33 29 46.5 45t13.5 33q0 25 -18 38t-52 13q-25 0 -52 -11.5t-50 -31.5l-46 58q31 29 71.5 46.5t85.5 17.5q67 0 107 -32.5t40 -85.5q0 -32 -16.5 -59t-50.5 -55l-102 -85h170v-74h-295v55z" />
    <glyph glyph-name="three.subs" horiz-adv-x="433" 
d="M123.5 -67.5q-38.5 16.5 -63.5 41.5l47 52q45 -38 98 -38q36 0 58.5 14.5t22.5 38.5q0 23 -20.5 36.5t-56.5 13.5h-63v51l104 93h-177v72h277v-53l-112 -102q60 -5 96 -34.5t36 -77.5q0 -58 -43.5 -91t-117.5 -33q-47 0 -85.5 16.5z" />
    <glyph glyph-name="four.subs" horiz-adv-x="447" 
d="M261 13h-209v53l209 242h76v-226h56v-69h-56v-89h-76v89zM261 82v134l-118 -134h118z" />
    <glyph glyph-name="five.subs" horiz-adv-x="422" 
d="M116.5 -68.5q-37.5 15.5 -62.5 42.5l49 50q40 -35 93 -35q34 0 55 14.5t21 39.5t-19 38t-54 13h-117v50l32 163h216v-72h-162l-13 -74h50q72 0 112.5 -31t40.5 -86q0 -59 -42.5 -93.5t-116.5 -34.5q-45 0 -82.5 15.5z" />
    <glyph glyph-name="six.subs" horiz-adv-x="439" 
d="M106.5 -35.5q-43.5 48.5 -43.5 135.5q0 97 49.5 155.5t133.5 58.5q85 0 134 -56l-45 -50q-19 18 -39 26t-46 8q-42 0 -69.5 -25t-35.5 -70q48 20 99 20q63 0 100.5 -33t37.5 -86q0 -57 -42.5 -94.5t-111.5 -37.5q-78 0 -121.5 48.5zM285.5 2.5q20.5 15.5 20.5 43.5
q0 24 -20 39t-55 15q-53 0 -89 -16q2 -48 24 -72.5t61 -24.5q38 0 58.5 15.5z" />
    <glyph glyph-name="seven.subs" horiz-adv-x="422" 
d="M269 233h-204v75h300v-39l-157 -345h-86z" />
    <glyph glyph-name="eight.subs" horiz-adv-x="463" 
d="M115.5 -54q-44.5 30 -44.5 79q0 28 17.5 53.5t48.5 44.5q-52 30 -52 86q0 46 42 75.5t105 29.5q67 0 107.5 -29t40.5 -76t-53 -85q65 -35 65 -96q0 -50 -45 -81t-115 -31q-72 0 -116.5 30zM296 172q11 15 11 30q0 22 -20.5 34.5t-54.5 12.5q-32 0 -52.5 -11.5
t-20.5 -30.5q0 -21 23 -34.5t69 -22.5l12 -2q22 9 33 24zM291 -3q24 13 24 36q0 24 -22.5 35.5t-75.5 24.5l-18 5q-26 -12 -39 -27.5t-13 -33.5q0 -24 24 -38.5t60 -14.5t60 13z" />
    <glyph glyph-name="nine.subs" horiz-adv-x="433" 
d="M115 -69q-35 15 -59 41l44 51q20 -19 40.5 -26.5t48.5 -7.5q45 0 71 25t32 72q-48 -20 -99 -20q-63 0 -100.5 33t-37.5 86q0 56 43 92.5t110 36.5q78 0 121.5 -49t43.5 -135q0 -101 -48 -157.5t-133 -56.5q-42 0 -77 15zM295 148q-3 46 -25.5 70.5t-60.5 24.5
q-35 0 -56 -15.5t-21 -41.5t18.5 -39.5t54.5 -13.5q53 0 90 15z" />
    <glyph glyph-name="zero.dnom" horiz-adv-x="459" 
d="M103 46.5q-48 54.5 -48 145.5q0 89 48 143.5t127 54.5t127 -54.5t48 -143.5q0 -90 -48 -145t-127 -55t-127 54.5zM296 103q23 33 23 88t-22 88t-66 33t-67 -33t-23 -88t22 -88t67 -33q43 0 66 33z" />
    <glyph glyph-name="one.dnom" horiz-adv-x="352" 
d="M164 306l-96 -24v66l115 36h63v-384h-82v306z" />
    <glyph glyph-name="two.dnom" horiz-adv-x="433" 
d="M216 183q33 29 46.5 45t13.5 33q0 25 -18 38t-52 13q-25 0 -52 -11.5t-50 -31.5l-46 58q31 29 71.5 46.5t85.5 17.5q67 0 107 -32.5t40 -85.5q0 -32 -16.5 -59t-50.5 -55l-102 -85h170v-74h-295v55z" />
    <glyph glyph-name="three.dnom" horiz-adv-x="433" 
d="M123.5 8.5q-38.5 16.5 -63.5 41.5l47 52q45 -38 98 -38q36 0 58.5 14.5t22.5 38.5q0 23 -20.5 36.5t-56.5 13.5h-63v51l104 93h-177v72h277v-53l-112 -102q60 -5 96 -34.5t36 -77.5q0 -58 -43.5 -91t-117.5 -33q-47 0 -85.5 16.5z" />
    <glyph glyph-name="four.dnom" horiz-adv-x="447" 
d="M261 89h-209v53l209 242h76v-226h56v-69h-56v-89h-76v89zM261 158v134l-118 -134h118z" />
    <glyph glyph-name="five.dnom" horiz-adv-x="422" 
d="M116.5 7.5q-37.5 15.5 -62.5 42.5l49 50q40 -35 93 -35q34 0 55 14.5t21 39.5t-19 38t-54 13h-117v50l32 163h216v-72h-162l-13 -74h50q72 0 112.5 -31t40.5 -86q0 -59 -42.5 -93.5t-116.5 -34.5q-45 0 -82.5 15.5z" />
    <glyph glyph-name="six.dnom" horiz-adv-x="439" 
d="M106.5 40.5q-43.5 48.5 -43.5 135.5q0 97 49.5 155.5t133.5 58.5q85 0 134 -56l-45 -50q-19 18 -39 26t-46 8q-42 0 -69.5 -25t-35.5 -70q48 20 99 20q63 0 100.5 -33t37.5 -86q0 -57 -42.5 -94.5t-111.5 -37.5q-78 0 -121.5 48.5zM285.5 78.5q20.5 15.5 20.5 43.5
q0 24 -20 39t-55 15q-53 0 -89 -16q2 -48 24 -72.5t61 -24.5q38 0 58.5 15.5z" />
    <glyph glyph-name="seven.dnom" horiz-adv-x="422" 
d="M269 309h-204v75h300v-39l-157 -345h-86z" />
    <glyph glyph-name="eight.dnom" horiz-adv-x="463" 
d="M115.5 22q-44.5 30 -44.5 79q0 28 17.5 53.5t48.5 44.5q-52 30 -52 86q0 46 42 75.5t105 29.5q67 0 107.5 -29t40.5 -76t-53 -85q65 -35 65 -96q0 -50 -45 -81t-115 -31q-72 0 -116.5 30zM296 248q11 15 11 30q0 22 -20.5 34.5t-54.5 12.5q-32 0 -52.5 -11.5t-20.5 -30.5
q0 -21 23 -34.5t69 -22.5l12 -2q22 9 33 24zM291 73q24 13 24 36q0 24 -22.5 35.5t-75.5 24.5l-18 5q-26 -12 -39 -27.5t-13 -33.5q0 -24 24 -38.5t60 -14.5t60 13z" />
    <glyph glyph-name="nine.dnom" horiz-adv-x="433" 
d="M115 7q-35 15 -59 41l44 51q20 -19 40.5 -26.5t48.5 -7.5q45 0 71 25t32 72q-48 -20 -99 -20q-63 0 -100.5 33t-37.5 86q0 56 43 92.5t110 36.5q78 0 121.5 -49t43.5 -135q0 -101 -48 -157.5t-133 -56.5q-42 0 -77 15zM295 224q-3 46 -25.5 70.5t-60.5 24.5
q-35 0 -56 -15.5t-21 -41.5t18.5 -39.5t54.5 -13.5q53 0 90 15z" />
    <glyph glyph-name="zero.numr" horiz-adv-x="459" 
d="M103 318.5q-48 54.5 -48 145.5q0 89 48 143.5t127 54.5t127 -54.5t48 -143.5q0 -90 -48 -145t-127 -55t-127 54.5zM296 375q23 33 23 88t-22 88t-66 33t-67 -33t-23 -88t22 -88t67 -33q43 0 66 33z" />
    <glyph glyph-name="one.numr" horiz-adv-x="352" 
d="M164 578l-96 -24v66l115 36h63v-384h-82v306z" />
    <glyph glyph-name="two.numr" horiz-adv-x="433" 
d="M216 455q33 29 46.5 45t13.5 33q0 25 -18 38t-52 13q-25 0 -52 -11.5t-50 -31.5l-46 58q31 29 71.5 46.5t85.5 17.5q67 0 107 -32.5t40 -85.5q0 -32 -16.5 -59t-50.5 -55l-102 -85h170v-74h-295v55z" />
    <glyph glyph-name="three.numr" horiz-adv-x="433" 
d="M123.5 280.5q-38.5 16.5 -63.5 41.5l47 52q45 -38 98 -38q36 0 58.5 14.5t22.5 38.5q0 23 -20.5 36.5t-56.5 13.5h-63v51l104 93h-177v72h277v-53l-112 -102q60 -5 96 -34.5t36 -77.5q0 -58 -43.5 -91t-117.5 -33q-47 0 -85.5 16.5z" />
    <glyph glyph-name="four.numr" horiz-adv-x="447" 
d="M261 361h-209v53l209 242h76v-226h56v-69h-56v-89h-76v89zM261 430v134l-118 -134h118z" />
    <glyph glyph-name="five.numr" horiz-adv-x="422" 
d="M116.5 279.5q-37.5 15.5 -62.5 42.5l49 50q40 -35 93 -35q34 0 55 14.5t21 39.5t-19 38t-54 13h-117v50l32 163h216v-72h-162l-13 -74h50q72 0 112.5 -31t40.5 -86q0 -59 -42.5 -93.5t-116.5 -34.5q-45 0 -82.5 15.5z" />
    <glyph glyph-name="six.numr" horiz-adv-x="439" 
d="M106.5 312.5q-43.5 48.5 -43.5 135.5q0 97 49.5 155.5t133.5 58.5q85 0 134 -56l-45 -50q-19 18 -39 26t-46 8q-42 0 -69.5 -25t-35.5 -70q48 20 99 20q63 0 100.5 -33t37.5 -86q0 -57 -42.5 -94.5t-111.5 -37.5q-78 0 -121.5 48.5zM285.5 350.5q20.5 15.5 20.5 43.5
q0 24 -20 39t-55 15q-53 0 -89 -16q2 -48 24 -72.5t61 -24.5q38 0 58.5 15.5z" />
    <glyph glyph-name="seven.numr" horiz-adv-x="422" 
d="M269 581h-204v75h300v-39l-157 -345h-86z" />
    <glyph glyph-name="eight.numr" horiz-adv-x="463" 
d="M115.5 294q-44.5 30 -44.5 79q0 28 17.5 53.5t48.5 44.5q-52 30 -52 86q0 46 42 75.5t105 29.5q67 0 107.5 -29t40.5 -76t-53 -85q65 -35 65 -96q0 -50 -45 -81t-115 -31q-72 0 -116.5 30zM296 520q11 15 11 30q0 22 -20.5 34.5t-54.5 12.5q-32 0 -52.5 -11.5
t-20.5 -30.5q0 -21 23 -34.5t69 -22.5l12 -2q22 9 33 24zM291 345q24 13 24 36q0 24 -22.5 35.5t-75.5 24.5l-18 5q-26 -12 -39 -27.5t-13 -33.5q0 -24 24 -38.5t60 -14.5t60 13z" />
    <glyph glyph-name="nine.numr" horiz-adv-x="433" 
d="M115 279q-35 15 -59 41l44 51q20 -19 40.5 -26.5t48.5 -7.5q45 0 71 25t32 72q-48 -20 -99 -20q-63 0 -100.5 33t-37.5 86q0 56 43 92.5t110 36.5q78 0 121.5 -49t43.5 -135q0 -101 -48 -157.5t-133 -56.5q-42 0 -77 15zM295 496q-3 46 -25.5 70.5t-60.5 24.5
q-35 0 -56 -15.5t-21 -41.5t18.5 -39.5t54.5 -13.5q53 0 90 15z" />
    <glyph glyph-name="uni2070" unicode="&#x2070;" horiz-adv-x="459" 
d="M103 385.5q-48 54.5 -48 145.5q0 89 48 143.5t127 54.5t127 -54.5t48 -143.5q0 -90 -48 -145t-127 -55t-127 54.5zM296 442q23 33 23 88t-22 88t-66 33t-67 -33t-23 -88t22 -88t67 -33q43 0 66 33z" />
    <glyph glyph-name="uni00B9" unicode="&#xb9;" horiz-adv-x="352" 
d="M164 645l-96 -24v66l115 36h63v-384h-82v306z" />
    <glyph glyph-name="uni00B2" unicode="&#xb2;" horiz-adv-x="433" 
d="M216 522q33 29 46.5 45t13.5 33q0 25 -18 38t-52 13q-25 0 -52 -11.5t-50 -31.5l-46 58q31 29 71.5 46.5t85.5 17.5q67 0 107 -32.5t40 -85.5q0 -32 -16.5 -59t-50.5 -55l-102 -85h170v-74h-295v55z" />
    <glyph glyph-name="uni00B3" unicode="&#xb3;" horiz-adv-x="433" 
d="M123.5 347.5q-38.5 16.5 -63.5 41.5l47 52q45 -38 98 -38q36 0 58.5 14.5t22.5 38.5q0 23 -20.5 36.5t-56.5 13.5h-63v51l104 93h-177v72h277v-53l-112 -102q60 -5 96 -34.5t36 -77.5q0 -58 -43.5 -91t-117.5 -33q-47 0 -85.5 16.5z" />
    <glyph glyph-name="uni2074" unicode="&#x2074;" horiz-adv-x="447" 
d="M261 428h-209v53l209 242h76v-226h56v-69h-56v-89h-76v89zM261 497v134l-118 -134h118z" />
    <glyph glyph-name="uni2075" unicode="&#x2075;" horiz-adv-x="422" 
d="M116.5 346.5q-37.5 15.5 -62.5 42.5l49 50q40 -35 93 -35q34 0 55 14.5t21 39.5t-19 38t-54 13h-117v50l32 163h216v-72h-162l-13 -74h50q72 0 112.5 -31t40.5 -86q0 -59 -42.5 -93.5t-116.5 -34.5q-45 0 -82.5 15.5z" />
    <glyph glyph-name="uni2076" unicode="&#x2076;" horiz-adv-x="439" 
d="M106.5 379.5q-43.5 48.5 -43.5 135.5q0 97 49.5 155.5t133.5 58.5q85 0 134 -56l-45 -50q-19 18 -39 26t-46 8q-42 0 -69.5 -25t-35.5 -70q48 20 99 20q63 0 100.5 -33t37.5 -86q0 -57 -42.5 -94.5t-111.5 -37.5q-78 0 -121.5 48.5zM285.5 417.5q20.5 15.5 20.5 43.5
q0 24 -20 39t-55 15q-53 0 -89 -16q2 -48 24 -72.5t61 -24.5q38 0 58.5 15.5z" />
    <glyph glyph-name="uni2077" unicode="&#x2077;" horiz-adv-x="422" 
d="M269 648h-204v75h300v-39l-157 -345h-86z" />
    <glyph glyph-name="uni2078" unicode="&#x2078;" horiz-adv-x="463" 
d="M115.5 361q-44.5 30 -44.5 79q0 28 17.5 53.5t48.5 44.5q-52 30 -52 86q0 46 42 75.5t105 29.5q67 0 107.5 -29t40.5 -76t-53 -85q65 -35 65 -96q0 -50 -45 -81t-115 -31q-72 0 -116.5 30zM296 587q11 15 11 30q0 22 -20.5 34.5t-54.5 12.5q-32 0 -52.5 -11.5
t-20.5 -30.5q0 -21 23 -34.5t69 -22.5l12 -2q22 9 33 24zM291 412q24 13 24 36q0 24 -22.5 35.5t-75.5 24.5l-18 5q-26 -12 -39 -27.5t-13 -33.5q0 -24 24 -38.5t60 -14.5t60 13z" />
    <glyph glyph-name="uni2079" unicode="&#x2079;" horiz-adv-x="433" 
d="M115 346q-35 15 -59 41l44 51q20 -19 40.5 -26.5t48.5 -7.5q45 0 71 25t32 72q-48 -20 -99 -20q-63 0 -100.5 33t-37.5 86q0 56 43 92.5t110 36.5q78 0 121.5 -49t43.5 -135q0 -101 -48 -157.5t-133 -56.5q-42 0 -77 15zM295 563q-3 46 -25.5 70.5t-60.5 24.5
q-35 0 -56 -15.5t-21 -41.5t18.5 -39.5t54.5 -13.5q53 0 90 15z" />
    <glyph glyph-name="fraction" unicode="&#x2044;" horiz-adv-x="158" 
d="M273 657h109l-497 -657h-109z" />
    <glyph glyph-name="onehalf" unicode="&#xbd;" horiz-adv-x="932" 
d="M614 657h109l-497 -657h-109zM164 577l-96 -23v66l115 36h63v-385h-82v306zM715 183q33 29 46.5 45t13.5 33q0 25 -18.5 38t-52.5 13q-25 0 -51.5 -11t-49.5 -32l-47 58q32 29 72.5 46.5t85.5 17.5q67 0 107 -32t40 -85q0 -33 -16.5 -60t-51.5 -55l-101 -85h170v-74h-296
v55z" />
    <glyph glyph-name="onequarter" unicode="&#xbc;" horiz-adv-x="865" 
d="M620 657h109l-497 -657h-109zM164 577l-96 -23v66l115 36h63v-385h-82v306zM679 89h-209v53l209 243h76v-227h56v-69h-56v-89h-76v89zM679 158v134l-118 -134h118z" />
    <glyph glyph-name="threequarters" unicode="&#xbe;" horiz-adv-x="940" 
d="M694 657h109l-497 -657h-109zM123.5 280q-38.5 16 -63.5 42l47 52q46 -39 98 -39q36 0 58.5 15t22.5 39q0 23 -20.5 36.5t-56.5 13.5h-63v51l104 93h-177v72h277v-54l-112 -101q61 -5 96.5 -35t35.5 -78q0 -57 -43.5 -90t-117.5 -33q-47 0 -85.5 16zM754 89h-209v53
l209 243h76v-227h56v-69h-56v-89h-76v89zM754 158v134l-118 -134h118z" />
    <glyph glyph-name="period" unicode="." horiz-adv-x="253" 
d="M79 9q-19 19 -19 48q0 30 18.5 49t47.5 19q30 0 49 -18.5t19 -49.5q0 -29 -19 -48t-49 -19q-28 0 -47 19z" />
    <glyph glyph-name="comma" unicode="," horiz-adv-x="253" 
d="M64 -3q19 63 25 117h100q-7 -60 -29 -121.5t-53 -111.5h-89q27 53 46 116z" />
    <glyph glyph-name="colon" unicode=":" horiz-adv-x="253" 
d="M78.5 413q-18.5 19 -18.5 48q0 30 18.5 48.5t47.5 18.5q30 0 49 -18.5t19 -48.5q0 -29 -19 -48t-49 -19q-29 0 -47.5 19zM79 9q-19 19 -19 48q0 30 18.5 49t47.5 19q30 0 49 -18.5t19 -49.5q0 -29 -19 -48t-49 -19q-28 0 -47 19z" />
    <glyph glyph-name="semicolon" unicode=";" horiz-adv-x="253" 
d="M81.5 413q-18.5 19 -18.5 48q0 30 18.5 48.5t47.5 18.5q30 0 49 -18.5t19 -48.5q0 -29 -19 -48t-49 -19q-29 0 -47.5 19zM62 -3q19 63 25 117h100q-7 -60 -29 -121.5t-53 -111.5h-89q27 53 46 116z" />
    <glyph glyph-name="ellipsis" unicode="&#x2026;" horiz-adv-x="721" 
d="M79 9q-19 19 -19 48q0 30 18.5 49t47.5 19q30 0 49 -18.5t19 -49.5q0 -29 -19 -48t-49 -19q-28 0 -47 19zM312 9q-19 19 -19 48q0 30 18.5 49t47.5 19q30 0 49 -18.5t19 -49.5q0 -29 -19 -48t-49 -19q-28 0 -47 19zM546 9q-19 19 -19 48q0 31 19 49.5t48 18.5
q30 0 48.5 -18.5t18.5 -49.5q0 -29 -18.5 -48t-48.5 -19q-29 0 -48 19z" />
    <glyph glyph-name="exclam" unicode="!" horiz-adv-x="275" 
d="M82 676h111l-9 -468h-93zM90 9q-19 19 -19 48q0 30 18.5 49t47.5 19q30 0 49 -18.5t19 -49.5q0 -29 -19 -48t-49 -19q-28 0 -47 19z" />
    <glyph glyph-name="exclamdown" unicode="&#xa1;" horiz-adv-x="279" 
d="M93 416.5q-19 18.5 -19 48.5q0 29 19 48t49 19q28 0 47 -19t19 -48q0 -30 -18.5 -48.5t-47.5 -18.5q-30 0 -49 18.5zM95 315h93l9 -469h-111z" />
    <glyph glyph-name="question" unicode="?" horiz-adv-x="542" 
d="M229.5 318.5q28.5 37.5 79.5 76.5q35 28 53.5 52.5t18.5 53.5q0 44 -30 66.5t-88 22.5q-49 0 -94 -19t-82 -52l-59 71q46 45 111 71t134 26q101 0 158 -47.5t57 -129.5q0 -46 -23 -81.5t-64 -67.5q-51 -41 -76 -70t-25 -66v-17h-99v21q0 52 28.5 89.5zM205 9
q-19 19 -19 48q0 30 18.5 49t47.5 19q30 0 49 -18.5t19 -49.5q0 -29 -19 -48t-49 -19q-28 0 -47 19z" />
    <glyph glyph-name="questiondown" unicode="&#xbf;" horiz-adv-x="526" 
d="M233 416.5q-19 18.5 -19 48.5q0 29 19 48t49 19q28 0 47 -19t19 -48q0 -30 -18.5 -48.5t-47.5 -18.5q-30 0 -49 18.5zM103.5 -116.5q-57.5 47.5 -57.5 129.5q0 45 23 81t64 68q49 39 75 69t26 67v17h99v-22q0 -52 -28 -88.5t-80 -77.5q-34 -27 -53 -52t-19 -53
q0 -89 118 -89q49 0 94 18.5t82 51.5l59 -70q-45 -45 -110 -71t-134 -26q-101 0 -158.5 47.5z" />
    <glyph glyph-name="periodcentered" unicode="&#xb7;" horiz-adv-x="253" 
d="M79 315q-19 19 -19 48q0 30 18.5 49t47.5 19q30 0 49 -19t19 -49q0 -29 -19 -48t-49 -19q-28 0 -47 19z" />
    <glyph glyph-name="bullet" unicode="&#x2022;" horiz-adv-x="395" 
d="M117 268.5q-33 32.5 -33 80.5t33 80.5t80 32.5q48 0 81 -32.5t33 -80.5t-33 -80.5t-81 -32.5q-47 0 -80 32.5z" />
    <glyph glyph-name="asterisk" unicode="*" horiz-adv-x="398" 
d="M166 471l-87 -65l-45 64l98 58l-98 59l45 64l87 -65l-6 108h79l-7 -108l87 65l45 -64l-99 -59l99 -58l-45 -64l-87 65l7 -107h-79z" />
    <glyph glyph-name="numbersign" unicode="#" horiz-adv-x="646" 
d="M143 163h-93l12 79h92l25 180h-93l12 79h92l18 127h89l-18 -127h138l18 127h89l-18 -127h90l-12 -79h-89l-25 -180h90l-12 -79h-90l-19 -135h-88l18 135h-137l-19 -135h-89zM380 242l26 180h-138l-25 -180h137z" />
    <glyph glyph-name="slash" unicode="/" horiz-adv-x="472" 
d="M343 735h110l-323 -875h-110z" />
    <glyph glyph-name="backslash" unicode="\" horiz-adv-x="472" 
d="M20 735h110l323 -875h-110z" />
    <glyph glyph-name="exclamdown.case" horiz-adv-x="275" 
d="M89.5 569.5q-18.5 18.5 -18.5 49.5q0 29 19 48t49 19q28 0 47 -19t19 -48q0 -30 -18.5 -49t-47.5 -19q-31 0 -49.5 18.5zM92 468h93l8 -468h-110z" />
    <glyph glyph-name="questiondown.case" horiz-adv-x="542" 
d="M241 569.5q-19 18.5 -19 49.5q0 29 19 48t49 19q28 0 47 -19t19 -48q0 -30 -18.5 -49t-47.5 -19q-30 0 -49 18.5zM111.5 36.5q-57.5 47.5 -57.5 129.5q0 46 23 81.5t64 67.5q51 41 76 70t25 66v17h99v-21q0 -52 -28.5 -89.5t-79.5 -76.5q-35 -28 -53.5 -52.5t-18.5 -53.5
q0 -44 30 -66.5t88 -22.5q49 0 94 19t82 52l59 -71q-45 -45 -110.5 -71t-133.5 -26q-101 0 -158.5 47.5z" />
    <glyph glyph-name="slash.case" horiz-adv-x="472" 
d="M343 773h110l-323 -875h-110z" />
    <glyph glyph-name="backslash.case" horiz-adv-x="472" 
d="M20 773h110l323 -875h-110z" />
    <glyph glyph-name="parenleft" unicode="(" horiz-adv-x="362" 
d="M111 59q-41 116 -41 238q0 119 41.5 236t119.5 202h109q-77 -90 -122 -207t-45 -231q0 -115 44.5 -231.5t122.5 -206.5h-109q-79 84 -120 200z" />
    <glyph glyph-name="parenright" unicode=")" horiz-adv-x="362" 
d="M144.5 66q44.5 117 44.5 231t-44.5 231t-122.5 207h109q79 -84 120 -200t41 -238q0 -120 -41.5 -236.5t-119.5 -201.5h-109q78 90 122.5 207z" />
    <glyph glyph-name="braceleft" unicode="{" horiz-adv-x="450" 
d="M174 -87.5q-53 53.5 -53 155.5v60q0 50 -19 82t-60 52v69q41 21 60 53.5t19 82.5v59q0 102 53 155.5t155 53.5h89l-15 -99h-59q-59 0 -89.5 -31t-30.5 -90v-67q0 -50 -18 -85.5t-56 -65.5q38 -29 56 -64.5t18 -85.5v-68q0 -60 30.5 -91t89.5 -31h59l15 -98h-89
q-102 0 -155 53.5z" />
    <glyph glyph-name="braceright" unicode="}" horiz-adv-x="450" 
d="M106 -42q59 0 89.5 31t30.5 90v67q0 50 18 85.5t56 65.5q-38 29 -56 64.5t-18 85.5v68q0 59 -31 90.5t-89 31.5h-59l-16 98h90q101 0 154.5 -53.5t53.5 -155.5v-60q0 -50 18.5 -82t59.5 -52v-69q-40 -21 -59 -53.5t-19 -82.5v-59q0 -101 -53.5 -155t-154.5 -54h-90l16 99
h59z" />
    <glyph glyph-name="bracketleft" unicode="[" horiz-adv-x="435" 
d="M101 735h302l-15 -99h-183v-678h183l15 -99h-302v876z" />
    <glyph glyph-name="bracketright" unicode="]" horiz-adv-x="435" 
d="M47 -42h183v678h-183l-15 99h302v-876h-302z" />
    <glyph glyph-name="parenleft.case" horiz-adv-x="362" 
d="M111 96q-41 116 -41 238q0 120 41.5 237t119.5 202h109q-78 -90 -122.5 -207.5t-44.5 -231.5t44.5 -231t122.5 -207h-109q-79 84 -120 200z" />
    <glyph glyph-name="parenright.case" horiz-adv-x="362" 
d="M144 103q45 117 45 231q0 115 -44.5 232t-122.5 207h109q79 -84 120 -200t41 -239q0 -119 -41.5 -236t-119.5 -202h-109q77 90 122 207z" />
    <glyph glyph-name="braceleft.case" horiz-adv-x="450" 
d="M174 -50.5q-53 53.5 -53 155.5v60q0 50 -19 82t-60 53v68q41 22 60 54.5t19 81.5v60q0 102 53 155.5t155 53.5h89l-15 -99h-59q-59 0 -89.5 -31t-30.5 -90v-68q0 -49 -18 -85t-56 -66q38 -29 56 -64.5t18 -85.5v-68q0 -59 30.5 -90t89.5 -31h59l15 -99h-89
q-102 0 -155 53.5z" />
    <glyph glyph-name="braceright.case" horiz-adv-x="450" 
d="M106 -5q58 0 89 31t31 90v68q0 49 18 84.5t56 65.5q-38 30 -56 65.5t-18 85.5v68q0 59 -30.5 90t-89.5 31h-59l-16 99h90q101 0 154.5 -54t53.5 -155v-60q0 -50 18.5 -82t59.5 -53v-69q-41 -21 -59.5 -53.5t-18.5 -82.5v-59q0 -101 -53.5 -155t-154.5 -54h-90l16 99h59z
" />
    <glyph glyph-name="bracketleft.case" horiz-adv-x="435" 
d="M101 773h302l-15 -100h-183v-678h183l15 -99h-302v877z" />
    <glyph glyph-name="bracketright.case" horiz-adv-x="435" 
d="M47 -4h183v678h-183l-15 99h302v-877h-302z" />
    <glyph glyph-name="hyphen" unicode="-" horiz-adv-x="449" 
d="M61 345h328v-93h-328v93z" />
    <glyph glyph-name="uni00AD" unicode="&#xad;" horiz-adv-x="449" 
d="M61 345h328v-93h-328v93z" />
    <glyph glyph-name="endash" unicode="&#x2013;" horiz-adv-x="490" 
d="M0 344h490v-91h-490v91z" />
    <glyph glyph-name="emdash" unicode="&#x2014;" horiz-adv-x="980" 
d="M0 344h980v-91h-980v91z" />
    <glyph glyph-name="underscore" unicode="_" horiz-adv-x="490" 
d="M0 -77h490v-86h-490v86z" />
    <glyph glyph-name="hyphen.case" horiz-adv-x="449" 
d="M61 389h328v-94h-328v94z" />
    <glyph glyph-name="endash.case" horiz-adv-x="490" 
d="M0 387h490v-91h-490v91z" />
    <glyph glyph-name="emdash.case" horiz-adv-x="980" 
d="M0 387h980v-91h-980v91z" />
    <glyph glyph-name="quotesinglbase" unicode="&#x201a;" horiz-adv-x="252" 
d="M63 -4q19 63 25 118h101q-6 -60 -29 -121.5t-54 -111.5h-89q27 52 46 115z" />
    <glyph glyph-name="quotedblbase" unicode="&#x201e;" horiz-adv-x="427" 
d="M63 -4q19 63 25 118h101q-6 -60 -29 -121.5t-54 -111.5h-89q27 52 46 115zM238 -4q19 63 25 118h101q-6 -60 -29 -121.5t-54 -111.5h-89q27 52 46 115z" />
    <glyph glyph-name="quotedblleft" unicode="&#x201c;" horiz-adv-x="424" 
d="M83.5 568q20.5 59 50.5 109h88q-26 -54 -43.5 -112.5t-23.5 -112.5h-99q7 57 27.5 116zM258.5 568q20.5 59 50.5 109h88q-26 -54 -43.5 -112.5t-23.5 -112.5h-99q7 57 27.5 116z" />
    <glyph glyph-name="quotedblright" unicode="&#x201d;" horiz-adv-x="424" 
d="M73.5 562q17.5 59 24.5 114h99q-7 -58 -28 -116.5t-51 -108.5h-87q25 52 42.5 111zM248.5 562q17.5 59 24.5 114h99q-7 -58 -28 -116.5t-51 -108.5h-87q25 52 42.5 111z" />
    <glyph glyph-name="quoteleft" unicode="&#x2018;" horiz-adv-x="249" 
d="M83.5 568q20.5 59 50.5 109h88q-26 -54 -43.5 -112.5t-23.5 -112.5h-99q7 57 27.5 116z" />
    <glyph glyph-name="quoteright" unicode="&#x2019;" horiz-adv-x="249" 
d="M73.5 562q17.5 59 24.5 114h99q-7 -58 -28 -116.5t-51 -108.5h-87q25 52 42.5 111z" />
    <glyph glyph-name="guillemotleft" unicode="&#xab;" horiz-adv-x="520" 
d="M47 280l134 196h105l-130 -196l130 -196h-105zM244 280l134 196h105l-130 -196l130 -196h-105z" />
    <glyph glyph-name="guillemotright" unicode="&#xbb;" horiz-adv-x="520" 
d="M170 280l-129 196h104l134 -196l-134 -196h-104zM367 280l-130 196h105l134 -196l-134 -196h-105z" />
    <glyph glyph-name="guilsinglleft" unicode="&#x2039;" horiz-adv-x="324" 
d="M47 280l134 196h105l-130 -196l130 -196h-105z" />
    <glyph glyph-name="guilsinglright" unicode="&#x203a;" horiz-adv-x="324" 
d="M170 280l-129 196h104l134 -196l-134 -196h-104z" />
    <glyph glyph-name="quotedbl" unicode="&#x22;" horiz-adv-x="433" 
d="M73 676h103l-7 -267h-90zM257 676h104l-8 -267h-89z" />
    <glyph glyph-name="quotesingle" unicode="'" horiz-adv-x="249" 
d="M73 676h103l-7 -267h-90z" />
    <glyph glyph-name="guillemotleft.case" horiz-adv-x="520" 
d="M47 344l134 196h105l-130 -196l130 -196h-105zM244 344l134 196h105l-130 -196l130 -196h-105z" />
    <glyph glyph-name="guillemotright.case" horiz-adv-x="520" 
d="M170 344l-129 196h104l134 -196l-134 -196h-104zM367 344l-130 196h105l134 -196l-134 -196h-105z" />
    <glyph glyph-name="guilsinglleft.case" horiz-adv-x="324" 
d="M47 344l134 196h105l-130 -196l130 -196h-105z" />
    <glyph glyph-name="guilsinglright.case" horiz-adv-x="324" 
d="M170 344l-129 196h104l134 -196l-134 -196h-104z" />
    <glyph glyph-name="period.dnom" horiz-adv-x="173" 
d="M39 8q-16 16 -16 40q0 25 16 41t40 16q25 0 41.5 -16t16.5 -41q0 -24 -16.5 -40t-41.5 -16q-24 0 -40 16z" />
    <glyph glyph-name="comma.dnom" horiz-adv-x="173" 
d="M42 98h88q-5 -41 -21.5 -85.5t-38.5 -79.5h-78q39 83 50 165z" />
    <glyph glyph-name="period.numr" horiz-adv-x="173" 
d="M45.5 279.5q-16.5 16.5 -16.5 40.5t16 40t40 16q26 0 42 -15.5t16 -40.5t-16.5 -41t-41.5 -16q-23 0 -39.5 16.5z" />
    <glyph glyph-name="comma.numr" horiz-adv-x="173" 
d="M52 369h88q-5 -40 -21 -84.5t-39 -80.5h-78q38 82 50 165z" />
    <glyph glyph-name="period.subs" horiz-adv-x="173" 
d="M45.5 -69q-16.5 16 -16.5 41q0 24 16 40t40 16q26 0 42 -15.5t16 -40.5t-16.5 -41t-41.5 -16q-23 0 -39.5 16z" />
    <glyph glyph-name="comma.subs" horiz-adv-x="173" 
d="M52 19h88q-5 -41 -21 -85.5t-39 -80.5h-78q38 83 50 166z" />
    <glyph glyph-name="uni00A0" unicode="&#xa0;" horiz-adv-x="255" 
 />
    <glyph glyph-name="cent" unicode="&#xa2;" 
d="M131 161.5q-55 69.5 -55 174.5q0 65 25.5 119.5t71.5 91.5t105 49v116l100 19v-133q81 -12 142 -78l-61 -61q-25 27 -54 40.5t-67 13.5q-72 0 -116.5 -49t-44.5 -128t45 -128t116 -49q73 0 127 56l60 -63q-62 -65 -147 -78v-122l-99 -19v142q-93 17 -148 86.5z" />
    <glyph glyph-name="currency" unicode="&#xa4;" 
d="M102 221q-28 51 -28 113t29 111l-77 77l68 68l76 -75q54 38 123 38q72 0 124 -37l76 74l67 -68l-76 -77q28 -48 28 -111t-29 -112l77 -78l-67 -67l-77 75q-55 -38 -123 -38q-70 0 -123 37l-76 -74l-68 67zM384 237q36 40 36 97q0 56 -35.5 96t-91.5 40t-91.5 -40
t-35.5 -96q0 -57 35.5 -97t91.5 -40q55 0 91 40z" />
    <glyph glyph-name="dollar" unicode="$" 
d="M38 101l57 68q81 -81 206 -81q62 0 95.5 23.5t33.5 67.5q0 49 -36 73t-117 43q-76 17 -122 40t-69 60.5t-23 95.5q0 66 51 115.5t133 60.5v112l100 19v-132q96 -16 171 -95l-60 -63q-34 35 -78 52.5t-88 17.5q-59 0 -93 -23t-34 -65q0 -32 16 -50.5t46 -29.5t92 -26
q112 -27 163.5 -75t51.5 -125q0 -76 -49 -126.5t-138 -60.5v-123l-99 -19v142q-124 15 -210 104z" />
    <glyph glyph-name="Euro" unicode="&#x20ac;" 
d="M195.5 50q-71.5 61 -98.5 165h-89l21 79h55q-1 11 -1 35q0 15 2 41h-77l21 79h71q29 100 102 160t167 60q123 0 204 -89l-63 -65q-30 31 -63.5 46t-74.5 15q-57 0 -101 -33.5t-67 -93.5h212l-21 -79h-209q-2 -26 -2 -41q0 -13 2 -35h190l-22 -79h-151q22 -61 66 -96
t101 -35q43 0 78 14.5t69 46.5l64 -65q-45 -46 -96.5 -68.5t-117.5 -22.5q-100 0 -171.5 61z" />
    <glyph glyph-name="florin" unicode="&#x192;" 
d="M78 91q64 0 95 30.5t48 103.5l17 69h-137v89h157l13 58q27 112 82.5 164t158.5 52h57v-91h-54q-64 0 -96 -31t-48 -103l-12 -49h143v-89h-162l-18 -78q-25 -111 -81 -163.5t-159 -52.5h-65v91h61z" />
    <glyph glyph-name="sterling" unicode="&#xa3;" 
d="M122 275h-87v88h106l16 73q23 107 84.5 164t168.5 57h128v-93h-127q-65 0 -105 -32t-55 -104l-14 -65h229v-88h-247l-39 -183h369v-92h-472v69z" />
    <glyph glyph-name="yen" unicode="&#xa5;" 
d="M243 112h-172v80h172v69h-172v80h128l-176 316h118l154 -296l154 296h113l-175 -316h128v-80h-172v-69h172v-80h-172v-112h-100v112z" />
    <glyph glyph-name="plus" unicode="+" 
d="M248 285h-171v91h171v172h90v-172h171v-91h-171v-172h-90v172z" />
    <glyph glyph-name="minus" unicode="&#x2212;" 
d="M94 377h398v-93h-398v93z" />
    <glyph glyph-name="multiply" unicode="&#xd7;" 
d="M102 203l127 128l-127 127l64 64l127 -127l127 127l64 -64l-127 -127l127 -128l-64 -64l-127 127l-127 -127z" />
    <glyph glyph-name="divide" unicode="&#xf7;" 
d="M248.5 457q-17.5 18 -17.5 44q0 28 17 45.5t44 17.5q28 0 45.5 -17.5t17.5 -45.5q0 -26 -17.5 -44t-45.5 -18q-26 0 -43.5 18zM94 377h398v-93h-398v93zM248.5 115q-17.5 18 -17.5 44q0 28 17 45.5t44 17.5q28 0 45.5 -17.5t17.5 -45.5q0 -26 -17.5 -44t-45.5 -18
q-26 0 -43.5 18z" />
    <glyph glyph-name="equal" unicode="=" 
d="M94 484h398v-94h-398v94zM94 270h398v-94h-398v94z" />
    <glyph glyph-name="notequal" unicode="&#x2260;" 
d="M125 96l41 80h-72v94h118l63 120h-181v94h228l58 114l82 -34l-41 -80h71v-94h-117l-63 -120h180v-94h-226l-59 -116z" />
    <glyph glyph-name="greater" unicode="&#x3e;" 
d="M107 184l262 147l-262 147l45 80l325 -185v-83l-325 -185z" />
    <glyph glyph-name="less" unicode="&#x3c;" 
d="M109 289v83l325 185l45 -79l-262 -147l262 -147l-45 -80z" />
    <glyph glyph-name="greaterequal" unicode="&#x2265;" 
d="M119 251l266 126l-266 128l33 81l333 -167v-82l-333 -167zM104 91h381v-91h-381v91z" />
    <glyph glyph-name="lessequal" unicode="&#x2264;" 
d="M101 337v82l333 167l33 -80l-266 -127l266 -127l-33 -82zM101 92h381v-92h-381v92z" />
    <glyph glyph-name="plusminus" unicode="&#xb1;" 
d="M248 305h-171v91h171v171h90v-171h171v-91h-171v-172h-90v172zM94 93h398v-94h-398v94z" />
    <glyph glyph-name="approxequal" unicode="&#x2248;" 
d="M342 367q-23 11 -53 32q-25 17 -42.5 25.5t-35.5 8.5q-65 0 -70 -71h-84q2 73 38.5 117t99.5 44q27 0 52 -11.5t58 -33.5q23 -16 40.5 -24.5t33.5 -8.5q29 0 46.5 18.5t19.5 54.5h84q-2 -73 -38.5 -117.5t-98.5 -44.5q-27 0 -50 11zM342 148q-23 11 -53 32
q-25 17 -42.5 25.5t-35.5 8.5q-65 0 -70 -71h-84q2 73 38.5 117t99.5 44q27 0 52 -11.5t58 -33.5q25 -16 42 -24.5t32 -8.5q29 0 46.5 18.5t19.5 54.5h84q-2 -73 -38.5 -117.5t-98.5 -44.5q-27 0 -50 11z" />
    <glyph glyph-name="asciitilde" unicode="~" 
d="M342.5 251.5q-22.5 11.5 -53.5 32.5q-24 17 -42 25t-36 8q-65 0 -70 -71h-84q2 73 38.5 117t99.5 44q27 0 52.5 -11.5t57.5 -32.5q24 -17 41 -25.5t33 -8.5q29 0 46.5 19t19.5 55h84q-2 -73 -38.5 -118t-98.5 -45q-27 0 -49.5 11.5z" />
    <glyph glyph-name="logicalnot" unicode="&#xac;" 
d="M400 337h-322v90h413v-263h-91v173z" />
    <glyph glyph-name="asciicircum" unicode="^" 
d="M245 676h98l178 -337h-106l-121 240l-123 -240h-105z" />
    <glyph glyph-name="uni00B5" unicode="&#xb5;" horiz-adv-x="601" 
d="M172 521v-283q0 -81 27 -119t91 -38q39 0 75 22.5t63 62.5v355h102v-521h-68l-24 74q-35 -40 -79 -62.5t-94 -22.5q-58 0 -93 34v-226l-101 -17v741h101z" />
    <glyph glyph-name="percent" unicode="%" horiz-adv-x="985" 
d="M103 318.5q-48 54.5 -48 144.5q0 89 48 143.5t127 54.5t127 -54t48 -144q0 -89 -48 -144t-127 -55t-127 54.5zM686 657h109l-497 -657h-109zM296 374.5q23 32.5 23 88.5q0 55 -22 88t-66 33t-67 -33t-23 -88t22 -88t67 -33q43 0 66 32.5zM628 47.5q-48 54.5 -48 144.5
q0 58 22 103t62 70t91 25q79 0 127 -54.5t48 -143.5t-48 -144t-127 -55t-127 54.5zM821.5 103.5q22.5 32.5 22.5 88.5t-22 88t-66 32t-67 -33t-23 -87q0 -55 22 -88t67 -33q44 0 66.5 32.5z" />
    <glyph glyph-name="perthousand" unicode="&#x2030;" horiz-adv-x="1388" 
d="M103 318.5q-48 54.5 -48 144.5q0 89 48 143.5t127 54.5t127 -54t48 -144q0 -89 -48 -144t-127 -55t-127 54.5zM686 657h109l-497 -657h-109zM296 374.5q23 32.5 23 88.5q0 55 -22 88t-66 33t-67 -33t-23 -88t22 -88t67 -33q43 0 66 32.5zM628 47.5q-48 54.5 -48 144.5
q0 58 22 103t62 70t91 25q79 0 127 -54.5t48 -143.5t-48 -144t-127 -55t-127 54.5zM1031 47.5q-48 54.5 -48 144.5q0 58 22 103t62 70t91 25q79 0 127 -54.5t48 -143.5t-48 -144t-127 -55t-127 54.5zM821.5 103.5q22.5 32.5 22.5 88.5t-22 88t-66 32t-67 -33t-23 -87
q0 -55 22 -88t67 -33q44 0 66.5 32.5zM1224.5 103.5q22.5 32.5 22.5 88.5t-22 88t-66 32t-67 -33t-23 -87q0 -55 22 -88t67 -33q44 0 66.5 32.5z" />
    <glyph glyph-name="at" unicode="@" horiz-adv-x="961" 
d="M255.5 -111.5q-92.5 53.5 -145 149t-52.5 215.5q0 123 62 223.5t165 157t221 56.5q119 0 211 -43.5t143.5 -121t51.5 -177.5q0 -85 -37 -151t-100 -101.5t-137 -35.5h-43l-18 47q-58 -53 -125 -53q-80 0 -127 56t-47 150q0 58 25.5 105.5t70 74t98.5 26.5q28 0 59.5 -12
t55.5 -31l10 35h74v-321q70 9 113 63.5t43 145.5q0 77 -39.5 136.5t-112 92.5t-169.5 33t-180 -45t-132 -126t-49 -183q0 -99 40.5 -175t113.5 -118.5t167 -42.5q71 0 121 17.5t92 53.5l52 -61q-106 -93 -267 -93q-116 0 -208.5 53.5zM572 190v163q-38 28 -85 28
q-51 0 -81.5 -32.5t-30.5 -91.5q0 -53 26.5 -84.5t73.5 -31.5q53 0 97 49z" />
    <glyph glyph-name="ampersand" unicode="&#x26;" horiz-adv-x="657" 
d="M158.5 13.5q-54.5 24.5 -85 69.5t-30.5 105q0 61 36.5 109t97.5 81q-28 35 -41.5 66.5t-13.5 68.5q0 50 27 89.5t75 62t108 22.5q59 0 106 -24.5t89 -71.5l-65 -65q-31 35 -61.5 51t-69.5 16q-51 0 -81 -25t-30 -65q0 -30 20 -58.5t66 -78.5q-2 2 34 -37l135 -150
q37 58 37 141v35h89v-37q0 -57 -17 -110.5t-49 -96.5l99 -111h-116l-46 49q-77 -60 -187 -60q-72 0 -126.5 24.5zM413 114l-183 200q-40 -20 -65 -49.5t-25 -68.5q0 -53 44 -85.5t112 -32.5t117 36z" />
    <glyph glyph-name="paragraph" unicode="&#xb6;" horiz-adv-x="583" 
d="M289 -66q48 0 74.5 30.5t26.5 85.5v610l103 17v-633q0 -97 -51 -151.5t-141 -54.5h-32v96h20zM119 266.5q-71 54.5 -71 150.5q0 88 53.5 145t151.5 75l65 12v-437q-128 0 -199 54.5z" />
    <glyph glyph-name="section" unicode="&#xa7;" horiz-adv-x="480" 
d="M160 -70q48 0 74 18t26 50q0 24 -14 44.5t-44 46.5l-81 69q-37 32 -55.5 65t-18.5 74q0 46 30 82t81 51q-33 44 -33 87q0 74 54 116.5t152 42.5h59v-88h-67q-49 0 -75 -19.5t-26 -51.5q0 -26 14 -45t45 -45l78 -68q73 -61 73 -138q0 -45 -30 -81t-80 -51q35 -45 35 -90
q0 -73 -53 -115t-150 -42h-68v88h74zM319 173q23 19 23 47q0 21 -11 39.5t-35 39.5l-77 67h-1q-36 -1 -58.5 -19.5t-22.5 -47.5q0 -39 47 -80l75 -66h1q36 1 59 20z" />
    <glyph glyph-name="copyright" unicode="&#xa9;" horiz-adv-x="800" 
d="M220.5 32.5q-80.5 43.5 -127.5 123t-47 182.5q0 100 47.5 180t128.5 124.5t177 44.5q97 0 178 -44t129 -124t48 -181q0 -102 -48 -181.5t-129.5 -123.5t-177.5 -44q-98 0 -178.5 43.5zM547.5 86.5q66.5 36.5 104.5 102t38 149.5t-38 149.5t-104.5 102t-148.5 36.5
t-148 -37t-103.5 -102.5t-37.5 -148.5q0 -85 37 -150.5t103 -101.5t149 -36q82 0 148.5 36.5zM268.5 199.5q-51.5 51.5 -51.5 139.5q0 54 24.5 97t68 67.5t97.5 24.5q39 0 74.5 -16t58.5 -45l-47 -52q-35 37 -82 37q-50 0 -79.5 -30.5t-29.5 -82.5q0 -53 29 -83.5t79 -30.5
q52 0 91 37l46 -54q-27 -29 -63.5 -44.5t-78.5 -15.5q-85 0 -136.5 51.5z" />
    <glyph glyph-name="registered" unicode="&#xae;" horiz-adv-x="564" 
d="M156.5 273.5q-56.5 30.5 -90 85.5t-33.5 127q0 70 33.5 126t90.5 87t124 31q68 0 125 -31t90.5 -86.5t33.5 -126.5t-34 -126.5t-91 -86t-124 -30.5q-68 0 -124.5 30.5zM383 316.5q45 24.5 70 68.5t25 101q0 56 -25 100.5t-70 69.5t-102 25t-101.5 -24.5t-69.5 -69
t-25 -101.5t25 -101t69.5 -68.5t101.5 -24.5t102 24.5zM288 610q43 0 69 -21.5t26 -56.5q0 -20 -11 -36t-30 -25q15 -11 27 -34l34 -66h-66l-20 37q-11 22 -20.5 29.5t-29.5 7.5h-23v-74h-58v239h102zM310 505q11 8 11 23q0 32 -42 32h-35v-63h35q20 0 31 8z" />
    <glyph glyph-name="trademark" unicode="&#x2122;" horiz-adv-x="874" 
d="M146 602h-116v74h308v-74h-116v-287h-76v287zM404 676h75l122 -215l127 215h75v-361h-76v228l-95 -159h-63l-91 157v-226h-74v361z" />
    <glyph glyph-name="degree" unicode="&#xb0;" horiz-adv-x="389" 
d="M121.5 412q-33.5 20 -53.5 53.5t-20 72.5t20 72.5t53.5 53.5t72.5 20q40 0 73.5 -19.5t53 -53.5t19.5 -73t-19.5 -73t-53 -53.5t-73.5 -19.5q-39 0 -72.5 20zM245 487q21 21 21 51t-21 51t-51 21t-50.5 -21t-20.5 -51t20.5 -51t50.5 -21t51 21z" />
    <glyph glyph-name="bar" unicode="|" horiz-adv-x="307" 
d="M101 735h105v-876h-105v876z" />
    <glyph glyph-name="brokenbar" unicode="&#xa6;" horiz-adv-x="307" 
d="M101 735h105v-330h-105v330zM101 190h105v-331h-105v331z" />
    <glyph glyph-name="dagger" unicode="&#x2020;" horiz-adv-x="378" 
d="M150 500h-119v72h119v104l77 15v-119h119v-72h-119v-210h-77v210z" />
    <glyph glyph-name="daggerdbl" unicode="&#x2021;" horiz-adv-x="395" 
d="M158 384h-115v69h115v72h-115v70h115v81l77 15v-96h117v-70h-117v-72h117v-69h-117v-94h-77v94z" />
    <glyph glyph-name="at.case" horiz-adv-x="961" 
d="M255.5 -48.5q-92.5 53.5 -145 149t-52.5 215.5q0 123 62 223.5t165 157t221 56.5t210.5 -43.5t144 -121.5t51.5 -178q0 -85 -37 -150.5t-100 -101t-137 -35.5h-44l-16 47q-58 -53 -126 -53q-80 0 -127 56t-47 150q0 58 25.5 105t70 74t97.5 27q29 0 60.5 -12t55.5 -31
l10 34h74v-321q71 8 115 63.5t44 147.5q0 78 -40 138t-113.5 93.5t-170.5 33.5t-180.5 -46t-133.5 -127.5t-50 -184.5q0 -99 41.5 -176.5t115 -120.5t167.5 -43q70 0 121.5 18.5t93.5 53.5l50 -58q-102 -93 -267 -93q-116 0 -208.5 53.5zM572 251v165q-40 29 -86 29
q-51 0 -82 -33t-31 -92q0 -54 27 -86t75 -32q51 0 97 49z" />
    <glyph glyph-name="uni0308" unicode="&#x308;" horiz-adv-x="0" 
d="M-434 627q-17 16 -17 41q0 26 17 42.5t43 16.5t43.5 -16.5t17.5 -42.5q0 -25 -17.5 -41t-43.5 -16t-43 16zM-241 627q-17 16 -17 41q0 26 17 42.5t43 16.5t43.5 -16.5t17.5 -42.5q0 -25 -17.5 -41t-43.5 -16t-43 16z" />
    <glyph glyph-name="uni0307" unicode="&#x307;" horiz-adv-x="0" 
d="M-339.5 627q-17.5 17 -17.5 43q0 27 17.5 44t45.5 17q27 0 45 -17t18 -44q0 -26 -18 -43t-45 -17q-28 0 -45.5 17z" />
    <glyph glyph-name="gravecomb" unicode="&#x300;" horiz-adv-x="0" 
d="M-419 740h116l134 -140h-104z" />
    <glyph glyph-name="acutecomb" unicode="&#x301;" horiz-adv-x="0" 
d="M-285 740h116l-146 -140h-104z" />
    <glyph glyph-name="uni0302" unicode="&#x302;" horiz-adv-x="0" 
d="M-344 740h101l123 -140h-96l-78 81l-79 -81h-95z" />
    <glyph glyph-name="uni030C" unicode="&#x30c;" horiz-adv-x="0" 
d="M-468 740h98l77 -81l78 81h95l-123 -140h-101z" />
    <glyph glyph-name="uni030A" unicode="&#x30a;" horiz-adv-x="0" 
d="M-381.5 624q-36.5 36 -36.5 88t36 87t88 35q51 0 88 -35.5t37 -86.5q0 -52 -37 -88t-88 -36t-87.5 36zM-250.5 667q17.5 18 17.5 45q0 26 -17.5 43.5t-43.5 17.5q-25 0 -42.5 -17.5t-17.5 -43.5q0 -27 17.5 -45t42.5 -18q26 0 43.5 18z" />
    <glyph glyph-name="tildecomb" unicode="&#x303;" horiz-adv-x="0" 
d="M-252.5 610q-16.5 6 -40.5 20q-25 15 -38 20.5t-31 5.5q-24 0 -44.5 -9.5t-46.5 -28.5v77q24 19 45.5 28.5t46.5 9.5q22 0 39.5 -6.5t40.5 -19.5q4 -2 18.5 -10t26.5 -12t24 -4q26 0 46.5 10t45.5 29v-78q-23 -18 -44.5 -28t-49.5 -10q-22 0 -38.5 6z" />
    <glyph glyph-name="uni0327" unicode="&#x327;" horiz-adv-x="0" 
d="M-355 -119q31 0 49.5 12t18.5 37q0 19 -10 36t-32 39l63 18q29 -26 44 -51t15 -53q0 -53 -39.5 -81t-105.5 -28h-29v71h26z" />
    <glyph glyph-name="dieresis" unicode="&#xa8;" horiz-adv-x="588" 
d="M154 627q-17 16 -17 41q0 26 17 42.5t43 16.5t43.5 -16.5t17.5 -42.5q0 -25 -17.5 -41t-43.5 -16t-43 16zM347 627q-17 16 -17 41q0 26 17 42.5t43 16.5t43.5 -16.5t17.5 -42.5q0 -25 -17.5 -41t-43.5 -16t-43 16z" />
    <glyph glyph-name="dotaccent" unicode="&#x2d9;" horiz-adv-x="588" 
d="M248.5 627q-17.5 17 -17.5 43q0 27 17.5 44t45.5 17q27 0 45 -17t18 -44q0 -26 -18 -43t-45 -17q-28 0 -45.5 17z" />
    <glyph glyph-name="grave" unicode="`" horiz-adv-x="588" 
d="M169 740h116l134 -140h-104z" />
    <glyph glyph-name="acute" unicode="&#xb4;" horiz-adv-x="588" 
d="M303 740h116l-146 -140h-104z" />
    <glyph glyph-name="circumflex" unicode="&#x2c6;" horiz-adv-x="588" 
d="M244 740h101l123 -140h-96l-78 81l-79 -81h-95z" />
    <glyph glyph-name="caron" unicode="&#x2c7;" horiz-adv-x="588" 
d="M120 740h98l77 -81l78 81h95l-123 -140h-101z" />
    <glyph glyph-name="ring" unicode="&#x2da;" horiz-adv-x="588" 
d="M206.5 624q-36.5 36 -36.5 88t36 87t88 35q51 0 88 -35.5t37 -86.5q0 -52 -37 -88t-88 -36t-87.5 36zM337.5 667q17.5 18 17.5 45q0 26 -17.5 43.5t-43.5 17.5q-25 0 -42.5 -17.5t-17.5 -43.5q0 -27 17.5 -45t42.5 -18q26 0 43.5 18z" />
    <glyph glyph-name="tilde" unicode="&#x2dc;" horiz-adv-x="588" 
d="M335.5 610q-16.5 6 -40.5 20q-25 15 -38 20.5t-31 5.5q-24 0 -44.5 -9.5t-46.5 -28.5v77q24 19 45.5 28.5t46.5 9.5q22 0 39.5 -6.5t40.5 -19.5q4 -2 18.5 -10t26.5 -12t24 -4q26 0 46.5 10t45.5 29v-78q-23 -18 -44.5 -28t-49.5 -10q-22 0 -38.5 6z" />
    <glyph glyph-name="cedilla" unicode="&#xb8;" horiz-adv-x="588" 
d="M233 -119q31 0 49.5 12t18.5 37q0 19 -10 36t-32 39l63 18q29 -26 44 -51t15 -53q0 -53 -39.5 -81t-105.5 -28h-29v71h26z" />
    <glyph glyph-name="uni0308.case" horiz-adv-x="0" 
d="M-435.5 761q-17.5 16 -17.5 42q0 25 17.5 41.5t44.5 16.5q26 0 43.5 -16.5t17.5 -41.5q0 -26 -17.5 -42t-43.5 -16q-27 0 -44.5 16zM-240.5 761q-17.5 16 -17.5 42q0 25 18 41.5t44 16.5t43.5 -16.5t17.5 -41.5q0 -26 -17 -42t-44 -16t-44.5 16z" />
    <glyph glyph-name="uni0307.case" horiz-adv-x="0" 
d="M-340.5 766.5q-18.5 16.5 -18.5 43.5q0 26 18.5 43.5t46.5 17.5q27 0 46 -17.5t19 -43.5q0 -27 -18.5 -43.5t-46.5 -16.5t-46.5 16.5z" />
    <glyph glyph-name="gravecomb.case" horiz-adv-x="0" 
d="M-423 877h120l138 -135h-107z" />
    <glyph glyph-name="acutecomb.case" horiz-adv-x="0" 
d="M-285 877h120l-151 -135h-107z" />
    <glyph glyph-name="uni0302.case" horiz-adv-x="0" 
d="M-345 876h104l127 -135h-101l-79 78l-79 -78h-100z" />
    <glyph glyph-name="uni030C.case" horiz-adv-x="0" 
d="M-473 876h101l79 -77l79 77h100l-128 -135h-104z" />
    <glyph glyph-name="uni030A.case" horiz-adv-x="0" 
d="M-358 754.5q-29 16.5 -46.5 45.5t-17.5 63q0 52 37.5 88t90.5 36t90.5 -36t37.5 -88q0 -53 -37.5 -89t-90.5 -36q-35 0 -64 16.5zM-250 817.5q18 18.5 18 45.5q0 26 -18 43.5t-44 17.5t-43.5 -17.5t-17.5 -43.5q0 -27 17.5 -45.5t43.5 -18.5t44 18.5z" />
    <glyph glyph-name="tildecomb.case" horiz-adv-x="0" 
d="M-253.5 753.5q-18.5 6.5 -38.5 18.5q-21 13 -35.5 19t-32.5 6q-26 0 -48 -9.5t-49 -27.5v78q47 36 97 36q23 0 41.5 -6t38.5 -18q24 -13 38.5 -19t31.5 -6q28 0 51 10t48 27v-79q-48 -36 -101 -36q-23 0 -41.5 6.5z" />
    <glyph glyph-name="uni0327.case" horiz-adv-x="0" 
d="M-360 -121q33 0 52.5 12.5t19.5 36.5q0 20 -10.5 38t-33.5 40l67 18q31 -26 47 -52t16 -56q0 -55 -42 -84t-114 -29h-29v76h27z" />
    <glyph glyph-name="gravecomb.narrow.case" horiz-adv-x="0" 
d="M-406 877h110l103 -135h-97z" />
    <glyph glyph-name="acutecomb.narrow.case" horiz-adv-x="0" 
d="M-303 877h110l-116 -135h-97z" />
    <glyph glyph-name="gravecomb.narrow" horiz-adv-x="0" 
d="M-406 740h111l101 -140h-97z" />
    <glyph glyph-name="acutecomb.narrow" horiz-adv-x="0" 
d="M-304 740h110l-115 -140h-97z" />
    <glyph glyph-name="periodsuperior" horiz-adv-x="173" 
d="M45 347q-16 16 -16 40q0 25 16 41t40 16q26 0 42 -16t16 -41t-16 -40.5t-42 -15.5q-24 0 -40 16z" />
    <glyph glyph-name="commasuperior" horiz-adv-x="173" 
d="M52 437h88q-5 -41 -21 -85.5t-39 -79.5h-78q39 83 50 165z" />
    </font>
</defs>
</svg>
