<?xml version="1.0" standalone="no"?>
<!DOCTYPE svg PUBLIC "-//W3C//DTD SVG 1.1//EN" "http://www.w3.org/Graphics/SVG/1.1/DTD/svg11.dtd" >
<svg xmlns="http://www.w3.org/2000/svg" xmlns:xlink="http://www.w3.org/1999/xlink" version="1.1">
<metadata>
Created by FontForge 20190801 at Thu Dec 19 10:01:09 2019
 By Henrique Beier
Copyright (c) 2019 Banco Bradesco S.A. All rights reserved.
</metadata>
<defs>
<font id="BradescoSans-BoldItalic" horiz-adv-x="586" >
  <font-face 
    font-family="Bradesco Sans"
    font-weight="700"
    font-style="italic"
    font-stretch="normal"
    units-per-em="1000"
    panose-1="0 0 8 0 0 0 0 0 0 0"
    ascent="800"
    descent="-200"
    x-height="525"
    cap-height="676"
    bbox="-500 -225 1362 1001"
    underline-thickness="50"
    underline-position="-100"
    slope="-12"
    unicode-range="U+0020-FB02"
  />
<missing-glyph horiz-adv-x="471" 
d="M386 -212h-298v942h298v-942zM158 667v-31h61v-35h-62v-31h157v31h-62v35h62v31h-156zM157 545v-98h157v32h-62v66h-95zM219 479h-31v34h31v-34zM157 422v-31h62v-35h-62v-31h95v66h62v31h-157zM283 365v-62h-126v-32h157v94h-31zM219 251v-53h33v21h31v-44h-95v76h-31
v-107h157v107h-95zM157 88v-107h157v107h-157zM283 12h-95v44h95v-44zM157 -41v-31h66l-66 -44v-31h157v31h-96l66 44h30v31h-157z" />
    <glyph glyph-name="fi" unicode="fi" horiz-adv-x="729" 
d="M607.5 614.5q-21.5 20.5 -21.5 52.5q0 39 26 63.5t65 24.5q37 0 58.5 -20t21.5 -53q0 -39 -26.5 -63.5t-66.5 -24.5q-35 0 -56.5 20.5zM207 690.5q64 57.5 164 57.5q101 0 165 -68l-75 -84q-32 31 -78 31q-47 0 -74.5 -23.5t-39.5 -72.5l-2 -11h198l-27 -126h-198
l-83 -394h-148l111 523q23 110 87 167.5zM572 525h147l-111 -525h-148z" />
    <glyph glyph-name="fl" unicode="fl" horiz-adv-x="785" 
d="M207 690.5q64 57.5 164 57.5q101 0 165 -68l-75 -84q-32 31 -78 31q-47 0 -74.5 -23.5t-39.5 -72.5l-2 -11h198l-27 -126h-198l-83 -394h-148l111 523q23 110 87 167.5zM542.5 32q-41.5 40 -41.5 113q0 37 8 69l108 509l152 22l-115 -543q-4 -15 -4 -31q0 -54 60 -54h21
l-27 -125h-42q-78 0 -119.5 40z" />
    <glyph glyph-name=".notdef" horiz-adv-x="471" 
d="M386 -212h-298v942h298v-942zM158 667v-31h61v-35h-62v-31h157v31h-62v35h62v31h-156zM157 545v-98h157v32h-62v66h-95zM219 479h-31v34h31v-34zM157 422v-31h62v-35h-62v-31h95v66h62v31h-157zM283 365v-62h-126v-32h157v94h-31zM219 251v-53h33v21h31v-44h-95v76h-31
v-107h157v107h-95zM157 88v-107h157v107h-157zM283 12h-95v44h95v-44zM157 -41v-31h66l-66 -44v-31h157v31h-96l66 44h30v31h-157z" />
    <glyph glyph-name="space" unicode=" " horiz-adv-x="250" 
 />
    <glyph glyph-name="A" unicode="A" horiz-adv-x="689" 
d="M352 676h160l105 -676h-155l-17 145h-249l-79 -145h-159zM431 275l-30 247l-136 -247h166z" />
    <glyph glyph-name="Aacute" unicode="&#xc1;" horiz-adv-x="689" 
d="M352 676h160l105 -676h-155l-17 145h-249l-79 -145h-159zM431 275l-30 247l-136 -247h166zM490 889h165l-183 -147h-150z" />
    <glyph glyph-name="Acircumflex" unicode="&#xc2;" horiz-adv-x="689" 
d="M352 676h160l105 -676h-155l-17 145h-249l-79 -145h-159zM431 275l-30 247l-136 -247h166zM392 889h134l102 -147h-127l-54 71l-86 -71h-135z" />
    <glyph glyph-name="Adieresis" unicode="&#xc4;" horiz-adv-x="689" 
d="M352 676h160l105 -676h-155l-17 145h-249l-79 -145h-159zM431 275l-30 247l-136 -247h166zM275.5 752.5q-20.5 18.5 -20.5 49.5q0 35 25 58.5t60 23.5q34 0 54.5 -18.5t20.5 -49.5q0 -37 -25 -59.5t-62 -22.5q-32 0 -52.5 18.5zM495.5 752.5q-20.5 18.5 -20.5 48.5
q0 36 25 59.5t61 23.5q33 0 53 -18.5t20 -49.5q0 -37 -24.5 -59.5t-60.5 -22.5q-33 0 -53.5 18.5z" />
    <glyph glyph-name="Agrave" unicode="&#xc0;" horiz-adv-x="689" 
d="M352 676h160l105 -676h-155l-17 145h-249l-79 -145h-159zM431 275l-30 247l-136 -247h166zM275 889h149l105 -147h-133z" />
    <glyph glyph-name="Aring" unicode="&#xc5;" horiz-adv-x="689" 
d="M617 0h-155l-17 145h-249l-79 -145h-159l378 648q-18 17 -28 40.5t-10 49.5q0 37 18.5 67.5t50.5 48t70 17.5q37 0 68.5 -17.5t50 -48t18.5 -67.5q0 -32 -15 -59.5t-40 -46.5zM397 777.5q-16 -15.5 -16 -39.5t16 -40t40 -16q22 0 38 16.5t16 39.5q0 24 -15.5 39.5
t-38.5 15.5q-24 0 -40 -15.5zM265 275h166l-30 247z" />
    <glyph glyph-name="Atilde" unicode="&#xc3;" horiz-adv-x="689" 
d="M352 676h160l105 -676h-155l-17 145h-249l-79 -145h-159zM431 275l-30 247l-136 -247h166zM486.5 744.5q-15.5 5.5 -29.5 13.5t-21 11q-23 11 -41 17t-38 6q-25 0 -44.5 -8.5t-53.5 -29.5l22 104q46 35 91 35q20 0 37 -6t42 -19q28 -14 47 -21t40 -7q29 0 48 9.5t51 30.5
l-22 -106q-46 -35 -95 -35q-18 0 -33.5 5.5z" />
    <glyph glyph-name="AE" unicode="&#xc6;" horiz-adv-x="1027" 
d="M542 676h520l-30 -138h-313l-27 -127h274l-29 -136h-274l-29 -135h323l-30 -140h-469l30 143h-240l-123 -143h-180zM516 273l52 245l-210 -245h158z" />
    <glyph glyph-name="B" unicode="B" horiz-adv-x="628" 
d="M406 676q90 0 143 -44t53 -114q0 -60 -31.5 -99t-87.5 -60q44 -22 69 -60.5t25 -86.5q0 -66 -35 -114t-95 -73t-135 -25h-292l144 676h242zM423 429q34 24 34 67q0 30 -21.5 46.5t-61.5 16.5h-95l-33 -154h86q57 0 91 24zM400.5 142.5q36.5 25.5 36.5 72.5
q0 31 -22.5 48.5t-62.5 17.5h-133l-35 -164h118q62 0 98.5 25.5z" />
    <glyph glyph-name="C" unicode="C" horiz-adv-x="648" 
d="M183 21.5q-61 33.5 -93.5 94t-32.5 141.5q0 114 52.5 213.5t142.5 158.5t197 59q74 0 133.5 -32.5t91.5 -82.5l-108 -86q-42 59 -120 59q-66 0 -119 -39t-83 -102.5t-30 -131.5q0 -63 35 -103t95 -40q43 0 81 17.5t77 52.5l83 -103q-117 -109 -259 -109q-82 0 -143 33.5z
" />
    <glyph glyph-name="Ccedilla" unicode="&#xc7;" horiz-adv-x="648" 
d="M585 97q-97 -91 -213 -106q18 -31 18 -61q0 -70 -56.5 -106t-144.5 -36h-44l22 102h29q35 0 60 19.5t25 49.5q0 14 -11 33q-100 16 -156.5 87t-56.5 178q0 114 52.5 213.5t142.5 158.5t197 59q74 0 133.5 -32.5t91.5 -82.5l-108 -86q-42 59 -120 59q-66 0 -119 -39
t-83 -102.5t-30 -131.5q0 -63 35 -103t95 -40q43 0 81 17.5t77 52.5z" />
    <glyph glyph-name="D" unicode="D" horiz-adv-x="716" 
d="M381 676q88 0 157.5 -37.5t108.5 -103t39 -145.5q0 -115 -52.5 -203.5t-145 -137.5t-207.5 -49h-261l144 676h217zM416.5 171.5q53.5 31.5 83.5 87t30 123.5q0 69 -42 112t-115 43h-87l-85 -397h92q70 0 123.5 31.5z" />
    <glyph glyph-name="Eth" unicode="&#xd0;" horiz-adv-x="751" 
d="M35 274l28 133h79l57 269h218q88 0 157 -37.5t108 -103t39 -145.5q0 -115 -52.5 -203.5t-145 -137.5t-207.5 -49h-260l58 274h-79zM451.5 171.5q53.5 31.5 83.5 87t30 123.5q0 69 -41.5 112t-115.5 43h-87l-27 -130h149l-28 -133h-150l-28 -134h91q70 0 123.5 31.5z" />
    <glyph glyph-name="E" unicode="E" horiz-adv-x="590" 
d="M164 676h461l-30 -138h-314l-26 -127h273l-29 -136h-274l-28 -135h322l-30 -140h-469z" />
    <glyph glyph-name="Eacute" unicode="&#xc9;" horiz-adv-x="590" 
d="M164 676h461l-30 -138h-314l-26 -127h273l-29 -136h-274l-28 -135h322l-30 -140h-469zM465 889h165l-183 -147h-150z" />
    <glyph glyph-name="Ecircumflex" unicode="&#xca;" horiz-adv-x="590" 
d="M164 676h461l-30 -138h-314l-26 -127h273l-29 -136h-274l-28 -135h322l-30 -140h-469zM368 889h134l102 -147h-127l-54 71l-86 -71h-135z" />
    <glyph glyph-name="Edieresis" unicode="&#xcb;" horiz-adv-x="590" 
d="M164 676h461l-30 -138h-314l-26 -127h273l-29 -136h-274l-28 -135h322l-30 -140h-469zM251.5 752.5q-20.5 18.5 -20.5 49.5q0 35 25 58.5t60 23.5q34 0 54.5 -18.5t20.5 -49.5q0 -37 -25 -59.5t-62 -22.5q-32 0 -52.5 18.5zM471.5 752.5q-20.5 18.5 -20.5 48.5
q0 36 25 59.5t61 23.5q33 0 53 -18.5t20 -49.5q0 -37 -24.5 -59.5t-60.5 -22.5q-33 0 -53.5 18.5z" />
    <glyph glyph-name="Egrave" unicode="&#xc8;" horiz-adv-x="590" 
d="M164 676h461l-30 -138h-314l-26 -127h273l-29 -136h-274l-28 -135h322l-30 -140h-469zM251 889h149l105 -147h-133z" />
    <glyph glyph-name="F" unicode="F" horiz-adv-x="575" 
d="M164 676h456l-30 -142h-307l-31 -146h267l-30 -142h-267l-53 -246h-149z" />
    <glyph glyph-name="G" unicode="G" horiz-adv-x="686" 
d="M184 21q-61 33 -94 94t-33 141q0 115 52.5 214.5t143 158.5t200.5 59q76 0 135 -32.5t93 -82.5l-106 -86q-45 59 -126 59q-69 0 -124 -39t-85 -103t-30 -135q0 -63 36.5 -101.5t96.5 -38.5q78 0 133 33l19 89h-128l27 121h259l-63 -293q-55 -45 -124.5 -68t-138.5 -23
q-82 0 -143 33z" />
    <glyph glyph-name="H" unicode="H" horiz-adv-x="718" 
d="M164 676h152l-54 -256h262l54 256h153l-144 -676h-153l58 271h-262l-57 -271h-153z" />
    <glyph glyph-name="I" unicode="I" horiz-adv-x="304" 
d="M164 676h152l-143 -676h-153z" />
    <glyph glyph-name="Iacute" unicode="&#xcd;" horiz-adv-x="304" 
d="M164 676h152l-143 -676h-153zM310 889h155l-149 -147h-143z" />
    <glyph glyph-name="Icircumflex" unicode="&#xce;" horiz-adv-x="304" 
d="M164 676h152l-143 -676h-153zM210 889h134l102 -147h-127l-54 71l-86 -71h-135z" />
    <glyph glyph-name="Idieresis" unicode="&#xcf;" horiz-adv-x="304" 
d="M164 676h152l-143 -676h-153zM93.5 752.5q-20.5 18.5 -20.5 49.5q0 35 25 58.5t60 23.5q34 0 54.5 -18.5t20.5 -49.5q0 -37 -25 -59.5t-62 -22.5q-32 0 -52.5 18.5zM313.5 752.5q-20.5 18.5 -20.5 48.5q0 36 25 59.5t61 23.5q33 0 53 -18.5t20 -49.5q0 -37 -24.5 -59.5
t-60.5 -22.5q-33 0 -53.5 18.5z" />
    <glyph glyph-name="Igrave" unicode="&#xcc;" horiz-adv-x="304" 
d="M164 676h152l-143 -676h-153zM104 889h141l74 -147h-128z" />
    <glyph glyph-name="J" unicode="J" horiz-adv-x="454" 
d="M64 148q77 0 118 36.5t58 117.5l79 374h153l-84 -397q-30 -144 -109 -211.5t-218 -67.5h-79l31 148h51z" />
    <glyph glyph-name="K" unicode="K" horiz-adv-x="699" 
d="M314 676l-55 -258h49q37 0 62 8.5t52 34.5t64 79l97 136h170l-152 -211q-59 -83 -120 -129l147 -336h-166l-115 275q-16 -3 -34 -3h-85l-57 -272h-151l144 676h150z" />
    <glyph glyph-name="L" unicode="L" horiz-adv-x="570" 
d="M164 676h152l-112 -527h304l-31 -149h-457z" />
    <glyph glyph-name="M" unicode="M" horiz-adv-x="864" 
d="M164 676h130l129 -407l307 407h147l-144 -676h-150l88 403l-210 -281h-121l-91 282l-84 -404h-145z" />
    <glyph glyph-name="N" unicode="N" horiz-adv-x="718" 
d="M164 676h118l211 -419l87 419h151l-144 -676h-117l-212 419l-87 -419h-151z" />
    <glyph glyph-name="Ntilde" unicode="&#xd1;" horiz-adv-x="718" 
d="M164 676h118l211 -419l87 419h151l-144 -676h-117l-212 419l-87 -419h-151zM491.5 744.5q-15.5 5.5 -29.5 13.5t-21 11q-23 11 -41 17t-38 6q-25 0 -44.5 -8.5t-53.5 -29.5l22 104q46 35 91 35q20 0 37 -6t42 -19q28 -14 47 -21t40 -7q29 0 48 9.5t51 30.5l-22 -106
q-46 -35 -95 -35q-18 0 -33.5 5.5z" />
    <glyph glyph-name="O" unicode="O" horiz-adv-x="752" 
d="M190.5 23q-62.5 35 -97 98.5t-34.5 146.5q0 110 52 207t141.5 155t195.5 58q82 0 145 -35.5t97.5 -99t34.5 -146.5q0 -110 -52 -206.5t-141.5 -154.5t-196.5 -58q-82 0 -144.5 35zM462 168.5q51 38.5 79 101t28 130.5q0 66 -35.5 106t-96.5 40q-64 0 -115 -39t-79 -101.5
t-28 -130.5q0 -65 35 -105t97 -40q64 0 115 38.5z" />
    <glyph glyph-name="Oacute" unicode="&#xd3;" horiz-adv-x="752" 
d="M190.5 23q-62.5 35 -97 98.5t-34.5 146.5q0 110 52 207t141.5 155t195.5 58q82 0 145 -35.5t97.5 -99t34.5 -146.5q0 -110 -52 -206.5t-141.5 -154.5t-196.5 -58q-82 0 -144.5 35zM462 168.5q51 38.5 79 101t28 130.5q0 66 -35.5 106t-96.5 40q-64 0 -115 -39t-79 -101.5
t-28 -130.5q0 -65 35 -105t97 -40q64 0 115 38.5zM518 889h165l-183 -147h-150z" />
    <glyph glyph-name="Ocircumflex" unicode="&#xd4;" horiz-adv-x="752" 
d="M190.5 23q-62.5 35 -97 98.5t-34.5 146.5q0 110 52 207t141.5 155t195.5 58q82 0 145 -35.5t97.5 -99t34.5 -146.5q0 -110 -52 -206.5t-141.5 -154.5t-196.5 -58q-82 0 -144.5 35zM462 168.5q51 38.5 79 101t28 130.5q0 66 -35.5 106t-96.5 40q-64 0 -115 -39t-79 -101.5
t-28 -130.5q0 -65 35 -105t97 -40q64 0 115 38.5zM420 889h134l102 -147h-127l-54 71l-86 -71h-135z" />
    <glyph glyph-name="Odieresis" unicode="&#xd6;" horiz-adv-x="752" 
d="M190.5 23q-62.5 35 -97 98.5t-34.5 146.5q0 110 52 207t141.5 155t195.5 58q82 0 145 -35.5t97.5 -99t34.5 -146.5q0 -110 -52 -206.5t-141.5 -154.5t-196.5 -58q-82 0 -144.5 35zM462 168.5q51 38.5 79 101t28 130.5q0 66 -35.5 106t-96.5 40q-64 0 -115 -39t-79 -101.5
t-28 -130.5q0 -65 35 -105t97 -40q64 0 115 38.5zM303.5 752.5q-20.5 18.5 -20.5 49.5q0 35 25 58.5t60 23.5q34 0 54.5 -18.5t20.5 -49.5q0 -37 -25 -59.5t-62 -22.5q-32 0 -52.5 18.5zM523.5 752.5q-20.5 18.5 -20.5 48.5q0 36 25 59.5t61 23.5q33 0 53 -18.5t20 -49.5
q0 -37 -24.5 -59.5t-60.5 -22.5q-33 0 -53.5 18.5z" />
    <glyph glyph-name="Ograve" unicode="&#xd2;" horiz-adv-x="752" 
d="M190.5 23q-62.5 35 -97 98.5t-34.5 146.5q0 110 52 207t141.5 155t195.5 58q82 0 145 -35.5t97.5 -99t34.5 -146.5q0 -110 -52 -206.5t-141.5 -154.5t-196.5 -58q-82 0 -144.5 35zM462 168.5q51 38.5 79 101t28 130.5q0 66 -35.5 106t-96.5 40q-64 0 -115 -39t-79 -101.5
t-28 -130.5q0 -65 35 -105t97 -40q64 0 115 38.5zM303 889h149l105 -147h-133z" />
    <glyph glyph-name="Oslash" unicode="&#xd8;" horiz-adv-x="751" 
d="M58 267q0 112 52 209t142 154.5t197 57.5q77 0 136 -34l66 77h152l-129 -152q51 -71 51 -170q0 -111 -52 -208t-142.5 -155t-198.5 -58q-74 0 -133 32l-63 -76h-152l126 149q-52 74 -52 174zM436 546q-65 0 -116 -39t-79 -102.5t-28 -133.5q0 -19 8 -45l265 309
q-22 11 -50 11zM462 169q51 39 79 102.5t28 132.5q0 23 -6 41l-262 -304q19 -11 45 -11q65 0 116 39z" />
    <glyph glyph-name="Otilde" unicode="&#xd5;" horiz-adv-x="752" 
d="M190.5 23q-62.5 35 -97 98.5t-34.5 146.5q0 110 52 207t141.5 155t195.5 58q82 0 145 -35.5t97.5 -99t34.5 -146.5q0 -110 -52 -206.5t-141.5 -154.5t-196.5 -58q-82 0 -144.5 35zM462 168.5q51 38.5 79 101t28 130.5q0 66 -35.5 106t-96.5 40q-64 0 -115 -39t-79 -101.5
t-28 -130.5q0 -65 35 -105t97 -40q64 0 115 38.5zM514.5 744.5q-15.5 5.5 -29.5 13.5t-21 11q-23 11 -41 17t-38 6q-25 0 -44.5 -8.5t-53.5 -29.5l22 104q46 35 91 35q20 0 37 -6t42 -19q28 -14 47 -21t40 -7q29 0 48 9.5t51 30.5l-22 -106q-46 -35 -95 -35q-18 0 -33.5 5.5
z" />
    <glyph glyph-name="OE" unicode="&#x152;" horiz-adv-x="1059" 
d="M180 22.5q-58 34.5 -90 97t-32 142.5q0 111 52.5 209.5t141 157.5t190.5 59q57 0 101.5 -21t75.5 -60l14 69h461l-30 -138h-313l-27 -127h274l-29 -136h-274l-29 -135h323l-30 -140h-469l13 61q-88 -73 -191 -73q-74 0 -132 34.5zM458.5 169.5q51.5 39.5 80.5 103
t29 131.5q0 65 -34.5 103.5t-95.5 38.5q-64 0 -115.5 -39.5t-80.5 -103t-29 -132.5q0 -64 34 -102.5t95 -38.5q65 0 116.5 39.5z" />
    <glyph glyph-name="P" unicode="P" horiz-adv-x="635" 
d="M410 676q66 0 117.5 -25t80 -69.5t28.5 -100.5q0 -78 -37 -137.5t-103.5 -92t-151.5 -32.5h-127l-46 -219h-151l144 676h246zM442 382q41 33 41 87q0 36 -25 57.5t-71 21.5h-100l-41 -199h86q69 0 110 33z" />
    <glyph glyph-name="Thorn" unicode="&#xde;" horiz-adv-x="630" 
d="M317 676l-18 -82h86q66 0 117.5 -25.5t80.5 -69.5t29 -100q0 -78 -37 -137.5t-103.5 -92.5t-151.5 -33h-118l-29 -136h-153l144 676h153zM417.5 300q40.5 33 40.5 87q0 36 -25 57.5t-70 21.5h-90l-43 -199h78q69 0 109.5 33z" />
    <glyph glyph-name="Q" unicode="Q" horiz-adv-x="752" 
d="M331 -12q-81 0 -143 34t-96 96.5t-34 144.5q0 111 53 209t143.5 157t197.5 59q81 0 143 -34.5t96.5 -97t34.5 -143.5q0 -92 -35.5 -176t-99.5 -144l65 -105l-115 -69l-62 100q-70 -31 -148 -31zM404 136l-61 97l116 69l55 -87q28 37 43 86t15 103q0 65 -34.5 104
t-97.5 39q-66 0 -118 -39.5t-80.5 -103t-28.5 -132.5q0 -68 34 -107t97 -39q33 0 60 10z" />
    <glyph glyph-name="R" unicode="R" horiz-adv-x="644" 
d="M401 676q68 0 120 -24.5t80.5 -67t28.5 -96.5q0 -77 -44 -129t-116 -74q41 -32 61 -103l50 -182h-162l-29 122q-10 44 -21 66.5t-32.5 33.5t-60.5 11h-59l-49 -233h-148l144 676h237zM439.5 390.5q39.5 30.5 39.5 84.5q0 36 -25 57t-71 21h-98l-41 -193h87
q69 0 108.5 30.5z" />
    <glyph glyph-name="S" unicode="S" horiz-adv-x="653" 
d="M134 19.5q-72 31.5 -123 84.5l93 104q40 -38 95.5 -60t113.5 -22q47 0 76 16.5t29 48.5t-28 50t-96 39q-97 31 -141.5 76t-43.5 121q0 62 36 110t100.5 74.5t146.5 26.5q70 0 136 -31.5t109 -87.5l-102 -87q-29 35 -73.5 53.5t-88.5 18.5q-51 0 -80.5 -18t-29.5 -50
q0 -29 24 -45.5t82 -35.5q109 -32 158.5 -78t49.5 -121q0 -106 -78.5 -162t-203.5 -56q-89 0 -161 31.5z" />
    <glyph glyph-name="Scaron" unicode="&#x160;" horiz-adv-x="653" 
d="M134 19.5q-72 31.5 -123 84.5l93 104q40 -38 95.5 -60t113.5 -22q47 0 76 16.5t29 48.5t-28 50t-96 39q-97 31 -141.5 76t-43.5 121q0 62 36 110t100.5 74.5t146.5 26.5q70 0 136 -31.5t109 -87.5l-102 -87q-29 35 -73.5 53.5t-88.5 18.5q-51 0 -80.5 -18t-29.5 -50
q0 -29 24 -45.5t82 -35.5q109 -32 158.5 -78t49.5 -121q0 -106 -78.5 -162t-203.5 -56q-89 0 -161 31.5zM221 889h128l54 -72l85 72h135l-165 -147h-134z" />
    <glyph glyph-name="uni1E9E" unicode="&#x1e9e;" horiz-adv-x="707" 
d="M217 64l75 90q45 -40 103 -40q55 0 87 24t32 66q0 37 -27.5 57t-81.5 20h-70l16 89l169 169q-14 10 -36 15.5t-47 5.5q-74 0 -130 -55.5t-76 -147.5l-76 -357h-143l79 375q20 96 70 166.5t122 108.5t159 38q81 0 145 -30t109 -81l-192 -197l14 -3q62 -13 100 -59t38 -107
q0 -65 -33 -116t-92 -79t-132 -28q-109 0 -182 76z" />
    <glyph glyph-name="T" unicode="T" horiz-adv-x="617" 
d="M289 528h-197l32 148h545l-31 -148h-197l-111 -528h-153z" />
    <glyph glyph-name="U" unicode="U" horiz-adv-x="721" 
d="M197.5 17q-58.5 29 -92 84.5t-33.5 132.5q0 46 10 92l75 350h152l-78 -363q-7 -40 -7 -66q0 -58 30 -87.5t81 -29.5q68 0 112 46t66 149l75 351h153l-77 -362q-34 -159 -120 -242.5t-215 -83.5q-73 0 -131.5 29z" />
    <glyph glyph-name="Uacute" unicode="&#xda;" horiz-adv-x="721" 
d="M197.5 17q-58.5 29 -92 84.5t-33.5 132.5q0 46 10 92l75 350h152l-78 -363q-7 -40 -7 -66q0 -58 30 -87.5t81 -29.5q68 0 112 46t66 149l75 351h153l-77 -362q-34 -159 -120 -242.5t-215 -83.5q-73 0 -131.5 29zM507 889h165l-183 -147h-150z" />
    <glyph glyph-name="Ucircumflex" unicode="&#xdb;" horiz-adv-x="721" 
d="M197.5 17q-58.5 29 -92 84.5t-33.5 132.5q0 46 10 92l75 350h152l-78 -363q-7 -40 -7 -66q0 -58 30 -87.5t81 -29.5q68 0 112 46t66 149l75 351h153l-77 -362q-34 -159 -120 -242.5t-215 -83.5q-73 0 -131.5 29zM409 889h134l102 -147h-127l-54 71l-86 -71h-135z" />
    <glyph glyph-name="Udieresis" unicode="&#xdc;" horiz-adv-x="721" 
d="M197.5 17q-58.5 29 -92 84.5t-33.5 132.5q0 46 10 92l75 350h152l-78 -363q-7 -40 -7 -66q0 -58 30 -87.5t81 -29.5q68 0 112 46t66 149l75 351h153l-77 -362q-34 -159 -120 -242.5t-215 -83.5q-73 0 -131.5 29zM292.5 752.5q-20.5 18.5 -20.5 49.5q0 35 25 58.5t60 23.5
q34 0 54.5 -18.5t20.5 -49.5q0 -37 -25 -59.5t-62 -22.5q-32 0 -52.5 18.5zM512.5 752.5q-20.5 18.5 -20.5 48.5q0 36 25 59.5t61 23.5q33 0 53 -18.5t20 -49.5q0 -37 -24.5 -59.5t-60.5 -22.5q-33 0 -53.5 18.5z" />
    <glyph glyph-name="Ugrave" unicode="&#xd9;" horiz-adv-x="721" 
d="M197.5 17q-58.5 29 -92 84.5t-33.5 132.5q0 46 10 92l75 350h152l-78 -363q-7 -40 -7 -66q0 -58 30 -87.5t81 -29.5q68 0 112 46t66 149l75 351h153l-77 -362q-34 -159 -120 -242.5t-215 -83.5q-73 0 -131.5 29zM293 889h149l105 -147h-133z" />
    <glyph glyph-name="V" unicode="V" horiz-adv-x="703" 
d="M103 676h168l63 -491l266 491h177l-397 -676h-168z" />
    <glyph glyph-name="W" unicode="W" horiz-adv-x="995" 
d="M114 676h161l4 -478l218 432h162l26 -432l206 478h168l-330 -676h-163l-35 429l-217 -429h-161z" />
    <glyph glyph-name="Wacute" unicode="&#x1e82;" horiz-adv-x="995" 
d="M114 676h161l4 -478l218 432h162l26 -432l206 478h168l-330 -676h-163l-35 429l-217 -429h-161zM648 889h165l-183 -147h-150z" />
    <glyph glyph-name="Wcircumflex" unicode="&#x174;" horiz-adv-x="995" 
d="M114 676h161l4 -478l218 432h162l26 -432l206 478h168l-330 -676h-163l-35 429l-217 -429h-161zM550 889h134l102 -147h-127l-54 71l-86 -71h-135z" />
    <glyph glyph-name="Wdieresis" unicode="&#x1e84;" horiz-adv-x="995" 
d="M114 676h161l4 -478l218 432h162l26 -432l206 478h168l-330 -676h-163l-35 429l-217 -429h-161zM433.5 752.5q-20.5 18.5 -20.5 49.5q0 35 25 58.5t60 23.5q34 0 54.5 -18.5t20.5 -49.5q0 -37 -25 -59.5t-62 -22.5q-32 0 -52.5 18.5zM653.5 752.5q-20.5 18.5 -20.5 48.5
q0 36 25 59.5t61 23.5q33 0 53 -18.5t20 -49.5q0 -37 -24.5 -59.5t-60.5 -22.5q-33 0 -53.5 18.5z" />
    <glyph glyph-name="Wgrave" unicode="&#x1e80;" horiz-adv-x="995" 
d="M114 676h161l4 -478l218 432h162l26 -432l206 478h168l-330 -676h-163l-35 429l-217 -429h-161zM434 889h149l105 -147h-133z" />
    <glyph glyph-name="X" unicode="X" horiz-adv-x="701" 
d="M281 358l-158 318h176l97 -211l175 211h188l-297 -331l168 -345h-175l-107 238l-201 -238h-188z" />
    <glyph glyph-name="Y" unicode="Y" horiz-adv-x="656" 
d="M249 252l-147 424h166l82 -278l204 278h177l-330 -429l-53 -247h-153z" />
    <glyph glyph-name="Yacute" unicode="&#xdd;" horiz-adv-x="656" 
d="M249 252l-147 424h166l82 -278l204 278h177l-330 -429l-53 -247h-153zM463 889h165l-183 -147h-150z" />
    <glyph glyph-name="Ycircumflex" unicode="&#x176;" horiz-adv-x="656" 
d="M249 252l-147 424h166l82 -278l204 278h177l-330 -429l-53 -247h-153zM366 889h134l102 -147h-127l-54 71l-86 -71h-135z" />
    <glyph glyph-name="Ydieresis" unicode="&#x178;" horiz-adv-x="656" 
d="M249 252l-147 424h166l82 -278l204 278h177l-330 -429l-53 -247h-153zM249.5 752.5q-20.5 18.5 -20.5 49.5q0 35 25 58.5t60 23.5q34 0 54.5 -18.5t20.5 -49.5q0 -37 -25 -59.5t-62 -22.5q-32 0 -52.5 18.5zM469.5 752.5q-20.5 18.5 -20.5 48.5q0 36 25 59.5t61 23.5
q33 0 53 -18.5t20 -49.5q0 -37 -24.5 -59.5t-60.5 -22.5q-33 0 -53.5 18.5z" />
    <glyph glyph-name="Ygrave" unicode="&#x1ef2;" horiz-adv-x="656" 
d="M249 252l-147 424h166l82 -278l204 278h177l-330 -429l-53 -247h-153zM249 889h149l105 -147h-133z" />
    <glyph glyph-name="Z" unicode="Z" horiz-adv-x="626" 
d="M17 122l411 412h-311l31 142h507l-24 -121l-410 -412h331l-31 -143h-528z" />
    <glyph glyph-name="Zcaron" unicode="&#x17d;" horiz-adv-x="626" 
d="M17 122l411 412h-311l31 142h507l-24 -121l-410 -412h331l-31 -143h-528zM231 889h128l54 -72l85 72h135l-165 -147h-134z" />
    <glyph glyph-name="a" unicode="a" horiz-adv-x="552" 
d="M51.5 24.5q-40.5 36.5 -40.5 95.5q0 91 69 138.5t180 47.5h110l1 7q5 25 5 37q0 33 -20.5 51t-58.5 18q-80 0 -144 -52l-63 89q109 81 221 81q95 0 146.5 -48t51.5 -130q0 -27 -9 -71l-60 -288h-103l-6 57q-41 -32 -85 -50.5t-85 -18.5q-69 0 -109.5 36.5zM339 158l11 52
h-109q-47 0 -74.5 -17t-27.5 -47q0 -22 14.5 -35t39.5 -13q77 0 146 60z" />
    <glyph glyph-name="aacute" unicode="&#xe1;" horiz-adv-x="552" 
d="M51.5 24.5q-40.5 36.5 -40.5 95.5q0 91 69 138.5t180 47.5h110l1 7q5 25 5 37q0 33 -20.5 51t-58.5 18q-80 0 -144 -52l-63 89q109 81 221 81q95 0 146.5 -48t51.5 -130q0 -27 -9 -71l-60 -288h-103l-6 57q-41 -32 -85 -50.5t-85 -18.5q-69 0 -109.5 36.5zM339 158l11 52
h-109q-47 0 -74.5 -17t-27.5 -47q0 -22 14.5 -35t39.5 -13q77 0 146 60zM374 749h156l-174 -148h-140z" />
    <glyph glyph-name="acircumflex" unicode="&#xe2;" horiz-adv-x="552" 
d="M51.5 24.5q-40.5 36.5 -40.5 95.5q0 91 69 138.5t180 47.5h110l1 7q5 25 5 37q0 33 -20.5 51t-58.5 18q-80 0 -144 -52l-63 89q109 81 221 81q95 0 146.5 -48t51.5 -130q0 -27 -9 -71l-60 -288h-103l-6 57q-41 -32 -85 -50.5t-85 -18.5q-69 0 -109.5 36.5zM339 158l11 52
h-109q-47 0 -74.5 -17t-27.5 -47q0 -22 14.5 -35t39.5 -13q77 0 146 60zM282 749h129l96 -148h-117l-56 73l-82 -73h-129z" />
    <glyph glyph-name="adieresis" unicode="&#xe4;" horiz-adv-x="552" 
d="M51.5 24.5q-40.5 36.5 -40.5 95.5q0 91 69 138.5t180 47.5h110l1 7q5 25 5 37q0 33 -20.5 51t-58.5 18q-80 0 -144 -52l-63 89q109 81 221 81q95 0 146.5 -48t51.5 -130q0 -27 -9 -71l-60 -288h-103l-6 57q-41 -32 -85 -50.5t-85 -18.5q-69 0 -109.5 36.5zM339 158l11 52
h-109q-47 0 -74.5 -17t-27.5 -47q0 -22 14.5 -35t39.5 -13q77 0 146 60zM166 616q-20 19 -20 49q0 35 24.5 57.5t58.5 22.5q33 0 53.5 -18.5t20.5 -47.5q0 -37 -24.5 -59.5t-59.5 -22.5q-33 0 -53 19zM381.5 615.5q-20.5 18.5 -20.5 47.5q0 36 24.5 59t60.5 23
q32 0 52.5 -18.5t20.5 -47.5q0 -37 -24.5 -59.5t-59.5 -22.5q-33 0 -53.5 18.5z" />
    <glyph glyph-name="agrave" unicode="&#xe0;" horiz-adv-x="552" 
d="M51.5 24.5q-40.5 36.5 -40.5 95.5q0 91 69 138.5t180 47.5h110l1 7q5 25 5 37q0 33 -20.5 51t-58.5 18q-80 0 -144 -52l-63 89q109 81 221 81q95 0 146.5 -48t51.5 -130q0 -27 -9 -71l-60 -288h-103l-6 57q-41 -32 -85 -50.5t-85 -18.5q-69 0 -109.5 36.5zM339 158l11 52
h-109q-47 0 -74.5 -17t-27.5 -47q0 -22 14.5 -35t39.5 -13q77 0 146 60zM172 749h146l98 -148h-132z" />
    <glyph glyph-name="aring" unicode="&#xe5;" horiz-adv-x="552" 
d="M51.5 24.5q-40.5 36.5 -40.5 95.5q0 91 69 138.5t180 47.5h110l1 7q5 25 5 37q0 33 -20.5 51t-58.5 18q-80 0 -144 -52l-63 89q109 81 221 81q95 0 146.5 -48t51.5 -130q0 -27 -9 -71l-60 -288h-103l-6 57q-41 -32 -85 -50.5t-85 -18.5q-69 0 -109.5 36.5zM339 158l11 52
h-109q-47 0 -74.5 -17t-27.5 -47q0 -22 14.5 -35t39.5 -13q77 0 146 60zM245 629q-38 37 -38 91t38 91t92 37t92.5 -37t38.5 -91t-38.5 -91t-92.5 -37t-92 37zM374 681q15 16 15 39t-15 38.5t-37 15.5t-37 -15.5t-15 -38.5t15 -39t37 -16t37 16z" />
    <glyph glyph-name="atilde" unicode="&#xe3;" horiz-adv-x="552" 
d="M51.5 24.5q-40.5 36.5 -40.5 95.5q0 91 69 138.5t180 47.5h110l1 7q5 25 5 37q0 33 -20.5 51t-58.5 18q-80 0 -144 -52l-63 89q109 81 221 81q95 0 146.5 -48t51.5 -130q0 -27 -9 -71l-60 -288h-103l-6 57q-41 -32 -85 -50.5t-85 -18.5q-69 0 -109.5 36.5zM339 158l11 52
h-109q-47 0 -74.5 -17t-27.5 -47q0 -22 14.5 -35t39.5 -13q77 0 146 60zM372.5 602q-15.5 6 -29 13t-18.5 10q-23 12 -41.5 18t-37.5 6q-25 0 -44 -8.5t-53 -29.5l22 104q45 36 89 36q20 0 38.5 -7t41.5 -20q48 -26 83 -26q27 0 46.5 9.5t50.5 29.5l-22 -106
q-45 -35 -92 -35q-18 0 -33.5 6z" />
    <glyph glyph-name="ae" unicode="&#xe6;" horiz-adv-x="898" 
d="M52.5 24q-41.5 36 -41.5 96q0 92 69 141t180 49h110l1 4q5 20 5 34q0 33 -20.5 51t-58.5 18q-82 0 -144 -50l-63 89q109 81 221 81q61 0 100 -22.5t58 -62.5q42 40 92 62.5t101 22.5q93 0 147 -56.5t54 -149.5q0 -36 -8 -76l-7 -33h-359v-4q0 -49 27.5 -79.5t76.5 -30.5
q76 0 138 55l74 -87q-99 -88 -225 -88q-66 0 -113 25t-73 71q-48 -44 -107 -70t-119 -26q-74 0 -115.5 36zM733 339q0 39 -21.5 61.5t-59.5 22.5q-50 0 -86.5 -28.5t-56.5 -75.5h222q2 18 2 20zM366 174q-2 22 -2 35v5h-123q-46 0 -74 -18.5t-28 -49.5q0 -23 15.5 -36.5
t43.5 -13.5q81 0 168 78z" />
    <glyph glyph-name="b" unicode="b" horiz-adv-x="633" 
d="M213.5 8.5q-39.5 17.5 -66.5 45.5l-29 -54h-109l154 723l152 22l-56 -264q35 27 74 41.5t76 14.5q56 0 98 -27.5t64.5 -77t22.5 -111.5q0 -91 -39 -166.5t-107.5 -119.5t-153.5 -44q-41 0 -80.5 17.5zM364.5 144q39.5 26 61 70t21.5 96q0 43 -23 68.5t-61 25.5
q-35 0 -70 -17t-64 -46l-41 -192q18 -14 40.5 -22.5t44.5 -8.5q52 0 91.5 26z" />
    <glyph glyph-name="c" unicode="c" horiz-adv-x="528" 
d="M97 46q-59 58 -59 157q0 92 41.5 168.5t113 121t158.5 44.5q59 0 106.5 -26t73.5 -68l-91 -80q-32 44 -90 44q-48 0 -85.5 -27t-58.5 -70.5t-21 -91.5q0 -43 24.5 -71.5t65.5 -28.5q36 0 64 12.5t57 37.5l72 -96q-43 -40 -98 -62t-112 -22q-102 0 -161 58z" />
    <glyph glyph-name="ccedilla" unicode="&#xe7;" horiz-adv-x="528" 
d="M468 72q-35 -32 -77.5 -52.5t-87.5 -27.5q16 -29 16 -58q0 -65 -49.5 -100.5t-131.5 -35.5h-40l21 95h24q32 0 54.5 19.5t22.5 49.5q0 14 -8 30q-82 13 -128 69t-46 142q0 92 41.5 168.5t113 121t158.5 44.5q59 0 106.5 -26t73.5 -68l-91 -80q-32 44 -90 44
q-48 0 -85.5 -27t-58.5 -70.5t-21 -91.5q0 -43 24.5 -71.5t65.5 -28.5q36 0 64 12.5t57 37.5z" />
    <glyph glyph-name="d" unicode="d" horiz-adv-x="631" 
d="M87 45q-50 56 -50 149q0 92 39 170.5t108 125.5t153 47q35 0 68.5 -13t61.5 -34l50 233l152 22l-158 -745h-106l-8 63q-41 -36 -86.5 -55t-88.5 -19q-85 0 -135 56zM338.5 139q34.5 17 64.5 46l41 194q-38 30 -86 30q-52 0 -91.5 -26t-60.5 -70t-21 -96q0 -43 23 -69
t61 -26q35 0 69.5 17z" />
    <glyph glyph-name="eth" unicode="&#xf0;" horiz-adv-x="611" 
d="M145 15.5q-51 27.5 -79.5 76.5t-28.5 112q0 79 37 145.5t100.5 105.5t141.5 39q36 0 69 -10.5t60 -29.5q-9 60 -40 118l-161 -39l18 84l96 24q-28 35 -70 69l143 30q34 -29 61 -67l140 35l-18 -86l-80 -19q50 -103 50 -203q0 -63 -15 -132q-28 -128 -108.5 -204
t-197.5 -76q-67 0 -118 27.5zM377.5 165q43.5 49 60.5 130q4 19 8 53q-20 18 -47 28t-53 10q-49 0 -87.5 -24t-59.5 -65t-21 -89q0 -40 25 -66t66 -26q65 0 108.5 49z" />
    <glyph glyph-name="e" unicode="e" horiz-adv-x="581" 
d="M142.5 16q-50.5 28 -77 78t-26.5 115q0 88 40.5 163.5t110.5 120t155 44.5q93 0 147 -56.5t54 -149.5q0 -41 -8 -76l-7 -32h-359v-5q0 -49 27.5 -79t76.5 -30q77 0 138 54l73 -87q-99 -88 -225 -88q-69 0 -119.5 28zM416 341q0 38 -21.5 60t-60.5 22q-49 0 -85 -28
t-56 -74h220q3 12 3 20z" />
    <glyph glyph-name="eacute" unicode="&#xe9;" horiz-adv-x="581" 
d="M142.5 16q-50.5 28 -77 78t-26.5 115q0 88 40.5 163.5t110.5 120t155 44.5q93 0 147 -56.5t54 -149.5q0 -41 -8 -76l-7 -32h-359v-5q0 -49 27.5 -79t76.5 -30q77 0 138 54l73 -87q-99 -88 -225 -88q-69 0 -119.5 28zM416 341q0 38 -21.5 60t-60.5 22q-49 0 -85 -28
t-56 -74h220q3 12 3 20zM404 749h156l-174 -148h-140z" />
    <glyph glyph-name="ecircumflex" unicode="&#xea;" horiz-adv-x="581" 
d="M142.5 16q-50.5 28 -77 78t-26.5 115q0 88 40.5 163.5t110.5 120t155 44.5q93 0 147 -56.5t54 -149.5q0 -41 -8 -76l-7 -32h-359v-5q0 -49 27.5 -79t76.5 -30q77 0 138 54l73 -87q-99 -88 -225 -88q-69 0 -119.5 28zM416 341q0 38 -21.5 60t-60.5 22q-49 0 -85 -28
t-56 -74h220q3 12 3 20zM312 749h129l96 -148h-117l-56 73l-82 -73h-129z" />
    <glyph glyph-name="edieresis" unicode="&#xeb;" horiz-adv-x="581" 
d="M142.5 16q-50.5 28 -77 78t-26.5 115q0 88 40.5 163.5t110.5 120t155 44.5q93 0 147 -56.5t54 -149.5q0 -41 -8 -76l-7 -32h-359v-5q0 -49 27.5 -79t76.5 -30q77 0 138 54l73 -87q-99 -88 -225 -88q-69 0 -119.5 28zM416 341q0 38 -21.5 60t-60.5 22q-49 0 -85 -28
t-56 -74h220q3 12 3 20zM196 616q-20 19 -20 49q0 35 24.5 57.5t58.5 22.5q33 0 53.5 -18.5t20.5 -47.5q0 -37 -24.5 -59.5t-59.5 -22.5q-33 0 -53 19zM411.5 615.5q-20.5 18.5 -20.5 47.5q0 36 24.5 59t60.5 23q32 0 52.5 -18.5t20.5 -47.5q0 -37 -24.5 -59.5t-59.5 -22.5
q-33 0 -53.5 18.5z" />
    <glyph glyph-name="egrave" unicode="&#xe8;" horiz-adv-x="581" 
d="M142.5 16q-50.5 28 -77 78t-26.5 115q0 88 40.5 163.5t110.5 120t155 44.5q93 0 147 -56.5t54 -149.5q0 -41 -8 -76l-7 -32h-359v-5q0 -49 27.5 -79t76.5 -30q77 0 138 54l73 -87q-99 -88 -225 -88q-69 0 -119.5 28zM416 341q0 38 -21.5 60t-60.5 22q-49 0 -85 -28
t-56 -74h220q3 12 3 20zM202 749h146l98 -148h-132z" />
    <glyph glyph-name="f" unicode="f" horiz-adv-x="445" 
d="M207 690.5q64 57.5 164 57.5q99 0 164 -69l-77 -85q-35 33 -78 33q-91 0 -111 -97l-1 -5h198l-27 -125h-197l-85 -400h-148l111 523q23 110 87 167.5z" />
    <glyph glyph-name="g" unicode="g" horiz-adv-x="626" 
d="M62 -197q-63 28 -95 72l86 87q27 -28 65 -45t80 -17q64 0 109.5 38.5t60.5 108.5l5 27q-35 -26 -73.5 -39.5t-76.5 -13.5q-84 0 -134 52.5t-50 141.5q0 86 38 160t105.5 118t151.5 44q41 0 81 -17t67 -43l26 48h109l-104 -488q-25 -121 -107.5 -191.5t-206.5 -70.5
q-74 0 -137 28zM401 202l38 183q-19 13 -41.5 20.5t-45.5 7.5q-52 0 -89.5 -24t-57.5 -65t-20 -91q0 -41 23 -66t61 -25q69 0 132 60z" />
    <glyph glyph-name="h" unicode="h" horiz-adv-x="618" 
d="M315 745l-56 -264q73 56 153 56q75 0 119.5 -47t44.5 -126q0 -36 -8 -73l-62 -291h-148l60 282q8 32 8 56q0 31 -16.5 48.5t-47.5 17.5q-35 0 -71.5 -20t-63.5 -54l-70 -330h-148l154 723z" />
    <glyph glyph-name="i" unicode="i" horiz-adv-x="278" 
d="M121 525h148l-112 -525h-147zM156.5 614.5q-21.5 20.5 -21.5 52.5q0 39 26 63.5t65 24.5q37 0 58.5 -20t21.5 -53q0 -39 -26.5 -63.5t-66.5 -24.5q-35 0 -56.5 20.5z" />
    <glyph glyph-name="dotlessi" unicode="&#x131;" horiz-adv-x="278" 
d="M121 525h148l-112 -525h-147z" />
    <glyph glyph-name="iacute" unicode="&#xed;" horiz-adv-x="278" 
d="M121 525h148l-112 -525h-147zM262 749h156l-151 -148h-142z" />
    <glyph glyph-name="icircumflex" unicode="&#xee;" horiz-adv-x="278" 
d="M121 525h148l-112 -525h-147zM169 749h129l96 -148h-117l-56 73l-82 -73h-129z" />
    <glyph glyph-name="idieresis" unicode="&#xef;" horiz-adv-x="278" 
d="M121 525h148l-112 -525h-147zM53 616q-20 19 -20 49q0 35 24.5 57.5t58.5 22.5q33 0 53.5 -18.5t20.5 -47.5q0 -37 -24.5 -59.5t-59.5 -22.5q-33 0 -53 19zM268.5 615.5q-20.5 18.5 -20.5 47.5q0 36 24.5 59t60.5 23q32 0 52.5 -18.5t20.5 -47.5q0 -37 -24.5 -59.5
t-59.5 -22.5q-33 0 -53.5 18.5z" />
    <glyph glyph-name="igrave" unicode="&#xec;" horiz-adv-x="278" 
d="M121 525h148l-112 -525h-147zM60 749h141l74 -148h-126z" />
    <glyph glyph-name="j" unicode="j" horiz-adv-x="278" 
d="M-90 -84q81 0 102 95l109 514h148l-111 -521q-23 -106 -79 -157t-153 -51h-59l25 120h18zM156.5 614.5q-21.5 20.5 -21.5 52.5q0 39 26 63.5t65 24.5q37 0 58.5 -20t21.5 -53q0 -39 -26.5 -63.5t-66.5 -24.5q-35 0 -56.5 20.5z" />
    <glyph glyph-name="uni0237" unicode="&#x237;" horiz-adv-x="278" 
d="M-90 -84q81 0 102 95l109 514h148l-111 -521q-23 -106 -79 -157t-153 -51h-59l25 120h18z" />
    <glyph glyph-name="k" unicode="k" horiz-adv-x="619" 
d="M312 745l-89 -417h25q27 0 47.5 7.5t45 30t59.5 68.5l70 91h166l-125 -160q-45 -59 -91 -96l121 -269h-161l-86 204q-17 -3 -33 -3h-64l-44 -201h-144l154 723z" />
    <glyph glyph-name="l" unicode="l" horiz-adv-x="325" 
d="M82.5 32q-41.5 40 -41.5 113q0 37 8 69l108 509l152 22l-116 -543q-3 -16 -3 -31q0 -28 14.5 -41t45.5 -13h21l-27 -125h-42q-78 0 -119.5 40z" />
    <glyph glyph-name="m" unicode="m" horiz-adv-x="913" 
d="M226 525l7 -61q79 73 163 73q50 0 86 -21t53 -60q86 81 182 81q73 0 114.5 -43t41.5 -119q0 -33 -8 -76l-64 -299h-146l63 294q8 34 8 53q0 27 -15 42t-44 15q-30 0 -61.5 -17t-57.5 -46q-1 -19 -6 -42l-63 -299h-146l62 294q8 34 8 54q0 26 -15 41t-44 15
q-31 0 -63 -21.5t-57 -57.5l-69 -325h-146l112 525h105z" />
    <glyph glyph-name="n" unicode="n" horiz-adv-x="618" 
d="M226 525l7 -63q86 75 179 75q75 0 119.5 -47t44.5 -126q0 -36 -8 -73l-62 -291h-148l60 282q8 32 8 56q0 31 -16.5 48.5t-47.5 17.5q-35 0 -71 -20t-64 -54l-70 -330h-148l112 525h105z" />
    <glyph glyph-name="ntilde" unicode="&#xf1;" horiz-adv-x="618" 
d="M226 525l7 -63q86 75 179 75q75 0 119.5 -47t44.5 -126q0 -36 -8 -73l-62 -291h-148l60 282q8 32 8 56q0 31 -16.5 48.5t-47.5 17.5q-35 0 -71 -20t-64 -54l-70 -330h-148l112 525h105zM430.5 602q-15.5 6 -29 13t-18.5 10q-23 12 -41.5 18t-37.5 6q-25 0 -44 -8.5
t-53 -29.5l22 104q45 36 89 36q20 0 38.5 -7t41.5 -20q48 -26 83 -26q27 0 46.5 9.5t50.5 29.5l-22 -106q-45 -35 -92 -35q-18 0 -33.5 6z" />
    <glyph glyph-name="o" unicode="o" horiz-adv-x="622" 
d="M148 15.5q-52 27.5 -80.5 78t-28.5 117.5q0 88 42 163t114.5 119t157.5 44q68 0 120.5 -27.5t81 -78t28.5 -117.5q0 -88 -41.5 -162.5t-114 -119t-159.5 -44.5q-68 0 -120 27.5zM362 144.5q36 26.5 55.5 69t19.5 89.5t-25.5 75.5t-69.5 28.5q-45 0 -81 -26.5t-56 -69
t-20 -88.5q0 -48 25.5 -76.5t69.5 -28.5q46 0 82 26.5z" />
    <glyph glyph-name="oacute" unicode="&#xf3;" horiz-adv-x="622" 
d="M148 15.5q-52 27.5 -80.5 78t-28.5 117.5q0 88 42 163t114.5 119t157.5 44q68 0 120.5 -27.5t81 -78t28.5 -117.5q0 -88 -41.5 -162.5t-114 -119t-159.5 -44.5q-68 0 -120 27.5zM362 144.5q36 26.5 55.5 69t19.5 89.5t-25.5 75.5t-69.5 28.5q-45 0 -81 -26.5t-56 -69
t-20 -88.5q0 -48 25.5 -76.5t69.5 -28.5q46 0 82 26.5zM426 749h156l-174 -148h-140z" />
    <glyph glyph-name="ocircumflex" unicode="&#xf4;" horiz-adv-x="622" 
d="M148 15.5q-52 27.5 -80.5 78t-28.5 117.5q0 88 42 163t114.5 119t157.5 44q68 0 120.5 -27.5t81 -78t28.5 -117.5q0 -88 -41.5 -162.5t-114 -119t-159.5 -44.5q-68 0 -120 27.5zM362 144.5q36 26.5 55.5 69t19.5 89.5t-25.5 75.5t-69.5 28.5q-45 0 -81 -26.5t-56 -69
t-20 -88.5q0 -48 25.5 -76.5t69.5 -28.5q46 0 82 26.5zM334 749h129l96 -148h-117l-56 73l-82 -73h-129z" />
    <glyph glyph-name="odieresis" unicode="&#xf6;" horiz-adv-x="622" 
d="M148 15.5q-52 27.5 -80.5 78t-28.5 117.5q0 88 42 163t114.5 119t157.5 44q68 0 120.5 -27.5t81 -78t28.5 -117.5q0 -88 -41.5 -162.5t-114 -119t-159.5 -44.5q-68 0 -120 27.5zM362 144.5q36 26.5 55.5 69t19.5 89.5t-25.5 75.5t-69.5 28.5q-45 0 -81 -26.5t-56 -69
t-20 -88.5q0 -48 25.5 -76.5t69.5 -28.5q46 0 82 26.5zM218 616q-20 19 -20 49q0 35 24.5 57.5t58.5 22.5q33 0 53.5 -18.5t20.5 -47.5q0 -37 -24.5 -59.5t-59.5 -22.5q-33 0 -53 19zM433.5 615.5q-20.5 18.5 -20.5 47.5q0 36 24.5 59t60.5 23q32 0 52.5 -18.5t20.5 -47.5
q0 -37 -24.5 -59.5t-59.5 -22.5q-33 0 -53.5 18.5z" />
    <glyph glyph-name="ograve" unicode="&#xf2;" horiz-adv-x="622" 
d="M148 15.5q-52 27.5 -80.5 78t-28.5 117.5q0 88 42 163t114.5 119t157.5 44q68 0 120.5 -27.5t81 -78t28.5 -117.5q0 -88 -41.5 -162.5t-114 -119t-159.5 -44.5q-68 0 -120 27.5zM362 144.5q36 26.5 55.5 69t19.5 89.5t-25.5 75.5t-69.5 28.5q-45 0 -81 -26.5t-56 -69
t-20 -88.5q0 -48 25.5 -76.5t69.5 -28.5q46 0 82 26.5zM223 749h146l98 -148h-132z" />
    <glyph glyph-name="oslash" unicode="&#xf8;" horiz-adv-x="622" 
d="M39 209q0 89 42 164.5t114.5 119.5t158.5 44q65 0 117 -27l59 64h118l-108 -121q43 -59 43 -137q0 -89 -41.5 -164.5t-114 -119.5t-160.5 -44q-66 0 -119 28l-59 -65h-119l111 123q-42 56 -42 135zM342 407q-46 0 -82.5 -27t-56 -70.5t-19.5 -89.5q0 -13 5 -25l185 206
q-14 6 -32 6zM363 145.5q36 27.5 55.5 70.5t19.5 90q0 15 -6 28l-187 -209q18 -7 35 -7q47 0 83 27.5z" />
    <glyph glyph-name="otilde" unicode="&#xf5;" horiz-adv-x="622" 
d="M148 15.5q-52 27.5 -80.5 78t-28.5 117.5q0 88 42 163t114.5 119t157.5 44q68 0 120.5 -27.5t81 -78t28.5 -117.5q0 -88 -41.5 -162.5t-114 -119t-159.5 -44.5q-68 0 -120 27.5zM362 144.5q36 26.5 55.5 69t19.5 89.5t-25.5 75.5t-69.5 28.5q-45 0 -81 -26.5t-56 -69
t-20 -88.5q0 -48 25.5 -76.5t69.5 -28.5q46 0 82 26.5zM424.5 602q-15.5 6 -29 13t-18.5 10q-23 12 -41.5 18t-37.5 6q-25 0 -44 -8.5t-53 -29.5l22 104q45 36 89 36q20 0 38.5 -7t41.5 -20q48 -26 83 -26q27 0 46.5 9.5t50.5 29.5l-22 -106q-45 -35 -92 -35q-18 0 -33.5 6z
" />
    <glyph glyph-name="oe" unicode="&#x153;" horiz-adv-x="980" 
d="M148 15.5q-52 27.5 -80.5 78t-28.5 117.5q0 88 42 163t114.5 119t157.5 44q65 0 112 -26.5t72 -74.5q39 48 92 74.5t115 26.5q94 0 147.5 -56.5t53.5 -149.5q0 -34 -8 -76l-6 -32h-360v-5q0 -49 27.5 -79.5t76.5 -30.5q76 0 138 55l74 -87q-99 -88 -225 -88
q-69 0 -114.5 27t-67.5 76q-41 -48 -95 -75.5t-117 -27.5q-68 0 -120 27.5zM815 341q0 37 -21.5 59.5t-59.5 22.5q-49 0 -85.5 -28t-56.5 -74h221q2 16 2 20zM362 144.5q36 26.5 55.5 69t19.5 89.5t-25.5 75.5t-69.5 28.5q-45 0 -81 -26.5t-56 -69t-20 -88.5
q0 -48 25.5 -76.5t69.5 -28.5q46 0 82 26.5z" />
    <glyph glyph-name="p" unicode="p" horiz-adv-x="632" 
d="M226 525l7 -61q41 35 87 54t89 19q85 0 135 -57.5t50 -152.5q0 -91 -39 -168t-107.5 -122.5t-153.5 -45.5q-35 0 -69 12.5t-61 34.5l-50 -238l-152 -21l159 746h105zM365 144q40 26 61.5 70t21.5 96q0 43 -22.5 68.5t-60.5 25.5q-37 0 -73 -18t-65 -49l-40 -189
q38 -30 86 -30q52 0 92 26z" />
    <glyph glyph-name="thorn" unicode="&#xfe;" horiz-adv-x="632" 
d="M315 745l-56 -262q36 26 74.5 40t75.5 14q85 0 135 -57.5t50 -152.5q0 -91 -39 -168t-107.5 -122.5t-153.5 -45.5q-35 0 -69 12.5t-61 34.5l-50 -238l-152 -21l201 944zM365 144q40 26 61.5 70t21.5 96q0 43 -22.5 68.5t-60.5 25.5q-36 0 -71.5 -18t-65.5 -48l-40 -190
q18 -14 40.5 -22t44.5 -8q52 0 92 26z" />
    <glyph glyph-name="q" unicode="q" horiz-adv-x="631" 
d="M297 3q-39 -14 -75 -14q-85 0 -135 56t-50 149q0 92 39 170.5t108 125.5t153 47q41 0 81 -17.5t68 -45.5l26 51h109l-154 -725l-151 -21l56 264q-36 -26 -75 -40zM338 138.5q34 16.5 63 44.5l41 196q-17 14 -39 22t-45 8q-52 0 -91.5 -26t-60.5 -70t-21 -96q0 -43 23 -69
t61 -26q35 0 69 16.5z" />
    <glyph glyph-name="r" unicode="r" horiz-adv-x="433" 
d="M226 525l8 -66q44 38 93 56.5t107 18.5h22l-26 -125h-14q-55 0 -105 -22.5t-85 -62.5l-69 -324h-148l112 525h105z" />
    <glyph glyph-name="s" unicode="s" horiz-adv-x="511" 
d="M94.5 16q-61.5 28 -102.5 71l81 88q31 -31 76 -50t93 -19q34 0 53.5 11.5t19.5 34.5q0 15 -11 25t-27 16t-57 20q-75 23 -111.5 57.5t-36.5 90.5q0 52 28 92t80 62t121 22q59 0 112 -25.5t88 -68.5l-85 -73q-22 26 -55.5 39t-68.5 13q-41 0 -64 -11.5t-23 -32.5
q0 -18 17.5 -28t60.5 -24l28 -9q73 -24 107.5 -60t34.5 -90q0 -86 -62.5 -132.5t-162.5 -46.5q-72 0 -133.5 28z" />
    <glyph glyph-name="scaron" unicode="&#x161;" horiz-adv-x="511" 
d="M94.5 16q-61.5 28 -102.5 71l81 88q31 -31 76 -50t93 -19q34 0 53.5 11.5t19.5 34.5q0 15 -11 25t-27 16t-57 20q-75 23 -111.5 57.5t-36.5 90.5q0 52 28 92t80 62t121 22q59 0 112 -25.5t88 -68.5l-85 -73q-22 26 -55.5 39t-68.5 13q-41 0 -64 -11.5t-23 -32.5
q0 -18 17.5 -28t60.5 -24l28 -9q73 -24 107.5 -60t34.5 -90q0 -86 -62.5 -132.5t-162.5 -46.5q-72 0 -133.5 28zM151 749h118l55 -74l83 74h128l-159 -148h-129z" />
    <glyph glyph-name="germandbls" unicode="&#xdf;" horiz-adv-x="672" 
d="M299 4q-45 16 -80 45l63 96q43 -35 98 -35q46 0 74 17t28 51q0 25 -14.5 40t-48.5 36l-20 12q-37 21 -56 39.5t-19 49.5q0 32 15.5 58.5t45.5 55.5l18 18q26 26 36.5 40.5t10.5 35.5q0 25 -17 38.5t-47 13.5q-101 0 -130 -137l-101 -478h-146l101 474q28 131 102 201
t186 70q63 0 108.5 -19.5t69 -52t23.5 -72.5q0 -35 -15 -60.5t-45 -52.5q-40 -35 -55.5 -52.5t-15.5 -38.5q0 -19 9.5 -29.5t36.5 -29.5l30 -20q79 -53 79 -135q0 -55 -27.5 -99.5t-76.5 -70t-110 -25.5q-65 0 -110 16z" />
    <glyph glyph-name="t" unicode="t" horiz-adv-x="445" 
d="M95 32q-46 44 -46 121q0 31 7 63l92 436l152 22l-32 -149h191l-27 -125h-191l-41 -195q-4 -24 -4 -32q0 -54 53 -54q26 0 45.5 7.5t41.5 22.5l56 -101q-37 -30 -80 -45t-86 -15q-85 0 -131 44z" />
    <glyph glyph-name="u" unicode="u" horiz-adv-x="618" 
d="M89 35.5q-44 47.5 -44 126.5q0 35 8 72l62 291h148l-60 -281q-8 -32 -8 -56q0 -31 16 -49t46 -18q35 0 70.5 20t63.5 54l70 330h147l-111 -525h-106l-7 63q-84 -75 -176 -75q-75 0 -119 47.5z" />
    <glyph glyph-name="uacute" unicode="&#xfa;" horiz-adv-x="618" 
d="M89 35.5q-44 47.5 -44 126.5q0 35 8 72l62 291h148l-60 -281q-8 -32 -8 -56q0 -31 16 -49t46 -18q35 0 70.5 20t63.5 54l70 330h147l-111 -525h-106l-7 63q-84 -75 -176 -75q-75 0 -119 47.5zM425 749h156l-174 -148h-140z" />
    <glyph glyph-name="ucircumflex" unicode="&#xfb;" horiz-adv-x="618" 
d="M89 35.5q-44 47.5 -44 126.5q0 35 8 72l62 291h148l-60 -281q-8 -32 -8 -56q0 -31 16 -49t46 -18q35 0 70.5 20t63.5 54l70 330h147l-111 -525h-106l-7 63q-84 -75 -176 -75q-75 0 -119 47.5zM334 749h129l96 -148h-117l-56 73l-82 -73h-129z" />
    <glyph glyph-name="udieresis" unicode="&#xfc;" horiz-adv-x="618" 
d="M89 35.5q-44 47.5 -44 126.5q0 35 8 72l62 291h148l-60 -281q-8 -32 -8 -56q0 -31 16 -49t46 -18q35 0 70.5 20t63.5 54l70 330h147l-111 -525h-106l-7 63q-84 -75 -176 -75q-75 0 -119 47.5zM218 616q-20 19 -20 49q0 35 24.5 57.5t58.5 22.5q33 0 53.5 -18.5
t20.5 -47.5q0 -37 -24.5 -59.5t-59.5 -22.5q-33 0 -53 19zM433.5 615.5q-20.5 18.5 -20.5 47.5q0 36 24.5 59t60.5 23q32 0 52.5 -18.5t20.5 -47.5q0 -37 -24.5 -59.5t-59.5 -22.5q-33 0 -53.5 18.5z" />
    <glyph glyph-name="ugrave" unicode="&#xf9;" horiz-adv-x="618" 
d="M89 35.5q-44 47.5 -44 126.5q0 35 8 72l62 291h148l-60 -281q-8 -32 -8 -56q0 -31 16 -49t46 -18q35 0 70.5 20t63.5 54l70 330h147l-111 -525h-106l-7 63q-84 -75 -176 -75q-75 0 -119 47.5zM223 749h146l98 -148h-132z" />
    <glyph glyph-name="v" unicode="v" horiz-adv-x="605" 
d="M70 525h155l53 -371l206 371h167l-322 -525h-162z" />
    <glyph glyph-name="w" unicode="w" horiz-adv-x="836" 
d="M75 525h150l1 -353l167 318h147l26 -319l155 354h155l-265 -525h-153l-27 323l-167 -323h-149z" />
    <glyph glyph-name="wacute" unicode="&#x1e83;" horiz-adv-x="836" 
d="M75 525h150l1 -353l167 318h147l26 -319l155 354h155l-265 -525h-153l-27 323l-167 -323h-149zM530 749h156l-174 -148h-140z" />
    <glyph glyph-name="wcircumflex" unicode="&#x175;" horiz-adv-x="836" 
d="M75 525h150l1 -353l167 318h147l26 -319l155 354h155l-265 -525h-153l-27 323l-167 -323h-149zM439 749h129l96 -148h-117l-56 73l-82 -73h-129z" />
    <glyph glyph-name="wdieresis" unicode="&#x1e85;" horiz-adv-x="836" 
d="M75 525h150l1 -353l167 318h147l26 -319l155 354h155l-265 -525h-153l-27 323l-167 -323h-149zM323 616q-20 19 -20 49q0 35 24.5 57.5t58.5 22.5q33 0 53.5 -18.5t20.5 -47.5q0 -37 -24.5 -59.5t-59.5 -22.5q-33 0 -53 19zM538.5 615.5q-20.5 18.5 -20.5 47.5
q0 36 24.5 59t60.5 23q32 0 52.5 -18.5t20.5 -47.5q0 -37 -24.5 -59.5t-59.5 -22.5q-33 0 -53.5 18.5z" />
    <glyph glyph-name="wgrave" unicode="&#x1e81;" horiz-adv-x="836" 
d="M75 525h150l1 -353l167 318h147l26 -319l155 354h155l-265 -525h-153l-27 323l-167 -323h-149zM328 749h146l98 -148h-132z" />
    <glyph glyph-name="x" unicode="x" horiz-adv-x="599" 
d="M216 279l-131 246h163l75 -154l136 154h169l-241 -258l140 -267h-163l-83 175l-155 -175h-170z" />
    <glyph glyph-name="y" unicode="y" horiz-adv-x="595" 
d="M25 -76q47 0 82.5 20t68.5 66l13 19l-123 496h158l66 -336l187 336h164l-327 -537q-61 -100 -129 -146t-162 -46h-53l27 128h28z" />
    <glyph glyph-name="yacute" unicode="&#xfd;" horiz-adv-x="595" 
d="M25 -76q47 0 82.5 20t68.5 66l13 19l-123 496h158l66 -336l187 336h164l-327 -537q-61 -100 -129 -146t-162 -46h-53l27 128h28zM420 749h156l-174 -148h-140z" />
    <glyph glyph-name="ycircumflex" unicode="&#x177;" horiz-adv-x="595" 
d="M25 -76q47 0 82.5 20t68.5 66l13 19l-123 496h158l66 -336l187 336h164l-327 -537q-61 -100 -129 -146t-162 -46h-53l27 128h28zM328 749h129l96 -148h-117l-56 73l-82 -73h-129z" />
    <glyph glyph-name="ydieresis" unicode="&#xff;" horiz-adv-x="595" 
d="M25 -76q47 0 82.5 20t68.5 66l13 19l-123 496h158l66 -336l187 336h164l-327 -537q-61 -100 -129 -146t-162 -46h-53l27 128h28zM212 616q-20 19 -20 49q0 35 24.5 57.5t58.5 22.5q33 0 53.5 -18.5t20.5 -47.5q0 -37 -24.5 -59.5t-59.5 -22.5q-33 0 -53 19zM427.5 615.5
q-20.5 18.5 -20.5 47.5q0 36 24.5 59t60.5 23q32 0 52.5 -18.5t20.5 -47.5q0 -37 -24.5 -59.5t-59.5 -22.5q-33 0 -53.5 18.5z" />
    <glyph glyph-name="ygrave" unicode="&#x1ef3;" horiz-adv-x="595" 
d="M25 -76q47 0 82.5 20t68.5 66l13 19l-123 496h158l66 -336l187 336h164l-327 -537q-61 -100 -129 -146t-162 -46h-53l27 128h28zM217 749h146l98 -148h-132z" />
    <glyph glyph-name="z" unicode="z" horiz-adv-x="548" 
d="M16 95l321 308h-247l26 122h432l-18 -95l-316 -308h256l-26 -122h-446z" />
    <glyph glyph-name="zcaron" unicode="&#x17e;" horiz-adv-x="548" 
d="M16 95l321 308h-247l26 122h432l-18 -95l-316 -308h256l-26 -122h-446zM186 749h118l55 -74l83 74h128l-159 -148h-129z" />
    <glyph glyph-name="ordfeminine" unicode="&#xaa;" horiz-adv-x="430" 
d="M84 294.5q-32 28.5 -32 77.5q0 65 50.5 101t134.5 36h89l1 5q2 18 2 25q0 46 -49 46q-30 0 -60.5 -11t-55.5 -31l-54 82q83 62 173 62q78 0 119 -37t41 -103q0 -26 -6 -55l-46 -218h-89l-5 41q-29 -23 -61.5 -36t-63.5 -13q-56 0 -88 28.5zM302 399l7 33h-78
q-30 0 -50 -11t-20 -34q0 -14 9.5 -22t26.5 -8q60 0 105 42z" />
    <glyph glyph-name="ordmasculine" unicode="&#xba;" horiz-adv-x="480" 
d="M121.5 312q-48.5 46 -48.5 124q0 68 32.5 125.5t88.5 91.5t124 34q81 0 130 -46.5t49 -123.5q0 -68 -32.5 -125.5t-89 -91.5t-124.5 -34q-81 0 -129.5 46zM338.5 418q30.5 38 30.5 89q0 29 -15.5 47t-43.5 18q-49 0 -79 -38t-30 -88q0 -29 15.5 -47.5t42.5 -18.5
q49 0 79.5 38z" />
    <glyph glyph-name="uni03BC" unicode="&#x3bc;" horiz-adv-x="622" 
d="M268 525l-61 -286q-6 -30 -6 -52q0 -35 15 -50.5t48 -15.5q34 0 68 19.5t63 52.5l70 332h148l-112 -525h-105l-8 64q-82 -76 -179 -76q-32 0 -52 16l-43 -204l-152 -21l159 746h147z" />
    <glyph glyph-name="zero" unicode="0" horiz-adv-x="631" 
d="M159.5 18.5q-50.5 30.5 -78 86t-27.5 129.5q0 111 40 211t114.5 161.5t172.5 61.5q67 0 117.5 -31t78.5 -87.5t28 -129.5q0 -111 -40 -210t-115 -160.5t-173 -61.5q-67 0 -117.5 30.5zM379.5 177.5q38.5 44.5 58 111.5t19.5 130q0 50 -22 77.5t-63 27.5
q-53 0 -91.5 -44.5t-58.5 -110.5t-20 -129q0 -51 22.5 -79t64.5 -28q52 0 90.5 44.5z" />
    <glyph glyph-name="one" unicode="1" horiz-adv-x="417" 
d="M240 513l-160 -41l25 123l197 62h116l-140 -657h-148z" />
    <glyph glyph-name="two" unicode="2" horiz-adv-x="582" 
d="M283 315l31 25q55 45 77.5 70.5t22.5 57.5q0 27 -19.5 42t-56.5 15q-79 0 -166 -79l-75 113q128 109 268 109q96 0 150 -49.5t54 -130.5q0 -64 -38 -117.5t-108 -106.5l-163 -128h235l-29 -136h-466l19 99z" />
    <glyph glyph-name="three" unicode="3" horiz-adv-x="566" 
d="M97.5 17q-61.5 29 -98.5 74l90 87q28 -27 65.5 -42t75.5 -15q61 0 97.5 24.5t36.5 68.5q0 32 -24.5 50.5t-69.5 18.5h-102l17 92l188 149h-264l28 133h446l-21 -101l-203 -167q70 -13 112 -60.5t42 -114.5q0 -109 -79 -167.5t-207 -58.5q-68 0 -129.5 29z" />
    <glyph glyph-name="four" unicode="4" horiz-adv-x="603" 
d="M326 148h-312l21 108l399 401h134l-81 -382h82l-27 -127h-82l-32 -148h-134zM353 275l44 203l-198 -203h154z" />
    <glyph glyph-name="five" unicode="5" horiz-adv-x="534" 
d="M87.5 17q-63.5 29 -99.5 76l95 85q57 -57 139 -57q54 0 87 25t33 69q0 32 -25 50.5t-74 18.5h-175l18 94l102 279h356l-29 -133h-252l-38 -111h60q62 0 109 -23t73 -64t26 -94q0 -76 -33.5 -131t-93.5 -84t-140 -29q-75 0 -138.5 29z" />
    <glyph glyph-name="six" unicode="6" horiz-adv-x="589" 
d="M159.5 17q-52.5 29 -81 83t-28.5 127q0 40 10 100q18 103 65.5 180t116 119t146.5 42q61 0 113 -24.5t88 -71.5l-88 -85q-24 26 -50.5 37t-57.5 11q-59 0 -106 -38.5t-72 -110.5q67 25 124 25q59 0 104 -25t69 -68.5t24 -96.5q0 -68 -33.5 -121t-91.5 -82.5t-130 -29.5
q-69 0 -121.5 29zM374.5 144.5q29.5 27.5 29.5 70.5q0 35 -25.5 56.5t-72.5 21.5q-66 0 -118 -22q-3 -22 -3 -39q1 -55 32 -85t80 -30q48 0 77.5 27.5z" />
    <glyph glyph-name="seven" unicode="7" horiz-adv-x="552" 
d="M392 519h-302l30 138h478l-16 -80l-361 -577h-164z" />
    <glyph glyph-name="eight" unicode="8" horiz-adv-x="607" 
d="M140.5 11q-54.5 23 -84 63t-29.5 90q0 109 146 185q-58 47 -58 125q0 57 34.5 101t92 68.5t121.5 24.5q67 0 117.5 -20t78 -56.5t27.5 -84.5q0 -100 -117 -170q76 -56 76 -138q0 -67 -38 -115t-101.5 -72t-139.5 -24q-71 0 -125.5 23zM432.5 423.5q22.5 23.5 22.5 53.5
q0 32 -26.5 50.5t-72.5 18.5t-78 -20t-32 -50q0 -33 26.5 -50.5t91.5 -37.5l9 -3q37 15 59.5 38.5zM375.5 138q33.5 22 33.5 57t-29.5 56t-103.5 46l-5 2q-103 -48 -103 -111q0 -33 32 -52.5t86 -19.5q56 0 89.5 22z" />
    <glyph glyph-name="nine" unicode="9" horiz-adv-x="592" 
d="M118 13q-58 25 -95 73l88 85q49 -49 118 -49q68 0 112 36.5t67 115.5q-68 -29 -133 -29q-56 0 -100.5 25t-69.5 67.5t-25 92.5q0 70 32.5 124t91 84t131.5 30q68 0 120 -31.5t81 -87.5t29 -128q0 -67 -9 -112q-17 -100 -61.5 -172t-109.5 -110.5t-142 -38.5
q-67 0 -125 25zM430 387q1 11 1 30q-1 57 -29.5 89.5t-81.5 32.5q-48 0 -78 -26t-30 -69q0 -37 25.5 -59.5t73.5 -22.5q64 0 119 25z" />
    <glyph glyph-name="zero.zero" horiz-adv-x="631" 
d="M498.5 637q50.5 -31 78 -87.5t27.5 -129.5q0 -111 -40 -210t-114.5 -160.5t-172.5 -61.5q-67 0 -117.5 30.5t-78 86t-27.5 129.5q0 111 40 211t114.5 161.5t172.5 61.5q67 0 117.5 -31zM281.5 496.5q-40.5 -43.5 -63 -110t-25.5 -133.5l254 253q-23 34 -71 34
q-54 0 -94.5 -43.5zM378.5 160.5q39.5 43.5 61.5 109.5t26 133l-253 -252q25 -34 72 -34q54 0 93.5 43.5z" />
    <glyph glyph-name="zero.tf" 
d="M141.5 18.5q-48.5 30.5 -75 85.5t-26.5 128q0 111 39.5 211.5t112 162.5t167.5 62q64 0 112.5 -31t75.5 -86.5t27 -128.5q0 -111 -39.5 -211t-112 -161.5t-167.5 -61.5q-65 0 -113.5 30.5zM352.5 178q36.5 45 55 112.5t18.5 130.5q0 49 -20 76t-57 27q-49 0 -86 -44.5
t-56 -111t-19 -129.5q0 -50 21 -78t58 -28q49 0 85.5 45z" />
    <glyph glyph-name="one.tf" 
d="M330 513l-182 -47l25 120l220 71h115l-139 -657h-148z" />
    <glyph glyph-name="two.tf" 
d="M281 315l31 25q55 45 77.5 70.5t22.5 57.5q0 27 -19.5 42t-56.5 15q-79 0 -166 -79l-75 113q128 109 268 109q96 0 150 -49.5t54 -130.5q0 -64 -38 -117.5t-108 -106.5l-163 -128h235l-29 -136h-466l19 99z" />
    <glyph glyph-name="three.tf" 
d="M105 17q-62 29 -99 75l90 87q29 -27 66.5 -42.5t74.5 -15.5q61 0 97.5 24.5t36.5 68.5q0 32 -25 50.5t-69 18.5h-102l17 91l189 151h-265l28 132h446l-21 -101l-203 -167q70 -13 112 -60.5t42 -114.5q0 -109 -79 -167.5t-207 -58.5q-67 0 -129 29z" />
    <glyph glyph-name="four.tf" 
d="M314 148h-305l20 108l393 401h134l-81 -382h82l-27 -127h-82l-32 -148h-133zM341 275l44 203l-197 -203h153z" />
    <glyph glyph-name="five.tf" 
d="M119.5 17q-63.5 29 -99.5 76l95 85q57 -57 139 -57q54 0 87 25t33 69q0 33 -25 52t-75 19h-176l19 92l96 279h362l-28 -133h-254l-37 -112h54q65 0 113.5 -23t75 -63.5t26.5 -93.5q0 -115 -73 -179.5t-195 -64.5q-74 0 -137.5 29z" />
    <glyph glyph-name="six.tf" 
d="M160 17q-52 29 -80.5 83t-28.5 127q0 49 10 100q18 103 65.5 180t115.5 119t146 42q61 0 113 -24.5t88 -71.5l-88 -85q-25 26 -51 37t-57 11q-59 0 -105.5 -38.5t-72.5 -110.5q67 25 125 25q59 0 103.5 -25t69 -68.5t23.5 -96.5q0 -68 -33.5 -121t-91.5 -82.5t-130 -29.5
q-69 0 -121 29zM374.5 144.5q29.5 27.5 29.5 70.5q0 36 -25.5 57t-72.5 21q-65 0 -117 -22q-4 -20 -4 -39q1 -55 32 -85t80 -30q48 0 77.5 27.5z" />
    <glyph glyph-name="seven.tf" 
d="M404 519h-302l30 138h478l-16 -80l-361 -577h-164z" />
    <glyph glyph-name="eight.tf" 
d="M134.5 11q-54.5 23 -84.5 63t-30 90q0 54 38 101t110 85q-60 48 -60 124q0 57 34.5 101t92 68.5t121.5 24.5q67 0 117.5 -20t78.5 -56.5t28 -84.5q0 -101 -118 -170q37 -27 56.5 -62.5t19.5 -76.5q0 -67 -38 -114.5t-101 -71.5t-139 -24q-71 0 -125.5 23zM426 423.5
q23 24.5 23 55.5q0 32 -27 50.5t-73 18.5t-77.5 -19.5t-31.5 -50.5t25.5 -50t85.5 -38q4 -1 7 -3t7 -3q38 15 61 39.5zM369.5 134.5q33.5 22.5 33.5 58.5q0 34 -28.5 55.5t-97.5 45.5q-5 3 -11 4q-105 -44 -105 -111q0 -35 32.5 -55t86.5 -20q56 0 89.5 22.5z" />
    <glyph glyph-name="nine.tf" 
d="M115 13q-58 25 -95 73l88 85q49 -49 118 -49q68 0 112 36.5t67 115.5q-68 -29 -133 -29q-56 0 -100.5 25t-69.5 67.5t-25 92.5q0 70 32.5 124t91 84t131.5 30q68 0 120 -31.5t81 -87.5t29 -128q0 -67 -9 -112q-17 -100 -61.5 -172t-109.5 -110.5t-142 -38.5
q-67 0 -125 25zM427 387q1 11 1 30q-1 57 -29.5 89.5t-81.5 32.5q-48 0 -78 -26t-30 -69q0 -37 25.5 -59.5t73.5 -22.5q64 0 119 25z" />
    <glyph glyph-name="zero.tf.zero" 
d="M471.5 637q48.5 -31 75.5 -86.5t27 -128.5q0 -111 -39.5 -211t-112 -161.5t-167.5 -61.5q-65 0 -113.5 30t-75 85.5t-26.5 128.5q0 111 39.5 211.5t112 162.5t167.5 62q64 0 112.5 -31zM264.5 492.5q-38.5 -40.5 -61 -102t-27.5 -125.5l245 233q-23 35 -68 35
q-50 0 -88.5 -40.5zM350.5 164.5q37.5 40.5 59.5 102t27 125.5l-244 -231q22 -37 70 -37q50 0 87.5 40.5z" />
    <glyph glyph-name="zero.subs" horiz-adv-x="460" 
d="M64 -44q-40 41 -40 111q0 66 25 123.5t71 93t107 35.5q66 0 106.5 -42t40.5 -111q0 -66 -24.5 -123.5t-71 -92.5t-108.5 -35q-66 0 -106 41zM226 42.5q20 23.5 30 58t10 67.5q0 22 -12 35t-32 13q-29 0 -49 -23.5t-30.5 -58t-10.5 -65.5q0 -23 12 -36.5t33 -13.5
q29 0 49 23.5z" />
    <glyph glyph-name="one.subs" horiz-adv-x="350" 
d="M144 208l-98 -21l18 90l126 36h83l-82 -390h-109z" />
    <glyph glyph-name="two.subs" horiz-adv-x="434" 
d="M162 111l21 16q32 23 44.5 35.5t12.5 27.5q0 12 -10 19.5t-27 7.5q-48 0 -102 -43l-55 80q83 67 175 67q63 0 98.5 -31t35.5 -82q0 -37 -24 -69.5t-67 -62.5l-79 -55h129l-21 -98h-301l12 67z" />
    <glyph glyph-name="three.subs" horiz-adv-x="444" 
d="M69.5 -67q-41.5 18 -66.5 47l66 63q38 -35 89 -35q66 0 66 42q0 15 -13 23.5t-35 8.5h-72l12 64l106 72h-155l19 95h285l-12 -68l-126 -92q44 -7 71 -35t27 -68q0 -65 -47.5 -100t-124.5 -35q-48 0 -89.5 18z" />
    <glyph glyph-name="four.subs" horiz-adv-x="456" 
d="M198 6h-199l12 73l252 235h97l-47 -219h52l-19 -89h-51l-18 -83h-96zM217 95l22 103l-111 -103h89z" />
    <glyph glyph-name="five.subs" horiz-adv-x="396" 
d="M48 -67q-41 18 -65 48l67 60q35 -30 82 -30q31 0 48 10t17 29q0 16 -14 24.5t-41 8.5h-112l12 65l57 165h234l-19 -95h-158l-16 -50h24q63 0 103 -30t40 -78q0 -68 -47 -106.5t-124 -38.5q-47 0 -88 18z" />
    <glyph glyph-name="six.subs" horiz-adv-x="442" 
d="M66 -47.5q-41 37.5 -41 104.5q0 32 6 62q19 91 78 145.5t137 54.5q40 0 74.5 -15t57.5 -44l-63 -60q-28 25 -65 25q-79 0 -109 -68q44 14 78 14q55 0 89 -31t34 -81q0 -64 -47.5 -104t-120.5 -40q-67 0 -108 37.5zM229 19.5q18 12.5 18 34.5q0 35 -56 35q-40 0 -70 -11
v-15q0 -27 17 -41.5t44 -14.5q29 0 47 12.5z" />
    <glyph glyph-name="seven.subs" horiz-adv-x="423" 
d="M229 214h-178l21 100h308l-10 -51l-215 -340h-119z" />
    <glyph glyph-name="eight.subs" horiz-adv-x="448" 
d="M50.5 -54.5q-43.5 30.5 -43.5 76.5q0 30 22.5 57t65.5 49q-35 28 -35 74q0 34 22 61t58.5 41.5t77.5 14.5q65 0 105.5 -26.5t40.5 -71.5q0 -58 -68 -97q46 -34 46 -83q0 -61 -51.5 -93.5t-127.5 -32.5q-69 0 -112.5 30.5zM271 201q0 16 -15.5 25t-41.5 9q-25 0 -42.5 -9
t-17.5 -22q0 -16 15.5 -26t53.5 -21l3 -1q45 17 45 45zM226.5 12.5q18.5 10.5 18.5 27.5t-18 28t-59 24q-2 0 -3 1q-27 -12 -42 -24.5t-15 -29.5q0 -18 18.5 -27.5t49.5 -9.5q32 0 50.5 10.5z" />
    <glyph glyph-name="nine.subs" horiz-adv-x="436" 
d="M70 -69.5q-43 16.5 -66 45.5l62 61q15 -14 35 -21t38 -7q75 0 100 69q-42 -15 -77 -15q-56 0 -90.5 34.5t-34.5 82.5q0 62 45 100.5t117 38.5q67 0 109.5 -43t43.5 -115q0 -29 -4 -53q-15 -91 -68.5 -142.5t-127.5 -51.5q-39 0 -82 16.5zM256 158v9q-1 28 -18 44t-44 16
q-28 0 -45 -11.5t-17 -31.5q0 -38 58 -38q39 0 66 12z" />
    <glyph glyph-name="zero.dnom" horiz-adv-x="460" 
d="M80 33q-40 41 -40 111q0 66 25 123.5t71 93t107 35.5q66 0 106.5 -42t40.5 -111q0 -66 -24.5 -123.5t-71 -92.5t-108.5 -35q-66 0 -106 41zM242 119.5q20 23.5 30 58t10 67.5q0 22 -12 35t-32 13q-29 0 -49 -23.5t-30.5 -58t-10.5 -65.5q0 -23 12 -36.5t33 -13.5
q29 0 49 23.5z" />
    <glyph glyph-name="one.dnom" horiz-adv-x="350" 
d="M160 285l-98 -21l18 90l126 36h83l-82 -390h-109z" />
    <glyph glyph-name="two.dnom" horiz-adv-x="434" 
d="M178 188l21 16q32 23 44.5 35.5t12.5 27.5q0 12 -10 19.5t-27 7.5q-48 0 -102 -43l-55 80q83 67 175 67q63 0 98.5 -31t35.5 -82q0 -37 -24 -69.5t-67 -62.5l-79 -55h129l-21 -98h-301l12 67z" />
    <glyph glyph-name="three.dnom" horiz-adv-x="444" 
d="M85.5 10q-41.5 18 -66.5 47l66 63q38 -35 89 -35q66 0 66 42q0 15 -13 23.5t-35 8.5h-72l12 64l106 72h-155l19 95h285l-12 -68l-126 -92q44 -7 71 -35t27 -68q0 -65 -47.5 -100t-124.5 -35q-48 0 -89.5 18z" />
    <glyph glyph-name="four.dnom" horiz-adv-x="456" 
d="M214 83h-199l12 73l252 235h97l-47 -219h52l-19 -89h-51l-18 -83h-96zM233 172l22 103l-111 -103h89z" />
    <glyph glyph-name="five.dnom" horiz-adv-x="396" 
d="M64 10q-41 18 -65 48l67 60q35 -30 82 -30q31 0 48 10t17 29q0 16 -14 24.5t-41 8.5h-112l12 65l57 165h234l-19 -95h-158l-16 -50h24q63 0 103 -30t40 -78q0 -68 -47 -106.5t-124 -38.5q-47 0 -88 18z" />
    <glyph glyph-name="six.dnom" horiz-adv-x="442" 
d="M82 29.5q-41 37.5 -41 104.5q0 32 6 62q19 91 78 145.5t137 54.5q40 0 74.5 -15t57.5 -44l-63 -60q-28 25 -65 25q-79 0 -109 -68q44 14 78 14q55 0 89 -31t34 -81q0 -64 -47.5 -104t-120.5 -40q-67 0 -108 37.5zM245 96.5q18 12.5 18 34.5q0 35 -56 35q-40 0 -70 -11
v-15q0 -27 17 -41.5t44 -14.5q29 0 47 12.5z" />
    <glyph glyph-name="seven.dnom" horiz-adv-x="423" 
d="M245 291h-178l21 100h308l-10 -51l-215 -340h-119z" />
    <glyph glyph-name="eight.dnom" horiz-adv-x="448" 
d="M66.5 22.5q-43.5 30.5 -43.5 76.5q0 30 22.5 57t65.5 49q-35 28 -35 74q0 34 22 61t58.5 41.5t77.5 14.5q65 0 105.5 -26.5t40.5 -71.5q0 -58 -68 -97q46 -34 46 -83q0 -61 -51.5 -93.5t-127.5 -32.5q-69 0 -112.5 30.5zM287 278q0 16 -15.5 25t-41.5 9q-25 0 -42.5 -9
t-17.5 -22q0 -16 15.5 -26t53.5 -21l3 -1q45 17 45 45zM242.5 89.5q18.5 10.5 18.5 27.5t-18 28t-59 24q-2 0 -3 1q-27 -12 -42 -24.5t-15 -29.5q0 -18 18.5 -27.5t49.5 -9.5q32 0 50.5 10.5z" />
    <glyph glyph-name="nine.dnom" horiz-adv-x="436" 
d="M86 7.5q-43 16.5 -66 45.5l62 61q15 -14 35 -21t38 -7q75 0 100 69q-42 -15 -77 -15q-56 0 -90.5 34.5t-34.5 82.5q0 62 45 100.5t117 38.5q67 0 109.5 -43t43.5 -115q0 -29 -4 -53q-15 -91 -68.5 -142.5t-127.5 -51.5q-39 0 -82 16.5zM272 235v9q-1 28 -18 44t-44 16
q-28 0 -45 -11.5t-17 -31.5q0 -38 58 -38q39 0 66 12z" />
    <glyph glyph-name="zero.numr" horiz-adv-x="460" 
d="M137 298q-40 41 -40 111q0 66 25 123.5t71 93t107 35.5q66 0 106.5 -42t40.5 -111q0 -66 -24.5 -123.5t-71 -92.5t-108.5 -35q-66 0 -106 41zM299 384.5q20 23.5 30 58t10 67.5q0 22 -12 35t-32 13q-29 0 -49 -23.5t-30.5 -58t-10.5 -65.5q0 -23 12 -36.5t33 -13.5
q29 0 49 23.5z" />
    <glyph glyph-name="one.numr" horiz-adv-x="350" 
d="M217 550l-98 -21l18 90l126 36h83l-82 -390h-109z" />
    <glyph glyph-name="two.numr" horiz-adv-x="434" 
d="M235 453l21 16q32 23 44.5 35.5t12.5 27.5q0 12 -10 19.5t-27 7.5q-48 0 -102 -43l-55 80q83 67 175 67q63 0 98.5 -31t35.5 -82q0 -37 -24 -69.5t-67 -62.5l-79 -55h129l-21 -98h-301l12 67z" />
    <glyph glyph-name="three.numr" horiz-adv-x="444" 
d="M142.5 275q-41.5 18 -66.5 47l66 63q38 -35 89 -35q66 0 66 42q0 15 -13 23.5t-35 8.5h-72l12 64l106 72h-155l19 95h285l-12 -68l-126 -92q44 -7 71 -35t27 -68q0 -65 -47.5 -100t-124.5 -35q-48 0 -89.5 18z" />
    <glyph glyph-name="four.numr" horiz-adv-x="456" 
d="M271 348h-199l12 73l252 235h97l-47 -219h52l-19 -89h-51l-18 -83h-96zM290 437l22 103l-111 -103h89z" />
    <glyph glyph-name="five.numr" horiz-adv-x="396" 
d="M121 275q-41 18 -65 48l67 60q35 -30 82 -30q31 0 48 10t17 29q0 16 -14 24.5t-41 8.5h-112l12 65l57 165h234l-19 -95h-158l-16 -50h24q63 0 103 -30t40 -78q0 -68 -47 -106.5t-124 -38.5q-47 0 -88 18z" />
    <glyph glyph-name="six.numr" horiz-adv-x="442" 
d="M139 294.5q-41 37.5 -41 104.5q0 32 6 62q19 91 78 145.5t137 54.5q40 0 74.5 -15t57.5 -44l-63 -60q-28 25 -65 25q-79 0 -109 -68q44 14 78 14q55 0 89 -31t34 -81q0 -64 -47.5 -104t-120.5 -40q-67 0 -108 37.5zM302 361.5q18 12.5 18 34.5q0 35 -56 35q-40 0 -70 -11
v-15q0 -27 17 -41.5t44 -14.5q29 0 47 12.5z" />
    <glyph glyph-name="seven.numr" horiz-adv-x="423" 
d="M302 556h-178l21 100h308l-10 -51l-215 -340h-119z" />
    <glyph glyph-name="eight.numr" horiz-adv-x="448" 
d="M123.5 287.5q-43.5 30.5 -43.5 76.5q0 30 22.5 57t65.5 49q-35 28 -35 74q0 34 22 61t58.5 41.5t77.5 14.5q65 0 105.5 -26.5t40.5 -71.5q0 -58 -68 -97q46 -34 46 -83q0 -61 -51.5 -93.5t-127.5 -32.5q-69 0 -112.5 30.5zM344 543q0 16 -15.5 25t-41.5 9q-25 0 -42.5 -9
t-17.5 -22q0 -16 15.5 -26t53.5 -21l3 -1q45 17 45 45zM299.5 354.5q18.5 10.5 18.5 27.5t-18 28t-59 24q-2 0 -3 1q-27 -12 -42 -24.5t-15 -29.5q0 -18 18.5 -27.5t49.5 -9.5q32 0 50.5 10.5z" />
    <glyph glyph-name="nine.numr" horiz-adv-x="436" 
d="M143 272.5q-43 16.5 -66 45.5l62 61q15 -14 35 -21t38 -7q75 0 100 69q-42 -15 -77 -15q-56 0 -90.5 34.5t-34.5 82.5q0 62 45 100.5t117 38.5q67 0 109.5 -43t43.5 -115q0 -29 -4 -53q-15 -91 -68.5 -142.5t-127.5 -51.5q-39 0 -82 16.5zM329 500v9q-1 28 -18 44t-44 16
q-28 0 -45 -11.5t-17 -31.5q0 -38 58 -38q39 0 66 12z" />
    <glyph glyph-name="uni2070" unicode="&#x2070;" horiz-adv-x="460" 
d="M151 365q-40 41 -40 111q0 66 25 123.5t71 93t107 35.5q66 0 106.5 -42t40.5 -111q0 -66 -24.5 -123.5t-71 -92.5t-108.5 -35q-66 0 -106 41zM313 451.5q20 23.5 30 58t10 67.5q0 22 -12 35t-32 13q-29 0 -49 -23.5t-30.5 -58t-10.5 -65.5q0 -23 12 -36.5t33 -13.5
q29 0 49 23.5z" />
    <glyph glyph-name="uni00B9" unicode="&#xb9;" horiz-adv-x="350" 
d="M231 617l-98 -21l18 90l126 36h83l-82 -390h-109z" />
    <glyph glyph-name="uni00B2" unicode="&#xb2;" horiz-adv-x="434" 
d="M249 520l21 16q32 23 44.5 35.5t12.5 27.5q0 12 -10 19.5t-27 7.5q-48 0 -102 -43l-55 80q83 67 175 67q63 0 98.5 -31t35.5 -82q0 -37 -24 -69.5t-67 -62.5l-79 -55h129l-21 -98h-301l12 67z" />
    <glyph glyph-name="uni00B3" unicode="&#xb3;" horiz-adv-x="444" 
d="M156.5 342q-41.5 18 -66.5 47l66 63q38 -35 89 -35q66 0 66 42q0 15 -13 23.5t-35 8.5h-72l12 64l106 72h-155l19 95h285l-12 -68l-126 -92q44 -7 71 -35t27 -68q0 -65 -47.5 -100t-124.5 -35q-48 0 -89.5 18z" />
    <glyph glyph-name="uni2074" unicode="&#x2074;" horiz-adv-x="456" 
d="M285 415h-199l12 73l252 235h97l-47 -219h52l-19 -89h-51l-18 -83h-96zM304 504l22 103l-111 -103h89z" />
    <glyph glyph-name="uni2075" unicode="&#x2075;" horiz-adv-x="396" 
d="M135 342q-41 18 -65 48l67 60q35 -30 82 -30q31 0 48 10t17 29q0 16 -14 24.5t-41 8.5h-112l12 65l57 165h234l-19 -95h-158l-16 -50h24q63 0 103 -30t40 -78q0 -68 -47 -106.5t-124 -38.5q-47 0 -88 18z" />
    <glyph glyph-name="uni2076" unicode="&#x2076;" horiz-adv-x="442" 
d="M153 361.5q-41 37.5 -41 104.5q0 32 6 62q19 91 78 145.5t137 54.5q40 0 74.5 -15t57.5 -44l-63 -60q-28 25 -65 25q-79 0 -109 -68q44 14 78 14q55 0 89 -31t34 -81q0 -64 -47.5 -104t-120.5 -40q-67 0 -108 37.5zM316 428.5q18 12.5 18 34.5q0 35 -56 35q-40 0 -70 -11
v-15q0 -27 17 -41.5t44 -14.5q29 0 47 12.5z" />
    <glyph glyph-name="uni2077" unicode="&#x2077;" horiz-adv-x="423" 
d="M316 623h-178l21 100h308l-10 -51l-215 -340h-119z" />
    <glyph glyph-name="uni2078" unicode="&#x2078;" horiz-adv-x="448" 
d="M137.5 354.5q-43.5 30.5 -43.5 76.5q0 30 22.5 57t65.5 49q-35 28 -35 74q0 34 22 61t58.5 41.5t77.5 14.5q65 0 105.5 -26.5t40.5 -71.5q0 -58 -68 -97q46 -34 46 -83q0 -61 -51.5 -93.5t-127.5 -32.5q-69 0 -112.5 30.5zM358 610q0 16 -15.5 25t-41.5 9q-25 0 -42.5 -9
t-17.5 -22q0 -16 15.5 -26t53.5 -21l3 -1q45 17 45 45zM313.5 421.5q18.5 10.5 18.5 27.5t-18 28t-59 24q-2 0 -3 1q-27 -12 -42 -24.5t-15 -29.5q0 -18 18.5 -27.5t49.5 -9.5q32 0 50.5 10.5z" />
    <glyph glyph-name="uni2079" unicode="&#x2079;" horiz-adv-x="436" 
d="M157 339.5q-43 16.5 -66 45.5l62 61q15 -14 35 -21t38 -7q75 0 100 69q-42 -15 -77 -15q-56 0 -90.5 34.5t-34.5 82.5q0 62 45 100.5t117 38.5q67 0 109.5 -43t43.5 -115q0 -29 -4 -53q-15 -91 -68.5 -142.5t-127.5 -51.5q-39 0 -82 16.5zM343 567v9q-1 28 -18 44t-44 16
q-28 0 -45 -11.5t-17 -31.5q0 -38 58 -38q39 0 66 12z" />
    <glyph glyph-name="fraction" unicode="&#x2044;" horiz-adv-x="187" 
d="M314 657h155l-568 -657h-155z" />
    <glyph glyph-name="onehalf" unicode="&#xbd;" horiz-adv-x="1015" 
d="M672 657h155l-568 -657h-156zM217 551l-98 -21l18 89l126 37h83l-82 -391h-109zM760 188l22 17q31 23 43 35t12 27q0 12 -9.5 19.5t-27.5 7.5q-48 0 -102 -43l-55 80q83 67 176 67q63 0 98.5 -31t35.5 -82q0 -69 -92 -131l-79 -56h129l-20 -98h-302l13 67z" />
    <glyph glyph-name="onequarter" unicode="&#xbc;" horiz-adv-x="941" 
d="M684 657h155l-568 -657h-156zM217 551l-98 -21l18 89l126 37h83l-82 -391h-109zM699 83h-199l12 73l252 235h97l-47 -219h52l-19 -89h-52l-17 -83h-97zM718 172l21 103l-110 -103h89z" />
    <glyph glyph-name="threequarters" unicode="&#xbe;" horiz-adv-x="994" 
d="M736 657h155l-568 -657h-156zM142 275.5q-42 17.5 -66 46.5l66 63q39 -34 89 -34q66 0 66 42q0 14 -13 22.5t-35 8.5h-72l12 64l106 73h-155l19 94h285l-12 -68l-126 -92q44 -7 71 -34.5t27 -68.5q0 -65 -47.5 -99.5t-124.5 -34.5q-48 0 -90 17.5zM752 83h-199l12 73
l252 235h97l-47 -219h52l-19 -89h-51l-18 -83h-96zM771 172l22 103l-111 -103h89z" />
    <glyph glyph-name="period" unicode="." horiz-adv-x="253" 
d="M24 10.5q-22 21.5 -22 55.5q0 42 28 69.5t66 27.5q35 0 57 -21t22 -55q0 -42 -27.5 -70t-67.5 -28q-34 0 -56 21.5z" />
    <glyph glyph-name="comma" unicode="," horiz-adv-x="253" 
d="M0.5 15.5q32.5 70.5 50.5 127.5h135q-19 -65 -55 -135.5t-79 -127.5h-124q40 65 72.5 135.5z" />
    <glyph glyph-name="colon" unicode=":" horiz-adv-x="253" 
d="M102.5 380q-21.5 21 -21.5 55q0 43 28 70.5t66 27.5q35 0 57 -21.5t22 -55.5q0 -42 -27.5 -69.5t-67.5 -27.5q-35 0 -56.5 21zM25 10.5q-22 21.5 -22 55.5q0 42 28 69.5t66 27.5q35 0 57 -21t22 -55q0 -42 -27.5 -70t-67.5 -28q-34 0 -56 21.5z" />
    <glyph glyph-name="semicolon" unicode=";" horiz-adv-x="253" 
d="M101.5 380q-21.5 21 -21.5 55q0 43 28 70.5t66 27.5q35 0 57 -21.5t22 -55.5q0 -42 -27.5 -69.5t-68.5 -27.5q-34 0 -55.5 21zM-4 15.5q33 70.5 51 127.5h135q-19 -65 -55 -135.5t-79 -127.5h-124q39 65 72 135.5z" />
    <glyph glyph-name="ellipsis" unicode="&#x2026;" horiz-adv-x="753" 
d="M24 10.5q-22 21.5 -22 55.5q0 42 28 69.5t66 27.5q35 0 57 -21t22 -55q0 -42 -27.5 -70t-67.5 -28q-34 0 -56 21.5zM274 10.5q-22 21.5 -22 55.5q0 42 28 69.5t66 27.5q35 0 57 -21t22 -55q0 -42 -27.5 -70t-67.5 -28q-34 0 -56 21.5zM524 10.5q-22 21.5 -22 55.5
q0 42 28 69.5t66 27.5q35 0 57 -21t22 -55q0 -42 -27.5 -70t-67.5 -28q-34 0 -56 21.5z" />
    <glyph glyph-name="exclam" unicode="!" horiz-adv-x="298" 
d="M155 676h158l-109 -446h-131zM49.5 10.5q-21.5 21.5 -21.5 55.5q0 42 27.5 69.5t66.5 27.5q35 0 56.5 -21t21.5 -55q0 -43 -27 -70.5t-68 -27.5q-34 0 -55.5 21.5z" />
    <glyph glyph-name="exclamdown" unicode="&#xa1;" horiz-adv-x="299" 
d="M127 384q-22 21 -22 55q0 42 27.5 70t67.5 28q34 0 56 -21.5t22 -55.5q0 -42 -28 -69.5t-66 -27.5q-35 0 -57 21zM103 296h128l-83 -446h-153z" />
    <glyph glyph-name="question" unicode="?" horiz-adv-x="532" 
d="M212 338.5q30 33.5 80 67.5l17 11q43 30 61.5 47t18.5 40q0 21 -15.5 33t-45.5 12q-42 0 -86 -18t-85 -52l-72 109q57 48 127.5 74t140.5 26q59 0 103 -20t67.5 -55.5t23.5 -80.5q0 -55 -29.5 -92.5t-90.5 -81.5q-8 -6 -39.5 -28.5t-49 -43.5t-21.5 -43l-3 -13h-145l4 25
q9 50 39 83.5zM156.5 10.5q-21.5 21.5 -21.5 55.5q0 42 28 69.5t66 27.5q35 0 57 -21t22 -55q0 -42 -27.5 -70t-68.5 -28q-34 0 -55.5 21.5z" />
    <glyph glyph-name="questiondown" unicode="&#xbf;" horiz-adv-x="531" 
d="M265.5 384q-21.5 21 -21.5 55q0 43 27 70.5t68 27.5q34 0 55.5 -21.5t21.5 -55.5q0 -42 -27.5 -69.5t-66.5 -27.5q-35 0 -56.5 21zM96 -142q-44 20 -68 55.5t-24 80.5q0 55 29.5 92.5t90.5 81.5l18 13q43 31 65 52.5t27 49.5l3 13h145l-4 -24q-9 -50 -38.5 -83.5
t-80.5 -68.5q-8 -5 -38 -25t-44 -37.5t-14 -35.5q0 -21 15 -33t45 -12q42 0 86 18.5t85 51.5l72 -109q-57 -48 -127.5 -74t-140.5 -26q-58 0 -102 20z" />
    <glyph glyph-name="periodcentered" unicode="&#xb7;" horiz-adv-x="248" 
d="M85.5 302q-21.5 21 -21.5 55q0 42 28 69.5t66 27.5q35 0 57 -21t22 -55q0 -42 -27.5 -69.5t-68.5 -27.5q-34 0 -55.5 21z" />
    <glyph glyph-name="bullet" unicode="&#x2022;" horiz-adv-x="428" 
d="M159.5 225.5q-31.5 18.5 -50.5 50t-19 69.5q0 39 19 70.5t50.5 50t69.5 18.5t69.5 -18.5t50.5 -50t19 -70.5q0 -38 -19 -69.5t-50.5 -50t-69.5 -18.5t-69.5 18.5z" />
    <glyph glyph-name="asterisk" unicode="*" horiz-adv-x="488" 
d="M233 428l-95 -68l-49 93l116 55l-92 58l79 89l71 -66l15 106h114l-33 -106l93 67l49 -94l-118 -55l94 -58l-79 -88l-70 65l-15 -105h-115z" />
    <glyph glyph-name="numbersign" unicode="#" horiz-adv-x="620" 
d="M91 147h-86l36 113h85l45 141h-86l35 113h87l35 115h127l-36 -114h101l35 114h127l-35 -114h84l-35 -112h-85l-44 -141h84l-36 -113h-84l-37 -122h-127l37 121h-100l-38 -121h-127zM354 261l44 141h-100l-45 -141h101z" />
    <glyph glyph-name="slash" unicode="/" horiz-adv-x="497" 
d="M421 735h162l-494 -885h-162z" />
    <glyph glyph-name="backslash" unicode="\" horiz-adv-x="491" 
d="M116 735h155l118 -885h-156z" />
    <glyph glyph-name="exclamdown.case" horiz-adv-x="298" 
d="M147 534q-22 21 -22 55q0 42 27.5 70t68.5 28q34 0 55.5 -21.5t21.5 -55.5q0 -42 -28 -69.5t-66 -27.5q-35 0 -57 21zM123 446h128l-83 -446h-153z" />
    <glyph glyph-name="questiondown.case" horiz-adv-x="532" 
d="M281.5 534q-21.5 21 -21.5 55q0 43 27 70.5t68 27.5q34 0 55.5 -21.5t21.5 -55.5q0 -42 -27.5 -69.5t-66.5 -27.5q-35 0 -56.5 21zM112 8q-44 20 -68 55.5t-24 80.5q0 55 29.5 92.5t90.5 81.5l18 13q43 31 65 52.5t27 49.5l3 13h145l-4 -24q-9 -50 -38.5 -83.5
t-80.5 -68.5q-8 -5 -38 -25t-44 -37.5t-14 -35.5q0 -21 15 -33t45 -12q42 0 86 18.5t85 51.5l72 -108q-57 -49 -127.5 -75t-140.5 -26q-58 0 -102 20z" />
    <glyph glyph-name="slash.case" horiz-adv-x="496" 
d="M430 777h162l-494 -885h-162z" />
    <glyph glyph-name="backslash.case" horiz-adv-x="498" 
d="M124 777h154l119 -885h-156z" />
    <glyph glyph-name="parenleft" unicode="(" horiz-adv-x="385" 
d="M73 -17q-20 77 -20 162q0 162 70.5 320.5t190.5 269.5h154q-121 -124 -196 -278t-75 -306q0 -162 76 -303h-140q-40 58 -60 135z" />
    <glyph glyph-name="parenright" unicode=")" horiz-adv-x="385" 
d="M120.5 127q74.5 154 74.5 306q0 166 -76 302h141q40 -59 60 -135.5t20 -160.5q0 -162 -70.5 -320.5t-190.5 -270.5h-155q122 125 196.5 279z" />
    <glyph glyph-name="braceleft" unicode="{" horiz-adv-x="481" 
d="M109 -109.5q-48 42.5 -48 118.5q0 33 9 69l9 40q5 20 5 44q0 28 -13 48t-42 34l22 101q46 15 69 46.5t35 86.5l8 40q22 108 87.5 162.5t172.5 54.5h127l-52 -146h-65q-49 0 -84 -29.5t-45 -79.5l-11 -52q-11 -52 -33.5 -83t-69.5 -60q24 -20 35.5 -42.5t11.5 -54.5
q0 -24 -5 -44l-11 -52q-4 -24 -4 -33q0 -33 19.5 -48.5t59.5 -15.5h68l6 -147h-125q-88 0 -136 42.5z" />
    <glyph glyph-name="braceright" unicode="}" horiz-adv-x="481" 
d="M61 -6q49 0 83.5 30t45.5 80l11 51q11 52 33.5 83.5t69.5 60.5q-23 19 -35 42t-12 54q0 25 5 45l11 52q4 24 4 33q0 33 -19.5 48.5t-59.5 15.5h-68l-6 146h125q88 0 136 -42t48 -119q0 -32 -9 -68l-9 -41q-5 -19 -5 -43q0 -28 13 -48t42 -34l-22 -101q-46 -15 -69 -46.5
t-35 -86.5l-8 -40q-22 -108 -87.5 -163t-172.5 -55h-127l51 146h66z" />
    <glyph glyph-name="bracketleft" unicode="[" horiz-adv-x="472" 
d="M194 735h351l-51 -147h-179l-126 -592h173l6 -148h-362z" />
    <glyph glyph-name="bracketright" unicode="]" horiz-adv-x="472" 
d="M-13 -4h179l126 591h-172l-6 148h361l-188 -887h-351z" />
    <glyph glyph-name="parenleft.case" horiz-adv-x="383" 
d="M81 25.5q-20 76.5 -20 160.5q0 162 70.5 320.5t190.5 270.5h155q-122 -124 -196.5 -278t-74.5 -306q0 -165 76 -303h-141q-40 59 -60 135.5z" />
    <glyph glyph-name="parenright.case" horiz-adv-x="385" 
d="M129.5 168q74.5 154 74.5 306q0 165 -76 303h141q39 -58 59 -135t20 -161q0 -163 -70 -321t-190 -270h-155q122 124 196.5 278z" />
    <glyph glyph-name="braceleft.case" horiz-adv-x="481" 
d="M117.5 -68q-47.5 42 -47.5 119q0 29 8 69l9 40q6 24 6 43q0 29 -13 49t-42 34l21 101q46 15 69.5 46t34.5 86l9 41q22 108 87.5 162.5t172.5 54.5h127l-52 -146h-65q-49 0 -84 -29.5t-46 -79.5l-11 -52q-12 -52 -33.5 -83t-69.5 -60q24 -19 36 -42.5t12 -54.5
q0 -24 -5 -45l-11 -51q-5 -22 -5 -34q0 -63 80 -63h67l6 -147h-124q-89 0 -136.5 42z" />
    <glyph glyph-name="braceright.case" horiz-adv-x="481" 
d="M70 36q49 0 84 29.5t46 80.5l11 51q11 52 33.5 83t69.5 61q-24 18 -35.5 41t-11.5 55q0 25 5 45l11 52q4 24 4 33q0 64 -80 64h-67l-6 146h125q88 0 135.5 -42t47.5 -119q0 -36 -8 -68l-9 -41q-5 -20 -5 -43q0 -29 13 -49t41 -34l-21 -100q-46 -15 -69.5 -46.5
t-34.5 -86.5l-8 -40q-45 -218 -261 -218h-127l52 146h65z" />
    <glyph glyph-name="bracketleft.case" horiz-adv-x="472" 
d="M203 777h350l-51 -147h-179l-126 -592h173l6 -148h-361z" />
    <glyph glyph-name="bracketright.case" horiz-adv-x="472" 
d="M-4 38h179l126 591h-173l-6 148h362l-188 -887h-351z" />
    <glyph glyph-name="hyphen" unicode="-" horiz-adv-x="453" 
d="M80 375h341l-29 -135h-341z" />
    <glyph glyph-name="uni00AD" unicode="&#xad;" horiz-adv-x="453" 
d="M80 375h341l-29 -135h-341z" />
    <glyph glyph-name="endash" unicode="&#x2013;" horiz-adv-x="480" 
d="M24 373h480l-28 -132h-481z" />
    <glyph glyph-name="emdash" unicode="&#x2014;" horiz-adv-x="960" 
d="M24 373h960l-28 -132h-961z" />
    <glyph glyph-name="underscore" unicode="_" horiz-adv-x="480" 
d="M-71 -71h481l-27 -124h-480z" />
    <glyph glyph-name="hyphen.case" horiz-adv-x="453" 
d="M88 412h341l-30 -135h-340z" />
    <glyph glyph-name="endash.case" horiz-adv-x="480" 
d="M32 411h480l-29 -132h-480z" />
    <glyph glyph-name="emdash.case" horiz-adv-x="960" 
d="M32 411h960l-29 -132h-960z" />
    <glyph glyph-name="quotesinglbase" unicode="&#x201a;" horiz-adv-x="273" 
d="M17 15q33 70 51 128h135q-19 -66 -55.5 -136t-79.5 -127h-124q40 65 73 135z" />
    <glyph glyph-name="quotedblbase" unicode="&#x201e;" horiz-adv-x="482" 
d="M17 15q33 70 51 128h135q-19 -66 -55.5 -136t-79.5 -127h-124q40 65 73 135zM226.5 15.5q32.5 70.5 50.5 127.5h135q-19 -65 -55 -135.5t-79 -127.5h-124q40 65 72.5 135.5z" />
    <glyph glyph-name="quotedblleft" unicode="&#x201c;" horiz-adv-x="478" 
d="M133 552.5q35 68.5 77 123.5h121q-39 -64 -70 -132.5t-49 -125.5h-134q20 66 55 134.5zM343 553q35 68 76 123h121q-38 -65 -69 -133t-49 -125h-135q21 67 56 135z" />
    <glyph glyph-name="quotedblright" unicode="&#x201d;" horiz-adv-x="478" 
d="M128 550q31 69 49 126h134q-20 -66 -55 -134.5t-77 -124.5h-121q39 64 70 133zM337 550q31 69 49 126h135q-21 -67 -56 -135t-76 -124h-121q38 64 69 133z" />
    <glyph glyph-name="quoteleft" unicode="&#x2018;" horiz-adv-x="269" 
d="M133 552.5q35 68.5 77 123.5h121q-39 -64 -70 -132.5t-49 -125.5h-134q20 66 55 134.5z" />
    <glyph glyph-name="quoteright" unicode="&#x2019;" horiz-adv-x="269" 
d="M128 550q31 69 49 126h134q-20 -66 -55 -134.5t-77 -124.5h-121q39 64 70 133z" />
    <glyph glyph-name="guillemotleft" unicode="&#xab;" horiz-adv-x="588" 
d="M53 279l172 202h151l-174 -206l83 -203h-139zM288 279l172 202h151l-174 -206l83 -203h-139z" />
    <glyph glyph-name="guillemotright" unicode="&#xbb;" horiz-adv-x="580" 
d="M166 278l-83 203h139l93 -207l-172 -202h-151zM394 278l-84 203h140l93 -207l-172 -202h-152z" />
    <glyph glyph-name="guilsinglleft" unicode="&#x2039;" horiz-adv-x="353" 
d="M53 279l172 202h151l-174 -206l83 -203h-139z" />
    <glyph glyph-name="guilsinglright" unicode="&#x203a;" horiz-adv-x="353" 
d="M166 278l-83 203h139l93 -207l-172 -202h-151z" />
    <glyph glyph-name="quotedbl" unicode="&#x22;" horiz-adv-x="488" 
d="M153 676h144l-73 -283h-126zM371 676h144l-73 -283h-126z" />
    <glyph glyph-name="quotesingle" unicode="'" horiz-adv-x="270" 
d="M153 676h144l-73 -283h-126z" />
    <glyph glyph-name="guillemotleft.case" horiz-adv-x="588" 
d="M66 343l172 202h151l-174 -206l84 -203h-140zM301 343l172 202h151l-174 -206l84 -203h-140z" />
    <glyph glyph-name="guillemotright.case" horiz-adv-x="581" 
d="M180 342l-83 203h139l93 -207l-172 -202h-151zM408 342l-84 203h140l93 -207l-172 -202h-152z" />
    <glyph glyph-name="guilsinglleft.case" horiz-adv-x="354" 
d="M58 343l171 202h152l-174 -206l83 -203h-139z" />
    <glyph glyph-name="guilsinglright.case" horiz-adv-x="354" 
d="M180 342l-83 203h139l93 -207l-172 -202h-151z" />
    <glyph glyph-name="period.dnom" horiz-adv-x="200" 
d="M2.5 10q-18.5 18 -18.5 47q0 34 22.5 56.5t53.5 22.5q30 0 48 -18t18 -47q0 -35 -22 -57t-54 -22q-29 0 -47.5 18z" />
    <glyph glyph-name="comma.dnom" horiz-adv-x="200" 
d="M17 126h118q-14 -45 -39 -94.5t-56 -90.5h-108q62 109 85 185z" />
    <glyph glyph-name="period.numr" horiz-adv-x="201" 
d="M61.5 275q-18.5 18 -18.5 47q0 35 22.5 57t53.5 22q30 0 48 -18t18 -47q0 -34 -22 -56.5t-54 -22.5q-29 0 -47.5 18z" />
    <glyph glyph-name="comma.numr" horiz-adv-x="200" 
d="M81 391h118q-14 -45 -39 -94.5t-56 -90.5h-108q60 103 85 185z" />
    <glyph glyph-name="period.subs" horiz-adv-x="200" 
d="M-12.5 -68q-18.5 18 -18.5 47q0 35 22.5 57t53.5 22q30 0 48.5 -18t18.5 -47q0 -34 -22.5 -56.5t-54.5 -22.5q-29 0 -47.5 18z" />
    <glyph glyph-name="comma.subs" horiz-adv-x="201" 
d="M7 41h118q-14 -45 -39 -94.5t-56 -90.5h-108q63 111 85 185z" />
    <glyph glyph-name="uni00A0" unicode="&#xa0;" horiz-adv-x="250" 
 />
    <glyph glyph-name="cent" unicode="&#xa2;" 
d="M117.5 155.5q-35.5 50.5 -35.5 123.5q0 76 31 142t86 111t124 60l25 121l145 23l-31 -147q35 -11 62 -31.5t45 -47.5l-90 -77q-32 42 -89 42q-48 0 -85.5 -26t-58 -68t-20.5 -88q0 -43 24.5 -69.5t65.5 -26.5q35 0 63 12t57 36l70 -92q-32 -29 -71.5 -48.5t-81.5 -26.5
l-26 -127l-143 -22l33 156q-64 20 -99.5 70.5z" />
    <glyph glyph-name="currency" unicode="&#xa4;" 
d="M89 234q-7 22 -7 51q0 82 46 149l-57 73l108 93l59 -73q52 25 107 25q64 0 108 -29l91 77l75 -93l-93 -82q6 -28 6 -49q0 -80 -45 -148l57 -73l-107 -94l-60 74q-52 -25 -109 -25q-61 0 -105 28l-91 -77l-76 94zM347 242.5q30 20.5 46 53t16 67.5q0 34 -20 55.5t-55 21.5
q-37 0 -66.5 -20.5t-46 -53t-16.5 -67.5t20 -56t54 -21q38 0 68 20.5z" />
    <glyph glyph-name="dollar" unicode="$" 
d="M71.5 41.5q-46.5 26.5 -81.5 63.5l87 99q37 -37 91.5 -57t110.5 -20q45 0 72.5 16t27.5 47q0 30 -27.5 47.5t-91.5 38.5q-92 30 -134.5 73.5t-41.5 116.5q0 79 58.5 132.5t153.5 67.5l24 117l146 22l-32 -145q47 -13 88 -40t70 -64l-98 -82q-27 33 -71 50.5t-85 17.5
q-49 0 -77 -18t-28 -49q0 -28 23 -44t78 -33q104 -32 151.5 -76.5t47.5 -116.5q0 -92 -61 -145.5t-162 -63.5l-27 -125l-142 -23l33 155q-56 12 -102.5 38.5z" />
    <glyph glyph-name="Euro" unicode="&#x20ac;" 
d="M157 48.5q-61 60.5 -71 161.5h-86l43 90h43q3 34 10 58h-65l43 90h53q46 99 127 159.5t180 60.5q68 0 119 -27t80 -69l-99 -83q-19 23 -43.5 33.5t-58.5 10.5q-46 0 -84.5 -22.5t-66.5 -62.5h178l-43 -90h-180q-7 -26 -12 -58h167l-43 -90h-119q10 -40 38 -63t69 -23
q37 0 69 13.5t64 41.5l75 -101q-52 -45 -107 -67.5t-121 -22.5q-98 0 -159 60.5z" />
    <glyph glyph-name="florin" unicode="&#x192;" 
d="M43 127q56 0 95.5 28.5t63.5 89.5l11 28h-114l26 127h137l17 42q44 113 115 164t183 51h70l-26 -127h-48q-111 0 -157 -114l-6 -16h124l-27 -127h-144l-23 -58q-42 -113 -113.5 -164t-184.5 -51h-76l27 127h50z" />
    <glyph glyph-name="sterling" unicode="&#xa3;" 
d="M104 260h-70l27 127h95l19 47q47 116 119.5 169.5t180.5 53.5h144l-28 -133h-127q-58 0 -96.5 -27t-62.5 -89l-9 -21h199l-26 -127h-223l-48 -127h321l-28 -133h-473l20 99z" />
    <glyph glyph-name="yen" unicode="&#xa5;" 
d="M187 101h-150l19 93h152l13 62h-151l20 94h103l-93 307h165l57 -265l164 265h172l-220 -307h97l-21 -94h-150l-13 -62h150l-19 -93h-151l-22 -101h-143z" />
    <glyph glyph-name="plus" unicode="+" 
d="M228 264h-159l28 133h159l35 163h131l-35 -163h160l-28 -133h-160l-35 -164h-131z" />
    <glyph glyph-name="minus" unicode="&#x2212;" 
d="M111 399h423l-29 -137h-423z" />
    <glyph glyph-name="multiply" unicode="&#xd7;" 
d="M73 211l145 123l-93 120l106 89l92 -120l143 122l76 -95l-145 -122l93 -120l-105 -89l-93 119l-144 -121z" />
    <glyph glyph-name="divide" unicode="&#xf7;" 
d="M297.5 464q-19.5 19 -19.5 50q0 38 25 63t60 25q32 0 51.5 -19t19.5 -50q0 -38 -25 -63t-61 -25q-31 0 -50.5 19zM117 399h423l-29 -137h-423zM215.5 76.5q-19.5 19.5 -19.5 50.5q0 38 25 63.5t60 25.5q32 0 52 -19.5t20 -50.5q0 -38 -25 -63.5t-62 -25.5
q-31 0 -50.5 19.5z" />
    <glyph glyph-name="equal" unicode="=" 
d="M135 517h423l-30 -138h-422zM84 279h423l-29 -137h-423z" />
    <glyph glyph-name="notequal" unicode="&#x2260;" 
d="M60 67l50 75h-55l29 137h115l68 100h-161l29 138h222l82 124l110 -51l-48 -73h57l-30 -138h-117l-68 -100h164l-29 -137h-224l-84 -128z" />
    <glyph glyph-name="greater" unicode="&#x3e;" 
d="M76 198l275 142l-215 134l89 114l293 -195l-25 -123l-371 -195z" />
    <glyph glyph-name="less" unicode="&#x3c;" 
d="M97 269l26 123l371 195l45 -123l-274 -142l215 -134l-89 -114z" />
    <glyph glyph-name="greaterequal" unicode="&#x2265;" 
d="M100 306l275 114l-224 101l60 113l320 -162l-24 -123l-380 -163zM56 134h404l-28 -134h-404z" />
    <glyph glyph-name="lessequal" unicode="&#x2264;" 
d="M118 349l25 122l379 163l27 -119l-275 -115l224 -100l-60 -114zM72 134h404l-29 -134h-404z" />
    <glyph glyph-name="plusminus" unicode="&#xb1;" 
d="M531 297h-160l-34 -161h147l-30 -138h-422l29 138h146l34 161h-160l29 132h159l35 164h130l-35 -164h161z" />
    <glyph glyph-name="approxequal" unicode="&#x2248;" 
d="M385.5 359.5q-21.5 8.5 -53.5 26.5q-26 16 -45 24t-39 8q-49 0 -60 -65h-118q12 98 55.5 145.5t111.5 47.5q24 0 45.5 -8.5t53.5 -26.5q26 -16 45 -24t39 -8q49 0 60 65h118q-12 -97 -55.5 -145t-111.5 -48q-24 0 -45.5 8.5zM335 120.5q-21 8.5 -52 26.5
q-31 17 -48.5 24.5t-36.5 7.5q-48 0 -61 -65h-118q12 97 56 145t112 48q24 0 45 -8.5t52 -26.5q31 -17 48.5 -24.5t36.5 -7.5q48 0 61 65h118q-12 -97 -56 -145t-112 -48q-24 0 -45 8.5z" />
    <glyph glyph-name="asciitilde" unicode="~" 
d="M357 237q-22 9 -51 27q-31 17 -48.5 24.5t-36.5 7.5q-48 0 -61 -65h-118q12 97 56.5 145t111.5 48q24 0 45 -8.5t52 -26.5q31 -17 48.5 -24.5t36.5 -7.5q48 0 61 65h118q-12 -98 -56 -146t-112 -48q-24 0 -46 9z" />
    <glyph glyph-name="logicalnot" unicode="&#xac;" 
d="M380 312h-293l28 132h426l-63 -297h-133z" />
    <glyph glyph-name="asciicircum" unicode="^" 
d="M310 676h141l99 -337h-149l-46 194l-132 -194h-156z" />
    <glyph glyph-name="uni00B5" unicode="&#xb5;" horiz-adv-x="622" 
d="M268 525l-61 -286q-6 -30 -6 -52q0 -35 15 -50.5t48 -15.5q34 0 68 19.5t63 52.5l70 332h148l-112 -525h-105l-8 64q-82 -76 -179 -76q-32 0 -52 16l-43 -204l-152 -21l159 746h147z" />
    <glyph glyph-name="percent" unicode="%" horiz-adv-x="1039" 
d="M136.5 298.5q-39.5 40.5 -39.5 110.5q0 66 24.5 124t71 93.5t107.5 35.5q66 0 106.5 -42t40.5 -112q0 -66 -24.5 -123t-71 -92t-108.5 -35q-67 0 -106.5 40.5zM741 657h155l-568 -657h-155zM299 385.5q20 23.5 30 58t10 66.5q0 23 -12 36t-32 13q-29 0 -49 -23.5
t-30.5 -58t-10.5 -66.5q0 -23 12 -36t33 -13q29 0 49 23.5zM659 33q-40 41 -40 111q0 66 25 124t71 93.5t108 35.5q65 0 105.5 -42t40.5 -112q0 -66 -24.5 -123.5t-70.5 -92.5t-108 -35q-67 0 -107 41zM821 120q20 24 30.5 58.5t10.5 66.5q0 22 -12 35t-32 13
q-29 0 -49.5 -23.5t-31 -57.5t-10.5 -66q0 -23 12.5 -36.5t33.5 -13.5q28 0 48 24z" />
    <glyph glyph-name="perthousand" unicode="&#x2030;" horiz-adv-x="1432" 
d="M136.5 298.5q-39.5 40.5 -39.5 110.5q0 66 24.5 124t71 93.5t107.5 35.5q66 0 106.5 -42t40.5 -112q0 -66 -24.5 -123t-71 -92t-108.5 -35q-67 0 -106.5 40.5zM741 657h155l-568 -657h-155zM299 385.5q20 23.5 30 58t10 66.5q0 23 -12 36t-32 13q-29 0 -49 -23.5
t-30.5 -58t-10.5 -66.5q0 -23 12 -36t33 -13q29 0 49 23.5zM659 33q-40 41 -40 111q0 66 25 124t71 93.5t108 35.5q65 0 105.5 -42t40.5 -112q0 -66 -24.5 -123.5t-70.5 -92.5t-108 -35q-67 0 -107 41zM1053 33q-40 41 -40 111q0 66 24.5 124t70.5 93.5t108 35.5
q66 0 106 -42t40 -112q0 -66 -24.5 -123.5t-70.5 -92.5t-108 -35q-66 0 -106 41zM821 120q20 24 30.5 58.5t10.5 66.5q0 22 -12 35t-32 13q-29 0 -49.5 -23.5t-31 -57.5t-10.5 -66q0 -23 12.5 -36.5t33.5 -13.5q28 0 48 24zM1215 119.5q20 23.5 30 58.5t10 67q0 22 -12 35
t-32 13q-29 0 -49.5 -23.5t-31 -57.5t-10.5 -66q0 -23 12.5 -36.5t33.5 -13.5q29 0 49 23.5z" />
    <glyph glyph-name="at" unicode="@" horiz-adv-x="975" 
d="M216.5 -124q-80.5 50 -124 135.5t-43.5 188.5q0 146 72.5 260.5t194.5 178t264 63.5q107 0 191.5 -41.5t132 -113t47.5 -157.5q0 -95 -47 -171.5t-127 -119.5t-175 -43h-50l-12 48q-60 -49 -121 -49q-65 0 -103.5 43.5t-38.5 114.5q0 69 29.5 127.5t81 93t114.5 34.5
q30 0 60.5 -13t52.5 -33l19 37h95l-67 -306q86 16 138 81t52 159q0 57 -34.5 105.5t-96.5 76.5t-142 28q-117 0 -215 -49.5t-156 -140t-58 -208.5q0 -77 30.5 -141.5t88.5 -102t137 -37.5q65 0 115.5 17.5t101.5 50.5l52 -80q-58 -42 -127 -64t-145 -22q-106 0 -186.5 50z
M551 211l27 124q-26 20 -60 20q-50 0 -81 -35.5t-31 -87.5q0 -29 16 -46t41 -17q48 0 88 42z" />
    <glyph glyph-name="ampersand" unicode="&#x26;" horiz-adv-x="674" 
d="M133 11q-49 23 -75.5 64t-26.5 94q0 147 165 228q-21 45 -21 85q0 59 31 106t84 73.5t116 26.5q61 0 111 -29t84 -76l-99 -84q-37 52 -99 52q-39 0 -65 -22t-26 -59q0 -24 12.5 -48t43.5 -68l16 -23l78 -116q36 50 48 114l6 35h121l-9 -51q-24 -118 -99 -199l76 -114
h-156l-23 34q-83 -46 -180 -46q-64 0 -113 23zM361 134l-110 167q-85 -41 -85 -111q0 -36 27.5 -56.5t76.5 -20.5q51 0 91 21z" />
    <glyph glyph-name="paragraph" unicode="&#xb6;" horiz-adv-x="619" 
d="M224 -49q46 0 79 31t44 82l126 593l152 21l-135 -640q-24 -110 -92 -168.5t-173 -58.5h-45l30 140h14zM137 238.5q-62 46.5 -62 129.5q0 25 6 53q19 90 82 147t168 71l74 10l-92 -457q-114 0 -176 46.5z" />
    <glyph glyph-name="section" unicode="&#xa7;" horiz-adv-x="512" 
d="M103 -54q45 0 68.5 17t23.5 49q0 15 -8 28.5t-27 34.5l-60 57q-28 26 -42.5 55t-14.5 66q0 66 41 112.5t108 66.5q-13 33 -13 60q0 91 67.5 137.5t188.5 46.5h74l-27 -126h-78q-91 0 -91 -67q0 -15 8 -29.5t27 -34.5l58 -57q56 -54 56 -123q0 -63 -40.5 -109t-105.5 -66
q14 -28 14 -61q0 -89 -69.5 -136t-188.5 -47h-80l27 126h84zM313.5 176q26.5 22 26.5 54q0 15 -6 26.5t-20 27.5l-58 59q-38 -2 -64 -23.5t-26 -52.5q0 -16 6 -28.5t20 -28.5l56 -56q39 0 65.5 22z" />
    <glyph glyph-name="copyright" unicode="&#xa9;" horiz-adv-x="784" 
d="M229 32q-81 44 -128 123.5t-47 182.5q0 100 47.5 180t128.5 125t177 45q97 0 178 -44.5t129 -124.5t48 -181q0 -102 -48 -181.5t-129.5 -124t-177.5 -44.5q-97 0 -178 44zM556 86.5q66 36.5 104 102t38 149.5q0 85 -37.5 150.5t-104 102t-149.5 36.5t-149 -37
t-103.5 -102.5t-37.5 -149.5q0 -86 37 -151t103 -101t150 -36q83 0 149 36.5zM273 196.5q-53 51.5 -53 141.5q0 54 25 98.5t69.5 69.5t100.5 25q42 0 80 -17.5t62 -47.5l-64 -68q-31 33 -72 33q-40 0 -63.5 -25.5t-23.5 -67.5t23.5 -67.5t63.5 -25.5q43 0 78 35l63 -71
q-28 -30 -66 -47t-81 -17q-89 0 -142 51.5z" />
    <glyph glyph-name="registered" unicode="&#xae;" horiz-adv-x="573" 
d="M205 265q-58 31 -91.5 88t-33.5 130q0 71 34 128.5t92 89.5t127 32t127.5 -32t92.5 -89t34 -129q0 -73 -34.5 -129.5t-92.5 -88t-127 -31.5q-70 0 -128 31zM436.5 311q45.5 25 70.5 70t25 102q0 58 -25 103t-70.5 70t-103.5 25t-103.5 -25t-70.5 -70t-25 -103
q0 -57 25 -102t70.5 -70t103.5 -25t103.5 25zM342 608q44 0 71 -22.5t27 -58.5q0 -20 -10.5 -35.5t-28.5 -24.5q12 -10 22 -29l36 -70h-77l-19 36q-11 19 -18.5 25.5t-23.5 6.5h-20v-68h-68v240h109zM367 522q0 26 -34 26h-32v-51h32q34 0 34 25z" />
    <glyph glyph-name="trademark" unicode="&#x2122;" horiz-adv-x="909" 
d="M206 576h-112l21 100h324l-21 -100h-110l-59 -277h-102zM504 676h102l66 -198l156 198h104l-80 -377h-103l46 206l-99 -135h-84l-43 134l-45 -205h-100z" />
    <glyph glyph-name="degree" unicode="&#xb0;" horiz-adv-x="405" 
d="M181 401q-36 21 -57 57t-21 78t21 78t57 57.5t78 21.5t78 -21.5t57 -57.5t21 -78t-21 -78t-57 -57t-78 -21t-78 21zM302.5 493q17.5 18 17.5 43q0 26 -18 44t-43 18q-26 0 -43 -18t-17 -44t17 -43.5t43 -17.5t43.5 18z" />
    <glyph glyph-name="bar" unicode="|" horiz-adv-x="343" 
d="M194 735h155l-188 -887h-155z" />
    <glyph glyph-name="brokenbar" unicode="&#xa6;" horiz-adv-x="343" 
d="M194 735h155l-71 -335h-155zM78 184h154l-71 -336h-155z" />
    <glyph glyph-name="dagger" unicode="&#x2020;" horiz-adv-x="396" 
d="M193 481h-112l21 101h112l20 94l107 19l-24 -113h111l-21 -101h-112l-43 -203h-102z" />
    <glyph glyph-name="daggerdbl" unicode="&#x2021;" horiz-adv-x="410" 
d="M175 364h-110l19 91h111l12 55h-111l19 91h111l16 75l105 19l-20 -94h113l-20 -91h-112l-11 -55h111l-19 -91h-112l-18 -86h-102z" />
    <glyph glyph-name="at.case" horiz-adv-x="978" 
d="M236 -56.5q-81 50.5 -126 136.5t-45 189q0 144 72.5 258.5t194 178t262.5 63.5q108 0 193 -41.5t132.5 -113t47.5 -158.5q0 -95 -47 -171t-127 -119t-174 -43h-50l-11 48q-60 -48 -122 -48q-66 0 -104 42t-38 114q0 69 30 127.5t81.5 93.5t113.5 35q31 0 61.5 -12.5
t52.5 -32.5l19 36h94l-67 -305q86 15 138.5 80.5t52.5 157.5q0 59 -35 108t-98 77.5t-143 28.5q-116 0 -214.5 -50t-157 -141t-58.5 -207q0 -78 33 -143.5t92 -104t136 -38.5q65 0 115.5 18t100.5 51l52 -78q-57 -42 -126.5 -64.5t-144.5 -22.5q-105 0 -186 50.5zM568 277
l27 126q-26 20 -60 20q-50 0 -81 -36t-31 -88q0 -28 16.5 -46t40.5 -18q48 0 88 42z" />
    <glyph glyph-name="uni0308" unicode="&#x308;" horiz-adv-x="0" 
d="M-367 616q-20 19 -20 49q0 35 24.5 57.5t58.5 22.5q33 0 53.5 -18.5t20.5 -47.5q0 -37 -24.5 -59.5t-59.5 -22.5q-33 0 -53 19zM-151.5 615.5q-20.5 18.5 -20.5 47.5q0 36 24.5 59t60.5 23q32 0 52.5 -18.5t20.5 -47.5q0 -37 -24.5 -59.5t-59.5 -22.5q-33 0 -53.5 18.5z
" />
    <glyph glyph-name="uni0307" unicode="&#x307;" horiz-adv-x="0" 
d="M-263.5 614.5q-21.5 20.5 -21.5 52.5q0 39 26 63.5t65 24.5q37 0 58.5 -20t21.5 -53q0 -39 -26.5 -63.5t-66.5 -24.5q-35 0 -56.5 20.5z" />
    <glyph glyph-name="gravecomb" unicode="&#x300;" horiz-adv-x="0" 
d="M-322 749h146l98 -148h-132z" />
    <glyph glyph-name="acutecomb" unicode="&#x301;" horiz-adv-x="0" 
d="M-199 749h156l-174 -148h-140z" />
    <glyph glyph-name="uni0302" unicode="&#x302;" horiz-adv-x="0" 
d="M-251 749h129l96 -148h-117l-56 73l-82 -73h-129z" />
    <glyph glyph-name="uni030C" unicode="&#x30c;" horiz-adv-x="0" 
d="M-374 749h118l55 -74l83 74h128l-159 -148h-129z" />
    <glyph glyph-name="uni030A" unicode="&#x30a;" horiz-adv-x="0" 
d="M-246 628q-38 37 -38 91t38 91t92 37t92.5 -37t38.5 -91t-38.5 -91t-92.5 -37t-92 37zM-117 680q15 16 15 39t-15 38.5t-37 15.5t-37 -15.5t-15 -38.5t15 -39t37 -16t37 16z" />
    <glyph glyph-name="tildecomb" unicode="&#x303;" horiz-adv-x="0" 
d="M-160.5 602q-15.5 6 -29 13t-18.5 10q-23 12 -41.5 18t-37.5 6q-25 0 -44 -8.5t-53 -29.5l22 104q45 36 89 36q20 0 38.5 -7t41.5 -20q48 -26 83 -26q27 0 46.5 9.5t50.5 29.5l-22 -106q-45 -35 -92 -35q-18 0 -33.5 6z" />
    <glyph glyph-name="uni0327" unicode="&#x327;" horiz-adv-x="0" 
d="M-439 -107q32 0 54.5 19.5t22.5 49.5q0 11 -5.5 23.5t-19.5 31.5l74 17q24 -25 37 -48.5t13 -51.5q0 -65 -49.5 -100.5t-131.5 -35.5h-40l21 95h24z" />
    <glyph glyph-name="dieresis" unicode="&#xa8;" horiz-adv-x="576" 
d="M209 616q-20 19 -20 49q0 35 24.5 57.5t58.5 22.5q33 0 53.5 -18.5t20.5 -47.5q0 -37 -24.5 -59.5t-59.5 -22.5q-33 0 -53 19zM424.5 615.5q-20.5 18.5 -20.5 47.5q0 36 24.5 59t60.5 23q32 0 52.5 -18.5t20.5 -47.5q0 -37 -24.5 -59.5t-59.5 -22.5q-33 0 -53.5 18.5z
" />
    <glyph glyph-name="dotaccent" unicode="&#x2d9;" horiz-adv-x="576" 
d="M312.5 614.5q-21.5 20.5 -21.5 52.5q0 39 26 63.5t65 24.5q37 0 58.5 -20t21.5 -53q0 -39 -26.5 -63.5t-66.5 -24.5q-35 0 -56.5 20.5z" />
    <glyph glyph-name="grave" unicode="`" horiz-adv-x="576" 
d="M254 749h146l98 -148h-132z" />
    <glyph glyph-name="acute" unicode="&#xb4;" horiz-adv-x="576" 
d="M377 749h156l-174 -148h-140z" />
    <glyph glyph-name="circumflex" unicode="&#x2c6;" horiz-adv-x="576" 
d="M325 749h129l96 -148h-117l-56 73l-82 -73h-129z" />
    <glyph glyph-name="caron" unicode="&#x2c7;" horiz-adv-x="576" 
d="M202 749h118l55 -74l83 74h128l-159 -148h-129z" />
    <glyph glyph-name="ring" unicode="&#x2da;" horiz-adv-x="576" 
d="M330 628q-38 37 -38 91t38 91t92 37t92.5 -37t38.5 -91t-38.5 -91t-92.5 -37t-92 37zM459 680q15 16 15 39t-15 38.5t-37 15.5t-37 -15.5t-15 -38.5t15 -39t37 -16t37 16z" />
    <glyph glyph-name="tilde" unicode="&#x2dc;" horiz-adv-x="576" 
d="M415.5 602q-15.5 6 -29 13t-18.5 10q-23 12 -41.5 18t-37.5 6q-25 0 -44 -8.5t-53 -29.5l22 104q45 36 89 36q20 0 38.5 -7t41.5 -20q48 -26 83 -26q27 0 46.5 9.5t50.5 29.5l-22 -106q-45 -35 -92 -35q-18 0 -33.5 6z" />
    <glyph glyph-name="cedilla" unicode="&#xb8;" horiz-adv-x="576" 
d="M137 -107q32 0 54.5 19.5t22.5 49.5q0 11 -5.5 23.5t-19.5 31.5l74 17q24 -25 37 -48.5t13 -51.5q0 -65 -49.5 -100.5t-131.5 -35.5h-40l21 95h24z" />
    <glyph glyph-name="uni0308.case" horiz-adv-x="0" 
d="M-340.5 752.5q-20.5 18.5 -20.5 49.5q0 35 25 58.5t60 23.5q34 0 54.5 -18.5t20.5 -49.5q0 -37 -25 -59.5t-62 -22.5q-32 0 -52.5 18.5zM-120.5 752.5q-20.5 18.5 -20.5 48.5q0 36 25 59.5t61 23.5q33 0 53 -18.5t20 -49.5q0 -37 -24.5 -59.5t-60.5 -22.5
q-33 0 -53.5 18.5z" />
    <glyph glyph-name="uni0307.case" horiz-adv-x="0" 
d="M-236 754q-22 20 -22 54q0 39 27.5 64.5t67.5 25.5q37 0 59 -20.5t22 -54.5q0 -40 -27.5 -64.5t-67.5 -24.5q-37 0 -59 20z" />
    <glyph glyph-name="gravecomb.case" horiz-adv-x="0" 
d="M-297 889h149l105 -147h-133z" />
    <glyph glyph-name="acutecomb.case" horiz-adv-x="0" 
d="M-169 889h165l-183 -147h-150z" />
    <glyph glyph-name="uni0302.case" horiz-adv-x="0" 
d="M-223 889h134l102 -147h-127l-54 71l-86 -71h-135z" />
    <glyph glyph-name="uni030C.case" horiz-adv-x="0" 
d="M-354 889h128l54 -72l85 72h135l-165 -147h-134z" />
    <glyph glyph-name="uni030A.case" horiz-adv-x="0" 
d="M-231 753q-32 18 -51 48.5t-19 66.5q0 37 19 67.5t50.5 48t69.5 17.5q37 0 69 -17.5t50.5 -48t18.5 -67.5q0 -36 -19 -66.5t-50.5 -48.5t-68.5 -18t-69 18zM-123 828.5q16 16.5 16 39.5q0 24 -16 39.5t-39 15.5q-24 0 -40 -15.5t-16 -39.5t16 -40t40 -16q23 0 39 16.5z
" />
    <glyph glyph-name="tildecomb.case" horiz-adv-x="0" 
d="M-128.5 744.5q-15.5 5.5 -29.5 13.5t-21 11q-23 11 -41 17t-38 6q-25 0 -44.5 -8.5t-53.5 -29.5l22 104q46 35 91 35q20 0 37 -6t42 -19q28 -14 47 -21t40 -7q29 0 48 9.5t51 30.5l-22 -106q-46 -35 -95 -35q-18 0 -33.5 5.5z" />
    <glyph glyph-name="uni0327.case" horiz-adv-x="0" 
d="M-449 -110q35 0 60 19.5t25 49.5q0 12 -6.5 25.5t-22.5 32.5l82 19q28 -28 42 -52.5t14 -53.5q0 -70 -56.5 -106t-144.5 -36h-44l22 102h29z" />
    <glyph glyph-name="gravecomb.narrow.case" horiz-adv-x="0" 
d="M-316 889h141l74 -147h-128z" />
    <glyph glyph-name="acutecomb.narrow.case" horiz-adv-x="0" 
d="M-214 889h155l-149 -147h-143z" />
    <glyph glyph-name="gravecomb.narrow" horiz-adv-x="0" 
d="M-314 749h141l74 -148h-126z" />
    <glyph glyph-name="acutecomb.narrow" horiz-adv-x="0" 
d="M-216 749h156l-151 -148h-142z" />
    <glyph glyph-name="periodsuperior" horiz-adv-x="201" 
d="M75.5 342q-18.5 18 -18.5 47q0 34 22.5 56t53.5 22q30 0 48 -18t18 -47q0 -34 -22 -56t-54 -22q-29 0 -47.5 18z" />
    <glyph glyph-name="commasuperior" horiz-adv-x="200" 
d="M95 458h118q-14 -45 -39 -94.5t-56 -90.5h-108q61 105 85 185z" />
    </font>
</defs>
</svg>
