<?xml version="1.0" standalone="no"?>
<!DOCTYPE svg PUBLIC "-//W3C//DTD SVG 1.1//EN" "http://www.w3.org/Graphics/SVG/1.1/DTD/svg11.dtd" >
<svg xmlns="http://www.w3.org/2000/svg" xmlns:xlink="http://www.w3.org/1999/xlink" version="1.1">
<metadata>
Created by FontForge 20190801 at Thu Dec 19 10:01:09 2019
 By Henrique Beier
Copyright (c) 2019 Banco Bradesco S.A. All rights reserved.
</metadata>
<defs>
<font id="BradescoSans-Regular" horiz-adv-x="586" >
  <font-face 
    font-family="Bradesco Sans"
    font-weight="400"
    font-stretch="normal"
    units-per-em="1000"
    panose-1="0 0 5 0 0 0 0 0 0 0"
    ascent="800"
    descent="-200"
    x-height="520"
    cap-height="676"
    bbox="-461 -223 1299 981"
    underline-thickness="50"
    underline-position="-100"
    unicode-range="U+0020-FB02"
  />
<missing-glyph horiz-adv-x="471" 
d="M386 -211h-298v941h298v-941zM158 667v-31h61v-35h-62v-31h156v31h-62v35h62v31h-155zM157 546v-98h156v32h-62v66h-94zM219 480h-31v34h31v-34zM157 422v-31h62v-35h-62v-31h94v66h62v31h-156zM282 366v-62h-125v-32h156v94h-31zM219 251v-53h32v22h31v-44h-94v75h-31
v-106h156v106h-94zM157 88v-106h156v106h-156zM282 13h-94v44h94v-44zM157 -40v-31h66l-66 -44v-31h156v31h-96l66 44h30v31h-156z" />
    <glyph glyph-name="fi" unicode="fi" horiz-adv-x="628" 
d="M125.5 691q51.5 52 137.5 52q34 0 66.5 -13t58.5 -36l-38 -54q-40 31 -88 31q-51 0 -79.5 -31t-28.5 -87v-34h217v-70h-217v-449h-80v546q0 93 51.5 145zM476 631.5q-15 14.5 -15 36.5q0 23 14.5 37.5t37.5 14.5q22 0 37 -14.5t15 -37.5q0 -22 -15 -36.5t-37 -14.5
t-37 14.5zM472 520h80v-520h-80v520z" />
    <glyph glyph-name="fl" unicode="fl" horiz-adv-x="700" 
d="M125.5 691q51.5 52 137.5 52q34 0 66.5 -13t58.5 -36l-38 -54q-40 31 -88 31q-51 0 -79.5 -31t-28.5 -87v-34h217v-70h-217v-449h-80v546q0 93 51.5 145zM516.5 42q-42.5 48 -42.5 137v548l80 16v-568q0 -54 24 -83t70 -29h23v-69h-32q-80 0 -122.5 48z" />
    <glyph glyph-name=".notdef" horiz-adv-x="471" 
d="M386 -211h-298v941h298v-941zM158 667v-31h61v-35h-62v-31h156v31h-62v35h62v31h-155zM157 546v-98h156v32h-62v66h-94zM219 480h-31v34h31v-34zM157 422v-31h62v-35h-62v-31h94v66h62v31h-156zM282 366v-62h-125v-32h156v94h-31zM219 251v-53h32v22h31v-44h-94v75h-31
v-106h156v106h-94zM157 88v-106h156v106h-156zM282 13h-94v44h94v-44zM157 -40v-31h66l-66 -44v-31h156v31h-96l66 44h30v31h-156z" />
    <glyph glyph-name="space" unicode=" " horiz-adv-x="255" 
 />
    <glyph glyph-name="A" unicode="A" horiz-adv-x="650" 
d="M289 676h73l266 -676h-85l-71 187h-298l-72 -187h-81zM444 262l-120 316l-121 -316h241z" />
    <glyph glyph-name="Aacute" unicode="&#xc1;" horiz-adv-x="650" 
d="M289 676h73l266 -676h-85l-71 187h-298l-72 -187h-81zM444 262l-120 316l-121 -316h241zM388 872h102l-148 -130h-90z" />
    <glyph glyph-name="Acircumflex" unicode="&#xc2;" horiz-adv-x="650" 
d="M289 676h73l266 -676h-85l-71 187h-298l-72 -187h-81zM444 262l-120 316l-121 -316h241zM280 871h89l123 -130h-85l-83 80l-83 -80h-84z" />
    <glyph glyph-name="Adieresis" unicode="&#xc4;" horiz-adv-x="650" 
d="M289 676h73l266 -676h-85l-71 187h-298l-72 -187h-81zM444 262l-120 316l-121 -316h241zM197.5 764q-14.5 14 -14.5 36t14.5 36t37.5 14q22 0 37 -14t15 -36t-15 -36t-37 -14q-23 0 -37.5 14zM379 764q-15 14 -15 36t14.5 36t37.5 14t37.5 -14t14.5 -36t-14.5 -36
t-37.5 -14q-22 0 -37 14z" />
    <glyph glyph-name="Agrave" unicode="&#xc0;" horiz-adv-x="650" 
d="M289 676h73l266 -676h-85l-71 187h-298l-72 -187h-81zM444 262l-120 316l-121 -316h241zM160 872h101l137 -130h-89z" />
    <glyph glyph-name="Aring" unicode="&#xc5;" horiz-adv-x="650" 
d="M628 0h-85l-71 187h-298l-72 -187h-81l253 639q-33 14 -53.5 44t-20.5 68q0 51 36 85.5t87 34.5t87 -35t36 -85q0 -37 -19 -66t-51 -44zM278 796.5q-19 -18.5 -19 -45.5q0 -29 18.5 -48t45.5 -19t46 19t19 48q0 27 -19 45.5t-46 18.5q-26 0 -45 -18.5zM203 262h241
l-120 316z" />
    <glyph glyph-name="Atilde" unicode="&#xc3;" horiz-adv-x="650" 
d="M289 676h73l266 -676h-85l-71 187h-298l-72 -187h-81zM444 262l-120 316l-121 -316h241zM326 777q-19 12 -33 17.5t-31 5.5q-25 0 -46.5 -9.5t-47.5 -27.5v66q44 35 94 35q41 0 76 -22q23 -14 36.5 -19.5t30.5 -5.5q27 0 49.5 10.5t46.5 27.5v-68q-45 -35 -97 -35
q-39 0 -78 25z" />
    <glyph glyph-name="AE" unicode="&#xc6;" horiz-adv-x="993" 
d="M484 676h455v-77h-351v-211h306v-78h-306v-232h361v-78h-442v182h-282l-128 -182h-92zM507 254v329l-231 -329h231z" />
    <glyph glyph-name="B" unicode="B" horiz-adv-x="608" 
d="M309 676q100 0 155.5 -51t55.5 -131q0 -45 -22 -81t-61 -59q58 -19 90.5 -62.5t32.5 -102.5q0 -88 -58.5 -138.5t-162.5 -50.5h-253v676h223zM406.5 409.5q34.5 29.5 34.5 83.5q0 53 -36.5 83t-107.5 30h-133v-226h141q67 0 101.5 29.5zM440 100q39 30 39 90
q0 52 -38.5 84.5t-104.5 32.5h-172v-237h163q74 0 113 30z" />
    <glyph glyph-name="C" unicode="C" horiz-adv-x="654" 
d="M204.5 34q-71.5 44 -110.5 123t-39 181q0 100 41 179t113.5 124t163.5 45q66 0 122 -26.5t99 -74.5l-53 -53q-69 77 -167 77q-71 0 -124.5 -34t-82.5 -96t-29 -141q0 -80 29.5 -141.5t82.5 -95.5t121 -34q101 0 178 79l54 -54q-96 -102 -234 -102q-93 0 -164.5 44z" />
    <glyph glyph-name="Ccedilla" unicode="&#xc7;" horiz-adv-x="654" 
d="M404 -8q30 -38 30 -76q0 -52 -39 -79t-104 -27h-25v64h23q34 0 54.5 13t20.5 38q0 30 -32 67q-83 8 -146 54t-97 121.5t-34 170.5q0 100 41 179t113.5 124t163.5 45q66 0 122 -26.5t99 -74.5l-53 -53q-69 77 -167 77q-71 0 -124.5 -34t-82.5 -96t-29 -141
q0 -80 29.5 -141.5t82.5 -95.5t121 -34q101 0 178 79l54 -54q-84 -89 -199 -100z" />
    <glyph glyph-name="D" unicode="D" horiz-adv-x="678" 
d="M285 676q103 0 180 -41.5t118 -117.5t41 -177t-41.5 -178t-118 -119.5t-178.5 -42.5h-200v676h199zM474 147q67 70 67 193q0 121 -66.5 190.5t-187.5 69.5h-119v-523h119q120 0 187 70z" />
    <glyph glyph-name="Eth" unicode="&#xd0;" horiz-adv-x="703" 
d="M19 303v70h92v303h199q103 0 180 -41.5t118 -117.5t41 -177t-41.5 -178t-118 -119.5t-178.5 -42.5h-200v303h-92zM499 147q67 70 67 193q0 121 -66.5 190.5t-187.5 69.5h-119v-227h199v-70h-199v-226h119q120 0 187 70z" />
    <glyph glyph-name="E" unicode="E" horiz-adv-x="572" 
d="M86 676h432v-77h-351v-211h307v-78h-307v-232h362v-78h-443v676z" />
    <glyph glyph-name="Eacute" unicode="&#xc9;" horiz-adv-x="572" 
d="M86 676h432v-77h-351v-211h307v-78h-307v-232h362v-78h-443v676zM371 872h102l-148 -130h-90z" />
    <glyph glyph-name="Ecircumflex" unicode="&#xca;" horiz-adv-x="572" 
d="M86 676h432v-77h-351v-211h307v-78h-307v-232h362v-78h-443v676zM263 871h89l123 -130h-85l-83 80l-83 -80h-84z" />
    <glyph glyph-name="Edieresis" unicode="&#xcb;" horiz-adv-x="572" 
d="M86 676h432v-77h-351v-211h307v-78h-307v-232h362v-78h-443v676zM180.5 764q-14.5 14 -14.5 36t14.5 36t37.5 14q22 0 37 -14t15 -36t-15 -36t-37 -14q-23 0 -37.5 14zM362 764q-15 14 -15 36t14.5 36t37.5 14t37.5 -14t14.5 -36t-14.5 -36t-37.5 -14q-22 0 -37 14z" />
    <glyph glyph-name="Egrave" unicode="&#xc8;" horiz-adv-x="572" 
d="M86 676h432v-77h-351v-211h307v-78h-307v-232h362v-78h-443v676zM143 872h101l137 -130h-89z" />
    <glyph glyph-name="F" unicode="F" horiz-adv-x="561" 
d="M86 676h433v-78h-351v-213h305v-77h-305v-308h-82v676z" />
    <glyph glyph-name="G" unicode="G" horiz-adv-x="679" 
d="M202.5 33q-70.5 43 -109 122t-38.5 183q0 102 41.5 181t115 123t167.5 44q65 0 123.5 -27.5t96.5 -73.5l-50 -51q-70 75 -169 75q-72 0 -127 -33.5t-85.5 -95t-30.5 -142.5q0 -80 29 -141.5t81.5 -95.5t121.5 -34q52 0 92.5 14t74.5 42v158h-176v73h254v-265
q-48 -47 -113.5 -73t-134.5 -26q-93 0 -163.5 43z" />
    <glyph glyph-name="H" unicode="H" horiz-adv-x="687" 
d="M86 676h82v-288h351v288h82v-676h-82v310h-351v-310h-82v676z" />
    <glyph glyph-name="I" unicode="I" horiz-adv-x="254" 
d="M86 676h82v-676h-82v676z" />
    <glyph glyph-name="Iacute" unicode="&#xcd;" horiz-adv-x="254" 
d="M86 676h82v-676h-82v676zM184 872h91l-112 -130h-79z" />
    <glyph glyph-name="Icircumflex" unicode="&#xce;" horiz-adv-x="254" 
d="M86 676h82v-676h-82v676zM82 871h89l123 -130h-85l-83 80l-83 -80h-84z" />
    <glyph glyph-name="Idieresis" unicode="&#xcf;" horiz-adv-x="254" 
d="M86 676h82v-676h-82v676zM-0.5 764q-14.5 14 -14.5 36t14.5 36t37.5 14q22 0 37 -14t15 -36t-15 -36t-37 -14q-23 0 -37.5 14zM181 764q-15 14 -15 36t14.5 36t37.5 14t37.5 -14t14.5 -36t-14.5 -36t-37.5 -14q-22 0 -37 14z" />
    <glyph glyph-name="Igrave" unicode="&#xcc;" horiz-adv-x="254" 
d="M86 676h82v-676h-82v676zM-21 872h92l99 -130h-79z" />
    <glyph glyph-name="J" unicode="J" horiz-adv-x="390" 
d="M87 78q67 0 102.5 41t35.5 115v442h82v-443q0 -112 -55 -172.5t-159 -60.5h-56v78h50z" />
    <glyph glyph-name="K" unicode="K" horiz-adv-x="659" 
d="M168 676v-291h88q42 0 66.5 11t42.5 34t49 76l102 170h90l-125 -206q-26 -42 -46 -69t-42 -46l251 -355h-99l-224 316q-27 -8 -54 -8h-99v-308h-82v676h82z" />
    <glyph glyph-name="L" unicode="L" horiz-adv-x="557" 
d="M86 676h82v-597h351v-79h-433v676z" />
    <glyph glyph-name="M" unicode="M" horiz-adv-x="849" 
d="M86 676h79l252 -457l271 457h75v-676h-81v526l-233 -389h-67l-215 384v-521h-81v676z" />
    <glyph glyph-name="N" unicode="N" horiz-adv-x="682" 
d="M86 676h67l363 -530v530h79v-676h-67l-363 529v-529h-79v676z" />
    <glyph glyph-name="Ntilde" unicode="&#xd1;" horiz-adv-x="682" 
d="M86 676h67l363 -530v530h79v-676h-67l-363 529v-529h-79v676zM342 777q-19 12 -33 17.5t-31 5.5q-25 0 -46.5 -9.5t-47.5 -27.5v66q44 35 94 35q41 0 76 -22q23 -14 36.5 -19.5t30.5 -5.5q27 0 49.5 10.5t46.5 27.5v-68q-45 -35 -97 -35q-39 0 -78 25z" />
    <glyph glyph-name="O" unicode="O" horiz-adv-x="738" 
d="M207.5 34.5q-71.5 44.5 -112 124t-40.5 180.5q0 98 41 177t112.5 124.5t160.5 45.5t161 -44.5t113 -123.5t41 -179q0 -99 -41 -179t-113 -125t-161 -45q-90 0 -161.5 44.5zM489 101.5q53 34.5 82.5 96.5t29.5 141q0 78 -29.5 139.5t-82 96t-119.5 34.5q-68 0 -121 -35
t-82 -96.5t-29 -138.5q0 -79 29 -141t81.5 -96.5t120.5 -34.5q67 0 120 34.5z" />
    <glyph glyph-name="Oacute" unicode="&#xd3;" horiz-adv-x="738" 
d="M207.5 34.5q-71.5 44.5 -112 124t-40.5 180.5q0 98 41 177t112.5 124.5t160.5 45.5t161 -44.5t113 -123.5t41 -179q0 -99 -41 -179t-113 -125t-161 -45q-90 0 -161.5 44.5zM489 101.5q53 34.5 82.5 96.5t29.5 141q0 78 -29.5 139.5t-82 96t-119.5 34.5q-68 0 -121 -35
t-82 -96.5t-29 -138.5q0 -79 29 -141t81.5 -96.5t120.5 -34.5q67 0 120 34.5zM432 872h102l-148 -130h-90z" />
    <glyph glyph-name="Ocircumflex" unicode="&#xd4;" horiz-adv-x="738" 
d="M207.5 34.5q-71.5 44.5 -112 124t-40.5 180.5q0 98 41 177t112.5 124.5t160.5 45.5t161 -44.5t113 -123.5t41 -179q0 -99 -41 -179t-113 -125t-161 -45q-90 0 -161.5 44.5zM489 101.5q53 34.5 82.5 96.5t29.5 141q0 78 -29.5 139.5t-82 96t-119.5 34.5q-68 0 -121 -35
t-82 -96.5t-29 -138.5q0 -79 29 -141t81.5 -96.5t120.5 -34.5q67 0 120 34.5zM325 871h89l123 -130h-85l-83 80l-83 -80h-84z" />
    <glyph glyph-name="Odieresis" unicode="&#xd6;" horiz-adv-x="738" 
d="M207.5 34.5q-71.5 44.5 -112 124t-40.5 180.5q0 98 41 177t112.5 124.5t160.5 45.5t161 -44.5t113 -123.5t41 -179q0 -99 -41 -179t-113 -125t-161 -45q-90 0 -161.5 44.5zM489 101.5q53 34.5 82.5 96.5t29.5 141q0 78 -29.5 139.5t-82 96t-119.5 34.5q-68 0 -121 -35
t-82 -96.5t-29 -138.5q0 -79 29 -141t81.5 -96.5t120.5 -34.5q67 0 120 34.5zM242.5 764q-14.5 14 -14.5 36t14.5 36t37.5 14q22 0 37 -14t15 -36t-15 -36t-37 -14q-23 0 -37.5 14zM424 764q-15 14 -15 36t14.5 36t37.5 14t37.5 -14t14.5 -36t-14.5 -36t-37.5 -14
q-22 0 -37 14z" />
    <glyph glyph-name="Ograve" unicode="&#xd2;" horiz-adv-x="738" 
d="M207.5 34.5q-71.5 44.5 -112 124t-40.5 180.5q0 98 41 177t112.5 124.5t160.5 45.5t161 -44.5t113 -123.5t41 -179q0 -99 -41 -179t-113 -125t-161 -45q-90 0 -161.5 44.5zM489 101.5q53 34.5 82.5 96.5t29.5 141q0 78 -29.5 139.5t-82 96t-119.5 34.5q-68 0 -121 -35
t-82 -96.5t-29 -138.5q0 -79 29 -141t81.5 -96.5t120.5 -34.5q67 0 120 34.5zM205 872h101l137 -130h-89z" />
    <glyph glyph-name="Oslash" unicode="&#xd8;" horiz-adv-x="738" 
d="M77.5 199q-22.5 64 -22.5 140q0 98 41 177t112.5 124.5t160.5 45.5q100 0 178 -56l68 91h87l-103 -138q40 -47 62.5 -109.5t22.5 -134.5q0 -100 -41 -179.5t-113 -125t-161 -45.5q-97 0 -175 53l-66 -88h-86l100 134q-42 47 -64.5 111zM370 609q-68 0 -121 -35t-82 -96.5
t-29 -138.5q0 -110 54 -183l308 410q-55 43 -130 43zM489 101q53 35 82.5 97t29.5 141q0 103 -51 178l-308 -410q55 -41 127 -41q67 0 120 35z" />
    <glyph glyph-name="Otilde" unicode="&#xd5;" horiz-adv-x="738" 
d="M207.5 34.5q-71.5 44.5 -112 124t-40.5 180.5q0 98 41 177t112.5 124.5t160.5 45.5t161 -44.5t113 -123.5t41 -179q0 -99 -41 -179t-113 -125t-161 -45q-90 0 -161.5 44.5zM489 101.5q53 34.5 82.5 96.5t29.5 141q0 78 -29.5 139.5t-82 96t-119.5 34.5q-68 0 -121 -35
t-82 -96.5t-29 -138.5q0 -79 29 -141t81.5 -96.5t120.5 -34.5q67 0 120 34.5zM371 777q-19 12 -33 17.5t-31 5.5q-25 0 -46.5 -9.5t-47.5 -27.5v66q44 35 94 35q41 0 76 -22q23 -14 36.5 -19.5t30.5 -5.5q27 0 49.5 10.5t46.5 27.5v-68q-45 -35 -97 -35q-39 0 -78 25z" />
    <glyph glyph-name="OE" unicode="&#x152;" horiz-adv-x="1088" 
d="M207 33.5q-71 44.5 -111.5 124.5t-40.5 181q0 98 41 177.5t112.5 124.5t158.5 45q73 0 134 -33.5t100 -94.5v118h432v-77h-350v-211h306v-78h-306v-232h361v-78h-443v121q-40 -62 -101 -97t-133 -35q-89 0 -160 44.5zM489 101.5q53 35.5 82.5 98t29.5 140.5t-29 139.5
t-81.5 95.5t-120.5 34t-120.5 -35t-82 -96.5t-29.5 -137.5q0 -78 28.5 -140.5t81 -98t121.5 -35.5q67 0 120 35.5z" />
    <glyph glyph-name="P" unicode="P" horiz-adv-x="597" 
d="M322 676q72 0 124 -27.5t79 -75t27 -108.5q0 -60 -27.5 -107.5t-79.5 -75t-123 -27.5h-155v-255h-81v676h236zM428.5 366q40.5 35 40.5 99t-40.5 100.5t-116.5 36.5h-145v-271h145q76 0 116.5 35z" />
    <glyph glyph-name="Thorn" unicode="&#xde;" horiz-adv-x="597" 
d="M167 676v-94h155q72 0 124 -27.5t79 -75t27 -108.5q0 -60 -27.5 -107.5t-79.5 -75t-123 -27.5h-155v-161h-81v676h81zM428 272.5q40 35.5 40 98.5q0 64 -40 101t-116 37h-145v-272h145q76 0 116 35.5z" />
    <glyph glyph-name="Q" unicode="Q" horiz-adv-x="738" 
d="M369 -11q-90 0 -161.5 44.5t-112 124.5t-40.5 181q0 98 41 177t112.5 124.5t160.5 45.5t161 -44.5t113 -123.5t41 -179q0 -81 -27.5 -149.5t-76.5 -116.5l89 -122l-62 -43l-87 120q-69 -39 -151 -39zM473 91l-85 117l63 44l82 -113q33 36 50.5 87.5t17.5 112.5
q0 78 -29 139.5t-81.5 96t-120.5 34.5t-121 -35t-82 -96.5t-29 -138.5q0 -79 29 -141t82 -97t121 -35q56 0 103 25z" />
    <glyph glyph-name="R" unicode="R" horiz-adv-x="608" 
d="M313 676q108 0 168.5 -54.5t60.5 -143.5q0 -60 -34.5 -106.5t-95.5 -68.5q55 -39 99 -131l83 -172h-90l-65 133q-24 49 -45 79t-51.5 47t-73.5 17h-102v-276h-81v676h227zM419 384.5q41 34.5 41 91.5q0 61 -40 94t-117 33h-136v-253h136q75 0 116 34.5z" />
    <glyph glyph-name="S" unicode="S" horiz-adv-x="582" 
d="M30 100l49 52q87 -87 217 -87q73 0 114 28.5t41 80.5q0 56 -42 84.5t-133 50.5q-80 19 -127 42.5t-70.5 60.5t-23.5 95q0 50 29.5 91t82 64.5t120.5 23.5q132 0 225 -99l-50 -50q-37 36 -82.5 55t-92.5 19q-72 0 -112 -28t-40 -78q0 -37 19.5 -59t55 -35t103.5 -29
q115 -28 167 -76.5t52 -126.5q0 -86 -62.5 -138t-175.5 -52q-161 0 -264 111z" />
    <glyph glyph-name="Scaron" unicode="&#x160;" horiz-adv-x="582" 
d="M30 100l49 52q87 -87 217 -87q73 0 114 28.5t41 80.5q0 56 -42 84.5t-133 50.5q-80 19 -127 42.5t-70.5 60.5t-23.5 95q0 50 29.5 91t82 64.5t120.5 23.5q132 0 225 -99l-50 -50q-37 36 -82.5 55t-92.5 19q-72 0 -112 -28t-40 -78q0 -37 19.5 -59t55 -35t103.5 -29
q115 -28 167 -76.5t52 -126.5q0 -86 -62.5 -138t-175.5 -52q-161 0 -264 111zM121 871h85l83 -80l83 80h84l-123 -130h-89z" />
    <glyph glyph-name="uni1E9E" unicode="&#x1e9e;" horiz-adv-x="676" 
d="M314 7.5q-47 17.5 -89 55.5l44 54q35 -30 69 -42.5t78 -12.5q64 0 102.5 32.5t38.5 86.5q0 58 -44.5 92.5t-123.5 34.5h-66v56l166 204q-52 44 -135 44q-92 0 -144 -58.5t-52 -169.5v-384h-81v385q0 91 34.5 159t97 105t144.5 37q77 0 132.5 -28t101.5 -72l-174 -214
l22 -1q59 -2 104.5 -26.5t71 -66.5t25.5 -94q0 -58 -26.5 -102t-74.5 -68t-112 -24q-62 0 -109 17.5z" />
    <glyph glyph-name="T" unicode="T" horiz-adv-x="613" 
d="M265 598h-230v78h542v-78h-230v-598h-82v598z" />
    <glyph glyph-name="U" unicode="U" horiz-adv-x="694" 
d="M149 75.5q-72 86.5 -72 243.5v357h82v-357q0 -125 49.5 -189t138.5 -64t138.5 63.5t49.5 188.5v358h82v-356q0 -103 -33 -177.5t-94 -114t-143 -39.5q-126 0 -198 86.5z" />
    <glyph glyph-name="Uacute" unicode="&#xda;" horiz-adv-x="694" 
d="M149 75.5q-72 86.5 -72 243.5v357h82v-357q0 -125 49.5 -189t138.5 -64t138.5 63.5t49.5 188.5v358h82v-356q0 -103 -33 -177.5t-94 -114t-143 -39.5q-126 0 -198 86.5zM411 872h102l-148 -130h-90z" />
    <glyph glyph-name="Ucircumflex" unicode="&#xdb;" horiz-adv-x="694" 
d="M149 75.5q-72 86.5 -72 243.5v357h82v-357q0 -125 49.5 -189t138.5 -64t138.5 63.5t49.5 188.5v358h82v-356q0 -103 -33 -177.5t-94 -114t-143 -39.5q-126 0 -198 86.5zM303 871h89l123 -130h-85l-83 80l-83 -80h-84z" />
    <glyph glyph-name="Udieresis" unicode="&#xdc;" horiz-adv-x="694" 
d="M149 75.5q-72 86.5 -72 243.5v357h82v-357q0 -125 49.5 -189t138.5 -64t138.5 63.5t49.5 188.5v358h82v-356q0 -103 -33 -177.5t-94 -114t-143 -39.5q-126 0 -198 86.5zM220.5 764q-14.5 14 -14.5 36t14.5 36t37.5 14q22 0 37 -14t15 -36t-15 -36t-37 -14q-23 0 -37.5 14
zM402 764q-15 14 -15 36t14.5 36t37.5 14t37.5 -14t14.5 -36t-14.5 -36t-37.5 -14q-22 0 -37 14z" />
    <glyph glyph-name="Ugrave" unicode="&#xd9;" horiz-adv-x="694" 
d="M149 75.5q-72 86.5 -72 243.5v357h82v-357q0 -125 49.5 -189t138.5 -64t138.5 63.5t49.5 188.5v358h82v-356q0 -103 -33 -177.5t-94 -114t-143 -39.5q-126 0 -198 86.5zM183 872h101l137 -130h-89z" />
    <glyph glyph-name="V" unicode="V" horiz-adv-x="655" 
d="M22 676h90l217 -568l217 568h86l-268 -676h-75z" />
    <glyph glyph-name="W" unicode="W" horiz-adv-x="947" 
d="M29 676h87l152 -561l170 521h81l164 -521l151 561h85l-198 -676h-78l-171 522l-167 -522h-78z" />
    <glyph glyph-name="Wacute" unicode="&#x1e82;" horiz-adv-x="947" 
d="M29 676h87l152 -561l170 521h81l164 -521l151 561h85l-198 -676h-78l-171 522l-167 -522h-78zM536 872h102l-148 -130h-90z" />
    <glyph glyph-name="Wcircumflex" unicode="&#x174;" horiz-adv-x="947" 
d="M29 676h87l152 -561l170 521h81l164 -521l151 561h85l-198 -676h-78l-171 522l-167 -522h-78zM429 871h89l123 -130h-85l-83 80l-83 -80h-84z" />
    <glyph glyph-name="Wdieresis" unicode="&#x1e84;" horiz-adv-x="947" 
d="M29 676h87l152 -561l170 521h81l164 -521l151 561h85l-198 -676h-78l-171 522l-167 -522h-78zM346.5 764q-14.5 14 -14.5 36t14.5 36t37.5 14q22 0 37 -14t15 -36t-15 -36t-37 -14q-23 0 -37.5 14zM528 764q-15 14 -15 36t14.5 36t37.5 14t37.5 -14t14.5 -36t-14.5 -36
t-37.5 -14q-22 0 -37 14z" />
    <glyph glyph-name="Wgrave" unicode="&#x1e80;" horiz-adv-x="947" 
d="M29 676h87l152 -561l170 521h81l164 -521l151 561h85l-198 -676h-78l-171 522l-167 -522h-78zM309 872h101l137 -130h-89z" />
    <glyph glyph-name="X" unicode="X" horiz-adv-x="645" 
d="M273 354l-230 322h98l183 -261l183 261h93l-230 -321l253 -355h-97l-207 293l-205 -293h-93z" />
    <glyph glyph-name="Y" unicode="Y" horiz-adv-x="582" 
d="M251 260l-233 416h91l184 -339l183 339h90l-233 -417v-259h-82v260z" />
    <glyph glyph-name="Yacute" unicode="&#xdd;" horiz-adv-x="582" 
d="M251 260l-233 416h91l184 -339l183 339h90l-233 -417v-259h-82v260zM354 872h102l-148 -130h-90z" />
    <glyph glyph-name="Ycircumflex" unicode="&#x176;" horiz-adv-x="582" 
d="M251 260l-233 416h91l184 -339l183 339h90l-233 -417v-259h-82v260zM246 871h89l123 -130h-85l-83 80l-83 -80h-84z" />
    <glyph glyph-name="Ydieresis" unicode="&#x178;" horiz-adv-x="582" 
d="M251 260l-233 416h91l184 -339l183 339h90l-233 -417v-259h-82v260zM163.5 764q-14.5 14 -14.5 36t14.5 36t37.5 14q22 0 37 -14t15 -36t-15 -36t-37 -14q-23 0 -37.5 14zM345 764q-15 14 -15 36t14.5 36t37.5 14t37.5 -14t14.5 -36t-14.5 -36t-37.5 -14q-22 0 -37 14z
" />
    <glyph glyph-name="Ygrave" unicode="&#x1ef2;" horiz-adv-x="582" 
d="M251 260l-233 416h91l184 -339l183 339h90l-233 -417v-259h-82v260zM126 872h101l137 -130h-89z" />
    <glyph glyph-name="Z" unicode="Z" horiz-adv-x="603" 
d="M40 63l408 535h-395v78h499v-63l-408 -534h419v-79h-523v63z" />
    <glyph glyph-name="Zcaron" unicode="&#x17d;" horiz-adv-x="603" 
d="M40 63l408 535h-395v78h499v-63l-408 -534h419v-79h-523v63zM135 871h85l83 -80l83 80h84l-123 -130h-89z" />
    <glyph glyph-name="a" unicode="a" horiz-adv-x="538" 
d="M98.5 29q-45.5 39 -45.5 109q0 72 56 113t156 41h130v21q0 75 -31.5 110t-99.5 35q-40 0 -77.5 -16t-66.5 -45l-49 50q38 39 89 61t107 22q101 0 153 -56.5t52 -168.5v-305h-49l-24 74q-35 -38 -82.5 -61t-92.5 -23q-80 0 -125.5 39zM317 83.5q45 24.5 78 62.5v80h-133
q-63 0 -98.5 -23t-35.5 -64q0 -36 28.5 -58t73.5 -22q42 0 87 24.5z" />
    <glyph glyph-name="aacute" unicode="&#xe1;" horiz-adv-x="538" 
d="M98.5 29q-45.5 39 -45.5 109q0 72 56 113t156 41h130v21q0 75 -31.5 110t-99.5 35q-40 0 -77.5 -16t-66.5 -45l-49 50q38 39 89 61t107 22q101 0 153 -56.5t52 -168.5v-305h-49l-24 74q-35 -38 -82.5 -61t-92.5 -23q-80 0 -125.5 39zM317 83.5q45 24.5 78 62.5v80h-133
q-63 0 -98.5 -23t-35.5 -64q0 -36 28.5 -58t73.5 -22q42 0 87 24.5zM333 736h99l-146 -137h-88z" />
    <glyph glyph-name="acircumflex" unicode="&#xe2;" horiz-adv-x="538" 
d="M98.5 29q-45.5 39 -45.5 109q0 72 56 113t156 41h130v21q0 75 -31.5 110t-99.5 35q-40 0 -77.5 -16t-66.5 -45l-49 50q38 39 89 61t107 22q101 0 153 -56.5t52 -168.5v-305h-49l-24 74q-35 -38 -82.5 -61t-92.5 -23q-80 0 -125.5 39zM317 83.5q45 24.5 78 62.5v80h-133
q-63 0 -98.5 -23t-35.5 -64q0 -36 28.5 -58t73.5 -22q42 0 87 24.5zM226 736h87l120 -137h-82l-82 85l-83 -85h-80z" />
    <glyph glyph-name="adieresis" unicode="&#xe4;" horiz-adv-x="538" 
d="M98.5 29q-45.5 39 -45.5 109q0 72 56 113t156 41h130v21q0 75 -31.5 110t-99.5 35q-40 0 -77.5 -16t-66.5 -45l-49 50q38 39 89 61t107 22q101 0 153 -56.5t52 -168.5v-305h-49l-24 74q-35 -38 -82.5 -61t-92.5 -23q-80 0 -125.5 39zM317 83.5q45 24.5 78 62.5v80h-133
q-63 0 -98.5 -23t-35.5 -64q0 -36 28.5 -58t73.5 -22q42 0 87 24.5zM143 631.5q-14 14.5 -14 35.5q0 23 14 37.5t37 14.5q22 0 36.5 -14.5t14.5 -37.5q0 -21 -14.5 -35.5t-36.5 -14.5q-23 0 -37 14.5zM323.5 631.5q-14.5 14.5 -14.5 35.5q0 23 14 37.5t37 14.5t37 -14.5
t14 -37.5q0 -21 -14.5 -35.5t-36.5 -14.5t-36.5 14.5z" />
    <glyph glyph-name="agrave" unicode="&#xe0;" horiz-adv-x="538" 
d="M98.5 29q-45.5 39 -45.5 109q0 72 56 113t156 41h130v21q0 75 -31.5 110t-99.5 35q-40 0 -77.5 -16t-66.5 -45l-49 50q38 39 89 61t107 22q101 0 153 -56.5t52 -168.5v-305h-49l-24 74q-35 -38 -82.5 -61t-92.5 -23q-80 0 -125.5 39zM317 83.5q45 24.5 78 62.5v80h-133
q-63 0 -98.5 -23t-35.5 -64q0 -36 28.5 -58t73.5 -22q42 0 87 24.5zM109 736h99l135 -137h-88z" />
    <glyph glyph-name="aring" unicode="&#xe5;" horiz-adv-x="538" 
d="M98.5 29q-45.5 39 -45.5 109q0 72 56 113t156 41h130v21q0 75 -31.5 110t-99.5 35q-40 0 -77.5 -16t-66.5 -45l-49 50q38 39 89 61t107 22q101 0 153 -56.5t52 -168.5v-305h-49l-24 74q-35 -38 -82.5 -61t-92.5 -23q-80 0 -125.5 39zM317 83.5q45 24.5 78 62.5v80h-133
q-63 0 -98.5 -23t-35.5 -64q0 -36 28.5 -58t73.5 -22q42 0 87 24.5zM206 605.5q-28 16.5 -44.5 44.5t-16.5 61q0 50 36 85t86 35q51 0 87 -35t36 -85q0 -51 -36 -86.5t-87 -35.5q-33 0 -61 16.5zM313 663.5q19 19.5 19 47.5q0 27 -19 45.5t-46 18.5q-26 0 -45 -18.5
t-19 -45.5q0 -28 19 -47.5t45 -19.5q27 0 46 19.5z" />
    <glyph glyph-name="atilde" unicode="&#xe3;" horiz-adv-x="538" 
d="M98.5 29q-45.5 39 -45.5 109q0 72 56 113t156 41h130v21q0 75 -31.5 110t-99.5 35q-40 0 -77.5 -16t-66.5 -45l-49 50q38 39 89 61t107 22q101 0 153 -56.5t52 -168.5v-305h-49l-24 74q-35 -38 -82.5 -61t-92.5 -23q-80 0 -125.5 39zM317 83.5q45 24.5 78 62.5v80h-133
q-63 0 -98.5 -23t-35.5 -64q0 -36 28.5 -58t73.5 -22q42 0 87 24.5zM310.5 614.5q-16.5 6.5 -39.5 19.5q-3 2 -17 10t-26 11.5t-24 3.5q-23 0 -43.5 -10t-45.5 -30v68q22 19 43 28.5t46 9.5q22 0 39 -6.5t39 -18.5q22 -13 36.5 -19.5t31.5 -6.5q25 0 45 10t45 29v-67
q-22 -18 -43 -28t-48 -10q-22 0 -38.5 6.5z" />
    <glyph glyph-name="ae" unicode="&#xe6;" horiz-adv-x="908" 
d="M98.5 30q-45.5 40 -45.5 110q0 72 56 114t156 42h130v19q0 75 -31.5 109t-99.5 34q-40 0 -77.5 -16t-66.5 -45l-49 50q37 39 88.5 61t107.5 22q133 0 178 -103q32 48 81 75.5t108 27.5q70 0 120.5 -34t77.5 -95t27 -139v-32h-386q8 -73 55 -120.5t120 -47.5q81 0 138 59
l53 -48q-37 -38 -85.5 -60.5t-107.5 -22.5q-68 0 -121 29.5t-86 80.5q-45 -52 -100.5 -81t-113.5 -29q-81 0 -126.5 40zM735.5 416.5q-38.5 44.5 -104.5 44.5t-107.5 -44.5t-49.5 -119.5h305q-5 75 -43.5 119.5zM330 85q48 28 82 73q-10 32 -15 72h-135q-63 0 -98.5 -24
t-35.5 -65q0 -37 28.5 -60.5t73.5 -23.5q52 0 100 28z" />
    <glyph glyph-name="b" unicode="b" horiz-adv-x="615" 
d="M217.5 9.5q-43.5 17.5 -76.5 46.5l-17 -56h-50v727l80 16v-295q34 38 80.5 60t98.5 22q67 0 119.5 -32.5t82 -93t29.5 -141.5q0 -83 -35 -144.5t-94 -94t-129 -32.5q-45 0 -88.5 17.5zM433 114.5q51 50.5 51 148.5q0 92 -43.5 143t-117.5 51q-52 0 -95.5 -25t-73.5 -69
v-239q30 -27 68.5 -43.5t76.5 -16.5q83 0 134 50.5z" />
    <glyph glyph-name="c" unicode="c" horiz-adv-x="518" 
d="M171 24q-57 34 -88.5 95t-31.5 141q0 76 32.5 137.5t90 97t129.5 35.5q105 0 178 -80l-51 -50q-26 29 -56.5 43.5t-69.5 14.5q-78 0 -125.5 -54.5t-47.5 -143.5q0 -59 22 -104t61.5 -69.5t89.5 -24.5q75 0 131 61l51 -51q-77 -82 -184 -82q-74 0 -131 34z" />
    <glyph glyph-name="ccedilla" unicode="&#xe7;" horiz-adv-x="518" 
d="M331 -8q29 -37 29 -74q0 -50 -37.5 -76.5t-99.5 -26.5h-25v60h23q32 0 52 13t20 39q0 17 -8 32.5t-25 33.5q-95 14 -152 86t-57 181q0 76 32.5 137.5t90 97t129.5 35.5q105 0 178 -80l-51 -50q-26 29 -56.5 43.5t-69.5 14.5q-78 0 -125.5 -54.5t-47.5 -143.5
q0 -59 22 -104t61.5 -69.5t89.5 -24.5q75 0 131 61l51 -51q-65 -70 -155 -80z" />
    <glyph glyph-name="d" unicode="d" horiz-adv-x="614" 
d="M162 22q-52 32 -81.5 92.5t-29.5 142.5q0 83 35.5 145t94.5 95t129 33q40 0 79.5 -13.5t71.5 -37.5v248l80 16v-743h-49l-24 78q-33 -41 -82.5 -64.5t-104.5 -23.5q-67 0 -119 32zM388.5 88.5q43.5 25.5 72.5 70.5v244q-29 26 -67.5 41t-77.5 15q-83 0 -133.5 -52
t-50.5 -151q0 -93 43 -143t117 -50q53 0 96.5 25.5z" />
    <glyph glyph-name="eth" unicode="&#xf0;" horiz-adv-x="602" 
d="M171.5 23q-57.5 33 -89.5 91.5t-32 132.5q0 73 30.5 131t85.5 91.5t126 33.5q41 0 81 -12t72 -34q-23 68 -79 136l-149 -44v61l103 30q-39 37 -102 79l83 21q47 -29 98 -78l128 37v-61l-86 -24q112 -142 112 -329q0 -84 -31 -151.5t-88 -105.5t-132 -38q-73 0 -130.5 33z
M429 123q46 62 46 161q0 49 -7 85q-32 30 -73.5 48t-84.5 18q-86 0 -133.5 -50t-47.5 -137q0 -52 21.5 -95t61 -67.5t89.5 -24.5q82 0 128 62z" />
    <glyph glyph-name="e" unicode="e" horiz-adv-x="564" 
d="M168 26.5q-57 36.5 -87 98.5t-30 137t30.5 136.5t85 96.5t124.5 35q69 0 120 -34t78 -95t27 -139v-27h-386q5 -75 52.5 -124.5t121.5 -49.5q82 0 139 59l52 -47q-37 -38 -85.5 -60.5t-107.5 -22.5q-77 0 -134 36.5zM392 419q-38 42 -104 42q-64 0 -105.5 -43t-51.5 -115
h304q-5 74 -43 116z" />
    <glyph glyph-name="eacute" unicode="&#xe9;" horiz-adv-x="564" 
d="M168 26.5q-57 36.5 -87 98.5t-30 137t30.5 136.5t85 96.5t124.5 35q69 0 120 -34t78 -95t27 -139v-27h-386q5 -75 52.5 -124.5t121.5 -49.5q82 0 139 59l52 -47q-37 -38 -85.5 -60.5t-107.5 -22.5q-77 0 -134 36.5zM392 419q-38 42 -104 42q-64 0 -105.5 -43t-51.5 -115
h304q-5 74 -43 116zM351 736h99l-146 -137h-88z" />
    <glyph glyph-name="ecircumflex" unicode="&#xea;" horiz-adv-x="564" 
d="M168 26.5q-57 36.5 -87 98.5t-30 137t30.5 136.5t85 96.5t124.5 35q69 0 120 -34t78 -95t27 -139v-27h-386q5 -75 52.5 -124.5t121.5 -49.5q82 0 139 59l52 -47q-37 -38 -85.5 -60.5t-107.5 -22.5q-77 0 -134 36.5zM392 419q-38 42 -104 42q-64 0 -105.5 -43t-51.5 -115
h304q-5 74 -43 116zM245 736h87l120 -137h-82l-82 85l-83 -85h-80z" />
    <glyph glyph-name="edieresis" unicode="&#xeb;" horiz-adv-x="564" 
d="M168 26.5q-57 36.5 -87 98.5t-30 137t30.5 136.5t85 96.5t124.5 35q69 0 120 -34t78 -95t27 -139v-27h-386q5 -75 52.5 -124.5t121.5 -49.5q82 0 139 59l52 -47q-37 -38 -85.5 -60.5t-107.5 -22.5q-77 0 -134 36.5zM392 419q-38 42 -104 42q-64 0 -105.5 -43t-51.5 -115
h304q-5 74 -43 116zM162 631.5q-14 14.5 -14 35.5q0 23 14 37.5t37 14.5q22 0 36.5 -14.5t14.5 -37.5q0 -21 -14.5 -35.5t-36.5 -14.5q-23 0 -37 14.5zM342.5 631.5q-14.5 14.5 -14.5 35.5q0 23 14 37.5t37 14.5t37 -14.5t14 -37.5q0 -21 -14.5 -35.5t-36.5 -14.5
t-36.5 14.5z" />
    <glyph glyph-name="egrave" unicode="&#xe8;" horiz-adv-x="564" 
d="M168 26.5q-57 36.5 -87 98.5t-30 137t30.5 136.5t85 96.5t124.5 35q69 0 120 -34t78 -95t27 -139v-27h-386q5 -75 52.5 -124.5t121.5 -49.5q82 0 139 59l52 -47q-37 -38 -85.5 -60.5t-107.5 -22.5q-77 0 -134 36.5zM392 419q-38 42 -104 42q-64 0 -105.5 -43t-51.5 -115
h304q-5 74 -43 116zM127 736h99l135 -137h-88z" />
    <glyph glyph-name="f" unicode="f" horiz-adv-x="396" 
d="M125.5 691q51.5 52 137.5 52q34 0 66.5 -13t58.5 -36l-38 -54q-40 31 -88 31q-51 0 -79.5 -31t-28.5 -87v-33h217v-70h-217v-450h-80v546q0 93 51.5 145z" />
    <glyph glyph-name="g" unicode="g" horiz-adv-x="609" 
d="M69 -136l48 52q68 -68 166 -68q77 0 125 46t48 127v71q-33 -37 -80.5 -58.5t-97.5 -21.5q-66 0 -117.5 31t-80.5 89t-29 135q0 81 35 140.5t93.5 91t127.5 31.5q45 0 88.5 -16t75.5 -45l15 51h49v-500q0 -71 -31.5 -126t-88 -86t-130.5 -31q-136 0 -216 87zM381.5 107.5
q43.5 24.5 74.5 65.5v230q-29 26 -67 41t-77 15q-81 0 -131.5 -48.5t-50.5 -143.5q0 -87 43 -135.5t116 -48.5q49 0 92.5 24.5z" />
    <glyph glyph-name="h" unicode="h" horiz-adv-x="585" 
d="M154 743v-293q34 37 78 58.5t91 21.5q96 0 146 -60.5t50 -171.5v-298h-80v285q0 89 -29.5 130.5t-97.5 41.5q-46 0 -87 -25t-71 -69v-363h-80v727z" />
    <glyph glyph-name="i" unicode="i" horiz-adv-x="232" 
d="M76 520h80v-520h-80v520zM80 631.5q-15 14.5 -15 36.5q0 23 14.5 37.5t37.5 14.5q22 0 37 -14.5t15 -37.5q0 -22 -15 -36.5t-37 -14.5t-37 14.5z" />
    <glyph glyph-name="dotlessi" unicode="&#x131;" horiz-adv-x="232" 
d="M76 520h80v-520h-80v520z" />
    <glyph glyph-name="iacute" unicode="&#xed;" horiz-adv-x="232" 
d="M76 520h80v-520h-80v520zM173 736h92l-112 -137h-79z" />
    <glyph glyph-name="icircumflex" unicode="&#xee;" horiz-adv-x="232" 
d="M76 520h80v-520h-80v520zM73 736h87l120 -137h-82l-82 85l-83 -85h-80z" />
    <glyph glyph-name="idieresis" unicode="&#xef;" horiz-adv-x="232" 
d="M76 520h80v-520h-80v520zM-10 631.5q-14 14.5 -14 35.5q0 23 14 37.5t37 14.5q22 0 36.5 -14.5t14.5 -37.5q0 -21 -14.5 -35.5t-36.5 -14.5q-23 0 -37 14.5zM170.5 631.5q-14.5 14.5 -14.5 35.5q0 23 14 37.5t37 14.5t37 -14.5t14 -37.5q0 -21 -14.5 -35.5t-36.5 -14.5
t-36.5 14.5z" />
    <glyph glyph-name="igrave" unicode="&#xec;" horiz-adv-x="232" 
d="M76 520h80v-520h-80v520zM-31 736h92l99 -137h-79z" />
    <glyph glyph-name="j" unicode="j" horiz-adv-x="232" 
d="M-19 -139q46 0 70.5 28.5t24.5 82.5v548h80v-542q0 -90 -43 -138t-123 -48h-30v69h21zM80 631.5q-15 14.5 -15 36.5q0 23 14.5 37.5t37.5 14.5q22 0 37 -14.5t15 -37.5q0 -22 -15 -36.5t-37 -14.5t-37 14.5z" />
    <glyph glyph-name="uni0237" unicode="&#x237;" horiz-adv-x="232" 
d="M-19 -139q46 0 70.5 28.5t24.5 82.5v548h80v-542q0 -90 -43 -138t-123 -48h-30v69h21z" />
    <glyph glyph-name="k" unicode="k" horiz-adv-x="551" 
d="M152 743v-441h70q39 0 65.5 19t58.5 74l75 125h87l-96 -156q-37 -61 -70 -90l197 -274h-95l-169 236q-20 -5 -38 -5h-85v-231h-78v727z" />
    <glyph glyph-name="l" unicode="l" horiz-adv-x="294" 
d="M110.5 42q-42.5 48 -42.5 137v548l80 16v-568q0 -54 24 -83t70 -29h23v-69h-32q-80 0 -122.5 48z" />
    <glyph glyph-name="m" unicode="m" horiz-adv-x="883" 
d="M124 520l23 -76q75 86 162 86q110 0 152 -86q34 39 80.5 62.5t97.5 23.5q85 0 131.5 -53t46.5 -154v-323h-78v314q0 143 -116 143q-40 0 -77 -21.5t-64 -58.5q4 -23 4 -54v-323h-78v314q0 143 -115 143q-79 0 -139 -95v-362h-80v520h50z" />
    <glyph glyph-name="n" unicode="n" horiz-adv-x="585" 
d="M124 520l23 -77q35 41 80.5 64t95.5 23q96 0 146 -60.5t50 -171.5v-298h-80v285q0 89 -29.5 130.5t-97.5 41.5q-46 0 -87 -25t-71 -69v-363h-80v520h50z" />
    <glyph glyph-name="ntilde" unicode="&#xf1;" horiz-adv-x="585" 
d="M124 520l23 -77q35 41 80.5 64t95.5 23q96 0 146 -60.5t50 -171.5v-298h-80v285q0 89 -29.5 130.5t-97.5 41.5q-46 0 -87 -25t-71 -69v-363h-80v520h50zM336.5 614.5q-16.5 6.5 -39.5 19.5q-3 2 -17 10t-26 11.5t-24 3.5q-23 0 -43.5 -10t-45.5 -30v68q22 19 43 28.5
t46 9.5q22 0 39 -6.5t39 -18.5q22 -13 36.5 -19.5t31.5 -6.5q25 0 45 10t45 29v-67q-22 -18 -43 -28t-48 -10q-22 0 -38.5 6.5z" />
    <glyph glyph-name="o" unicode="o" horiz-adv-x="611" 
d="M174.5 24.5q-57.5 34.5 -90.5 96t-33 139.5q0 77 33 138.5t90.5 96.5t130.5 35t131 -34.5t91 -96t33 -139.5t-33 -139.5t-91 -96t-131 -34.5t-130.5 34.5zM432.5 115.5q47.5 53.5 47.5 144.5q0 90 -47.5 144t-127.5 54q-79 0 -126 -54t-47 -144q0 -91 46.5 -144.5
t126.5 -53.5t127.5 53.5z" />
    <glyph glyph-name="oacute" unicode="&#xf3;" horiz-adv-x="611" 
d="M174.5 24.5q-57.5 34.5 -90.5 96t-33 139.5q0 77 33 138.5t90.5 96.5t130.5 35t131 -34.5t91 -96t33 -139.5t-33 -139.5t-91 -96t-131 -34.5t-130.5 34.5zM432.5 115.5q47.5 53.5 47.5 144.5q0 90 -47.5 144t-127.5 54q-79 0 -126 -54t-47 -144q0 -91 46.5 -144.5
t126.5 -53.5t127.5 53.5zM369 736h99l-146 -137h-88z" />
    <glyph glyph-name="ocircumflex" unicode="&#xf4;" horiz-adv-x="611" 
d="M174.5 24.5q-57.5 34.5 -90.5 96t-33 139.5q0 77 33 138.5t90.5 96.5t130.5 35t131 -34.5t91 -96t33 -139.5t-33 -139.5t-91 -96t-131 -34.5t-130.5 34.5zM432.5 115.5q47.5 53.5 47.5 144.5q0 90 -47.5 144t-127.5 54q-79 0 -126 -54t-47 -144q0 -91 46.5 -144.5
t126.5 -53.5t127.5 53.5zM262 736h87l120 -137h-82l-82 85l-83 -85h-80z" />
    <glyph glyph-name="odieresis" unicode="&#xf6;" horiz-adv-x="611" 
d="M174.5 24.5q-57.5 34.5 -90.5 96t-33 139.5q0 77 33 138.5t90.5 96.5t130.5 35t131 -34.5t91 -96t33 -139.5t-33 -139.5t-91 -96t-131 -34.5t-130.5 34.5zM432.5 115.5q47.5 53.5 47.5 144.5q0 90 -47.5 144t-127.5 54q-79 0 -126 -54t-47 -144q0 -91 46.5 -144.5
t126.5 -53.5t127.5 53.5zM179 631.5q-14 14.5 -14 35.5q0 23 14 37.5t37 14.5q22 0 36.5 -14.5t14.5 -37.5q0 -21 -14.5 -35.5t-36.5 -14.5q-23 0 -37 14.5zM359.5 631.5q-14.5 14.5 -14.5 35.5q0 23 14 37.5t37 14.5t37 -14.5t14 -37.5q0 -21 -14.5 -35.5t-36.5 -14.5
t-36.5 14.5z" />
    <glyph glyph-name="ograve" unicode="&#xf2;" horiz-adv-x="611" 
d="M174.5 24.5q-57.5 34.5 -90.5 96t-33 139.5q0 77 33 138.5t90.5 96.5t130.5 35t131 -34.5t91 -96t33 -139.5t-33 -139.5t-91 -96t-131 -34.5t-130.5 34.5zM432.5 115.5q47.5 53.5 47.5 144.5q0 90 -47.5 144t-127.5 54q-79 0 -126 -54t-47 -144q0 -91 46.5 -144.5
t126.5 -53.5t127.5 53.5zM144 736h99l135 -137h-88z" />
    <glyph glyph-name="oslash" unicode="&#xf8;" horiz-adv-x="611" 
d="M69.5 151.5q-18.5 49.5 -18.5 108.5q0 77 33 138.5t90.5 96.5t130.5 35q74 0 133 -36l49 66h80l-79 -106q34 -36 53 -86t19 -108q0 -78 -33 -139.5t-91 -96t-131 -34.5q-76 0 -132 36l-51 -68h-80l81 108q-35 36 -53.5 85.5zM305 458q-79 0 -126 -54t-47 -144
q0 -79 36 -131l226 305q-40 24 -89 24zM432.5 115.5q47.5 53.5 47.5 144.5q0 79 -38 131l-227 -306q40 -23 90 -23q80 0 127.5 53.5z" />
    <glyph glyph-name="otilde" unicode="&#xf5;" horiz-adv-x="611" 
d="M174.5 24.5q-57.5 34.5 -90.5 96t-33 139.5q0 77 33 138.5t90.5 96.5t130.5 35t131 -34.5t91 -96t33 -139.5t-33 -139.5t-91 -96t-131 -34.5t-130.5 34.5zM432.5 115.5q47.5 53.5 47.5 144.5q0 90 -47.5 144t-127.5 54q-79 0 -126 -54t-47 -144q0 -91 46.5 -144.5
t126.5 -53.5t127.5 53.5zM346.5 614.5q-16.5 6.5 -39.5 19.5q-3 2 -17 10t-26 11.5t-24 3.5q-23 0 -43.5 -10t-45.5 -30v68q22 19 43 28.5t46 9.5q22 0 39 -6.5t39 -18.5q22 -13 36.5 -19.5t31.5 -6.5q25 0 45 10t45 29v-67q-22 -18 -43 -28t-48 -10q-22 0 -38.5 6.5z" />
    <glyph glyph-name="oe" unicode="&#x153;" horiz-adv-x="999" 
d="M174.5 24.5q-57.5 34.5 -90.5 96t-33 139.5q0 77 33 138.5t90.5 96.5t130.5 35q70 0 126.5 -33t90.5 -91q30 58 83 91t121 33q70 0 120.5 -34t77.5 -95t27 -139v-27h-386q5 -74 52.5 -123.5t121.5 -49.5q80 0 139 59l52 -48q-37 -38 -85.5 -60.5t-106.5 -22.5
q-74 0 -129 33.5t-87 91.5q-33 -59 -89.5 -92t-127.5 -33q-73 0 -130.5 34.5zM827 419q-38 43 -104 43q-65 0 -106.5 -43.5t-50.5 -116.5h304q-5 74 -43 117zM432.5 116.5q47.5 53.5 47.5 143.5t-47.5 144t-127.5 54q-79 0 -126.5 -54t-47.5 -144q0 -91 47 -144t127 -53
t127.5 53.5z" />
    <glyph glyph-name="p" unicode="p" horiz-adv-x="615" 
d="M124 520l23 -77q34 40 83 63.5t103 23.5q67 0 119.5 -32.5t82 -93t29.5 -141.5q0 -83 -35 -144.5t-94.5 -94t-129.5 -32.5q-40 0 -79.5 13t-71.5 36v-245l-80 -16v740h50zM432.5 115q51.5 51 51.5 148q0 92 -43.5 143t-117.5 51q-52 0 -95.5 -25t-73.5 -69v-244
q30 -25 67.5 -40t76.5 -15q83 0 134.5 51z" />
    <glyph glyph-name="thorn" unicode="&#xfe;" horiz-adv-x="615" 
d="M154 743v-293q33 38 80 59t99 21q67 0 119.5 -32.5t82 -93t29.5 -141.5q0 -83 -35 -144.5t-94.5 -94t-129.5 -32.5q-40 0 -79 14.5t-72 40.5v-251l-80 -16v947zM433 114.5q51 50.5 51 148.5q0 92 -43.5 143t-117.5 51q-52 0 -95.5 -25t-73.5 -69v-239q30 -27 68.5 -43.5
t76.5 -16.5q83 0 134 50.5z" />
    <glyph glyph-name="q" unicode="q" horiz-adv-x="615" 
d="M380.5 12q-47.5 -22 -99.5 -22q-67 0 -119 32t-81.5 92.5t-29.5 142.5q0 83 35.5 145t94.5 95t129 33q45 0 89 -16t77 -45l16 51h49v-724l-80 -16v292q-33 -38 -80.5 -60zM388.5 88.5q43.5 25.5 72.5 70.5v244q-29 26 -67.5 41t-77.5 15q-83 0 -133.5 -52t-50.5 -151
q0 -93 43 -143t117 -50q53 0 96.5 25.5z" />
    <glyph glyph-name="r" unicode="r" horiz-adv-x="387" 
d="M124 520l24 -79q36 41 86 64t106 23h15v-74h-25q-51 0 -97.5 -24t-78.5 -69v-361h-80v520h50z" />
    <glyph glyph-name="s" unicode="s" horiz-adv-x="489" 
d="M36 79l49 52q69 -69 169 -69q55 0 84.5 19t29.5 55q0 41 -31.5 62t-96.5 33q-68 14 -107 33t-56.5 48t-17.5 75q0 40 23 72.5t65.5 51.5t98.5 19q112 0 188 -81l-49 -50q-60 60 -139 60q-54 0 -82.5 -19t-28.5 -54q0 -26 14 -41.5t41 -25t78 -19.5q95 -20 137 -57.5
t42 -101.5q0 -68 -50.5 -109.5t-144.5 -41.5q-132 0 -216 89z" />
    <glyph glyph-name="scaron" unicode="&#x161;" horiz-adv-x="489" 
d="M36 79l49 52q69 -69 169 -69q55 0 84.5 19t29.5 55q0 41 -31.5 62t-96.5 33q-68 14 -107 33t-56.5 48t-17.5 75q0 40 23 72.5t65.5 51.5t98.5 19q112 0 188 -81l-49 -50q-60 60 -139 60q-54 0 -82.5 -19t-28.5 -54q0 -26 14 -41.5t41 -25t78 -19.5q95 -20 137 -57.5
t42 -101.5q0 -68 -50.5 -109.5t-144.5 -41.5q-132 0 -216 89zM87 736h83l81 -84l82 84h81l-120 -137h-87z" />
    <glyph glyph-name="germandbls" unicode="&#xdf;" horiz-adv-x="637" 
d="M225 53l40 55q32 -24 64 -35t72 -11q56 0 87 22t31 62q0 29 -14 48.5t-34 31t-57 27.5l-21 9q-35 13 -56 25t-34.5 32.5t-13.5 52.5t17 57.5t49 56.5q31 32 45.5 53t14.5 47q0 41 -29.5 63.5t-80.5 22.5q-70 0 -111 -47.5t-41 -128.5v-496h-79v491q0 76 29.5 133t83 88
t122.5 31q86 0 134 -42t48 -107q0 -37 -19 -65t-55 -64q-27 -26 -40 -43.5t-13 -35.5q0 -27 18.5 -41t61.5 -33q25 -10 31 -13q55 -26 89 -60.5t34 -94.5q0 -69 -50.5 -111.5t-132.5 -42.5q-116 0 -190 63z" />
    <glyph glyph-name="t" unicode="t" horiz-adv-x="396" 
d="M120.5 42q-46.5 52 -46.5 143v463l80 15v-143h204v-70h-204v-268q0 -55 25 -87t71 -32q30 0 49 7.5t38 22.5l41 -53q-58 -50 -127 -50q-84 0 -130.5 52z" />
    <glyph glyph-name="u" unicode="u" horiz-adv-x="583" 
d="M117.5 50q-48.5 60 -48.5 172v298h79v-286q0 -89 29 -130t100 -41q43 0 82.5 25t69.5 69v363h80v-520h-49l-25 77q-34 -41 -78.5 -64t-94.5 -23q-96 0 -144.5 60z" />
    <glyph glyph-name="uacute" unicode="&#xfa;" horiz-adv-x="583" 
d="M117.5 50q-48.5 60 -48.5 172v298h79v-286q0 -89 29 -130t100 -41q43 0 82.5 25t69.5 69v363h80v-520h-49l-25 77q-34 -41 -78.5 -64t-94.5 -23q-96 0 -144.5 60zM354 736h99l-146 -137h-88z" />
    <glyph glyph-name="ucircumflex" unicode="&#xfb;" horiz-adv-x="583" 
d="M117.5 50q-48.5 60 -48.5 172v298h79v-286q0 -89 29 -130t100 -41q43 0 82.5 25t69.5 69v363h80v-520h-49l-25 77q-34 -41 -78.5 -64t-94.5 -23q-96 0 -144.5 60zM247 736h87l120 -137h-82l-82 85l-83 -85h-80z" />
    <glyph glyph-name="udieresis" unicode="&#xfc;" horiz-adv-x="583" 
d="M117.5 50q-48.5 60 -48.5 172v298h79v-286q0 -89 29 -130t100 -41q43 0 82.5 25t69.5 69v363h80v-520h-49l-25 77q-34 -41 -78.5 -64t-94.5 -23q-96 0 -144.5 60zM164 631.5q-14 14.5 -14 35.5q0 23 14 37.5t37 14.5q22 0 36.5 -14.5t14.5 -37.5q0 -21 -14.5 -35.5
t-36.5 -14.5q-23 0 -37 14.5zM344.5 631.5q-14.5 14.5 -14.5 35.5q0 23 14 37.5t37 14.5t37 -14.5t14 -37.5q0 -21 -14.5 -35.5t-36.5 -14.5t-36.5 14.5z" />
    <glyph glyph-name="ugrave" unicode="&#xf9;" horiz-adv-x="583" 
d="M117.5 50q-48.5 60 -48.5 172v298h79v-286q0 -89 29 -130t100 -41q43 0 82.5 25t69.5 69v363h80v-520h-49l-25 77q-34 -41 -78.5 -64t-94.5 -23q-96 0 -144.5 60zM130 736h99l135 -137h-88z" />
    <glyph glyph-name="v" unicode="v" horiz-adv-x="541" 
d="M18 520h88l166 -417l166 417h86l-218 -520h-72z" />
    <glyph glyph-name="w" unicode="w" horiz-adv-x="791" 
d="M29 520h85l111 -411l137 377h73l136 -377l115 411h79l-158 -520h-75l-138 381l-133 -381h-74z" />
    <glyph glyph-name="wacute" unicode="&#x1e83;" horiz-adv-x="791" 
d="M29 520h85l111 -411l137 377h73l136 -377l115 411h79l-158 -520h-75l-138 381l-133 -381h-74zM458 736h99l-146 -137h-88z" />
    <glyph glyph-name="wcircumflex" unicode="&#x175;" horiz-adv-x="791" 
d="M29 520h85l111 -411l137 377h73l136 -377l115 411h79l-158 -520h-75l-138 381l-133 -381h-74zM351 736h87l120 -137h-82l-82 85l-83 -85h-80z" />
    <glyph glyph-name="wdieresis" unicode="&#x1e85;" horiz-adv-x="791" 
d="M29 520h85l111 -411l137 377h73l136 -377l115 411h79l-158 -520h-75l-138 381l-133 -381h-74zM268 631.5q-14 14.5 -14 35.5q0 23 14 37.5t37 14.5q22 0 36.5 -14.5t14.5 -37.5q0 -21 -14.5 -35.5t-36.5 -14.5q-23 0 -37 14.5zM448.5 631.5q-14.5 14.5 -14.5 35.5
q0 23 14 37.5t37 14.5t37 -14.5t14 -37.5q0 -21 -14.5 -35.5t-36.5 -14.5t-36.5 14.5z" />
    <glyph glyph-name="wgrave" unicode="&#x1e81;" horiz-adv-x="791" 
d="M29 520h85l111 -411l137 377h73l136 -377l115 411h79l-158 -520h-75l-138 381l-133 -381h-74zM234 736h99l135 -137h-88z" />
    <glyph glyph-name="x" unicode="x" horiz-adv-x="536" 
d="M221 270l-182 250h93l138 -193l137 193h90l-183 -250l201 -270h-95l-154 213l-154 -213h-90z" />
    <glyph glyph-name="y" unicode="y" horiz-adv-x="535" 
d="M91 -137q46 0 77 24.5t51 75.5l21 56l-224 501h87l175 -404l155 404h84l-230 -577q-60 -151 -188 -151h-32v71h24z" />
    <glyph glyph-name="yacute" unicode="&#xfd;" horiz-adv-x="535" 
d="M91 -137q46 0 77 24.5t51 75.5l21 56l-224 501h87l175 -404l155 404h84l-230 -577q-60 -151 -188 -151h-32v71h24zM330 736h99l-146 -137h-88z" />
    <glyph glyph-name="ycircumflex" unicode="&#x177;" horiz-adv-x="535" 
d="M91 -137q46 0 77 24.5t51 75.5l21 56l-224 501h87l175 -404l155 404h84l-230 -577q-60 -151 -188 -151h-32v71h24zM224 736h87l120 -137h-82l-82 85l-83 -85h-80z" />
    <glyph glyph-name="ydieresis" unicode="&#xff;" horiz-adv-x="535" 
d="M91 -137q46 0 77 24.5t51 75.5l21 56l-224 501h87l175 -404l155 404h84l-230 -577q-60 -151 -188 -151h-32v71h24zM141 631.5q-14 14.5 -14 35.5q0 23 14 37.5t37 14.5q22 0 36.5 -14.5t14.5 -37.5q0 -21 -14.5 -35.5t-36.5 -14.5q-23 0 -37 14.5zM321.5 631.5
q-14.5 14.5 -14.5 35.5q0 23 14 37.5t37 14.5t37 -14.5t14 -37.5q0 -21 -14.5 -35.5t-36.5 -14.5t-36.5 14.5z" />
    <glyph glyph-name="ygrave" unicode="&#x1ef3;" horiz-adv-x="535" 
d="M91 -137q46 0 77 24.5t51 75.5l21 56l-224 501h87l175 -404l155 404h84l-230 -577q-60 -151 -188 -151h-32v71h24zM106 736h99l135 -137h-88z" />
    <glyph glyph-name="z" unicode="z" horiz-adv-x="533" 
d="M58 58l315 392h-311v70h410v-57l-315 -393h322v-70h-421v58z" />
    <glyph glyph-name="zcaron" unicode="&#x17e;" horiz-adv-x="533" 
d="M58 58l315 392h-311v70h410v-57l-315 -393h322v-70h-421v58zM93 736h83l81 -84l82 84h81l-120 -137h-87z" />
    <glyph glyph-name="ordfeminine" unicode="&#xaa;" horiz-adv-x="422" 
d="M73 302.5q-36 30.5 -36 83.5q0 55 44.5 87t120.5 32h97v11q0 48 -21 75.5t-74 27.5q-29 0 -58.5 -11.5t-52.5 -33.5l-41 44q29 30 69 47t85 17q80 0 122 -44t42 -129v-229h-48l-18 54q-29 -28 -64 -45t-68 -17q-63 0 -99 30.5zM242 350q32 16 57 42v57h-99
q-44 0 -68.5 -16t-24.5 -44q0 -24 20.5 -39.5t51.5 -15.5t63 16z" />
    <glyph glyph-name="ordmasculine" unicode="&#xba;" horiz-adv-x="474" 
d="M135 298.5q-45 26.5 -70.5 73.5t-25.5 106t26 105.5t71 72.5t100 26q57 0 102.5 -26t71 -72.5t25.5 -105.5t-25.5 -106t-71 -73.5t-102.5 -26.5q-56 0 -101 26.5zM326 378q34 38 34 100t-33.5 99.5t-89.5 37.5q-55 0 -88.5 -37.5t-33.5 -99.5q0 -63 33 -100.5t88 -37.5
q56 0 90 38z" />
    <glyph glyph-name="uni03BC" unicode="&#x3bc;" 
d="M152 520v-286q0 -89 29.5 -130t99.5 -41q43 0 82.5 25t69.5 69v363h80v-520h-49l-24 77q-35 -41 -79.5 -64t-93.5 -23q-74 0 -115 44v-238l-79 -16v740h79z" />
    <glyph glyph-name="zero" unicode="0" horiz-adv-x="628" 
d="M176.5 33q-59.5 43 -91.5 120t-32 177q0 95 33 171.5t92.5 120.5t136.5 44q78 0 137 -43t91.5 -119.5t32.5 -173.5q0 -99 -32.5 -176t-92 -120.5t-136.5 -43.5q-79 0 -138.5 43zM410.5 100q40.5 33 62 92.5t21.5 137.5q0 117 -47 188t-131 71q-56 0 -97.5 -33.5t-63 -92
t-21.5 -133.5q0 -118 48 -190.5t133 -72.5q55 0 95.5 33z" />
    <glyph glyph-name="one" unicode="1" horiz-adv-x="376" 
d="M194 574l-154 -43v68l178 58h57v-657h-81v574z" />
    <glyph glyph-name="two" unicode="2" horiz-adv-x="569" 
d="M316 304q52 52 76.5 90t24.5 75q0 58 -36 89.5t-106 31.5q-47 0 -91 -21.5t-81 -59.5l-50 54q101 103 229 103q99 0 158.5 -50.5t59.5 -134.5q0 -54 -28 -103.5t-82 -102.5l-206 -201h322v-74h-444v56z" />
    <glyph glyph-name="three" unicode="3" horiz-adv-x="560" 
d="M137.5 15q-59.5 25 -99.5 66l51 52q32 -31 78 -49t99 -18q69 0 111.5 35t42.5 91q0 58 -42 91t-115 33h-82v48l195 219h-318v74h419v-54l-192 -218q99 -5 159.5 -57.5t60.5 -137.5q0 -58 -30 -103.5t-84 -71t-124 -25.5t-129.5 25z" />
    <glyph glyph-name="four" unicode="4" horiz-adv-x="599" 
d="M380 172h-338v60l338 425h77v-413h101v-72h-101v-172h-77v172zM380 244v307l-244 -307h244z" />
    <glyph glyph-name="five" unicode="5" horiz-adv-x="551" 
d="M138.5 15q-57.5 25 -95.5 66l51 52q31 -32 74 -49.5t96 -17.5q69 0 109.5 36t40.5 95q0 63 -38.5 95t-113.5 32h-174v47l57 286h309v-74h-253l-36 -186h93q115 0 177 -51.5t62 -149.5q0 -61 -28.5 -107.5t-81 -72.5t-121.5 -26q-70 0 -127.5 25z" />
    <glyph glyph-name="six" unicode="6" horiz-adv-x="583" 
d="M127 70q-67 80 -67 223q0 111 31.5 195t92.5 131t147 47q58 0 105 -22t88 -69l-53 -49q-34 35 -67.5 50.5t-72.5 15.5q-79 0 -130.5 -62t-59.5 -167q38 21 84.5 32.5t93.5 11.5q66 0 114 -26.5t73.5 -73.5t25.5 -107q0 -59 -28.5 -107t-79 -75.5t-114.5 -27.5
q-116 0 -183 80zM414 101.5q39 37.5 39 98.5t-37.5 97.5t-108.5 36.5q-45 0 -89.5 -12t-78.5 -32q0 -110 44.5 -168t123.5 -58q68 0 107 37.5z" />
    <glyph glyph-name="seven" unicode="7" horiz-adv-x="550" 
d="M413 583h-364v74h459v-46l-275 -611h-86z" />
    <glyph glyph-name="eight" unicode="8" horiz-adv-x="592" 
d="M171.5 14q-54.5 24 -85 65.5t-30.5 94.5t31.5 98t87.5 79q-97 53 -97 148q0 48 29 86t79 59.5t112 21.5q66 0 116.5 -22t78.5 -62t28 -91q0 -44 -25 -86t-74 -71q114 -59 114 -161q0 -54 -30.5 -95.5t-85 -64.5t-124.5 -23t-124.5 24zM419.5 418.5q23.5 33.5 23.5 69.5
q0 49 -40 79t-105 30q-61 0 -101.5 -27.5t-40.5 -68.5q0 -47 39 -77t122 -52q17 -3 32 -9q47 22 70.5 55.5zM410.5 92q45.5 30 45.5 80q0 91 -162 133l-48 15q-54 -25 -81.5 -61.5t-27.5 -80.5q0 -50 46 -83t115 -33q67 0 112.5 30z" />
    <glyph glyph-name="nine" unicode="9" horiz-adv-x="584" 
d="M152.5 11.5q-47.5 21.5 -90.5 67.5l53 50q35 -35 69 -50t75 -15q83 0 131 62.5t54 175.5q-38 -21 -85.5 -32t-93.5 -11q-99 0 -156.5 54t-57.5 144q0 57 29 105t80.5 76t114.5 28q77 0 133 -36t86 -104.5t30 -162.5q0 -174 -67.5 -273.5t-197.5 -99.5q-59 0 -106.5 21.5z
M366.5 343q44.5 12 78.5 33q-2 105 -46 160.5t-121 55.5q-68 0 -107.5 -37.5t-39.5 -98.5q0 -59 37.5 -92t107.5 -33q46 0 90.5 12z" />
    <glyph glyph-name="zero.zero" horiz-adv-x="629" 
d="M176.5 33q-59.5 43 -91.5 120t-32 177q0 95 33 171.5t92.5 120.5t136.5 44q78 0 137 -43t91.5 -119.5t32.5 -173.5q0 -99 -32.5 -176t-92 -120.5t-136.5 -43.5q-79 0 -138.5 43zM316 591q-57 0 -98.5 -33.5t-63.5 -93t-22 -134.5q0 -80 23 -141l283 346q-47 56 -122 56z
M411.5 99q40.5 33 62.5 93t22 138q0 77 -22 140l-284 -346q47 -58 125 -58q56 0 96.5 33z" />
    <glyph glyph-name="zero.tf" 
d="M160 33q-57 43 -88 120t-31 177q0 95 31.5 171.5t88.5 120.5t132 44t132.5 -43t88.5 -119t31 -174t-31.5 -175.5t-88.5 -121t-132 -43.5q-76 0 -133 43zM417.5 139.5q44.5 72.5 44.5 190.5q0 117 -43.5 188.5t-124.5 71.5q-80 0 -125 -72.5t-45 -187.5q0 -119 44 -191
t125 -72q80 0 124.5 72.5z" />
    <glyph glyph-name="one.tf" 
d="M305 574l-174 -47v64l196 66h58v-657h-80v574z" />
    <glyph glyph-name="two.tf" 
d="M323 304q52 51 76.5 89t24.5 76q0 58 -35.5 89.5t-105.5 31.5q-47 0 -91.5 -21.5t-81.5 -59.5l-49 54q100 103 229 103q65 0 114.5 -23t76.5 -65t27 -97q0 -54 -28 -103.5t-83 -102.5l-206 -201h322v-74h-443v56z" />
    <glyph glyph-name="three.tf" 
d="M150.5 15q-59.5 25 -99.5 66l51 52q32 -31 78 -49t99 -18q69 0 112 35t43 91q0 58 -42 91t-116 33h-82v48l196 219h-318v74h418v-54l-192 -218q99 -5 159.5 -57.5t60.5 -137.5q0 -58 -30 -103.5t-84 -71t-124 -25.5t-129.5 25z" />
    <glyph glyph-name="four.tf" 
d="M380 172h-341v57l341 428h77v-415h101v-70h-101v-172h-77v172zM380 242v314l-252 -314h252z" />
    <glyph glyph-name="five.tf" 
d="M160.5 15q-57.5 25 -95.5 66l51 52q31 -32 74 -49.5t96 -17.5q69 0 109.5 36t40.5 95q0 127 -152 127h-175v47l57 286h309v-74h-253l-35 -186h93q115 0 177 -51.5t62 -149.5q0 -61 -28.5 -107.5t-81 -72.5t-121.5 -26q-70 0 -127.5 25z" />
    <glyph glyph-name="six.tf" 
d="M130 70q-67 80 -67 223q0 111 31.5 195t92.5 131t147 47q58 0 105 -22t88 -69l-53 -49q-34 35 -67.5 50.5t-72.5 15.5q-79 0 -130.5 -62t-59.5 -167q38 21 84.5 32.5t93.5 11.5q66 0 114.5 -26.5t74 -73.5t25.5 -107q0 -59 -28.5 -107t-79 -75.5t-114.5 -27.5
q-117 0 -184 80zM417 101.5q39 37.5 39 98.5t-37.5 97.5t-108.5 36.5q-44 0 -89 -12t-79 -32q0 -110 44.5 -168t123.5 -58q68 0 107 37.5z" />
    <glyph glyph-name="seven.tf" 
d="M425 583h-365v74h459v-46l-274 -611h-86z" />
    <glyph glyph-name="eight.tf" 
d="M168 14q-55 24 -85 65.5t-30 94.5t31 98t88 79q-97 53 -97 148q0 48 29 86t79 59.5t112 21.5q66 0 116.5 -22t78.5 -62t28 -91q0 -45 -25.5 -86.5t-74.5 -70.5q115 -59 115 -161q0 -54 -31 -95.5t-85.5 -64.5t-123.5 -23q-70 0 -125 24zM416.5 418.5q23.5 33.5 23.5 70.5
q0 49 -40 78.5t-105 29.5q-61 0 -101.5 -27.5t-40.5 -68.5q0 -47 39 -77t123 -52q6 -2 14 -4t18 -5q46 22 69.5 55.5zM407.5 91.5q45.5 30.5 45.5 80.5q0 91 -162 133l-49 15q-53 -26 -81 -62t-28 -80q0 -33 21 -60t58 -42t83 -15q67 0 112.5 30.5z" />
    <glyph glyph-name="nine.tf" 
d="M151.5 11.5q-47.5 21.5 -89.5 67.5l52 50q36 -35 69.5 -50t74.5 -15q83 0 131 62.5t54 175.5q-38 -21 -85.5 -32t-93.5 -11q-99 0 -156.5 54t-57.5 144q0 57 29 105t80.5 76t114.5 28q116 0 182.5 -80.5t66.5 -222.5q0 -175 -67.5 -274t-197.5 -99q-59 0 -106.5 21.5z
M366 343q45 12 79 33q-3 105 -47 160.5t-121 55.5q-68 0 -107.5 -37.5t-39.5 -98.5q0 -59 37.5 -92t107.5 -33q46 0 91 12z" />
    <glyph glyph-name="zero.tf.zero" 
d="M160 33q-57 43 -88 120t-31 177q0 95 31.5 171.5t89 120.5t131.5 44q75 0 132.5 -43t88.5 -119t31 -174q0 -99 -31 -176t-88.5 -120.5t-132.5 -43.5q-76 0 -133 43zM294 591q-81 0 -126.5 -72.5t-45.5 -188.5q0 -75 18 -132l273 331q-46 62 -119 62zM419 138.5
q45 72.5 45 191.5q0 75 -18 130l-273 -330q44 -64 120 -64q81 0 126 72.5z" />
    <glyph glyph-name="zero.subs" horiz-adv-x="449" 
d="M100 -28.5q-47 54.5 -47 142.5q0 58 21.5 102.5t60.5 69.5t90 25q77 0 124 -54.5t47 -142.5q0 -57 -21.5 -102t-60.5 -70t-89 -25q-78 0 -125 54.5zM297.5 19q25.5 36 25.5 95q0 60 -25 95.5t-72 35.5q-48 0 -74.5 -36t-26.5 -95t25.5 -95t74.5 -36q47 0 72.5 36z" />
    <glyph glyph-name="one.subs" horiz-adv-x="338" 
d="M162 238l-95 -24v57l112 35h53v-382h-70v314z" />
    <glyph glyph-name="two.subs" horiz-adv-x="423" 
d="M219 104q33 30 47 47t14 36q0 28 -20 43t-58 15q-26 0 -53.5 -11.5t-50.5 -31.5l-39 49q29 28 68.5 44.5t82.5 16.5q66 0 104 -31.5t38 -83.5q0 -32 -17 -59.5t-51 -55.5l-111 -95h181v-63h-287v48z" />
    <glyph glyph-name="three.subs" horiz-adv-x="422" 
d="M121.5 -67q-37.5 16 -63.5 41l41 45q48 -41 101 -41q39 0 63.5 16.5t24.5 44.5q0 26 -23 41.5t-63 15.5h-57v44l110 103h-184v62h271v-47l-117 -109q62 -4 98.5 -33.5t36.5 -77.5q0 -56 -42 -88.5t-114 -32.5q-45 0 -82.5 16z" />
    <glyph glyph-name="four.subs" horiz-adv-x="439" 
d="M263 16h-212v46l212 244h65v-231h58v-59h-58v-92h-65v92zM263 75v151l-132 -151h132z" />
    <glyph glyph-name="five.subs" horiz-adv-x="414" 
d="M117 -67.5q-36 15.5 -62 41.5l43 43q42 -39 97 -39q37 0 59.5 17t22.5 46q0 28 -21.5 43t-59.5 15h-113v43l31 163h209v-63h-163l-14 -85h55q70 0 109.5 -30.5t39.5 -85.5q0 -57 -41.5 -90.5t-111.5 -33.5q-44 0 -80 15.5z" />
    <glyph glyph-name="six.subs" horiz-adv-x="432" 
d="M106 -35.5q-42 47.5 -42 133.5q0 97 47.5 155t130.5 58q42 0 74.5 -15t54.5 -40l-40 -43q-36 37 -86 37q-45 0 -74 -28.5t-37 -78.5q53 21 104 21q63 0 100 -32.5t37 -85.5q0 -56 -42 -92.5t-109 -36.5q-76 0 -118 47.5zM285.5 -4.5q22.5 17.5 22.5 48.5q0 27 -21 43.5
t-60 16.5q-58 0 -95 -18q1 -53 25 -80.5t66 -27.5q40 0 62.5 17.5z" />
    <glyph glyph-name="seven.subs" horiz-adv-x="416" 
d="M278 242h-213v64h294v-35l-161 -347h-74z" />
    <glyph glyph-name="eight.subs" horiz-adv-x="455" 
d="M114 -53.5q-44 29.5 -44 77.5q0 29 18.5 54.5t50.5 44.5q-55 31 -55 86q0 45 41 73.5t103 28.5q65 0 105 -28.5t40 -74.5q0 -24 -14.5 -46.5t-40.5 -40.5q67 -34 67 -95q0 -49 -44 -79t-113 -30q-70 0 -114 29.5zM297.5 169q12.5 16 12.5 33q0 25 -22.5 39t-59.5 14
q-35 0 -57 -13t-22 -34q0 -23 24.5 -38t73.5 -25l14 -3q24 11 36.5 27zM292 -10.5q26 14.5 26 39.5q0 27 -25 40.5t-80 26.5l-19 5q-28 -13 -43 -30.5t-15 -37.5q0 -26 26 -42t65 -16t65 14.5z" />
    <glyph glyph-name="nine.subs" horiz-adv-x="431" 
d="M116 -68.5q-34 14.5 -56 40.5l39 43q20 -19 41 -27.5t50 -8.5q48 0 75.5 28.5t33.5 81.5q-50 -22 -105 -22q-62 0 -99 32.5t-37 85.5q0 54 42 90t107 36q76 0 118.5 -48t42.5 -134q0 -100 -46 -156t-130 -56q-42 0 -76 14.5zM300 143q-1 52 -25 79.5t-67 27.5
q-38 0 -60.5 -17.5t-22.5 -47.5q0 -28 20.5 -43.5t58.5 -15.5q52 0 96 17z" />
    <glyph glyph-name="zero.dnom" horiz-adv-x="449" 
d="M100 47.5q-47 54.5 -47 142.5q0 58 21.5 102.5t60.5 69.5t90 25q77 0 124 -54.5t47 -142.5q0 -57 -21.5 -102t-60.5 -70t-89 -25q-78 0 -125 54.5zM297.5 95q25.5 36 25.5 95q0 60 -25 95.5t-72 35.5q-48 0 -74.5 -36t-26.5 -95t25.5 -95t74.5 -36q47 0 72.5 36z" />
    <glyph glyph-name="one.dnom" horiz-adv-x="338" 
d="M162 314l-95 -24v57l112 35h53v-382h-70v314z" />
    <glyph glyph-name="two.dnom" horiz-adv-x="423" 
d="M219 180q33 30 47 47t14 36q0 28 -20 43t-58 15q-26 0 -53.5 -11.5t-50.5 -31.5l-39 49q29 28 68.5 44.5t82.5 16.5q66 0 104 -31.5t38 -83.5q0 -32 -17 -59.5t-51 -55.5l-111 -95h181v-63h-287v48z" />
    <glyph glyph-name="three.dnom" horiz-adv-x="422" 
d="M121.5 9q-37.5 16 -63.5 41l41 45q48 -41 101 -41q39 0 63.5 16.5t24.5 44.5q0 26 -23 41.5t-63 15.5h-57v44l110 103h-184v62h271v-47l-117 -109q62 -4 98.5 -33.5t36.5 -77.5q0 -56 -42 -88.5t-114 -32.5q-45 0 -82.5 16z" />
    <glyph glyph-name="four.dnom" horiz-adv-x="439" 
d="M263 92h-212v46l212 244h65v-231h58v-59h-58v-92h-65v92zM263 151v151l-132 -151h132z" />
    <glyph glyph-name="five.dnom" horiz-adv-x="414" 
d="M117 8.5q-36 15.5 -62 41.5l43 43q42 -39 97 -39q37 0 59.5 17t22.5 46q0 28 -21.5 43t-59.5 15h-113v43l31 163h209v-63h-163l-14 -85h55q70 0 109.5 -30.5t39.5 -85.5q0 -57 -41.5 -90.5t-111.5 -33.5q-44 0 -80 15.5z" />
    <glyph glyph-name="six.dnom" horiz-adv-x="432" 
d="M106 40.5q-42 47.5 -42 133.5q0 97 47.5 155t130.5 58q42 0 74.5 -15t54.5 -40l-40 -43q-36 37 -86 37q-45 0 -74 -28.5t-37 -78.5q53 21 104 21q63 0 100 -32.5t37 -85.5q0 -56 -42 -92.5t-109 -36.5q-76 0 -118 47.5zM285.5 71.5q22.5 17.5 22.5 48.5q0 27 -21 43.5
t-60 16.5q-58 0 -95 -18q1 -53 25 -80.5t66 -27.5q40 0 62.5 17.5z" />
    <glyph glyph-name="seven.dnom" horiz-adv-x="416" 
d="M278 318h-213v64h294v-35l-161 -347h-74z" />
    <glyph glyph-name="eight.dnom" horiz-adv-x="455" 
d="M114 22.5q-44 29.5 -44 77.5q0 29 18.5 54.5t50.5 44.5q-55 31 -55 86q0 45 41 73.5t103 28.5q65 0 105 -28.5t40 -74.5q0 -24 -14.5 -46.5t-40.5 -40.5q67 -34 67 -95q0 -49 -44 -79t-113 -30q-70 0 -114 29.5zM297.5 245q12.5 16 12.5 33q0 25 -22.5 39t-59.5 14
q-35 0 -57 -13t-22 -34q0 -23 24.5 -38t73.5 -25l14 -3q24 11 36.5 27zM292 65.5q26 14.5 26 39.5q0 27 -25 40.5t-80 26.5l-19 5q-28 -13 -43 -30.5t-15 -37.5q0 -26 26 -42t65 -16t65 14.5z" />
    <glyph glyph-name="nine.dnom" horiz-adv-x="431" 
d="M116 7.5q-34 14.5 -56 40.5l39 43q20 -19 41 -27.5t50 -8.5q48 0 75.5 28.5t33.5 81.5q-50 -22 -105 -22q-62 0 -99 32.5t-37 85.5q0 54 42 90t107 36q76 0 118.5 -48t42.5 -134q0 -100 -46 -156t-130 -56q-42 0 -76 14.5zM300 219q-1 52 -25 79.5t-67 27.5
q-38 0 -60.5 -17.5t-22.5 -47.5q0 -28 20.5 -43.5t58.5 -15.5q52 0 96 17z" />
    <glyph glyph-name="zero.numr" horiz-adv-x="449" 
d="M100 321.5q-47 54.5 -47 142.5q0 58 21.5 102.5t60.5 69.5t90 25q77 0 124 -54.5t47 -142.5q0 -57 -21.5 -102t-60.5 -70t-89 -25q-78 0 -125 54.5zM297.5 369q25.5 36 25.5 95q0 60 -25 95.5t-72 35.5q-48 0 -74.5 -36t-26.5 -95t25.5 -95t74.5 -36q47 0 72.5 36z" />
    <glyph glyph-name="one.numr" horiz-adv-x="338" 
d="M162 588l-95 -24v57l112 35h53v-382h-70v314z" />
    <glyph glyph-name="two.numr" horiz-adv-x="423" 
d="M219 454q33 30 47 47t14 36q0 28 -20 43t-58 15q-26 0 -53.5 -11.5t-50.5 -31.5l-39 49q29 28 68.5 44.5t82.5 16.5q66 0 104 -31.5t38 -83.5q0 -32 -17 -59.5t-51 -55.5l-111 -95h181v-63h-287v48z" />
    <glyph glyph-name="three.numr" horiz-adv-x="422" 
d="M121.5 283q-37.5 16 -63.5 41l41 45q48 -41 101 -41q39 0 63.5 16.5t24.5 44.5q0 26 -23 41.5t-63 15.5h-57v44l110 103h-184v62h271v-47l-117 -109q62 -4 98.5 -33.5t36.5 -77.5q0 -56 -42 -88.5t-114 -32.5q-45 0 -82.5 16z" />
    <glyph glyph-name="four.numr" horiz-adv-x="439" 
d="M263 366h-212v46l212 244h65v-231h58v-59h-58v-92h-65v92zM263 425v151l-132 -151h132z" />
    <glyph glyph-name="five.numr" horiz-adv-x="414" 
d="M117 282.5q-36 15.5 -62 41.5l43 43q42 -39 97 -39q37 0 59.5 17t22.5 46q0 28 -21.5 43t-59.5 15h-113v43l31 163h209v-63h-163l-14 -85h55q70 0 109.5 -30.5t39.5 -85.5q0 -57 -41.5 -90.5t-111.5 -33.5q-44 0 -80 15.5z" />
    <glyph glyph-name="six.numr" horiz-adv-x="432" 
d="M106 314.5q-42 47.5 -42 133.5q0 97 47.5 155t130.5 58q42 0 74.5 -15t54.5 -40l-40 -43q-36 37 -86 37q-45 0 -74 -28.5t-37 -78.5q53 21 104 21q63 0 100 -32.5t37 -85.5q0 -56 -42 -92.5t-109 -36.5q-76 0 -118 47.5zM285.5 345.5q22.5 17.5 22.5 48.5q0 27 -21 43.5
t-60 16.5q-58 0 -95 -18q1 -53 25 -80.5t66 -27.5q40 0 62.5 17.5z" />
    <glyph glyph-name="seven.numr" horiz-adv-x="416" 
d="M278 592h-213v64h294v-35l-161 -347h-74z" />
    <glyph glyph-name="eight.numr" horiz-adv-x="455" 
d="M114 296.5q-44 29.5 -44 77.5q0 29 18.5 54.5t50.5 44.5q-55 31 -55 86q0 45 41 73.5t103 28.5q65 0 105 -28.5t40 -74.5q0 -24 -14.5 -46.5t-40.5 -40.5q67 -34 67 -95q0 -49 -44 -79t-113 -30q-70 0 -114 29.5zM297.5 519q12.5 16 12.5 33q0 25 -22.5 39t-59.5 14
q-35 0 -57 -13t-22 -34q0 -23 24.5 -38t73.5 -25l14 -3q24 11 36.5 27zM292 339.5q26 14.5 26 39.5q0 27 -25 40.5t-80 26.5l-19 5q-28 -13 -43 -30.5t-15 -37.5q0 -26 26 -42t65 -16t65 14.5z" />
    <glyph glyph-name="nine.numr" horiz-adv-x="431" 
d="M116 281.5q-34 14.5 -56 40.5l39 43q20 -19 41 -27.5t50 -8.5q48 0 75.5 28.5t33.5 81.5q-50 -22 -105 -22q-62 0 -99 32.5t-37 85.5q0 54 42 90t107 36q76 0 118.5 -48t42.5 -134q0 -100 -46 -156t-130 -56q-42 0 -76 14.5zM300 493q-1 52 -25 79.5t-67 27.5
q-38 0 -60.5 -17.5t-22.5 -47.5q0 -28 20.5 -43.5t58.5 -15.5q52 0 96 17z" />
    <glyph glyph-name="uni2070" unicode="&#x2070;" horiz-adv-x="449" 
d="M100 389.5q-47 54.5 -47 142.5q0 58 21.5 102.5t60.5 69.5t90 25q77 0 124 -54.5t47 -142.5q0 -57 -21.5 -102t-60.5 -70t-89 -25q-78 0 -125 54.5zM297.5 437q25.5 36 25.5 95q0 60 -25 95.5t-72 35.5q-48 0 -74.5 -36t-26.5 -95t25.5 -95t74.5 -36q47 0 72.5 36z" />
    <glyph glyph-name="uni00B9" unicode="&#xb9;" horiz-adv-x="338" 
d="M162 656l-95 -24v57l112 35h53v-382h-70v314z" />
    <glyph glyph-name="uni00B2" unicode="&#xb2;" horiz-adv-x="423" 
d="M219 522q33 30 47 47t14 36q0 28 -20 43t-58 15q-26 0 -53.5 -11.5t-50.5 -31.5l-39 49q29 28 68.5 44.5t82.5 16.5q66 0 104 -31.5t38 -83.5q0 -32 -17 -59.5t-51 -55.5l-111 -95h181v-63h-287v48z" />
    <glyph glyph-name="uni00B3" unicode="&#xb3;" horiz-adv-x="422" 
d="M121.5 351q-37.5 16 -63.5 41l41 45q48 -41 101 -41q39 0 63.5 16.5t24.5 44.5q0 26 -23 41.5t-63 15.5h-57v44l110 103h-184v62h271v-47l-117 -109q62 -4 98.5 -33.5t36.5 -77.5q0 -56 -42 -88.5t-114 -32.5q-45 0 -82.5 16z" />
    <glyph glyph-name="uni2074" unicode="&#x2074;" horiz-adv-x="439" 
d="M263 434h-212v46l212 244h65v-231h58v-59h-58v-92h-65v92zM263 493v151l-132 -151h132z" />
    <glyph glyph-name="uni2075" unicode="&#x2075;" horiz-adv-x="414" 
d="M117 350.5q-36 15.5 -62 41.5l43 43q42 -39 97 -39q37 0 59.5 17t22.5 46q0 28 -21.5 43t-59.5 15h-113v43l31 163h209v-63h-163l-14 -85h55q70 0 109.5 -30.5t39.5 -85.5q0 -57 -41.5 -90.5t-111.5 -33.5q-44 0 -80 15.5z" />
    <glyph glyph-name="uni2076" unicode="&#x2076;" horiz-adv-x="432" 
d="M106 382.5q-42 47.5 -42 133.5q0 97 47.5 155t130.5 58q42 0 74.5 -15t54.5 -40l-40 -43q-36 37 -86 37q-45 0 -74 -28.5t-37 -78.5q53 21 104 21q63 0 100 -32.5t37 -85.5q0 -56 -42 -92.5t-109 -36.5q-76 0 -118 47.5zM285.5 413.5q22.5 17.5 22.5 48.5q0 27 -21 43.5
t-60 16.5q-58 0 -95 -18q1 -53 25 -80.5t66 -27.5q40 0 62.5 17.5z" />
    <glyph glyph-name="uni2077" unicode="&#x2077;" horiz-adv-x="416" 
d="M278 660h-213v64h294v-35l-161 -347h-74z" />
    <glyph glyph-name="uni2078" unicode="&#x2078;" horiz-adv-x="455" 
d="M114 364.5q-44 29.5 -44 77.5q0 29 18.5 54.5t50.5 44.5q-55 31 -55 86q0 45 41 73.5t103 28.5q65 0 105 -28.5t40 -74.5q0 -24 -14.5 -46.5t-40.5 -40.5q67 -34 67 -95q0 -49 -44 -79t-113 -30q-70 0 -114 29.5zM297.5 587q12.5 16 12.5 33q0 25 -22.5 39t-59.5 14
q-35 0 -57 -13t-22 -34q0 -23 24.5 -38t73.5 -25l14 -3q24 11 36.5 27zM292 407.5q26 14.5 26 39.5q0 27 -25 40.5t-80 26.5l-19 5q-28 -13 -43 -30.5t-15 -37.5q0 -26 26 -42t65 -16t65 14.5z" />
    <glyph glyph-name="uni2079" unicode="&#x2079;" horiz-adv-x="431" 
d="M116 349.5q-34 14.5 -56 40.5l39 43q20 -19 41 -27.5t50 -8.5q48 0 75.5 28.5t33.5 81.5q-50 -22 -105 -22q-62 0 -99 32.5t-37 85.5q0 54 42 90t107 36q76 0 118.5 -48t42.5 -134q0 -100 -46 -156t-130 -56q-42 0 -76 14.5zM300 561q-1 52 -25 79.5t-67 27.5
q-38 0 -60.5 -17.5t-22.5 -47.5q0 -28 20.5 -43.5t58.5 -15.5q52 0 96 17z" />
    <glyph glyph-name="fraction" unicode="&#x2044;" horiz-adv-x="142" 
d="M277 657h90l-502 -657h-90z" />
    <glyph glyph-name="onehalf" unicode="&#xbd;" horiz-adv-x="896" 
d="M608 657h90l-503 -657h-89zM162 588l-95 -23v56l112 35h53v-382h-70v314zM692 180q32 29 46 46.5t14 36.5q0 28 -20 43t-57 15q-26 0 -53.5 -11.5t-50.5 -31.5l-40 49q30 28 69.5 44.5t81.5 16.5q66 0 104.5 -31.5t38.5 -83.5q0 -31 -17 -58.5t-51 -56.5l-111 -95h181
v-63h-287v48z" />
    <glyph glyph-name="onequarter" unicode="&#xbc;" horiz-adv-x="830" 
d="M612 657h90l-502 -657h-90zM162 588l-95 -23v56l112 35h53v-382h-70v314zM653 92h-211v46l211 244h66v-231h58v-59h-58v-92h-66v92zM653 151v151l-131 -151h131z" />
    <glyph glyph-name="threequarters" unicode="&#xbe;" horiz-adv-x="912" 
d="M695 657h89l-502 -657h-89zM121.5 283q-37.5 16 -63.5 41l41 45q48 -41 101 -41q39 0 63.5 16.5t24.5 44.5q0 26 -23 41.5t-63 15.5h-57v44l110 103h-184v62h271v-47l-117 -109q62 -4 98.5 -33.5t36.5 -77.5q0 -56 -42 -88.5t-114 -32.5q-45 0 -82.5 16zM736 92h-211v46
l211 244h65v-231h59v-59h-59v-92h-65v92zM736 151v151l-131 -151h131z" />
    <glyph glyph-name="period" unicode="." horiz-adv-x="253" 
d="M85.5 7.5q-15.5 16.5 -15.5 41.5q0 26 15.5 42t40.5 16q26 0 42 -16t16 -42q0 -25 -16 -41.5t-42 -16.5q-25 0 -40.5 16.5z" />
    <glyph glyph-name="comma" unicode="," horiz-adv-x="253" 
d="M70 -12q20 59 27 113h82q-6 -58 -28.5 -115.5t-53.5 -103.5h-74q27 47 47 106z" />
    <glyph glyph-name="colon" unicode=":" horiz-adv-x="253" 
d="M85.5 426.5q-15.5 16.5 -15.5 41.5q0 26 15.5 42t40.5 16q26 0 42 -16t16 -42q0 -25 -16 -41.5t-42 -16.5q-25 0 -40.5 16.5zM85.5 7.5q-15.5 16.5 -15.5 41.5q0 26 15.5 42t40.5 16q26 0 42 -16t16 -42q0 -25 -16 -41.5t-42 -16.5q-25 0 -40.5 16.5z" />
    <glyph glyph-name="semicolon" unicode=";" horiz-adv-x="253" 
d="M86 426.5q-16 16.5 -16 41.5t16 41.5t41 16.5q26 0 42 -16t16 -42q0 -25 -16 -41.5t-42 -16.5q-25 0 -41 16.5zM69.5 -12.5q19.5 59.5 26.5 113.5h83q-7 -57 -29.5 -115t-52.5 -104h-74q27 46 46.5 105.5z" />
    <glyph glyph-name="ellipsis" unicode="&#x2026;" horiz-adv-x="708" 
d="M85.5 7.5q-15.5 16.5 -15.5 41.5q0 26 15.5 42t40.5 16q26 0 42 -16t16 -42q0 -25 -16 -41.5t-42 -16.5q-25 0 -40.5 16.5zM312.5 7.5q-15.5 16.5 -15.5 41.5q0 26 15.5 42t40.5 16q26 0 42 -16t16 -42q0 -25 -16 -41.5t-42 -16.5q-25 0 -40.5 16.5zM540.5 7.5
q-15.5 16.5 -15.5 41.5q0 26 15.5 42t40.5 16q26 0 42 -16t16 -42q0 -25 -16 -41.5t-42 -16.5q-25 0 -40.5 16.5z" />
    <glyph glyph-name="exclam" unicode="!" horiz-adv-x="262" 
d="M87 676h87l-7 -479h-74zM89.5 7.5q-15.5 16.5 -15.5 41.5q0 26 15.5 42t40.5 16q26 0 42 -16t16 -42q0 -25 -16 -41.5t-42 -16.5q-25 0 -40.5 16.5z" />
    <glyph glyph-name="exclamdown" unicode="&#xa1;" horiz-adv-x="266" 
d="M94 430q-16 16 -16 42q0 25 16 41.5t42 16.5q25 0 40.5 -16.5t15.5 -41.5q0 -26 -15.5 -42t-40.5 -16q-26 0 -42 16zM99 323h74l7 -478h-88z" />
    <glyph glyph-name="question" unicode="?" horiz-adv-x="542" 
d="M227 288.5q16 30.5 39 53t60 51.5q35 28 53.5 54.5t18.5 58.5q0 103 -134 103q-53 0 -100.5 -19.5t-85.5 -53.5l-46 56q44 44 107.5 69t129.5 25q100 0 156 -46.5t56 -128.5q0 -46 -23 -81.5t-62 -66.5q-53 -41 -80.5 -72.5t-27.5 -72.5v-21h-77v23q0 38 16 68.5z
M211.5 7.5q-15.5 16.5 -15.5 41.5q0 26 15.5 42t40.5 16q26 0 42 -16t16 -42q0 -25 -16 -41.5t-42 -16.5q-25 0 -40.5 16.5z" />
    <glyph glyph-name="questiondown" unicode="&#xbf;" horiz-adv-x="521" 
d="M235 430q-16 16 -16 42q0 25 16 41.5t42 16.5q25 0 40.5 -16.5t15.5 -41.5q0 -26 -15.5 -42t-40.5 -16q-26 0 -42 16zM104 -119q-56 47 -56 128q0 46 23 82t62 66q37 29 57.5 48t35.5 44t15 53v21h77v-22q0 -55 -30 -92.5t-85 -80.5q-35 -28 -53.5 -54.5t-18.5 -59.5
q0 -51 34 -77t100 -26q53 0 100.5 19.5t85.5 53.5l46 -56q-45 -43 -108 -68.5t-129 -25.5q-100 0 -156 47z" />
    <glyph glyph-name="periodcentered" unicode="&#xb7;" horiz-adv-x="253" 
d="M85.5 320.5q-15.5 16.5 -15.5 41.5q0 26 15.5 42t40.5 16q26 0 42 -16t16 -42q0 -25 -16 -41.5t-42 -16.5q-25 0 -40.5 16.5z" />
    <glyph glyph-name="bullet" unicode="&#x2022;" horiz-adv-x="380" 
d="M118.5 279q-29.5 29 -29.5 71q0 44 29.5 73t71.5 29t71.5 -29t29.5 -73q0 -42 -29.5 -71t-71.5 -29t-71.5 29z" />
    <glyph glyph-name="asterisk" unicode="*" horiz-adv-x="367" 
d="M157 492l-89 -64l-36 50l96 60l-96 60l36 51l89 -64l-5 108h63l-5 -108l90 64l35 -51l-97 -60l97 -60l-35 -50l-90 64l5 -109h-63z" />
    <glyph glyph-name="numbersign" unicode="#" horiz-adv-x="640" 
d="M151 170h-95l10 63h94l28 198h-95l9 63h95l19 134h71l-19 -134h154l18 134h71l-18 -134h91l-10 -63h-90l-28 -198h91l-10 -63h-91l-20 -142h-70l20 142h-154l-19 -142h-71zM385 233l28 198h-154l-28 -198h154z" />
    <glyph glyph-name="slash" unicode="/" horiz-adv-x="456" 
d="M350 735h86l-329 -871h-86z" />
    <glyph glyph-name="backslash" unicode="\" horiz-adv-x="456" 
d="M21 735h86l329 -871h-86z" />
    <glyph glyph-name="exclamdown.case" horiz-adv-x="262" 
d="M90 585q-16 16 -16 42q0 25 16 41.5t42 16.5q25 0 40.5 -16.5t15.5 -41.5q0 -26 -15.5 -42t-40.5 -16q-26 0 -42 16zM95 479h74l7 -479h-88z" />
    <glyph glyph-name="questiondown.case" horiz-adv-x="542" 
d="M248 585q-16 16 -16 42q0 25 16 41.5t42 16.5q25 0 40.5 -16.5t15.5 -41.5q0 -26 -15.5 -42t-40.5 -16q-26 0 -42 16zM117 36.5q-56 46.5 -56 128.5q0 46 23 81.5t62 66.5q53 41 80.5 72.5t27.5 72.5v21h77v-23q0 -54 -29.5 -92t-84.5 -81q-35 -27 -54 -53.5t-19 -59.5
q0 -103 134 -103q53 0 100.5 19.5t85.5 53.5l46 -56q-44 -44 -107.5 -69t-129.5 -25q-100 0 -156 46.5z" />
    <glyph glyph-name="slash.case" horiz-adv-x="456" 
d="M350 771h86l-329 -871h-86z" />
    <glyph glyph-name="backslash.case" horiz-adv-x="456" 
d="M21 771h86l329 -871h-86z" />
    <glyph glyph-name="parenleft" unicode="(" horiz-adv-x="348" 
d="M115 62q-42 116 -42 237q0 119 42.5 236t120.5 200h88q-78 -88 -123 -205t-45 -231t45 -231t123 -205h-88q-79 83 -121 199z" />
    <glyph glyph-name="parenright" unicode=")" horiz-adv-x="348" 
d="M147 68.5q45 116.5 45 230.5q0 115 -44.5 231.5t-123.5 204.5h87q80 -83 122 -199t42 -237q0 -118 -42.5 -235t-121.5 -201h-87q78 89 123 205.5z" />
    <glyph glyph-name="braceleft" unicode="{" horiz-adv-x="431" 
d="M174.5 -85q-51.5 52 -51.5 151v69q0 50 -19 82.5t-60 54.5v54q41 22 60 55t19 84v68q0 98 51.5 150t150.5 52h73l-13 -77h-53q-63 0 -95.5 -33t-32.5 -96v-75q0 -49 -18 -86.5t-56 -68.5q38 -30 56 -67t18 -87v-75q0 -64 32.5 -97t95.5 -33h53l13 -77h-73
q-99 0 -150.5 52z" />
    <glyph glyph-name="braceright" unicode="}" horiz-adv-x="431" 
d="M99 -59q63 0 96 33t33 96v75q0 50 18 87t56 67q-38 30 -56 67t-18 87v76q0 64 -33 97t-96 33h-53l-13 76h74q98 0 149.5 -52t51.5 -150v-69q0 -51 19 -83.5t60 -53.5v-54q-41 -23 -60 -56t-19 -83v-68q0 -98 -51.5 -150.5t-149.5 -52.5h-74l13 78h53z" />
    <glyph glyph-name="bracketleft" unicode="[" horiz-adv-x="413" 
d="M103 735h277l-13 -77h-183v-718h183l13 -77h-277v872z" />
    <glyph glyph-name="bracketright" unicode="]" horiz-adv-x="413" 
d="M46 -59h183v718h-183l-13 76h277v-872h-277z" />
    <glyph glyph-name="parenleft.case" horiz-adv-x="348" 
d="M115 98q-42 116 -42 237q0 119 42.5 235.5t120.5 200.5h88q-78 -89 -123 -205.5t-45 -230.5t45 -231t123 -205h-88q-79 83 -121 199z" />
    <glyph glyph-name="parenright.case" horiz-adv-x="348" 
d="M147 104.5q45 116.5 45 230.5t-45 231t-123 205h87q80 -83 122 -199t42 -237q0 -118 -42.5 -235t-121.5 -201h-87q78 89 123 205.5z" />
    <glyph glyph-name="braceleft.case" horiz-adv-x="431" 
d="M174.5 -49q-51.5 52 -51.5 150v69q0 51 -19 83.5t-60 53.5v54q41 23 60 56t19 83v68q0 99 51.5 151t150.5 52h73l-13 -78h-53q-63 0 -95.5 -33t-32.5 -96v-74q0 -49 -18.5 -86.5t-55.5 -68.5q38 -31 56 -68t18 -86v-75q0 -64 32.5 -97.5t95.5 -33.5h53l13 -76h-73
q-99 0 -150.5 52z" />
    <glyph glyph-name="braceright.case" horiz-adv-x="431" 
d="M99 -24q63 0 96 33t33 97v74q0 50 18 87t56 68q-38 29 -56 66.5t-18 87.5v75q0 64 -33 97t-96 33h-53l-13 77h74q98 0 149.5 -52t51.5 -151v-69q0 -50 19 -82.5t60 -54.5v-54q-41 -22 -60 -55t-19 -84v-68q0 -98 -51.5 -150t-149.5 -52h-74l13 77h53z" />
    <glyph glyph-name="bracketleft.case" horiz-adv-x="413" 
d="M103 771h277l-13 -78h-183v-717h183l13 -77h-277v872z" />
    <glyph glyph-name="bracketright.case" horiz-adv-x="413" 
d="M46 -24h183v718h-183l-13 77h277v-872h-277z" />
    <glyph glyph-name="hyphen" unicode="-" horiz-adv-x="445" 
d="M63 332h319v-75h-319v75z" />
    <glyph glyph-name="uni00AD" unicode="&#xad;" horiz-adv-x="445" 
d="M63 332h319v-75h-319v75z" />
    <glyph glyph-name="endash" unicode="&#x2013;" horiz-adv-x="490" 
d="M0 331h490v-73h-490v73z" />
    <glyph glyph-name="emdash" unicode="&#x2014;" horiz-adv-x="980" 
d="M0 331h980v-73h-980v73z" />
    <glyph glyph-name="underscore" unicode="_" horiz-adv-x="490" 
d="M0 -80h490v-68h-490v68z" />
    <glyph glyph-name="hyphen.case" horiz-adv-x="445" 
d="M63 378h319v-75h-319v75z" />
    <glyph glyph-name="endash.case" horiz-adv-x="490" 
d="M0 377h490v-73h-490v73z" />
    <glyph glyph-name="emdash.case" horiz-adv-x="980" 
d="M0 377h980v-73h-980v73z" />
    <glyph glyph-name="quotesinglbase" unicode="&#x201a;" horiz-adv-x="245" 
d="M66 -12q20 59 27 113h82q-6 -58 -28.5 -115.5t-53.5 -103.5h-74q27 47 47 106z" />
    <glyph glyph-name="quotedblbase" unicode="&#x201e;" horiz-adv-x="402" 
d="M66 -12q20 59 27 113h82q-6 -58 -28.5 -115.5t-53.5 -103.5h-74q27 47 47 106zM223 -12q20 59 27 113h82q-6 -58 -28.5 -115.5t-53.5 -103.5h-74q27 47 47 106z" />
    <glyph glyph-name="quotedblleft" unicode="&#x201c;" horiz-adv-x="395" 
d="M88 576q21 55 50 101h71q-26 -48 -43.5 -102.5t-23.5 -106.5h-81q6 53 27 108zM245 576q21 55 50 101h71q-26 -48 -43.5 -102.5t-23.5 -106.5h-81q6 53 27 108z" />
    <glyph glyph-name="quotedblright" unicode="&#x201d;" horiz-adv-x="395" 
d="M77.5 568q17.5 55 24.5 108h81q-7 -54 -28 -109t-50 -100h-71q26 46 43.5 101zM234.5 568q17.5 55 24.5 108h81q-7 -54 -28 -109t-50 -100h-71q26 46 43.5 101z" />
    <glyph glyph-name="quoteleft" unicode="&#x2018;" horiz-adv-x="238" 
d="M88 576q21 55 50 101h71q-26 -48 -43.5 -102.5t-23.5 -106.5h-81q6 53 27 108z" />
    <glyph glyph-name="quoteright" unicode="&#x2019;" horiz-adv-x="238" 
d="M77.5 568q17.5 55 24.5 108h81q-7 -54 -28 -109t-50 -100h-71q26 46 43.5 101z" />
    <glyph glyph-name="guillemotleft" unicode="&#xab;" horiz-adv-x="487" 
d="M46 282l134 192h84l-128 -192l128 -193h-84zM227 282l133 192h85l-129 -192l129 -193h-85z" />
    <glyph glyph-name="guillemotright" unicode="&#xbb;" horiz-adv-x="487" 
d="M172 281l-129 193h85l133 -193l-133 -192h-85zM352 281l-128 193h84l134 -193l-134 -192h-84z" />
    <glyph glyph-name="guilsinglleft" unicode="&#x2039;" horiz-adv-x="307" 
d="M46 282l134 192h84l-128 -192l128 -193h-84z" />
    <glyph glyph-name="guilsinglright" unicode="&#x203a;" horiz-adv-x="307" 
d="M172 281l-129 193h85l133 -193l-133 -192h-85z" />
    <glyph glyph-name="quotedbl" unicode="&#x22;" horiz-adv-x="407" 
d="M77 676h83l-7 -259h-71zM247 676h83l-6 -259h-71z" />
    <glyph glyph-name="quotesingle" unicode="'" horiz-adv-x="236" 
d="M77 676h83l-7 -259h-71z" />
    <glyph glyph-name="guillemotleft.case" horiz-adv-x="487" 
d="M46 346l134 192h84l-128 -192l128 -193h-84zM227 346l133 192h85l-129 -192l129 -193h-85z" />
    <glyph glyph-name="guillemotright.case" horiz-adv-x="487" 
d="M172 345l-129 193h85l133 -193l-133 -192h-85zM352 345l-128 193h84l134 -193l-134 -192h-84z" />
    <glyph glyph-name="guilsinglleft.case" horiz-adv-x="307" 
d="M46 346l134 192h84l-128 -192l128 -193h-84z" />
    <glyph glyph-name="guilsinglright.case" horiz-adv-x="307" 
d="M172 345l-129 193h85l133 -193l-133 -192h-85z" />
    <glyph glyph-name="period.dnom" horiz-adv-x="161" 
d="M37 6q-14 14 -14 35q0 22 14 36t35 14q22 0 36 -14t14 -36q0 -21 -14 -35t-36 -14q-21 0 -35 14z" />
    <glyph glyph-name="comma.dnom" horiz-adv-x="161" 
d="M41 85h75q-5 -38 -21.5 -80t-38.5 -76h-66q39 72 51 156z" />
    <glyph glyph-name="period.numr" horiz-adv-x="161" 
d="M45 280q-14 14 -14 35q0 22 13.5 36t34.5 14q22 0 36.5 -14t14.5 -36q0 -21 -14.5 -35t-36.5 -14q-20 0 -34 14z" />
    <glyph glyph-name="comma.numr" horiz-adv-x="161" 
d="M51 359h75q-5 -38 -21.5 -80t-38.5 -76h-66q39 72 51 156z" />
    <glyph glyph-name="period.subs" horiz-adv-x="161" 
d="M45 -70q-14 14 -14 35q0 22 13.5 36t34.5 14q22 0 36.5 -14t14.5 -36q0 -21 -14.5 -35t-36.5 -14q-20 0 -34 14z" />
    <glyph glyph-name="comma.subs" horiz-adv-x="161" 
d="M51 8h75q-5 -38 -21.5 -80t-38.5 -76h-66q39 72 51 156z" />
    <glyph glyph-name="uni00A0" unicode="&#xa0;" horiz-adv-x="255" 
 />
    <glyph glyph-name="cent" unicode="&#xa2;" 
d="M138 158q-57 71 -57 177q0 67 26.5 123t74.5 93t109 48v112l80 18v-129q83 -9 147 -78l-51 -49q-27 29 -58 43t-71 14q-80 0 -128.5 -53.5t-48.5 -141.5q0 -57 22.5 -101t63 -68.5t91.5 -24.5q40 0 73 15t62 44l50 -50q-65 -69 -152 -78v-120l-80 -18v139q-96 14 -153 85
z" />
    <glyph glyph-name="currency" unicode="&#xa4;" 
d="M109 217q-31 53 -31 119q0 64 32 116l-78 78l55 55l76 -74q57 43 130 43q74 0 131 -43l75 74l55 -55l-77 -78q31 -51 31 -117q0 -65 -32 -117l78 -78l-55 -55l-77 75q-57 -44 -129 -44q-73 0 -130 42l-76 -73l-55 55zM365 206q32 20 50 54.5t18 74.5q0 41 -17.5 75
t-49.5 54t-73 20t-73 -20t-49.5 -54t-17.5 -74q0 -41 17.5 -75t49.5 -54.5t73 -20.5q40 0 72 20z" />
    <glyph glyph-name="dollar" unicode="$" 
d="M48 102l48 51q81 -84 207 -84q69 0 107.5 27.5t38.5 77.5q0 55 -40 82.5t-127 48.5q-112 25 -161.5 67t-49.5 124q0 44 24 81t67 61.5t99 30.5v109l79 18v-129q97 -16 171 -93l-49 -50q-36 36 -80 54t-88 18q-66 0 -105 -27t-39 -74q0 -37 18 -58t51.5 -33t99.5 -28
q110 -27 160.5 -75t50.5 -122q0 -75 -50 -124.5t-140 -58.5v-121l-79 -17v138q-128 13 -213 106z" />
    <glyph glyph-name="Euro" unicode="&#x20ac;" 
d="M196.5 52.5q-71.5 62.5 -97.5 167.5h-90l17 67h62q-2 28 -2 41q0 25 3 49h-80l17 67h76q29 101 101.5 162t165.5 61q63 0 111.5 -22.5t88.5 -65.5l-51 -53q-62 66 -147 66q-64 0 -113 -40t-73 -108h227l-18 -67h-224q-2 -30 -2 -49q0 -13 2 -41h200l-18 -67h-168
q22 -71 71.5 -112.5t113.5 -41.5q46 0 83.5 16t72.5 50l52 -53q-44 -45 -95 -67t-115 -22q-99 0 -170.5 62.5z" />
    <glyph glyph-name="florin" unicode="&#x192;" 
d="M80 74q46 0 74.5 15t45.5 46t30 84l21 85h-145v71h162l16 68q27 112 79.5 163t150.5 51h55v-74h-54q-69 0 -101 -33t-51 -112l-14 -63h149v-71h-166l-21 -90q-26 -111 -78.5 -162.5t-151.5 -51.5h-64v74h63z" />
    <glyph glyph-name="sterling" unicode="&#xa3;" 
d="M130 282h-93v71h107l19 87q23 105 82 161t165 56h127v-74h-128q-70 0 -112.5 -34t-59.5 -114l-17 -82h243v-71h-257l-45 -209h386v-73h-466v56z" />
    <glyph glyph-name="yen" unicode="&#xa5;" 
d="M254 121h-181v67h181v82h-181v67h140l-183 320h92l172 -313l174 313h87l-182 -320h140v-67h-181v-82h181v-67h-181v-121h-78v121z" />
    <glyph glyph-name="plus" unicode="+" 
d="M258 295h-175v71h175v176h70v-176h175v-71h-175v-176h-70v176z" />
    <glyph glyph-name="minus" unicode="&#x2212;" 
d="M102 367h382v-73h-382v73z" />
    <glyph glyph-name="multiply" unicode="&#xd7;" 
d="M112 199l131 132l-131 131l50 50l131 -130l131 130l50 -50l-130 -131l130 -132l-50 -50l-131 131l-131 -131z" />
    <glyph glyph-name="divide" unicode="&#xf7;" 
d="M254 452q-15 16 -15 39q0 24 15 39t38 15q25 0 40 -15t15 -39t-15.5 -39.5t-39.5 -15.5q-23 0 -38 16zM102 367h382v-73h-382v73zM254 131.5q-15 15.5 -15 38.5q0 25 15 40t38 15q25 0 40 -15t15 -40q0 -23 -15.5 -38.5t-39.5 -15.5q-23 0 -38 15.5z" />
    <glyph glyph-name="equal" unicode="=" 
d="M102 469h382v-74h-382v74zM102 265h382v-73h-382v73z" />
    <glyph glyph-name="notequal" unicode="&#x2260;" 
d="M135 109l45 83h-78v73h117l70 130h-187v74h226l59 110l65 -28l-44 -82h76v-74h-116l-69 -130h185v-73h-225l-59 -111z" />
    <glyph glyph-name="greater" unicode="&#x3e;" 
d="M116 180l269 152l-269 150l35 63l318 -182v-63l-318 -182z" />
    <glyph glyph-name="less" unicode="&#x3c;" 
d="M117 299v63l318 182l35 -62l-269 -152l269 -150l-35 -63z" />
    <glyph glyph-name="greaterequal" unicode="&#x2265;" 
d="M132 226l271 137l-271 138l27 63l323 -170v-62l-323 -169zM115 72h367v-72h-367v72z" />
    <glyph glyph-name="lessequal" unicode="&#x2264;" 
d="M104 332v62l323 170l27 -63l-271 -137l271 -137l-27 -64zM104 73h367v-73h-367v73z" />
    <glyph glyph-name="plusminus" unicode="&#xb1;" 
d="M258 309h-175v71h175v176h70v-176h175v-71h-175v-176h-70v176zM102 73h382v-74h-382v74z" />
    <glyph glyph-name="approxequal" unicode="&#x2248;" 
d="M342 370q-23 12 -55 34q-25 18 -43.5 27t-36.5 9q-34 0 -53.5 -17t-22.5 -57h-67q3 67 38.5 106.5t93.5 39.5q27 0 51.5 -12t61.5 -36q25 -18 42.5 -27t32.5 -9q31 0 50 20t22 58h65q-2 -67 -37 -107.5t-93 -40.5q-26 0 -49 12zM342 161q-23 12 -55 34q-25 18 -43.5 27
t-36.5 9q-34 0 -53.5 -17t-22.5 -57h-67q3 67 38.5 106.5t93.5 39.5q27 0 51.5 -12t61.5 -36q25 -18 42.5 -27t32.5 -9q31 0 50 20t22 58h65q-2 -67 -37 -107.5t-93 -40.5q-26 0 -49 12z" />
    <glyph glyph-name="asciitilde" unicode="~" 
d="M342 258q-23 12 -55 34q-25 18 -43.5 27t-36.5 9q-34 0 -53.5 -17t-22.5 -57h-67q3 67 38.5 106.5t93.5 39.5q27 0 51.5 -12t61.5 -36q25 -18 42.5 -27t32.5 -9q31 0 50 20t22 58h65q-2 -67 -37 -107.5t-93 -40.5q-26 0 -49 12z" />
    <glyph glyph-name="logicalnot" unicode="&#xac;" 
d="M413 349h-333v71h404v-249h-71v178z" />
    <glyph glyph-name="asciicircum" unicode="^" 
d="M256 676h77l179 -336h-83l-135 260l-137 -260h-83z" />
    <glyph glyph-name="uni00B5" unicode="&#xb5;" 
d="M152 520v-286q0 -89 29.5 -130t99.5 -41q43 0 82.5 25t69.5 69v363h80v-520h-49l-24 77q-35 -41 -79.5 -64t-93.5 -23q-74 0 -115 44v-238l-79 -16v740h79z" />
    <glyph glyph-name="percent" unicode="%" horiz-adv-x="953" 
d="M100 321.5q-47 54.5 -47 143.5q0 57 21.5 101.5t60.5 69.5t90 25q77 0 124 -54t47 -142q0 -58 -21.5 -103t-60.5 -70t-89 -25q-78 0 -125 54.5zM682 657h90l-502 -657h-90zM297.5 369q25.5 36 25.5 96t-25 95t-72 35q-48 0 -74.5 -35.5t-26.5 -94.5t25.5 -95.5
t74.5 -36.5q47 0 72.5 36zM604 47.5q-47 54.5 -47 143.5q0 57 21.5 101.5t60.5 69.5t90 25q77 0 124 -54t47 -142t-47 -143t-124 -55q-78 0 -125 54.5zM802 95q26 36 26 95q0 60 -25.5 95.5t-72.5 35.5q-48 0 -74.5 -36t-26.5 -95t25.5 -95t74.5 -36q47 0 73 36z" />
    <glyph glyph-name="perthousand" unicode="&#x2030;" horiz-adv-x="1351" 
d="M100 321.5q-47 54.5 -47 143.5q0 57 21.5 101.5t60.5 69.5t90 25q77 0 124 -54t47 -142q0 -58 -21.5 -103t-60.5 -70t-89 -25q-78 0 -125 54.5zM682 657h90l-502 -657h-90zM297.5 369q25.5 36 25.5 96t-25 95t-72 35q-48 0 -74.5 -35.5t-26.5 -94.5t25.5 -95.5
t74.5 -36.5q47 0 72.5 36zM604 47.5q-47 54.5 -47 143.5q0 57 21.5 101.5t60.5 69.5t90 25q77 0 124 -54t47 -142t-47 -143t-124 -55q-78 0 -125 54.5zM1002 47.5q-47 54.5 -47 143.5q0 57 21.5 101.5t61 69.5t89.5 25q77 0 124.5 -54t47.5 -142q0 -58 -21.5 -103t-60.5 -70
t-90 -25q-78 0 -125 54.5zM802 95q26 36 26 95q0 60 -25.5 95.5t-72.5 35.5q-48 0 -74.5 -36t-26.5 -95t25.5 -95t74.5 -36q47 0 73 36zM1200.5 95q25.5 36 25.5 95q0 60 -25 95.5t-73 35.5t-74 -35.5t-26 -95.5q0 -59 25.5 -95t73.5 -36t73.5 36z" />
    <glyph glyph-name="at" unicode="@" horiz-adv-x="948" 
d="M254 -108q-91 53 -143 147.5t-52 213.5q0 123 61 221.5t162 154.5t216 56q117 0 208 -43.5t141.5 -121t50.5 -176.5q0 -84 -36 -148t-96.5 -99t-133.5 -35h-39l-14 47q-28 -26 -61.5 -40t-68.5 -14q-80 0 -127.5 55.5t-47.5 149.5q0 58 25.5 105t70 73.5t98.5 26.5
q29 0 61.5 -12t56.5 -31l9 35h62v-330q75 6 121.5 63.5t46.5 153.5q0 79 -40.5 140.5t-114.5 96t-172 34.5q-97 0 -180.5 -46t-133.5 -128.5t-50 -186.5q0 -100 42 -178t116.5 -121.5t168.5 -43.5q71 0 122.5 19t94.5 55l46 -53q-102 -93 -265 -93q-114 0 -205 53zM574 181
v180q-45 34 -94 34q-57 0 -91.5 -36.5t-34.5 -100.5q0 -60 30 -95.5t83 -35.5q58 0 107 54z" />
    <glyph glyph-name="ampersand" unicode="&#x26;" horiz-adv-x="647" 
d="M157.5 13q-54.5 24 -84 68.5t-29.5 102.5q0 63 38 110.5t100 78.5q-32 37 -47.5 71t-15.5 73q0 49 26.5 87.5t73 60t104.5 21.5t104 -23.5t87 -69.5l-54 -52q-33 36 -65 53.5t-72 17.5q-57 0 -91.5 -28t-34.5 -74q0 -33 21.5 -63.5t73.5 -86.5l32 -35l150 -165
q43 65 43 156v35h72v-36q0 -59 -17 -112.5t-48 -96.5l97 -106h-95l-52 54q-79 -65 -191 -65q-71 0 -125.5 24zM426 107l-200 215q-45 -20 -74 -53t-29 -78q0 -58 47.5 -94t119.5 -36q79 0 136 46z" />
    <glyph glyph-name="paragraph" unicode="&#xb6;" horiz-adv-x="561" 
d="M283 -73q49 0 76 31.5t27 87.5v616l82 14v-631q0 -93 -46.5 -143.5t-130.5 -50.5h-28v76h20zM118 274.5q-70 53.5 -70 146.5q0 86 52 141.5t149 74.5l64 13v-429q-125 0 -195 53.5z" />
    <glyph glyph-name="section" unicode="&#xa7;" horiz-adv-x="460" 
d="M154 -78q53 0 81 20.5t28 57.5q0 27 -15 49t-45 48l-84 75q-36 31 -53 63t-17 69q0 45 30 80t80 48q-37 46 -37 94q0 69 51.5 109.5t143.5 40.5h54v-71h-62q-53 0 -81 -22t-28 -58q0 -28 14 -49t45 -48l83 -73q68 -59 68 -131q0 -44 -30 -78t-80 -47q20 -25 30.5 -48.5
t10.5 -50.5q0 -69 -50.5 -108.5t-141.5 -39.5h-64v70h69zM312 174q25 21 25 51q0 22 -11.5 41t-35.5 41l-78 70h-2q-38 -1 -62.5 -21.5t-24.5 -51.5q0 -22 12 -41.5t36 -41.5l75 -68h2q39 0 64 21z" />
    <glyph glyph-name="copyright" unicode="&#xa9;" horiz-adv-x="800" 
d="M220.5 32.5q-80.5 43.5 -127.5 123t-47 182.5q0 100 47.5 180t128.5 124.5t177 44.5q97 0 178 -44t129 -124t48 -181q0 -102 -48 -181.5t-129.5 -123.5t-177.5 -44q-98 0 -178.5 43.5zM547 87q66 36 104 101.5t38 149.5q0 83 -38 148.5t-104 102t-148 36.5t-147.5 -36.5
t-103 -102t-37.5 -148.5q0 -85 37 -150t102.5 -101t148.5 -36q82 0 148 36zM270 201.5q-51 51.5 -51 137.5q0 54 24.5 96.5t67 66.5t95.5 24q39 0 73 -15t56 -44l-38 -44q-39 39 -88 39q-54 0 -86 -33t-32 -90t31.5 -90t86.5 -33q56 0 96 38l38 -47q-27 -27 -62.5 -42
t-76.5 -15q-83 0 -134 51.5z" />
    <glyph glyph-name="registered" unicode="&#xae;" horiz-adv-x="557" 
d="M154 277q-56 30 -89 85t-33 126q0 69 33.5 124t89.5 86t122 31q67 0 123.5 -30.5t90 -85.5t33.5 -125q0 -71 -33.5 -126t-90 -85t-123.5 -30t-123 30zM378.5 318.5q44.5 24.5 69.5 68.5t25 101q0 56 -25 100t-69.5 69t-101.5 25q-56 0 -100.5 -24.5t-69 -69t-24.5 -100.5
q0 -57 24.5 -101t69 -68.5t100.5 -24.5q57 0 101.5 24.5zM283 612q42 0 68 -21.5t26 -56.5q0 -21 -11.5 -37t-31.5 -24q18 -13 30 -36l33 -65h-61l-20 38q-11 23 -21.5 31.5t-32.5 8.5h-25v-78h-52v240h98zM308 506.5q11 8.5 11 24.5q0 34 -44 34h-38v-67h38q22 0 33 8.5z
" />
    <glyph glyph-name="trademark" unicode="&#x2122;" horiz-adv-x="849" 
d="M148 615h-117v61h297v-61h-116v-293h-64v293zM394 676h61l126 -223l134 223h61v-354h-63v238l-106 -170h-51l-101 168v-236h-61v354z" />
    <glyph glyph-name="degree" unicode="&#xb0;" horiz-adv-x="382" 
d="M119.5 417q-32.5 19 -51.5 51.5t-19 70.5t19 70.5t51.5 51.5t70.5 19t71 -19t52 -51.5t19 -70.5t-19 -70.5t-52 -51.5t-71 -19t-70.5 19zM244.5 484.5q22.5 22.5 22.5 54.5t-22.5 54.5t-54.5 22.5q-31 0 -53 -22.5t-22 -54.5t22 -54.5t53 -22.5q32 0 54.5 22.5z" />
    <glyph glyph-name="bar" unicode="|" horiz-adv-x="288" 
d="M103 735h81v-872h-81v872z" />
    <glyph glyph-name="brokenbar" unicode="&#xa6;" horiz-adv-x="288" 
d="M103 735h81v-328h-81v328zM103 192h81v-329h-81v329z" />
    <glyph glyph-name="dagger" unicode="&#x2020;" horiz-adv-x="367" 
d="M150 508h-120v60h120v108l64 13v-121h122v-60h-122v-212h-64v212z" />
    <glyph glyph-name="daggerdbl" unicode="&#x2021;" horiz-adv-x="384" 
d="M159 393h-117v59h117v81h-117v59h117v84l64 13v-97h119v-59h-119v-81h119v-59h-119v-97h-64v97z" />
    <glyph glyph-name="at.case" horiz-adv-x="948" 
d="M254.5 -47q-91.5 53 -143.5 147t-52 214q0 123 61 221.5t162 154.5t216 56q117 0 208 -43.5t141.5 -121t50.5 -176.5q0 -84 -36 -148t-96.5 -99t-133.5 -35h-39l-14 47q-59 -54 -130 -54q-80 0 -127.5 55.5t-47.5 149.5q0 58 25.5 105t70 73.5t98.5 26.5q28 0 60.5 -12
t57.5 -31l9 35h62v-330q75 5 122 63t47 154q0 79 -40.5 140.5t-115 96.5t-172.5 35q-97 0 -181 -46.5t-134 -129t-50 -186.5q0 -100 42 -178.5t117 -122t169 -43.5q71 0 123 19t94 55l46 -52q-102 -93 -264 -93q-114 0 -205.5 53zM574 241v181q-45 34 -95 34
q-56 0 -90.5 -36.5t-34.5 -101.5q0 -60 30 -95.5t83 -35.5q58 0 107 54z" />
    <glyph glyph-name="uni0308" unicode="&#x308;" horiz-adv-x="0" 
d="M-421 631.5q-14 14.5 -14 35.5q0 23 14 37.5t37 14.5q22 0 36.5 -14.5t14.5 -37.5q0 -21 -14.5 -35.5t-36.5 -14.5q-23 0 -37 14.5zM-240.5 631.5q-14.5 14.5 -14.5 35.5q0 23 14 37.5t37 14.5t37 -14.5t14 -37.5q0 -21 -14.5 -35.5t-36.5 -14.5t-36.5 14.5z" />
    <glyph glyph-name="uni0307" unicode="&#x307;" horiz-adv-x="0" 
d="M-331 631.5q-15 14.5 -15 36.5q0 23 14.5 37.5t37.5 14.5q22 0 37 -14.5t15 -37.5q0 -22 -15 -36.5t-37 -14.5t-37 14.5z" />
    <glyph glyph-name="gravecomb" unicode="&#x300;" horiz-adv-x="0" 
d="M-411 736h99l135 -137h-88z" />
    <glyph glyph-name="acutecomb" unicode="&#x301;" horiz-adv-x="0" 
d="M-276 736h99l-146 -137h-88z" />
    <glyph glyph-name="uni0302" unicode="&#x302;" horiz-adv-x="0" 
d="M-337 736h87l120 -137h-82l-82 85l-83 -85h-80z" />
    <glyph glyph-name="uni030C" unicode="&#x30c;" horiz-adv-x="0" 
d="M-457 736h83l81 -84l82 84h81l-120 -137h-87z" />
    <glyph glyph-name="uni030A" unicode="&#x30a;" horiz-adv-x="0" 
d="M-355 603.5q-28 16.5 -44.5 44.5t-16.5 61q0 50 36 85t86 35q51 0 87 -35t36 -85q0 -51 -36 -86.5t-87 -35.5q-33 0 -61 16.5zM-248 661.5q19 19.5 19 47.5q0 27 -19 45.5t-46 18.5q-26 0 -45 -18.5t-19 -45.5q0 -28 19 -47.5t45 -19.5q27 0 46 19.5z" />
    <glyph glyph-name="tildecomb" unicode="&#x303;" horiz-adv-x="0" 
d="M-253.5 614.5q-16.5 6.5 -39.5 19.5q-3 2 -17 10t-26 11.5t-24 3.5q-23 0 -43.5 -10t-45.5 -30v68q22 19 43 28.5t46 9.5q22 0 39 -6.5t39 -18.5q22 -13 36.5 -19.5t31.5 -6.5q25 0 45 10t45 29v-67q-22 -18 -43 -28t-48 -10q-22 0 -38.5 6.5z" />
    <glyph glyph-name="uni0327" unicode="&#x327;" horiz-adv-x="0" 
d="M-352 -125q32 0 52 13t20 39q0 19 -10 36t-31 39l55 14q53 -47 53 -98q0 -50 -37.5 -76.5t-99.5 -26.5h-25v60h23z" />
    <glyph glyph-name="dieresis" unicode="&#xa8;" horiz-adv-x="588" 
d="M167 631.5q-14 14.5 -14 35.5q0 23 14 37.5t37 14.5q22 0 36.5 -14.5t14.5 -37.5q0 -21 -14.5 -35.5t-36.5 -14.5q-23 0 -37 14.5zM347.5 631.5q-14.5 14.5 -14.5 35.5q0 23 14 37.5t37 14.5t37 -14.5t14 -37.5q0 -21 -14.5 -35.5t-36.5 -14.5t-36.5 14.5z" />
    <glyph glyph-name="dotaccent" unicode="&#x2d9;" horiz-adv-x="588" 
d="M257 631.5q-15 14.5 -15 36.5q0 23 14.5 37.5t37.5 14.5q22 0 37 -14.5t15 -37.5q0 -22 -15 -36.5t-37 -14.5t-37 14.5z" />
    <glyph glyph-name="grave" unicode="`" horiz-adv-x="588" 
d="M177 736h99l135 -137h-88z" />
    <glyph glyph-name="acute" unicode="&#xb4;" horiz-adv-x="588" 
d="M312 736h99l-146 -137h-88z" />
    <glyph glyph-name="circumflex" unicode="&#x2c6;" horiz-adv-x="588" 
d="M251 736h87l120 -137h-82l-82 85l-83 -85h-80z" />
    <glyph glyph-name="caron" unicode="&#x2c7;" horiz-adv-x="588" 
d="M131 736h83l81 -84l82 84h81l-120 -137h-87z" />
    <glyph glyph-name="ring" unicode="&#x2da;" horiz-adv-x="588" 
d="M233 603.5q-28 16.5 -44.5 44.5t-16.5 61q0 50 36 85t86 35q51 0 87 -35t36 -85q0 -51 -36 -86.5t-87 -35.5q-33 0 -61 16.5zM340 661.5q19 19.5 19 47.5q0 27 -19 45.5t-46 18.5q-26 0 -45 -18.5t-19 -45.5q0 -28 19 -47.5t45 -19.5q27 0 46 19.5z" />
    <glyph glyph-name="tilde" unicode="&#x2dc;" horiz-adv-x="588" 
d="M334.5 614.5q-16.5 6.5 -39.5 19.5q-3 2 -17 10t-26 11.5t-24 3.5q-23 0 -43.5 -10t-45.5 -30v68q22 19 43 28.5t46 9.5q22 0 39 -6.5t39 -18.5q22 -13 36.5 -19.5t31.5 -6.5q25 0 45 10t45 29v-67q-22 -18 -43 -28t-48 -10q-22 0 -38.5 6.5z" />
    <glyph glyph-name="cedilla" unicode="&#xb8;" horiz-adv-x="588" 
d="M236 -125q32 0 52 13t20 39q0 19 -10 36t-31 39l55 14q53 -47 53 -98q0 -50 -37.5 -76.5t-99.5 -26.5h-25v60h23z" />
    <glyph glyph-name="uni0308.case" horiz-adv-x="0" 
d="M-421.5 764q-14.5 14 -14.5 36t14.5 36t37.5 14q22 0 37 -14t15 -36t-15 -36t-37 -14q-23 0 -37.5 14zM-240 764q-15 14 -15 36t14.5 36t37.5 14t37.5 -14t14.5 -36t-14.5 -36t-37.5 -14q-22 0 -37 14z" />
    <glyph glyph-name="uni0307.case" horiz-adv-x="0" 
d="M-332 772q-15 14 -15 36t15 36.5t38 14.5q22 0 37.5 -14.5t15.5 -36.5t-15.5 -36t-37.5 -14q-23 0 -38 14z" />
    <glyph glyph-name="gravecomb.case" horiz-adv-x="0" 
d="M-413 872h101l137 -130h-89z" />
    <glyph glyph-name="acutecomb.case" horiz-adv-x="0" 
d="M-277 872h102l-148 -130h-90z" />
    <glyph glyph-name="uni0302.case" horiz-adv-x="0" 
d="M-338 871h89l123 -130h-85l-83 80l-83 -80h-84z" />
    <glyph glyph-name="uni030C.case" horiz-adv-x="0" 
d="M-461 871h85l83 -80l83 80h84l-123 -130h-89z" />
    <glyph glyph-name="uni030A.case" horiz-adv-x="0" 
d="M-381 774.5q-36 35.5 -36 86.5t36 85.5t87 34.5q33 0 61.5 -16t45.5 -43.5t17 -60.5q0 -52 -36.5 -87t-87.5 -35t-87 35.5zM-248 813.5q19 19.5 19 47.5q0 27 -19 45.5t-46 18.5q-26 0 -45 -18.5t-19 -45.5q0 -28 19 -47.5t45 -19.5q27 0 46 19.5z" />
    <glyph glyph-name="tildecomb.case" horiz-adv-x="0" 
d="M-292 777q-19 12 -33 17.5t-31 5.5q-25 0 -46.5 -9.5t-47.5 -27.5v66q44 35 94 35q41 0 76 -22q23 -14 36.5 -19.5t30.5 -5.5q27 0 49.5 10.5t46.5 27.5v-68q-45 -35 -97 -35q-39 0 -78 25z" />
    <glyph glyph-name="uni0327.case" horiz-adv-x="0" 
d="M-355 -126q34 0 54.5 13t20.5 38q0 19 -10.5 37.5t-32.5 40.5l59 14q54 -49 54 -101t-39 -79t-104 -27h-25v64h23z" />
    <glyph glyph-name="gravecomb.narrow.case" horiz-adv-x="0" 
d="M-395 872h92l99 -130h-79z" />
    <glyph glyph-name="acutecomb.narrow.case" horiz-adv-x="0" 
d="M-295 872h91l-112 -130h-79z" />
    <glyph glyph-name="gravecomb.narrow" horiz-adv-x="0" 
d="M-395 736h92l99 -137h-79z" />
    <glyph glyph-name="acutecomb.narrow" horiz-adv-x="0" 
d="M-296 736h92l-112 -137h-79z" />
    <glyph glyph-name="periodsuperior" horiz-adv-x="161" 
d="M45 348q-14 14 -14 35q0 22 13.5 36t34.5 14q22 0 36.5 -14t14.5 -36q0 -21 -14.5 -35t-36.5 -14q-20 0 -34 14z" />
    <glyph glyph-name="commasuperior" horiz-adv-x="161" 
d="M51 427h75q-5 -38 -21.5 -80t-38.5 -76h-66q39 72 51 156z" />
    </font>
</defs>
</svg>
