<?xml version="1.0" standalone="no"?>
<!DOCTYPE svg PUBLIC "-//W3C//DTD SVG 1.1//EN" "http://www.w3.org/Graphics/SVG/1.1/DTD/svg11.dtd" >
<svg xmlns="http://www.w3.org/2000/svg" xmlns:xlink="http://www.w3.org/1999/xlink" version="1.1">
<metadata>
Created by FontForge 20190801 at Thu Dec 19 10:01:10 2019
 By Henrique Beier
Copyright (c) 2019 Banco Bradesco S.A. All rights reserved.
</metadata>
<defs>
<font id="BradescoSans-XBoldItalic" horiz-adv-x="586" >
  <font-face 
    font-family="Bradesco Sans XBold"
    font-weight="800"
    font-style="italic"
    font-stretch="normal"
    units-per-em="1000"
    panose-1="0 0 9 0 0 0 0 0 0 0"
    ascent="800"
    descent="-200"
    x-height="527"
    cap-height="676"
    bbox="-512 -225 1403 1008"
    underline-thickness="50"
    underline-position="-100"
    slope="-12"
    unicode-range="U+0020-FB02"
  />
<missing-glyph horiz-adv-x="471" 
d="M386 -212h-298v942h298v-942zM158 667v-31h61v-35h-62v-31h157v31h-62v35h62v31h-156zM157 545v-98h157v32h-62v66h-95zM219 479h-31v34h31v-34zM157 422v-31h62v-35h-62v-31h95v66h62v31h-157zM283 365v-62h-126v-32h157v94h-31zM219 251v-53h33v21h31v-44h-95v76h-31
v-107h157v107h-95zM157 88v-107h157v107h-157zM283 12h-95v44h95v-44zM157 -41v-31h66l-66 -44v-31h157v31h-96l66 44h30v31h-157z" />
    <glyph glyph-name="fi" unicode="fi" horiz-adv-x="769" 
d="M628 608.5q-25 22.5 -25 60.5q0 43 30 71t75 28q42 0 67 -22.5t25 -60.5q0 -44 -30 -71.5t-76 -27.5q-41 0 -66 22.5zM206 689q67 60 174 60q110 0 180 -72l-86 -96q-31 30 -77 30q-45 0 -70.5 -21t-36.5 -66l-1 -4h193l-31 -146h-193l-79 -374h-173l109 513
q24 116 91 176zM590 527h173l-112 -527h-173z" />
    <glyph glyph-name="fl" unicode="fl" horiz-adv-x="821" 
d="M206 689q67 60 174 60q110 0 180 -72l-86 -96q-31 30 -77 30q-45 0 -70.5 -21t-36.5 -66l-1 -4h193l-31 -146h-193l-79 -374h-173l109 513q24 116 91 176zM566 33.5q-44 41.5 -44 119.5q0 38 8 73l105 495l178 24l-113 -532q-3 -15 -3 -28q0 -25 13.5 -36.5t42.5 -11.5
h19l-31 -145h-47q-84 0 -128 41.5z" />
    <glyph glyph-name=".notdef" horiz-adv-x="471" 
d="M386 -212h-298v942h298v-942zM158 667v-31h61v-35h-62v-31h157v31h-62v35h62v31h-156zM157 545v-98h157v32h-62v66h-95zM219 479h-31v34h31v-34zM157 422v-31h62v-35h-62v-31h95v66h62v31h-157zM283 365v-62h-126v-32h157v94h-31zM219 251v-53h33v21h31v-44h-95v76h-31
v-107h157v107h-95zM157 88v-107h157v107h-157zM283 12h-95v44h95v-44zM157 -41v-31h66l-66 -44v-31h157v31h-96l66 44h30v31h-157z" />
    <glyph glyph-name="space" unicode=" " horiz-adv-x="250" 
 />
    <glyph glyph-name="A" unicode="A" horiz-adv-x="708" 
d="M345 676h193l100 -676h-182l-13 129h-233l-68 -129h-187zM428 280l-22 221l-117 -221h139z" />
    <glyph glyph-name="Aacute" unicode="&#xc1;" horiz-adv-x="708" 
d="M345 676h193l100 -676h-182l-13 129h-233l-68 -129h-187zM428 280l-22 221l-117 -221h139zM488 895h187l-187 -153h-171z" />
    <glyph glyph-name="Acircumflex" unicode="&#xc2;" horiz-adv-x="708" 
d="M345 676h193l100 -676h-182l-13 129h-233l-68 -129h-187zM428 280l-22 221l-117 -221h139zM392 895h151l106 -153h-145l-50 68l-81 -68h-153z" />
    <glyph glyph-name="Adieresis" unicode="&#xc4;" horiz-adv-x="708" 
d="M345 676h193l100 -676h-182l-13 129h-233l-68 -129h-187zM428 280l-22 221l-117 -221h139zM268 749q-23 21 -23 56q0 40 28 66t68 26q38 0 61.5 -21t23.5 -56q0 -41 -28 -66.5t-70 -25.5q-37 0 -60 21zM503.5 749q-23.5 21 -23.5 55q0 40 28 66.5t70 26.5q37 0 60 -21.5
t23 -55.5q0 -42 -28 -67t-68 -25q-38 0 -61.5 21z" />
    <glyph glyph-name="Agrave" unicode="&#xc0;" horiz-adv-x="708" 
d="M345 676h193l100 -676h-182l-13 129h-233l-68 -129h-187zM428 280l-22 221l-117 -221h139zM274 895h170l105 -153h-153z" />
    <glyph glyph-name="Aring" unicode="&#xc5;" horiz-adv-x="708" 
d="M638 0h-182l-13 129h-233l-68 -129h-187l375 650q-30 36 -30 83q0 39 19.5 70.5t52.5 49.5t73 18q39 0 71.5 -18t52 -49.5t19.5 -70.5q0 -28 -11.5 -53.5t-32.5 -44.5zM407 770.5q-15 -14.5 -15 -37.5q0 -22 15 -37t38 -15q21 0 36 15.5t15 36.5q0 23 -14.5 37.5
t-36.5 14.5q-23 0 -38 -14.5zM289 280h139l-22 221z" />
    <glyph glyph-name="Atilde" unicode="&#xc3;" horiz-adv-x="708" 
d="M345 676h193l100 -676h-182l-13 129h-233l-68 -129h-187zM428 280l-22 221l-117 -221h139zM495 741q-17 6 -31.5 13.5t-18.5 9.5q-26 12 -44.5 18.5t-39.5 6.5q-26 0 -46.5 -9t-53.5 -29l24 117q24 18 46 26.5t47 8.5q20 0 37.5 -6t43.5 -19q28 -14 49.5 -21.5t43.5 -7.5
q30 0 49 9t51 30l-24 -119q-47 -34 -96 -34q-20 0 -37 6z" />
    <glyph glyph-name="AE" unicode="&#xc6;" horiz-adv-x="1047" 
d="M536 676h546l-35 -161h-302l-20 -95h264l-34 -158h-264l-21 -100h310l-34 -162h-482l27 129h-229l-108 -129h-210zM523 280l46 215l-180 -215h134z" />
    <glyph glyph-name="B" unicode="B" horiz-adv-x="640" 
d="M416 676q93 0 146.5 -44t53.5 -116q0 -58 -31.5 -96.5t-86.5 -58.5q44 -23 68.5 -61.5t24.5 -86.5q0 -66 -35.5 -114t-96.5 -73.5t-136 -25.5h-306l143 676h256zM417.5 431.5q29.5 20.5 29.5 57.5q0 26 -18.5 40t-52.5 14h-81l-28 -132h69q52 0 81.5 20.5zM397.5 155.5
q31.5 22.5 31.5 62.5q0 26 -19.5 40.5t-54.5 14.5h-118l-30 -140h104q55 0 86.5 22.5z" />
    <glyph glyph-name="C" unicode="C" horiz-adv-x="651" 
d="M185.5 21.5q-62.5 33.5 -96 95.5t-33.5 144q0 114 53 212.5t143 156.5t197 58q77 0 139.5 -34t94.5 -85l-125 -100q-39 54 -112 54q-58 0 -105 -35t-73.5 -91t-26.5 -117q0 -55 31 -91t82 -36q41 0 74.5 16t70.5 50l97 -119q-118 -112 -264 -112q-84 0 -146.5 33.5z" />
    <glyph glyph-name="Ccedilla" unicode="&#xc7;" horiz-adv-x="651" 
d="M596 100q-96 -91 -213 -108q19 -30 19 -63q0 -74 -60 -111.5t-155 -37.5h-49l24 116h33q33 0 58 19.5t25 48.5q0 13 -10 30q-99 18 -155.5 89t-56.5 178q0 114 53 212.5t143 156.5t197 58q77 0 139.5 -34t94.5 -85l-125 -100q-39 54 -112 54q-58 0 -105 -35t-73.5 -91
t-26.5 -117q0 -55 31 -91t82 -36q41 0 74.5 16t70.5 50z" />
    <glyph glyph-name="D" unicode="D" horiz-adv-x="733" 
d="M392 676q88 0 159.5 -37t112 -103t40.5 -148q0 -115 -53 -203t-145.5 -136.5t-206.5 -48.5h-282l143 676h232zM419 191.5q48 28.5 75 78t27 108.5q0 62 -37 98.5t-101 36.5h-80l-74 -350h82q60 0 108 28.5z" />
    <glyph glyph-name="Eth" unicode="&#xd0;" horiz-adv-x="772" 
d="M37 261l33 155h74l55 260h232q88 0 159.5 -37t112 -103t40.5 -148q0 -115 -53 -203t-145.5 -136.5t-206.5 -48.5h-282l55 261h-74zM458 191.5q48 28.5 75 78t27 108.5q0 62 -37 98.5t-101 36.5h-80l-20 -97h133l-33 -155h-133l-21 -98h82q60 0 108 28.5z" />
    <glyph glyph-name="E" unicode="E" horiz-adv-x="600" 
d="M160 676h475l-35 -161h-302l-20 -95h264l-34 -158h-264l-21 -100h310l-34 -162h-482z" />
    <glyph glyph-name="Eacute" unicode="&#xc9;" horiz-adv-x="600" 
d="M160 676h475l-35 -161h-302l-20 -95h264l-34 -158h-264l-21 -100h310l-34 -162h-482zM460 895h187l-187 -153h-171z" />
    <glyph glyph-name="Ecircumflex" unicode="&#xca;" horiz-adv-x="600" 
d="M160 676h475l-35 -161h-302l-20 -95h264l-34 -158h-264l-21 -100h310l-34 -162h-482zM364 895h151l106 -153h-145l-50 68l-81 -68h-153z" />
    <glyph glyph-name="Edieresis" unicode="&#xcb;" horiz-adv-x="600" 
d="M160 676h475l-35 -161h-302l-20 -95h264l-34 -158h-264l-21 -100h310l-34 -162h-482zM240 749q-23 21 -23 56q0 40 28 66t68 26q38 0 61.5 -21t23.5 -56q0 -41 -28 -66.5t-70 -25.5q-37 0 -60 21zM475.5 749q-23.5 21 -23.5 55q0 40 28 66.5t70 26.5q37 0 60 -21.5
t23 -55.5q0 -42 -28 -67t-68 -25q-38 0 -61.5 21z" />
    <glyph glyph-name="Egrave" unicode="&#xc8;" horiz-adv-x="600" 
d="M160 676h475l-35 -161h-302l-20 -95h264l-34 -158h-264l-21 -100h310l-34 -162h-482zM246 895h170l105 -153h-153z" />
    <glyph glyph-name="F" unicode="F" horiz-adv-x="583" 
d="M160 676h469l-36 -166h-293l-26 -121h256l-35 -166h-256l-48 -223h-174z" />
    <glyph glyph-name="G" unicode="G" horiz-adv-x="694" 
d="M187 21.5q-63 33.5 -97.5 94.5t-34.5 143q0 115 53 214t144 157t200 58q80 0 141.5 -33.5t96.5 -85.5l-124 -100q-41 54 -117 54q-62 0 -111 -35.5t-76 -92.5t-27 -121q0 -55 33 -88.5t85 -33.5q71 0 116 25l13 63h-111l30 139h263l-65 -302q-55 -44 -125.5 -66.5
t-139.5 -22.5q-84 0 -147 33.5z" />
    <glyph glyph-name="H" unicode="H" horiz-adv-x="734" 
d="M160 676h179l-52 -244h232l52 244h179l-144 -676h-179l55 257h-232l-54 -257h-179z" />
    <glyph glyph-name="I" unicode="I" horiz-adv-x="324" 
d="M160 676h179l-143 -676h-179z" />
    <glyph glyph-name="Iacute" unicode="&#xcd;" horiz-adv-x="324" 
d="M160 676h179l-143 -676h-179zM311 895h178l-154 -153h-165z" />
    <glyph glyph-name="Icircumflex" unicode="&#xce;" horiz-adv-x="324" 
d="M160 676h179l-143 -676h-179zM211 895h151l106 -153h-145l-50 68l-81 -68h-153z" />
    <glyph glyph-name="Idieresis" unicode="&#xcf;" horiz-adv-x="324" 
d="M160 676h179l-143 -676h-179zM87 749q-23 21 -23 56q0 40 28 66t68 26q38 0 61.5 -21t23.5 -56q0 -41 -28 -66.5t-70 -25.5q-37 0 -60 21zM322.5 749q-23.5 21 -23.5 55q0 40 28 66.5t70 26.5q37 0 60 -21.5t23 -55.5q0 -42 -28 -67t-68 -25q-38 0 -61.5 21z" />
    <glyph glyph-name="Igrave" unicode="&#xcc;" horiz-adv-x="324" 
d="M160 676h179l-143 -676h-179zM102 895h161l76 -153h-147z" />
    <glyph glyph-name="J" unicode="J" horiz-adv-x="480" 
d="M72 174q80 0 120 34.5t57 115.5l74 352h179l-79 -378q-32 -154 -116 -226t-234 -72h-91l37 174h53z" />
    <glyph glyph-name="K" unicode="K" horiz-adv-x="719" 
d="M336 676l-52 -246h36q36 0 60.5 7.5t51.5 33.5t63 80l84 125h199l-146 -212q-56 -82 -120 -132l137 -332h-194l-100 260q-20 -2 -29 -2h-78l-55 -258h-176l143 676h176z" />
    <glyph glyph-name="L" unicode="L" horiz-adv-x="579" 
d="M160 676h179l-106 -501h289l-37 -175h-468z" />
    <glyph glyph-name="M" unicode="M" horiz-adv-x="875" 
d="M160 676h151l122 -389l286 389h172l-144 -676h-175l78 358l-172 -241h-142l-76 243l-75 -360h-168z" />
    <glyph glyph-name="N" unicode="N" horiz-adv-x="737" 
d="M160 676h139l198 -376l78 376h178l-144 -676h-138l-199 376l-77 -376h-178z" />
    <glyph glyph-name="Ntilde" unicode="&#xd1;" horiz-adv-x="737" 
d="M160 676h139l198 -376l78 376h178l-144 -676h-138l-199 376l-77 -376h-178zM498 741q-17 6 -31.5 13.5t-18.5 9.5q-26 12 -44.5 18.5t-39.5 6.5q-26 0 -46.5 -9t-53.5 -29l24 117q24 18 46 26.5t47 8.5q20 0 37.5 -6t43.5 -19q28 -14 49.5 -21.5t43.5 -7.5q30 0 49 9
t51 30l-24 -119q-47 -34 -96 -34q-20 0 -37 6z" />
    <glyph glyph-name="O" unicode="O" horiz-adv-x="762" 
d="M194 23.5q-65 35.5 -100.5 100t-35.5 149.5q0 110 52 205.5t142 152.5t197 57q85 0 150 -36t101 -101t36 -149q0 -110 -52 -205t-142.5 -152t-198.5 -57q-84 0 -149 35.5zM459.5 187.5q44.5 34.5 69 90t24.5 116.5q0 58 -31 93.5t-86 35.5q-57 0 -101.5 -34.5t-69 -90.5
t-24.5 -117q0 -57 31 -92.5t85 -35.5q58 0 102.5 34.5z" />
    <glyph glyph-name="Oacute" unicode="&#xd3;" horiz-adv-x="762" 
d="M194 23.5q-65 35.5 -100.5 100t-35.5 149.5q0 110 52 205.5t142 152.5t197 57q85 0 150 -36t101 -101t36 -149q0 -110 -52 -205t-142.5 -152t-198.5 -57q-84 0 -149 35.5zM459.5 187.5q44.5 34.5 69 90t24.5 116.5q0 58 -31 93.5t-86 35.5q-57 0 -101.5 -34.5t-69 -90.5
t-24.5 -117q0 -57 31 -92.5t85 -35.5q58 0 102.5 34.5zM511 895h187l-187 -153h-171z" />
    <glyph glyph-name="Ocircumflex" unicode="&#xd4;" horiz-adv-x="762" 
d="M194 23.5q-65 35.5 -100.5 100t-35.5 149.5q0 110 52 205.5t142 152.5t197 57q85 0 150 -36t101 -101t36 -149q0 -110 -52 -205t-142.5 -152t-198.5 -57q-84 0 -149 35.5zM459.5 187.5q44.5 34.5 69 90t24.5 116.5q0 58 -31 93.5t-86 35.5q-57 0 -101.5 -34.5t-69 -90.5
t-24.5 -117q0 -57 31 -92.5t85 -35.5q58 0 102.5 34.5zM415 895h151l106 -153h-145l-50 68l-81 -68h-153z" />
    <glyph glyph-name="Odieresis" unicode="&#xd6;" horiz-adv-x="762" 
d="M194 23.5q-65 35.5 -100.5 100t-35.5 149.5q0 110 52 205.5t142 152.5t197 57q85 0 150 -36t101 -101t36 -149q0 -110 -52 -205t-142.5 -152t-198.5 -57q-84 0 -149 35.5zM459.5 187.5q44.5 34.5 69 90t24.5 116.5q0 58 -31 93.5t-86 35.5q-57 0 -101.5 -34.5t-69 -90.5
t-24.5 -117q0 -57 31 -92.5t85 -35.5q58 0 102.5 34.5zM291 749q-23 21 -23 56q0 40 28 66t68 26q38 0 61.5 -21t23.5 -56q0 -41 -28 -66.5t-70 -25.5q-37 0 -60 21zM526.5 749q-23.5 21 -23.5 55q0 40 28 66.5t70 26.5q37 0 60 -21.5t23 -55.5q0 -42 -28 -67t-68 -25
q-38 0 -61.5 21z" />
    <glyph glyph-name="Ograve" unicode="&#xd2;" horiz-adv-x="762" 
d="M194 23.5q-65 35.5 -100.5 100t-35.5 149.5q0 110 52 205.5t142 152.5t197 57q85 0 150 -36t101 -101t36 -149q0 -110 -52 -205t-142.5 -152t-198.5 -57q-84 0 -149 35.5zM459.5 187.5q44.5 34.5 69 90t24.5 116.5q0 58 -31 93.5t-86 35.5q-57 0 -101.5 -34.5t-69 -90.5
t-24.5 -117q0 -57 31 -92.5t85 -35.5q58 0 102.5 34.5zM297 895h170l105 -153h-153z" />
    <glyph glyph-name="Oslash" unicode="&#xd8;" horiz-adv-x="761" 
d="M56 271q0 112 52.5 207.5t143 152.5t199.5 57q70 0 127 -26l60 72h175l-130 -157q53 -73 53 -173q0 -112 -52.5 -207.5t-143.5 -152t-201 -56.5q-67 0 -123 24l-58 -71h-175l127 154q-54 75 -54 176zM435 523q-58 0 -103 -35t-69 -92t-24 -120q0 -9 2 -23l221 268
q-18 2 -27 2zM459.5 188q44.5 35 69 91.5t24.5 119.5q0 13 -1 19l-218 -263q14 -2 22 -2q59 0 103.5 35z" />
    <glyph glyph-name="Otilde" unicode="&#xd5;" horiz-adv-x="762" 
d="M194 23.5q-65 35.5 -100.5 100t-35.5 149.5q0 110 52 205.5t142 152.5t197 57q85 0 150 -36t101 -101t36 -149q0 -110 -52 -205t-142.5 -152t-198.5 -57q-84 0 -149 35.5zM459.5 187.5q44.5 34.5 69 90t24.5 116.5q0 58 -31 93.5t-86 35.5q-57 0 -101.5 -34.5t-69 -90.5
t-24.5 -117q0 -57 31 -92.5t85 -35.5q58 0 102.5 34.5zM518 741q-17 6 -31.5 13.5t-18.5 9.5q-26 12 -44.5 18.5t-39.5 6.5q-26 0 -46.5 -9t-53.5 -29l24 117q24 18 46 26.5t47 8.5q20 0 37.5 -6t43.5 -19q28 -14 49.5 -21.5t43.5 -7.5q30 0 49 9t51 30l-24 -119
q-47 -34 -96 -34q-20 0 -37 6z" />
    <glyph glyph-name="OE" unicode="&#x152;" horiz-adv-x="1057" 
d="M180 23q-58 35 -91 98t-33 144q0 111 53 208.5t142 156t191 58.5q101 0 165 -61l10 49h475l-35 -161h-302l-20 -95h264l-34 -158h-264l-21 -100h310l-34 -162h-482l9 45q-80 -57 -171 -57q-74 0 -132 35zM454.5 188.5q45.5 35.5 71 92t25.5 118.5q0 56 -30 90t-84 34
q-57 0 -102.5 -35.5t-70.5 -92.5t-25 -119q0 -56 29.5 -89.5t81.5 -33.5q59 0 104.5 35.5z" />
    <glyph glyph-name="P" unicode="P" horiz-adv-x="651" 
d="M416 676q68 0 122 -25.5t84.5 -71t30.5 -104.5q0 -81 -37.5 -142.5t-104.5 -94.5t-155 -33h-119l-43 -205h-177l143 676h256zM437.5 384.5q35.5 28.5 35.5 76.5q0 31 -22.5 49t-61.5 18h-83l-36 -172h70q62 0 97.5 28.5z" />
    <glyph glyph-name="Thorn" unicode="&#xde;" horiz-adv-x="646" 
d="M341 676l-17 -78h62q68 0 122 -25.5t84.5 -71t30.5 -104.5q0 -81 -37.5 -142.5t-104.5 -94.5t-155 -33h-102l-27 -127h-180l143 676h181zM407.5 306.5q35.5 28.5 35.5 76.5q0 31 -22.5 49t-61.5 18h-66l-37 -172h54q62 0 97.5 28.5z" />
    <glyph glyph-name="Q" unicode="Q" horiz-adv-x="762" 
d="M336 -12q-83 0 -146.5 34t-98.5 97t-35 146q0 112 53.5 209.5t144.5 155.5t200 58q83 0 147 -35t99.5 -98t35.5 -145q0 -89 -33 -170t-93 -140l63 -97l-132 -80l-60 92q-70 -27 -145 -27zM393 150l-59 91l132 80l52 -80q39 66 39 158q0 57 -30.5 90.5t-87.5 33.5
q-59 0 -105 -35.5t-71.5 -92.5t-25.5 -119q0 -60 30 -95t85 -35q24 0 41 4z" />
    <glyph glyph-name="R" unicode="R" horiz-adv-x="661" 
d="M410 676q71 0 125 -25.5t83.5 -70t29.5 -99.5q0 -76 -42 -127.5t-111 -74.5q38 -30 55 -92l52 -187h-191l-26 116q-9 42 -19.5 62.5t-30 29.5t-57.5 9h-42l-46 -217h-173l143 676h250zM436 390q35 27 35 75q0 32 -22.5 50.5t-62.5 18.5h-83l-36 -171h71q63 0 98 27z" />
    <glyph glyph-name="S" unicode="S" horiz-adv-x="668" 
d="M136.5 19.5q-74.5 31.5 -127.5 83.5l106 124q40 -36 96.5 -57t113.5 -21q83 0 83 45q0 19 -14 31.5t-36 21t-69 22.5q-97 29 -142 75.5t-45 124.5q0 64 37 113.5t104 77.5t155 28q70 0 138.5 -32.5t114.5 -89.5l-119 -101q-29 33 -73.5 50.5t-84.5 17.5q-43 0 -66.5 -14
t-23.5 -38t21.5 -38.5t72.5 -28.5q115 -32 166.5 -78t51.5 -124q0 -110 -81.5 -167t-209.5 -57q-94 0 -168.5 31.5z" />
    <glyph glyph-name="Scaron" unicode="&#x160;" horiz-adv-x="668" 
d="M136.5 19.5q-74.5 31.5 -127.5 83.5l106 124q40 -36 96.5 -57t113.5 -21q83 0 83 45q0 19 -14 31.5t-36 21t-69 22.5q-97 29 -142 75.5t-45 124.5q0 64 37 113.5t104 77.5t155 28q70 0 138.5 -32.5t114.5 -89.5l-119 -101q-29 33 -73.5 50.5t-84.5 17.5q-43 0 -66.5 -14
t-23.5 -38t21.5 -38.5t72.5 -28.5q115 -32 166.5 -78t51.5 -124q0 -110 -81.5 -167t-209.5 -57q-94 0 -168.5 31.5zM214 895h145l51 -69l80 69h153l-172 -153h-150z" />
    <glyph glyph-name="uni1E9E" unicode="&#x1e9e;" horiz-adv-x="729" 
d="M231 62l85 106q17 -16 40.5 -25.5t50.5 -9.5q47 0 74 19.5t27 53.5q0 65 -98 65h-71l18 98l157 157q-22 14 -73 14q-67 0 -119.5 -53.5t-70.5 -138.5l-74 -348h-167l78 369q20 97 70.5 169t124.5 111t164 39q83 0 151.5 -30t117.5 -84l-184 -191l15 -4q57 -15 91.5 -60.5
t34.5 -104.5q0 -66 -33.5 -117.5t-93.5 -80t-135 -28.5q-106 0 -180 74z" />
    <glyph glyph-name="T" unicode="T" horiz-adv-x="623" 
d="M273 502h-186l37 174h551l-37 -174h-186l-106 -502h-179z" />
    <glyph glyph-name="U" unicode="U" horiz-adv-x="736" 
d="M201.5 17q-60.5 29 -96 85.5t-35.5 134.5q0 46 10 90l74 349h179l-78 -364q-6 -28 -6 -58q0 -50 26 -75.5t70 -25.5q62 0 100.5 41t58.5 132l75 350h179l-77 -363q-34 -159 -121 -242t-222 -83q-76 0 -136.5 29z" />
    <glyph glyph-name="Uacute" unicode="&#xda;" horiz-adv-x="736" 
d="M201.5 17q-60.5 29 -96 85.5t-35.5 134.5q0 46 10 90l74 349h179l-78 -364q-6 -28 -6 -58q0 -50 26 -75.5t70 -25.5q62 0 100.5 41t58.5 132l75 350h179l-77 -363q-34 -159 -121 -242t-222 -83q-76 0 -136.5 29zM503 895h187l-187 -153h-171z" />
    <glyph glyph-name="Ucircumflex" unicode="&#xdb;" horiz-adv-x="736" 
d="M201.5 17q-60.5 29 -96 85.5t-35.5 134.5q0 46 10 90l74 349h179l-78 -364q-6 -28 -6 -58q0 -50 26 -75.5t70 -25.5q62 0 100.5 41t58.5 132l75 350h179l-77 -363q-34 -159 -121 -242t-222 -83q-76 0 -136.5 29zM407 895h151l106 -153h-145l-50 68l-81 -68h-153z" />
    <glyph glyph-name="Udieresis" unicode="&#xdc;" horiz-adv-x="736" 
d="M201.5 17q-60.5 29 -96 85.5t-35.5 134.5q0 46 10 90l74 349h179l-78 -364q-6 -28 -6 -58q0 -50 26 -75.5t70 -25.5q62 0 100.5 41t58.5 132l75 350h179l-77 -363q-34 -159 -121 -242t-222 -83q-76 0 -136.5 29zM283 749q-23 21 -23 56q0 40 28 66t68 26q38 0 61.5 -21
t23.5 -56q0 -41 -28 -66.5t-70 -25.5q-37 0 -60 21zM518.5 749q-23.5 21 -23.5 55q0 40 28 66.5t70 26.5q37 0 60 -21.5t23 -55.5q0 -42 -28 -67t-68 -25q-38 0 -61.5 21z" />
    <glyph glyph-name="Ugrave" unicode="&#xd9;" horiz-adv-x="736" 
d="M201.5 17q-60.5 29 -96 85.5t-35.5 134.5q0 46 10 90l74 349h179l-78 -364q-6 -28 -6 -58q0 -50 26 -75.5t70 -25.5q62 0 100.5 41t58.5 132l75 350h179l-77 -363q-34 -159 -121 -242t-222 -83q-76 0 -136.5 29zM289 895h170l105 -153h-153z" />
    <glyph glyph-name="V" unicode="V" horiz-adv-x="725" 
d="M100 676h199l52 -463l242 463h209l-394 -676h-202z" />
    <glyph glyph-name="W" unicode="W" horiz-adv-x="1019" 
d="M113 676h189l-5 -448l196 400h192l18 -400l183 448h199l-328 -676h-195l-27 395l-196 -395h-191z" />
    <glyph glyph-name="Wacute" unicode="&#x1e82;" horiz-adv-x="1019" 
d="M113 676h189l-5 -448l196 400h192l18 -400l183 448h199l-328 -676h-195l-27 395l-196 -395h-191zM651 895h187l-187 -153h-171z" />
    <glyph glyph-name="Wcircumflex" unicode="&#x174;" horiz-adv-x="1019" 
d="M113 676h189l-5 -448l196 400h192l18 -400l183 448h199l-328 -676h-195l-27 395l-196 -395h-191zM555 895h151l106 -153h-145l-50 68l-81 -68h-153z" />
    <glyph glyph-name="Wdieresis" unicode="&#x1e84;" horiz-adv-x="1019" 
d="M113 676h189l-5 -448l196 400h192l18 -400l183 448h199l-328 -676h-195l-27 395l-196 -395h-191zM431 749q-23 21 -23 56q0 40 28 66t68 26q38 0 61.5 -21t23.5 -56q0 -41 -28 -66.5t-70 -25.5q-37 0 -60 21zM666.5 749q-23.5 21 -23.5 55q0 40 28 66.5t70 26.5
q37 0 60 -21.5t23 -55.5q0 -42 -28 -67t-68 -25q-38 0 -61.5 21z" />
    <glyph glyph-name="Wgrave" unicode="&#x1e80;" horiz-adv-x="1019" 
d="M113 676h189l-5 -448l196 400h192l18 -400l183 448h199l-328 -676h-195l-27 395l-196 -395h-191zM437 895h170l105 -153h-153z" />
    <glyph glyph-name="X" unicode="X" horiz-adv-x="727" 
d="M279 357l-160 319h208l87 -192l154 192h221l-297 -334l165 -342h-206l-94 217l-179 -217h-221z" />
    <glyph glyph-name="Y" unicode="Y" horiz-adv-x="687" 
d="M250 248l-150 428h196l73 -255l186 255h208l-335 -433l-52 -243h-179z" />
    <glyph glyph-name="Yacute" unicode="&#xdd;" horiz-adv-x="687" 
d="M250 248l-150 428h196l73 -255l186 255h208l-335 -433l-52 -243h-179zM468 895h187l-187 -153h-171z" />
    <glyph glyph-name="Ycircumflex" unicode="&#x176;" horiz-adv-x="687" 
d="M250 248l-150 428h196l73 -255l186 255h208l-335 -433l-52 -243h-179zM372 895h151l106 -153h-145l-50 68l-81 -68h-153z" />
    <glyph glyph-name="Ydieresis" unicode="&#x178;" horiz-adv-x="687" 
d="M250 248l-150 428h196l73 -255l186 255h208l-335 -433l-52 -243h-179zM248 749q-23 21 -23 56q0 40 28 66t68 26q38 0 61.5 -21t23.5 -56q0 -41 -28 -66.5t-70 -25.5q-37 0 -60 21zM483.5 749q-23.5 21 -23.5 55q0 40 28 66.5t70 26.5q37 0 60 -21.5t23 -55.5
q0 -42 -28 -67t-68 -25q-38 0 -61.5 21z" />
    <glyph glyph-name="Ygrave" unicode="&#x1ef2;" horiz-adv-x="687" 
d="M250 248l-150 428h196l73 -255l186 255h208l-335 -433l-52 -243h-179zM254 895h170l105 -153h-153z" />
    <glyph glyph-name="Z" unicode="Z" horiz-adv-x="634" 
d="M22 143l375 367h-285l36 166h514l-28 -143l-374 -366h304l-36 -167h-534z" />
    <glyph glyph-name="Zcaron" unicode="&#x17d;" horiz-adv-x="634" 
d="M22 143l375 367h-285l36 166h514l-28 -143l-374 -366h304l-36 -167h-534zM224 895h145l51 -69l80 69h153l-172 -153h-150z" />
    <glyph glyph-name="a" unicode="a" horiz-adv-x="560" 
d="M47.5 24q-41.5 36 -41.5 95q0 95 70 142.5t182 47.5h101v2q5 22 5 33q0 29 -18 45t-50 16q-79 0 -142 -49l-71 102q55 40 113.5 60.5t115.5 20.5q100 0 153.5 -50t53.5 -135q0 -27 -9 -71l-59 -283h-123l-5 51q-39 -30 -81.5 -46.5t-83.5 -16.5q-69 0 -110.5 36zM329 162
l9 43h-102q-82 0 -82 -53q0 -20 11.5 -31t32.5 -11q70 0 131 52z" />
    <glyph glyph-name="aacute" unicode="&#xe1;" horiz-adv-x="560" 
d="M47.5 24q-41.5 36 -41.5 95q0 95 70 142.5t182 47.5h101v2q5 22 5 33q0 29 -18 45t-50 16q-79 0 -142 -49l-71 102q55 40 113.5 60.5t115.5 20.5q100 0 153.5 -50t53.5 -135q0 -27 -9 -71l-59 -283h-123l-5 51q-39 -30 -81.5 -46.5t-83.5 -16.5q-69 0 -110.5 36zM329 162
l9 43h-102q-82 0 -82 -53q0 -20 11.5 -31t32.5 -11q70 0 131 52zM372 753h175l-175 -152h-159z" />
    <glyph glyph-name="acircumflex" unicode="&#xe2;" horiz-adv-x="560" 
d="M47.5 24q-41.5 36 -41.5 95q0 95 70 142.5t182 47.5h101v2q5 22 5 33q0 29 -18 45t-50 16q-79 0 -142 -49l-71 102q55 40 113.5 60.5t115.5 20.5q100 0 153.5 -50t53.5 -135q0 -27 -9 -71l-59 -283h-123l-5 51q-39 -30 -81.5 -46.5t-83.5 -16.5q-69 0 -110.5 36zM329 162
l9 43h-102q-82 0 -82 -53q0 -20 11.5 -31t32.5 -11q70 0 131 52zM284 753h144l99 -152h-132l-53 69l-76 -69h-146z" />
    <glyph glyph-name="adieresis" unicode="&#xe4;" horiz-adv-x="560" 
d="M47.5 24q-41.5 36 -41.5 95q0 95 70 142.5t182 47.5h101v2q5 22 5 33q0 29 -18 45t-50 16q-79 0 -142 -49l-71 102q55 40 113.5 60.5t115.5 20.5q100 0 153.5 -50t53.5 -135q0 -27 -9 -71l-59 -283h-123l-5 51q-39 -30 -81.5 -46.5t-83.5 -16.5q-69 0 -110.5 36zM329 162
l9 43h-102q-82 0 -82 -53q0 -20 11.5 -31t32.5 -11q70 0 131 52zM160 611q-23 21 -23 55q0 38 27.5 63.5t65.5 25.5t61.5 -21t23.5 -54q0 -41 -27 -65.5t-68 -24.5q-37 0 -60 21zM390.5 610.5q-23.5 20.5 -23.5 53.5q0 40 27.5 65.5t67.5 25.5q37 0 60 -21t23 -54
q0 -41 -27 -65.5t-67 -24.5q-37 0 -60.5 20.5z" />
    <glyph glyph-name="agrave" unicode="&#xe0;" horiz-adv-x="560" 
d="M47.5 24q-41.5 36 -41.5 95q0 95 70 142.5t182 47.5h101v2q5 22 5 33q0 29 -18 45t-50 16q-79 0 -142 -49l-71 102q55 40 113.5 60.5t115.5 20.5q100 0 153.5 -50t53.5 -135q0 -27 -9 -71l-59 -283h-123l-5 51q-39 -30 -81.5 -46.5t-83.5 -16.5q-69 0 -110.5 36zM329 162
l9 43h-102q-82 0 -82 -53q0 -20 11.5 -31t32.5 -11q70 0 131 52zM173 753h166l96 -152h-151z" />
    <glyph glyph-name="aring" unicode="&#xe5;" horiz-adv-x="560" 
d="M47.5 24q-41.5 36 -41.5 95q0 95 70 142.5t182 47.5h101v2q5 22 5 33q0 29 -18 45t-50 16q-79 0 -142 -49l-71 102q55 40 113.5 60.5t115.5 20.5q100 0 153.5 -50t53.5 -135q0 -27 -9 -71l-59 -283h-123l-5 51q-39 -30 -81.5 -46.5t-83.5 -16.5q-69 0 -110.5 36zM329 162
l9 43h-102q-82 0 -82 -53q0 -20 11.5 -31t32.5 -11q70 0 131 52zM280 609.5q-31 17.5 -49 47t-18 65.5q0 56 39 93.5t95 37.5q55 0 94 -37.5t39 -93.5q0 -36 -18 -66t-48.5 -47t-66.5 -17t-67 17.5zM380.5 686.5q13.5 14.5 13.5 35.5q0 22 -13.5 36t-33.5 14
q-21 0 -34.5 -14t-13.5 -36q0 -21 13.5 -35.5t34.5 -14.5q20 0 33.5 14.5z" />
    <glyph glyph-name="atilde" unicode="&#xe3;" horiz-adv-x="560" 
d="M47.5 24q-41.5 36 -41.5 95q0 95 70 142.5t182 47.5h101v2q5 22 5 33q0 29 -18 45t-50 16q-79 0 -142 -49l-71 102q55 40 113.5 60.5t115.5 20.5q100 0 153.5 -50t53.5 -135q0 -27 -9 -71l-59 -283h-123l-5 51q-39 -30 -81.5 -46.5t-83.5 -16.5q-69 0 -110.5 36zM329 162
l9 43h-102q-82 0 -82 -53q0 -20 11.5 -31t32.5 -11q70 0 131 52zM383.5 598q-16.5 6 -30.5 13t-19 10q-26 12 -44.5 18.5t-37.5 6.5q-25 0 -45.5 -9t-53.5 -29l25 117q24 18 45.5 26.5t44.5 8.5q20 0 39 -7t43 -20q50 -27 88 -27q26 0 46 8.5t34 18t18 12.5l-25 -119
q-47 -34 -93 -34q-18 0 -34.5 6z" />
    <glyph glyph-name="ae" unicode="&#xe6;" horiz-adv-x="899" 
d="M48 23.5q-42 35.5 -42 95.5q0 95 70 142.5t182 47.5h101l1 5q4 20 4 30q0 29 -18 45t-50 16q-79 0 -142 -49l-71 102q55 40 113.5 60.5t115.5 20.5q113 0 157 -79q41 37 90 58t98 21q97 0 153.5 -58t56.5 -153q0 -34 -8 -74l-7 -33h-352v-1q0 -42 26 -68.5t68 -26.5
q74 0 133 52l84 -99q-101 -90 -233 -90q-65 0 -112.5 23.5t-74.5 66.5q-48 -41 -105.5 -65.5t-119.5 -24.5q-76 0 -118 35.5zM716 342q0 32 -19 50.5t-52 18.5q-44 0 -76 -23.5t-49 -64.5h194q2 14 2 19zM282.5 128.5q37.5 18.5 75.5 50.5q-2 16 -2 25v1h-120
q-40 0 -61 -13.5t-21 -39.5q0 -42 50 -42q41 0 78.5 18.5z" />
    <glyph glyph-name="b" unicode="b" horiz-adv-x="643" 
d="M232 8q-39 17 -67 44l-28 -52h-131l153 721l178 24l-54 -254q71 48 138 48q56 0 98 -28.5t64.5 -78.5t22.5 -113q0 -92 -38 -167t-105.5 -118t-151.5 -43q-40 0 -79 17zM362 160.5q34 22.5 52.5 61t18.5 83.5q0 36 -20 57.5t-51 21.5q-29 0 -57.5 -13.5t-54.5 -35.5
l-37 -175q33 -22 70 -22q45 0 79 22.5z" />
    <glyph glyph-name="c" unicode="c" horiz-adv-x="536" 
d="M97.5 46.5q-61.5 58.5 -61.5 158.5q0 93 42 169.5t114 120.5t160 44q60 0 111.5 -27.5t76.5 -69.5l-105 -93q-13 19 -34.5 29t-48.5 10q-42 0 -74.5 -23.5t-50.5 -61.5t-18 -80q0 -36 21 -60t55 -24q33 0 58.5 11t53.5 34l82 -112q-43 -40 -100 -62t-116 -22
q-104 0 -165.5 58.5z" />
    <glyph glyph-name="ccedilla" unicode="&#xe7;" horiz-adv-x="536" 
d="M479 72q-34 -31 -76.5 -52t-88.5 -28q16 -27 16 -58q0 -67 -51.5 -104.5t-139.5 -37.5h-44l23 108h27q30 0 51.5 19.5t21.5 48.5q0 11 -7 24q-82 14 -128.5 70t-46.5 143q0 93 42 169.5t114 120.5t160 44q60 0 111.5 -27.5t76.5 -69.5l-105 -93q-13 19 -34.5 29t-48.5 10
q-42 0 -74.5 -23.5t-50.5 -61.5t-18 -80q0 -36 21 -60t55 -24q33 0 58.5 11t53.5 34z" />
    <glyph glyph-name="d" unicode="d" horiz-adv-x="642" 
d="M85 44.5q-50 55.5 -50 150.5q0 92 38.5 171t106 126t150.5 47q33 0 66 -12t60 -32l48 226l178 24l-158 -745h-128l-7 59q-42 -34 -85 -52t-84 -18q-85 0 -135 55.5zM393 194l37 175q-35 22 -72 22q-45 0 -79 -22.5t-52.5 -60.5t-18.5 -83q0 -37 20 -59.5t51 -22.5
q58 0 114 51z" />
    <glyph glyph-name="eth" unicode="&#xf0;" horiz-adv-x="619" 
d="M148 16.5q-53 28.5 -83 78.5t-30 114q0 78 36 142.5t99 102t140 37.5q66 0 121 -37q-8 53 -36 110l-162 -38l19 94l91 21q-29 35 -65 65l166 35q30 -27 55 -63l141 33l-20 -95l-75 -17q47 -102 47 -200q0 -71 -15 -135q-28 -128 -107.5 -202t-199.5 -74q-69 0 -122 28.5z
M372.5 180q37.5 44 52.5 116q3 14 7 42q-18 15 -41.5 22.5t-45.5 7.5q-43 0 -76 -21t-51 -56.5t-18 -77.5q0 -33 21.5 -55t55.5 -22q58 0 95.5 44z" />
    <glyph glyph-name="e" unicode="e" horiz-adv-x="590" 
d="M144.5 16q-52.5 28 -80 78.5t-27.5 117.5q0 89 41 164t112.5 119t157.5 44q97 0 153.5 -58t56.5 -153q0 -34 -8 -74l-7 -33h-352v-1q1 -42 26.5 -68.5t67.5 -26.5q74 0 133 52l84 -99q-101 -90 -233 -90q-72 0 -124.5 28zM407 342q0 32 -19 50.5t-52 18.5
q-44 0 -76 -23.5t-49 -64.5h194q2 14 2 19z" />
    <glyph glyph-name="eacute" unicode="&#xe9;" horiz-adv-x="590" 
d="M144.5 16q-52.5 28 -80 78.5t-27.5 117.5q0 89 41 164t112.5 119t157.5 44q97 0 153.5 -58t56.5 -153q0 -34 -8 -74l-7 -33h-352v-1q1 -42 26.5 -68.5t67.5 -26.5q74 0 133 52l84 -99q-101 -90 -233 -90q-72 0 -124.5 28zM407 342q0 32 -19 50.5t-52 18.5
q-44 0 -76 -23.5t-49 -64.5h194q2 14 2 19zM395 753h175l-175 -152h-159z" />
    <glyph glyph-name="ecircumflex" unicode="&#xea;" horiz-adv-x="590" 
d="M144.5 16q-52.5 28 -80 78.5t-27.5 117.5q0 89 41 164t112.5 119t157.5 44q97 0 153.5 -58t56.5 -153q0 -34 -8 -74l-7 -33h-352v-1q1 -42 26.5 -68.5t67.5 -26.5q74 0 133 52l84 -99q-101 -90 -233 -90q-72 0 -124.5 28zM407 342q0 32 -19 50.5t-52 18.5
q-44 0 -76 -23.5t-49 -64.5h194q2 14 2 19zM307 753h144l99 -152h-132l-53 69l-76 -69h-146z" />
    <glyph glyph-name="edieresis" unicode="&#xeb;" horiz-adv-x="590" 
d="M144.5 16q-52.5 28 -80 78.5t-27.5 117.5q0 89 41 164t112.5 119t157.5 44q97 0 153.5 -58t56.5 -153q0 -34 -8 -74l-7 -33h-352v-1q1 -42 26.5 -68.5t67.5 -26.5q74 0 133 52l84 -99q-101 -90 -233 -90q-72 0 -124.5 28zM407 342q0 32 -19 50.5t-52 18.5
q-44 0 -76 -23.5t-49 -64.5h194q2 14 2 19zM183 611q-23 21 -23 55q0 38 27.5 63.5t65.5 25.5t61.5 -21t23.5 -54q0 -41 -27 -65.5t-68 -24.5q-37 0 -60 21zM413.5 610.5q-23.5 20.5 -23.5 53.5q0 40 27.5 65.5t67.5 25.5q37 0 60 -21t23 -54q0 -41 -27 -65.5t-67 -24.5
q-37 0 -60.5 20.5z" />
    <glyph glyph-name="egrave" unicode="&#xe8;" horiz-adv-x="590" 
d="M144.5 16q-52.5 28 -80 78.5t-27.5 117.5q0 89 41 164t112.5 119t157.5 44q97 0 153.5 -58t56.5 -153q0 -34 -8 -74l-7 -33h-352v-1q1 -42 26.5 -68.5t67.5 -26.5q74 0 133 52l84 -99q-101 -90 -233 -90q-72 0 -124.5 28zM407 342q0 32 -19 50.5t-52 18.5
q-44 0 -76 -23.5t-49 -64.5h194q2 14 2 19zM196 753h166l96 -152h-151z" />
    <glyph glyph-name="f" unicode="f" horiz-adv-x="472" 
d="M206 689q67 60 174 60q110 0 180 -72l-86 -96q-31 30 -77 30q-45 0 -70.5 -21t-36.5 -66l-1 -4h193l-31 -146h-193l-79 -374h-173l109 513q24 116 91 176z" />
    <glyph glyph-name="g" unicode="g" horiz-adv-x="637" 
d="M59 -197.5q-67 27.5 -100 72.5l98 102q27 -27 65 -42.5t78 -15.5q59 0 101 35.5t56 100.5l3 16q-70 -47 -139 -47q-85 0 -135 52.5t-50 140.5q0 86 37.5 160t104 118t148.5 44q40 0 80 -16.5t68 -42.5l25 47h131l-102 -482q-27 -125 -111.5 -197.5t-214.5 -72.5
q-76 0 -143 27.5zM390 212l35 164q-35 20 -75 20q-67 0 -105 -44.5t-38 -110.5q0 -35 20 -56t52 -21q58 0 111 48z" />
    <glyph glyph-name="h" unicode="h" horiz-adv-x="634" 
d="M337 745l-54 -254q69 48 149 48q74 0 118.5 -48t44.5 -127q0 -36 -8 -73l-62 -291h-173l60 281q7 30 7 50q0 24 -14 38.5t-38 14.5q-32 0 -64.5 -17.5t-55.5 -46.5l-68 -320h-173l153 721z" />
    <glyph glyph-name="i" unicode="i" horiz-adv-x="297" 
d="M118 527h173l-112 -527h-173zM156 608.5q-25 22.5 -25 60.5q0 43 30 71t75 28q42 0 67 -22.5t25 -60.5q0 -44 -30 -71.5t-76 -27.5q-41 0 -66 22.5z" />
    <glyph glyph-name="dotlessi" unicode="&#x131;" horiz-adv-x="297" 
d="M118 527h173l-112 -527h-173z" />
    <glyph glyph-name="iacute" unicode="&#xed;" horiz-adv-x="297" 
d="M118 527h173l-112 -527h-173zM262 753h178l-156 -152h-163z" />
    <glyph glyph-name="icircumflex" unicode="&#xee;" horiz-adv-x="297" 
d="M118 527h173l-112 -527h-173zM171 753h144l99 -152h-132l-53 69l-76 -69h-146z" />
    <glyph glyph-name="idieresis" unicode="&#xef;" horiz-adv-x="297" 
d="M118 527h173l-112 -527h-173zM47 611q-23 21 -23 55q0 38 27.5 63.5t65.5 25.5t61.5 -21t23.5 -54q0 -41 -27 -65.5t-68 -24.5q-37 0 -60 21zM277.5 610.5q-23.5 20.5 -23.5 53.5q0 40 27.5 65.5t67.5 25.5q37 0 60 -21t23 -54q0 -41 -27 -65.5t-67 -24.5
q-37 0 -60.5 20.5z" />
    <glyph glyph-name="igrave" unicode="&#xec;" horiz-adv-x="297" 
d="M118 527h173l-112 -527h-173zM58 753h161l76 -152h-145z" />
    <glyph glyph-name="j" unicode="j" horiz-adv-x="297" 
d="M-85 -64q37 0 62 22t34 66l107 503h173l-109 -512q-23 -111 -82.5 -164.5t-162.5 -53.5h-68l29 139h17zM156 608.5q-25 22.5 -25 60.5q0 43 30 71t75 28q42 0 67 -22.5t25 -60.5q0 -44 -30 -71.5t-76 -27.5q-41 0 -66 22.5z" />
    <glyph glyph-name="uni0237" unicode="&#x237;" horiz-adv-x="297" 
d="M-85 -64q37 0 62 22t34 66l107 503h173l-109 -512q-23 -111 -82.5 -164.5t-162.5 -53.5h-68l29 139h17z" />
    <glyph glyph-name="k" unicode="k" horiz-adv-x="647" 
d="M334 745l-87 -408h12q27 0 45.5 7t43.5 30t63 73l61 80h194l-124 -161q-44 -57 -91 -97l116 -269h-188l-76 192q-20 -2 -29 -2h-58l-41 -190h-169l153 721z" />
    <glyph glyph-name="l" unicode="l" horiz-adv-x="339" 
d="M84 33.5q-44 41.5 -44 119.5q0 38 8 73l105 495l178 24l-113 -532q-3 -15 -3 -28q0 -25 13.5 -36.5t42.5 -11.5h19l-31 -145h-47q-84 0 -128 41.5z" />
    <glyph glyph-name="m" unicode="m" horiz-adv-x="930" 
d="M245 527l6 -57q75 69 161 69q50 0 86 -20.5t54 -58.5q85 79 181 79q74 0 116.5 -44.5t42.5 -122.5q0 -37 -9 -81l-62 -291h-171l61 285q8 34 8 53q0 21 -12 33.5t-37 12.5q-26 0 -53.5 -14.5t-49.5 -40.5q-2 -19 -6 -38l-62 -291h-171l61 285q8 34 8 53q0 21 -12.5 33.5
t-37.5 12.5q-27 0 -55 -19t-49 -51l-66 -314h-171l112 527h127z" />
    <glyph glyph-name="n" unicode="n" horiz-adv-x="634" 
d="M245 527l7 -59q85 71 180 71q74 0 118.5 -48t44.5 -127q0 -36 -8 -73l-62 -291h-173l60 281q7 30 7 50q0 24 -14 38.5t-38 14.5q-32 0 -64 -17t-56 -47l-68 -320h-173l112 527h127z" />
    <glyph glyph-name="ntilde" unicode="&#xf1;" horiz-adv-x="634" 
d="M245 527l7 -59q85 71 180 71q74 0 118.5 -48t44.5 -127q0 -36 -8 -73l-62 -291h-173l60 281q7 30 7 50q0 24 -14 38.5t-38 14.5q-32 0 -64 -17t-56 -47l-68 -320h-173l112 527h127zM440.5 598q-16.5 6 -30.5 13t-19 10q-26 12 -44.5 18.5t-37.5 6.5q-25 0 -45.5 -9
t-53.5 -29l25 117q24 18 45.5 26.5t44.5 8.5q20 0 39 -7t43 -20q50 -27 88 -27q26 0 46 8.5t34 18t18 12.5l-25 -119q-47 -34 -93 -34q-18 0 -34.5 6z" />
    <glyph glyph-name="o" unicode="o" horiz-adv-x="630" 
d="M149.5 15.5q-53.5 27.5 -83 79t-29.5 119.5q0 89 42.5 163.5t115.5 118t160 43.5q71 0 125 -27.5t83.5 -79t29.5 -119.5q0 -89 -42 -163.5t-115 -118t-162 -43.5q-71 0 -124.5 27.5zM358.5 161.5q30.5 22.5 47 59t16.5 76.5q0 41 -21 66t-59 25q-39 0 -69.5 -22.5
t-47.5 -59t-17 -75.5q0 -43 21.5 -67.5t59.5 -24.5q39 0 69.5 22.5z" />
    <glyph glyph-name="oacute" unicode="&#xf3;" horiz-adv-x="630" 
d="M149.5 15.5q-53.5 27.5 -83 79t-29.5 119.5q0 89 42.5 163.5t115.5 118t160 43.5q71 0 125 -27.5t83.5 -79t29.5 -119.5q0 -89 -42 -163.5t-115 -118t-162 -43.5q-71 0 -124.5 27.5zM358.5 161.5q30.5 22.5 47 59t16.5 76.5q0 41 -21 66t-59 25q-39 0 -69.5 -22.5
t-47.5 -59t-17 -75.5q0 -43 21.5 -67.5t59.5 -24.5q39 0 69.5 22.5zM419 753h175l-175 -152h-159z" />
    <glyph glyph-name="ocircumflex" unicode="&#xf4;" horiz-adv-x="630" 
d="M149.5 15.5q-53.5 27.5 -83 79t-29.5 119.5q0 89 42.5 163.5t115.5 118t160 43.5q71 0 125 -27.5t83.5 -79t29.5 -119.5q0 -89 -42 -163.5t-115 -118t-162 -43.5q-71 0 -124.5 27.5zM358.5 161.5q30.5 22.5 47 59t16.5 76.5q0 41 -21 66t-59 25q-39 0 -69.5 -22.5
t-47.5 -59t-17 -75.5q0 -43 21.5 -67.5t59.5 -24.5q39 0 69.5 22.5zM331 753h144l99 -152h-132l-53 69l-76 -69h-146z" />
    <glyph glyph-name="odieresis" unicode="&#xf6;" horiz-adv-x="630" 
d="M149.5 15.5q-53.5 27.5 -83 79t-29.5 119.5q0 89 42.5 163.5t115.5 118t160 43.5q71 0 125 -27.5t83.5 -79t29.5 -119.5q0 -89 -42 -163.5t-115 -118t-162 -43.5q-71 0 -124.5 27.5zM358.5 161.5q30.5 22.5 47 59t16.5 76.5q0 41 -21 66t-59 25q-39 0 -69.5 -22.5
t-47.5 -59t-17 -75.5q0 -43 21.5 -67.5t59.5 -24.5q39 0 69.5 22.5zM207 611q-23 21 -23 55q0 38 27.5 63.5t65.5 25.5t61.5 -21t23.5 -54q0 -41 -27 -65.5t-68 -24.5q-37 0 -60 21zM437.5 610.5q-23.5 20.5 -23.5 53.5q0 40 27.5 65.5t67.5 25.5q37 0 60 -21t23 -54
q0 -41 -27 -65.5t-67 -24.5q-37 0 -60.5 20.5z" />
    <glyph glyph-name="ograve" unicode="&#xf2;" horiz-adv-x="630" 
d="M149.5 15.5q-53.5 27.5 -83 79t-29.5 119.5q0 89 42.5 163.5t115.5 118t160 43.5q71 0 125 -27.5t83.5 -79t29.5 -119.5q0 -89 -42 -163.5t-115 -118t-162 -43.5q-71 0 -124.5 27.5zM358.5 161.5q30.5 22.5 47 59t16.5 76.5q0 41 -21 66t-59 25q-39 0 -69.5 -22.5
t-47.5 -59t-17 -75.5q0 -43 21.5 -67.5t59.5 -24.5q39 0 69.5 22.5zM220 753h166l96 -152h-151z" />
    <glyph glyph-name="oslash" unicode="&#xf8;" horiz-adv-x="630" 
d="M37 212q0 91 42.5 166t115.5 118t161 43q63 0 116 -24l58 64h132l-113 -126q44 -58 44 -138q0 -90 -42 -165t-115 -118.5t-163 -43.5q-65 0 -118 25l-59 -65h-132l115 128q-42 58 -42 136zM342 388q-41 0 -71.5 -23.5t-47 -60.5t-16.5 -77v-8l151 168q-5 1 -16 1z
M360.5 162.5q30.5 23.5 46.5 61t16 77.5q0 7 -1 11l-153 -171q12 -2 20 -2q41 0 71.5 23.5z" />
    <glyph glyph-name="otilde" unicode="&#xf5;" horiz-adv-x="630" 
d="M149.5 15.5q-53.5 27.5 -83 79t-29.5 119.5q0 89 42.5 163.5t115.5 118t160 43.5q71 0 125 -27.5t83.5 -79t29.5 -119.5q0 -89 -42 -163.5t-115 -118t-162 -43.5q-71 0 -124.5 27.5zM358.5 161.5q30.5 22.5 47 59t16.5 76.5q0 41 -21 66t-59 25q-39 0 -69.5 -22.5
t-47.5 -59t-17 -75.5q0 -43 21.5 -67.5t59.5 -24.5q39 0 69.5 22.5zM430.5 598q-16.5 6 -30.5 13t-19 10q-26 12 -44.5 18.5t-37.5 6.5q-25 0 -45.5 -9t-53.5 -29l25 117q24 18 45.5 26.5t44.5 8.5q20 0 39 -7t43 -20q50 -27 88 -27q26 0 46 8.5t34 18t18 12.5l-25 -119
q-47 -34 -93 -34q-18 0 -34.5 6z" />
    <glyph glyph-name="oe" unicode="&#x153;" horiz-adv-x="980" 
d="M149.5 15.5q-53.5 27.5 -83 79t-29.5 119.5q0 89 42.5 163.5t115.5 118t160 43.5q63 0 109 -24.5t73 -68.5q38 44 89.5 68.5t111.5 24.5q97 0 153.5 -58t56.5 -153q0 -34 -8 -74l-7 -33h-352v-6q1 -37 27 -63.5t67 -26.5q74 0 133 52l84 -99q-101 -90 -233 -90
q-134 0 -182 95q-40 -44 -91.5 -69.5t-111.5 -25.5q-71 0 -124.5 27.5zM797 342q0 32 -19 50.5t-52 18.5q-44 0 -76 -23.5t-49 -64.5h194q2 14 2 19zM358.5 161.5q30.5 22.5 47 59t16.5 76.5q0 41 -21 66t-59 25q-39 0 -69.5 -22.5t-47.5 -59t-17 -75.5q0 -43 21.5 -67.5
t59.5 -24.5q39 0 69.5 22.5z" />
    <glyph glyph-name="p" unicode="p" horiz-adv-x="642" 
d="M245 527l7 -57q41 34 84.5 51.5t84.5 17.5q85 0 135 -58.5t50 -153.5q0 -92 -38 -169t-105.5 -122t-151.5 -45q-33 0 -65.5 12t-59.5 32l-49 -234l-178 -22l159 748h127zM362.5 160.5q34.5 22.5 53.5 60.5t19 83q0 36 -19.5 58t-50.5 22t-61.5 -15t-55.5 -40l-36 -169
q33 -22 71 -22q45 0 79.5 22.5z" />
    <glyph glyph-name="thorn" unicode="&#xfe;" horiz-adv-x="642" 
d="M337 745l-53 -251q69 45 137 45q85 0 135 -58.5t50 -153.5q0 -92 -38 -169t-105.5 -122t-151.5 -45q-33 0 -65.5 12t-59.5 32l-49 -234l-178 -22l200 942zM362.5 160.5q34.5 22.5 53.5 60.5t19 83q0 36 -19.5 58t-50.5 22q-30 0 -60 -14.5t-56 -38.5l-36 -171
q33 -22 70 -22q45 0 79.5 22.5z" />
    <glyph glyph-name="q" unicode="q" horiz-adv-x="641" 
d="M220 -11q-85 0 -135 55.5t-50 150.5q0 92 38.5 171t106 126t150.5 47q40 0 79.5 -17.5t67.5 -44.5l26 50h131l-154 -726l-177 -22l54 256q-71 -46 -137 -46zM390 191l37 179q-32 21 -69 21q-45 0 -79 -22.5t-52.5 -60.5t-18.5 -83q0 -37 20 -59.5t51 -22.5q56 0 111 48z
" />
    <glyph glyph-name="r" unicode="r" horiz-adv-x="453" 
d="M245 527l8 -63q44 38 91 55t107 17h24l-30 -144h-11q-57 0 -106.5 -21t-81.5 -58l-67 -313h-173l112 527h127z" />
    <glyph glyph-name="s" unicode="s" horiz-adv-x="525" 
d="M98 15.5q-64 27.5 -107 69.5l90 104q31 -31 78.5 -50t93.5 -19q56 0 56 35q0 17 -17.5 25.5t-42 15.5t-33.5 10q-76 22 -113.5 57t-37.5 93q0 54 28.5 95.5t82.5 64.5t128 23q60 0 115.5 -25.5t92.5 -70.5l-96 -84q-23 25 -56 37.5t-66 12.5q-36 0 -55.5 -8.5
t-19.5 -23.5t18 -24.5t58 -20.5q26 -8 32 -10q73 -24 108 -59.5t35 -89.5q0 -90 -65 -137.5t-168 -47.5q-75 0 -139 27.5z" />
    <glyph glyph-name="scaron" unicode="&#x161;" horiz-adv-x="525" 
d="M98 15.5q-64 27.5 -107 69.5l90 104q31 -31 78.5 -50t93.5 -19q56 0 56 35q0 17 -17.5 25.5t-42 15.5t-33.5 10q-76 22 -113.5 57t-37.5 93q0 54 28.5 95.5t82.5 64.5t128 23q60 0 115.5 -25.5t92.5 -70.5l-96 -84q-23 25 -56 37.5t-66 12.5q-36 0 -55.5 -8.5
t-19.5 -23.5t18 -24.5t58 -20.5q26 -8 32 -10q73 -24 108 -59.5t35 -89.5q0 -90 -65 -137.5t-168 -47.5q-75 0 -139 27.5zM142 753h132l53 -69l76 69h146l-164 -152h-144z" />
    <glyph glyph-name="germandbls" unicode="&#xdf;" horiz-adv-x="690" 
d="M313.5 1.5q-44.5 13.5 -79.5 39.5l67 113q39 -26 87 -26q41 0 66 14.5t25 44.5q0 21 -13 34t-44 33q-14 8 -20 13q-36 21 -53.5 39t-17.5 47q0 30 13 55.5t38 52.5l19 20q23 23 31.5 36t8.5 33t-14 32t-38 12q-46 0 -72.5 -31t-39.5 -90l-100 -473h-171l99 467
q29 135 104.5 206.5t192.5 71.5q68 0 116.5 -20t73 -53.5t24.5 -73.5q0 -33 -12 -56.5t-35 -45.5q-6 -6 -27 -25t-31.5 -35.5t-10.5 -31.5q0 -19 9 -29t33 -28q17 -11 30 -22q72 -56 72 -131q0 -57 -28 -104.5t-78 -74.5t-112 -27q-68 0 -112.5 13.5z" />
    <glyph glyph-name="t" unicode="t" horiz-adv-x="466" 
d="M97 34q-49 46 -49 127q0 33 7 65l90 428l178 24l-32 -151h187l-31 -146h-187l-35 -166q-4 -22 -4 -29q0 -46 47 -46q25 0 44.5 7t40.5 22l63 -118q-39 -33 -85.5 -48t-93.5 -15q-91 0 -140 46z" />
    <glyph glyph-name="u" unicode="u" horiz-adv-x="636" 
d="M88 36.5q-45 48.5 -45 127.5q0 35 8 72l62 291h173l-60 -281q-7 -30 -7 -49q0 -24 13.5 -39t37.5 -15q32 0 63 17t55 47l68 320h173l-112 -527h-127l-7 59q-82 -71 -177 -71q-73 0 -118 48.5z" />
    <glyph glyph-name="uacute" unicode="&#xfa;" horiz-adv-x="636" 
d="M88 36.5q-45 48.5 -45 127.5q0 35 8 72l62 291h173l-60 -281q-7 -30 -7 -49q0 -24 13.5 -39t37.5 -15q32 0 63 17t55 47l68 320h173l-112 -527h-127l-7 59q-82 -71 -177 -71q-73 0 -118 48.5zM424 753h175l-175 -152h-159z" />
    <glyph glyph-name="ucircumflex" unicode="&#xfb;" horiz-adv-x="636" 
d="M88 36.5q-45 48.5 -45 127.5q0 35 8 72l62 291h173l-60 -281q-7 -30 -7 -49q0 -24 13.5 -39t37.5 -15q32 0 63 17t55 47l68 320h173l-112 -527h-127l-7 59q-82 -71 -177 -71q-73 0 -118 48.5zM336 753h144l99 -152h-132l-53 69l-76 -69h-146z" />
    <glyph glyph-name="udieresis" unicode="&#xfc;" horiz-adv-x="636" 
d="M88 36.5q-45 48.5 -45 127.5q0 35 8 72l62 291h173l-60 -281q-7 -30 -7 -49q0 -24 13.5 -39t37.5 -15q32 0 63 17t55 47l68 320h173l-112 -527h-127l-7 59q-82 -71 -177 -71q-73 0 -118 48.5zM212 611q-23 21 -23 55q0 38 27.5 63.5t65.5 25.5t61.5 -21t23.5 -54
q0 -41 -27 -65.5t-68 -24.5q-37 0 -60 21zM442.5 610.5q-23.5 20.5 -23.5 53.5q0 40 27.5 65.5t67.5 25.5q37 0 60 -21t23 -54q0 -41 -27 -65.5t-67 -24.5q-37 0 -60.5 20.5z" />
    <glyph glyph-name="ugrave" unicode="&#xf9;" horiz-adv-x="636" 
d="M88 36.5q-45 48.5 -45 127.5q0 35 8 72l62 291h173l-60 -281q-7 -30 -7 -49q0 -24 13.5 -39t37.5 -15q32 0 63 17t55 47l68 320h173l-112 -527h-127l-7 59q-82 -71 -177 -71q-73 0 -118 48.5zM225 753h166l96 -152h-151z" />
    <glyph glyph-name="v" unicode="v" horiz-adv-x="633" 
d="M68 527h183l45 -355l189 355h196l-322 -527h-195z" />
    <glyph glyph-name="w" unicode="w" horiz-adv-x="858" 
d="M71 527h177l-8 -333l150 297h174l17 -297l139 333h182l-265 -527h-182l-18 301l-150 -301h-178z" />
    <glyph glyph-name="wacute" unicode="&#x1e83;" horiz-adv-x="858" 
d="M71 527h177l-8 -333l150 297h174l17 -297l139 333h182l-265 -527h-182l-18 301l-150 -301h-178zM530 753h175l-175 -152h-159z" />
    <glyph glyph-name="wcircumflex" unicode="&#x175;" horiz-adv-x="858" 
d="M71 527h177l-8 -333l150 297h174l17 -297l139 333h182l-265 -527h-182l-18 301l-150 -301h-178zM442 753h144l99 -152h-132l-53 69l-76 -69h-146z" />
    <glyph glyph-name="wdieresis" unicode="&#x1e85;" horiz-adv-x="858" 
d="M71 527h177l-8 -333l150 297h174l17 -297l139 333h182l-265 -527h-182l-18 301l-150 -301h-178zM318 611q-23 21 -23 55q0 38 27.5 63.5t65.5 25.5t61.5 -21t23.5 -54q0 -41 -27 -65.5t-68 -24.5q-37 0 -60 21zM548.5 610.5q-23.5 20.5 -23.5 53.5q0 40 27.5 65.5
t67.5 25.5q37 0 60 -21t23 -54q0 -41 -27 -65.5t-67 -24.5q-37 0 -60.5 20.5z" />
    <glyph glyph-name="wgrave" unicode="&#x1e81;" horiz-adv-x="858" 
d="M71 527h177l-8 -333l150 297h174l17 -297l139 333h182l-265 -527h-182l-18 301l-150 -301h-178zM331 753h166l96 -152h-151z" />
    <glyph glyph-name="x" unicode="x" horiz-adv-x="626" 
d="M215 280l-133 247h190l69 -140l121 140h197l-244 -260l141 -267h-190l-75 160l-139 -160h-199z" />
    <glyph glyph-name="y" unicode="y" horiz-adv-x="621" 
d="M34 -53q48 0 82.5 18t69.5 61l4 5l-127 496h187l58 -312l168 312h193l-319 -521q-67 -109 -140 -159t-179 -50h-60l32 150h31z" />
    <glyph glyph-name="yacute" unicode="&#xfd;" horiz-adv-x="621" 
d="M34 -53q48 0 82.5 18t69.5 61l4 5l-127 496h187l58 -312l168 312h193l-319 -521q-67 -109 -140 -159t-179 -50h-60l32 150h31zM423 753h175l-175 -152h-159z" />
    <glyph glyph-name="ycircumflex" unicode="&#x177;" horiz-adv-x="621" 
d="M34 -53q48 0 82.5 18t69.5 61l4 5l-127 496h187l58 -312l168 312h193l-319 -521q-67 -109 -140 -159t-179 -50h-60l32 150h31zM335 753h144l99 -152h-132l-53 69l-76 -69h-146z" />
    <glyph glyph-name="ydieresis" unicode="&#xff;" horiz-adv-x="621" 
d="M34 -53q48 0 82.5 18t69.5 61l4 5l-127 496h187l58 -312l168 312h193l-319 -521q-67 -109 -140 -159t-179 -50h-60l32 150h31zM211 611q-23 21 -23 55q0 38 27.5 63.5t65.5 25.5t61.5 -21t23.5 -54q0 -41 -27 -65.5t-68 -24.5q-37 0 -60 21zM441.5 610.5
q-23.5 20.5 -23.5 53.5q0 40 27.5 65.5t67.5 25.5q37 0 60 -21t23 -54q0 -41 -27 -65.5t-67 -24.5q-37 0 -60.5 20.5z" />
    <glyph glyph-name="ygrave" unicode="&#x1ef3;" horiz-adv-x="621" 
d="M34 -53q48 0 82.5 18t69.5 61l4 5l-127 496h187l58 -312l168 312h193l-319 -521q-67 -109 -140 -159t-179 -50h-60l32 150h31zM224 753h166l96 -152h-151z" />
    <glyph glyph-name="z" unicode="z" horiz-adv-x="559" 
d="M18 109l295 277h-226l30 141h443l-21 -109l-289 -277h235l-30 -141h-458z" />
    <glyph glyph-name="zcaron" unicode="&#x17e;" horiz-adv-x="559" 
d="M18 109l295 277h-226l30 141h443l-21 -109l-289 -277h235l-30 -141h-458zM185 753h132l53 -69l76 69h146l-164 -152h-144z" />
    <glyph glyph-name="ordfeminine" unicode="&#xaa;" horiz-adv-x="440" 
d="M81.5 293q-32.5 30 -32.5 80q0 65 51 101.5t134 36.5h86v1q2 14 2 19q0 20 -10.5 30.5t-30.5 10.5q-31 0 -60.5 -10.5t-53.5 -29.5l-61 95q86 61 179 61q82 0 125 -38.5t43 -107.5q0 -26 -6 -55l-46 -216h-104l-5 37q-59 -45 -120 -45q-58 0 -90.5 30zM255 374
q22 8 41 25l5 27h-71q-24 0 -40 -8.5t-16 -27.5q0 -11 7.5 -17.5t20.5 -6.5q31 0 53 8z" />
    <glyph glyph-name="ordmasculine" unicode="&#xba;" horiz-adv-x="487" 
d="M120.5 309.5q-50.5 46.5 -50.5 126.5q0 69 33.5 127t91 91.5t126.5 33.5q84 0 134.5 -47t50.5 -126q0 -69 -33.5 -127t-91 -91.5t-126.5 -33.5q-84 0 -134.5 46.5zM332.5 427.5q25.5 32.5 25.5 75.5q0 23 -12.5 38t-34.5 15q-42 0 -67.5 -32.5t-25.5 -74.5
q0 -23 12.5 -38.5t34.5 -15.5q42 0 67.5 32.5z" />
    <glyph glyph-name="uni03BC" unicode="&#x3bc;" horiz-adv-x="639" 
d="M291 527l-61 -285q-5 -28 -5 -43q0 -30 13 -43.5t39 -13.5q29 0 59 17t55 46l68 322h173l-112 -527h-127l-7 60q-81 -72 -178 -72q-10 0 -19 2t-12 2l-40 -191l-178 -22l159 748h173z" />
    <glyph glyph-name="zero" unicode="0" horiz-adv-x="635" 
d="M161 18.5q-52 30.5 -80.5 86t-28.5 130.5q0 112 39 211.5t113.5 160.5t173.5 61q68 0 120.5 -31t81.5 -87.5t29 -131.5q0 -112 -39 -211t-113.5 -159t-174.5 -60q-69 0 -121 30.5zM372.5 198q31.5 41 47.5 101.5t16 116.5q0 41 -17.5 62.5t-51.5 21.5q-45 0 -77 -41
t-48.5 -100.5t-16.5 -115.5q0 -42 18.5 -64t52.5 -22q45 0 76.5 41z" />
    <glyph glyph-name="one" unicode="1" horiz-adv-x="433" 
d="M232 490l-160 -40l30 144l201 63h137l-139 -657h-174z" />
    <glyph glyph-name="two" unicode="2" horiz-adv-x="588" 
d="M273 322q21 18 34 27q50 40 69 61.5t19 46.5q0 21 -16 32.5t-45 11.5q-71 0 -159 -77l-86 133q132 111 279 111q100 0 155 -50.5t55 -134.5q0 -62 -37 -115t-103 -104l-136 -106h206l-34 -158h-477l22 115z" />
    <glyph glyph-name="three" unicode="3" horiz-adv-x="570" 
d="M96 17q-63 29 -101 75l103 102q28 -25 63 -39t69 -14q56 0 87 20t31 56q0 26 -21.5 40t-59.5 14h-108l20 107l172 125h-249l33 154h458l-24 -119l-192 -147q67 -15 106.5 -62.5t39.5 -111.5q0 -112 -81 -170.5t-213 -58.5q-70 0 -133 29z" />
    <glyph glyph-name="four" unicode="4" horiz-adv-x="606" 
d="M315 139h-305l24 125l391 393h155l-79 -370h76l-31 -148h-76l-30 -139h-155zM346 287l36 166l-161 -166h125z" />
    <glyph glyph-name="five" unicode="5" horiz-adv-x="547" 
d="M89.5 17q-65.5 29 -102.5 77l108 99q29 -27 61 -39.5t71 -12.5q45 0 73 20t28 54q0 57 -86 57h-181l22 108l95 277h378l-33 -155h-253l-27 -85h45q99 0 158 -49.5t59 -131.5q0 -77 -34 -133t-95 -85.5t-143 -29.5q-78 0 -143.5 29z" />
    <glyph glyph-name="six" unicode="6" horiz-adv-x="594" 
d="M109 52.5q-65 64.5 -65 178.5q0 39 10 97q17 101 65.5 178.5t118 119.5t148.5 42q65 0 119 -25.5t91 -74.5l-101 -99q-45 45 -102 45q-52 0 -94 -31t-66 -91q58 20 109 20q60 0 105.5 -25.5t70 -69t24.5 -95.5q0 -69 -33.5 -122t-92.5 -82.5t-133 -29.5q-109 0 -174 64.5
zM365.5 158.5q24.5 21.5 24.5 54.5q0 30 -22.5 47.5t-64.5 17.5q-57 0 -100 -16q-2 -16 -2 -23q0 -50 28 -76t73 -26q39 0 63.5 21.5z" />
    <glyph glyph-name="seven" unicode="7" horiz-adv-x="554" 
d="M362 495h-282l35 162h488l-18 -92l-347 -565h-192z" />
    <glyph glyph-name="eight" unicode="8" horiz-adv-x="612" 
d="M140.5 11.5q-55.5 23.5 -85.5 64t-30 90.5q0 104 141 180q-54 47 -54 123q0 58 35 103.5t93 70.5t123 25q104 0 167 -44.5t63 -118.5q0 -95 -109 -164q34 -27 52.5 -62.5t18.5 -74.5q0 -70 -39 -119t-104.5 -73t-143.5 -24q-72 0 -127.5 23.5zM422.5 426.5
q18.5 19.5 18.5 43.5q0 28 -23 44t-63 16q-38 0 -64 -16t-26 -40q0 -28 23.5 -44.5t79.5 -33.5l6 -2q30 13 48.5 32.5zM370 149q28 18 28 49q0 30 -25.5 48.5t-89.5 39.5l-6 2q-42 -19 -65 -41.5t-23 -52.5t27 -46.5t76 -16.5q50 0 78 18z" />
    <glyph glyph-name="nine" unicode="9" horiz-adv-x="597" 
d="M119 14q-61 26 -99 76l101 99q25 -24 54 -35t57 -11q63 0 102 28.5t60 92.5q-63 -24 -120 -24q-56 0 -100.5 25.5t-69.5 68.5t-25 92q0 72 33 127t92 85t135 30q70 0 123.5 -32t83.5 -88.5t30 -129.5q0 -68 -9 -113q-18 -99 -62.5 -170.5t-109.5 -109t-143 -37.5
q-72 0 -133 26zM419 391q1 5 1 15q0 53 -25.5 83t-74.5 30q-40 0 -64.5 -20.5t-24.5 -55.5q0 -31 22 -50.5t64 -19.5q58 0 102 18z" />
    <glyph glyph-name="zero.zero" horiz-adv-x="635" 
d="M498.5 637q52.5 -31 81.5 -87.5t29 -131.5q0 -112 -39 -211t-113.5 -159t-174.5 -60q-69 0 -121 30.5t-80.5 86t-28.5 130.5q0 112 39 211.5t113.5 160.5t173.5 61q68 0 120.5 -31zM265 447q-41 -74 -51 -170l218 216q-19 28 -60 28q-66 0 -107 -74zM396.5 209
q40.5 73 49.5 168l-215 -214q21 -27 61 -27q64 0 104.5 73z" />
    <glyph glyph-name="zero.tf" 
d="M142 18q-50 30 -77.5 85t-27.5 129q0 112 38.5 212.5t110.5 162t168 61.5q65 0 115.5 -30.5t78.5 -86.5t28 -130q0 -113 -38.5 -212t-111 -160t-168.5 -61q-66 0 -116 30zM344 199q29 42 44 102.5t15 116.5q0 39 -15.5 60.5t-45.5 21.5q-42 0 -72 -41t-45 -101.5
t-15 -116.5q0 -40 16.5 -62t46.5 -22q42 0 71 42z" />
    <glyph glyph-name="one.tf" 
d="M315 490l-183 -47l29 141l225 73h137l-139 -657h-174z" />
    <glyph glyph-name="two.tf" 
d="M268 322q21 18 34 27q50 40 69 61.5t19 46.5q0 21 -16 32.5t-45 11.5q-71 0 -159 -77l-86 133q132 111 279 111q100 0 155 -50.5t55 -134.5q0 -62 -37 -115t-103 -104l-136 -106h206l-34 -158h-477l22 115z" />
    <glyph glyph-name="three.tf" 
d="M101 17q-63 29 -101 75l103 102q28 -25 63 -39t69 -14q56 0 87 20t31 56q0 26 -21.5 40t-59.5 14h-108l20 107l172 125h-249l33 154h458l-24 -119l-192 -147q67 -15 106.5 -62.5t39.5 -111.5q0 -112 -81 -170.5t-213 -58.5q-70 0 -133 29z" />
    <glyph glyph-name="four.tf" 
d="M298 139h-295l24 125l381 393h155l-79 -370h76l-31 -148h-76l-30 -139h-155zM329 287l36 166l-158 -166h122z" />
    <glyph glyph-name="five.tf" 
d="M114.5 17q-65.5 29 -102.5 77l108 99q29 -27 61 -39.5t71 -12.5q45 0 73 20t28 54q0 57 -86 57h-181l22 108l95 277h378l-33 -155h-253l-27 -85h45q99 0 158 -49.5t59 -131.5q0 -77 -34 -133t-95 -85.5t-143 -29.5q-78 0 -143.5 29z" />
    <glyph glyph-name="six.tf" 
d="M106 52.5q-65 64.5 -65 178.5q0 39 10 97q17 101 65.5 178.5t118 119.5t148.5 42q65 0 119 -25.5t91 -74.5l-101 -99q-45 45 -102 45q-52 0 -94 -31t-66 -91q58 20 109 20q60 0 105.5 -25.5t70 -69t24.5 -95.5q0 -69 -33.5 -122t-92.5 -82.5t-133 -29.5q-109 0 -174 64.5
zM362.5 158.5q24.5 21.5 24.5 54.5q0 30 -22.5 47.5t-64.5 17.5q-57 0 -100 -16q-2 -16 -2 -23q0 -50 28 -76t73 -26q39 0 63.5 21.5z" />
    <glyph glyph-name="seven.tf" 
d="M372 495h-282l35 162h488l-18 -92l-347 -565h-192z" />
    <glyph glyph-name="eight.tf" 
d="M127.5 11.5q-55.5 23.5 -85.5 64t-30 90.5q0 104 141 180q-54 47 -54 123q0 58 35 103.5t93 70.5t123 25q104 0 167 -44.5t63 -118.5q0 -95 -109 -164q34 -27 52.5 -62.5t18.5 -74.5q0 -70 -39 -119t-104.5 -73t-143.5 -24q-72 0 -127.5 23.5zM409.5 426.5
q18.5 19.5 18.5 43.5q0 28 -23 44t-63 16q-38 0 -64 -16t-26 -40q0 -28 23.5 -44.5t79.5 -33.5l6 -2q30 13 48.5 32.5zM357 149q28 18 28 49q0 30 -25.5 48.5t-89.5 39.5l-6 2q-42 -19 -65 -41.5t-23 -52.5t27 -46.5t76 -16.5q50 0 78 18z" />
    <glyph glyph-name="nine.tf" 
d="M113 14q-61 26 -99 76l101 99q25 -24 54 -35t57 -11q63 0 102 28.5t60 92.5q-63 -24 -120 -24q-56 0 -100.5 25.5t-69.5 68.5t-25 92q0 72 33 127t92 85t135 30q70 0 123.5 -32t83.5 -88.5t30 -129.5q0 -68 -9 -113q-18 -99 -62.5 -170.5t-109.5 -109t-143 -37.5
q-72 0 -133 26zM413 391q1 5 1 15q0 53 -25.5 83t-74.5 30q-40 0 -64.5 -20.5t-24.5 -55.5q0 -31 22 -50.5t64 -19.5q58 0 102 18z" />
    <glyph glyph-name="zero.tf.zero" 
d="M469.5 637.5q50.5 -30.5 78.5 -86.5t28 -130q0 -113 -38.5 -212t-111 -160t-168.5 -61q-66 0 -116 30t-77.5 85t-27.5 129q0 112 38.5 212.5t110.5 162t168 61.5q65 0 115.5 -30.5zM248.5 444.5q-39.5 -67.5 -50.5 -154.5l205 196q-18 26 -56 26q-59 0 -98.5 -67.5z
M366.5 212.5q38.5 67.5 49.5 155.5l-206 -195q19 -28 58 -28q60 0 98.5 67.5z" />
    <glyph glyph-name="zero.subs" horiz-adv-x="471" 
d="M67 -44.5q-41 41.5 -41 112.5q0 67 25 125t71.5 93.5t109.5 35.5q68 0 109.5 -42.5t41.5 -113.5q0 -67 -24.5 -125t-71.5 -92.5t-110 -34.5q-69 0 -110 41.5zM241 76.5q20 44.5 20 91.5q0 17 -9.5 27t-25.5 10q-25 0 -42.5 -22t-26.5 -53.5t-9 -59.5q0 -17 10 -27.5
t27 -10.5q36 0 56 44.5z" />
    <glyph glyph-name="one.subs" horiz-adv-x="365" 
d="M144 198l-98 -20l20 101l129 37h95l-83 -394h-123z" />
    <glyph glyph-name="two.subs" horiz-adv-x="441" 
d="M158 114q16 12 25 18q29 22 39 31.5t10 21.5q0 9 -7 15t-21 6q-46 0 -99 -42l-62 91q86 69 183 69q65 0 101.5 -32t36.5 -85q0 -69 -91 -131l-63 -43h114l-23 -111h-310l14 75z" />
    <glyph glyph-name="three.subs" horiz-adv-x="457" 
d="M74 -68q-43 18 -67 48l73 71q35 -32 84 -32q31 0 44.5 8t13.5 25q0 11 -10.5 17.5t-29.5 6.5h-77l13 72l98 61h-147l21 106h293l-14 -76l-121 -84q43 -8 69 -35.5t26 -67.5q0 -68 -49 -103t-129 -35q-48 0 -91 18z" />
    <glyph glyph-name="four.subs" horiz-adv-x="466" 
d="M196 2h-197l14 83l249 231h109l-46 -214h50l-22 -100h-49l-17 -80h-108zM217 102l18 86l-93 -86h75z" />
    <glyph glyph-name="five.subs" horiz-adv-x="397" 
d="M46 -68q-43 18 -67 49l75 68q34 -27 79 -27q26 0 40.5 7.5t14.5 21.5q0 25 -48 25h-115l14 74l56 165h243l-22 -107h-157l-10 -36h17q65 0 105.5 -30t40.5 -79q0 -71 -47.5 -110t-126.5 -39q-49 0 -92 18z" />
    <glyph glyph-name="six.subs" horiz-adv-x="449" 
d="M65 -49q-42 37 -42 108q0 30 7 61q20 92 80.5 147t140.5 55q42 0 78 -16t60 -46l-71 -68q-27 24 -63 24t-61 -12.5t-40 -41.5q39 12 71 12q56 0 90.5 -31t34.5 -82q0 -65 -48.5 -106t-123.5 -41q-71 0 -113 37zM229 27q16 10 16 28q0 28 -52 28q-36 0 -62 -9v-9
q0 -24 15.5 -36t40.5 -12q26 0 42 10z" />
    <glyph glyph-name="seven.subs" horiz-adv-x="430" 
d="M217 203h-168l24 113h314l-11 -57l-209 -337h-134z" />
    <glyph glyph-name="eight.subs" horiz-adv-x="453" 
d="M50.5 -54.5q-44.5 31.5 -44.5 77.5q0 61 85 104q-32 29 -32 74q0 35 22.5 62.5t59.5 43t78 15.5q68 0 109.5 -27t41.5 -74q0 -56 -64 -94q43 -35 43 -83q0 -63 -53 -96.5t-131 -33.5q-70 0 -114.5 31.5zM256 177.5q10 9.5 10 20.5q0 14 -14 22t-37 8q-21 0 -36 -7.5
t-15 -17.5q0 -14 14.5 -22.5t50.5 -18.5q17 6 27 15.5zM225 20q16 8 16 22t-17 24.5t-55 21.5q-24 -10 -37 -20.5t-13 -25.5t16 -22.5t45 -7.5t45 8z" />
    <glyph glyph-name="nine.subs" horiz-adv-x="442" 
d="M71.5 -70q-44.5 17 -69.5 48l69 68q15 -13 34.5 -19.5t36.5 -6.5q34 0 56.5 13t35.5 40q-39 -12 -71 -12q-57 0 -91 34.5t-34 83.5q0 64 46 103.5t119 39.5q70 0 114 -44t44 -119q0 -30 -4 -54q-17 -91 -71.5 -141.5t-128.5 -50.5q-41 0 -85.5 17zM254 162v5
q-1 25 -16.5 38.5t-39.5 13.5q-25 0 -40 -9.5t-15 -26.5q0 -30 53 -30q34 0 58 9z" />
    <glyph glyph-name="zero.dnom" horiz-adv-x="471" 
d="M83 33.5q-41 41.5 -41 112.5q0 67 25 125t71.5 93.5t109.5 35.5q68 0 109.5 -42.5t41.5 -113.5q0 -67 -24.5 -125t-71.5 -92.5t-110 -34.5q-69 0 -110 41.5zM257 154.5q20 44.5 20 91.5q0 17 -9.5 27t-25.5 10q-25 0 -42.5 -22t-26.5 -53.5t-9 -59.5q0 -17 10 -27.5
t27 -10.5q36 0 56 44.5z" />
    <glyph glyph-name="one.dnom" horiz-adv-x="365" 
d="M160 276l-98 -20l20 101l129 37h95l-83 -394h-123z" />
    <glyph glyph-name="two.dnom" horiz-adv-x="441" 
d="M174 192q16 12 25 18q29 22 39 31.5t10 21.5q0 9 -7 15t-21 6q-46 0 -99 -42l-62 91q86 69 183 69q65 0 101.5 -32t36.5 -85q0 -69 -91 -131l-63 -43h114l-23 -111h-310l14 75z" />
    <glyph glyph-name="three.dnom" horiz-adv-x="457" 
d="M90 10q-43 18 -67 48l73 71q35 -32 84 -32q31 0 44.5 8t13.5 25q0 11 -10.5 17.5t-29.5 6.5h-77l13 72l98 61h-147l21 106h293l-14 -76l-121 -84q43 -8 69 -35.5t26 -67.5q0 -68 -49 -103t-129 -35q-48 0 -91 18z" />
    <glyph glyph-name="four.dnom" horiz-adv-x="466" 
d="M212 80h-197l14 83l249 231h109l-46 -214h50l-22 -100h-49l-17 -80h-108zM233 180l18 86l-93 -86h75z" />
    <glyph glyph-name="five.dnom" horiz-adv-x="397" 
d="M62 10q-43 18 -67 49l75 68q34 -27 79 -27q26 0 40.5 7.5t14.5 21.5q0 25 -48 25h-115l14 74l56 165h243l-22 -107h-157l-10 -36h17q65 0 105.5 -30t40.5 -79q0 -71 -47.5 -110t-126.5 -39q-49 0 -92 18z" />
    <glyph glyph-name="six.dnom" horiz-adv-x="449" 
d="M81 29q-42 37 -42 108q0 30 7 61q20 92 80.5 147t140.5 55q42 0 78 -16t60 -46l-71 -68q-27 24 -63 24t-61 -12.5t-40 -41.5q39 12 71 12q56 0 90.5 -31t34.5 -82q0 -65 -48.5 -106t-123.5 -41q-71 0 -113 37zM245 105q16 10 16 28q0 28 -52 28q-36 0 -62 -9v-9
q0 -24 15.5 -36t40.5 -12q26 0 42 10z" />
    <glyph glyph-name="seven.dnom" horiz-adv-x="430" 
d="M233 281h-168l24 113h314l-11 -57l-209 -337h-134z" />
    <glyph glyph-name="eight.dnom" horiz-adv-x="453" 
d="M66.5 23.5q-44.5 31.5 -44.5 77.5q0 61 85 104q-32 29 -32 74q0 35 22.5 62.5t59.5 43t78 15.5q68 0 109.5 -27t41.5 -74q0 -56 -64 -94q43 -35 43 -83q0 -63 -53 -96.5t-131 -33.5q-70 0 -114.5 31.5zM272 255.5q10 9.5 10 20.5q0 14 -14 22t-37 8q-21 0 -36 -7.5
t-15 -17.5q0 -14 14.5 -22.5t50.5 -18.5q17 6 27 15.5zM241 98q16 8 16 22t-17 24.5t-55 21.5q-24 -10 -37 -20.5t-13 -25.5t16 -22.5t45 -7.5t45 8z" />
    <glyph glyph-name="nine.dnom" horiz-adv-x="442" 
d="M87.5 8q-44.5 17 -69.5 48l69 68q15 -13 34.5 -19.5t36.5 -6.5q34 0 56.5 13t35.5 40q-39 -12 -71 -12q-57 0 -91 34.5t-34 83.5q0 64 46 103.5t119 39.5q70 0 114 -44t44 -119q0 -30 -4 -54q-17 -91 -71.5 -141.5t-128.5 -50.5q-41 0 -85.5 17zM270 240v5
q-1 25 -16.5 38.5t-39.5 13.5q-25 0 -40 -9.5t-15 -26.5q0 -30 53 -30q34 0 58 9z" />
    <glyph glyph-name="zero.numr" horiz-adv-x="471" 
d="M139 295.5q-41 41.5 -41 112.5q0 67 25 125t71.5 93.5t109.5 35.5q68 0 109.5 -42.5t41.5 -113.5q0 -67 -24.5 -125t-71.5 -92.5t-110 -34.5q-69 0 -110 41.5zM313 416.5q20 44.5 20 91.5q0 17 -9.5 27t-25.5 10q-25 0 -42.5 -22t-26.5 -53.5t-9 -59.5q0 -17 10 -27.5
t27 -10.5q36 0 56 44.5z" />
    <glyph glyph-name="one.numr" horiz-adv-x="365" 
d="M216 538l-98 -20l20 101l129 37h95l-83 -394h-123z" />
    <glyph glyph-name="two.numr" horiz-adv-x="441" 
d="M230 454q16 12 25 18q29 22 39 31.5t10 21.5q0 9 -7 15t-21 6q-46 0 -99 -42l-62 91q86 69 183 69q65 0 101.5 -32t36.5 -85q0 -69 -91 -131l-63 -43h114l-23 -111h-310l14 75z" />
    <glyph glyph-name="three.numr" horiz-adv-x="457" 
d="M146 272q-43 18 -67 48l73 71q35 -32 84 -32q31 0 44.5 8t13.5 25q0 11 -10.5 17.5t-29.5 6.5h-77l13 72l98 61h-147l21 106h293l-14 -76l-121 -84q43 -8 69 -35.5t26 -67.5q0 -68 -49 -103t-129 -35q-48 0 -91 18z" />
    <glyph glyph-name="four.numr" horiz-adv-x="466" 
d="M268 342h-197l14 83l249 231h109l-46 -214h50l-22 -100h-49l-17 -80h-108zM289 442l18 86l-93 -86h75z" />
    <glyph glyph-name="five.numr" horiz-adv-x="397" 
d="M118 272q-43 18 -67 49l75 68q34 -27 79 -27q26 0 40.5 7.5t14.5 21.5q0 25 -48 25h-115l14 74l56 165h243l-22 -107h-157l-10 -36h17q65 0 105.5 -30t40.5 -79q0 -71 -47.5 -110t-126.5 -39q-49 0 -92 18z" />
    <glyph glyph-name="six.numr" horiz-adv-x="449" 
d="M137 291q-42 37 -42 108q0 30 7 61q20 92 80.5 147t140.5 55q42 0 78 -16t60 -46l-71 -68q-27 24 -63 24t-61 -12.5t-40 -41.5q39 12 71 12q56 0 90.5 -31t34.5 -82q0 -65 -48.5 -106t-123.5 -41q-71 0 -113 37zM301 367q16 10 16 28q0 28 -52 28q-36 0 -62 -9v-9
q0 -24 15.5 -36t40.5 -12q26 0 42 10z" />
    <glyph glyph-name="seven.numr" horiz-adv-x="430" 
d="M289 543h-168l24 113h314l-11 -57l-209 -337h-134z" />
    <glyph glyph-name="eight.numr" horiz-adv-x="453" 
d="M122.5 285.5q-44.5 31.5 -44.5 77.5q0 61 85 104q-32 29 -32 74q0 35 22.5 62.5t59.5 43t78 15.5q68 0 109.5 -27t41.5 -74q0 -56 -64 -94q43 -35 43 -83q0 -63 -53 -96.5t-131 -33.5q-70 0 -114.5 31.5zM328 517.5q10 9.5 10 20.5q0 14 -14 22t-37 8q-21 0 -36 -7.5
t-15 -17.5q0 -14 14.5 -22.5t50.5 -18.5q17 6 27 15.5zM297 360q16 8 16 22t-17 24.5t-55 21.5q-24 -10 -37 -20.5t-13 -25.5t16 -22.5t45 -7.5t45 8z" />
    <glyph glyph-name="nine.numr" horiz-adv-x="442" 
d="M143.5 270q-44.5 17 -69.5 48l69 68q15 -13 34.5 -19.5t36.5 -6.5q34 0 56.5 13t35.5 40q-39 -12 -71 -12q-57 0 -91 34.5t-34 83.5q0 64 46 103.5t119 39.5q70 0 114 -44t44 -119q0 -30 -4 -54q-17 -91 -71.5 -141.5t-128.5 -50.5q-41 0 -85.5 17zM326 502v5
q-1 25 -16.5 38.5t-39.5 13.5q-25 0 -40 -9.5t-15 -26.5q0 -30 53 -30q34 0 58 9z" />
    <glyph glyph-name="uni2070" unicode="&#x2070;" horiz-adv-x="471" 
d="M153 361.5q-41 41.5 -41 112.5q0 67 25 125t71.5 93.5t109.5 35.5q68 0 109.5 -42.5t41.5 -113.5q0 -67 -24.5 -125t-71.5 -92.5t-110 -34.5q-69 0 -110 41.5zM327 482.5q20 44.5 20 91.5q0 17 -9.5 27t-25.5 10q-25 0 -42.5 -22t-26.5 -53.5t-9 -59.5q0 -17 10 -27.5
t27 -10.5q36 0 56 44.5z" />
    <glyph glyph-name="uni00B9" unicode="&#xb9;" horiz-adv-x="365" 
d="M230 604l-98 -20l20 101l129 37h95l-83 -394h-123z" />
    <glyph glyph-name="uni00B2" unicode="&#xb2;" horiz-adv-x="441" 
d="M244 520q16 12 25 18q29 22 39 31.5t10 21.5q0 9 -7 15t-21 6q-46 0 -99 -42l-62 91q86 69 183 69q65 0 101.5 -32t36.5 -85q0 -69 -91 -131l-63 -43h114l-23 -111h-310l14 75z" />
    <glyph glyph-name="uni00B3" unicode="&#xb3;" horiz-adv-x="457" 
d="M160 338q-43 18 -67 48l73 71q35 -32 84 -32q31 0 44.5 8t13.5 25q0 11 -10.5 17.5t-29.5 6.5h-77l13 72l98 61h-147l21 106h293l-14 -76l-121 -84q43 -8 69 -35.5t26 -67.5q0 -68 -49 -103t-129 -35q-48 0 -91 18z" />
    <glyph glyph-name="uni2074" unicode="&#x2074;" horiz-adv-x="466" 
d="M282 408h-197l14 83l249 231h109l-46 -214h50l-22 -100h-49l-17 -80h-108zM303 508l18 86l-93 -86h75z" />
    <glyph glyph-name="uni2075" unicode="&#x2075;" horiz-adv-x="397" 
d="M132 338q-43 18 -67 49l75 68q34 -27 79 -27q26 0 40.5 7.5t14.5 21.5q0 25 -48 25h-115l14 74l56 165h243l-22 -107h-157l-10 -36h17q65 0 105.5 -30t40.5 -79q0 -71 -47.5 -110t-126.5 -39q-49 0 -92 18z" />
    <glyph glyph-name="uni2076" unicode="&#x2076;" horiz-adv-x="449" 
d="M151 357q-42 37 -42 108q0 30 7 61q20 92 80.5 147t140.5 55q42 0 78 -16t60 -46l-71 -68q-27 24 -63 24t-61 -12.5t-40 -41.5q39 12 71 12q56 0 90.5 -31t34.5 -82q0 -65 -48.5 -106t-123.5 -41q-71 0 -113 37zM315 433q16 10 16 28q0 28 -52 28q-36 0 -62 -9v-9
q0 -24 15.5 -36t40.5 -12q26 0 42 10z" />
    <glyph glyph-name="uni2077" unicode="&#x2077;" horiz-adv-x="430" 
d="M303 609h-168l24 113h314l-11 -57l-209 -337h-134z" />
    <glyph glyph-name="uni2078" unicode="&#x2078;" horiz-adv-x="453" 
d="M136.5 351.5q-44.5 31.5 -44.5 77.5q0 61 85 104q-32 29 -32 74q0 35 22.5 62.5t59.5 43t78 15.5q68 0 109.5 -27t41.5 -74q0 -56 -64 -94q43 -35 43 -83q0 -63 -53 -96.5t-131 -33.5q-70 0 -114.5 31.5zM342 583.5q10 9.5 10 20.5q0 14 -14 22t-37 8q-21 0 -36 -7.5
t-15 -17.5q0 -14 14.5 -22.5t50.5 -18.5q17 6 27 15.5zM311 426q16 8 16 22t-17 24.5t-55 21.5q-24 -10 -37 -20.5t-13 -25.5t16 -22.5t45 -7.5t45 8z" />
    <glyph glyph-name="uni2079" unicode="&#x2079;" horiz-adv-x="442" 
d="M157.5 336q-44.5 17 -69.5 48l69 68q15 -13 34.5 -19.5t36.5 -6.5q34 0 56.5 13t35.5 40q-39 -12 -71 -12q-57 0 -91 34.5t-34 83.5q0 64 46 103.5t119 39.5q70 0 114 -44t44 -119q0 -30 -4 -54q-17 -91 -71.5 -141.5t-128.5 -50.5q-41 0 -85.5 17zM340 568v5
q-1 25 -16.5 38.5t-39.5 13.5q-25 0 -40 -9.5t-15 -26.5q0 -30 53 -30q34 0 58 9z" />
    <glyph glyph-name="fraction" unicode="&#x2044;" horiz-adv-x="205" 
d="M307 657h179l-561 -657h-179z" />
    <glyph glyph-name="onehalf" unicode="&#xbd;" horiz-adv-x="1054" 
d="M677 657h179l-561 -657h-179zM216 538l-98 -20l20 101l129 37h95l-83 -394h-123zM787 192q16 12 25 18q29 22 39 31.5t10 21.5q0 9 -7 15t-21 6q-46 0 -99 -42l-62 91q86 69 183 69q65 0 101.5 -32t36.5 -85q0 -69 -91 -131l-63 -43h114l-23 -111h-310l14 75z" />
    <glyph glyph-name="onequarter" unicode="&#xbc;" horiz-adv-x="977" 
d="M686 657h179l-561 -657h-179zM216 538l-98 -20l20 101l129 37h95l-83 -394h-123zM723 80h-197l14 83l249 231h109l-46 -214h50l-22 -100h-49l-17 -80h-108zM744 180l18 86l-93 -86h75z" />
    <glyph glyph-name="threequarters" unicode="&#xbe;" horiz-adv-x="1026" 
d="M733 657h179l-561 -657h-179zM146 272q-43 18 -67 48l73 71q35 -32 84 -32q31 0 44.5 8t13.5 25q0 11 -10.5 17.5t-29.5 6.5h-77l13 72l98 61h-147l21 106h293l-14 -76l-121 -84q43 -8 69 -35.5t26 -67.5q0 -68 -49 -103t-129 -35q-48 0 -91 18zM772 80h-197l14 83
l249 231h109l-46 -214h50l-22 -100h-49l-17 -80h-108zM793 180l18 86l-93 -86h75z" />
    <glyph glyph-name="period" unicode="." horiz-adv-x="253" 
d="M17.5 13q-24.5 24 -24.5 62q0 47 31 78t75 31q40 0 64.5 -24t24.5 -62q0 -47 -30.5 -78t-76.5 -31q-39 0 -63.5 24z" />
    <glyph glyph-name="comma" unicode="," horiz-adv-x="253" 
d="M-6 25q33 75 51 134h155q-19 -69 -56 -144t-82 -136h-141q40 71 73 146z" />
    <glyph glyph-name="colon" unicode=":" horiz-adv-x="253" 
d="M92.5 364q-24.5 24 -24.5 62q0 47 31 78t75 31q40 0 64.5 -24t24.5 -62q0 -47 -30.5 -78t-76.5 -31q-39 0 -63.5 24zM18.5 13q-24.5 24 -24.5 62q0 47 31 78t75 31q40 0 64.5 -24t24.5 -62q0 -47 -30.5 -78t-76.5 -31q-39 0 -63.5 24z" />
    <glyph glyph-name="semicolon" unicode=";" horiz-adv-x="253" 
d="M91.5 364q-24.5 24 -24.5 62q0 47 31 78t75 31q40 0 64.5 -24t24.5 -62q0 -47 -30.5 -78t-76.5 -31q-39 0 -63.5 24zM-12 25q33 75 51 134h155q-19 -69 -56 -144t-82 -136h-141q40 71 73 146z" />
    <glyph glyph-name="ellipsis" unicode="&#x2026;" horiz-adv-x="769" 
d="M17.5 13q-24.5 24 -24.5 62q0 47 31 78t75 31q40 0 64.5 -24t24.5 -62q0 -47 -30.5 -78t-76.5 -31q-39 0 -63.5 24zM275.5 13q-24.5 24 -24.5 62q0 47 31 78t75 31q40 0 64.5 -24t24.5 -62q0 -47 -30.5 -78t-76.5 -31q-39 0 -63.5 24zM533.5 13q-24.5 24 -24.5 62
q0 47 31 78t75 31q40 0 64.5 -24t24.5 -62q0 -47 -30.5 -78t-76.5 -31q-39 0 -63.5 24z" />
    <glyph glyph-name="exclam" unicode="!" horiz-adv-x="313" 
d="M148 676h185l-109 -434h-153zM49.5 13q-24.5 24 -24.5 62q0 47 31 78t75 31q40 0 64.5 -24t24.5 -62q0 -47 -30.5 -78t-76.5 -31q-39 0 -63.5 24z" />
    <glyph glyph-name="exclamdown" unicode="&#xa1;" horiz-adv-x="313" 
d="M124.5 368q-24.5 24 -24.5 62q0 48 31 78.5t76 30.5q39 0 63.5 -24t24.5 -62q0 -47 -31 -78t-75 -31q-40 0 -64.5 24zM98 286h149l-78 -434h-179z" />
    <glyph glyph-name="question" unicode="?" horiz-adv-x="532" 
d="M199 344.5q27 31.5 74 64.5l31 21q33 21 48 34.5t15 29.5q0 33 -43 33q-37 0 -79.5 -17.5t-80.5 -49.5l-85 126q57 49 130.5 75.5t146.5 26.5q59 0 104 -20t69.5 -56t24.5 -81q0 -39 -15.5 -68.5t-40 -52.5t-65.5 -53q-51 -38 -73 -58.5t-27 -46.5l-2 -10h-171l4 24
q8 47 35 78.5zM151.5 13q-24.5 24 -24.5 62q0 47 31 78t75 31q40 0 64.5 -24t24.5 -62q0 -47 -30.5 -78t-76.5 -31q-39 0 -63.5 24z" />
    <glyph glyph-name="questiondown" unicode="&#xbf;" horiz-adv-x="531" 
d="M252.5 368q-24.5 24 -24.5 62q0 48 31 78.5t76 30.5q39 0 63.5 -24t24.5 -62q0 -47 -31 -78t-75 -31q-40 0 -64.5 24zM90 -140q-45 20 -69.5 56t-24.5 81q0 39 15.5 68.5t40 52.5t65.5 53q51 38 73 58.5t27 46.5l2 10h171l-4 -24q-8 -47 -35 -78.5t-74 -64.5l-31 -21
q-33 -21 -48 -34.5t-15 -29.5q0 -33 43 -33q37 0 79.5 17.5t80.5 49.5l85 -126q-57 -49 -130.5 -75.5t-146.5 -26.5q-59 0 -104 20z" />
    <glyph glyph-name="periodcentered" unicode="&#xb7;" horiz-adv-x="248" 
d="M77.5 296q-24.5 24 -24.5 62q0 47 31 78t75 31q40 0 64.5 -24t24.5 -62q0 -47 -30.5 -78t-76.5 -31q-39 0 -63.5 24z" />
    <glyph glyph-name="bullet" unicode="&#x2022;" horiz-adv-x="445" 
d="M160 211q-35 20 -55.5 55t-20.5 77q0 43 20.5 78t55.5 55t76 20q42 0 77 -20t55.5 -55t20.5 -78q0 -42 -20.5 -77t-55.5 -55t-77 -20q-41 0 -76 20z" />
    <glyph glyph-name="asterisk" unicode="*" horiz-adv-x="522" 
d="M236 404l-92 -69l-57 108l118 53l-95 57l93 105l68 -67l13 104h134l-35 -105l90 68l57 -109l-120 -53l97 -57l-93 -104l-67 66l-14 -103h-134z" />
    <glyph glyph-name="numbersign" unicode="#" horiz-adv-x="622" 
d="M77 139h-83l41 131h83l38 120h-83l41 131h83l33 108h148l-33 -107h82l33 107h148l-33 -106h82l-40 -131h-83l-38 -120h83l-42 -131h-82l-35 -114h-148l35 113h-82l-35 -113h-148zM348 271l38 120h-82l-38 -120h82z" />
    <glyph glyph-name="slash" unicode="/" horiz-adv-x="515" 
d="M413 735h190l-489 -890h-189z" />
    <glyph glyph-name="backslash" unicode="\" horiz-adv-x="509" 
d="M115 735h181l111 -890h-183z" />
    <glyph glyph-name="exclamdown.case" horiz-adv-x="313" 
d="M144.5 516q-24.5 24 -24.5 62q0 48 31 78.5t76 30.5q39 0 63.5 -24t24.5 -62q0 -47 -31 -78t-75 -31q-40 0 -64.5 24zM118 434h149l-78 -434h-179z" />
    <glyph glyph-name="questiondown.case" horiz-adv-x="532" 
d="M270.5 516q-24.5 24 -24.5 62q0 48 31 78.5t76 30.5q39 0 63.5 -24t24.5 -62q0 -47 -31 -78t-75 -31q-40 0 -64.5 24zM108 8q-45 20 -69.5 56t-24.5 81q0 39 15.5 68.5t40 52.5t65.5 53q51 38 73 58.5t27 46.5l2 10h171l-4 -24q-8 -47 -35 -78.5t-74 -64.5l-31 -21
q-33 -21 -48 -34.5t-15 -29.5q0 -33 43 -33q37 0 79.5 17.5t80.5 49.5l85 -126q-57 -49 -130.5 -75.5t-146.5 -26.5q-59 0 -104 20z" />
    <glyph glyph-name="slash.case" horiz-adv-x="514" 
d="M422 779h190l-489 -890h-189z" />
    <glyph glyph-name="backslash.case" horiz-adv-x="516" 
d="M125 779h181l111 -890h-183z" />
    <glyph glyph-name="parenleft" unicode="(" horiz-adv-x="401" 
d="M67.5 -21.5q-19.5 76.5 -19.5 160.5q0 163 69.5 323t189.5 273h179q-121 -128 -195.5 -282.5t-74.5 -306.5q0 -160 73 -303h-163q-39 59 -58.5 135.5z" />
    <glyph glyph-name="parenright" unicode=")" horiz-adv-x="401" 
d="M118.5 125.5q74.5 154.5 74.5 306.5q0 160 -73 303h163q39 -59 58.5 -135.5t19.5 -160.5q0 -163 -69.5 -323t-189.5 -273h-179q121 128 195.5 282.5z" />
    <glyph glyph-name="braceleft" unicode="{" horiz-adv-x="507" 
d="M111 -113q-50 44 -50 123q0 34 9 71l7 30q5 19 5 42q0 28 -13 47.5t-42 32.5l25 118q46 14 69 44.5t34 85.5l6 30q22 112 90 168t179 56h146l-60 -171h-71q-44 0 -77 -28t-43 -73l-9 -43q-11 -52 -32.5 -81.5t-69.5 -57.5q24 -18 36 -40t12 -53q0 -24 -5 -44l-9 -43
q-4 -22 -4 -30q0 -29 18 -42.5t54 -13.5h72l6 -172h-142q-91 0 -141 44z" />
    <glyph glyph-name="braceright" unicode="}" horiz-adv-x="507" 
d="M73 14q44 0 77 28t43 73l9 43q11 52 32.5 81.5t69.5 57.5q-24 18 -36 40t-12 53q0 24 5 44l9 43q4 22 4 30q0 29 -18 42.5t-54 13.5h-72l-6 172h142q91 0 141 -44t50 -123q0 -33 -9 -71l-7 -30q-5 -19 -5 -42q0 -28 13 -47.5t42 -32.5l-25 -118q-46 -14 -69 -44.5
t-34 -85.5l-6 -30q-22 -112 -90 -168t-179 -56h-146l60 171h71z" />
    <glyph glyph-name="bracketleft" unicode="[" horiz-adv-x="496" 
d="M191 735h380l-59 -173h-179l-116 -545h171l6 -174h-392z" />
    <glyph glyph-name="bracketright" unicode="]" horiz-adv-x="496" 
d="M-6 16h179l116 545h-171l-6 174h392l-189 -892h-380z" />
    <glyph glyph-name="parenleft.case" horiz-adv-x="399" 
d="M76.5 22.5q-19.5 76.5 -19.5 160.5q0 163 69.5 323t189.5 273h179q-121 -128 -195.5 -282.5t-74.5 -306.5q0 -160 73 -303h-163q-39 59 -58.5 135.5z" />
    <glyph glyph-name="parenright.case" horiz-adv-x="401" 
d="M127.5 169.5q74.5 154.5 74.5 306.5q0 160 -73 303h163q39 -59 58.5 -135.5t19.5 -160.5q0 -163 -69.5 -323t-189.5 -273h-179q121 128 195.5 282.5z" />
    <glyph glyph-name="braceleft.case" horiz-adv-x="507" 
d="M120 -69q-50 44 -50 123q0 34 9 71l7 30q5 19 5 42q0 28 -13 47.5t-42 32.5l25 118q46 14 69 44.5t34 85.5l6 30q22 112 90 168t179 56h146l-60 -171h-71q-44 0 -77 -28t-43 -73l-9 -43q-11 -52 -32.5 -81.5t-69.5 -57.5q24 -18 36 -40t12 -53q0 -24 -5 -44l-9 -43
q-4 -22 -4 -30q0 -29 18 -42.5t54 -13.5h72l6 -172h-142q-91 0 -141 44z" />
    <glyph glyph-name="braceright.case" horiz-adv-x="507" 
d="M83 58q44 0 77 28t43 73l9 43q11 52 32.5 81.5t69.5 57.5q-24 18 -36 40t-12 53q0 24 5 44l9 43q4 22 4 30q0 29 -18 42.5t-54 13.5h-72l-6 172h142q91 0 141 -44t50 -123q0 -33 -9 -71l-7 -30q-5 -19 -5 -42q0 -28 13 -47.5t42 -32.5l-25 -118q-46 -14 -69 -44.5
t-34 -85.5l-6 -30q-22 -112 -90 -168t-179 -56h-146l60 171h71z" />
    <glyph glyph-name="bracketleft.case" horiz-adv-x="496" 
d="M200 779h380l-59 -173h-179l-116 -545h171l6 -174h-392z" />
    <glyph glyph-name="bracketright.case" horiz-adv-x="496" 
d="M3 60h179l116 545h-171l-6 174h392l-189 -892h-380z" />
    <glyph glyph-name="hyphen" unicode="-" horiz-adv-x="459" 
d="M81 391h351l-34 -158h-351z" />
    <glyph glyph-name="uni00AD" unicode="&#xad;" horiz-adv-x="459" 
d="M81 391h351l-34 -158h-351z" />
    <glyph glyph-name="endash" unicode="&#x2013;" horiz-adv-x="480" 
d="M27 389h480l-33 -154h-480z" />
    <glyph glyph-name="emdash" unicode="&#x2014;" horiz-adv-x="960" 
d="M27 389h960l-33 -154h-960z" />
    <glyph glyph-name="underscore" unicode="_" horiz-adv-x="480" 
d="M-70 -67h480l-31 -145h-480z" />
    <glyph glyph-name="hyphen.case" horiz-adv-x="459" 
d="M88 425h351l-34 -158h-351z" />
    <glyph glyph-name="endash.case" horiz-adv-x="480" 
d="M34 423h480l-33 -154h-480z" />
    <glyph glyph-name="emdash.case" horiz-adv-x="960" 
d="M34 423h960l-33 -154h-960z" />
    <glyph glyph-name="quotesinglbase" unicode="&#x201a;" horiz-adv-x="281" 
d="M12 25q33 75 51 134h155q-19 -69 -56 -144t-82 -136h-141q40 71 73 146z" />
    <glyph glyph-name="quotedblbase" unicode="&#x201e;" horiz-adv-x="511" 
d="M12 25q33 75 51 134h155q-19 -69 -56 -144t-82 -136h-141q40 71 73 146zM242 25q33 75 51 134h155q-19 -69 -56 -144t-82 -136h-141q40 71 73 146z" />
    <glyph glyph-name="quotedblleft" unicode="&#x201c;" horiz-adv-x="509" 
d="M127.5 543.5q36.5 73.5 79.5 132.5h139q-40 -71 -72 -144.5t-49 -132.5h-155q21 71 57.5 144.5zM357.5 543.5q36.5 73.5 79.5 132.5h139q-40 -71 -72 -144.5t-49 -132.5h-155q21 71 57.5 144.5z" />
    <glyph glyph-name="quotedblright" unicode="&#x201d;" horiz-adv-x="509" 
d="M122 543.5q32 73.5 49 132.5h155q-21 -71 -57.5 -144.5t-79.5 -132.5h-139q40 71 72 144.5zM352 543.5q32 73.5 49 132.5h155q-21 -71 -57.5 -144.5t-79.5 -132.5h-139q40 71 72 144.5z" />
    <glyph glyph-name="quoteleft" unicode="&#x2018;" horiz-adv-x="279" 
d="M127.5 543.5q36.5 73.5 79.5 132.5h139q-40 -71 -72 -144.5t-49 -132.5h-155q21 71 57.5 144.5z" />
    <glyph glyph-name="quoteright" unicode="&#x2019;" horiz-adv-x="279" 
d="M122 543.5q32 73.5 49 132.5h155q-21 -71 -57.5 -144.5t-79.5 -132.5h-139q40 71 72 144.5z" />
    <glyph glyph-name="guillemotleft" unicode="&#xab;" horiz-adv-x="626" 
d="M55 277l173 206h175l-177 -210l84 -207h-162zM309 277l173 206h175l-177 -210l84 -207h-162z" />
    <glyph glyph-name="guillemotright" unicode="&#xbb;" horiz-adv-x="618" 
d="M164 276l-84 207h162l93 -211l-173 -206h-175zM410 276l-84 207h162l93 -211l-173 -206h-175z" />
    <glyph glyph-name="guilsinglleft" unicode="&#x2039;" horiz-adv-x="372" 
d="M55 277l173 206h175l-177 -210l84 -207h-162z" />
    <glyph glyph-name="guilsinglright" unicode="&#x203a;" horiz-adv-x="372" 
d="M164 276l-84 207h162l93 -211l-173 -206h-175z" />
    <glyph glyph-name="quotedbl" unicode="&#x22;" horiz-adv-x="519" 
d="M148 676h168l-77 -292h-146zM383 676h168l-77 -292h-146z" />
    <glyph glyph-name="quotesingle" unicode="'" horiz-adv-x="284" 
d="M148 676h168l-77 -292h-146z" />
    <glyph glyph-name="guillemotleft.case" horiz-adv-x="626" 
d="M68 341l173 206h175l-177 -210l84 -207h-162zM322 341l173 206h175l-177 -210l84 -207h-162z" />
    <glyph glyph-name="guillemotright.case" horiz-adv-x="619" 
d="M178 340l-84 207h162l93 -211l-173 -206h-175zM424 340l-84 207h162l93 -211l-173 -206h-175z" />
    <glyph glyph-name="guilsinglleft.case" horiz-adv-x="373" 
d="M56 341l173 206h175l-177 -210l84 -207h-162z" />
    <glyph glyph-name="guilsinglright.case" horiz-adv-x="373" 
d="M178 340l-84 207h162l93 -211l-173 -206h-175z" />
    <glyph glyph-name="period.dnom" horiz-adv-x="207" 
d="M0.5 12.5q-20.5 20.5 -20.5 52.5q0 38 24.5 62.5t59.5 24.5q34 0 54.5 -20t20.5 -53q0 -38 -24.5 -62.5t-60.5 -24.5q-33 0 -53.5 20.5z" />
    <glyph glyph-name="comma.dnom" horiz-adv-x="207" 
d="M14 141h134q-14 -47 -39.5 -99.5t-57.5 -96.5h-122q62 117 85 196z" />
    <glyph glyph-name="period.numr" horiz-adv-x="208" 
d="M59.5 274.5q-20.5 20.5 -20.5 52.5q0 38 24.5 62.5t59.5 24.5q34 0 54.5 -20t20.5 -53q0 -38 -24.5 -62.5t-60.5 -24.5q-33 0 -53.5 20.5z" />
    <glyph glyph-name="comma.numr" horiz-adv-x="207" 
d="M80 403h134q-14 -47 -39.5 -99.5t-57.5 -96.5h-122q62 117 85 196z" />
    <glyph glyph-name="period.subs" horiz-adv-x="207" 
d="M-13.5 -65.5q-20.5 20.5 -20.5 52.5q0 38 24.5 62.5t59.5 24.5q34 0 54.5 -20t20.5 -53q0 -38 -24.5 -62.5t-60.5 -24.5q-33 0 -53.5 20.5z" />
    <glyph glyph-name="comma.subs" horiz-adv-x="208" 
d="M6 53h134q-14 -47 -39.5 -99.5t-57.5 -96.5h-122q62 117 85 196z" />
    <glyph glyph-name="uni00A0" unicode="&#xa0;" horiz-adv-x="250" 
 />
    <glyph glyph-name="cent" unicode="&#xa2;" 
d="M109.5 160.5q-33.5 49.5 -33.5 120.5q0 75 29.5 139t82 108t120.5 61l26 125l168 24l-33 -153q34 -13 60.5 -33t41.5 -45l-103 -89q-13 18 -34.5 27.5t-47.5 9.5q-42 0 -74.5 -22.5t-50 -58.5t-17.5 -76q0 -35 20.5 -57.5t55.5 -22.5q33 0 58 10.5t53 32.5l80 -107
q-61 -55 -149 -74l-27 -129l-165 -24l34 162q-61 22 -94.5 71.5z" />
    <glyph glyph-name="currency" unicode="&#xa4;" 
d="M82 239q-5 23 -5 45q0 78 41 143l-56 71l125 108l58 -73q46 18 98 18q60 0 103 -23l91 78l87 -108l-93 -81q4 -26 4 -43q0 -76 -40 -142l57 -72l-124 -108l-60 74q-49 -19 -100 -19q-56 0 -100 22l-90 -77l-88 108zM340 253.5q26 17.5 39.5 45t13.5 57.5q0 29 -16.5 47.5
t-45.5 18.5q-33 0 -58.5 -17.5t-39.5 -45t-14 -57.5t17 -48t45 -18q33 0 59 17.5z" />
    <glyph glyph-name="dollar" unicode="$" 
d="M-19 104l101 118q37 -34 91.5 -53.5t109.5 -19.5q77 0 77 44q0 26 -25 39t-88 33q-92 29 -134.5 73.5t-42.5 119.5q0 80 56.5 135t152.5 72l25 119l168 24l-33 -150q45 -14 86 -41t70 -64l-112 -96q-27 32 -70.5 48t-81.5 16q-41 0 -63 -13.5t-22 -37.5q0 -23 20.5 -36.5
t67.5 -27.5q110 -32 159 -76t49 -119q0 -94 -62 -148.5t-163 -66.5l-27 -127l-164 -24l34 160q-105 25 -179 99z" />
    <glyph glyph-name="Euro" unicode="&#x20ac;" 
d="M155 47.5q-62 59.5 -73 159.5h-84l47 97h37q4 32 7 47h-60l47 97h45q46 99 127.5 159.5t181.5 60.5q69 0 122 -28.5t83 -70.5l-115 -96q-16 19 -38 28t-53 9q-76 0 -128 -62h161l-47 -97h-164q-6 -22 -9 -47h155l-47 -97h-101q11 -29 34.5 -45t57.5 -16q33 0 62 12.5
t58 37.5l86 -118q-51 -44 -106.5 -67t-124.5 -23q-99 0 -161 59.5z" />
    <glyph glyph-name="florin" unicode="&#x192;" 
d="M43 147q110 0 150 106l3 9h-105l31 147h130l12 31q43 114 117 165.5t190 51.5h76l-31 -147h-46q-51 0 -89 -25t-58 -76h117l-32 -147h-138l-17 -46q-41 -113 -115.5 -164.5t-192.5 -51.5h-79l31 147h46z" />
    <glyph glyph-name="sterling" unicode="&#xa3;" 
d="M92 252h-63l31 147h92l13 32q48 119 123.5 172.5t185.5 53.5h146l-33 -155h-124q-54 0 -90.5 -25t-57.5 -78h186l-31 -147h-212l-34 -97h301l-33 -155h-478l23 115z" />
    <glyph glyph-name="yen" unicode="&#xa5;" 
d="M174 95h-141l21 101h142l12 57h-142l22 102h90l-86 302h195l39 -247l138 247h202l-210 -302h82l-22 -102h-140l-12 -57h140l-21 -101h-141l-20 -95h-168z" />
    <glyph glyph-name="plus" unicode="+" 
d="M214 253h-155l33 155h155l34 159h153l-34 -159h156l-33 -155h-156l-34 -160h-153z" />
    <glyph glyph-name="minus" unicode="&#x2212;" 
d="M104 411h441l-34 -161h-441z" />
    <glyph glyph-name="multiply" unicode="&#xd7;" 
d="M62 215l140 119l-89 114l124 106l89 -115l138 117l88 -110l-140 -118l89 -115l-123 -106l-90 115l-138 -117z" />
    <glyph glyph-name="divide" unicode="&#xf7;" 
d="M293 469.5q-22 21.5 -22 56.5q0 42 28 70t67 28q36 0 58 -21.5t22 -56.5q0 -42 -27.5 -70t-68.5 -28q-35 0 -57 21.5zM110 411h441l-34 -161h-441zM205 57.5q-22 21.5 -22 56.5q0 42 28 70t67 28q36 0 58 -21.5t22 -56.5q0 -42 -27.5 -70t-68.5 -28q-35 0 -57 21.5z" />
    <glyph glyph-name="equal" unicode="=" 
d="M129 534h441l-34 -161h-441zM76 284h441l-34 -161h-441z" />
    <glyph glyph-name="notequal" unicode="&#x2260;" 
d="M44 50l47 73h-49l34 161h117l57 89h-155l34 161h224l82 129l130 -58l-45 -71h50l-34 -161h-119l-57 -89h157l-34 -161h-226l-84 -132z" />
    <glyph glyph-name="greater" unicode="&#x3e;" 
d="M67 203l265 138l-210 129l106 134l301 -200l-30 -145l-380 -200z" />
    <glyph glyph-name="less" unicode="&#x3c;" 
d="M86 258l30 145l380 200l52 -144l-265 -138l210 -129l-106 -134z" />
    <glyph glyph-name="greaterequal" unicode="&#x2265;" 
d="M91 334l267 105l-222 88l68 134l336 -161l-29 -145l-392 -161zM48 157h420l-33 -157h-420z" />
    <glyph glyph-name="lessequal" unicode="&#x2264;" 
d="M116 355l29 145l392 161l28 -140l-267 -105l222 -88l-68 -134zM73 157h420l-33 -157h-421z" />
    <glyph glyph-name="plusminus" unicode="&#xb1;" 
d="M537 292h-156l-28 -133h144l-34 -161h-441l34 161h144l28 133h-155l33 155h155l34 159h153l-34 -159h156z" />
    <glyph glyph-name="approxequal" unicode="&#x2248;" 
d="M389.5 354.5q-19.5 7.5 -53.5 24.5q-31 16 -48.5 23t-36.5 7q-44 0 -54 -61h-137q11 106 57.5 158.5t117.5 52.5q23 0 42.5 -7.5t53.5 -24.5q31 -16 48.5 -23t36.5 -7q44 0 54 61h137q-11 -106 -57.5 -158.5t-117.5 -52.5q-23 0 -42.5 7.5zM336.5 104.5
q-19.5 7.5 -53.5 24.5q-31 16 -48.5 23t-36.5 7q-44 0 -54 -61h-137q11 106 57.5 158.5t117.5 52.5q23 0 42.5 -7.5t53.5 -24.5q31 -16 48.5 -23t36.5 -7q44 0 54 61h137q-11 -106 -57.5 -158.5t-117.5 -52.5q-23 0 -42.5 7.5z" />
    <glyph glyph-name="asciitilde" unicode="~" 
d="M362.5 228.5q-19.5 7.5 -53.5 24.5q-31 16 -48.5 23t-36.5 7q-44 0 -54 -61h-137q11 106 57.5 158.5t117.5 52.5q23 0 42.5 -7.5t53.5 -24.5q31 -16 48.5 -23t36.5 -7q44 0 54 61h137q-11 -106 -57.5 -158.5t-117.5 -52.5q-23 0 -42.5 7.5z" />
    <glyph glyph-name="logicalnot" unicode="&#xac;" 
d="M362 298h-281l33 155h437l-67 -315h-156z" />
    <glyph glyph-name="asciicircum" unicode="^" 
d="M298 676h164l97 -338h-175l-34 170l-111 -170h-183z" />
    <glyph glyph-name="uni00B5" unicode="&#xb5;" horiz-adv-x="639" 
d="M291 527l-61 -285q-5 -28 -5 -43q0 -30 13 -43.5t39 -13.5q29 0 59 17t55 46l68 322h173l-112 -527h-127l-7 60q-81 -72 -178 -72q-10 0 -19 2t-12 2l-40 -191l-178 -22l159 748h173z" />
    <glyph glyph-name="percent" unicode="%" horiz-adv-x="1078" 
d="M139 295.5q-41 41.5 -41 112.5q0 67 25 125t71.5 93.5t109.5 35.5q68 0 109.5 -42.5t41.5 -113.5q0 -67 -24.5 -125t-71.5 -92.5t-110 -34.5q-69 0 -110 41.5zM745 657h179l-561 -657h-179zM313 416.5q20 44.5 20 91.5q0 17 -9.5 27t-25.5 10q-25 0 -42.5 -22
t-26.5 -53.5t-9 -59.5q0 -17 10 -27.5t27 -10.5q36 0 56 44.5zM690 33.5q-41 41.5 -41 112.5q0 67 25 125t71.5 93.5t109.5 35.5q68 0 109.5 -42.5t41.5 -113.5q0 -67 -24.5 -125t-71.5 -92.5t-110 -34.5q-69 0 -110 41.5zM864 154.5q20 44.5 20 91.5q0 17 -9.5 27t-25.5 10
q-25 0 -42.5 -22t-26.5 -53.5t-9 -59.5q0 -17 10 -27.5t27 -10.5q36 0 56 44.5z" />
    <glyph glyph-name="perthousand" unicode="&#x2030;" horiz-adv-x="1475" 
d="M139 295.5q-41 41.5 -41 112.5q0 67 25 125t71.5 93.5t109.5 35.5q68 0 109.5 -42.5t41.5 -113.5q0 -67 -24.5 -125t-71.5 -92.5t-110 -34.5q-69 0 -110 41.5zM745 657h179l-561 -657h-179zM313 416.5q20 44.5 20 91.5q0 17 -9.5 27t-25.5 10q-25 0 -42.5 -22
t-26.5 -53.5t-9 -59.5q0 -17 10 -27.5t27 -10.5q36 0 56 44.5zM690 33.5q-41 41.5 -41 112.5q0 67 25 125t71.5 93.5t109.5 35.5q68 0 109.5 -42.5t41.5 -113.5q0 -67 -24.5 -125t-71.5 -92.5t-110 -34.5q-69 0 -110 41.5zM1087 33.5q-41 41.5 -41 112.5q0 67 25 125
t71.5 93.5t109.5 35.5q68 0 109.5 -42.5t41.5 -113.5q0 -67 -24.5 -125t-71.5 -92.5t-110 -34.5q-69 0 -110 41.5zM864 154.5q20 44.5 20 91.5q0 17 -9.5 27t-25.5 10q-25 0 -42.5 -22t-26.5 -53.5t-9 -59.5q0 -17 10 -27.5t27 -10.5q36 0 56 44.5zM1261 154.5
q20 44.5 20 91.5q0 17 -9.5 27t-25.5 10q-25 0 -42.5 -22t-26.5 -53.5t-9 -59.5q0 -17 10 -27.5t27 -10.5q36 0 56 44.5z" />
    <glyph glyph-name="at" unicode="@" horiz-adv-x="994" 
d="M221 -128q-82 51 -126.5 138t-44.5 192q0 145 74.5 260.5t198.5 180.5t267 65q109 0 195.5 -42.5t135 -115t48.5 -160.5q0 -97 -49 -174t-131 -120t-178 -43h-53l-14 49q-58 -47 -117 -47q-67 0 -105 41.5t-38 113.5q0 69 29.5 128.5t80.5 94.5t113 35q31 0 61 -12.5
t52 -32.5l20 36h107l-66 -296q83 18 132 79.5t49 151.5q0 56 -34.5 103.5t-96 75.5t-140.5 28q-116 0 -215 -50t-158 -139.5t-59 -203.5q0 -78 31.5 -142.5t89 -102t132.5 -37.5q64 0 113.5 17.5t103.5 49.5l56 -86q-58 -42 -129.5 -64t-146.5 -22q-106 0 -188 51zM554 218
l23 106q-22 17 -51 17q-42 0 -68.5 -30.5t-26.5 -74.5q0 -23 15 -38t33 -15q42 0 75 35z" />
    <glyph glyph-name="ampersand" unicode="&#x26;" horiz-adv-x="687" 
d="M135.5 12q-49.5 24 -76 66t-26.5 96q0 148 159 231q-16 40 -16 72q0 59 32 107.5t86.5 76t119.5 27.5q64 0 115.5 -30t85.5 -78l-113 -98q-35 47 -90 47q-33 0 -55 -19t-22 -50q0 -19 11 -39.5t37 -58.5l19 -28l65 -98q30 48 38 98l6 34h140l-10 -53q-22 -114 -97 -196
l79 -119h-180l-19 29q-80 -41 -174 -41q-65 0 -114.5 24zM350 144l-96 149q-66 -35 -66 -95q0 -31 24 -48.5t67 -17.5q37 0 71 12z" />
    <glyph glyph-name="paragraph" unicode="&#xb6;" horiz-adv-x="645" 
d="M232 -40q44 0 76.5 30t43.5 79l124 586l178 23l-136 -642q-25 -116 -98 -177.5t-187 -61.5h-50l35 163h14zM137.5 229.5q-63.5 48.5 -63.5 133.5q0 27 6 55q19 92 83.5 150.5t170.5 70.5l76 9l-93 -467q-116 0 -179.5 48.5z" />
    <glyph glyph-name="section" unicode="&#xa7;" horiz-adv-x="535" 
d="M112 -45q79 0 79 54q0 12 -7.5 24.5t-26.5 32.5l-57 50q-61 54 -61 127q0 69 41.5 117.5t109.5 71.5q-10 28 -10 52q0 95 71.5 143.5t199.5 48.5h79l-32 -147h-82q-79 0 -79 -55q0 -13 7.5 -26t26.5 -32l55 -51q60 -57 60 -129q0 -66 -41 -113.5t-108 -70.5
q11 -27 11 -54q0 -93 -72.5 -141.5t-199.5 -48.5h-86l32 147h90zM320.5 175q24.5 21 24.5 50q0 15 -5 24.5t-20 25.5l-57 55q-34 -1 -58 -21t-24 -49q0 -15 6 -26.5t19 -26.5l54 -53q36 0 60.5 21z" />
    <glyph glyph-name="copyright" unicode="&#xa9;" horiz-adv-x="784" 
d="M228 32q-81 44 -128 123.5t-47 182.5q0 100 47.5 180t128.5 125t177 45q97 0 178 -44.5t129 -124.5t48 -181q0 -102 -48 -181.5t-129.5 -124t-177.5 -44.5q-97 0 -178 44zM555.5 85.5q66.5 36.5 104.5 102.5t38 150q0 85 -38 150.5t-104.5 102t-149.5 36.5t-149 -37
t-103.5 -102.5t-37.5 -149.5q0 -86 37 -151.5t103 -101.5t150 -36q83 0 149.5 36.5zM270.5 194.5q-53.5 51.5 -53.5 143.5q0 54 25.5 98.5t70.5 70t102 25.5q43 0 82.5 -18t63.5 -48l-73 -77q-29 31 -66 31q-34 0 -54.5 -23t-20.5 -59q0 -37 20.5 -60t54.5 -23q36 0 72 34
l71 -80q-28 -31 -67 -48.5t-83 -17.5q-91 0 -144.5 51.5z" />
    <glyph glyph-name="registered" unicode="&#xae;" horiz-adv-x="581" 
d="M206.5 260.5q-58.5 31.5 -92.5 89t-34 131.5q0 72 34.5 130t93 90.5t128.5 32.5t129 -32t93.5 -90t34.5 -131t-34.5 -130.5t-93.5 -89.5t-129 -32q-71 0 -129.5 31.5zM440.5 308q45.5 25 71 70t25.5 103t-25.5 103.5t-71 70.5t-104.5 25t-104.5 -25t-70.5 -70.5
t-25 -103.5t25 -103t70.5 -70t104.5 -25t104.5 25zM346 606q46 0 73 -22.5t27 -59.5q0 -19 -10 -34.5t-28 -24.5q10 -9 20 -27l36 -71h-83l-18 34q-10 18 -16.5 24t-20.5 6h-19v-64h-74v239h113zM367 519q0 23 -30 23h-30v-46h30q30 0 30 23z" />
    <glyph glyph-name="trademark" unicode="&#x2122;" horiz-adv-x="937" 
d="M200 561h-110l24 115h335l-24 -115h-108l-58 -270h-117zM515 676h117l63 -189l147 189h121l-82 -385h-118l43 193l-84 -121h-96l-36 121l-43 -193h-114z" />
    <glyph glyph-name="degree" unicode="&#xb0;" horiz-adv-x="414" 
d="M183 395q-37 22 -59 59t-22 81t22 81t59 59t81 22t81 -22t58.5 -59t21.5 -81t-21.5 -81t-58.5 -59t-81 -22t-81 22zM303 495.5q16 16.5 16 39.5t-16 39.5t-39 16.5q-24 0 -39.5 -16t-15.5 -40t15.5 -40t39.5 -16q23 0 39 16.5z" />
    <glyph glyph-name="bar" unicode="|" horiz-adv-x="365" 
d="M191 735h183l-190 -892h-182z" />
    <glyph glyph-name="brokenbar" unicode="&#xa6;" horiz-adv-x="365" 
d="M191 735h183l-72 -338h-182zM74 181h182l-72 -338h-182z" />
    <glyph glyph-name="dagger" unicode="&#x2020;" horiz-adv-x="409" 
d="M190 471h-110l25 116h110l19 89l121 21l-23 -110h108l-24 -116h-109l-43 -200h-116z" />
    <glyph glyph-name="daggerdbl" unicode="&#x2021;" horiz-adv-x="423" 
d="M172 353h-109l22 103h109l10 45h-109l21 103h110l15 72l120 21l-20 -93h111l-22 -103h-110l-10 -45h110l-22 -103h-110l-17 -82h-116z" />
    <glyph glyph-name="at.case" horiz-adv-x="992" 
d="M234 -58q-82 51 -126.5 138t-44.5 192q0 145 74.5 260.5t198.5 180.5t267 65q109 0 195.5 -42.5t135 -115t48.5 -160.5q0 -97 -49 -174t-131 -120t-178 -43h-53l-14 49q-58 -47 -117 -47q-67 0 -105 41.5t-38 113.5q0 69 29.5 128.5t80.5 94.5t113 35q31 0 61 -12.5
t52 -32.5l20 36h107l-66 -296q83 18 132 79.5t49 151.5q0 56 -34.5 103.5t-96 75.5t-140.5 28q-116 0 -215 -50t-158 -139.5t-59 -203.5q0 -78 31.5 -142.5t89 -102t132.5 -37.5q64 0 113.5 17.5t103.5 49.5l56 -86q-58 -42 -129.5 -64t-146.5 -22q-106 0 -188 51zM567 288
l23 106q-22 17 -51 17q-42 0 -68.5 -30.5t-26.5 -74.5q0 -23 15 -38t33 -15q42 0 75 35z" />
    <glyph glyph-name="uni0308" unicode="&#x308;" horiz-adv-x="0" 
d="M-382 611q-23 21 -23 55q0 38 27.5 63.5t65.5 25.5t61.5 -21t23.5 -54q0 -41 -27 -65.5t-68 -24.5q-37 0 -60 21zM-151.5 610.5q-23.5 20.5 -23.5 53.5q0 40 27.5 65.5t67.5 25.5q37 0 60 -21t23 -54q0 -41 -27 -65.5t-67 -24.5q-37 0 -60.5 20.5z" />
    <glyph glyph-name="uni0307" unicode="&#x307;" horiz-adv-x="0" 
d="M-273 608.5q-25 22.5 -25 60.5q0 43 30 71t75 28q42 0 67 -22.5t25 -60.5q0 -44 -30 -71.5t-76 -27.5q-41 0 -66 22.5z" />
    <glyph glyph-name="gravecomb" unicode="&#x300;" horiz-adv-x="0" 
d="M-331 753h166l96 -152h-151z" />
    <glyph glyph-name="acutecomb" unicode="&#x301;" horiz-adv-x="0" 
d="M-208 753h175l-175 -152h-159z" />
    <glyph glyph-name="uni0302" unicode="&#x302;" horiz-adv-x="0" 
d="M-258 753h144l99 -152h-132l-53 69l-76 -69h-146z" />
    <glyph glyph-name="uni030C" unicode="&#x30c;" horiz-adv-x="0" 
d="M-384 753h132l53 -69l76 69h146l-164 -152h-144z" />
    <glyph glyph-name="uni030A" unicode="&#x30a;" horiz-adv-x="0" 
d="M-220 609.5q-31 17.5 -49 47t-18 65.5q0 56 39 93.5t95 37.5q55 0 94 -37.5t39 -93.5q0 -36 -18 -66t-48.5 -47t-66.5 -17t-67 17.5zM-119.5 686.5q13.5 14.5 13.5 35.5q0 22 -13.5 36t-33.5 14q-21 0 -34.5 -14t-13.5 -36q0 -21 13.5 -35.5t34.5 -14.5q20 0 33.5 14.5z
" />
    <glyph glyph-name="tildecomb" unicode="&#x303;" horiz-adv-x="0" 
d="M-158.5 598q-16.5 6 -30.5 13t-19 10q-26 12 -44.5 18.5t-37.5 6.5q-25 0 -45.5 -9t-53.5 -29l25 117q24 18 45.5 26.5t44.5 8.5q20 0 39 -7t43 -20q50 -27 88 -27q26 0 46 8.5t34 18t18 12.5l-25 -119q-47 -34 -93 -34q-18 0 -34.5 6z" />
    <glyph glyph-name="uni0327" unicode="&#x327;" horiz-adv-x="0" 
d="M-442 -100q30 0 51.5 19.5t21.5 48.5q0 10 -5.5 21t-19.5 32l81 20q28 -28 42 -52.5t14 -54.5q0 -67 -51.5 -104.5t-139.5 -37.5h-44l23 108h27z" />
    <glyph glyph-name="dieresis" unicode="&#xa8;" horiz-adv-x="576" 
d="M194 611q-23 21 -23 55q0 38 27.5 63.5t65.5 25.5t61.5 -21t23.5 -54q0 -41 -27 -65.5t-68 -24.5q-37 0 -60 21zM424.5 610.5q-23.5 20.5 -23.5 53.5q0 40 27.5 65.5t67.5 25.5q37 0 60 -21t23 -54q0 -41 -27 -65.5t-67 -24.5q-37 0 -60.5 20.5z" />
    <glyph glyph-name="dotaccent" unicode="&#x2d9;" horiz-adv-x="576" 
d="M303 608.5q-25 22.5 -25 60.5q0 43 30 71t75 28q42 0 67 -22.5t25 -60.5q0 -44 -30 -71.5t-76 -27.5q-41 0 -66 22.5z" />
    <glyph glyph-name="grave" unicode="`" horiz-adv-x="576" 
d="M245 753h166l96 -152h-151z" />
    <glyph glyph-name="acute" unicode="&#xb4;" horiz-adv-x="576" 
d="M368 753h175l-175 -152h-159z" />
    <glyph glyph-name="circumflex" unicode="&#x2c6;" horiz-adv-x="576" 
d="M318 753h144l99 -152h-132l-53 69l-76 -69h-146z" />
    <glyph glyph-name="caron" unicode="&#x2c7;" horiz-adv-x="576" 
d="M192 753h132l53 -69l76 69h146l-164 -152h-144z" />
    <glyph glyph-name="ring" unicode="&#x2da;" horiz-adv-x="576" 
d="M356 609.5q-31 17.5 -49 47t-18 65.5q0 56 39 93.5t95 37.5q55 0 94 -37.5t39 -93.5q0 -36 -18 -66t-48.5 -47t-66.5 -17t-67 17.5zM456.5 686.5q13.5 14.5 13.5 35.5q0 22 -13.5 36t-33.5 14q-21 0 -34.5 -14t-13.5 -36q0 -21 13.5 -35.5t34.5 -14.5q20 0 33.5 14.5z
" />
    <glyph glyph-name="tilde" unicode="&#x2dc;" horiz-adv-x="576" 
d="M417.5 598q-16.5 6 -30.5 13t-19 10q-26 12 -44.5 18.5t-37.5 6.5q-25 0 -45.5 -9t-53.5 -29l25 117q24 18 45.5 26.5t44.5 8.5q20 0 39 -7t43 -20q50 -27 88 -27q26 0 46 8.5t34 18t18 12.5l-25 -119q-47 -34 -93 -34q-18 0 -34.5 6z" />
    <glyph glyph-name="cedilla" unicode="&#xb8;" horiz-adv-x="576" 
d="M134 -100q30 0 51.5 19.5t21.5 48.5q0 10 -5.5 21t-19.5 32l81 20q28 -28 42 -52.5t14 -54.5q0 -67 -51.5 -104.5t-139.5 -37.5h-44l23 108h27z" />
    <glyph glyph-name="uni0308.case" horiz-adv-x="0" 
d="M-356 749q-23 21 -23 56q0 40 28 66t68 26q38 0 61.5 -21t23.5 -56q0 -41 -28 -66.5t-70 -25.5q-37 0 -60 21zM-120.5 749q-23.5 21 -23.5 55q0 40 28 66.5t70 26.5q37 0 60 -21.5t23 -55.5q0 -42 -28 -67t-68 -25q-38 0 -61.5 21z" />
    <glyph glyph-name="uni0307.case" horiz-adv-x="0" 
d="M-245.5 748.5q-25.5 23.5 -25.5 61.5q0 45 31.5 73.5t77.5 28.5q43 0 68.5 -23.5t25.5 -62.5q0 -45 -31.5 -73t-78.5 -28q-42 0 -67.5 23.5z" />
    <glyph glyph-name="gravecomb.case" horiz-adv-x="0" 
d="M-307 895h170l105 -153h-153z" />
    <glyph glyph-name="acutecomb.case" horiz-adv-x="0" 
d="M-178 895h187l-187 -153h-171z" />
    <glyph glyph-name="uni0302.case" horiz-adv-x="0" 
d="M-231 895h151l106 -153h-145l-50 68l-81 -68h-153z" />
    <glyph glyph-name="uni030C.case" horiz-adv-x="0" 
d="M-366 895h145l51 -69l80 69h153l-172 -153h-150z" />
    <glyph glyph-name="uni030A.case" horiz-adv-x="0" 
d="M-227.5 752.5q-33.5 18.5 -53 50t-19.5 67.5q0 39 19.5 70.5t52.5 49.5t73 18q39 0 71.5 -18t52 -49.5t19.5 -70.5q0 -37 -19.5 -68t-52.5 -49.5t-71 -18.5q-39 0 -72.5 18.5zM-119 833.5q15 15.5 15 36.5q0 23 -14.5 37.5t-36.5 14.5q-23 0 -38 -14.5t-15 -37.5
q0 -22 15 -37t38 -15q21 0 36 15.5z" />
    <glyph glyph-name="tildecomb.case" horiz-adv-x="0" 
d="M-128 741q-17 6 -31.5 13.5t-18.5 9.5q-26 12 -44.5 18.5t-39.5 6.5q-26 0 -46.5 -9t-53.5 -29l24 117q24 18 46 26.5t47 8.5q20 0 37.5 -6t43.5 -19q28 -14 49.5 -21.5t43.5 -7.5q30 0 49 9t51 30l-24 -119q-47 -34 -96 -34q-20 0 -37 6z" />
    <glyph glyph-name="uni0327.case" horiz-adv-x="0" 
d="M-455 -104q33 0 58 19.5t25 48.5q0 12 -7 24.5t-23 32.5l90 22q32 -31 48 -56.5t16 -57.5q0 -74 -60 -111.5t-155 -37.5h-49l24 116h33z" />
    <glyph glyph-name="gravecomb.narrow.case" horiz-adv-x="0" 
d="M-327 895h161l76 -153h-147z" />
    <glyph glyph-name="acutecomb.narrow.case" horiz-adv-x="0" 
d="M-222 895h178l-154 -153h-165z" />
    <glyph glyph-name="gravecomb.narrow" horiz-adv-x="0" 
d="M-325 753h161l76 -152h-145z" />
    <glyph glyph-name="acutecomb.narrow" horiz-adv-x="0" 
d="M-225 753h178l-156 -152h-163z" />
    <glyph glyph-name="periodsuperior" horiz-adv-x="208" 
d="M73.5 340.5q-20.5 20.5 -20.5 52.5q0 38 24.5 62.5t59.5 24.5q34 0 54.5 -20t20.5 -53q0 -38 -24.5 -62.5t-60.5 -24.5q-33 0 -53.5 20.5z" />
    <glyph glyph-name="commasuperior" horiz-adv-x="207" 
d="M94 469h134q-14 -47 -39.5 -99.5t-57.5 -96.5h-122q62 117 85 196z" />
    </font>
</defs>
</svg>
