<?xml version="1.0" standalone="no"?>
<!DOCTYPE svg PUBLIC "-//W3C//DTD SVG 1.1//EN" "http://www.w3.org/Graphics/SVG/1.1/DTD/svg11.dtd" >
<svg xmlns="http://www.w3.org/2000/svg" xmlns:xlink="http://www.w3.org/1999/xlink" version="1.1">
<metadata>
Created by FontForge 20190801 at Thu Dec 19 10:01:09 2019
 By Henrique Beier
Copyright (c) 2019 Banco Bradesco S.A. All rights reserved.
</metadata>
<defs>
<font id="BradescoSans-Condensed" horiz-adv-x="521" >
  <font-face 
    font-family="Bradesco Sans Condensed"
    font-weight="400"
    font-stretch="condensed"
    units-per-em="1000"
    panose-1="0 0 5 6 0 0 0 0 0 0"
    ascent="800"
    descent="-200"
    x-height="520"
    cap-height="676"
    bbox="-411 -223 1179 981"
    underline-thickness="50"
    underline-position="-100"
    unicode-range="U+0020-FB02"
  />
<missing-glyph horiz-adv-x="471" 
d="M386 -211h-298v941h298v-941zM158 667v-31h61v-35h-62v-31h156v31h-62v35h62v31h-155zM157 546v-98h156v32h-62v66h-94zM219 480h-31v34h31v-34zM157 422v-31h62v-35h-62v-31h94v66h62v31h-156zM282 366v-62h-125v-32h156v94h-31zM219 251v-53h32v22h31v-44h-94v75h-31
v-106h156v106h-94zM157 88v-106h156v106h-156zM282 13h-94v44h94v-44zM157 -40v-31h66l-66 -44v-31h156v31h-96l66 44h30v31h-156z" />
    <glyph glyph-name="fi" unicode="fi" horiz-adv-x="578" 
d="M114.5 692q45.5 51 120.5 51q35 0 65 -13.5t51 -35.5l-40 -51q-17 14 -34 21.5t-40 7.5q-43 0 -66.5 -29.5t-23.5 -86.5v-36h183v-69h-183v-451h-78v550q0 91 45.5 142zM434 631.5q-14 14.5 -14 36.5t14 37t35 15t35.5 -15t14.5 -37t-14.5 -36.5t-35.5 -14.5t-35 14.5z
M429 520h78v-520h-78v520z" />
    <glyph glyph-name="fl" unicode="fl" horiz-adv-x="630" 
d="M114.5 692q45.5 51 120.5 51q35 0 65 -13.5t51 -35.5l-40 -51q-17 14 -34 21.5t-40 7.5q-43 0 -66.5 -29.5t-23.5 -86.5v-36h183v-69h-183v-451h-78v550q0 91 45.5 142zM423 173v554l78 16v-574q0 -106 80 -106h19v-69h-29q-148 0 -148 179z" />
    <glyph glyph-name=".notdef" horiz-adv-x="471" 
d="M386 -211h-298v941h298v-941zM158 667v-31h61v-35h-62v-31h156v31h-62v35h62v31h-155zM157 546v-98h156v32h-62v66h-94zM219 480h-31v34h31v-34zM157 422v-31h62v-35h-62v-31h94v66h62v31h-156zM282 366v-62h-125v-32h156v94h-31zM219 251v-53h32v22h31v-44h-94v75h-31
v-106h156v106h-94zM157 88v-106h156v106h-156zM282 13h-94v44h94v-44zM157 -40v-31h66l-66 -44v-31h156v31h-96l66 44h30v31h-156z" />
    <glyph glyph-name="space" unicode=" " horiz-adv-x="255" 
 />
    <glyph glyph-name="A" unicode="A" horiz-adv-x="575" 
d="M251 676h74l228 -676h-84l-59 186h-248l-60 -186h-80zM386 260l-100 314l-100 -314h200z" />
    <glyph glyph-name="Aacute" unicode="&#xc1;" horiz-adv-x="575" 
d="M251 676h74l228 -676h-84l-59 186h-248l-60 -186h-80zM386 260l-100 314l-100 -314h200zM340 872h96l-131 -130h-84z" />
    <glyph glyph-name="Acircumflex" unicode="&#xc2;" horiz-adv-x="575" 
d="M251 676h74l228 -676h-84l-59 186h-248l-60 -186h-80zM386 260l-100 314l-100 -314h200zM246 871h83l109 -130h-80l-71 80l-70 -80h-80z" />
    <glyph glyph-name="Adieresis" unicode="&#xc4;" horiz-adv-x="575" 
d="M251 676h74l228 -676h-84l-59 186h-248l-60 -186h-80zM386 260l-100 314l-100 -314h200zM171 764q-14 14 -14 36t14 36t35 14t35.5 -14t14.5 -36t-14.5 -36t-35.5 -14t-35 14zM335 764q-14 14 -14 36t14 36t35 14t35.5 -14t14.5 -36t-14.5 -36t-35.5 -14t-35 14z" />
    <glyph glyph-name="Agrave" unicode="&#xc0;" horiz-adv-x="575" 
d="M251 676h74l228 -676h-84l-59 186h-248l-60 -186h-80zM386 260l-100 314l-100 -314h200zM141 872h95l120 -130h-85z" />
    <glyph glyph-name="Aring" unicode="&#xc5;" horiz-adv-x="575" 
d="M553 0h-84l-59 186h-248l-60 -186h-80l217 641q-30 15 -48.5 44.5t-18.5 65.5q0 51 35 85.5t84 34.5t84.5 -35t35.5 -85q0 -38 -20.5 -68.5t-52.5 -44.5zM248.5 797q-17.5 -18 -17.5 -46q0 -29 17.5 -48t42.5 -19q26 0 43.5 18.5t17.5 48.5q0 28 -17.5 46t-43.5 18
q-25 0 -42.5 -18zM186 260h200l-100 314z" />
    <glyph glyph-name="Atilde" unicode="&#xc3;" horiz-adv-x="575" 
d="M251 676h74l228 -676h-84l-59 186h-248l-60 -186h-80zM386 260l-100 314l-100 -314h200zM288 777q-17 12 -29.5 17.5t-28.5 5.5q-21 0 -39.5 -9.5t-43.5 -27.5v66q21 18 41 26.5t43 8.5q20 0 35 -5.5t32 -16.5q20 -13 32.5 -19t27.5 -6q24 0 44 10t41 28v-68
q-40 -35 -87 -35q-31 0 -68 25z" />
    <glyph glyph-name="AE" unicode="&#xc6;" horiz-adv-x="886" 
d="M427 676h407v-77h-302v-212h263v-77h-263v-232h311v-78h-390v183h-243l-111 -183h-89zM453 254v331l-200 -331h200z" />
    <glyph glyph-name="B" unicode="B" horiz-adv-x="540" 
d="M274 676q87 0 136 -51t49 -131q0 -46 -21.5 -82.5t-59.5 -57.5q54 -18 85 -61.5t31 -103.5q0 -87 -51 -138t-141 -51h-223v676h195zM352 409q30 30 30 84q0 53 -30 83.5t-89 30.5h-109v-228h113q55 0 85 30zM383 99.5q32 30.5 32 90.5q0 52 -33.5 84.5t-87.5 32.5h-140
v-238h136q61 0 93 30.5z" />
    <glyph glyph-name="C" unicode="C" horiz-adv-x="576" 
d="M183 33.5q-62 43.5 -96.5 122.5t-34.5 182q0 101 36 180t99.5 123.5t142.5 44.5q61 0 112 -24.5t86 -73.5l-56 -48q-28 38 -62.5 54t-78.5 16q-59 0 -104 -34t-69.5 -95.5t-24.5 -142.5t25 -142.5t69.5 -95.5t101.5 -34q48 0 82.5 16.5t69.5 51.5l53 -49
q-81 -95 -207 -95q-82 0 -144 43.5z" />
    <glyph glyph-name="Ccedilla" unicode="&#xc7;" horiz-adv-x="576" 
d="M356 -9q25 -36 25 -73q0 -50 -34 -76.5t-91 -26.5h-23v61h21q62 0 62 50q0 31 -26 66q-72 10 -125.5 55.5t-83 120.5t-29.5 170q0 101 36 180t99.5 123.5t142.5 44.5q61 0 112 -24.5t86 -73.5l-56 -48q-28 38 -62.5 54t-78.5 16q-59 0 -104 -34t-69.5 -95.5t-24.5 -142.5
t25 -142.5t69.5 -95.5t101.5 -34q48 0 82.5 16.5t69.5 51.5l53 -49q-72 -84 -178 -94z" />
    <glyph glyph-name="D" unicode="D" horiz-adv-x="607" 
d="M255 676q93 0 161 -41t103.5 -116.5t35.5 -178.5t-35.5 -180t-103 -118.5t-160.5 -41.5h-177v676h176zM418.5 145q55.5 69 55.5 195q0 124 -55 192.5t-163 68.5h-97v-525h97q107 0 162.5 69z" />
    <glyph glyph-name="Eth" unicode="&#xd0;" horiz-adv-x="635" 
d="M23 303v70h84v303h176q93 0 161 -41t103.5 -116.5t35.5 -178.5t-35.5 -180t-103 -118.5t-160.5 -41.5h-177v303h-84zM446.5 145q55.5 69 55.5 195q0 124 -55 192.5t-163 68.5h-97v-228h163v-70h-163v-227h97q107 0 162.5 69z" />
    <glyph glyph-name="E" unicode="E" horiz-adv-x="512" 
d="M79 676h381v-77h-302v-212h263v-77h-263v-232h311v-78h-390v676z" />
    <glyph glyph-name="Eacute" unicode="&#xc9;" horiz-adv-x="512" 
d="M79 676h381v-77h-302v-212h263v-77h-263v-232h311v-78h-390v676zM327 872h96l-131 -130h-84z" />
    <glyph glyph-name="Ecircumflex" unicode="&#xca;" horiz-adv-x="512" 
d="M79 676h381v-77h-302v-212h263v-77h-263v-232h311v-78h-390v676zM233 871h83l109 -130h-80l-71 80l-70 -80h-80z" />
    <glyph glyph-name="Edieresis" unicode="&#xcb;" horiz-adv-x="512" 
d="M79 676h381v-77h-302v-212h263v-77h-263v-232h311v-78h-390v676zM158 764q-14 14 -14 36t14 36t35 14t35.5 -14t14.5 -36t-14.5 -36t-35.5 -14t-35 14zM322 764q-14 14 -14 36t14 36t35 14t35.5 -14t14.5 -36t-14.5 -36t-35.5 -14t-35 14z" />
    <glyph glyph-name="Egrave" unicode="&#xc8;" horiz-adv-x="512" 
d="M79 676h381v-77h-302v-212h263v-77h-263v-232h311v-78h-390v676zM128 872h95l120 -130h-85z" />
    <glyph glyph-name="F" unicode="F" horiz-adv-x="502" 
d="M79 676h381v-77h-302v-215h263v-75h-263v-309h-79v676z" />
    <glyph glyph-name="G" unicode="G" horiz-adv-x="605" 
d="M182 32.5q-62 42.5 -96 121.5t-34 184q0 103 36 182t101 122.5t147 43.5q58 0 110 -23.5t87 -67.5l-52 -51q-59 65 -143 65q-61 0 -107 -33t-71.5 -94.5t-25.5 -143.5t24 -143.5t68 -95t102 -33.5q87 0 140 45v171h-147v71h223v-275q-42 -42 -99 -65t-119 -23
q-82 0 -144 42.5z" />
    <glyph glyph-name="H" unicode="H" horiz-adv-x="614" 
d="M79 676h80v-289h296v289h80v-676h-80v311h-296v-311h-80v676z" />
    <glyph glyph-name="I" unicode="I" horiz-adv-x="238" 
d="M79 676h80v-676h-80v676z" />
    <glyph glyph-name="Iacute" unicode="&#xcd;" horiz-adv-x="238" 
d="M79 676h80v-676h-80v676zM165 872h94l-111 -130h-82z" />
    <glyph glyph-name="Icircumflex" unicode="&#xce;" horiz-adv-x="238" 
d="M79 676h80v-676h-80v676zM77 871h83l109 -130h-80l-71 80l-70 -80h-80z" />
    <glyph glyph-name="Idieresis" unicode="&#xcf;" horiz-adv-x="238" 
d="M79 676h80v-676h-80v676zM2 764q-14 14 -14 36t14 36t35 14t35.5 -14t14.5 -36t-14.5 -36t-35.5 -14t-35 14zM166 764q-14 14 -14 36t14 36t35 14t35.5 -14t14.5 -36t-14.5 -36t-35.5 -14t-35 14z" />
    <glyph glyph-name="Igrave" unicode="&#xcc;" horiz-adv-x="238" 
d="M79 676h80v-676h-80v676zM-22 872h94l99 -130h-82z" />
    <glyph glyph-name="J" unicode="J" horiz-adv-x="362" 
d="M82 77q59 0 92 40t33 113v446h80v-446q0 -111 -52 -170.5t-147 -59.5h-50v77h44z" />
    <glyph glyph-name="K" unicode="K" horiz-adv-x="591" 
d="M158 676v-291h75q35 0 56 9.5t38.5 34t43.5 76.5l86 171h82l-103 -205q-39 -77 -81 -117l218 -354h-95l-191 314q-21 -6 -45 -6h-84v-308h-79v676h79z" />
    <glyph glyph-name="L" unicode="L" horiz-adv-x="499" 
d="M79 676h80v-598h301v-78h-381v676z" />
    <glyph glyph-name="M" unicode="M" horiz-adv-x="754" 
d="M79 676h77l215 -454l230 454h74v-676h-79v519l-194 -382h-65l-180 375v-512h-78v676z" />
    <glyph glyph-name="N" unicode="N" horiz-adv-x="610" 
d="M79 676h65l309 -516v516h78v-676h-66l-308 514v-514h-78v676z" />
    <glyph glyph-name="Ntilde" unicode="&#xd1;" horiz-adv-x="610" 
d="M79 676h65l309 -516v516h78v-676h-66l-308 514v-514h-78v676zM305 777q-17 12 -29.5 17.5t-28.5 5.5q-21 0 -39.5 -9.5t-43.5 -27.5v66q21 18 41 26.5t43 8.5q20 0 35 -5.5t32 -16.5q20 -13 32.5 -19t27.5 -6q24 0 44 10t41 28v-68q-40 -35 -87 -35q-31 0 -68 25z" />
    <glyph glyph-name="O" unicode="O" horiz-adv-x="656" 
d="M185 33q-63 43 -98 122t-35 184q0 101 35.5 180t98.5 123t142 44q80 0 143 -43t98 -122t35 -182t-35.5 -182.5t-98.5 -123t-142 -43.5q-80 0 -143 43zM430.5 99q44.5 33 68.5 95t24 145t-24 144t-68 94t-103 33t-103 -33.5t-68 -95t-24 -142.5q0 -83 24 -145t68 -95
t103 -33q58 0 102.5 33z" />
    <glyph glyph-name="Oacute" unicode="&#xd3;" horiz-adv-x="656" 
d="M185 33q-63 43 -98 122t-35 184q0 101 35.5 180t98.5 123t142 44q80 0 143 -43t98 -122t35 -182t-35.5 -182.5t-98.5 -123t-142 -43.5q-80 0 -143 43zM430.5 99q44.5 33 68.5 95t24 145t-24 144t-68 94t-103 33t-103 -33.5t-68 -95t-24 -142.5q0 -83 24 -145t68 -95
t103 -33q58 0 102.5 33zM380 872h96l-131 -130h-84z" />
    <glyph glyph-name="Ocircumflex" unicode="&#xd4;" horiz-adv-x="656" 
d="M185 33q-63 43 -98 122t-35 184q0 101 35.5 180t98.5 123t142 44q80 0 143 -43t98 -122t35 -182t-35.5 -182.5t-98.5 -123t-142 -43.5q-80 0 -143 43zM430.5 99q44.5 33 68.5 95t24 145t-24 144t-68 94t-103 33t-103 -33.5t-68 -95t-24 -142.5q0 -83 24 -145t68 -95
t103 -33q58 0 102.5 33zM286 871h83l109 -130h-80l-71 80l-70 -80h-80z" />
    <glyph glyph-name="Odieresis" unicode="&#xd6;" horiz-adv-x="656" 
d="M185 33q-63 43 -98 122t-35 184q0 101 35.5 180t98.5 123t142 44q80 0 143 -43t98 -122t35 -182t-35.5 -182.5t-98.5 -123t-142 -43.5q-80 0 -143 43zM430.5 99q44.5 33 68.5 95t24 145t-24 144t-68 94t-103 33t-103 -33.5t-68 -95t-24 -142.5q0 -83 24 -145t68 -95
t103 -33q58 0 102.5 33zM211 764q-14 14 -14 36t14 36t35 14t35.5 -14t14.5 -36t-14.5 -36t-35.5 -14t-35 14zM375 764q-14 14 -14 36t14 36t35 14t35.5 -14t14.5 -36t-14.5 -36t-35.5 -14t-35 14z" />
    <glyph glyph-name="Ograve" unicode="&#xd2;" horiz-adv-x="656" 
d="M185 33q-63 43 -98 122t-35 184q0 101 35.5 180t98.5 123t142 44q80 0 143 -43t98 -122t35 -182t-35.5 -182.5t-98.5 -123t-142 -43.5q-80 0 -143 43zM430.5 99q44.5 33 68.5 95t24 145t-24 144t-68 94t-103 33t-103 -33.5t-68 -95t-24 -142.5q0 -83 24 -145t68 -95
t103 -33q58 0 102.5 33zM181 872h95l120 -130h-85z" />
    <glyph glyph-name="Oslash" unicode="&#xd8;" horiz-adv-x="656" 
d="M71.5 196.5q-19.5 64.5 -19.5 142.5q0 101 35.5 180t98.5 123t142 44q88 0 154 -51l55 86h77l-85 -133q36 -46 55.5 -109.5t19.5 -139.5q0 -103 -35.5 -182.5t-98.5 -123t-142 -43.5q-86 0 -153 50l-55 -86h-77l85 132q-37 46 -56.5 110.5zM328 610q-59 0 -103 -33.5
t-68 -95t-24 -142.5q0 -108 41 -181l266 412q-48 40 -112 40zM430.5 99q44.5 33 68.5 95t24 145q0 109 -40 178l-266 -412q48 -39 111 -39q58 0 102.5 33z" />
    <glyph glyph-name="Otilde" unicode="&#xd5;" horiz-adv-x="656" 
d="M185 33q-63 43 -98 122t-35 184q0 101 35.5 180t98.5 123t142 44q80 0 143 -43t98 -122t35 -182t-35.5 -182.5t-98.5 -123t-142 -43.5q-80 0 -143 43zM430.5 99q44.5 33 68.5 95t24 145t-24 144t-68 94t-103 33t-103 -33.5t-68 -95t-24 -142.5q0 -83 24 -145t68 -95
t103 -33q58 0 102.5 33zM328 777q-17 12 -29.5 17.5t-28.5 5.5q-21 0 -39.5 -9.5t-43.5 -27.5v66q21 18 41 26.5t43 8.5q20 0 35 -5.5t32 -16.5q20 -13 32.5 -19t27.5 -6q24 0 44 10t41 28v-68q-40 -35 -87 -35q-31 0 -68 25z" />
    <glyph glyph-name="OE" unicode="&#x152;" horiz-adv-x="959" 
d="M185 34.5q-62 44.5 -97.5 124t-35.5 180.5q0 98 36 177.5t98 124.5t139 45q62 0 114 -32.5t87 -90.5v113h381v-77h-302v-212h263v-77h-263v-232h311v-78h-390v116q-36 -60 -87.5 -93t-113.5 -33q-78 0 -140 44.5zM428.5 101.5q44.5 35.5 69.5 98t25 140.5t-24.5 139.5
t-69 96t-102.5 34.5q-57 0 -101 -34t-68.5 -95.5t-24.5 -140.5q0 -81 24 -143t68 -96.5t102 -34.5q57 0 101.5 35.5z" />
    <glyph glyph-name="P" unicode="P" horiz-adv-x="536" 
d="M283 676q65 0 112 -27.5t72 -75.5t25 -108t-25 -107.5t-72.5 -75t-111.5 -27.5h-124v-255h-80v676h204zM375.5 366q35.5 35 35.5 99t-35.5 100.5t-102.5 36.5h-114v-271h114q67 0 102.5 35z" />
    <glyph glyph-name="Thorn" unicode="&#xde;" horiz-adv-x="536" 
d="M159 676v-94h124q65 0 112 -27.5t72 -75.5t25 -108t-25 -107.5t-72.5 -75t-111.5 -27.5h-124v-161h-80v676h80zM375.5 272q35.5 35 35.5 99t-35.5 100.5t-102.5 36.5h-114v-271h114q67 0 102.5 35z" />
    <glyph glyph-name="Q" unicode="Q" horiz-adv-x="655" 
d="M327 -11q-79 0 -141.5 44.5t-98 124.5t-35.5 181q0 98 36 177t99 124.5t140 45.5q79 0 141.5 -44.5t98 -123.5t35.5 -179q0 -81 -24 -150t-68 -117l81 -127l-61 -37l-75 118q-59 -37 -128 -37zM414 90l-75 118l61 38l67 -106q27 37 41 88t14 111q0 78 -24.5 140
t-68.5 96.5t-101 34.5q-58 0 -102 -35t-68.5 -97t-24.5 -139q0 -79 24.5 -141.5t68.5 -97.5t102 -35q47 0 86 25z" />
    <glyph glyph-name="R" unicode="R" horiz-adv-x="546" 
d="M282 676q94 0 148 -54.5t54 -143.5q0 -60 -30.5 -106.5t-84.5 -68.5q51 -42 88 -131l72 -172h-88l-55 133q-30 73 -61 108t-84 35h-84v-276h-78v676h203zM369 384.5q35 34.5 35 91.5q0 61 -34 94t-99 33h-114v-253h114q63 0 98 34.5z" />
    <glyph glyph-name="S" unicode="S" horiz-adv-x="523" 
d="M30 92l47 51q39 -43 86 -61t103 -18q58 0 93.5 29.5t35.5 80.5q0 37 -17 61t-48 39.5t-84 33.5q-69 23 -110.5 47.5t-62.5 61t-21 90.5q0 49 27 90t74 65t105 24q61 0 110.5 -22t90.5 -69l-49 -50q-62 66 -152 66q-57 0 -92 -28.5t-35 -77.5q0 -35 16.5 -56t46 -34.5
t88.5 -33.5q102 -34 147.5 -81t45.5 -121q0 -85 -57 -137.5t-154 -52.5q-143 0 -234 103z" />
    <glyph glyph-name="Scaron" unicode="&#x160;" horiz-adv-x="523" 
d="M30 92l47 51q39 -43 86 -61t103 -18q58 0 93.5 29.5t35.5 80.5q0 37 -17 61t-48 39.5t-84 33.5q-69 23 -110.5 47.5t-62.5 61t-21 90.5q0 49 27 90t74 65t105 24q61 0 110.5 -22t90.5 -69l-49 -50q-62 66 -152 66q-57 0 -92 -28.5t-35 -77.5q0 -35 16.5 -56t46 -34.5
t88.5 -33.5q102 -34 147.5 -81t45.5 -121q0 -85 -57 -137.5t-154 -52.5q-143 0 -234 103zM109 871h80l71 -80l71 80h79l-110 -130h-83z" />
    <glyph glyph-name="uni1E9E" unicode="&#x1e9e;" horiz-adv-x="600" 
d="M279 5.5q-42 15.5 -75 47.5l41 55q25 -22 57 -34t67 -12q54 0 85.5 32.5t31.5 86.5q0 59 -39.5 93t-106.5 34h-52v54l142 206q-45 45 -114 45q-80 0 -123.5 -51.5t-43.5 -160.5v-401h-78v402q0 136 66 210t178 74q59 0 111 -25.5t95 -74.5l-149 -214l17 -2
q77 -9 125.5 -59t48.5 -127q0 -57 -24 -101t-66.5 -68.5t-96.5 -24.5q-55 0 -97 15.5z" />
    <glyph glyph-name="T" unicode="T" horiz-adv-x="546" 
d="M233 598h-197v78h474v-78h-197v-598h-80v598z" />
    <glyph glyph-name="U" unicode="U" horiz-adv-x="620" 
d="M133.5 70q-61.5 80 -61.5 231v375h80v-375q0 -123 40.5 -179t117.5 -56t118 55.5t41 178.5v376h80v-374q0 -152 -64.5 -232t-174.5 -80q-115 0 -176.5 80z" />
    <glyph glyph-name="Uacute" unicode="&#xda;" horiz-adv-x="620" 
d="M133.5 70q-61.5 80 -61.5 231v375h80v-375q0 -123 40.5 -179t117.5 -56t118 55.5t41 178.5v376h80v-374q0 -152 -64.5 -232t-174.5 -80q-115 0 -176.5 80zM363 872h96l-131 -130h-84z" />
    <glyph glyph-name="Ucircumflex" unicode="&#xdb;" horiz-adv-x="620" 
d="M133.5 70q-61.5 80 -61.5 231v375h80v-375q0 -123 40.5 -179t117.5 -56t118 55.5t41 178.5v376h80v-374q0 -152 -64.5 -232t-174.5 -80q-115 0 -176.5 80zM269 871h83l109 -130h-80l-71 80l-70 -80h-80z" />
    <glyph glyph-name="Udieresis" unicode="&#xdc;" horiz-adv-x="620" 
d="M133.5 70q-61.5 80 -61.5 231v375h80v-375q0 -123 40.5 -179t117.5 -56t118 55.5t41 178.5v376h80v-374q0 -152 -64.5 -232t-174.5 -80q-115 0 -176.5 80zM194 764q-14 14 -14 36t14 36t35 14t35.5 -14t14.5 -36t-14.5 -36t-35.5 -14t-35 14zM358 764q-14 14 -14 36
t14 36t35 14t35.5 -14t14.5 -36t-14.5 -36t-35.5 -14t-35 14z" />
    <glyph glyph-name="Ugrave" unicode="&#xd9;" horiz-adv-x="620" 
d="M133.5 70q-61.5 80 -61.5 231v375h80v-375q0 -123 40.5 -179t117.5 -56t118 55.5t41 178.5v376h80v-374q0 -152 -64.5 -232t-174.5 -80q-115 0 -176.5 80zM164 872h95l120 -130h-85z" />
    <glyph glyph-name="V" unicode="V" horiz-adv-x="583" 
d="M21 676h88l183 -567l184 567h86l-233 -676h-77z" />
    <glyph glyph-name="W" unicode="W" horiz-adv-x="840" 
d="M32 676h87l123 -556l142 516h81l137 -514l123 554h83l-168 -676h-78l-143 519l-140 -519h-78z" />
    <glyph glyph-name="Wacute" unicode="&#x1e82;" horiz-adv-x="840" 
d="M32 676h87l123 -556l142 516h81l137 -514l123 554h83l-168 -676h-78l-143 519l-140 -519h-78zM472 872h96l-131 -130h-84z" />
    <glyph glyph-name="Wcircumflex" unicode="&#x174;" horiz-adv-x="840" 
d="M32 676h87l123 -556l142 516h81l137 -514l123 554h83l-168 -676h-78l-143 519l-140 -519h-78zM378 871h83l109 -130h-80l-71 80l-70 -80h-80z" />
    <glyph glyph-name="Wdieresis" unicode="&#x1e84;" horiz-adv-x="840" 
d="M32 676h87l123 -556l142 516h81l137 -514l123 554h83l-168 -676h-78l-143 519l-140 -519h-78zM303 764q-14 14 -14 36t14 36t35 14t35.5 -14t14.5 -36t-14.5 -36t-35.5 -14t-35 14zM467 764q-14 14 -14 36t14 36t35 14t35.5 -14t14.5 -36t-14.5 -36t-35.5 -14t-35 14z
" />
    <glyph glyph-name="Wgrave" unicode="&#x1e80;" horiz-adv-x="840" 
d="M32 676h87l123 -556l142 516h81l137 -514l123 554h83l-168 -676h-78l-143 519l-140 -519h-78zM273 872h95l120 -130h-85z" />
    <glyph glyph-name="X" unicode="X" horiz-adv-x="581" 
d="M244 354l-202 322h96l155 -259l153 259h92l-201 -322l220 -354h-95l-175 291l-173 -291h-91z" />
    <glyph glyph-name="Y" unicode="Y" horiz-adv-x="528" 
d="M225 258l-205 418h90l156 -338l155 338h88l-204 -416v-260h-80v258z" />
    <glyph glyph-name="Yacute" unicode="&#xdd;" horiz-adv-x="528" 
d="M225 258l-205 418h90l156 -338l155 338h88l-204 -416v-260h-80v258zM316 872h96l-131 -130h-84z" />
    <glyph glyph-name="Ycircumflex" unicode="&#x176;" horiz-adv-x="528" 
d="M225 258l-205 418h90l156 -338l155 338h88l-204 -416v-260h-80v258zM222 871h83l109 -130h-80l-71 80l-70 -80h-80z" />
    <glyph glyph-name="Ydieresis" unicode="&#x178;" horiz-adv-x="528" 
d="M225 258l-205 418h90l156 -338l155 338h88l-204 -416v-260h-80v258zM147 764q-14 14 -14 36t14 36t35 14t35.5 -14t14.5 -36t-14.5 -36t-35.5 -14t-35 14zM311 764q-14 14 -14 36t14 36t35 14t35.5 -14t14.5 -36t-14.5 -36t-35.5 -14t-35 14z" />
    <glyph glyph-name="Ygrave" unicode="&#x1ef2;" horiz-adv-x="528" 
d="M225 258l-205 418h90l156 -338l155 338h88l-204 -416v-260h-80v258zM117 872h95l120 -130h-85z" />
    <glyph glyph-name="Z" unicode="Z" horiz-adv-x="539" 
d="M40 63l351 535h-339v78h437v-63l-350 -535h359v-78h-458v63z" />
    <glyph glyph-name="Zcaron" unicode="&#x17d;" horiz-adv-x="539" 
d="M40 63l351 535h-339v78h437v-63l-350 -535h359v-78h-458v63zM119 871h80l71 -80l71 80h79l-110 -130h-83z" />
    <glyph glyph-name="a" unicode="a" horiz-adv-x="480" 
d="M89 30.5q-40 40.5 -40 109.5q0 73 52 114.5t145 41.5h99v23q0 71 -26 105.5t-85 34.5q-35 0 -67 -15.5t-57 -44.5l-47 47q33 39 79 61.5t94 22.5q182 0 182 -220v-310h-49l-19 68q-31 -36 -70.5 -57t-81.5 -21q-69 0 -109 40.5zM280.5 80.5q36.5 22.5 64.5 60.5v90h-101
q-58 0 -90.5 -24t-32.5 -66q0 -38 22.5 -60.5t62.5 -22.5q38 0 74.5 22.5z" />
    <glyph glyph-name="aacute" unicode="&#xe1;" horiz-adv-x="480" 
d="M89 30.5q-40 40.5 -40 109.5q0 73 52 114.5t145 41.5h99v23q0 71 -26 105.5t-85 34.5q-35 0 -67 -15.5t-57 -44.5l-47 47q33 39 79 61.5t94 22.5q182 0 182 -220v-310h-49l-19 68q-31 -36 -70.5 -57t-81.5 -21q-69 0 -109 40.5zM280.5 80.5q36.5 22.5 64.5 60.5v90h-101
q-58 0 -90.5 -24t-32.5 -66q0 -38 22.5 -60.5t62.5 -22.5q38 0 74.5 22.5zM288 736h93l-127 -137h-82z" />
    <glyph glyph-name="acircumflex" unicode="&#xe2;" horiz-adv-x="480" 
d="M89 30.5q-40 40.5 -40 109.5q0 73 52 114.5t145 41.5h99v23q0 71 -26 105.5t-85 34.5q-35 0 -67 -15.5t-57 -44.5l-47 47q33 39 79 61.5t94 22.5q182 0 182 -220v-310h-49l-19 68q-31 -36 -70.5 -57t-81.5 -21q-69 0 -109 40.5zM280.5 80.5q36.5 22.5 64.5 60.5v90h-101
q-58 0 -90.5 -24t-32.5 -66q0 -38 22.5 -60.5t62.5 -22.5q38 0 74.5 22.5zM196 736h83l106 -137h-78l-70 84l-70 -84h-76z" />
    <glyph glyph-name="adieresis" unicode="&#xe4;" horiz-adv-x="480" 
d="M89 30.5q-40 40.5 -40 109.5q0 73 52 114.5t145 41.5h99v23q0 71 -26 105.5t-85 34.5q-35 0 -67 -15.5t-57 -44.5l-47 47q33 39 79 61.5t94 22.5q182 0 182 -220v-310h-49l-19 68q-31 -36 -70.5 -57t-81.5 -21q-69 0 -109 40.5zM280.5 80.5q36.5 22.5 64.5 60.5v90h-101
q-58 0 -90.5 -24t-32.5 -66q0 -38 22.5 -60.5t62.5 -22.5q38 0 74.5 22.5zM122 631.5q-14 14.5 -14 35.5q0 23 13.5 37.5t35.5 14.5q21 0 34.5 -14.5t13.5 -37.5q0 -21 -14 -35.5t-34 -14.5q-21 0 -35 14.5zM285 631.5q-14 14.5 -14 35.5q0 23 14 37.5t35 14.5t34.5 -14.5
t13.5 -37.5q0 -21 -14 -35.5t-34 -14.5q-21 0 -35 14.5z" />
    <glyph glyph-name="agrave" unicode="&#xe0;" horiz-adv-x="480" 
d="M89 30.5q-40 40.5 -40 109.5q0 73 52 114.5t145 41.5h99v23q0 71 -26 105.5t-85 34.5q-35 0 -67 -15.5t-57 -44.5l-47 47q33 39 79 61.5t94 22.5q182 0 182 -220v-310h-49l-19 68q-31 -36 -70.5 -57t-81.5 -21q-69 0 -109 40.5zM280.5 80.5q36.5 22.5 64.5 60.5v90h-101
q-58 0 -90.5 -24t-32.5 -66q0 -38 22.5 -60.5t62.5 -22.5q38 0 74.5 22.5zM95 736h93l116 -137h-82z" />
    <glyph glyph-name="aring" unicode="&#xe5;" horiz-adv-x="480" 
d="M89 30.5q-40 40.5 -40 109.5q0 73 52 114.5t145 41.5h99v23q0 71 -26 105.5t-85 34.5q-35 0 -67 -15.5t-57 -44.5l-47 47q33 39 79 61.5t94 22.5q182 0 182 -220v-310h-49l-19 68q-31 -36 -70.5 -57t-81.5 -21q-69 0 -109 40.5zM280.5 80.5q36.5 22.5 64.5 60.5v90h-101
q-58 0 -90.5 -24t-32.5 -66q0 -38 22.5 -60.5t62.5 -22.5q38 0 74.5 22.5zM152 624.5q-35 35.5 -35 86.5t34.5 85.5t83.5 34.5t84 -35t35 -85q0 -51 -35 -86.5t-84 -35.5q-48 0 -83 35.5zM278 662.5q18 19.5 18 48.5q0 27 -18 46t-43 19q-24 0 -42 -19t-18 -46
q0 -29 18 -48.5t42 -19.5q25 0 43 19.5z" />
    <glyph glyph-name="atilde" unicode="&#xe3;" horiz-adv-x="480" 
d="M89 30.5q-40 40.5 -40 109.5q0 73 52 114.5t145 41.5h99v23q0 71 -26 105.5t-85 34.5q-35 0 -67 -15.5t-57 -44.5l-47 47q33 39 79 61.5t94 22.5q182 0 182 -220v-310h-49l-19 68q-31 -36 -70.5 -57t-81.5 -21q-69 0 -109 40.5zM280.5 80.5q36.5 22.5 64.5 60.5v90h-101
q-58 0 -90.5 -24t-32.5 -66q0 -38 22.5 -60.5t62.5 -22.5q38 0 74.5 22.5zM277 615q-12 5 -23.5 11.5t-16.5 9.5q-6 4 -17.5 11t-21 10.5t-20.5 3.5q-21 0 -38.5 -10t-40.5 -30v67q20 19 38.5 28.5t40.5 9.5q19 0 34 -6t35 -19q5 -3 17 -10.5t22 -11.5t20 -4q22 0 39 10
t40 30v-67q-18 -18 -37 -28t-43 -10q-16 0 -28 5z" />
    <glyph glyph-name="ae" unicode="&#xe6;" horiz-adv-x="790" 
d="M88.5 30.5q-39.5 40.5 -39.5 109.5q0 73 51.5 114.5t143.5 41.5h97v23q0 71 -25.5 105.5t-83.5 34.5q-34 0 -65.5 -15.5t-56.5 -44.5l-47 47q33 39 78.5 61.5t92.5 22.5q112 0 155 -93q29 43 70 68t90 25q60 0 104 -34t67.5 -95.5t23.5 -143.5v-26h-328q5 -74 44 -122.5
t101 -48.5q73 0 119 58l51 -43q-31 -41 -75.5 -63t-96.5 -22q-58 0 -102.5 27t-73.5 76q-34 -46 -81.5 -74.5t-105.5 -28.5q-68 0 -107.5 40.5zM632 419.5q-31 42.5 -86 42.5t-89.5 -44.5t-40.5 -120.5h251q-4 80 -35 122.5zM289 83q40 25 68 67q-12 37 -15 81h-100
q-57 0 -89 -23.5t-32 -66.5q0 -38 22.5 -60.5t60.5 -22.5q45 0 85 25z" />
    <glyph glyph-name="b" unicode="b" horiz-adv-x="550" 
d="M202 9.5q-37 17.5 -66 46.5l-16 -56h-51v727l78 16v-292q30 37 70 58t83 21q58 0 104 -32.5t71.5 -93t25.5 -141.5q0 -82 -30.5 -143.5t-81.5 -94.5t-112 -33q-38 0 -75 17.5zM380 114.5q42 51.5 42 148.5q0 93 -36 144.5t-98 51.5q-43 0 -79 -25t-62 -68v-245
q26 -27 57.5 -42.5t63.5 -15.5q70 0 112 51.5z" />
    <glyph glyph-name="c" unicode="c" horiz-adv-x="463" 
d="M152.5 24q-49.5 34 -76.5 95.5t-27 140.5q0 76 28.5 138t78.5 97t113 35q99 0 160 -87l-50 -43q-24 31 -49 45t-60 14q-64 0 -103 -55t-39 -144q0 -59 18.5 -104.5t50.5 -70t73 -24.5q35 0 61.5 13.5t49.5 42.5l50 -43q-62 -84 -164 -84q-65 0 -114.5 34z" />
    <glyph glyph-name="ccedilla" unicode="&#xe7;" horiz-adv-x="463" 
d="M296 -8q27 -37 27 -74q0 -50 -33.5 -76.5t-88.5 -26.5h-23v59h21q28 0 44 13t16 39q0 32 -27 67q-84 13 -133.5 85.5t-49.5 181.5q0 76 28.5 138t78.5 97t113 35q99 0 160 -87l-50 -43q-24 31 -49 45t-60 14q-64 0 -103 -55t-39 -144q0 -59 18.5 -104.5t50.5 -70
t73 -24.5q35 0 61.5 13.5t49.5 42.5l50 -43q-53 -71 -135 -82z" />
    <glyph glyph-name="d" unicode="d" horiz-adv-x="549" 
d="M145.5 22q-45.5 32 -71 92.5t-25.5 142.5t30.5 144t82 95.5t112.5 33.5q34 0 67.5 -13.5t61.5 -37.5v248l78 16v-743h-51l-21 74q-29 -39 -71.5 -61.5t-88.5 -22.5q-58 0 -103.5 32zM341.5 85.5q35.5 24.5 61.5 67.5v253q-25 25 -57 39t-65 14q-69 0 -111 -52t-42 -151
q0 -93 36 -144t98 -51q44 0 79.5 24.5z" />
    <glyph glyph-name="eth" unicode="&#xf0;" horiz-adv-x="536" 
d="M154 23q-51 33 -79.5 91.5t-28.5 132.5q0 72 27 130.5t75.5 92t109.5 33.5q73 0 129 -41q-21 66 -66 129l-130 -42v61l90 29q-35 39 -89 80l80 21q48 -37 84 -77l110 36v-61l-72 -23q98 -138 98 -330q0 -84 -27.5 -151t-78 -105.5t-117.5 -38.5q-64 0 -115 33zM375.5 123
q38.5 62 38.5 161q0 46 -6 88q-27 28 -61.5 44.5t-70.5 16.5q-71 0 -111 -49t-40 -136q0 -52 18 -95t50.5 -67.5t74.5 -24.5q69 0 107.5 62z" />
    <glyph glyph-name="e" unicode="e" horiz-adv-x="498" 
d="M150.5 26.5q-49.5 36.5 -75.5 98.5t-26 137q0 77 26 138t73.5 95.5t108.5 34.5q60 0 104 -33.5t67.5 -93.5t23.5 -139v-27h-329q5 -76 44 -126.5t102 -50.5q73 0 119 58l51 -43q-31 -41 -75.5 -63t-96.5 -22q-67 0 -116.5 36.5zM339.5 420.5q-31.5 41.5 -85.5 41.5
t-88 -42.5t-41 -115.5h250q-4 75 -35.5 116.5z" />
    <glyph glyph-name="eacute" unicode="&#xe9;" horiz-adv-x="498" 
d="M150.5 26.5q-49.5 36.5 -75.5 98.5t-26 137q0 77 26 138t73.5 95.5t108.5 34.5q60 0 104 -33.5t67.5 -93.5t23.5 -139v-27h-329q5 -76 44 -126.5t102 -50.5q73 0 119 58l51 -43q-31 -41 -75.5 -63t-96.5 -22q-67 0 -116.5 36.5zM339.5 420.5q-31.5 41.5 -85.5 41.5
t-88 -42.5t-41 -115.5h250q-4 75 -35.5 116.5zM305 736h93l-127 -137h-82z" />
    <glyph glyph-name="ecircumflex" unicode="&#xea;" horiz-adv-x="498" 
d="M150.5 26.5q-49.5 36.5 -75.5 98.5t-26 137q0 77 26 138t73.5 95.5t108.5 34.5q60 0 104 -33.5t67.5 -93.5t23.5 -139v-27h-329q5 -76 44 -126.5t102 -50.5q73 0 119 58l51 -43q-31 -41 -75.5 -63t-96.5 -22q-67 0 -116.5 36.5zM339.5 420.5q-31.5 41.5 -85.5 41.5
t-88 -42.5t-41 -115.5h250q-4 75 -35.5 116.5zM213 736h83l106 -137h-78l-70 84l-70 -84h-76z" />
    <glyph glyph-name="edieresis" unicode="&#xeb;" horiz-adv-x="498" 
d="M150.5 26.5q-49.5 36.5 -75.5 98.5t-26 137q0 77 26 138t73.5 95.5t108.5 34.5q60 0 104 -33.5t67.5 -93.5t23.5 -139v-27h-329q5 -76 44 -126.5t102 -50.5q73 0 119 58l51 -43q-31 -41 -75.5 -63t-96.5 -22q-67 0 -116.5 36.5zM339.5 420.5q-31.5 41.5 -85.5 41.5
t-88 -42.5t-41 -115.5h250q-4 75 -35.5 116.5zM139 631.5q-14 14.5 -14 35.5q0 23 13.5 37.5t35.5 14.5q21 0 34.5 -14.5t13.5 -37.5q0 -21 -14 -35.5t-34 -14.5q-21 0 -35 14.5zM302 631.5q-14 14.5 -14 35.5q0 23 14 37.5t35 14.5t34.5 -14.5t13.5 -37.5q0 -21 -14 -35.5
t-34 -14.5q-21 0 -35 14.5z" />
    <glyph glyph-name="egrave" unicode="&#xe8;" horiz-adv-x="498" 
d="M150.5 26.5q-49.5 36.5 -75.5 98.5t-26 137q0 77 26 138t73.5 95.5t108.5 34.5q60 0 104 -33.5t67.5 -93.5t23.5 -139v-27h-329q5 -76 44 -126.5t102 -50.5q73 0 119 58l51 -43q-31 -41 -75.5 -63t-96.5 -22q-67 0 -116.5 36.5zM339.5 420.5q-31.5 41.5 -85.5 41.5
t-88 -42.5t-41 -115.5h250q-4 75 -35.5 116.5zM112 736h93l116 -137h-82z" />
    <glyph glyph-name="f" unicode="f" horiz-adv-x="359" 
d="M114.5 692q45.5 51 120.5 51q35 0 65 -13.5t51 -35.5l-40 -51q-17 14 -34 21.5t-40 7.5q-43 0 -66.5 -29.5t-23.5 -86.5v-36h183v-69h-183v-451h-78v550q0 91 45.5 142z" />
    <glyph glyph-name="g" unicode="g" horiz-adv-x="545" 
d="M142.5 -199q-49.5 24 -83.5 64l49 48q62 -65 143 -65q67 0 107.5 44t40.5 124v72q-29 -35 -69.5 -55.5t-82.5 -20.5q-58 0 -103 31t-70 89t-25 135q0 81 30.5 140.5t81.5 91t111 31.5q38 0 75 -16.5t65 -44.5l14 51h51v-506q0 -70 -28 -124t-79 -83.5t-116 -29.5
q-62 0 -111.5 24zM336.5 107q36.5 24 62.5 64v232q-25 26 -56.5 41t-63.5 15q-69 0 -110 -48.5t-41 -143.5q0 -88 35 -136t96 -48q41 0 77.5 24z" />
    <glyph glyph-name="h" unicode="h" horiz-adv-x="526" 
d="M147 743v-287q30 35 67.5 54.5t78.5 19.5q84 0 127.5 -57t43.5 -169v-304h-78v293q0 84 -22 125t-82 41q-38 0 -73.5 -24.5t-61.5 -67.5v-367h-78v727z" />
    <glyph glyph-name="i" unicode="i" horiz-adv-x="219" 
d="M70 520h78v-520h-78v520zM75 631.5q-14 14.5 -14 36.5t14 37t35 15t35.5 -15t14.5 -37t-14.5 -36.5t-35.5 -14.5t-35 14.5z" />
    <glyph glyph-name="dotlessi" unicode="&#x131;" horiz-adv-x="219" 
d="M70 520h78v-520h-78v520z" />
    <glyph glyph-name="iacute" unicode="&#xed;" horiz-adv-x="219" 
d="M70 520h78v-520h-78v520zM156 736h87l-99 -137h-75z" />
    <glyph glyph-name="icircumflex" unicode="&#xee;" horiz-adv-x="219" 
d="M70 520h78v-520h-78v520zM68 736h83l106 -137h-78l-70 84l-70 -84h-76z" />
    <glyph glyph-name="idieresis" unicode="&#xef;" horiz-adv-x="219" 
d="M70 520h78v-520h-78v520zM-6 631.5q-14 14.5 -14 35.5q0 23 13.5 37.5t35.5 14.5q21 0 34.5 -14.5t13.5 -37.5q0 -21 -14 -35.5t-34 -14.5q-21 0 -35 14.5zM157 631.5q-14 14.5 -14 35.5q0 23 14 37.5t35 14.5t34.5 -14.5t13.5 -37.5q0 -21 -14 -35.5t-34 -14.5
q-21 0 -35 14.5z" />
    <glyph glyph-name="igrave" unicode="&#xec;" horiz-adv-x="219" 
d="M70 520h78v-520h-78v520zM-22 736h86l88 -137h-76z" />
    <glyph glyph-name="j" unicode="j" horiz-adv-x="218" 
d="M-11 -139q81 0 81 105v554h78v-548q0 -89 -38 -134.5t-111 -45.5h-28v69h18zM75 631.5q-14 14.5 -14 36.5t14 37t35 15t35.5 -15t14.5 -37t-14.5 -36.5t-35.5 -14.5t-35 14.5z" />
    <glyph glyph-name="uni0237" unicode="&#x237;" horiz-adv-x="218" 
d="M-11 -139q81 0 81 105v554h78v-548q0 -89 -38 -134.5t-111 -45.5h-28v69h18z" />
    <glyph glyph-name="k" unicode="k" horiz-adv-x="502" 
d="M146 743v-441h57q32 0 55 18.5t52 75.5l63 124h85l-83 -156q-31 -59 -62 -90l172 -274h-92l-145 235q-13 -4 -31 -4h-71v-231h-77v727z" />
    <glyph glyph-name="l" unicode="l" horiz-adv-x="271" 
d="M64 173v554l78 16v-574q0 -106 80 -106h19v-69h-29q-148 0 -148 179z" />
    <glyph glyph-name="m" unicode="m" horiz-adv-x="786" 
d="M120 520l19 -73q64 83 142 83q46 0 79.5 -20.5t52.5 -60.5q30 37 70.5 59t84.5 22q75 0 115.5 -53t40.5 -154v-323h-78v316q0 143 -96 143q-31 0 -63 -20.5t-54 -56.5q4 -24 4 -57v-325h-78v316q0 73 -23 108t-72 35q-32 0 -63 -25.5t-54 -66.5v-367h-78v520h51z" />
    <glyph glyph-name="n" unicode="n" horiz-adv-x="526" 
d="M120 520l20 -72q31 39 70 60.5t83 21.5q84 0 127.5 -57t43.5 -169v-304h-78v293q0 84 -22 125t-82 41q-38 0 -73.5 -24.5t-61.5 -67.5v-367h-78v520h51z" />
    <glyph glyph-name="ntilde" unicode="&#xf1;" horiz-adv-x="526" 
d="M120 520l20 -72q31 39 70 60.5t83 21.5q84 0 127.5 -57t43.5 -169v-304h-78v293q0 84 -22 125t-82 41q-38 0 -73.5 -24.5t-61.5 -67.5v-367h-78v520h51zM312 615q-12 5 -23.5 11.5t-16.5 9.5q-6 4 -17.5 11t-21 10.5t-20.5 3.5q-21 0 -38.5 -10t-40.5 -30v67
q20 19 38.5 28.5t40.5 9.5q19 0 34 -6t35 -19q5 -3 17 -10.5t22 -11.5t20 -4q22 0 39 10t40 30v-67q-18 -18 -37 -28t-43 -10q-16 0 -28 5z" />
    <glyph glyph-name="o" unicode="o" horiz-adv-x="545" 
d="M157 24q-51 34 -79.5 95.5t-28.5 140.5q0 78 28.5 139.5t79.5 96t115 34.5t115 -34t80 -95.5t29 -140.5t-29 -140.5t-80 -95.5t-115 -34t-115 34zM377.5 113.5q39.5 52.5 39.5 146.5q0 92 -38.5 145.5t-105.5 53.5t-106 -53.5t-39 -145.5q0 -94 38.5 -146.5t104.5 -52.5
q67 0 106.5 52.5z" />
    <glyph glyph-name="oacute" unicode="&#xf3;" horiz-adv-x="545" 
d="M157 24q-51 34 -79.5 95.5t-28.5 140.5q0 78 28.5 139.5t79.5 96t115 34.5t115 -34t80 -95.5t29 -140.5t-29 -140.5t-80 -95.5t-115 -34t-115 34zM377.5 113.5q39.5 52.5 39.5 146.5q0 92 -38.5 145.5t-105.5 53.5t-106 -53.5t-39 -145.5q0 -94 38.5 -146.5t104.5 -52.5
q67 0 106.5 52.5zM324 736h93l-127 -137h-82z" />
    <glyph glyph-name="ocircumflex" unicode="&#xf4;" horiz-adv-x="545" 
d="M157 24q-51 34 -79.5 95.5t-28.5 140.5q0 78 28.5 139.5t79.5 96t115 34.5t115 -34t80 -95.5t29 -140.5t-29 -140.5t-80 -95.5t-115 -34t-115 34zM377.5 113.5q39.5 52.5 39.5 146.5q0 92 -38.5 145.5t-105.5 53.5t-106 -53.5t-39 -145.5q0 -94 38.5 -146.5t104.5 -52.5
q67 0 106.5 52.5zM232 736h83l106 -137h-78l-70 84l-70 -84h-76z" />
    <glyph glyph-name="odieresis" unicode="&#xf6;" horiz-adv-x="545" 
d="M157 24q-51 34 -79.5 95.5t-28.5 140.5q0 78 28.5 139.5t79.5 96t115 34.5t115 -34t80 -95.5t29 -140.5t-29 -140.5t-80 -95.5t-115 -34t-115 34zM377.5 113.5q39.5 52.5 39.5 146.5q0 92 -38.5 145.5t-105.5 53.5t-106 -53.5t-39 -145.5q0 -94 38.5 -146.5t104.5 -52.5
q67 0 106.5 52.5zM158 631.5q-14 14.5 -14 35.5q0 23 13.5 37.5t35.5 14.5q21 0 34.5 -14.5t13.5 -37.5q0 -21 -14 -35.5t-34 -14.5q-21 0 -35 14.5zM321 631.5q-14 14.5 -14 35.5q0 23 14 37.5t35 14.5t34.5 -14.5t13.5 -37.5q0 -21 -14 -35.5t-34 -14.5q-21 0 -35 14.5z
" />
    <glyph glyph-name="ograve" unicode="&#xf2;" horiz-adv-x="545" 
d="M157 24q-51 34 -79.5 95.5t-28.5 140.5q0 78 28.5 139.5t79.5 96t115 34.5t115 -34t80 -95.5t29 -140.5t-29 -140.5t-80 -95.5t-115 -34t-115 34zM377.5 113.5q39.5 52.5 39.5 146.5q0 92 -38.5 145.5t-105.5 53.5t-106 -53.5t-39 -145.5q0 -94 38.5 -146.5t104.5 -52.5
q67 0 106.5 52.5zM131 736h93l116 -137h-82z" />
    <glyph glyph-name="oslash" unicode="&#xf8;" horiz-adv-x="545" 
d="M49 260q0 78 28.5 139.5t79.5 96t115 34.5q63 0 116 -34l41 64h74l-69 -107q30 -36 46 -85.5t16 -107.5q0 -79 -29 -140.5t-80 -95.5t-115 -34t-115 34l-42 -66h-74l70 108q-62 76 -62 194zM273 459q-67 0 -106 -53.5t-39 -145.5q0 -77 26 -127l195 303q-32 23 -76 23z
M377.5 113.5q39.5 52.5 39.5 146.5q0 76 -26 126l-195 -302q32 -23 75 -23q67 0 106.5 52.5z" />
    <glyph glyph-name="otilde" unicode="&#xf5;" horiz-adv-x="545" 
d="M157 24q-51 34 -79.5 95.5t-28.5 140.5q0 78 28.5 139.5t79.5 96t115 34.5t115 -34t80 -95.5t29 -140.5t-29 -140.5t-80 -95.5t-115 -34t-115 34zM377.5 113.5q39.5 52.5 39.5 146.5q0 92 -38.5 145.5t-105.5 53.5t-106 -53.5t-39 -145.5q0 -94 38.5 -146.5t104.5 -52.5
q67 0 106.5 52.5zM313 615q-12 5 -23.5 11.5t-16.5 9.5q-6 4 -17.5 11t-21 10.5t-20.5 3.5q-21 0 -38.5 -10t-40.5 -30v67q20 19 38.5 28.5t40.5 9.5q19 0 34 -6t35 -19q5 -3 17 -10.5t22 -11.5t20 -4q22 0 39 10t40 30v-67q-18 -18 -37 -28t-43 -10q-16 0 -28 5z" />
    <glyph glyph-name="oe" unicode="&#x153;" horiz-adv-x="871" 
d="M157 24q-51 34 -79.5 95.5t-28.5 140.5q0 78 28.5 139.5t79.5 96t115 34.5q61 0 108.5 -31t75.5 -87q26 56 71 87t103 31q60 0 104 -33.5t67.5 -94t23.5 -140.5v-27h-328q5 -76 44 -125.5t101 -49.5q73 0 119 58l51 -43q-31 -41 -75.5 -63t-96.5 -22q-63 0 -110 32
t-73 88q-28 -57 -76 -88.5t-109 -31.5q-64 0 -115 34zM713 420.5q-31 41.5 -86 41.5q-54 0 -88 -43t-41 -117h250q-4 77 -35 118.5zM377.5 113.5q39.5 52.5 39.5 146.5q0 92 -38.5 145.5t-105.5 53.5t-106 -53.5t-39 -145.5q0 -94 38.5 -146.5t104.5 -52.5q67 0 106.5 52.5z
" />
    <glyph glyph-name="p" unicode="p" horiz-adv-x="550" 
d="M120 520l21 -75q29 40 71 62.5t88 22.5q58 0 104 -32.5t71.5 -93t25.5 -141.5q0 -83 -30.5 -144.5t-82 -94t-112.5 -32.5q-34 0 -68 12.5t-61 35.5v-244l-78 -16v740h51zM379.5 114q42.5 51 42.5 149q0 93 -36 144.5t-98 51.5q-43 0 -79 -25t-62 -68v-248
q26 -26 56.5 -40.5t63.5 -14.5q70 0 112.5 51z" />
    <glyph glyph-name="thorn" unicode="&#xfe;" horiz-adv-x="550" 
d="M147 743v-292q30 37 70 58t83 21q58 0 104 -32.5t71.5 -93t25.5 -141.5q0 -82 -30.5 -143.5t-81.5 -94.5t-112 -33q-34 0 -68 14t-62 39v-249l-78 -16v947zM380 114.5q42 51.5 42 148.5q0 93 -36 144.5t-98 51.5q-43 0 -79 -25t-62 -68v-245q26 -27 57.5 -42.5
t63.5 -15.5q70 0 112 51.5z" />
    <glyph glyph-name="q" unicode="q" horiz-adv-x="550" 
d="M333 11q-40 -21 -84 -21q-58 0 -103.5 32.5t-71 93t-25.5 141.5q0 83 30.5 145t82 95t112.5 33q38 0 75.5 -16t66.5 -44l14 50h51v-724l-78 -16v289q-30 -37 -70 -58zM341.5 86.5q35.5 24.5 61.5 67.5v250q-26 26 -57.5 41t-64.5 15q-69 0 -111 -52.5t-42 -151.5
q0 -93 36 -143.5t98 -50.5q44 0 79.5 24.5z" />
    <glyph glyph-name="r" unicode="r" horiz-adv-x="353" 
d="M120 520l21 -75q33 40 75.5 61.5t91.5 21.5h12v-73h-20q-44 0 -84.5 -24.5t-68.5 -68.5v-362h-78v520h51z" />
    <glyph glyph-name="s" unicode="s" horiz-adv-x="435" 
d="M34 73l46 51q65 -63 145 -63q46 0 69.5 19t23.5 54q0 30 -15 49t-40 30t-67 24q-71 22 -106 55t-35 97q0 38 20.5 70.5t57.5 51.5t86 19q51 0 93 -20t72 -55l-48 -47q-49 52 -117 52q-44 0 -67.5 -19.5t-23.5 -53.5q0 -23 12 -37t31.5 -23t56.5 -22q8 -2 24 -8
q70 -25 106.5 -60t36.5 -98q0 -66 -45 -107.5t-126 -41.5q-114 0 -190 83z" />
    <glyph glyph-name="scaron" unicode="&#x161;" horiz-adv-x="435" 
d="M34 73l46 51q65 -63 145 -63q46 0 69.5 19t23.5 54q0 30 -15 49t-40 30t-67 24q-71 22 -106 55t-35 97q0 38 20.5 70.5t57.5 51.5t86 19q51 0 93 -20t72 -55l-48 -47q-49 52 -117 52q-44 0 -67.5 -19.5t-23.5 -53.5q0 -23 12 -37t31.5 -23t56.5 -22q8 -2 24 -8
q70 -25 106.5 -60t36.5 -98q0 -66 -45 -107.5t-126 -41.5q-114 0 -190 83zM74 736h79l68 -83l70 83h77l-106 -137h-83z" />
    <glyph glyph-name="germandbls" unicode="&#xdf;" horiz-adv-x="571" 
d="M207 49l39 51q28 -23 53 -31t59 -8q47 0 72.5 22t25.5 63t-22.5 63.5t-66.5 43.5q-8 4 -42 19.5t-51.5 39.5t-17.5 56t16.5 60t43.5 58q25 28 37 49t12 49q0 41 -25.5 64.5t-68.5 23.5q-59 0 -92 -43t-33 -123v-506h-77v501q0 115 55.5 178.5t149.5 63.5q77 0 121.5 -43
t44.5 -108q0 -38 -16 -66t-47 -63q-21 -24 -32 -41.5t-11 -35.5q0 -27 17 -42t53 -32l25 -13q47 -25 75.5 -60t28.5 -95q0 -69 -44.5 -111.5t-115.5 -42.5q-101 0 -166 59z" />
    <glyph glyph-name="t" unicode="t" horiz-adv-x="363" 
d="M110 39.5q-41 49.5 -41 139.5v468l78 16v-143h176v-69h-176v-274q0 -55 21 -85t61 -30q23 0 39.5 6.5t33.5 20.5l39 -51q-48 -48 -114 -48q-76 0 -117 49.5z" />
    <glyph glyph-name="u" unicode="u" horiz-adv-x="524" 
d="M106.5 46.5q-42.5 56.5 -42.5 168.5v305h78v-294q0 -85 22 -125t84 -40q36 0 70 24.5t59 67.5v367h78v-520h-50l-21 72q-31 -39 -69.5 -60.5t-81.5 -21.5q-84 0 -126.5 56.5z" />
    <glyph glyph-name="uacute" unicode="&#xfa;" horiz-adv-x="524" 
d="M106.5 46.5q-42.5 56.5 -42.5 168.5v305h78v-294q0 -85 22 -125t84 -40q36 0 70 24.5t59 67.5v367h78v-520h-50l-21 72q-31 -39 -69.5 -60.5t-81.5 -21.5q-84 0 -126.5 56.5zM312 736h93l-127 -137h-82z" />
    <glyph glyph-name="ucircumflex" unicode="&#xfb;" horiz-adv-x="524" 
d="M106.5 46.5q-42.5 56.5 -42.5 168.5v305h78v-294q0 -85 22 -125t84 -40q36 0 70 24.5t59 67.5v367h78v-520h-50l-21 72q-31 -39 -69.5 -60.5t-81.5 -21.5q-84 0 -126.5 56.5zM220 736h83l106 -137h-78l-70 84l-70 -84h-76z" />
    <glyph glyph-name="udieresis" unicode="&#xfc;" horiz-adv-x="524" 
d="M106.5 46.5q-42.5 56.5 -42.5 168.5v305h78v-294q0 -85 22 -125t84 -40q36 0 70 24.5t59 67.5v367h78v-520h-50l-21 72q-31 -39 -69.5 -60.5t-81.5 -21.5q-84 0 -126.5 56.5zM146 631.5q-14 14.5 -14 35.5q0 23 13.5 37.5t35.5 14.5q21 0 34.5 -14.5t13.5 -37.5
q0 -21 -14 -35.5t-34 -14.5q-21 0 -35 14.5zM309 631.5q-14 14.5 -14 35.5q0 23 14 37.5t35 14.5t34.5 -14.5t13.5 -37.5q0 -21 -14 -35.5t-34 -14.5q-21 0 -35 14.5z" />
    <glyph glyph-name="ugrave" unicode="&#xf9;" horiz-adv-x="524" 
d="M106.5 46.5q-42.5 56.5 -42.5 168.5v305h78v-294q0 -85 22 -125t84 -40q36 0 70 24.5t59 67.5v367h78v-520h-50l-21 72q-31 -39 -69.5 -60.5t-81.5 -21.5q-84 0 -126.5 56.5zM119 736h93l116 -137h-82z" />
    <glyph glyph-name="v" unicode="v" horiz-adv-x="491" 
d="M20 520h86l141 -419l140 419h84l-189 -520h-74z" />
    <glyph glyph-name="w" unicode="w" horiz-adv-x="706" 
d="M29 520h83l93 -409l115 375h73l112 -375l97 409h78l-138 -520h-74l-116 381l-112 -381h-73z" />
    <glyph glyph-name="wacute" unicode="&#x1e83;" horiz-adv-x="706" 
d="M29 520h83l93 -409l115 375h73l112 -375l97 409h78l-138 -520h-74l-116 381l-112 -381h-73zM403 736h93l-127 -137h-82z" />
    <glyph glyph-name="wcircumflex" unicode="&#x175;" horiz-adv-x="706" 
d="M29 520h83l93 -409l115 375h73l112 -375l97 409h78l-138 -520h-74l-116 381l-112 -381h-73zM311 736h83l106 -137h-78l-70 84l-70 -84h-76z" />
    <glyph glyph-name="wdieresis" unicode="&#x1e85;" horiz-adv-x="706" 
d="M29 520h83l93 -409l115 375h73l112 -375l97 409h78l-138 -520h-74l-116 381l-112 -381h-73zM237 631.5q-14 14.5 -14 35.5q0 23 13.5 37.5t35.5 14.5q21 0 34.5 -14.5t13.5 -37.5q0 -21 -14 -35.5t-34 -14.5q-21 0 -35 14.5zM400 631.5q-14 14.5 -14 35.5q0 23 14 37.5
t35 14.5t34.5 -14.5t13.5 -37.5q0 -21 -14 -35.5t-34 -14.5q-21 0 -35 14.5z" />
    <glyph glyph-name="wgrave" unicode="&#x1e81;" horiz-adv-x="706" 
d="M29 520h83l93 -409l115 375h73l112 -375l97 409h78l-138 -520h-74l-116 381l-112 -381h-73zM210 736h93l116 -137h-82z" />
    <glyph glyph-name="x" unicode="x" horiz-adv-x="483" 
d="M198 269l-162 251h91l117 -193l116 193h88l-162 -252l173 -268h-92l-128 209l-126 -209h-87z" />
    <glyph glyph-name="y" unicode="y" horiz-adv-x="484" 
d="M86 -137q40 0 69 24.5t46 78.5l16 48l-199 506h85l149 -397l130 397h83l-200 -577q-53 -151 -171 -151h-30v71h22z" />
    <glyph glyph-name="yacute" unicode="&#xfd;" horiz-adv-x="484" 
d="M86 -137q40 0 69 24.5t46 78.5l16 48l-199 506h85l149 -397l130 397h83l-200 -577q-53 -151 -171 -151h-30v71h22zM293 736h93l-127 -137h-82z" />
    <glyph glyph-name="ycircumflex" unicode="&#x177;" horiz-adv-x="484" 
d="M86 -137q40 0 69 24.5t46 78.5l16 48l-199 506h85l149 -397l130 397h83l-200 -577q-53 -151 -171 -151h-30v71h22zM201 736h83l106 -137h-78l-70 84l-70 -84h-76z" />
    <glyph glyph-name="ydieresis" unicode="&#xff;" horiz-adv-x="484" 
d="M86 -137q40 0 69 24.5t46 78.5l16 48l-199 506h85l149 -397l130 397h83l-200 -577q-53 -151 -171 -151h-30v71h22zM127 631.5q-14 14.5 -14 35.5q0 23 13.5 37.5t35.5 14.5q21 0 34.5 -14.5t13.5 -37.5q0 -21 -14 -35.5t-34 -14.5q-21 0 -35 14.5zM290 631.5
q-14 14.5 -14 35.5q0 23 14 37.5t35 14.5t34.5 -14.5t13.5 -37.5q0 -21 -14 -35.5t-34 -14.5q-21 0 -35 14.5z" />
    <glyph glyph-name="ygrave" unicode="&#x1ef3;" horiz-adv-x="484" 
d="M86 -137q40 0 69 24.5t46 78.5l16 48l-199 506h85l149 -397l130 397h83l-200 -577q-53 -151 -171 -151h-30v71h22zM100 736h93l116 -137h-82z" />
    <glyph glyph-name="z" unicode="z" horiz-adv-x="478" 
d="M55 57l273 394h-269v69h361v-56l-272 -395h278v-69h-371v57z" />
    <glyph glyph-name="zcaron" unicode="&#x17e;" horiz-adv-x="478" 
d="M55 57l273 394h-269v69h361v-56l-272 -395h278v-69h-371v57zM85 736h79l68 -83l70 83h77l-106 -137h-83z" />
    <glyph glyph-name="ordfeminine" unicode="&#xaa;" horiz-adv-x="375" 
d="M64.5 302.5q-31.5 30.5 -31.5 83.5q0 55 39 87t105 32h83v11q0 104 -80 104q-24 0 -49.5 -10.5t-46.5 -31.5l-39 44q26 29 61 44.5t76 15.5q71 0 108.5 -44t37.5 -129v-229h-48l-15 51q-24 -27 -54.5 -43t-59.5 -16q-55 0 -86.5 30.5zM211.5 348.5q26.5 15.5 48.5 41.5
v60h-84q-37 0 -57 -16.5t-20 -44.5q0 -25 16 -40.5t44 -15.5q26 0 52.5 15.5z" />
    <glyph glyph-name="ordmasculine" unicode="&#xba;" horiz-adv-x="421" 
d="M121.5 298.5q-39.5 26.5 -62.5 73.5t-23 106q0 58 23 104.5t63 73t88 26.5q50 0 90 -26t62.5 -72.5t22.5 -105.5t-23 -106t-63 -73.5t-89 -26.5t-88.5 26.5zM285 377q28 38 28 101t-27.5 100t-74.5 37q-46 0 -74.5 -37.5t-28.5 -99.5q0 -63 28 -101t74 -38q47 0 75 38z
" />
    <glyph glyph-name="uni03BC" unicode="&#x3bc;" horiz-adv-x="529" 
d="M147 520v-286q0 -59 7.5 -95.5t31 -57t68.5 -20.5q37 0 70 24.5t58 68.5v366h78v-520h-50l-21 73q-29 -39 -68.5 -61t-82.5 -22q-58 0 -92 44v-238l-77 -16v740h78z" />
    <glyph glyph-name="zero" unicode="0" horiz-adv-x="559" 
d="M159 33q-52 43 -80 120.5t-28 176.5q0 95 29 171.5t81 120.5t119 44q68 0 120 -43t80 -119t28 -174q0 -99 -28.5 -176t-80.5 -120.5t-119 -43.5q-69 0 -121 43zM389 138q39 72 39 192q0 117 -38.5 188.5t-108.5 71.5t-110 -72t-40 -188q0 -119 39.5 -191.5t109.5 -72.5
t109 72z" />
    <glyph glyph-name="one" unicode="1" horiz-adv-x="344" 
d="M174 575l-134 -43v67l156 58h56v-657h-78v575z" />
    <glyph glyph-name="two" unicode="2" horiz-adv-x="509" 
d="M276 301q47 55 68 92.5t21 75.5q0 58 -30.5 89.5t-89.5 31.5q-76 0 -147 -72l-49 54q90 94 204 94q57 0 100.5 -24t67.5 -66.5t24 -97.5q0 -54 -25 -102.5t-72 -101.5l-177 -201h277v-73h-389v55z" />
    <glyph glyph-name="three" unicode="3" horiz-adv-x="499" 
d="M128 12q-51 22 -90 62l50 52q64 -61 145 -61q58 0 95 35.5t37 91.5q0 59 -35 92t-97 33h-75v48l173 219h-276v73h368v-53l-172 -219q88 -4 142 -56.5t54 -138.5q0 -58 -27 -103.5t-75.5 -71t-109.5 -25.5q-56 0 -107 22z" />
    <glyph glyph-name="four" unicode="4" horiz-adv-x="529" 
d="M330 173h-289v59l289 425h74v-413h84v-71h-84v-173h-74v173zM330 244v302l-204 -302h204z" />
    <glyph glyph-name="five" unicode="5" horiz-adv-x="484" 
d="M39 75l50 51q58 -61 141 -61q56 0 89.5 36.5t33.5 95.5q0 128 -138 128h-140v46l55 286h267v-73h-216l-33 -187h67q105 0 162.5 -51.5t57.5 -149.5q0 -60 -25.5 -107t-71.5 -73t-105 -26q-117 0 -194 85z" />
    <glyph glyph-name="six" unicode="6" horiz-adv-x="520" 
d="M115 70q-59 80 -59 223q0 110 28 194.5t82 131.5t128 47q50 0 91 -18.5t80 -62.5l-51 -48q-26 31 -54 43.5t-65 12.5q-67 0 -110 -62t-51 -166q32 21 71 31.5t78 10.5q57 0 100 -26.5t66 -74t23 -106.5t-25 -107t-69.5 -75.5t-101.5 -27.5q-102 0 -161 80zM362.5 100
q32.5 37 32.5 100q0 60 -32.5 97.5t-91.5 37.5q-37 0 -73.5 -11t-65.5 -30q0 -112 37.5 -171.5t103.5 -59.5q57 0 89.5 37z" />
    <glyph glyph-name="seven" unicode="7" horiz-adv-x="491" 
d="M362 584h-315v73h403v-46l-236 -611h-84z" />
    <glyph glyph-name="eight" unicode="8" horiz-adv-x="525" 
d="M154.5 14q-47.5 24 -74 65.5t-26.5 93.5t29 97t78 78q-89 57 -89 150q0 49 25 87t69 59.5t99 21.5q57 0 100.5 -22t68 -61.5t24.5 -90.5q0 -43 -24 -84t-66 -71q103 -62 103 -165q0 -53 -27 -94.5t-74.5 -64.5t-107.5 -23t-107.5 24zM363.5 421q20.5 33 20.5 68
q0 49 -33 78.5t-86 29.5q-51 0 -84.5 -27t-33.5 -68q0 -48 33.5 -77.5t105.5 -52.5l18 -6q39 22 59.5 55zM357.5 92.5q37.5 29.5 37.5 79.5q0 47 -36 79.5t-106 55.5l-29 10q-94 -56 -94 -139q0 -50 38.5 -82.5t96.5 -32.5q55 0 92.5 29.5z" />
    <glyph glyph-name="nine" unicode="9" 
d="M137 9q-45 19 -80 63l51 48q25 -28 57.5 -42.5t65.5 -14.5q71 0 111.5 62t45.5 175q-32 -20 -71 -30t-78 -10q-87 0 -138.5 54t-51.5 143q0 57 25.5 105t71 76t100.5 28q102 0 160.5 -80.5t58.5 -222.5q0 -174 -60 -273.5t-174 -99.5q-49 0 -94 19zM323.5 342
q36.5 11 65.5 30q-1 108 -38 164.5t-102 56.5q-57 0 -90.5 -37.5t-33.5 -99.5q0 -59 33 -92t92 -33q37 0 73.5 11z" />
    <glyph glyph-name="zero.zero" horiz-adv-x="559" 
d="M159 33q-52 43 -80 120.5t-28 176.5q0 95 29 171.5t81 120.5t119 44q68 0 120 -43t80 -119t28 -174q0 -99 -28.5 -176t-80.5 -120.5t-119 -43.5q-69 0 -121 43zM281 590q-70 0 -110 -72t-40 -188q0 -77 16 -132l235 333q-38 59 -101 59zM389 138q39 72 39 192
q0 77 -16 131l-236 -332q39 -63 104 -63q70 0 109 72z" />
    <glyph glyph-name="zero.tf" 
d="M142.5 33q-49.5 43 -75.5 120t-26 177q0 96 27 172.5t76.5 120t115.5 43.5q67 0 116.5 -43t76.5 -119t27 -174q0 -99 -27 -176t-77 -120.5t-116 -43.5q-68 0 -117.5 43zM364 138.5q36 72.5 36 191.5q0 117 -35 188.5t-104 71.5q-68 0 -104 -72t-36 -188
q0 -121 35.5 -192.5t103.5 -71.5t104 72.5z" />
    <glyph glyph-name="one.tf" 
d="M267 575l-151 -50v66l172 66h57v-657h-78v575z" />
    <glyph glyph-name="two.tf" 
d="M282 301q47 55 68 92.5t21 75.5q0 58 -30.5 89.5t-89.5 31.5q-77 0 -147 -72l-49 54q90 94 204 94q57 0 100.5 -24t67.5 -66.5t24 -97.5q0 -54 -25 -102.5t-72 -101.5l-177 -201h277v-73h-389v55z" />
    <glyph glyph-name="three.tf" 
d="M141 12q-51 22 -90 62l50 52q64 -61 145 -61q58 0 95 35.5t37 91.5q0 59 -35 92t-97 33h-75v48l173 219h-276v73h368v-53l-172 -219q88 -4 142 -56.5t54 -138.5q0 -58 -27 -103.5t-75.5 -71t-109.5 -25.5q-56 0 -107 22z" />
    <glyph glyph-name="four.tf" 
d="M331 173h-293v59l293 425h74v-413h87v-71h-87v-173h-74v173zM331 244v303l-208 -303h208z" />
    <glyph glyph-name="five.tf" 
d="M61 75l50 51q58 -61 141 -61q56 0 89.5 36.5t33.5 95.5q0 128 -138 128h-140v46l55 286h267v-73h-216l-33 -187h67q105 0 162.5 -51.5t57.5 -149.5q0 -60 -25.5 -107t-71.5 -73t-105 -26q-117 0 -194 85z" />
    <glyph glyph-name="six.tf" 
d="M118 70q-59 80 -59 223q0 110 28 194.5t82 131.5t128 47q50 0 91 -18.5t80 -62.5l-51 -48q-26 31 -54 43.5t-65 12.5q-67 0 -110 -62t-51 -166q32 21 71 31.5t78 10.5q57 0 100 -26.5t66 -74t23 -106.5t-25 -107t-69.5 -75.5t-101.5 -27.5q-102 0 -161 80zM365.5 100
q32.5 37 32.5 100q0 60 -32.5 97.5t-91.5 37.5q-37 0 -73.5 -11t-65.5 -30q0 -112 37.5 -171.5t103.5 -59.5q57 0 89.5 37z" />
    <glyph glyph-name="seven.tf" 
d="M373 584h-315v73h403v-46l-236 -611h-84z" />
    <glyph glyph-name="eight.tf" 
d="M151.5 14q-47.5 24 -74 65.5t-26.5 93.5t29 97t78 78q-89 57 -89 150q0 49 25 87t69 59.5t99 21.5q57 0 100.5 -22t68 -61.5t24.5 -90.5q0 -43 -24 -84t-66 -71q103 -62 103 -165q0 -53 -27 -94.5t-74.5 -64.5t-107.5 -23t-107.5 24zM360.5 421q20.5 33 20.5 68
q0 49 -33 78.5t-86 29.5q-51 0 -84.5 -27t-33.5 -68q0 -48 33.5 -77.5t105.5 -52.5l18 -6q39 22 59.5 55zM354.5 92.5q37.5 29.5 37.5 79.5q0 47 -36 79.5t-106 55.5l-29 10q-94 -56 -94 -139q0 -50 38.5 -82.5t96.5 -32.5q55 0 92.5 29.5z" />
    <glyph glyph-name="nine.tf" 
d="M136 9q-45 19 -80 63l51 48q25 -28 57.5 -42.5t65.5 -14.5q71 0 111.5 62t45.5 175q-32 -20 -71 -30t-78 -10q-87 0 -138.5 54t-51.5 143q0 57 25.5 105t71 76t100.5 28q102 0 160.5 -80.5t58.5 -222.5q0 -174 -60 -273.5t-174 -99.5q-49 0 -94 19zM322.5 342
q36.5 11 65.5 30q-1 108 -38 164.5t-102 56.5q-57 0 -90.5 -37.5t-33.5 -99.5q0 -59 33 -92t92 -33q37 0 73.5 11z" />
    <glyph glyph-name="zero.tf.zero" 
d="M142.5 33q-49.5 43 -75.5 120t-26 177q0 96 27 172.5t76.5 120t115.5 43.5q67 0 116.5 -43t76.5 -119t27 -174q0 -99 -27 -176t-77 -120.5t-116 -43.5q-68 0 -117.5 43zM261 590q-68 0 -104 -72t-36 -188q0 -65 11 -122l228 320q-37 62 -99 62zM364 138.5
q36 72.5 36 191.5q0 69 -12 123l-229 -320q36 -67 101 -67q68 0 104 72.5z" />
    <glyph glyph-name="zero.subs" horiz-adv-x="405" 
d="M93.5 -28.5q-41.5 54.5 -41.5 142.5q0 56 19.5 101t54 70.5t77.5 25.5q67 0 108.5 -54t41.5 -143q0 -56 -19 -101t-53.5 -70.5t-77.5 -25.5q-68 0 -109.5 54.5zM263.5 18q20.5 36 20.5 96q0 61 -20 96.5t-60 35.5t-61.5 -36t-21.5 -96q0 -59 21 -95.5t61 -36.5t60.5 36z
" />
    <glyph glyph-name="one.subs" horiz-adv-x="311" 
d="M148 238l-84 -24v57l99 35h50v-382h-65v314z" />
    <glyph glyph-name="two.subs" horiz-adv-x="383" 
d="M197 104q26 26 38.5 44.5t12.5 38.5q0 28 -17 43t-48 15q-22 0 -46 -10t-44 -30l-37 49q26 27 60.5 42.5t73.5 15.5q58 0 92 -31.5t34 -83.5q0 -32 -15.5 -58.5t-45.5 -57.5l-94 -95h156v-62h-251v47z" />
    <glyph glyph-name="three.subs" horiz-adv-x="383" 
d="M112 -67q-33 16 -56 41l39 42q40 -38 87 -38q32 0 52.5 17t20.5 44q0 26 -19 41.5t-52 15.5h-52v49l95 99h-159v61h238v-48l-103 -108q55 -3 87.5 -32.5t32.5 -78.5q0 -56 -38 -88.5t-101 -32.5q-39 0 -72 16z" />
    <glyph glyph-name="four.subs" horiz-adv-x="396" 
d="M233 16h-183v46l183 244h61v-232h51v-58h-51v-92h-61v92zM233 74v150l-110 -150h110z" />
    <glyph glyph-name="five.subs" horiz-adv-x="374" 
d="M109.5 -67.5q-32.5 15.5 -56.5 41.5l42 42q38 -38 80 -38q31 0 50.5 17t19.5 46q0 28 -18 43.5t-50 15.5h-100v42l29 163h184v-62h-141l-13 -86h46q62 0 96.5 -30.5t34.5 -85.5q0 -57 -36.5 -90.5t-99.5 -33.5q-35 0 -67.5 15.5z" />
    <glyph glyph-name="six.subs" horiz-adv-x="389" 
d="M99.5 -36.5q-38.5 46.5 -38.5 134.5q0 97 43 155t116 58q35 0 63.5 -14.5t47.5 -39.5l-40 -40q-15 18 -31 25.5t-40 7.5q-38 0 -63 -28t-31 -79q40 20 89 20q55 0 88.5 -32.5t33.5 -84.5q0 -55 -36.5 -92t-92.5 -37q-70 0 -108.5 46.5zM256 -4.5q18 18.5 18 48.5
q0 28 -18.5 44.5t-50.5 16.5q-46 0 -81 -16q1 -55 22.5 -83.5t59.5 -28.5q32 0 50 18.5z" />
    <glyph glyph-name="seven.subs" horiz-adv-x="375" 
d="M244 242h-182v64h258v-35l-139 -347h-69z" />
    <glyph glyph-name="eight.subs" horiz-adv-x="409" 
d="M104.5 -53.5q-38.5 29.5 -38.5 77.5q0 27 16.5 52t45.5 46q-50 31 -50 87q0 45 36.5 73.5t90.5 28.5q57 0 92.5 -28.5t35.5 -74.5q0 -49 -51 -86q61 -35 61 -96q0 -49 -38.5 -79t-99.5 -30q-62 0 -100.5 29.5zM263.5 168.5q10.5 16.5 10.5 33.5q0 25 -19 39.5t-50 14.5
q-29 0 -48 -13.5t-19 -34.5q0 -24 21 -39t65 -26l8 -2q21 11 31.5 27.5zM259 -11.5q22 14.5 22 40.5q0 28 -23 42.5t-69 25.5l-12 3q-24 -12 -37 -29.5t-13 -37.5q0 -27 22 -43t56 -16q32 0 54 14.5z" />
    <glyph glyph-name="nine.subs" horiz-adv-x="387" 
d="M110 -69q-31 14 -54 39l38 43q37 -34 79 -34q80 0 91 109q-42 -21 -87 -21q-54 0 -88 33t-34 85q0 54 37 90t94 36q67 0 104.5 -48t37.5 -134q0 -101 -39 -156.5t-113 -55.5q-35 0 -66 14zM265 142q-1 52 -21.5 80.5t-56.5 28.5q-32 0 -51 -17.5t-19 -48.5
q0 -28 17 -43.5t50 -15.5q44 0 81 16z" />
    <glyph glyph-name="zero.dnom" horiz-adv-x="405" 
d="M93.5 47.5q-41.5 54.5 -41.5 142.5q0 56 19.5 101t54 70.5t77.5 25.5q67 0 108.5 -54t41.5 -143q0 -56 -19 -101t-53.5 -70.5t-77.5 -25.5q-68 0 -109.5 54.5zM263.5 94q20.5 36 20.5 96q0 61 -20 96.5t-60 35.5t-61.5 -36t-21.5 -96q0 -59 21 -95.5t61 -36.5t60.5 36z
" />
    <glyph glyph-name="one.dnom" horiz-adv-x="311" 
d="M148 314l-84 -24v57l99 35h50v-382h-65v314z" />
    <glyph glyph-name="two.dnom" horiz-adv-x="383" 
d="M197 180q26 26 38.5 44.5t12.5 38.5q0 28 -17 43t-48 15q-22 0 -46 -10t-44 -30l-37 49q26 27 60.5 42.5t73.5 15.5q58 0 92 -31.5t34 -83.5q0 -32 -15.5 -58.5t-45.5 -57.5l-94 -95h156v-62h-251v47z" />
    <glyph glyph-name="three.dnom" horiz-adv-x="383" 
d="M112 9q-33 16 -56 41l39 42q40 -38 87 -38q32 0 52.5 17t20.5 44q0 26 -19 41.5t-52 15.5h-52v49l95 99h-159v61h238v-48l-103 -108q55 -3 87.5 -32.5t32.5 -78.5q0 -56 -38 -88.5t-101 -32.5q-39 0 -72 16z" />
    <glyph glyph-name="four.dnom" horiz-adv-x="396" 
d="M233 92h-183v46l183 244h61v-232h51v-58h-51v-92h-61v92zM233 150v150l-110 -150h110z" />
    <glyph glyph-name="five.dnom" horiz-adv-x="374" 
d="M109.5 8.5q-32.5 15.5 -56.5 41.5l42 42q38 -38 80 -38q31 0 50.5 17t19.5 46q0 28 -18 43.5t-50 15.5h-100v42l29 163h184v-62h-141l-13 -86h46q62 0 96.5 -30.5t34.5 -85.5q0 -57 -36.5 -90.5t-99.5 -33.5q-35 0 -67.5 15.5z" />
    <glyph glyph-name="six.dnom" horiz-adv-x="389" 
d="M99.5 39.5q-38.5 46.5 -38.5 134.5q0 97 43 155t116 58q35 0 63.5 -14.5t47.5 -39.5l-40 -40q-15 18 -31 25.5t-40 7.5q-38 0 -63 -28t-31 -79q40 20 89 20q55 0 88.5 -32.5t33.5 -84.5q0 -55 -36.5 -92t-92.5 -37q-70 0 -108.5 46.5zM256 71.5q18 18.5 18 48.5
q0 28 -18.5 44.5t-50.5 16.5q-46 0 -81 -16q1 -55 22.5 -83.5t59.5 -28.5q32 0 50 18.5z" />
    <glyph glyph-name="seven.dnom" horiz-adv-x="375" 
d="M244 318h-182v64h258v-35l-139 -347h-69z" />
    <glyph glyph-name="eight.dnom" horiz-adv-x="409" 
d="M104.5 22.5q-38.5 29.5 -38.5 77.5q0 27 16.5 52t45.5 46q-50 31 -50 87q0 45 36.5 73.5t90.5 28.5q57 0 92.5 -28.5t35.5 -74.5q0 -49 -51 -86q61 -35 61 -96q0 -49 -38.5 -79t-99.5 -30q-62 0 -100.5 29.5zM263.5 244.5q10.5 16.5 10.5 33.5q0 25 -19 39.5t-50 14.5
q-29 0 -48 -13.5t-19 -34.5q0 -24 21 -39t65 -26l8 -2q21 11 31.5 27.5zM259 64.5q22 14.5 22 40.5q0 28 -23 42.5t-69 25.5l-12 3q-24 -12 -37 -29.5t-13 -37.5q0 -27 22 -43t56 -16q32 0 54 14.5z" />
    <glyph glyph-name="nine.dnom" horiz-adv-x="387" 
d="M110 7q-31 14 -54 39l38 43q37 -34 79 -34q80 0 91 109q-42 -21 -87 -21q-54 0 -88 33t-34 85q0 54 37 90t94 36q67 0 104.5 -48t37.5 -134q0 -101 -39 -156.5t-113 -55.5q-35 0 -66 14zM265 218q-1 52 -21.5 80.5t-56.5 28.5q-32 0 -51 -17.5t-19 -48.5q0 -28 17 -43.5
t50 -15.5q44 0 81 16z" />
    <glyph glyph-name="zero.numr" horiz-adv-x="405" 
d="M93.5 321.5q-41.5 54.5 -41.5 142.5q0 56 19.5 101t54 70.5t77.5 25.5q67 0 108.5 -54t41.5 -143q0 -56 -19 -101t-53.5 -70.5t-77.5 -25.5q-68 0 -109.5 54.5zM263.5 368q20.5 36 20.5 96q0 61 -20 96.5t-60 35.5t-61.5 -36t-21.5 -96q0 -59 21 -95.5t61 -36.5t60.5 36z
" />
    <glyph glyph-name="one.numr" horiz-adv-x="311" 
d="M148 588l-84 -24v57l99 35h50v-382h-65v314z" />
    <glyph glyph-name="two.numr" horiz-adv-x="383" 
d="M197 454q26 26 38.5 44.5t12.5 38.5q0 28 -17 43t-48 15q-22 0 -46 -10t-44 -30l-37 49q26 27 60.5 42.5t73.5 15.5q58 0 92 -31.5t34 -83.5q0 -32 -15.5 -58.5t-45.5 -57.5l-94 -95h156v-62h-251v47z" />
    <glyph glyph-name="three.numr" horiz-adv-x="383" 
d="M112 283q-33 16 -56 41l39 42q40 -38 87 -38q32 0 52.5 17t20.5 44q0 26 -19 41.5t-52 15.5h-52v49l95 99h-159v61h238v-48l-103 -108q55 -3 87.5 -32.5t32.5 -78.5q0 -56 -38 -88.5t-101 -32.5q-39 0 -72 16z" />
    <glyph glyph-name="four.numr" horiz-adv-x="396" 
d="M233 366h-183v46l183 244h61v-232h51v-58h-51v-92h-61v92zM233 424v150l-110 -150h110z" />
    <glyph glyph-name="five.numr" horiz-adv-x="374" 
d="M109.5 282.5q-32.5 15.5 -56.5 41.5l42 42q38 -38 80 -38q31 0 50.5 17t19.5 46q0 28 -18 43.5t-50 15.5h-100v42l29 163h184v-62h-141l-13 -86h46q62 0 96.5 -30.5t34.5 -85.5q0 -57 -36.5 -90.5t-99.5 -33.5q-35 0 -67.5 15.5z" />
    <glyph glyph-name="six.numr" horiz-adv-x="389" 
d="M99.5 313.5q-38.5 46.5 -38.5 134.5q0 97 43 155t116 58q35 0 63.5 -14.5t47.5 -39.5l-40 -40q-15 18 -31 25.5t-40 7.5q-38 0 -63 -28t-31 -79q40 20 89 20q55 0 88.5 -32.5t33.5 -84.5q0 -55 -36.5 -92t-92.5 -37q-70 0 -108.5 46.5zM256 345.5q18 18.5 18 48.5
q0 28 -18.5 44.5t-50.5 16.5q-46 0 -81 -16q1 -55 22.5 -83.5t59.5 -28.5q32 0 50 18.5z" />
    <glyph glyph-name="seven.numr" horiz-adv-x="375" 
d="M244 592h-182v64h258v-35l-139 -347h-69z" />
    <glyph glyph-name="eight.numr" horiz-adv-x="409" 
d="M104.5 296.5q-38.5 29.5 -38.5 77.5q0 27 16.5 52t45.5 46q-50 31 -50 87q0 45 36.5 73.5t90.5 28.5q57 0 92.5 -28.5t35.5 -74.5q0 -49 -51 -86q61 -35 61 -96q0 -49 -38.5 -79t-99.5 -30q-62 0 -100.5 29.5zM263.5 518.5q10.5 16.5 10.5 33.5q0 25 -19 39.5t-50 14.5
q-29 0 -48 -13.5t-19 -34.5q0 -24 21 -39t65 -26l8 -2q21 11 31.5 27.5zM259 338.5q22 14.5 22 40.5q0 28 -23 42.5t-69 25.5l-12 3q-24 -12 -37 -29.5t-13 -37.5q0 -27 22 -43t56 -16q32 0 54 14.5z" />
    <glyph glyph-name="nine.numr" horiz-adv-x="387" 
d="M110 281q-31 14 -54 39l38 43q37 -34 79 -34q80 0 91 109q-42 -21 -87 -21q-54 0 -88 33t-34 85q0 54 37 90t94 36q67 0 104.5 -48t37.5 -134q0 -101 -39 -156.5t-113 -55.5q-35 0 -66 14zM265 492q-1 52 -21.5 80.5t-56.5 28.5q-32 0 -51 -17.5t-19 -48.5
q0 -28 17 -43.5t50 -15.5q44 0 81 16z" />
    <glyph glyph-name="uni2070" unicode="&#x2070;" horiz-adv-x="405" 
d="M93.5 389.5q-41.5 54.5 -41.5 142.5q0 56 19.5 101t54 70.5t77.5 25.5q67 0 108.5 -54t41.5 -143q0 -56 -19 -101t-53.5 -70.5t-77.5 -25.5q-68 0 -109.5 54.5zM263.5 436q20.5 36 20.5 96q0 61 -20 96.5t-60 35.5t-61.5 -36t-21.5 -96q0 -59 21 -95.5t61 -36.5t60.5 36z
" />
    <glyph glyph-name="uni00B9" unicode="&#xb9;" horiz-adv-x="311" 
d="M148 656l-84 -24v57l99 35h50v-382h-65v314z" />
    <glyph glyph-name="uni00B2" unicode="&#xb2;" horiz-adv-x="383" 
d="M197 522q26 26 38.5 44.5t12.5 38.5q0 28 -17 43t-48 15q-22 0 -46 -10t-44 -30l-37 49q26 27 60.5 42.5t73.5 15.5q58 0 92 -31.5t34 -83.5q0 -32 -15.5 -58.5t-45.5 -57.5l-94 -95h156v-62h-251v47z" />
    <glyph glyph-name="uni00B3" unicode="&#xb3;" horiz-adv-x="383" 
d="M112 351q-33 16 -56 41l39 42q40 -38 87 -38q32 0 52.5 17t20.5 44q0 26 -19 41.5t-52 15.5h-52v49l95 99h-159v61h238v-48l-103 -108q55 -3 87.5 -32.5t32.5 -78.5q0 -56 -38 -88.5t-101 -32.5q-39 0 -72 16z" />
    <glyph glyph-name="uni2074" unicode="&#x2074;" horiz-adv-x="396" 
d="M233 434h-183v46l183 244h61v-232h51v-58h-51v-92h-61v92zM233 492v150l-110 -150h110z" />
    <glyph glyph-name="uni2075" unicode="&#x2075;" horiz-adv-x="374" 
d="M109.5 350.5q-32.5 15.5 -56.5 41.5l42 42q38 -38 80 -38q31 0 50.5 17t19.5 46q0 28 -18 43.5t-50 15.5h-100v42l29 163h184v-62h-141l-13 -86h46q62 0 96.5 -30.5t34.5 -85.5q0 -57 -36.5 -90.5t-99.5 -33.5q-35 0 -67.5 15.5z" />
    <glyph glyph-name="uni2076" unicode="&#x2076;" horiz-adv-x="389" 
d="M99.5 381.5q-38.5 46.5 -38.5 134.5q0 97 43 155t116 58q35 0 63.5 -14.5t47.5 -39.5l-40 -40q-15 18 -31 25.5t-40 7.5q-38 0 -63 -28t-31 -79q40 20 89 20q55 0 88.5 -32.5t33.5 -84.5q0 -55 -36.5 -92t-92.5 -37q-70 0 -108.5 46.5zM256 413.5q18 18.5 18 48.5
q0 28 -18.5 44.5t-50.5 16.5q-46 0 -81 -16q1 -55 22.5 -83.5t59.5 -28.5q32 0 50 18.5z" />
    <glyph glyph-name="uni2077" unicode="&#x2077;" horiz-adv-x="375" 
d="M244 660h-182v64h258v-35l-139 -347h-69z" />
    <glyph glyph-name="uni2078" unicode="&#x2078;" horiz-adv-x="409" 
d="M104.5 364.5q-38.5 29.5 -38.5 77.5q0 27 16.5 52t45.5 46q-50 31 -50 87q0 45 36.5 73.5t90.5 28.5q57 0 92.5 -28.5t35.5 -74.5q0 -49 -51 -86q61 -35 61 -96q0 -49 -38.5 -79t-99.5 -30q-62 0 -100.5 29.5zM263.5 586.5q10.5 16.5 10.5 33.5q0 25 -19 39.5t-50 14.5
q-29 0 -48 -13.5t-19 -34.5q0 -24 21 -39t65 -26l8 -2q21 11 31.5 27.5zM259 406.5q22 14.5 22 40.5q0 28 -23 42.5t-69 25.5l-12 3q-24 -12 -37 -29.5t-13 -37.5q0 -27 22 -43t56 -16q32 0 54 14.5z" />
    <glyph glyph-name="uni2079" unicode="&#x2079;" horiz-adv-x="387" 
d="M110 349q-31 14 -54 39l38 43q37 -34 79 -34q80 0 91 109q-42 -21 -87 -21q-54 0 -88 33t-34 85q0 54 37 90t94 36q67 0 104.5 -48t37.5 -134q0 -101 -39 -156.5t-113 -55.5q-35 0 -66 14zM265 560q-1 52 -21.5 80.5t-56.5 28.5q-32 0 -51 -17.5t-19 -48.5
q0 -28 17 -43.5t50 -15.5q44 0 81 16z" />
    <glyph glyph-name="fraction" unicode="&#x2044;" horiz-adv-x="140" 
d="M245 657h86l-436 -657h-86z" />
    <glyph glyph-name="onehalf" unicode="&#xbd;" horiz-adv-x="836" 
d="M556 657h86l-436 -657h-86zM148 588l-84 -24v57l99 35h50v-382h-65v314zM650 180q26 26 38.5 44.5t12.5 38.5q0 28 -17 43t-48 15q-22 0 -46 -10t-44 -30l-37 49q26 27 60.5 42.5t73.5 15.5q58 0 92 -31.5t34 -83.5q0 -32 -15.5 -58.5t-45.5 -57.5l-94 -95h156v-62h-251
v47z" />
    <glyph glyph-name="onequarter" unicode="&#xbc;" horiz-adv-x="787" 
d="M570 657h86l-436 -657h-86zM148 588l-84 -24v57l99 35h50v-382h-65v314zM624 92h-183v46l183 244h61v-232h51v-58h-51v-92h-61v92zM624 150v150l-110 -150h110z" />
    <glyph glyph-name="threequarters" unicode="&#xbe;" horiz-adv-x="851" 
d="M634 657h86l-436 -657h-86zM112 283q-33 16 -56 41l39 42q40 -38 87 -38q32 0 52.5 17t20.5 44q0 26 -19 41.5t-52 15.5h-52v49l95 99h-159v61h238v-48l-103 -108q55 -3 87.5 -32.5t32.5 -78.5q0 -56 -38 -88.5t-101 -32.5q-39 0 -72 16zM688 92h-183v46l183 244h61v-232
h51v-58h-51v-92h-61v92zM688 150v150l-110 -150h110z" />
    <glyph glyph-name="period" unicode="." horiz-adv-x="231" 
d="M77 7q-15 16 -15 41t15 41t38 16q24 0 39 -16t15 -41q0 -24 -15 -40.5t-39 -16.5q-23 0 -38 16z" />
    <glyph glyph-name="comma" unicode="," horiz-adv-x="231" 
d="M64 -11.5q17 58.5 22 111.5h79q-6 -57 -25.5 -114.5t-46.5 -103.5h-70q24 48 41 106.5z" />
    <glyph glyph-name="colon" unicode=":" horiz-adv-x="253" 
d="M77 426q-15 16 -15 41t15 41t38 16q24 0 39 -16t15 -41q0 -24 -15 -40.5t-39 -16.5q-23 0 -38 16zM77 7q-15 16 -15 41t15 41t38 16q24 0 39 -16t15 -41q0 -24 -15 -40.5t-39 -16.5q-23 0 -38 16z" />
    <glyph glyph-name="semicolon" unicode=";" horiz-adv-x="253" 
d="M78 426q-15 16 -15 41t15 41t38 16q24 0 39 -16t15 -41q0 -24 -15 -40.5t-39 -16.5q-23 0 -38 16zM63 -11.5q17 58.5 22 111.5h79q-6 -57 -25.5 -114.5t-46.5 -103.5h-70q24 48 41 106.5z" />
    <glyph glyph-name="ellipsis" unicode="&#x2026;" horiz-adv-x="646" 
d="M77 7q-15 16 -15 41t15 41t38 16q24 0 39 -16t15 -41q0 -24 -15 -40.5t-39 -16.5q-23 0 -38 16zM284 7q-15 16 -15 41t15 41t38 16q24 0 39 -16t15 -41q0 -24 -15 -40.5t-39 -16.5q-23 0 -38 16zM492 7q-15 16 -15 41t15 41t38 16q24 0 39 -16t15 -41q0 -24 -15 -40.5
t-39 -16.5q-23 0 -38 16z" />
    <glyph glyph-name="exclam" unicode="!" horiz-adv-x="243" 
d="M75 676h83l-6 -479h-70zM83 7q-15 16 -15 41t15 41t38 16q24 0 39 -16t15 -41q0 -24 -15 -40.5t-39 -16.5q-23 0 -38 16z" />
    <glyph glyph-name="exclamdown" unicode="&#xa1;" horiz-adv-x="243" 
d="M83 432q-15 16 -15 41q0 24 15 40.5t39 16.5q23 0 38 -16t15 -41t-15 -41t-38 -16q-24 0 -39 16zM91 324h70l7 -479h-83z" />
    <glyph glyph-name="question" unicode="?" horiz-adv-x="476" 
d="M207 311.5q25 38.5 73 80.5q31 28 47 55.5t16 59.5q0 49 -31 76t-85 27q-83 0 -151 -65l-46 56q45 43 96.5 64t104.5 21q57 0 101 -22t68 -62t24 -91q0 -45 -19.5 -80t-55.5 -68q-48 -43 -70 -72.5t-22 -70.5v-23h-75v22q0 54 25 92.5zM181 7q-15 16 -15 41t15 41t38 16
q24 0 39 -16t15 -41q0 -24 -15 -40.5t-39 -16.5q-23 0 -38 16z" />
    <glyph glyph-name="questiondown" unicode="&#xbf;" horiz-adv-x="476" 
d="M226 432q-15 16 -15 41q0 24 15 40.5t39 16.5q23 0 38 -16t15 -41t-15 -41t-38 -16q-24 0 -39 16zM152 -143q-44 22 -68 62t-24 91q0 45 19.5 80t55.5 68q48 43 70 72.5t22 70.5v23h75v-22q0 -54 -25 -92.5t-73 -80.5q-31 -28 -47 -55.5t-16 -59.5q0 -49 31 -76t85 -27
q83 0 151 65l46 -56q-45 -43 -96.5 -64t-104.5 -21q-57 0 -101 22z" />
    <glyph glyph-name="periodcentered" unicode="&#xb7;" horiz-adv-x="231" 
d="M77 320q-15 16 -15 41t15 41t38 16q24 0 39 -16t15 -41q0 -24 -15 -40.5t-39 -16.5q-23 0 -38 16z" />
    <glyph glyph-name="bullet" unicode="&#x2022;" horiz-adv-x="350" 
d="M108 279q-28 29 -28 71q0 44 28 73t67 29t67 -29t28 -73q0 -42 -28 -71t-67 -29t-67 29z" />
    <glyph glyph-name="asterisk" unicode="*" horiz-adv-x="373" 
d="M160 491l-82 -63l-36 50l92 60l-92 60l36 51l82 -63l-5 107h63l-5 -107l82 63l36 -51l-92 -60l92 -60l-36 -50l-82 63l5 -108h-63z" />
    <glyph glyph-name="numbersign" unicode="#" horiz-adv-x="574" 
d="M136 170h-82l9 62h81l24 200h-83l9 62h82l16 134h69l-16 -134h127l17 134h68l-17 -134h80l-9 -62h-78l-25 -200h81l-10 -62h-78l-18 -142h-68l18 142h-128l-17 -142h-69zM340 232l25 200h-128l-24 -200h127z" />
    <glyph glyph-name="slash" unicode="/" horiz-adv-x="414" 
d="M307 735h84l-285 -871h-83z" />
    <glyph glyph-name="backslash" unicode="\" horiz-adv-x="414" 
d="M23 735h83l285 -871h-84z" />
    <glyph glyph-name="exclamdown.case" horiz-adv-x="243" 
d="M83 587q-15 16 -15 41q0 24 15 40.5t39 16.5q23 0 38 -16t15 -41t-15 -41t-38 -16q-24 0 -39 16zM91 479h70l7 -479h-83z" />
    <glyph glyph-name="questiondown.case" horiz-adv-x="476" 
d="M218 587q-15 16 -15 41q0 24 15 40.5t39 16.5q23 0 38 -16t15 -41t-15 -41t-38 -16q-24 0 -39 16zM144 12q-44 22 -68 62t-24 91q0 45 19.5 80t55.5 68q48 43 70 72.5t22 70.5v23h75v-22q0 -54 -25 -92.5t-73 -80.5q-31 -28 -47 -55.5t-16 -59.5q0 -49 31 -76t85 -27
q83 0 151 65l46 -56q-45 -43 -96.5 -64t-104.5 -21q-57 0 -101 22z" />
    <glyph glyph-name="slash.case" horiz-adv-x="414" 
d="M307 771h84l-285 -871h-83z" />
    <glyph glyph-name="backslash.case" horiz-adv-x="414" 
d="M23 771h83l285 -871h-84z" />
    <glyph glyph-name="parenleft" unicode="(" horiz-adv-x="319" 
d="M103.5 67.5q-36.5 113.5 -36.5 231.5q0 117 37 230.5t105 205.5h84q-69 -96 -107.5 -209.5t-38.5 -226.5t38.5 -226.5t107.5 -209.5h-84q-69 91 -105.5 204.5z" />
    <glyph glyph-name="parenright" unicode=")" horiz-adv-x="319" 
d="M133.5 72.5q38.5 113.5 38.5 226.5t-38.5 226.5t-107.5 209.5h84q69 -91 105.5 -204.5t36.5 -231.5q0 -117 -37 -230.5t-105 -205.5h-84q69 96 107.5 209.5z" />
    <glyph glyph-name="braceleft" unicode="{" horiz-adv-x="384" 
d="M147.5 -85q-45.5 52 -45.5 151v69q0 53 -14.5 84.5t-53.5 52.5v54q41 23 54.5 55.5t13.5 83.5v68q0 98 45.5 150t132.5 52h70l-12 -75h-48q-54 0 -81.5 -33t-27.5 -96v-77q0 -49 -16 -86.5t-49 -68.5q33 -29 49 -66.5t16 -87.5v-77q0 -64 27.5 -97t81.5 -33h48l12 -75
h-70q-87 0 -132.5 52z" />
    <glyph glyph-name="braceright" unicode="}" horiz-adv-x="384" 
d="M94 -62q54 0 81.5 33t27.5 96v77q0 49 16 86.5t49 68.5q-33 29 -49 66.5t-16 87.5v77q0 64 -27.5 97t-81.5 33h-48l-12 75h70q87 0 132.5 -52t45.5 -151v-69q0 -53 14.5 -84.5t53.5 -52.5v-54q-41 -23 -54.5 -55.5t-13.5 -83.5v-68q0 -98 -45.5 -150t-132.5 -52h-70
l12 75h48z" />
    <glyph glyph-name="bracketleft" unicode="[" horiz-adv-x="378" 
d="M94 735h251l-12 -76h-159v-720h159l12 -76h-251v872z" />
    <glyph glyph-name="bracketright" unicode="]" horiz-adv-x="378" 
d="M45 -61h159v720h-159l-12 76h251v-872h-251z" />
    <glyph glyph-name="parenleft.case" horiz-adv-x="319" 
d="M103.5 103.5q-36.5 113.5 -36.5 231.5q0 117 37 230.5t105 205.5h84q-69 -96 -107.5 -209.5t-38.5 -226.5t38.5 -226.5t107.5 -209.5h-84q-69 91 -105.5 204.5z" />
    <glyph glyph-name="parenright.case" horiz-adv-x="319" 
d="M133.5 108.5q38.5 113.5 38.5 226.5t-38.5 226.5t-107.5 209.5h84q69 -91 105.5 -204.5t36.5 -231.5q0 -117 -37 -230.5t-105 -205.5h-84q69 96 107.5 209.5z" />
    <glyph glyph-name="braceleft.case" horiz-adv-x="384" 
d="M147.5 -49q-45.5 52 -45.5 151v69q0 53 -14.5 84.5t-53.5 52.5v54q41 23 54.5 55.5t13.5 83.5v68q0 98 45.5 150t132.5 52h70l-12 -75h-48q-54 0 -81.5 -33t-27.5 -96v-77q0 -49 -16 -86.5t-49 -68.5q33 -29 49 -66.5t16 -87.5v-77q0 -64 27.5 -97t81.5 -33h48l12 -75
h-70q-87 0 -132.5 52z" />
    <glyph glyph-name="braceright.case" horiz-adv-x="384" 
d="M94 -26q54 0 81.5 33t27.5 96v77q0 49 16 86.5t49 68.5q-33 29 -49 66.5t-16 87.5v77q0 64 -27.5 97t-81.5 33h-48l-12 75h70q87 0 132.5 -52t45.5 -151v-69q0 -53 14.5 -84.5t53.5 -52.5v-54q-41 -23 -54.5 -55.5t-13.5 -83.5v-68q0 -98 -45.5 -150t-132.5 -52h-70
l12 75h48z" />
    <glyph glyph-name="bracketleft.case" horiz-adv-x="378" 
d="M94 771h251l-12 -76h-159v-720h159l12 -76h-251v872z" />
    <glyph glyph-name="bracketright.case" horiz-adv-x="378" 
d="M45 -25h159v720h-159l-12 76h251v-872h-251z" />
    <glyph glyph-name="hyphen" unicode="-" horiz-adv-x="400" 
d="M59 331h282v-74h-282v74z" />
    <glyph glyph-name="uni00AD" unicode="&#xad;" horiz-adv-x="400" 
d="M59 331h282v-74h-282v74z" />
    <glyph glyph-name="endash" unicode="&#x2013;" horiz-adv-x="427" 
d="M0 330h427v-72h-427v72z" />
    <glyph glyph-name="emdash" unicode="&#x2014;" horiz-adv-x="854" 
d="M0 330h854v-72h-854v72z" />
    <glyph glyph-name="underscore" unicode="_" horiz-adv-x="437" 
d="M5 -80h427v-68h-427v68z" />
    <glyph glyph-name="hyphen.case" horiz-adv-x="400" 
d="M59 377h282v-74h-282v74z" />
    <glyph glyph-name="endash.case" horiz-adv-x="427" 
d="M0 376h427v-72h-427v72z" />
    <glyph glyph-name="emdash.case" horiz-adv-x="854" 
d="M0 376h854v-72h-854v72z" />
    <glyph glyph-name="quotesinglbase" unicode="&#x201a;" horiz-adv-x="225" 
d="M60 -11.5q17 58.5 22 111.5h79q-6 -57 -25.5 -114.5t-46.5 -103.5h-70q24 48 41 106.5z" />
    <glyph glyph-name="quotedblbase" unicode="&#x201e;" horiz-adv-x="372" 
d="M60 -11.5q17 58.5 22 111.5h79q-6 -57 -25.5 -114.5t-46.5 -103.5h-70q24 48 41 106.5zM207 -11.5q17 58.5 22 111.5h79q-6 -57 -25.5 -114.5t-46.5 -103.5h-70q24 48 41 106.5z" />
    <glyph glyph-name="quotedblleft" unicode="&#x201c;" horiz-adv-x="369" 
d="M77 577q18 55 43 100h68q-22 -47 -37.5 -101.5t-21.5 -107.5h-77q7 54 25 109zM224 577q18 55 43 100h68q-22 -47 -37.5 -101.5t-21.5 -107.5h-77q7 54 25 109z" />
    <glyph glyph-name="quotedblright" unicode="&#x201d;" horiz-adv-x="369" 
d="M71.5 568.5q15.5 54.5 21.5 107.5h77q-7 -54 -25 -109t-43 -100h-68q22 47 37.5 101.5zM218.5 568.5q15.5 54.5 21.5 107.5h77q-7 -54 -25 -109t-43 -100h-68q22 47 37.5 101.5z" />
    <glyph glyph-name="quoteleft" unicode="&#x2018;" horiz-adv-x="222" 
d="M77 577q18 55 43 100h68q-22 -47 -37.5 -101.5t-21.5 -107.5h-77q7 54 25 109z" />
    <glyph glyph-name="quoteright" unicode="&#x2019;" horiz-adv-x="222" 
d="M71.5 568.5q15.5 54.5 21.5 107.5h77q-7 -54 -25 -109t-43 -100h-68q22 47 37.5 101.5z" />
    <glyph glyph-name="guillemotleft" unicode="&#xab;" horiz-adv-x="460" 
d="M44 282l117 192h81l-112 -192l112 -193h-81zM220 282l117 192h81l-112 -192l112 -193h-81z" />
    <glyph glyph-name="guillemotright" unicode="&#xbb;" horiz-adv-x="460" 
d="M154 281l-112 193h81l117 -193l-117 -192h-81zM330 281l-112 193h81l117 -193l-117 -192h-81z" />
    <glyph glyph-name="guilsinglleft" unicode="&#x2039;" horiz-adv-x="284" 
d="M44 282l117 192h81l-112 -192l112 -193h-81z" />
    <glyph glyph-name="guilsinglright" unicode="&#x203a;" horiz-adv-x="284" 
d="M154 281l-112 193h81l117 -193l-117 -192h-81z" />
    <glyph glyph-name="quotedbl" unicode="&#x22;" horiz-adv-x="379" 
d="M70 676h80l-6 -259h-68zM229 676h80l-6 -259h-68z" />
    <glyph glyph-name="quotesingle" unicode="'" horiz-adv-x="220" 
d="M70 676h80l-6 -259h-68z" />
    <glyph glyph-name="guillemotleft.case" horiz-adv-x="460" 
d="M44 346l117 192h81l-112 -192l112 -193h-81zM220 346l117 192h81l-112 -192l112 -193h-81z" />
    <glyph glyph-name="guillemotright.case" horiz-adv-x="460" 
d="M154 345l-112 193h81l117 -193l-117 -192h-81zM330 345l-112 193h81l117 -193l-117 -192h-81z" />
    <glyph glyph-name="guilsinglleft.case" horiz-adv-x="284" 
d="M44 346l117 192h81l-112 -192l112 -193h-81z" />
    <glyph glyph-name="guilsinglright.case" horiz-adv-x="284" 
d="M154 345l-112 193h81l117 -193l-117 -192h-81z" />
    <glyph glyph-name="period.dnom" horiz-adv-x="138" 
d="M28 6q-13 14 -13 35q0 22 13 36t33 14t33 -14t13 -36q0 -21 -13 -35t-33 -14t-33 14z" />
    <glyph glyph-name="comma.dnom" horiz-adv-x="145" 
d="M38 85h70q-5 -38 -19 -80t-33 -76h-62q34 74 44 156z" />
    <glyph glyph-name="period.numr" horiz-adv-x="138" 
d="M28 280q-13 14 -13 35q0 22 13 36t33 14t33 -14t13 -36q0 -21 -13 -35t-33 -14t-33 14z" />
    <glyph glyph-name="comma.numr" horiz-adv-x="145" 
d="M38 359h70q-5 -38 -19 -80t-33 -76h-62q34 74 44 156z" />
    <glyph glyph-name="period.subs" horiz-adv-x="138" 
d="M28 -70q-13 14 -13 35q0 22 13 36t33 14t33 -14t13 -36q0 -21 -13 -35t-33 -14t-33 14z" />
    <glyph glyph-name="comma.subs" horiz-adv-x="145" 
d="M38 8h70q-5 -38 -19 -80t-33 -76h-62q34 74 44 156z" />
    <glyph glyph-name="uni00A0" unicode="&#xa0;" horiz-adv-x="255" 
 />
    <glyph glyph-name="cent" unicode="&#xa2;" 
d="M123 159.5q-49 70.5 -49 175.5q0 66 22.5 121.5t63.5 93t94 48.5v113l77 18v-128q79 -9 128 -70l-50 -49q-25 26 -49.5 37t-59.5 11q-67 0 -107.5 -53.5t-40.5 -141.5q0 -57 19 -101t52.5 -68.5t76.5 -24.5q33 0 59.5 12.5t53.5 38.5l51 -49q-58 -61 -133 -72v-119
l-77 -18v139q-82 16 -131 86.5z" />
    <glyph glyph-name="currency" unicode="&#xa4;" 
d="M100 215q-29 52 -29 121q0 63 29 118l-72 76l55 52l67 -68q48 40 110 40q64 0 112 -39l65 67l56 -52l-71 -76q28 -53 28 -119q0 -64 -29 -119l72 -76l-56 -52l-66 68q-50 -40 -111 -40q-63 0 -111 39l-66 -67l-55 52zM345 227.5q33 41.5 33 107.5q0 67 -32.5 108
t-85.5 41q-52 0 -84.5 -41.5t-32.5 -106.5q0 -67 32.5 -108.5t84.5 -41.5t85 41.5z" />
    <glyph glyph-name="dollar" unicode="$" 
d="M40 94l49 50q37 -41 81.5 -58.5t98.5 -17.5q57 0 89 27.5t32 78.5q0 55 -33 82.5t-108 48.5q-97 27 -141 69.5t-44 121.5q0 66 45 114t118 58v110l77 18v-129q44 -8 83 -29.5t68 -55.5l-50 -49q-30 32 -68 48t-76 16q-55 0 -87.5 -27t-32.5 -75q0 -47 32 -71t111 -48
q96 -29 140 -76t44 -121t-43 -123.5t-121 -59.5v-121l-77 -17v138q-115 12 -187 98z" />
    <glyph glyph-name="Euro" unicode="&#x20ac;" 
d="M180 51.5q-64 61.5 -87 168.5h-80l17 65h54q-2 28 -2 43q0 17 2 49h-71l17 66h65q25 102 88 162.5t147 60.5q57 0 100.5 -22t77.5 -64l-48 -46q-52 58 -125 58q-57 0 -98 -39.5t-61 -109.5h194l-16 -66h-190q-2 -32 -2 -49q0 -15 2 -43h169l-17 -65h-141q19 -73 62 -114
t102 -41q34 0 64 13.5t62 45.5l51 -53q-40 -41 -83 -61t-96 -20q-93 0 -157 61.5z" />
    <glyph glyph-name="florin" unicode="&#x192;" 
d="M66 72q35 0 59 13t41.5 45.5t31.5 90.5l20 83h-123v70h141l16 67q27 111 74.5 163.5t133.5 52.5h41v-72h-39q-55 0 -84.5 -34t-48.5 -115l-15 -62h126v-70h-142l-21 -88q-25 -107 -72.5 -161.5t-136.5 -54.5h-48v72h46z" />
    <glyph glyph-name="sterling" unicode="&#xa3;" 
d="M117 282h-80v70h93l17 88q20 105 75 161t159 56h93v-73h-93q-67 0 -106.5 -32t-55.5 -117l-15 -83h206v-70h-219l-40 -210h331v-72h-408v55z" />
    <glyph glyph-name="yen" unicode="&#xa5;" horiz-adv-x="510" 
d="M218 124h-155v63h155v86h-155v63h120l-159 321h88l144 -313l146 313h83l-158 -321h120v-63h-155v-86h155v-63h-155v-124h-74v124z" />
    <glyph glyph-name="plus" unicode="+" 
d="M226 295h-151v70h151v177h69v-177h151v-70h-151v-176h-69v176z" />
    <glyph glyph-name="minus" unicode="&#x2212;" 
d="M92 366h338v-72h-338v72z" />
    <glyph glyph-name="multiply" unicode="&#xd7;" 
d="M79 199l131 132l-131 131l50 50l131 -130l131 130l50 -50l-130 -131l130 -132l-50 -50l-131 131l-131 -131z" />
    <glyph glyph-name="divide" unicode="&#xf7;" 
d="M225 450.5q-14 15.5 -14 38.5t14 38t36 15t36.5 -15t14.5 -38t-14.5 -38.5t-36.5 -15.5t-36 15.5zM92 366h338v-72h-338v72zM225 133.5q-14 15.5 -14 38.5q0 24 14 38.5t36 14.5q23 0 37 -14.5t14 -38.5q0 -23 -14.5 -38.5t-36.5 -15.5t-36 15.5z" />
    <glyph glyph-name="equal" unicode="=" 
d="M92 468h338v-72h-338v72zM92 264h338v-72h-338v72z" />
    <glyph glyph-name="notequal" unicode="&#x2260;" 
d="M114 110l39 82h-61v72h94l62 132h-156v72h190l52 110l64 -27l-39 -83h71v-72h-105l-62 -132h167v-72h-201l-52 -111z" />
    <glyph glyph-name="greater" unicode="&#x3e;" 
d="M105 180l233 152l-233 150l37 61l274 -180v-63l-274 -180z" />
    <glyph glyph-name="less" unicode="&#x3c;" 
d="M105 299v63l274 180l37 -60l-233 -152l233 -150l-37 -61z" />
    <glyph glyph-name="greaterequal" unicode="&#x2265;" 
d="M114 224l236 139l-236 139l35 59l275 -167v-62l-275 -167zM99 71h325v-71h-325v71z" />
    <glyph glyph-name="lessequal" unicode="&#x2264;" 
d="M97 332v62l275 167l35 -59l-236 -139l236 -139l-35 -59zM97 72h325v-72h-325v72z" />
    <glyph glyph-name="plusminus" unicode="&#xb1;" 
d="M226 309h-151v70h151v177h69v-177h151v-70h-151v-176h-69v176zM92 71h338v-72h-338v72z" />
    <glyph glyph-name="approxequal" unicode="&#x2248;" 
d="M302.5 370q-21.5 12 -49.5 34q-25 18 -41 27t-30 9q-27 0 -42.5 -16.5t-19.5 -56.5h-62q2 67 33.5 106t83.5 39q40 0 101 -48q23 -18 39 -27t28 -9q49 0 57 77h62q-2 -67 -33 -107t-83 -40q-22 0 -43.5 12zM302.5 161q-21.5 12 -49.5 34q-25 18 -41 27t-30 9
q-27 0 -42.5 -16.5t-19.5 -56.5h-62q2 67 33.5 106t83.5 39q40 0 101 -48q23 -18 39 -27t28 -9q49 0 57 77h62q-2 -67 -33 -107t-83 -40q-22 0 -43.5 12z" />
    <glyph glyph-name="asciitilde" unicode="~" 
d="M302.5 258q-21.5 12 -49.5 34q-25 18 -41 27t-30 9q-27 0 -42.5 -16.5t-19.5 -56.5h-62q2 67 33.5 106t83.5 39q40 0 101 -48q23 -18 39 -27t28 -9q49 0 57 77h62q-2 -67 -33 -107t-83 -40q-22 0 -43.5 12z" />
    <glyph glyph-name="logicalnot" unicode="&#xac;" 
d="M361 350h-286v70h356v-249h-70v179z" />
    <glyph glyph-name="asciicircum" unicode="^" 
d="M224 676h75l156 -336h-81l-112 260l-115 -260h-80z" />
    <glyph glyph-name="uni00B5" unicode="&#xb5;" horiz-adv-x="529" 
d="M147 520v-286q0 -59 7.5 -95.5t31 -57t68.5 -20.5q37 0 70 24.5t58 68.5v366h78v-520h-50l-21 73q-29 -39 -68.5 -61t-82.5 -22q-58 0 -92 44v-238l-77 -16v740h78z" />
    <glyph glyph-name="percent" unicode="%" horiz-adv-x="867" 
d="M93.5 321.5q-41.5 54.5 -41.5 142.5q0 56 19.5 101t54 70.5t77.5 25.5q67 0 108.5 -54t41.5 -143q0 -56 -19 -101t-53.5 -70.5t-77.5 -25.5q-68 0 -109.5 54.5zM608 657h86l-436 -657h-86zM263.5 368q20.5 36 20.5 96q0 61 -20 96.5t-60 35.5t-61.5 -36t-21.5 -96
q0 -59 21 -95.5t61 -36.5t60.5 36zM555.5 47.5q-41.5 54.5 -41.5 142.5q0 56 19.5 101t54 70.5t77.5 25.5q67 0 108.5 -54t41.5 -143q0 -56 -19 -101t-53.5 -70.5t-77.5 -25.5q-68 0 -109.5 54.5zM725.5 94q20.5 36 20.5 96q0 61 -20 96.5t-60 35.5t-61.5 -36t-21.5 -96
q0 -59 21 -95.5t61 -36.5t60.5 36z" />
    <glyph glyph-name="perthousand" unicode="&#x2030;" horiz-adv-x="1231" 
d="M93.5 321.5q-41.5 54.5 -41.5 142.5q0 56 19.5 101t54 70.5t77.5 25.5q67 0 108.5 -54t41.5 -143q0 -56 -19 -101t-53.5 -70.5t-77.5 -25.5q-68 0 -109.5 54.5zM608 657h86l-436 -657h-86zM263.5 368q20.5 36 20.5 96q0 61 -20 96.5t-60 35.5t-61.5 -36t-21.5 -96
q0 -59 21 -95.5t61 -36.5t60.5 36zM555.5 47.5q-41.5 54.5 -41.5 142.5q0 56 19.5 101t54 70.5t77.5 25.5q67 0 108.5 -54t41.5 -143q0 -56 -19 -101t-53.5 -70.5t-77.5 -25.5q-68 0 -109.5 54.5zM919.5 47.5q-41.5 54.5 -41.5 142.5q0 56 19.5 101t54 70.5t77.5 25.5
q67 0 108.5 -54t41.5 -143q0 -56 -19 -101t-53.5 -70.5t-77.5 -25.5q-68 0 -109.5 54.5zM725.5 94q20.5 36 20.5 96q0 61 -20 96.5t-60 35.5t-61.5 -36t-21.5 -96q0 -59 21 -95.5t61 -36.5t60.5 36zM1089.5 94q20.5 36 20.5 96q0 61 -20 96.5t-60 35.5t-61.5 -36t-21.5 -96
q0 -59 21 -95.5t61 -36.5t60.5 36z" />
    <glyph glyph-name="at" unicode="@" horiz-adv-x="857" 
d="M231 -108q-82 53 -128.5 147.5t-46.5 213.5q0 123 54.5 222t145.5 154.5t194 55.5q105 0 186.5 -43.5t127 -121.5t45.5 -176q0 -84 -32.5 -148t-87.5 -99t-121 -35h-35l-15 47q-24 -25 -53.5 -39.5t-59.5 -14.5q-71 0 -113.5 55.5t-42.5 149.5q0 58 23 105t62.5 73.5
t87.5 26.5q25 0 53.5 -12t50.5 -31l8 35h59v-329q65 6 105.5 63.5t40.5 152.5q0 79 -36 141t-101.5 96.5t-151.5 34.5t-160.5 -46.5t-118.5 -129t-44 -186.5q0 -101 37 -179t102.5 -121.5t149.5 -43.5q59 0 104 16t88 51l43 -53q-97 -85 -236 -85q-102 0 -184 53zM514 180
v183q-38 32 -80 32q-49 0 -78.5 -36.5t-29.5 -100.5q0 -60 26 -95.5t71 -35.5q50 0 91 53z" />
    <glyph glyph-name="ampersand" unicode="&#x26;" horiz-adv-x="578" 
d="M143.5 13q-47.5 24 -74 68.5t-26.5 102.5q0 63 32.5 110.5t86.5 78.5q-28 40 -41 72.5t-13 69.5q0 49 23.5 88t65 61t92.5 22q52 0 93.5 -21.5t75.5 -66.5l-51 -48q-27 33 -54.5 47.5t-63.5 14.5q-47 0 -76 -29t-29 -75q0 -34 21 -67.5t66 -88.5l22 -27l129 -163
q31 57 31 154v35h70v-36q0 -59 -14.5 -112.5t-42.5 -96.5l85 -106h-88l-44 55q-69 -66 -166 -66q-62 0 -109.5 24zM323 74q30 13 53 35l-172 213q-37 -20 -61 -53.5t-24 -77.5q0 -58 40 -94t101 -36q33 0 63 13z" />
    <glyph glyph-name="paragraph" unicode="&#xb6;" horiz-adv-x="507" 
d="M254 -73q42 0 65 31t23 88v616l80 14v-631q0 -92 -42.5 -143t-117.5 -51h-26v76h18zM108.5 274.5q-61.5 53.5 -61.5 146.5q0 85 45.5 140.5t131.5 75.5l55 13v-429q-109 0 -170.5 53.5z" />
    <glyph glyph-name="section" unicode="&#xa7;" horiz-adv-x="418" 
d="M140 -79q44 0 68.5 21t24.5 58q0 27 -12.5 48.5t-38.5 48.5l-73 75q-31 33 -46.5 64t-15.5 68q0 44 27 78.5t72 48.5q-33 48 -33 95q0 67 46.5 108.5t126.5 41.5h50v-70h-54q-45 0 -69.5 -22t-24.5 -59q0 -28 12.5 -49t38.5 -48l71 -72q61 -63 61 -132q0 -43 -27.5 -77.5
t-71.5 -47.5q36 -50 36 -99q0 -67 -46 -107.5t-126 -40.5h-56v69h60zM279.5 174.5q21.5 20.5 21.5 50.5q0 22 -10 41t-31 41l-67 70q-32 -1 -53.5 -21.5t-21.5 -51.5q0 -21 10 -40.5t31 -42.5l65 -68q34 1 55.5 21.5z" />
    <glyph glyph-name="copyright" unicode="&#xa9;" horiz-adv-x="707" 
d="M197.5 32.5q-70.5 43.5 -111.5 123t-41 182.5q0 100 41.5 179.5t112 124.5t154.5 45t155 -44t112.5 -124t41.5 -181q0 -102 -41.5 -181.5t-112.5 -123.5t-155 -44q-85 0 -155.5 43.5zM480.5 84.5q56.5 36.5 88.5 102.5t32 151t-32 151t-88.5 102.5t-127.5 36.5t-127 -37
t-88 -103t-32 -150q0 -86 31.5 -152t87.5 -102t128 -36q71 0 127.5 36.5zM275 173q-37 23 -58 66t-21 100q0 53 21.5 96t59 67t82.5 24q75 0 119 -54l-41 -43q-16 17 -34 25t-41 8q-43 0 -71 -33.5t-28 -89.5t27.5 -89.5t71.5 -33.5q48 0 83 31l39 -44q-24 -25 -57 -39
t-69 -14q-46 0 -83 23z" />
    <glyph glyph-name="registered" unicode="&#xae;" horiz-adv-x="512" 
d="M143.5 277q-50.5 30 -80.5 84.5t-30 126.5q0 69 30.5 124t81.5 86t110 31q60 0 111.5 -30.5t81.5 -85.5t30 -125q0 -71 -30.5 -126t-81.5 -85t-111 -30q-61 0 -111.5 30zM346 317.5q40 24.5 62.5 69t22.5 101.5q0 56 -22.5 100.5t-62.5 69.5t-91 25q-50 0 -90 -25
t-62.5 -69t-22.5 -101t22.5 -101.5t62.5 -69t90 -24.5q51 0 91 24.5zM261 612q38 0 61.5 -22t23.5 -56q0 -20 -10 -36t-28 -25q17 -13 26 -36l29 -65h-55l-18 38q-12 24 -19.5 32t-28.5 8h-21v-78h-49v240h89zM282.5 506.5q10.5 8.5 10.5 24.5q0 34 -40 34h-32v-67h32
q19 0 29.5 8.5z" />
    <glyph glyph-name="trademark" unicode="&#x2122;" horiz-adv-x="760" 
d="M134 615h-103v61h264v-61h-101v-293h-60v293zM352 676h58l109 -223l114 223h58v-354h-60v238l-88 -170h-49l-84 168v-236h-58v354z" />
    <glyph glyph-name="degree" unicode="&#xb0;" horiz-adv-x="354" 
d="M111 416.5q-30 18.5 -47.5 51t-17.5 71.5t17.5 71.5t47.5 51t66 18.5t66 -18.5t47.5 -51t17.5 -71.5t-17.5 -71.5t-47.5 -51t-66 -18.5t-66 18.5zM226 482q20 22 20 57t-20 57t-49 22t-49 -22t-20 -57t20 -57t49 -22t49 22z" />
    <glyph glyph-name="bar" unicode="|" horiz-adv-x="268" 
d="M94 735h80v-872h-80v872z" />
    <glyph glyph-name="brokenbar" unicode="&#xa6;" horiz-adv-x="268" 
d="M94 735h80v-328h-80v328zM94 192h80v-329h-80v329z" />
    <glyph glyph-name="dagger" unicode="&#x2020;" horiz-adv-x="335" 
d="M136 509h-104v58h104v109l61 13v-122h105v-58h-105v-213h-61v213z" />
    <glyph glyph-name="daggerdbl" unicode="&#x2021;" horiz-adv-x="349" 
d="M143 394h-101v58h101v82h-101v58h101v84l61 13v-97h103v-58h-103v-82h103v-58h-103v-98h-61v98z" />
    <glyph glyph-name="at.case" horiz-adv-x="857" 
d="M231 -47q-82 53 -128.5 147.5t-46.5 213.5q0 123 54.5 222t145.5 154.5t194 55.5q105 0 186.5 -43.5t127 -121.5t45.5 -176q0 -84 -32.5 -148t-87.5 -99t-121 -35h-35l-15 47q-24 -25 -53.5 -39.5t-59.5 -14.5q-71 0 -113.5 55.5t-42.5 149.5q0 58 23 105t62.5 73.5
t87.5 26.5q25 0 53.5 -12t50.5 -31l8 35h59v-329q65 6 105.5 63.5t40.5 152.5q0 79 -36 141t-101.5 96.5t-151.5 34.5t-160.5 -46.5t-118.5 -129t-44 -186.5q0 -101 37 -179t102.5 -121.5t149.5 -43.5q59 0 104 16t88 51l43 -53q-97 -85 -236 -85q-102 0 -184 53zM514 241
v183q-38 32 -80 32q-49 0 -78.5 -36.5t-29.5 -100.5q0 -60 26 -95.5t71 -35.5q50 0 91 53z" />
    <glyph glyph-name="uni0308" unicode="&#x308;" horiz-adv-x="0" 
d="M-377 631.5q-14 14.5 -14 35.5q0 23 13.5 37.5t35.5 14.5q21 0 34.5 -14.5t13.5 -37.5q0 -21 -14 -35.5t-34 -14.5q-21 0 -35 14.5zM-214 631.5q-14 14.5 -14 35.5q0 23 14 37.5t35 14.5t34.5 -14.5t13.5 -37.5q0 -21 -14 -35.5t-34 -14.5q-21 0 -35 14.5z" />
    <glyph glyph-name="uni0307" unicode="&#x307;" horiz-adv-x="0" 
d="M-297 631.5q-14 14.5 -14 36.5t14 37t35 15t35.5 -15t14.5 -37t-14.5 -36.5t-35.5 -14.5t-35 14.5z" />
    <glyph glyph-name="gravecomb" unicode="&#x300;" horiz-adv-x="0" 
d="M-366 736h93l116 -137h-82z" />
    <glyph glyph-name="acutecomb" unicode="&#x301;" horiz-adv-x="0" 
d="M-250 736h93l-127 -137h-82z" />
    <glyph glyph-name="uni0302" unicode="&#x302;" horiz-adv-x="0" 
d="M-303 736h83l106 -137h-78l-70 84l-70 -84h-76z" />
    <glyph glyph-name="uni030C" unicode="&#x30c;" horiz-adv-x="0" 
d="M-408 736h79l68 -83l70 83h77l-106 -137h-83z" />
    <glyph glyph-name="uni030A" unicode="&#x30a;" horiz-adv-x="0" 
d="M-344 622.5q-35 35.5 -35 86.5t34.5 85.5t83.5 34.5t84 -35t35 -85q0 -51 -35 -86.5t-84 -35.5q-48 0 -83 35.5zM-218 660.5q18 19.5 18 48.5q0 27 -18 46t-43 19q-24 0 -42 -19t-18 -46q0 -29 18 -48.5t42 -19.5q25 0 43 19.5z" />
    <glyph glyph-name="tildecomb" unicode="&#x303;" horiz-adv-x="0" 
d="M-222 615q-12 5 -23.5 11.5t-16.5 9.5q-6 4 -17.5 11t-21 10.5t-20.5 3.5q-21 0 -38.5 -10t-40.5 -30v67q20 19 38.5 28.5t40.5 9.5q19 0 34 -6t35 -19q5 -3 17 -10.5t22 -11.5t20 -4q22 0 39 10t40 30v-67q-18 -18 -37 -28t-43 -10q-16 0 -28 5z" />
    <glyph glyph-name="uni0327" unicode="&#x327;" horiz-adv-x="0" 
d="M-313 -126q27 0 43.5 13t16.5 39q0 19 -8.5 37t-26.5 39l51 14q48 -48 48 -98t-33.5 -76.5t-88.5 -26.5h-23v59h21z" />
    <glyph glyph-name="dieresis" unicode="&#xa8;" horiz-adv-x="588" 
d="M145 631.5q-14 14.5 -14 35.5q0 23 13.5 37.5t35.5 14.5q21 0 34.5 -14.5t13.5 -37.5q0 -21 -14 -35.5t-34 -14.5q-21 0 -35 14.5zM308 631.5q-14 14.5 -14 35.5q0 23 14 37.5t35 14.5t34.5 -14.5t13.5 -37.5q0 -21 -14 -35.5t-34 -14.5q-21 0 -35 14.5z" />
    <glyph glyph-name="dotaccent" unicode="&#x2d9;" horiz-adv-x="588" 
d="M226 631.5q-14 14.5 -14 36.5t14 37t35 15t35.5 -15t14.5 -37t-14.5 -36.5t-35.5 -14.5t-35 14.5z" />
    <glyph glyph-name="grave" unicode="`" horiz-adv-x="588" 
d="M157 736h93l116 -137h-82z" />
    <glyph glyph-name="acute" unicode="&#xb4;" horiz-adv-x="588" 
d="M273 736h93l-127 -137h-82z" />
    <glyph glyph-name="circumflex" unicode="&#x2c6;" horiz-adv-x="588" 
d="M220 736h83l106 -137h-78l-70 84l-70 -84h-76z" />
    <glyph glyph-name="caron" unicode="&#x2c7;" horiz-adv-x="588" 
d="M115 736h79l68 -83l70 83h77l-106 -137h-83z" />
    <glyph glyph-name="ring" unicode="&#x2da;" horiz-adv-x="588" 
d="M178 622.5q-35 35.5 -35 86.5t35 85.5t83 34.5q49 0 84 -35t35 -85q0 -51 -35 -86.5t-84 -35.5q-48 0 -83 35.5zM304 660.5q18 19.5 18 48.5q0 27 -18 46t-43 19q-24 0 -42 -19t-18 -46q0 -29 18 -48.5t42 -19.5q25 0 43 19.5z" />
    <glyph glyph-name="tilde" unicode="&#x2dc;" horiz-adv-x="588" 
d="M300 615q-12 5 -23.5 11.5t-16.5 9.5q-6 4 -17.5 11t-21 10.5t-20.5 3.5q-21 0 -38.5 -10t-40.5 -30v67q20 19 38.5 28.5t40.5 9.5q19 0 34 -6t35 -19q5 -3 17 -10.5t22 -11.5t20 -4q22 0 39 10t40 30v-67q-18 -18 -37 -28t-43 -10q-16 0 -28 5z" />
    <glyph glyph-name="cedilla" unicode="&#xb8;" horiz-adv-x="588" 
d="M210 -126q28 0 44 13t16 39q0 19 -8.5 37t-26.5 39l51 14q48 -48 48 -98t-33.5 -76.5t-88.5 -26.5h-23v59h21z" />
    <glyph glyph-name="uni0308.case" horiz-adv-x="0" 
d="M-378 764q-14 14 -14 36t14 36t35 14t35.5 -14t14.5 -36t-14.5 -36t-35.5 -14t-35 14zM-214 764q-14 14 -14 36t14 36t35 14t35.5 -14t14.5 -36t-14.5 -36t-35.5 -14t-35 14z" />
    <glyph glyph-name="uni0307.case" horiz-adv-x="0" 
d="M-297.5 772q-14.5 14 -14.5 36t14.5 36.5t35.5 14.5t36 -14.5t15 -36.5t-15 -36t-36 -14t-35.5 14z" />
    <glyph glyph-name="gravecomb.case" horiz-adv-x="0" 
d="M-368 872h95l120 -130h-85z" />
    <glyph glyph-name="acutecomb.case" horiz-adv-x="0" 
d="M-249 872h96l-131 -130h-84z" />
    <glyph glyph-name="uni0302.case" horiz-adv-x="0" 
d="M-302 871h83l109 -130h-80l-71 80l-70 -80h-80z" />
    <glyph glyph-name="uni030C.case" horiz-adv-x="0" 
d="M-411 871h80l71 -80l71 80h79l-110 -130h-83z" />
    <glyph glyph-name="uni030A.case" horiz-adv-x="0" 
d="M-345 774.5q-35 35.5 -35 86.5t35 85.5t84 34.5t84.5 -35t35.5 -85q0 -52 -35.5 -87t-84.5 -35t-84 35.5zM-217.5 812.5q17.5 18.5 17.5 48.5q0 28 -17.5 46t-43.5 18q-25 0 -42.5 -18t-17.5 -46q0 -29 17.5 -48t42.5 -19q26 0 43.5 18.5z" />
    <glyph glyph-name="tildecomb.case" horiz-adv-x="0" 
d="M-261 777q-17 12 -29.5 17.5t-28.5 5.5q-21 0 -39.5 -9.5t-43.5 -27.5v66q21 18 41 26.5t43 8.5q20 0 35 -5.5t32 -16.5q20 -13 32.5 -19t27.5 -6q24 0 44 10t41 28v-68q-40 -35 -87 -35q-31 0 -68 25z" />
    <glyph glyph-name="uni0327.case" horiz-adv-x="0" 
d="M-314 -124q62 0 62 50q0 36 -34 76l53 14q46 -46 46 -98q0 -50 -34 -76.5t-91 -26.5h-23v61h21z" />
    <glyph glyph-name="gravecomb.narrow.case" horiz-adv-x="0" 
d="M-357 872h94l99 -130h-82z" />
    <glyph glyph-name="acutecomb.narrow.case" horiz-adv-x="0" 
d="M-214 872h94l-111 -130h-82z" />
    <glyph glyph-name="gravecomb.narrow" horiz-adv-x="0" 
d="M-353 736h86l88 -137h-76z" />
    <glyph glyph-name="acutecomb.narrow" horiz-adv-x="0" 
d="M-266 736h87l-99 -137h-75z" />
    <glyph glyph-name="periodsuperior" horiz-adv-x="138" 
d="M36 348q-13 14 -13 35q0 22 13 36t33 14t33 -14t13 -36q0 -21 -13 -35t-33 -14t-33 14z" />
    <glyph glyph-name="commasuperior" horiz-adv-x="145" 
d="M44 427h70q-5 -38 -19 -80t-33 -76h-62q34 74 44 156z" />
    </font>
</defs>
</svg>
